G75*
%MOIN*%
%OFA0B0*%
%FSLAX25Y25*%
%IPPOS*%
%LPD*%
%AMOC8*
5,1,8,0,0,1.08239X$1,22.5*
%
%ADD10C,0.00600*%
%ADD11C,0.00800*%
%ADD12C,0.00512*%
%ADD13C,0.01300*%
%ADD14C,0.01000*%
%ADD15C,0.00500*%
D10*
X0223439Y0207895D02*
X0224439Y0207895D01*
X0224939Y0208395D01*
X0233939Y0208395D01*
X0234439Y0207895D01*
X0235439Y0207895D01*
X0235499Y0207897D01*
X0235560Y0207902D01*
X0235619Y0207911D01*
X0235678Y0207924D01*
X0235737Y0207940D01*
X0235794Y0207960D01*
X0235849Y0207983D01*
X0235904Y0208010D01*
X0235956Y0208039D01*
X0236007Y0208072D01*
X0236056Y0208108D01*
X0236102Y0208146D01*
X0236146Y0208188D01*
X0236188Y0208232D01*
X0236226Y0208278D01*
X0236262Y0208327D01*
X0236295Y0208378D01*
X0236324Y0208430D01*
X0236351Y0208485D01*
X0236374Y0208540D01*
X0236394Y0208597D01*
X0236410Y0208656D01*
X0236423Y0208715D01*
X0236432Y0208774D01*
X0236437Y0208835D01*
X0236439Y0208895D01*
X0236439Y0213895D02*
X0236437Y0213955D01*
X0236432Y0214016D01*
X0236423Y0214075D01*
X0236410Y0214134D01*
X0236394Y0214193D01*
X0236374Y0214250D01*
X0236351Y0214305D01*
X0236324Y0214360D01*
X0236295Y0214412D01*
X0236262Y0214463D01*
X0236226Y0214512D01*
X0236188Y0214558D01*
X0236146Y0214602D01*
X0236102Y0214644D01*
X0236056Y0214682D01*
X0236007Y0214718D01*
X0235956Y0214751D01*
X0235904Y0214780D01*
X0235849Y0214807D01*
X0235794Y0214830D01*
X0235737Y0214850D01*
X0235678Y0214866D01*
X0235619Y0214879D01*
X0235560Y0214888D01*
X0235499Y0214893D01*
X0235439Y0214895D01*
X0234439Y0214895D01*
X0233939Y0214395D01*
X0224939Y0214395D01*
X0224439Y0214895D01*
X0223439Y0214895D01*
X0223379Y0214893D01*
X0223318Y0214888D01*
X0223259Y0214879D01*
X0223200Y0214866D01*
X0223141Y0214850D01*
X0223084Y0214830D01*
X0223029Y0214807D01*
X0222974Y0214780D01*
X0222922Y0214751D01*
X0222871Y0214718D01*
X0222822Y0214682D01*
X0222776Y0214644D01*
X0222732Y0214602D01*
X0222690Y0214558D01*
X0222652Y0214512D01*
X0222616Y0214463D01*
X0222583Y0214412D01*
X0222554Y0214360D01*
X0222527Y0214305D01*
X0222504Y0214250D01*
X0222484Y0214193D01*
X0222468Y0214134D01*
X0222455Y0214075D01*
X0222446Y0214016D01*
X0222441Y0213955D01*
X0222439Y0213895D01*
X0223502Y0217369D02*
X0224502Y0217369D01*
X0225002Y0217869D01*
X0234002Y0217869D01*
X0234502Y0217369D01*
X0235502Y0217369D01*
X0235562Y0217371D01*
X0235623Y0217376D01*
X0235682Y0217385D01*
X0235741Y0217398D01*
X0235800Y0217414D01*
X0235857Y0217434D01*
X0235912Y0217457D01*
X0235967Y0217484D01*
X0236019Y0217513D01*
X0236070Y0217546D01*
X0236119Y0217582D01*
X0236165Y0217620D01*
X0236209Y0217662D01*
X0236251Y0217706D01*
X0236289Y0217752D01*
X0236325Y0217801D01*
X0236358Y0217852D01*
X0236387Y0217904D01*
X0236414Y0217959D01*
X0236437Y0218014D01*
X0236457Y0218071D01*
X0236473Y0218130D01*
X0236486Y0218189D01*
X0236495Y0218248D01*
X0236500Y0218309D01*
X0236502Y0218369D01*
X0236502Y0223369D02*
X0236500Y0223429D01*
X0236495Y0223490D01*
X0236486Y0223549D01*
X0236473Y0223608D01*
X0236457Y0223667D01*
X0236437Y0223724D01*
X0236414Y0223779D01*
X0236387Y0223834D01*
X0236358Y0223886D01*
X0236325Y0223937D01*
X0236289Y0223986D01*
X0236251Y0224032D01*
X0236209Y0224076D01*
X0236165Y0224118D01*
X0236119Y0224156D01*
X0236070Y0224192D01*
X0236019Y0224225D01*
X0235967Y0224254D01*
X0235912Y0224281D01*
X0235857Y0224304D01*
X0235800Y0224324D01*
X0235741Y0224340D01*
X0235682Y0224353D01*
X0235623Y0224362D01*
X0235562Y0224367D01*
X0235502Y0224369D01*
X0234502Y0224369D01*
X0234002Y0223869D01*
X0225002Y0223869D01*
X0224502Y0224369D01*
X0223502Y0224369D01*
X0223442Y0224367D01*
X0223381Y0224362D01*
X0223322Y0224353D01*
X0223263Y0224340D01*
X0223204Y0224324D01*
X0223147Y0224304D01*
X0223092Y0224281D01*
X0223037Y0224254D01*
X0222985Y0224225D01*
X0222934Y0224192D01*
X0222885Y0224156D01*
X0222839Y0224118D01*
X0222795Y0224076D01*
X0222753Y0224032D01*
X0222715Y0223986D01*
X0222679Y0223937D01*
X0222646Y0223886D01*
X0222617Y0223834D01*
X0222590Y0223779D01*
X0222567Y0223724D01*
X0222547Y0223667D01*
X0222531Y0223608D01*
X0222518Y0223549D01*
X0222509Y0223490D01*
X0222504Y0223429D01*
X0222502Y0223369D01*
X0222502Y0218369D02*
X0222504Y0218309D01*
X0222509Y0218248D01*
X0222518Y0218189D01*
X0222531Y0218130D01*
X0222547Y0218071D01*
X0222567Y0218014D01*
X0222590Y0217959D01*
X0222617Y0217904D01*
X0222646Y0217852D01*
X0222679Y0217801D01*
X0222715Y0217752D01*
X0222753Y0217706D01*
X0222795Y0217662D01*
X0222839Y0217620D01*
X0222885Y0217582D01*
X0222934Y0217546D01*
X0222985Y0217513D01*
X0223037Y0217484D01*
X0223092Y0217457D01*
X0223147Y0217434D01*
X0223204Y0217414D01*
X0223263Y0217398D01*
X0223322Y0217385D01*
X0223381Y0217376D01*
X0223442Y0217371D01*
X0223502Y0217369D01*
X0222439Y0208895D02*
X0222441Y0208835D01*
X0222446Y0208774D01*
X0222455Y0208715D01*
X0222468Y0208656D01*
X0222484Y0208597D01*
X0222504Y0208540D01*
X0222527Y0208485D01*
X0222554Y0208430D01*
X0222583Y0208378D01*
X0222616Y0208327D01*
X0222652Y0208278D01*
X0222690Y0208232D01*
X0222732Y0208188D01*
X0222776Y0208146D01*
X0222822Y0208108D01*
X0222871Y0208072D01*
X0222922Y0208039D01*
X0222974Y0208010D01*
X0223029Y0207983D01*
X0223084Y0207960D01*
X0223141Y0207940D01*
X0223200Y0207924D01*
X0223259Y0207911D01*
X0223318Y0207902D01*
X0223379Y0207897D01*
X0223439Y0207895D01*
X0304742Y0214869D02*
X0304742Y0215869D01*
X0305242Y0216369D01*
X0305242Y0225369D01*
X0304742Y0225869D01*
X0304742Y0226869D01*
X0304744Y0226929D01*
X0304749Y0226990D01*
X0304758Y0227049D01*
X0304771Y0227108D01*
X0304787Y0227167D01*
X0304807Y0227224D01*
X0304830Y0227279D01*
X0304857Y0227334D01*
X0304886Y0227386D01*
X0304919Y0227437D01*
X0304955Y0227486D01*
X0304993Y0227532D01*
X0305035Y0227576D01*
X0305079Y0227618D01*
X0305125Y0227656D01*
X0305174Y0227692D01*
X0305225Y0227725D01*
X0305277Y0227754D01*
X0305332Y0227781D01*
X0305387Y0227804D01*
X0305444Y0227824D01*
X0305503Y0227840D01*
X0305562Y0227853D01*
X0305621Y0227862D01*
X0305682Y0227867D01*
X0305742Y0227869D01*
X0310742Y0227869D02*
X0310802Y0227867D01*
X0310863Y0227862D01*
X0310922Y0227853D01*
X0310981Y0227840D01*
X0311040Y0227824D01*
X0311097Y0227804D01*
X0311152Y0227781D01*
X0311207Y0227754D01*
X0311259Y0227725D01*
X0311310Y0227692D01*
X0311359Y0227656D01*
X0311405Y0227618D01*
X0311449Y0227576D01*
X0311491Y0227532D01*
X0311529Y0227486D01*
X0311565Y0227437D01*
X0311598Y0227386D01*
X0311627Y0227334D01*
X0311654Y0227279D01*
X0311677Y0227224D01*
X0311697Y0227167D01*
X0311713Y0227108D01*
X0311726Y0227049D01*
X0311735Y0226990D01*
X0311740Y0226929D01*
X0311742Y0226869D01*
X0311742Y0225869D01*
X0311242Y0225369D01*
X0311242Y0216369D01*
X0311742Y0215869D01*
X0311742Y0214869D01*
X0311740Y0214809D01*
X0311735Y0214748D01*
X0311726Y0214689D01*
X0311713Y0214630D01*
X0311697Y0214571D01*
X0311677Y0214514D01*
X0311654Y0214459D01*
X0311627Y0214404D01*
X0311598Y0214352D01*
X0311565Y0214301D01*
X0311529Y0214252D01*
X0311491Y0214206D01*
X0311449Y0214162D01*
X0311405Y0214120D01*
X0311359Y0214082D01*
X0311310Y0214046D01*
X0311259Y0214013D01*
X0311207Y0213984D01*
X0311152Y0213957D01*
X0311097Y0213934D01*
X0311040Y0213914D01*
X0310981Y0213898D01*
X0310922Y0213885D01*
X0310863Y0213876D01*
X0310802Y0213871D01*
X0310742Y0213869D01*
X0305742Y0213869D02*
X0305682Y0213871D01*
X0305621Y0213876D01*
X0305562Y0213885D01*
X0305503Y0213898D01*
X0305444Y0213914D01*
X0305387Y0213934D01*
X0305332Y0213957D01*
X0305277Y0213984D01*
X0305225Y0214013D01*
X0305174Y0214046D01*
X0305125Y0214082D01*
X0305079Y0214120D01*
X0305035Y0214162D01*
X0304993Y0214206D01*
X0304955Y0214252D01*
X0304919Y0214301D01*
X0304886Y0214352D01*
X0304857Y0214404D01*
X0304830Y0214459D01*
X0304807Y0214514D01*
X0304787Y0214571D01*
X0304771Y0214630D01*
X0304758Y0214689D01*
X0304749Y0214748D01*
X0304744Y0214809D01*
X0304742Y0214869D01*
X0316553Y0214869D02*
X0316553Y0215869D01*
X0317053Y0216369D01*
X0317053Y0225369D01*
X0316553Y0225869D01*
X0316553Y0226869D01*
X0316555Y0226929D01*
X0316560Y0226990D01*
X0316569Y0227049D01*
X0316582Y0227108D01*
X0316598Y0227167D01*
X0316618Y0227224D01*
X0316641Y0227279D01*
X0316668Y0227334D01*
X0316697Y0227386D01*
X0316730Y0227437D01*
X0316766Y0227486D01*
X0316804Y0227532D01*
X0316846Y0227576D01*
X0316890Y0227618D01*
X0316936Y0227656D01*
X0316985Y0227692D01*
X0317036Y0227725D01*
X0317088Y0227754D01*
X0317143Y0227781D01*
X0317198Y0227804D01*
X0317255Y0227824D01*
X0317314Y0227840D01*
X0317373Y0227853D01*
X0317432Y0227862D01*
X0317493Y0227867D01*
X0317553Y0227869D01*
X0322553Y0227869D02*
X0322613Y0227867D01*
X0322674Y0227862D01*
X0322733Y0227853D01*
X0322792Y0227840D01*
X0322851Y0227824D01*
X0322908Y0227804D01*
X0322963Y0227781D01*
X0323018Y0227754D01*
X0323070Y0227725D01*
X0323121Y0227692D01*
X0323170Y0227656D01*
X0323216Y0227618D01*
X0323260Y0227576D01*
X0323302Y0227532D01*
X0323340Y0227486D01*
X0323376Y0227437D01*
X0323409Y0227386D01*
X0323438Y0227334D01*
X0323465Y0227279D01*
X0323488Y0227224D01*
X0323508Y0227167D01*
X0323524Y0227108D01*
X0323537Y0227049D01*
X0323546Y0226990D01*
X0323551Y0226929D01*
X0323553Y0226869D01*
X0323553Y0225869D01*
X0323053Y0225369D01*
X0323053Y0216369D01*
X0323553Y0215869D01*
X0323553Y0214869D01*
X0323551Y0214809D01*
X0323546Y0214748D01*
X0323537Y0214689D01*
X0323524Y0214630D01*
X0323508Y0214571D01*
X0323488Y0214514D01*
X0323465Y0214459D01*
X0323438Y0214404D01*
X0323409Y0214352D01*
X0323376Y0214301D01*
X0323340Y0214252D01*
X0323302Y0214206D01*
X0323260Y0214162D01*
X0323216Y0214120D01*
X0323170Y0214082D01*
X0323121Y0214046D01*
X0323070Y0214013D01*
X0323018Y0213984D01*
X0322963Y0213957D01*
X0322908Y0213934D01*
X0322851Y0213914D01*
X0322792Y0213898D01*
X0322733Y0213885D01*
X0322674Y0213876D01*
X0322613Y0213871D01*
X0322553Y0213869D01*
X0317553Y0213869D02*
X0317493Y0213871D01*
X0317432Y0213876D01*
X0317373Y0213885D01*
X0317314Y0213898D01*
X0317255Y0213914D01*
X0317198Y0213934D01*
X0317143Y0213957D01*
X0317088Y0213984D01*
X0317036Y0214013D01*
X0316985Y0214046D01*
X0316936Y0214082D01*
X0316890Y0214120D01*
X0316846Y0214162D01*
X0316804Y0214206D01*
X0316766Y0214252D01*
X0316730Y0214301D01*
X0316697Y0214352D01*
X0316668Y0214404D01*
X0316641Y0214459D01*
X0316618Y0214514D01*
X0316598Y0214571D01*
X0316582Y0214630D01*
X0316569Y0214689D01*
X0316560Y0214748D01*
X0316555Y0214809D01*
X0316553Y0214869D01*
X0360592Y0226392D02*
X0362727Y0228528D01*
X0366997Y0228528D01*
X0366997Y0230703D02*
X0362727Y0230703D01*
X0362727Y0233906D01*
X0363794Y0234973D01*
X0366997Y0234973D01*
X0366997Y0237148D02*
X0366997Y0239283D01*
X0366997Y0238216D02*
X0362727Y0238216D01*
X0362727Y0237148D01*
X0360592Y0238216D02*
X0359524Y0238216D01*
X0360592Y0241445D02*
X0360592Y0242513D01*
X0366997Y0242513D01*
X0366997Y0243580D02*
X0366997Y0241445D01*
X0366997Y0245742D02*
X0366997Y0247877D01*
X0366997Y0246810D02*
X0360592Y0246810D01*
X0360592Y0245742D01*
X0363794Y0250039D02*
X0362727Y0251107D01*
X0362727Y0253242D01*
X0363794Y0254310D01*
X0365930Y0254310D01*
X0366997Y0253242D01*
X0366997Y0251107D01*
X0365930Y0250039D01*
X0363794Y0250039D01*
X0363794Y0228528D02*
X0363794Y0224257D01*
X0362727Y0224257D02*
X0366997Y0224257D01*
X0362727Y0224257D02*
X0360592Y0226392D01*
X0362727Y0215637D02*
X0366997Y0211366D01*
X0366997Y0215637D01*
X0362727Y0215637D02*
X0362727Y0211366D01*
X0363794Y0209191D02*
X0362727Y0208124D01*
X0362727Y0205988D01*
X0363794Y0204921D01*
X0365930Y0204921D01*
X0366997Y0205988D01*
X0366997Y0208124D01*
X0364862Y0209191D02*
X0364862Y0204921D01*
X0363794Y0202746D02*
X0362727Y0201678D01*
X0362727Y0199543D01*
X0363794Y0198475D01*
X0362727Y0196300D02*
X0362727Y0193097D01*
X0363794Y0192030D01*
X0365930Y0192030D01*
X0366997Y0193097D01*
X0366997Y0196300D01*
X0366997Y0198475D02*
X0360592Y0198475D01*
X0363794Y0202746D02*
X0366997Y0202746D01*
X0364862Y0209191D02*
X0363794Y0209191D01*
X0363794Y0189855D02*
X0362727Y0188787D01*
X0362727Y0185584D01*
X0366997Y0185584D01*
X0366997Y0183409D02*
X0366997Y0180206D01*
X0365930Y0179139D01*
X0364862Y0180206D01*
X0364862Y0183409D01*
X0363794Y0183409D02*
X0366997Y0183409D01*
X0363794Y0183409D02*
X0362727Y0182342D01*
X0362727Y0180206D01*
X0360592Y0180206D02*
X0359524Y0182342D01*
X0363794Y0189855D02*
X0366997Y0189855D01*
X0365930Y0176964D02*
X0366997Y0175896D01*
X0366997Y0173761D01*
X0365930Y0172693D01*
X0363794Y0173761D02*
X0363794Y0175896D01*
X0364862Y0176964D01*
X0365930Y0176964D01*
X0363794Y0173761D02*
X0362727Y0172693D01*
X0361659Y0172693D01*
X0360592Y0173761D01*
X0360592Y0175896D01*
X0361659Y0176964D01*
X0362727Y0164073D02*
X0362727Y0160870D01*
X0363794Y0159802D01*
X0364862Y0160870D01*
X0364862Y0163005D01*
X0365930Y0164073D01*
X0366997Y0163005D01*
X0366997Y0159802D01*
X0364862Y0157627D02*
X0364862Y0153357D01*
X0365930Y0153357D02*
X0363794Y0153357D01*
X0362727Y0154424D01*
X0362727Y0156560D01*
X0363794Y0157627D01*
X0364862Y0157627D01*
X0366997Y0156560D02*
X0366997Y0154424D01*
X0365930Y0153357D01*
X0362727Y0151188D02*
X0362727Y0150121D01*
X0364862Y0147986D01*
X0366997Y0147986D02*
X0362727Y0147986D01*
X0362727Y0145810D02*
X0362727Y0142608D01*
X0363794Y0141540D01*
X0365930Y0141540D01*
X0366997Y0142608D01*
X0366997Y0145810D01*
X0360592Y0145810D01*
X0363794Y0139365D02*
X0362727Y0138297D01*
X0362727Y0135095D01*
X0366997Y0135095D01*
X0366997Y0132919D02*
X0362727Y0132919D01*
X0360592Y0130784D01*
X0362727Y0128649D01*
X0366997Y0128649D01*
X0363794Y0128649D02*
X0363794Y0132919D01*
X0363794Y0139365D02*
X0366997Y0139365D01*
X0360592Y0154424D02*
X0359524Y0156560D01*
X0229344Y0067325D02*
X0229347Y0067570D01*
X0229356Y0067816D01*
X0229371Y0068061D01*
X0229392Y0068305D01*
X0229419Y0068549D01*
X0229452Y0068792D01*
X0229491Y0069035D01*
X0229536Y0069276D01*
X0229587Y0069516D01*
X0229644Y0069755D01*
X0229706Y0069992D01*
X0229775Y0070228D01*
X0229849Y0070462D01*
X0229929Y0070694D01*
X0230014Y0070924D01*
X0230105Y0071152D01*
X0230202Y0071377D01*
X0230304Y0071601D01*
X0230412Y0071821D01*
X0230525Y0072039D01*
X0230643Y0072254D01*
X0230767Y0072466D01*
X0230895Y0072675D01*
X0231029Y0072881D01*
X0231168Y0073083D01*
X0231312Y0073282D01*
X0231461Y0073477D01*
X0231614Y0073669D01*
X0231772Y0073857D01*
X0231934Y0074041D01*
X0232102Y0074220D01*
X0232273Y0074396D01*
X0232449Y0074567D01*
X0232628Y0074735D01*
X0232812Y0074897D01*
X0233000Y0075055D01*
X0233192Y0075208D01*
X0233387Y0075357D01*
X0233586Y0075501D01*
X0233788Y0075640D01*
X0233994Y0075774D01*
X0234203Y0075902D01*
X0234415Y0076026D01*
X0234630Y0076144D01*
X0234848Y0076257D01*
X0235068Y0076365D01*
X0235292Y0076467D01*
X0235517Y0076564D01*
X0235745Y0076655D01*
X0235975Y0076740D01*
X0236207Y0076820D01*
X0236441Y0076894D01*
X0236677Y0076963D01*
X0236914Y0077025D01*
X0237153Y0077082D01*
X0237393Y0077133D01*
X0237634Y0077178D01*
X0237877Y0077217D01*
X0238120Y0077250D01*
X0238364Y0077277D01*
X0238608Y0077298D01*
X0238853Y0077313D01*
X0239099Y0077322D01*
X0239344Y0077325D01*
X0239589Y0077322D01*
X0239835Y0077313D01*
X0240080Y0077298D01*
X0240324Y0077277D01*
X0240568Y0077250D01*
X0240811Y0077217D01*
X0241054Y0077178D01*
X0241295Y0077133D01*
X0241535Y0077082D01*
X0241774Y0077025D01*
X0242011Y0076963D01*
X0242247Y0076894D01*
X0242481Y0076820D01*
X0242713Y0076740D01*
X0242943Y0076655D01*
X0243171Y0076564D01*
X0243396Y0076467D01*
X0243620Y0076365D01*
X0243840Y0076257D01*
X0244058Y0076144D01*
X0244273Y0076026D01*
X0244485Y0075902D01*
X0244694Y0075774D01*
X0244900Y0075640D01*
X0245102Y0075501D01*
X0245301Y0075357D01*
X0245496Y0075208D01*
X0245688Y0075055D01*
X0245876Y0074897D01*
X0246060Y0074735D01*
X0246239Y0074567D01*
X0246415Y0074396D01*
X0246586Y0074220D01*
X0246754Y0074041D01*
X0246916Y0073857D01*
X0247074Y0073669D01*
X0247227Y0073477D01*
X0247376Y0073282D01*
X0247520Y0073083D01*
X0247659Y0072881D01*
X0247793Y0072675D01*
X0247921Y0072466D01*
X0248045Y0072254D01*
X0248163Y0072039D01*
X0248276Y0071821D01*
X0248384Y0071601D01*
X0248486Y0071377D01*
X0248583Y0071152D01*
X0248674Y0070924D01*
X0248759Y0070694D01*
X0248839Y0070462D01*
X0248913Y0070228D01*
X0248982Y0069992D01*
X0249044Y0069755D01*
X0249101Y0069516D01*
X0249152Y0069276D01*
X0249197Y0069035D01*
X0249236Y0068792D01*
X0249269Y0068549D01*
X0249296Y0068305D01*
X0249317Y0068061D01*
X0249332Y0067816D01*
X0249341Y0067570D01*
X0249344Y0067325D01*
X0249341Y0067080D01*
X0249332Y0066834D01*
X0249317Y0066589D01*
X0249296Y0066345D01*
X0249269Y0066101D01*
X0249236Y0065858D01*
X0249197Y0065615D01*
X0249152Y0065374D01*
X0249101Y0065134D01*
X0249044Y0064895D01*
X0248982Y0064658D01*
X0248913Y0064422D01*
X0248839Y0064188D01*
X0248759Y0063956D01*
X0248674Y0063726D01*
X0248583Y0063498D01*
X0248486Y0063273D01*
X0248384Y0063049D01*
X0248276Y0062829D01*
X0248163Y0062611D01*
X0248045Y0062396D01*
X0247921Y0062184D01*
X0247793Y0061975D01*
X0247659Y0061769D01*
X0247520Y0061567D01*
X0247376Y0061368D01*
X0247227Y0061173D01*
X0247074Y0060981D01*
X0246916Y0060793D01*
X0246754Y0060609D01*
X0246586Y0060430D01*
X0246415Y0060254D01*
X0246239Y0060083D01*
X0246060Y0059915D01*
X0245876Y0059753D01*
X0245688Y0059595D01*
X0245496Y0059442D01*
X0245301Y0059293D01*
X0245102Y0059149D01*
X0244900Y0059010D01*
X0244694Y0058876D01*
X0244485Y0058748D01*
X0244273Y0058624D01*
X0244058Y0058506D01*
X0243840Y0058393D01*
X0243620Y0058285D01*
X0243396Y0058183D01*
X0243171Y0058086D01*
X0242943Y0057995D01*
X0242713Y0057910D01*
X0242481Y0057830D01*
X0242247Y0057756D01*
X0242011Y0057687D01*
X0241774Y0057625D01*
X0241535Y0057568D01*
X0241295Y0057517D01*
X0241054Y0057472D01*
X0240811Y0057433D01*
X0240568Y0057400D01*
X0240324Y0057373D01*
X0240080Y0057352D01*
X0239835Y0057337D01*
X0239589Y0057328D01*
X0239344Y0057325D01*
X0239099Y0057328D01*
X0238853Y0057337D01*
X0238608Y0057352D01*
X0238364Y0057373D01*
X0238120Y0057400D01*
X0237877Y0057433D01*
X0237634Y0057472D01*
X0237393Y0057517D01*
X0237153Y0057568D01*
X0236914Y0057625D01*
X0236677Y0057687D01*
X0236441Y0057756D01*
X0236207Y0057830D01*
X0235975Y0057910D01*
X0235745Y0057995D01*
X0235517Y0058086D01*
X0235292Y0058183D01*
X0235068Y0058285D01*
X0234848Y0058393D01*
X0234630Y0058506D01*
X0234415Y0058624D01*
X0234203Y0058748D01*
X0233994Y0058876D01*
X0233788Y0059010D01*
X0233586Y0059149D01*
X0233387Y0059293D01*
X0233192Y0059442D01*
X0233000Y0059595D01*
X0232812Y0059753D01*
X0232628Y0059915D01*
X0232449Y0060083D01*
X0232273Y0060254D01*
X0232102Y0060430D01*
X0231934Y0060609D01*
X0231772Y0060793D01*
X0231614Y0060981D01*
X0231461Y0061173D01*
X0231312Y0061368D01*
X0231168Y0061567D01*
X0231029Y0061769D01*
X0230895Y0061975D01*
X0230767Y0062184D01*
X0230643Y0062396D01*
X0230525Y0062611D01*
X0230412Y0062829D01*
X0230304Y0063049D01*
X0230202Y0063273D01*
X0230105Y0063498D01*
X0230014Y0063726D01*
X0229929Y0063956D01*
X0229849Y0064188D01*
X0229775Y0064422D01*
X0229706Y0064658D01*
X0229644Y0064895D01*
X0229587Y0065134D01*
X0229536Y0065374D01*
X0229491Y0065615D01*
X0229452Y0065858D01*
X0229419Y0066101D01*
X0229392Y0066345D01*
X0229371Y0066589D01*
X0229356Y0066834D01*
X0229347Y0067080D01*
X0229344Y0067325D01*
X0230009Y0299909D02*
X0228942Y0300976D01*
X0228942Y0303112D01*
X0230009Y0304179D01*
X0233212Y0304179D01*
X0233212Y0306314D02*
X0233212Y0299909D01*
X0230009Y0299909D01*
X0235387Y0300976D02*
X0235387Y0303112D01*
X0236455Y0304179D01*
X0238590Y0304179D01*
X0239658Y0303112D01*
X0239658Y0302044D01*
X0235387Y0302044D01*
X0235387Y0300976D02*
X0236455Y0299909D01*
X0238590Y0299909D01*
X0248278Y0300976D02*
X0249346Y0299909D01*
X0251481Y0299909D01*
X0252549Y0300976D01*
X0254724Y0300976D02*
X0255791Y0302044D01*
X0258994Y0302044D01*
X0258994Y0303112D02*
X0258994Y0299909D01*
X0255791Y0299909D01*
X0254724Y0300976D01*
X0255791Y0304179D02*
X0257927Y0304179D01*
X0258994Y0303112D01*
X0261169Y0303112D02*
X0261169Y0300976D01*
X0262237Y0299909D01*
X0265440Y0299909D01*
X0265440Y0306314D01*
X0265440Y0304179D02*
X0262237Y0304179D01*
X0261169Y0303112D01*
X0257927Y0307382D02*
X0255791Y0306314D01*
X0252549Y0305247D02*
X0251481Y0306314D01*
X0249346Y0306314D01*
X0248278Y0305247D01*
X0248278Y0300976D01*
X0267615Y0299909D02*
X0269750Y0299909D01*
X0268682Y0299909D02*
X0268682Y0304179D01*
X0267615Y0304179D01*
X0268682Y0306314D02*
X0268682Y0307382D01*
X0271912Y0304179D02*
X0276182Y0304179D01*
X0271912Y0299909D01*
X0276182Y0299909D01*
X0220321Y0299909D02*
X0217118Y0299909D01*
X0216051Y0300976D01*
X0216051Y0303112D01*
X0217118Y0304179D01*
X0220321Y0304179D01*
X0220321Y0306314D02*
X0220321Y0299909D01*
X0213876Y0299909D02*
X0213876Y0303112D01*
X0212808Y0304179D01*
X0210673Y0304179D01*
X0210673Y0302044D02*
X0213876Y0302044D01*
X0213876Y0299909D02*
X0210673Y0299909D01*
X0209605Y0300976D01*
X0210673Y0302044D01*
X0207430Y0299909D02*
X0207430Y0306314D01*
X0207430Y0304179D02*
X0204227Y0304179D01*
X0203160Y0303112D01*
X0203160Y0300976D01*
X0204227Y0299909D01*
X0207430Y0299909D01*
X0200998Y0299909D02*
X0198863Y0299909D01*
X0199930Y0299909D02*
X0199930Y0304179D01*
X0198863Y0304179D01*
X0196688Y0304179D02*
X0193485Y0304179D01*
X0192417Y0303112D01*
X0193485Y0302044D01*
X0195620Y0302044D01*
X0196688Y0300976D01*
X0195620Y0299909D01*
X0192417Y0299909D01*
X0190249Y0304179D02*
X0189181Y0304179D01*
X0187046Y0302044D01*
X0187046Y0299909D02*
X0187046Y0304179D01*
X0184871Y0303112D02*
X0184871Y0302044D01*
X0180601Y0302044D01*
X0180601Y0300976D02*
X0180601Y0303112D01*
X0181668Y0304179D01*
X0183803Y0304179D01*
X0184871Y0303112D01*
X0183803Y0299909D02*
X0181668Y0299909D01*
X0180601Y0300976D01*
X0178425Y0304179D02*
X0176290Y0299909D01*
X0174155Y0304179D01*
X0170926Y0304179D02*
X0170926Y0299909D01*
X0171993Y0299909D02*
X0169858Y0299909D01*
X0167683Y0299909D02*
X0167683Y0303112D01*
X0166615Y0304179D01*
X0163413Y0304179D01*
X0163413Y0299909D01*
X0161237Y0300976D02*
X0161237Y0306314D01*
X0156967Y0306314D02*
X0156967Y0300976D01*
X0158035Y0299909D01*
X0160170Y0299909D01*
X0161237Y0300976D01*
X0169858Y0304179D02*
X0170926Y0304179D01*
X0170926Y0306314D02*
X0170926Y0307382D01*
X0199930Y0307382D02*
X0199930Y0306314D01*
D11*
X0229344Y0074825D02*
X0229344Y0059825D01*
X0265335Y0013941D02*
X0265335Y0004733D01*
X0271473Y0004733D01*
X0274543Y0004733D02*
X0279147Y0004733D01*
X0280681Y0006268D01*
X0279147Y0007803D01*
X0276077Y0007803D01*
X0274543Y0009337D01*
X0276077Y0010872D01*
X0280681Y0010872D01*
X0283751Y0009337D02*
X0283751Y0006268D01*
X0285285Y0004733D01*
X0289889Y0004733D01*
X0292958Y0006268D02*
X0294493Y0007803D01*
X0299097Y0007803D01*
X0299097Y0009337D02*
X0299097Y0004733D01*
X0294493Y0004733D01*
X0292958Y0006268D01*
X0294493Y0010872D02*
X0297562Y0010872D01*
X0299097Y0009337D01*
X0302166Y0004733D02*
X0305236Y0004733D01*
X0303701Y0004733D02*
X0303701Y0013941D01*
X0302166Y0013941D01*
X0309840Y0010872D02*
X0312909Y0010872D01*
X0314443Y0009337D01*
X0314443Y0004733D01*
X0309840Y0004733D01*
X0308305Y0006268D01*
X0309840Y0007803D01*
X0314443Y0007803D01*
X0326721Y0010872D02*
X0329790Y0013941D01*
X0329790Y0004733D01*
X0326721Y0004733D02*
X0332859Y0004733D01*
X0335928Y0004733D02*
X0337463Y0004733D01*
X0337463Y0006268D01*
X0335928Y0006268D01*
X0335928Y0004733D01*
X0340532Y0006268D02*
X0342067Y0004733D01*
X0345136Y0004733D01*
X0346671Y0006268D01*
X0346671Y0009337D01*
X0345136Y0010872D01*
X0343602Y0010872D01*
X0340532Y0009337D01*
X0340532Y0013941D01*
X0346671Y0013941D01*
X0358948Y0010872D02*
X0358948Y0009337D01*
X0360483Y0009337D01*
X0360483Y0010872D01*
X0358948Y0010872D01*
X0358948Y0006268D02*
X0358948Y0004733D01*
X0360483Y0004733D01*
X0360483Y0006268D01*
X0358948Y0006268D01*
X0372760Y0004733D02*
X0378898Y0004733D01*
X0375829Y0004733D02*
X0375829Y0013941D01*
X0372760Y0010872D01*
X0289889Y0010872D02*
X0285285Y0010872D01*
X0283751Y0009337D01*
X0271473Y0013941D02*
X0265335Y0013941D01*
X0265335Y0009337D02*
X0268404Y0009337D01*
D12*
X0124187Y0049609D02*
X0009616Y0049656D01*
X0017293Y0049909D02*
X0018321Y0059889D01*
X0018554Y0059889D02*
X0017293Y0049909D01*
X0016274Y0059889D01*
X0016041Y0059890D02*
X0018554Y0059889D01*
X0017809Y0059889D02*
X0017293Y0049909D01*
X0016786Y0059889D01*
X0016041Y0059890D02*
X0017293Y0049909D01*
X0017411Y0336720D01*
X0018431Y0326739D01*
X0018664Y0326739D02*
X0017411Y0336720D01*
X0016384Y0326740D01*
X0016150Y0326740D02*
X0018664Y0326739D01*
X0017919Y0326739D02*
X0017411Y0336720D01*
X0016895Y0326740D01*
X0016150Y0326740D02*
X0017411Y0336720D01*
X0009734Y0336979D02*
X0124305Y0336932D01*
X0124291Y0378475D01*
X0124549Y0370798D02*
X0134530Y0369778D01*
X0134530Y0369544D02*
X0124549Y0370798D01*
X0134529Y0371825D01*
X0134529Y0372058D02*
X0134530Y0369544D01*
X0134530Y0370289D02*
X0124549Y0370798D01*
X0134529Y0371313D01*
X0134529Y0372058D02*
X0124549Y0370798D01*
X0350297Y0370876D01*
X0340317Y0369849D01*
X0340317Y0369616D02*
X0350297Y0370876D01*
X0340316Y0371896D01*
X0340316Y0372130D02*
X0340317Y0369616D01*
X0340317Y0370361D02*
X0350297Y0370876D01*
X0340317Y0371385D01*
X0340316Y0372130D02*
X0350297Y0370876D01*
X0350550Y0378554D02*
X0350565Y0337010D01*
X0374777Y0395596D02*
X0384758Y0396853D01*
X0374777Y0395829D01*
X0374777Y0395596D02*
X0374777Y0398110D01*
X0384758Y0396853D01*
X0374777Y0397877D01*
X0374777Y0397365D02*
X0384758Y0396853D01*
X0374777Y0396341D01*
X0384758Y0396853D02*
X0089994Y0396853D01*
X0099974Y0395829D01*
X0099974Y0395596D02*
X0089994Y0396853D01*
X0099974Y0397877D01*
X0099974Y0398110D02*
X0099974Y0395596D01*
X0099974Y0396341D02*
X0089994Y0396853D01*
X0099974Y0397365D01*
X0099974Y0398110D02*
X0089994Y0396853D01*
X0089738Y0404530D02*
X0089738Y0267129D01*
X0036785Y0267129D01*
X0044462Y0266873D02*
X0043206Y0256892D01*
X0045719Y0256892D01*
X0044462Y0266873D01*
X0045486Y0256892D01*
X0044974Y0256892D02*
X0044462Y0266873D01*
X0043439Y0256892D01*
X0043951Y0256892D02*
X0044462Y0266873D01*
X0044462Y0119747D01*
X0045486Y0129727D01*
X0045719Y0129727D02*
X0044462Y0119747D01*
X0043439Y0129727D01*
X0043206Y0129727D02*
X0045719Y0129727D01*
X0044974Y0129727D02*
X0044462Y0119747D01*
X0043951Y0129727D01*
X0043206Y0129727D02*
X0044462Y0119747D01*
X0036785Y0119491D02*
X0089738Y0119491D01*
X0385014Y0267129D02*
X0385014Y0404530D01*
D13*
X0258294Y0401966D02*
X0256843Y0400515D01*
X0253941Y0400515D01*
X0252489Y0401966D01*
X0258294Y0407771D01*
X0258294Y0401966D01*
X0252489Y0401966D02*
X0252489Y0407771D01*
X0253941Y0409222D01*
X0256843Y0409222D01*
X0258294Y0407771D01*
X0249087Y0407771D02*
X0249087Y0401966D01*
X0247635Y0400515D01*
X0244733Y0400515D01*
X0243282Y0401966D01*
X0249087Y0407771D01*
X0247635Y0409222D01*
X0244733Y0409222D01*
X0243282Y0407771D01*
X0243282Y0401966D01*
X0240129Y0401966D02*
X0240129Y0400515D01*
X0238678Y0400515D01*
X0238678Y0401966D01*
X0240129Y0401966D01*
X0235275Y0401966D02*
X0233824Y0400515D01*
X0230921Y0400515D01*
X0229470Y0401966D01*
X0229470Y0404869D02*
X0232372Y0406320D01*
X0233824Y0406320D01*
X0235275Y0404869D01*
X0235275Y0401966D01*
X0229470Y0404869D02*
X0229470Y0409222D01*
X0235275Y0409222D01*
X0226067Y0409222D02*
X0226067Y0407771D01*
X0220262Y0401966D01*
X0220262Y0400515D01*
X0220262Y0409222D02*
X0226067Y0409222D01*
X0226113Y0383200D02*
X0220308Y0383200D01*
X0220308Y0378846D01*
X0223211Y0380298D01*
X0224662Y0380298D01*
X0226113Y0378846D01*
X0226113Y0375944D01*
X0224662Y0374493D01*
X0221759Y0374493D01*
X0220308Y0375944D01*
X0229516Y0375944D02*
X0229516Y0374493D01*
X0229516Y0375944D02*
X0235321Y0381749D01*
X0235321Y0383200D01*
X0229516Y0383200D01*
X0238724Y0375944D02*
X0240175Y0375944D01*
X0240175Y0374493D01*
X0238724Y0374493D01*
X0238724Y0375944D01*
X0243328Y0378846D02*
X0249133Y0378846D01*
X0252536Y0375944D02*
X0252536Y0374493D01*
X0252536Y0375944D02*
X0258341Y0381749D01*
X0258341Y0383200D01*
X0252536Y0383200D01*
X0247682Y0383200D02*
X0243328Y0378846D01*
X0247682Y0374493D02*
X0247682Y0383200D01*
X0040801Y0212777D02*
X0040801Y0209875D01*
X0039349Y0208423D01*
X0033544Y0214228D01*
X0039349Y0214228D01*
X0040801Y0212777D01*
X0039349Y0208423D02*
X0033544Y0208423D01*
X0032093Y0209875D01*
X0032093Y0212777D01*
X0033544Y0214228D01*
X0032093Y0205020D02*
X0032093Y0199215D01*
X0036447Y0199215D01*
X0034996Y0202118D01*
X0034996Y0203569D01*
X0036447Y0205020D01*
X0039349Y0205020D01*
X0040801Y0203569D01*
X0040801Y0200667D01*
X0039349Y0199215D01*
X0039349Y0196063D02*
X0040801Y0196063D01*
X0040801Y0194612D01*
X0039349Y0194612D01*
X0039349Y0196063D01*
X0033544Y0191209D02*
X0039349Y0185404D01*
X0040801Y0185404D01*
X0039349Y0182001D02*
X0037898Y0182001D01*
X0036447Y0180550D01*
X0036447Y0179098D01*
X0036447Y0180550D02*
X0034996Y0182001D01*
X0033544Y0182001D01*
X0032093Y0180550D01*
X0032093Y0177647D01*
X0033544Y0176196D01*
X0039349Y0176196D02*
X0040801Y0177647D01*
X0040801Y0180550D01*
X0039349Y0182001D01*
X0032093Y0185404D02*
X0032093Y0191209D01*
X0033544Y0191209D01*
X0013683Y0191214D02*
X0013683Y0185409D01*
X0007878Y0191214D01*
X0006427Y0191214D01*
X0004976Y0189763D01*
X0004976Y0186861D01*
X0006427Y0185409D01*
X0006427Y0182007D02*
X0012232Y0176202D01*
X0013683Y0176202D01*
X0004976Y0176202D02*
X0004976Y0182007D01*
X0006427Y0182007D01*
X0012232Y0194617D02*
X0012232Y0196069D01*
X0013683Y0196069D01*
X0013683Y0194617D01*
X0012232Y0194617D01*
X0012232Y0199221D02*
X0013683Y0200673D01*
X0013683Y0203575D01*
X0012232Y0205026D01*
X0006427Y0205026D01*
X0004976Y0203575D01*
X0004976Y0200673D01*
X0006427Y0199221D01*
X0007878Y0199221D01*
X0009330Y0200673D01*
X0009330Y0205026D01*
X0010781Y0208429D02*
X0009330Y0209880D01*
X0009330Y0212783D01*
X0010781Y0214234D01*
X0012232Y0214234D01*
X0013683Y0212783D01*
X0013683Y0209880D01*
X0012232Y0208429D01*
X0010781Y0208429D01*
X0009330Y0209880D02*
X0007878Y0208429D01*
X0006427Y0208429D01*
X0004976Y0209880D01*
X0004976Y0212783D01*
X0006427Y0214234D01*
X0007878Y0214234D01*
X0009330Y0212783D01*
D14*
X0229344Y0074825D02*
X0229531Y0075068D01*
X0229723Y0075306D01*
X0229922Y0075539D01*
X0230126Y0075767D01*
X0230335Y0075990D01*
X0230550Y0076208D01*
X0230770Y0076421D01*
X0230995Y0076628D01*
X0231226Y0076830D01*
X0231461Y0077026D01*
X0231701Y0077216D01*
X0231945Y0077400D01*
X0232194Y0077578D01*
X0232448Y0077750D01*
X0232705Y0077916D01*
X0232966Y0078076D01*
X0233231Y0078229D01*
X0233500Y0078375D01*
X0233773Y0078515D01*
X0234048Y0078648D01*
X0234327Y0078774D01*
X0234609Y0078894D01*
X0234894Y0079006D01*
X0235181Y0079111D01*
X0235471Y0079210D01*
X0235763Y0079301D01*
X0236058Y0079385D01*
X0236354Y0079462D01*
X0236652Y0079532D01*
X0236952Y0079594D01*
X0237253Y0079649D01*
X0237555Y0079696D01*
X0237859Y0079736D01*
X0238163Y0079769D01*
X0238468Y0079794D01*
X0238774Y0079812D01*
X0239080Y0079822D01*
X0239386Y0079825D01*
X0239692Y0079820D01*
X0239998Y0079808D01*
X0240304Y0079788D01*
X0240608Y0079761D01*
X0240913Y0079726D01*
X0241216Y0079684D01*
X0241518Y0079635D01*
X0241819Y0079578D01*
X0242118Y0079513D01*
X0242416Y0079442D01*
X0242711Y0079363D01*
X0243005Y0079277D01*
X0243297Y0079184D01*
X0243586Y0079083D01*
X0243873Y0078976D01*
X0244157Y0078861D01*
X0244438Y0078740D01*
X0244716Y0078612D01*
X0244991Y0078477D01*
X0245262Y0078335D01*
X0245530Y0078187D01*
X0245794Y0078032D01*
X0246054Y0077871D01*
X0246310Y0077704D01*
X0246563Y0077530D01*
X0246810Y0077350D01*
X0247054Y0077164D01*
X0247292Y0076973D01*
X0247526Y0076775D01*
X0247755Y0076572D01*
X0247979Y0076363D01*
X0248198Y0076149D01*
X0248411Y0075929D01*
X0248619Y0075705D01*
X0248822Y0075475D01*
X0249018Y0075241D01*
X0249209Y0075001D01*
X0249394Y0074758D01*
X0249573Y0074509D01*
X0249746Y0074257D01*
X0249913Y0074000D01*
X0250073Y0073739D01*
X0250227Y0073474D01*
X0250374Y0073206D01*
X0250515Y0072934D01*
X0250649Y0072659D01*
X0250776Y0072380D01*
X0250897Y0072099D01*
X0251010Y0071814D01*
X0251116Y0071527D01*
X0251216Y0071238D01*
X0251308Y0070946D01*
X0251393Y0070652D01*
X0251471Y0070356D01*
X0251542Y0070058D01*
X0251605Y0069758D01*
X0251661Y0069457D01*
X0251709Y0069155D01*
X0251750Y0068852D01*
X0251784Y0068548D01*
X0251810Y0068243D01*
X0251829Y0067937D01*
X0251840Y0067631D01*
X0251844Y0067325D01*
X0251840Y0067019D01*
X0251829Y0066713D01*
X0251810Y0066407D01*
X0251784Y0066102D01*
X0251750Y0065798D01*
X0251709Y0065495D01*
X0251661Y0065193D01*
X0251605Y0064892D01*
X0251542Y0064592D01*
X0251471Y0064294D01*
X0251393Y0063998D01*
X0251308Y0063704D01*
X0251216Y0063412D01*
X0251116Y0063123D01*
X0251010Y0062836D01*
X0250897Y0062551D01*
X0250776Y0062270D01*
X0250649Y0061991D01*
X0250515Y0061716D01*
X0250374Y0061444D01*
X0250227Y0061176D01*
X0250073Y0060911D01*
X0249913Y0060650D01*
X0249746Y0060393D01*
X0249573Y0060141D01*
X0249394Y0059892D01*
X0249209Y0059649D01*
X0249018Y0059409D01*
X0248822Y0059175D01*
X0248619Y0058945D01*
X0248411Y0058721D01*
X0248198Y0058501D01*
X0247979Y0058287D01*
X0247755Y0058078D01*
X0247526Y0057875D01*
X0247292Y0057677D01*
X0247054Y0057486D01*
X0246810Y0057300D01*
X0246563Y0057120D01*
X0246310Y0056946D01*
X0246054Y0056779D01*
X0245794Y0056618D01*
X0245530Y0056463D01*
X0245262Y0056315D01*
X0244991Y0056173D01*
X0244716Y0056038D01*
X0244438Y0055910D01*
X0244157Y0055789D01*
X0243873Y0055674D01*
X0243586Y0055567D01*
X0243297Y0055466D01*
X0243005Y0055373D01*
X0242711Y0055287D01*
X0242416Y0055208D01*
X0242118Y0055137D01*
X0241819Y0055072D01*
X0241518Y0055015D01*
X0241216Y0054966D01*
X0240913Y0054924D01*
X0240608Y0054889D01*
X0240304Y0054862D01*
X0239998Y0054842D01*
X0239692Y0054830D01*
X0239386Y0054825D01*
X0239080Y0054828D01*
X0238774Y0054838D01*
X0238468Y0054856D01*
X0238163Y0054881D01*
X0237859Y0054914D01*
X0237555Y0054954D01*
X0237253Y0055001D01*
X0236952Y0055056D01*
X0236652Y0055118D01*
X0236354Y0055188D01*
X0236058Y0055265D01*
X0235763Y0055349D01*
X0235471Y0055440D01*
X0235181Y0055539D01*
X0234894Y0055644D01*
X0234609Y0055756D01*
X0234327Y0055876D01*
X0234048Y0056002D01*
X0233773Y0056135D01*
X0233500Y0056275D01*
X0233231Y0056421D01*
X0232966Y0056574D01*
X0232705Y0056734D01*
X0232448Y0056900D01*
X0232194Y0057072D01*
X0231945Y0057250D01*
X0231701Y0057434D01*
X0231461Y0057624D01*
X0231226Y0057820D01*
X0230995Y0058022D01*
X0230770Y0058229D01*
X0230550Y0058442D01*
X0230335Y0058660D01*
X0230126Y0058883D01*
X0229922Y0059111D01*
X0229723Y0059344D01*
X0229531Y0059582D01*
X0229344Y0059825D01*
D15*
X0263561Y0212621D02*
X0263561Y0229117D01*
X0257561Y0226396D02*
X0257561Y0225341D01*
X0261438Y0230415D02*
X0261663Y0230308D01*
X0261886Y0230196D01*
X0262106Y0230079D01*
X0262323Y0229957D01*
X0262538Y0229829D01*
X0262749Y0229696D01*
X0262957Y0229559D01*
X0263161Y0229416D01*
X0263363Y0229269D01*
X0263560Y0229117D01*
X0252589Y0230369D02*
X0252359Y0230257D01*
X0252132Y0230140D01*
X0251908Y0230018D01*
X0251687Y0229890D01*
X0251470Y0229756D01*
X0251255Y0229618D01*
X0251044Y0229474D01*
X0250837Y0229325D01*
X0250633Y0229171D01*
X0250433Y0229013D01*
X0250237Y0228849D01*
X0250045Y0228681D01*
X0249857Y0228508D01*
X0249673Y0228330D01*
X0249494Y0228149D01*
X0249319Y0227962D01*
X0249149Y0227772D01*
X0248984Y0227578D01*
X0248823Y0227379D01*
X0248667Y0227177D01*
X0248516Y0226971D01*
X0248370Y0226761D01*
X0248230Y0226548D01*
X0248094Y0226332D01*
X0247964Y0226112D01*
X0247839Y0225889D01*
X0247720Y0225664D01*
X0247606Y0225435D01*
X0247498Y0225204D01*
X0247395Y0224970D01*
X0247298Y0224734D01*
X0247207Y0224495D01*
X0247122Y0224255D01*
X0247042Y0224012D01*
X0246969Y0223767D01*
X0246901Y0223521D01*
X0246840Y0223273D01*
X0246785Y0223024D01*
X0246735Y0222774D01*
X0246692Y0222522D01*
X0246655Y0222269D01*
X0246624Y0222016D01*
X0246599Y0221762D01*
X0246580Y0221507D01*
X0246568Y0221252D01*
X0246562Y0220997D01*
X0246562Y0220741D01*
X0246568Y0220486D01*
X0246580Y0220231D01*
X0246599Y0219976D01*
X0246624Y0219722D01*
X0246655Y0219469D01*
X0246692Y0219216D01*
X0246735Y0218964D01*
X0246785Y0218714D01*
X0246840Y0218465D01*
X0246901Y0218217D01*
X0246969Y0217971D01*
X0247042Y0217726D01*
X0247122Y0217483D01*
X0247207Y0217243D01*
X0247298Y0217004D01*
X0247395Y0216768D01*
X0247498Y0216534D01*
X0247606Y0216303D01*
X0247720Y0216074D01*
X0247839Y0215849D01*
X0247964Y0215626D01*
X0248094Y0215406D01*
X0248230Y0215190D01*
X0248370Y0214977D01*
X0248516Y0214767D01*
X0248667Y0214561D01*
X0248823Y0214359D01*
X0248984Y0214160D01*
X0249149Y0213966D01*
X0249319Y0213776D01*
X0249494Y0213589D01*
X0249673Y0213408D01*
X0249857Y0213230D01*
X0250045Y0213057D01*
X0250237Y0212889D01*
X0250433Y0212725D01*
X0250633Y0212567D01*
X0250837Y0212413D01*
X0251044Y0212264D01*
X0251255Y0212120D01*
X0251470Y0211982D01*
X0251687Y0211848D01*
X0251908Y0211720D01*
X0252132Y0211598D01*
X0252359Y0211481D01*
X0252589Y0211369D01*
X0257561Y0215341D02*
X0257561Y0216396D01*
X0261532Y0211367D02*
X0261747Y0211471D01*
X0261960Y0211580D01*
X0262170Y0211694D01*
X0262377Y0211813D01*
X0262582Y0211936D01*
X0262784Y0212064D01*
X0262983Y0212197D01*
X0263178Y0212334D01*
X0263371Y0212475D01*
X0263560Y0212621D01*
M02*
