G75*
%MOIN*%
%OFA0B0*%
%FSLAX25Y25*%
%IPPOS*%
%LPD*%
%AMOC8*
5,1,8,0,0,1.08239X$1,22.5*
%
%ADD10C,0.12211*%
%ADD11OC8,0.07000*%
%ADD12C,0.12998*%
%ADD13C,0.05950*%
%ADD14C,0.00631*%
%ADD15C,0.00827*%
%ADD16C,0.01024*%
%ADD17C,0.00552*%
%ADD18OC8,0.06000*%
%ADD19C,0.06000*%
%ADD20C,0.07000*%
D10*
X0151746Y0079136D03*
X0123203Y0193310D03*
X0323006Y0079136D03*
D11*
X0336982Y0151483D03*
X0336982Y0161483D03*
X0336982Y0171483D03*
X0336982Y0181483D03*
X0336982Y0191483D03*
X0336982Y0201483D03*
X0336982Y0211483D03*
X0336982Y0221483D03*
X0336982Y0237483D03*
X0336982Y0247483D03*
X0336982Y0257483D03*
X0336982Y0267483D03*
X0336982Y0277483D03*
X0336982Y0287483D03*
X0336982Y0297483D03*
X0336982Y0307483D03*
X0146982Y0307483D03*
X0146982Y0297483D03*
X0146982Y0287483D03*
X0146982Y0277483D03*
X0146982Y0267483D03*
X0146982Y0257483D03*
X0146982Y0237483D03*
X0146982Y0227483D03*
X0146982Y0217483D03*
X0146982Y0207483D03*
X0146982Y0197483D03*
X0146982Y0187483D03*
D12*
X0146982Y0112483D03*
X0336982Y0117483D03*
X0276982Y0317483D03*
D13*
X0280683Y0289766D03*
X0280683Y0281892D03*
X0280683Y0274018D03*
X0280683Y0266144D03*
X0280683Y0258270D03*
X0280683Y0250396D03*
X0280683Y0242522D03*
X0280683Y0234648D03*
X0280683Y0226774D03*
X0280683Y0218900D03*
X0194069Y0218900D03*
X0194069Y0226774D03*
X0194069Y0234648D03*
X0194069Y0242522D03*
X0194069Y0250396D03*
X0194069Y0258270D03*
X0194069Y0266144D03*
X0194069Y0274018D03*
X0194069Y0281892D03*
X0194069Y0289766D03*
D14*
X0201237Y0171738D02*
X0201237Y0166062D01*
X0193593Y0166062D01*
X0193593Y0171738D01*
X0201237Y0171738D01*
X0201237Y0166692D02*
X0193593Y0166692D01*
X0193593Y0167322D02*
X0201237Y0167322D01*
X0201237Y0167952D02*
X0193593Y0167952D01*
X0193593Y0168582D02*
X0201237Y0168582D01*
X0201237Y0169212D02*
X0193593Y0169212D01*
X0193593Y0169842D02*
X0201237Y0169842D01*
X0201237Y0170472D02*
X0193593Y0170472D01*
X0193593Y0171102D02*
X0201237Y0171102D01*
X0201237Y0171732D02*
X0193593Y0171732D01*
X0201237Y0162683D02*
X0201237Y0157007D01*
X0193593Y0157007D01*
X0193593Y0162683D01*
X0201237Y0162683D01*
X0201237Y0157637D02*
X0193593Y0157637D01*
X0193593Y0158267D02*
X0201237Y0158267D01*
X0201237Y0158897D02*
X0193593Y0158897D01*
X0193593Y0159527D02*
X0201237Y0159527D01*
X0201237Y0160157D02*
X0193593Y0160157D01*
X0193593Y0160787D02*
X0201237Y0160787D01*
X0201237Y0161417D02*
X0193593Y0161417D01*
X0193593Y0162047D02*
X0201237Y0162047D01*
X0201237Y0162677D02*
X0193593Y0162677D01*
X0201237Y0153628D02*
X0201237Y0147952D01*
X0193593Y0147952D01*
X0193593Y0153628D01*
X0201237Y0153628D01*
X0201237Y0148582D02*
X0193593Y0148582D01*
X0193593Y0149212D02*
X0201237Y0149212D01*
X0201237Y0149842D02*
X0193593Y0149842D01*
X0193593Y0150472D02*
X0201237Y0150472D01*
X0201237Y0151102D02*
X0193593Y0151102D01*
X0193593Y0151732D02*
X0201237Y0151732D01*
X0201237Y0152362D02*
X0193593Y0152362D01*
X0193593Y0152992D02*
X0201237Y0152992D01*
X0201237Y0153622D02*
X0193593Y0153622D01*
D15*
X0225942Y0152578D02*
X0225942Y0167112D01*
X0225942Y0152578D02*
X0218494Y0152578D01*
X0218494Y0167112D01*
X0225942Y0167112D01*
X0225942Y0153404D02*
X0218494Y0153404D01*
X0218494Y0154230D02*
X0225942Y0154230D01*
X0225942Y0155056D02*
X0218494Y0155056D01*
X0218494Y0155882D02*
X0225942Y0155882D01*
X0225942Y0156708D02*
X0218494Y0156708D01*
X0218494Y0157534D02*
X0225942Y0157534D01*
X0225942Y0158360D02*
X0218494Y0158360D01*
X0218494Y0159186D02*
X0225942Y0159186D01*
X0225942Y0160012D02*
X0218494Y0160012D01*
X0218494Y0160838D02*
X0225942Y0160838D01*
X0225942Y0161664D02*
X0218494Y0161664D01*
X0218494Y0162490D02*
X0225942Y0162490D01*
X0225942Y0163316D02*
X0218494Y0163316D01*
X0218494Y0164142D02*
X0225942Y0164142D01*
X0225942Y0164968D02*
X0218494Y0164968D01*
X0218494Y0165794D02*
X0225942Y0165794D01*
X0225942Y0166620D02*
X0218494Y0166620D01*
D16*
X0233751Y0160911D02*
X0246907Y0160911D01*
X0246907Y0151693D01*
X0233751Y0151693D01*
X0233751Y0160911D01*
X0233751Y0152716D02*
X0246907Y0152716D01*
X0246907Y0153739D02*
X0233751Y0153739D01*
X0233751Y0154762D02*
X0246907Y0154762D01*
X0246907Y0155785D02*
X0233751Y0155785D01*
X0233751Y0156808D02*
X0246907Y0156808D01*
X0246907Y0157831D02*
X0233751Y0157831D01*
X0233751Y0158854D02*
X0246907Y0158854D01*
X0246907Y0159877D02*
X0233751Y0159877D01*
X0233751Y0160900D02*
X0246907Y0160900D01*
X0259341Y0160911D02*
X0272497Y0160911D01*
X0272497Y0151693D01*
X0259341Y0151693D01*
X0259341Y0160911D01*
X0259341Y0152716D02*
X0272497Y0152716D01*
X0272497Y0153739D02*
X0259341Y0153739D01*
X0259341Y0154762D02*
X0272497Y0154762D01*
X0272497Y0155785D02*
X0259341Y0155785D01*
X0259341Y0156808D02*
X0272497Y0156808D01*
X0272497Y0157831D02*
X0259341Y0157831D01*
X0259341Y0158854D02*
X0272497Y0158854D01*
X0272497Y0159877D02*
X0259341Y0159877D01*
X0259341Y0160900D02*
X0272497Y0160900D01*
D17*
X0236467Y0130635D02*
X0236467Y0125669D01*
X0236467Y0130635D02*
X0242221Y0130635D01*
X0242221Y0125669D01*
X0236467Y0125669D01*
X0236467Y0126220D02*
X0242221Y0126220D01*
X0242221Y0126771D02*
X0236467Y0126771D01*
X0236467Y0127322D02*
X0242221Y0127322D01*
X0242221Y0127873D02*
X0236467Y0127873D01*
X0236467Y0128424D02*
X0242221Y0128424D01*
X0242221Y0128975D02*
X0236467Y0128975D01*
X0236467Y0129526D02*
X0242221Y0129526D01*
X0242221Y0130077D02*
X0236467Y0130077D01*
X0236467Y0130628D02*
X0242221Y0130628D01*
X0236467Y0123155D02*
X0236467Y0118189D01*
X0236467Y0123155D02*
X0242221Y0123155D01*
X0242221Y0118189D01*
X0236467Y0118189D01*
X0236467Y0118740D02*
X0242221Y0118740D01*
X0242221Y0119291D02*
X0236467Y0119291D01*
X0236467Y0119842D02*
X0242221Y0119842D01*
X0242221Y0120393D02*
X0236467Y0120393D01*
X0236467Y0120944D02*
X0242221Y0120944D01*
X0242221Y0121495D02*
X0236467Y0121495D01*
X0236467Y0122046D02*
X0242221Y0122046D01*
X0242221Y0122597D02*
X0236467Y0122597D01*
X0236467Y0123148D02*
X0242221Y0123148D01*
X0189268Y0167205D02*
X0189268Y0172171D01*
X0189268Y0167205D02*
X0183122Y0167205D01*
X0183122Y0172171D01*
X0189268Y0172171D01*
X0189268Y0167756D02*
X0183122Y0167756D01*
X0183122Y0168307D02*
X0189268Y0168307D01*
X0189268Y0168858D02*
X0183122Y0168858D01*
X0183122Y0169409D02*
X0189268Y0169409D01*
X0189268Y0169960D02*
X0183122Y0169960D01*
X0183122Y0170511D02*
X0189268Y0170511D01*
X0189268Y0171062D02*
X0183122Y0171062D01*
X0183122Y0171613D02*
X0189268Y0171613D01*
X0189268Y0172164D02*
X0183122Y0172164D01*
X0189268Y0175079D02*
X0189268Y0180045D01*
X0189268Y0175079D02*
X0183122Y0175079D01*
X0183122Y0180045D01*
X0189268Y0180045D01*
X0189268Y0175630D02*
X0183122Y0175630D01*
X0183122Y0176181D02*
X0189268Y0176181D01*
X0189268Y0176732D02*
X0183122Y0176732D01*
X0183122Y0177283D02*
X0189268Y0177283D01*
X0189268Y0177834D02*
X0183122Y0177834D01*
X0183122Y0178385D02*
X0189268Y0178385D01*
X0189268Y0178936D02*
X0183122Y0178936D01*
X0183122Y0179487D02*
X0189268Y0179487D01*
X0189268Y0180038D02*
X0183122Y0180038D01*
D18*
X0219439Y0211395D03*
X0219502Y0220869D03*
X0239502Y0220869D03*
X0239439Y0211395D03*
X0308242Y0210869D03*
X0320053Y0210869D03*
X0320053Y0230869D03*
X0308242Y0230869D03*
X0244344Y0067325D03*
X0234344Y0067325D03*
D19*
X0256361Y0210869D02*
X0257761Y0210869D01*
X0257761Y0220869D02*
X0256361Y0220869D01*
X0256361Y0230869D02*
X0257761Y0230869D01*
D20*
X0239344Y0274018D03*
M02*
