%
M48
M72
T01C0.0315
T02C0.0320
T03C0.0394
T04C0.1181
T05C0.1260
%
T01
X19407Y21890
X19407Y22677
X19407Y23465
X19407Y24252
X19407Y25040
X19407Y25827
X19407Y26614
X19407Y27402
X19407Y28189
X19407Y28977
X28068Y28977
X28068Y28189
X28068Y27402
X28068Y26614
X28068Y25827
X28068Y25040
X28068Y24252
X28068Y23465
X28068Y22677
X28068Y21890
T02
X24434Y6733
X23434Y6733
T03
X33698Y15148
X33698Y16148
X33698Y17148
X33698Y18148
X33698Y19148
X33698Y20148
X33698Y21148
X33698Y22148
X33698Y23748
X33698Y24748
X33698Y25748
X33698Y26748
X33698Y27748
X33698Y28748
X33698Y29748
X33698Y30748
X31415Y30748
X31415Y28977
X23934Y27402
X14698Y27748
X14698Y26748
X14698Y25748
X14698Y23748
X14698Y22748
X14698Y21748
X14698Y20748
X14698Y19748
X14698Y18748
X14698Y28748
X14698Y29748
X14698Y30748
T04
X12320Y19331
X15175Y7914
X32301Y7914
T05
X14698Y11248
X33698Y11748
X27698Y31748
M30
