%
M48
M72
T01C0.03150
T02C0.03200
T03C0.03937
T04C0.11811
T05C0.12598
%
T01
X194069Y218900
X194069Y226774
X194069Y234648
X194069Y242522
X194069Y250396
X194069Y258270
X194069Y266144
X194069Y274018
X194069Y281892
X194069Y289766
X280683Y289766
X280683Y281892
X280683Y274018
X280683Y266144
X280683Y258270
X280683Y250396
X280683Y242522
X280683Y234648
X280683Y226774
X280683Y218900
T02
X257061Y220869
X257061Y230869
X239502Y220869
X239439Y211395
X257061Y210869
X219439Y211395
X219502Y220869
X308242Y230869
X320053Y230869
X320053Y210869
X308242Y210869
X244344Y67325
X234344Y67325
T03
X336982Y151483
X336982Y161483
X336982Y171483
X336982Y181483
X336982Y191483
X336982Y201483
X336982Y211483
X336982Y221483
X336982Y237483
X336982Y247483
X336982Y257483
X336982Y267483
X336982Y277483
X336982Y287483
X336982Y297483
X336982Y307483
X239344Y274018
X146982Y277483
X146982Y267483
X146982Y257483
X146982Y237483
X146982Y227483
X146982Y217483
X146982Y207483
X146982Y197483
X146982Y187483
X146982Y287483
X146982Y297483
X146982Y307483
T04
X123203Y193310
X151746Y79136
X323006Y79136
T05
X146982Y112483
X336982Y117483
X276982Y317483
M30
