G75*
%MOIN*%
%OFA0B0*%
%FSLAX25Y25*%
%IPPOS*%
%LPD*%
%AMOC8*
5,1,8,0,0,1.08239X$1,22.5*
%
%ADD10C,0.12211*%
%ADD11OC8,0.07000*%
%ADD12C,0.12998*%
%ADD13C,0.05950*%
%ADD14OC8,0.06000*%
%ADD15C,0.07000*%
D10*
X0151746Y0079136D03*
X0123203Y0193310D03*
X0323006Y0079136D03*
D11*
X0336982Y0151483D03*
X0336982Y0161483D03*
X0336982Y0171483D03*
X0336982Y0181483D03*
X0336982Y0191483D03*
X0336982Y0201483D03*
X0336982Y0211483D03*
X0336982Y0221483D03*
X0336982Y0237483D03*
X0336982Y0247483D03*
X0336982Y0257483D03*
X0336982Y0267483D03*
X0336982Y0277483D03*
X0336982Y0287483D03*
X0336982Y0297483D03*
X0336982Y0307483D03*
X0146982Y0307483D03*
X0146982Y0297483D03*
X0146982Y0287483D03*
X0146982Y0277483D03*
X0146982Y0267483D03*
X0146982Y0257483D03*
X0146982Y0237483D03*
X0146982Y0227483D03*
X0146982Y0217483D03*
X0146982Y0207483D03*
X0146982Y0197483D03*
X0146982Y0187483D03*
D12*
X0146982Y0112483D03*
X0336982Y0117483D03*
X0276982Y0317483D03*
D13*
X0280683Y0289766D03*
X0280683Y0281892D03*
X0280683Y0274018D03*
X0280683Y0266144D03*
X0280683Y0258270D03*
X0280683Y0250396D03*
X0280683Y0242522D03*
X0280683Y0234648D03*
X0280683Y0226774D03*
X0280683Y0218900D03*
X0194069Y0218900D03*
X0194069Y0226774D03*
X0194069Y0234648D03*
X0194069Y0242522D03*
X0194069Y0250396D03*
X0194069Y0258270D03*
X0194069Y0266144D03*
X0194069Y0274018D03*
X0194069Y0281892D03*
X0194069Y0289766D03*
D14*
X0234344Y0067325D03*
X0244344Y0067325D03*
D15*
X0239344Y0274018D03*
X0314147Y0289766D03*
X0314147Y0307483D03*
M02*
