G75*
%MOIN*%
%OFA0B0*%
%FSLAX25Y25*%
%IPPOS*%
%LPD*%
%AMOC8*
5,1,8,0,0,1.08239X$1,22.5*
%
%ADD10C,0.00000*%
%ADD11C,0.01600*%
%ADD12OC8,0.06600*%
%ADD13C,0.05550*%
%ADD14OC8,0.05600*%
%ADD15C,0.05600*%
%ADD16C,0.03200*%
%ADD17C,0.04000*%
%ADD18C,0.06600*%
D10*
X0140683Y0112483D02*
X0140685Y0112641D01*
X0140691Y0112799D01*
X0140701Y0112957D01*
X0140715Y0113115D01*
X0140733Y0113272D01*
X0140754Y0113429D01*
X0140780Y0113585D01*
X0140810Y0113741D01*
X0140843Y0113896D01*
X0140881Y0114049D01*
X0140922Y0114202D01*
X0140967Y0114354D01*
X0141016Y0114505D01*
X0141069Y0114654D01*
X0141125Y0114802D01*
X0141185Y0114948D01*
X0141249Y0115093D01*
X0141317Y0115236D01*
X0141388Y0115378D01*
X0141462Y0115518D01*
X0141540Y0115655D01*
X0141622Y0115791D01*
X0141706Y0115925D01*
X0141795Y0116056D01*
X0141886Y0116185D01*
X0141981Y0116312D01*
X0142078Y0116437D01*
X0142179Y0116559D01*
X0142283Y0116678D01*
X0142390Y0116795D01*
X0142500Y0116909D01*
X0142613Y0117020D01*
X0142728Y0117129D01*
X0142846Y0117234D01*
X0142967Y0117336D01*
X0143090Y0117436D01*
X0143216Y0117532D01*
X0143344Y0117625D01*
X0143474Y0117715D01*
X0143607Y0117801D01*
X0143742Y0117885D01*
X0143878Y0117964D01*
X0144017Y0118041D01*
X0144158Y0118113D01*
X0144300Y0118183D01*
X0144444Y0118248D01*
X0144590Y0118310D01*
X0144737Y0118368D01*
X0144886Y0118423D01*
X0145036Y0118474D01*
X0145187Y0118521D01*
X0145339Y0118564D01*
X0145492Y0118603D01*
X0145647Y0118639D01*
X0145802Y0118670D01*
X0145958Y0118698D01*
X0146114Y0118722D01*
X0146271Y0118742D01*
X0146429Y0118758D01*
X0146586Y0118770D01*
X0146745Y0118778D01*
X0146903Y0118782D01*
X0147061Y0118782D01*
X0147219Y0118778D01*
X0147378Y0118770D01*
X0147535Y0118758D01*
X0147693Y0118742D01*
X0147850Y0118722D01*
X0148006Y0118698D01*
X0148162Y0118670D01*
X0148317Y0118639D01*
X0148472Y0118603D01*
X0148625Y0118564D01*
X0148777Y0118521D01*
X0148928Y0118474D01*
X0149078Y0118423D01*
X0149227Y0118368D01*
X0149374Y0118310D01*
X0149520Y0118248D01*
X0149664Y0118183D01*
X0149806Y0118113D01*
X0149947Y0118041D01*
X0150086Y0117964D01*
X0150222Y0117885D01*
X0150357Y0117801D01*
X0150490Y0117715D01*
X0150620Y0117625D01*
X0150748Y0117532D01*
X0150874Y0117436D01*
X0150997Y0117336D01*
X0151118Y0117234D01*
X0151236Y0117129D01*
X0151351Y0117020D01*
X0151464Y0116909D01*
X0151574Y0116795D01*
X0151681Y0116678D01*
X0151785Y0116559D01*
X0151886Y0116437D01*
X0151983Y0116312D01*
X0152078Y0116185D01*
X0152169Y0116056D01*
X0152258Y0115925D01*
X0152342Y0115791D01*
X0152424Y0115655D01*
X0152502Y0115518D01*
X0152576Y0115378D01*
X0152647Y0115236D01*
X0152715Y0115093D01*
X0152779Y0114948D01*
X0152839Y0114802D01*
X0152895Y0114654D01*
X0152948Y0114505D01*
X0152997Y0114354D01*
X0153042Y0114202D01*
X0153083Y0114049D01*
X0153121Y0113896D01*
X0153154Y0113741D01*
X0153184Y0113585D01*
X0153210Y0113429D01*
X0153231Y0113272D01*
X0153249Y0113115D01*
X0153263Y0112957D01*
X0153273Y0112799D01*
X0153279Y0112641D01*
X0153281Y0112483D01*
X0153279Y0112325D01*
X0153273Y0112167D01*
X0153263Y0112009D01*
X0153249Y0111851D01*
X0153231Y0111694D01*
X0153210Y0111537D01*
X0153184Y0111381D01*
X0153154Y0111225D01*
X0153121Y0111070D01*
X0153083Y0110917D01*
X0153042Y0110764D01*
X0152997Y0110612D01*
X0152948Y0110461D01*
X0152895Y0110312D01*
X0152839Y0110164D01*
X0152779Y0110018D01*
X0152715Y0109873D01*
X0152647Y0109730D01*
X0152576Y0109588D01*
X0152502Y0109448D01*
X0152424Y0109311D01*
X0152342Y0109175D01*
X0152258Y0109041D01*
X0152169Y0108910D01*
X0152078Y0108781D01*
X0151983Y0108654D01*
X0151886Y0108529D01*
X0151785Y0108407D01*
X0151681Y0108288D01*
X0151574Y0108171D01*
X0151464Y0108057D01*
X0151351Y0107946D01*
X0151236Y0107837D01*
X0151118Y0107732D01*
X0150997Y0107630D01*
X0150874Y0107530D01*
X0150748Y0107434D01*
X0150620Y0107341D01*
X0150490Y0107251D01*
X0150357Y0107165D01*
X0150222Y0107081D01*
X0150086Y0107002D01*
X0149947Y0106925D01*
X0149806Y0106853D01*
X0149664Y0106783D01*
X0149520Y0106718D01*
X0149374Y0106656D01*
X0149227Y0106598D01*
X0149078Y0106543D01*
X0148928Y0106492D01*
X0148777Y0106445D01*
X0148625Y0106402D01*
X0148472Y0106363D01*
X0148317Y0106327D01*
X0148162Y0106296D01*
X0148006Y0106268D01*
X0147850Y0106244D01*
X0147693Y0106224D01*
X0147535Y0106208D01*
X0147378Y0106196D01*
X0147219Y0106188D01*
X0147061Y0106184D01*
X0146903Y0106184D01*
X0146745Y0106188D01*
X0146586Y0106196D01*
X0146429Y0106208D01*
X0146271Y0106224D01*
X0146114Y0106244D01*
X0145958Y0106268D01*
X0145802Y0106296D01*
X0145647Y0106327D01*
X0145492Y0106363D01*
X0145339Y0106402D01*
X0145187Y0106445D01*
X0145036Y0106492D01*
X0144886Y0106543D01*
X0144737Y0106598D01*
X0144590Y0106656D01*
X0144444Y0106718D01*
X0144300Y0106783D01*
X0144158Y0106853D01*
X0144017Y0106925D01*
X0143878Y0107002D01*
X0143742Y0107081D01*
X0143607Y0107165D01*
X0143474Y0107251D01*
X0143344Y0107341D01*
X0143216Y0107434D01*
X0143090Y0107530D01*
X0142967Y0107630D01*
X0142846Y0107732D01*
X0142728Y0107837D01*
X0142613Y0107946D01*
X0142500Y0108057D01*
X0142390Y0108171D01*
X0142283Y0108288D01*
X0142179Y0108407D01*
X0142078Y0108529D01*
X0141981Y0108654D01*
X0141886Y0108781D01*
X0141795Y0108910D01*
X0141706Y0109041D01*
X0141622Y0109175D01*
X0141540Y0109311D01*
X0141462Y0109448D01*
X0141388Y0109588D01*
X0141317Y0109730D01*
X0141249Y0109873D01*
X0141185Y0110018D01*
X0141125Y0110164D01*
X0141069Y0110312D01*
X0141016Y0110461D01*
X0140967Y0110612D01*
X0140922Y0110764D01*
X0140881Y0110917D01*
X0140843Y0111070D01*
X0140810Y0111225D01*
X0140780Y0111381D01*
X0140754Y0111537D01*
X0140733Y0111694D01*
X0140715Y0111851D01*
X0140701Y0112009D01*
X0140691Y0112167D01*
X0140685Y0112325D01*
X0140683Y0112483D01*
X0145840Y0079136D02*
X0145842Y0079289D01*
X0145848Y0079443D01*
X0145858Y0079596D01*
X0145872Y0079748D01*
X0145890Y0079901D01*
X0145912Y0080052D01*
X0145937Y0080203D01*
X0145967Y0080354D01*
X0146001Y0080504D01*
X0146038Y0080652D01*
X0146079Y0080800D01*
X0146124Y0080946D01*
X0146173Y0081092D01*
X0146226Y0081236D01*
X0146282Y0081378D01*
X0146342Y0081519D01*
X0146406Y0081659D01*
X0146473Y0081797D01*
X0146544Y0081933D01*
X0146619Y0082067D01*
X0146696Y0082199D01*
X0146778Y0082329D01*
X0146862Y0082457D01*
X0146950Y0082583D01*
X0147041Y0082706D01*
X0147135Y0082827D01*
X0147233Y0082945D01*
X0147333Y0083061D01*
X0147437Y0083174D01*
X0147543Y0083285D01*
X0147652Y0083393D01*
X0147764Y0083498D01*
X0147878Y0083599D01*
X0147996Y0083698D01*
X0148115Y0083794D01*
X0148237Y0083887D01*
X0148362Y0083976D01*
X0148489Y0084063D01*
X0148618Y0084145D01*
X0148749Y0084225D01*
X0148882Y0084301D01*
X0149017Y0084374D01*
X0149154Y0084443D01*
X0149293Y0084508D01*
X0149433Y0084570D01*
X0149575Y0084628D01*
X0149718Y0084683D01*
X0149863Y0084734D01*
X0150009Y0084781D01*
X0150156Y0084824D01*
X0150304Y0084863D01*
X0150453Y0084899D01*
X0150603Y0084930D01*
X0150754Y0084958D01*
X0150905Y0084982D01*
X0151058Y0085002D01*
X0151210Y0085018D01*
X0151363Y0085030D01*
X0151516Y0085038D01*
X0151669Y0085042D01*
X0151823Y0085042D01*
X0151976Y0085038D01*
X0152129Y0085030D01*
X0152282Y0085018D01*
X0152434Y0085002D01*
X0152587Y0084982D01*
X0152738Y0084958D01*
X0152889Y0084930D01*
X0153039Y0084899D01*
X0153188Y0084863D01*
X0153336Y0084824D01*
X0153483Y0084781D01*
X0153629Y0084734D01*
X0153774Y0084683D01*
X0153917Y0084628D01*
X0154059Y0084570D01*
X0154199Y0084508D01*
X0154338Y0084443D01*
X0154475Y0084374D01*
X0154610Y0084301D01*
X0154743Y0084225D01*
X0154874Y0084145D01*
X0155003Y0084063D01*
X0155130Y0083976D01*
X0155255Y0083887D01*
X0155377Y0083794D01*
X0155496Y0083698D01*
X0155614Y0083599D01*
X0155728Y0083498D01*
X0155840Y0083393D01*
X0155949Y0083285D01*
X0156055Y0083174D01*
X0156159Y0083061D01*
X0156259Y0082945D01*
X0156357Y0082827D01*
X0156451Y0082706D01*
X0156542Y0082583D01*
X0156630Y0082457D01*
X0156714Y0082329D01*
X0156796Y0082199D01*
X0156873Y0082067D01*
X0156948Y0081933D01*
X0157019Y0081797D01*
X0157086Y0081659D01*
X0157150Y0081519D01*
X0157210Y0081378D01*
X0157266Y0081236D01*
X0157319Y0081092D01*
X0157368Y0080946D01*
X0157413Y0080800D01*
X0157454Y0080652D01*
X0157491Y0080504D01*
X0157525Y0080354D01*
X0157555Y0080203D01*
X0157580Y0080052D01*
X0157602Y0079901D01*
X0157620Y0079748D01*
X0157634Y0079596D01*
X0157644Y0079443D01*
X0157650Y0079289D01*
X0157652Y0079136D01*
X0157650Y0078983D01*
X0157644Y0078829D01*
X0157634Y0078676D01*
X0157620Y0078524D01*
X0157602Y0078371D01*
X0157580Y0078220D01*
X0157555Y0078069D01*
X0157525Y0077918D01*
X0157491Y0077768D01*
X0157454Y0077620D01*
X0157413Y0077472D01*
X0157368Y0077326D01*
X0157319Y0077180D01*
X0157266Y0077036D01*
X0157210Y0076894D01*
X0157150Y0076753D01*
X0157086Y0076613D01*
X0157019Y0076475D01*
X0156948Y0076339D01*
X0156873Y0076205D01*
X0156796Y0076073D01*
X0156714Y0075943D01*
X0156630Y0075815D01*
X0156542Y0075689D01*
X0156451Y0075566D01*
X0156357Y0075445D01*
X0156259Y0075327D01*
X0156159Y0075211D01*
X0156055Y0075098D01*
X0155949Y0074987D01*
X0155840Y0074879D01*
X0155728Y0074774D01*
X0155614Y0074673D01*
X0155496Y0074574D01*
X0155377Y0074478D01*
X0155255Y0074385D01*
X0155130Y0074296D01*
X0155003Y0074209D01*
X0154874Y0074127D01*
X0154743Y0074047D01*
X0154610Y0073971D01*
X0154475Y0073898D01*
X0154338Y0073829D01*
X0154199Y0073764D01*
X0154059Y0073702D01*
X0153917Y0073644D01*
X0153774Y0073589D01*
X0153629Y0073538D01*
X0153483Y0073491D01*
X0153336Y0073448D01*
X0153188Y0073409D01*
X0153039Y0073373D01*
X0152889Y0073342D01*
X0152738Y0073314D01*
X0152587Y0073290D01*
X0152434Y0073270D01*
X0152282Y0073254D01*
X0152129Y0073242D01*
X0151976Y0073234D01*
X0151823Y0073230D01*
X0151669Y0073230D01*
X0151516Y0073234D01*
X0151363Y0073242D01*
X0151210Y0073254D01*
X0151058Y0073270D01*
X0150905Y0073290D01*
X0150754Y0073314D01*
X0150603Y0073342D01*
X0150453Y0073373D01*
X0150304Y0073409D01*
X0150156Y0073448D01*
X0150009Y0073491D01*
X0149863Y0073538D01*
X0149718Y0073589D01*
X0149575Y0073644D01*
X0149433Y0073702D01*
X0149293Y0073764D01*
X0149154Y0073829D01*
X0149017Y0073898D01*
X0148882Y0073971D01*
X0148749Y0074047D01*
X0148618Y0074127D01*
X0148489Y0074209D01*
X0148362Y0074296D01*
X0148237Y0074385D01*
X0148115Y0074478D01*
X0147996Y0074574D01*
X0147878Y0074673D01*
X0147764Y0074774D01*
X0147652Y0074879D01*
X0147543Y0074987D01*
X0147437Y0075098D01*
X0147333Y0075211D01*
X0147233Y0075327D01*
X0147135Y0075445D01*
X0147041Y0075566D01*
X0146950Y0075689D01*
X0146862Y0075815D01*
X0146778Y0075943D01*
X0146696Y0076073D01*
X0146619Y0076205D01*
X0146544Y0076339D01*
X0146473Y0076475D01*
X0146406Y0076613D01*
X0146342Y0076753D01*
X0146282Y0076894D01*
X0146226Y0077036D01*
X0146173Y0077180D01*
X0146124Y0077326D01*
X0146079Y0077472D01*
X0146038Y0077620D01*
X0146001Y0077768D01*
X0145967Y0077918D01*
X0145937Y0078069D01*
X0145912Y0078220D01*
X0145890Y0078371D01*
X0145872Y0078524D01*
X0145858Y0078676D01*
X0145848Y0078829D01*
X0145842Y0078983D01*
X0145840Y0079136D01*
X0117297Y0193310D02*
X0117299Y0193463D01*
X0117305Y0193617D01*
X0117315Y0193770D01*
X0117329Y0193922D01*
X0117347Y0194075D01*
X0117369Y0194226D01*
X0117394Y0194377D01*
X0117424Y0194528D01*
X0117458Y0194678D01*
X0117495Y0194826D01*
X0117536Y0194974D01*
X0117581Y0195120D01*
X0117630Y0195266D01*
X0117683Y0195410D01*
X0117739Y0195552D01*
X0117799Y0195693D01*
X0117863Y0195833D01*
X0117930Y0195971D01*
X0118001Y0196107D01*
X0118076Y0196241D01*
X0118153Y0196373D01*
X0118235Y0196503D01*
X0118319Y0196631D01*
X0118407Y0196757D01*
X0118498Y0196880D01*
X0118592Y0197001D01*
X0118690Y0197119D01*
X0118790Y0197235D01*
X0118894Y0197348D01*
X0119000Y0197459D01*
X0119109Y0197567D01*
X0119221Y0197672D01*
X0119335Y0197773D01*
X0119453Y0197872D01*
X0119572Y0197968D01*
X0119694Y0198061D01*
X0119819Y0198150D01*
X0119946Y0198237D01*
X0120075Y0198319D01*
X0120206Y0198399D01*
X0120339Y0198475D01*
X0120474Y0198548D01*
X0120611Y0198617D01*
X0120750Y0198682D01*
X0120890Y0198744D01*
X0121032Y0198802D01*
X0121175Y0198857D01*
X0121320Y0198908D01*
X0121466Y0198955D01*
X0121613Y0198998D01*
X0121761Y0199037D01*
X0121910Y0199073D01*
X0122060Y0199104D01*
X0122211Y0199132D01*
X0122362Y0199156D01*
X0122515Y0199176D01*
X0122667Y0199192D01*
X0122820Y0199204D01*
X0122973Y0199212D01*
X0123126Y0199216D01*
X0123280Y0199216D01*
X0123433Y0199212D01*
X0123586Y0199204D01*
X0123739Y0199192D01*
X0123891Y0199176D01*
X0124044Y0199156D01*
X0124195Y0199132D01*
X0124346Y0199104D01*
X0124496Y0199073D01*
X0124645Y0199037D01*
X0124793Y0198998D01*
X0124940Y0198955D01*
X0125086Y0198908D01*
X0125231Y0198857D01*
X0125374Y0198802D01*
X0125516Y0198744D01*
X0125656Y0198682D01*
X0125795Y0198617D01*
X0125932Y0198548D01*
X0126067Y0198475D01*
X0126200Y0198399D01*
X0126331Y0198319D01*
X0126460Y0198237D01*
X0126587Y0198150D01*
X0126712Y0198061D01*
X0126834Y0197968D01*
X0126953Y0197872D01*
X0127071Y0197773D01*
X0127185Y0197672D01*
X0127297Y0197567D01*
X0127406Y0197459D01*
X0127512Y0197348D01*
X0127616Y0197235D01*
X0127716Y0197119D01*
X0127814Y0197001D01*
X0127908Y0196880D01*
X0127999Y0196757D01*
X0128087Y0196631D01*
X0128171Y0196503D01*
X0128253Y0196373D01*
X0128330Y0196241D01*
X0128405Y0196107D01*
X0128476Y0195971D01*
X0128543Y0195833D01*
X0128607Y0195693D01*
X0128667Y0195552D01*
X0128723Y0195410D01*
X0128776Y0195266D01*
X0128825Y0195120D01*
X0128870Y0194974D01*
X0128911Y0194826D01*
X0128948Y0194678D01*
X0128982Y0194528D01*
X0129012Y0194377D01*
X0129037Y0194226D01*
X0129059Y0194075D01*
X0129077Y0193922D01*
X0129091Y0193770D01*
X0129101Y0193617D01*
X0129107Y0193463D01*
X0129109Y0193310D01*
X0129107Y0193157D01*
X0129101Y0193003D01*
X0129091Y0192850D01*
X0129077Y0192698D01*
X0129059Y0192545D01*
X0129037Y0192394D01*
X0129012Y0192243D01*
X0128982Y0192092D01*
X0128948Y0191942D01*
X0128911Y0191794D01*
X0128870Y0191646D01*
X0128825Y0191500D01*
X0128776Y0191354D01*
X0128723Y0191210D01*
X0128667Y0191068D01*
X0128607Y0190927D01*
X0128543Y0190787D01*
X0128476Y0190649D01*
X0128405Y0190513D01*
X0128330Y0190379D01*
X0128253Y0190247D01*
X0128171Y0190117D01*
X0128087Y0189989D01*
X0127999Y0189863D01*
X0127908Y0189740D01*
X0127814Y0189619D01*
X0127716Y0189501D01*
X0127616Y0189385D01*
X0127512Y0189272D01*
X0127406Y0189161D01*
X0127297Y0189053D01*
X0127185Y0188948D01*
X0127071Y0188847D01*
X0126953Y0188748D01*
X0126834Y0188652D01*
X0126712Y0188559D01*
X0126587Y0188470D01*
X0126460Y0188383D01*
X0126331Y0188301D01*
X0126200Y0188221D01*
X0126067Y0188145D01*
X0125932Y0188072D01*
X0125795Y0188003D01*
X0125656Y0187938D01*
X0125516Y0187876D01*
X0125374Y0187818D01*
X0125231Y0187763D01*
X0125086Y0187712D01*
X0124940Y0187665D01*
X0124793Y0187622D01*
X0124645Y0187583D01*
X0124496Y0187547D01*
X0124346Y0187516D01*
X0124195Y0187488D01*
X0124044Y0187464D01*
X0123891Y0187444D01*
X0123739Y0187428D01*
X0123586Y0187416D01*
X0123433Y0187408D01*
X0123280Y0187404D01*
X0123126Y0187404D01*
X0122973Y0187408D01*
X0122820Y0187416D01*
X0122667Y0187428D01*
X0122515Y0187444D01*
X0122362Y0187464D01*
X0122211Y0187488D01*
X0122060Y0187516D01*
X0121910Y0187547D01*
X0121761Y0187583D01*
X0121613Y0187622D01*
X0121466Y0187665D01*
X0121320Y0187712D01*
X0121175Y0187763D01*
X0121032Y0187818D01*
X0120890Y0187876D01*
X0120750Y0187938D01*
X0120611Y0188003D01*
X0120474Y0188072D01*
X0120339Y0188145D01*
X0120206Y0188221D01*
X0120075Y0188301D01*
X0119946Y0188383D01*
X0119819Y0188470D01*
X0119694Y0188559D01*
X0119572Y0188652D01*
X0119453Y0188748D01*
X0119335Y0188847D01*
X0119221Y0188948D01*
X0119109Y0189053D01*
X0119000Y0189161D01*
X0118894Y0189272D01*
X0118790Y0189385D01*
X0118690Y0189501D01*
X0118592Y0189619D01*
X0118498Y0189740D01*
X0118407Y0189863D01*
X0118319Y0189989D01*
X0118235Y0190117D01*
X0118153Y0190247D01*
X0118076Y0190379D01*
X0118001Y0190513D01*
X0117930Y0190649D01*
X0117863Y0190787D01*
X0117799Y0190927D01*
X0117739Y0191068D01*
X0117683Y0191210D01*
X0117630Y0191354D01*
X0117581Y0191500D01*
X0117536Y0191646D01*
X0117495Y0191794D01*
X0117458Y0191942D01*
X0117424Y0192092D01*
X0117394Y0192243D01*
X0117369Y0192394D01*
X0117347Y0192545D01*
X0117329Y0192698D01*
X0117315Y0192850D01*
X0117305Y0193003D01*
X0117299Y0193157D01*
X0117297Y0193310D01*
X0270683Y0317483D02*
X0270685Y0317641D01*
X0270691Y0317799D01*
X0270701Y0317957D01*
X0270715Y0318115D01*
X0270733Y0318272D01*
X0270754Y0318429D01*
X0270780Y0318585D01*
X0270810Y0318741D01*
X0270843Y0318896D01*
X0270881Y0319049D01*
X0270922Y0319202D01*
X0270967Y0319354D01*
X0271016Y0319505D01*
X0271069Y0319654D01*
X0271125Y0319802D01*
X0271185Y0319948D01*
X0271249Y0320093D01*
X0271317Y0320236D01*
X0271388Y0320378D01*
X0271462Y0320518D01*
X0271540Y0320655D01*
X0271622Y0320791D01*
X0271706Y0320925D01*
X0271795Y0321056D01*
X0271886Y0321185D01*
X0271981Y0321312D01*
X0272078Y0321437D01*
X0272179Y0321559D01*
X0272283Y0321678D01*
X0272390Y0321795D01*
X0272500Y0321909D01*
X0272613Y0322020D01*
X0272728Y0322129D01*
X0272846Y0322234D01*
X0272967Y0322336D01*
X0273090Y0322436D01*
X0273216Y0322532D01*
X0273344Y0322625D01*
X0273474Y0322715D01*
X0273607Y0322801D01*
X0273742Y0322885D01*
X0273878Y0322964D01*
X0274017Y0323041D01*
X0274158Y0323113D01*
X0274300Y0323183D01*
X0274444Y0323248D01*
X0274590Y0323310D01*
X0274737Y0323368D01*
X0274886Y0323423D01*
X0275036Y0323474D01*
X0275187Y0323521D01*
X0275339Y0323564D01*
X0275492Y0323603D01*
X0275647Y0323639D01*
X0275802Y0323670D01*
X0275958Y0323698D01*
X0276114Y0323722D01*
X0276271Y0323742D01*
X0276429Y0323758D01*
X0276586Y0323770D01*
X0276745Y0323778D01*
X0276903Y0323782D01*
X0277061Y0323782D01*
X0277219Y0323778D01*
X0277378Y0323770D01*
X0277535Y0323758D01*
X0277693Y0323742D01*
X0277850Y0323722D01*
X0278006Y0323698D01*
X0278162Y0323670D01*
X0278317Y0323639D01*
X0278472Y0323603D01*
X0278625Y0323564D01*
X0278777Y0323521D01*
X0278928Y0323474D01*
X0279078Y0323423D01*
X0279227Y0323368D01*
X0279374Y0323310D01*
X0279520Y0323248D01*
X0279664Y0323183D01*
X0279806Y0323113D01*
X0279947Y0323041D01*
X0280086Y0322964D01*
X0280222Y0322885D01*
X0280357Y0322801D01*
X0280490Y0322715D01*
X0280620Y0322625D01*
X0280748Y0322532D01*
X0280874Y0322436D01*
X0280997Y0322336D01*
X0281118Y0322234D01*
X0281236Y0322129D01*
X0281351Y0322020D01*
X0281464Y0321909D01*
X0281574Y0321795D01*
X0281681Y0321678D01*
X0281785Y0321559D01*
X0281886Y0321437D01*
X0281983Y0321312D01*
X0282078Y0321185D01*
X0282169Y0321056D01*
X0282258Y0320925D01*
X0282342Y0320791D01*
X0282424Y0320655D01*
X0282502Y0320518D01*
X0282576Y0320378D01*
X0282647Y0320236D01*
X0282715Y0320093D01*
X0282779Y0319948D01*
X0282839Y0319802D01*
X0282895Y0319654D01*
X0282948Y0319505D01*
X0282997Y0319354D01*
X0283042Y0319202D01*
X0283083Y0319049D01*
X0283121Y0318896D01*
X0283154Y0318741D01*
X0283184Y0318585D01*
X0283210Y0318429D01*
X0283231Y0318272D01*
X0283249Y0318115D01*
X0283263Y0317957D01*
X0283273Y0317799D01*
X0283279Y0317641D01*
X0283281Y0317483D01*
X0283279Y0317325D01*
X0283273Y0317167D01*
X0283263Y0317009D01*
X0283249Y0316851D01*
X0283231Y0316694D01*
X0283210Y0316537D01*
X0283184Y0316381D01*
X0283154Y0316225D01*
X0283121Y0316070D01*
X0283083Y0315917D01*
X0283042Y0315764D01*
X0282997Y0315612D01*
X0282948Y0315461D01*
X0282895Y0315312D01*
X0282839Y0315164D01*
X0282779Y0315018D01*
X0282715Y0314873D01*
X0282647Y0314730D01*
X0282576Y0314588D01*
X0282502Y0314448D01*
X0282424Y0314311D01*
X0282342Y0314175D01*
X0282258Y0314041D01*
X0282169Y0313910D01*
X0282078Y0313781D01*
X0281983Y0313654D01*
X0281886Y0313529D01*
X0281785Y0313407D01*
X0281681Y0313288D01*
X0281574Y0313171D01*
X0281464Y0313057D01*
X0281351Y0312946D01*
X0281236Y0312837D01*
X0281118Y0312732D01*
X0280997Y0312630D01*
X0280874Y0312530D01*
X0280748Y0312434D01*
X0280620Y0312341D01*
X0280490Y0312251D01*
X0280357Y0312165D01*
X0280222Y0312081D01*
X0280086Y0312002D01*
X0279947Y0311925D01*
X0279806Y0311853D01*
X0279664Y0311783D01*
X0279520Y0311718D01*
X0279374Y0311656D01*
X0279227Y0311598D01*
X0279078Y0311543D01*
X0278928Y0311492D01*
X0278777Y0311445D01*
X0278625Y0311402D01*
X0278472Y0311363D01*
X0278317Y0311327D01*
X0278162Y0311296D01*
X0278006Y0311268D01*
X0277850Y0311244D01*
X0277693Y0311224D01*
X0277535Y0311208D01*
X0277378Y0311196D01*
X0277219Y0311188D01*
X0277061Y0311184D01*
X0276903Y0311184D01*
X0276745Y0311188D01*
X0276586Y0311196D01*
X0276429Y0311208D01*
X0276271Y0311224D01*
X0276114Y0311244D01*
X0275958Y0311268D01*
X0275802Y0311296D01*
X0275647Y0311327D01*
X0275492Y0311363D01*
X0275339Y0311402D01*
X0275187Y0311445D01*
X0275036Y0311492D01*
X0274886Y0311543D01*
X0274737Y0311598D01*
X0274590Y0311656D01*
X0274444Y0311718D01*
X0274300Y0311783D01*
X0274158Y0311853D01*
X0274017Y0311925D01*
X0273878Y0312002D01*
X0273742Y0312081D01*
X0273607Y0312165D01*
X0273474Y0312251D01*
X0273344Y0312341D01*
X0273216Y0312434D01*
X0273090Y0312530D01*
X0272967Y0312630D01*
X0272846Y0312732D01*
X0272728Y0312837D01*
X0272613Y0312946D01*
X0272500Y0313057D01*
X0272390Y0313171D01*
X0272283Y0313288D01*
X0272179Y0313407D01*
X0272078Y0313529D01*
X0271981Y0313654D01*
X0271886Y0313781D01*
X0271795Y0313910D01*
X0271706Y0314041D01*
X0271622Y0314175D01*
X0271540Y0314311D01*
X0271462Y0314448D01*
X0271388Y0314588D01*
X0271317Y0314730D01*
X0271249Y0314873D01*
X0271185Y0315018D01*
X0271125Y0315164D01*
X0271069Y0315312D01*
X0271016Y0315461D01*
X0270967Y0315612D01*
X0270922Y0315764D01*
X0270881Y0315917D01*
X0270843Y0316070D01*
X0270810Y0316225D01*
X0270780Y0316381D01*
X0270754Y0316537D01*
X0270733Y0316694D01*
X0270715Y0316851D01*
X0270701Y0317009D01*
X0270691Y0317167D01*
X0270685Y0317325D01*
X0270683Y0317483D01*
X0330683Y0117483D02*
X0330685Y0117641D01*
X0330691Y0117799D01*
X0330701Y0117957D01*
X0330715Y0118115D01*
X0330733Y0118272D01*
X0330754Y0118429D01*
X0330780Y0118585D01*
X0330810Y0118741D01*
X0330843Y0118896D01*
X0330881Y0119049D01*
X0330922Y0119202D01*
X0330967Y0119354D01*
X0331016Y0119505D01*
X0331069Y0119654D01*
X0331125Y0119802D01*
X0331185Y0119948D01*
X0331249Y0120093D01*
X0331317Y0120236D01*
X0331388Y0120378D01*
X0331462Y0120518D01*
X0331540Y0120655D01*
X0331622Y0120791D01*
X0331706Y0120925D01*
X0331795Y0121056D01*
X0331886Y0121185D01*
X0331981Y0121312D01*
X0332078Y0121437D01*
X0332179Y0121559D01*
X0332283Y0121678D01*
X0332390Y0121795D01*
X0332500Y0121909D01*
X0332613Y0122020D01*
X0332728Y0122129D01*
X0332846Y0122234D01*
X0332967Y0122336D01*
X0333090Y0122436D01*
X0333216Y0122532D01*
X0333344Y0122625D01*
X0333474Y0122715D01*
X0333607Y0122801D01*
X0333742Y0122885D01*
X0333878Y0122964D01*
X0334017Y0123041D01*
X0334158Y0123113D01*
X0334300Y0123183D01*
X0334444Y0123248D01*
X0334590Y0123310D01*
X0334737Y0123368D01*
X0334886Y0123423D01*
X0335036Y0123474D01*
X0335187Y0123521D01*
X0335339Y0123564D01*
X0335492Y0123603D01*
X0335647Y0123639D01*
X0335802Y0123670D01*
X0335958Y0123698D01*
X0336114Y0123722D01*
X0336271Y0123742D01*
X0336429Y0123758D01*
X0336586Y0123770D01*
X0336745Y0123778D01*
X0336903Y0123782D01*
X0337061Y0123782D01*
X0337219Y0123778D01*
X0337378Y0123770D01*
X0337535Y0123758D01*
X0337693Y0123742D01*
X0337850Y0123722D01*
X0338006Y0123698D01*
X0338162Y0123670D01*
X0338317Y0123639D01*
X0338472Y0123603D01*
X0338625Y0123564D01*
X0338777Y0123521D01*
X0338928Y0123474D01*
X0339078Y0123423D01*
X0339227Y0123368D01*
X0339374Y0123310D01*
X0339520Y0123248D01*
X0339664Y0123183D01*
X0339806Y0123113D01*
X0339947Y0123041D01*
X0340086Y0122964D01*
X0340222Y0122885D01*
X0340357Y0122801D01*
X0340490Y0122715D01*
X0340620Y0122625D01*
X0340748Y0122532D01*
X0340874Y0122436D01*
X0340997Y0122336D01*
X0341118Y0122234D01*
X0341236Y0122129D01*
X0341351Y0122020D01*
X0341464Y0121909D01*
X0341574Y0121795D01*
X0341681Y0121678D01*
X0341785Y0121559D01*
X0341886Y0121437D01*
X0341983Y0121312D01*
X0342078Y0121185D01*
X0342169Y0121056D01*
X0342258Y0120925D01*
X0342342Y0120791D01*
X0342424Y0120655D01*
X0342502Y0120518D01*
X0342576Y0120378D01*
X0342647Y0120236D01*
X0342715Y0120093D01*
X0342779Y0119948D01*
X0342839Y0119802D01*
X0342895Y0119654D01*
X0342948Y0119505D01*
X0342997Y0119354D01*
X0343042Y0119202D01*
X0343083Y0119049D01*
X0343121Y0118896D01*
X0343154Y0118741D01*
X0343184Y0118585D01*
X0343210Y0118429D01*
X0343231Y0118272D01*
X0343249Y0118115D01*
X0343263Y0117957D01*
X0343273Y0117799D01*
X0343279Y0117641D01*
X0343281Y0117483D01*
X0343279Y0117325D01*
X0343273Y0117167D01*
X0343263Y0117009D01*
X0343249Y0116851D01*
X0343231Y0116694D01*
X0343210Y0116537D01*
X0343184Y0116381D01*
X0343154Y0116225D01*
X0343121Y0116070D01*
X0343083Y0115917D01*
X0343042Y0115764D01*
X0342997Y0115612D01*
X0342948Y0115461D01*
X0342895Y0115312D01*
X0342839Y0115164D01*
X0342779Y0115018D01*
X0342715Y0114873D01*
X0342647Y0114730D01*
X0342576Y0114588D01*
X0342502Y0114448D01*
X0342424Y0114311D01*
X0342342Y0114175D01*
X0342258Y0114041D01*
X0342169Y0113910D01*
X0342078Y0113781D01*
X0341983Y0113654D01*
X0341886Y0113529D01*
X0341785Y0113407D01*
X0341681Y0113288D01*
X0341574Y0113171D01*
X0341464Y0113057D01*
X0341351Y0112946D01*
X0341236Y0112837D01*
X0341118Y0112732D01*
X0340997Y0112630D01*
X0340874Y0112530D01*
X0340748Y0112434D01*
X0340620Y0112341D01*
X0340490Y0112251D01*
X0340357Y0112165D01*
X0340222Y0112081D01*
X0340086Y0112002D01*
X0339947Y0111925D01*
X0339806Y0111853D01*
X0339664Y0111783D01*
X0339520Y0111718D01*
X0339374Y0111656D01*
X0339227Y0111598D01*
X0339078Y0111543D01*
X0338928Y0111492D01*
X0338777Y0111445D01*
X0338625Y0111402D01*
X0338472Y0111363D01*
X0338317Y0111327D01*
X0338162Y0111296D01*
X0338006Y0111268D01*
X0337850Y0111244D01*
X0337693Y0111224D01*
X0337535Y0111208D01*
X0337378Y0111196D01*
X0337219Y0111188D01*
X0337061Y0111184D01*
X0336903Y0111184D01*
X0336745Y0111188D01*
X0336586Y0111196D01*
X0336429Y0111208D01*
X0336271Y0111224D01*
X0336114Y0111244D01*
X0335958Y0111268D01*
X0335802Y0111296D01*
X0335647Y0111327D01*
X0335492Y0111363D01*
X0335339Y0111402D01*
X0335187Y0111445D01*
X0335036Y0111492D01*
X0334886Y0111543D01*
X0334737Y0111598D01*
X0334590Y0111656D01*
X0334444Y0111718D01*
X0334300Y0111783D01*
X0334158Y0111853D01*
X0334017Y0111925D01*
X0333878Y0112002D01*
X0333742Y0112081D01*
X0333607Y0112165D01*
X0333474Y0112251D01*
X0333344Y0112341D01*
X0333216Y0112434D01*
X0333090Y0112530D01*
X0332967Y0112630D01*
X0332846Y0112732D01*
X0332728Y0112837D01*
X0332613Y0112946D01*
X0332500Y0113057D01*
X0332390Y0113171D01*
X0332283Y0113288D01*
X0332179Y0113407D01*
X0332078Y0113529D01*
X0331981Y0113654D01*
X0331886Y0113781D01*
X0331795Y0113910D01*
X0331706Y0114041D01*
X0331622Y0114175D01*
X0331540Y0114311D01*
X0331462Y0114448D01*
X0331388Y0114588D01*
X0331317Y0114730D01*
X0331249Y0114873D01*
X0331185Y0115018D01*
X0331125Y0115164D01*
X0331069Y0115312D01*
X0331016Y0115461D01*
X0330967Y0115612D01*
X0330922Y0115764D01*
X0330881Y0115917D01*
X0330843Y0116070D01*
X0330810Y0116225D01*
X0330780Y0116381D01*
X0330754Y0116537D01*
X0330733Y0116694D01*
X0330715Y0116851D01*
X0330701Y0117009D01*
X0330691Y0117167D01*
X0330685Y0117325D01*
X0330683Y0117483D01*
X0317100Y0079136D02*
X0317102Y0079289D01*
X0317108Y0079443D01*
X0317118Y0079596D01*
X0317132Y0079748D01*
X0317150Y0079901D01*
X0317172Y0080052D01*
X0317197Y0080203D01*
X0317227Y0080354D01*
X0317261Y0080504D01*
X0317298Y0080652D01*
X0317339Y0080800D01*
X0317384Y0080946D01*
X0317433Y0081092D01*
X0317486Y0081236D01*
X0317542Y0081378D01*
X0317602Y0081519D01*
X0317666Y0081659D01*
X0317733Y0081797D01*
X0317804Y0081933D01*
X0317879Y0082067D01*
X0317956Y0082199D01*
X0318038Y0082329D01*
X0318122Y0082457D01*
X0318210Y0082583D01*
X0318301Y0082706D01*
X0318395Y0082827D01*
X0318493Y0082945D01*
X0318593Y0083061D01*
X0318697Y0083174D01*
X0318803Y0083285D01*
X0318912Y0083393D01*
X0319024Y0083498D01*
X0319138Y0083599D01*
X0319256Y0083698D01*
X0319375Y0083794D01*
X0319497Y0083887D01*
X0319622Y0083976D01*
X0319749Y0084063D01*
X0319878Y0084145D01*
X0320009Y0084225D01*
X0320142Y0084301D01*
X0320277Y0084374D01*
X0320414Y0084443D01*
X0320553Y0084508D01*
X0320693Y0084570D01*
X0320835Y0084628D01*
X0320978Y0084683D01*
X0321123Y0084734D01*
X0321269Y0084781D01*
X0321416Y0084824D01*
X0321564Y0084863D01*
X0321713Y0084899D01*
X0321863Y0084930D01*
X0322014Y0084958D01*
X0322165Y0084982D01*
X0322318Y0085002D01*
X0322470Y0085018D01*
X0322623Y0085030D01*
X0322776Y0085038D01*
X0322929Y0085042D01*
X0323083Y0085042D01*
X0323236Y0085038D01*
X0323389Y0085030D01*
X0323542Y0085018D01*
X0323694Y0085002D01*
X0323847Y0084982D01*
X0323998Y0084958D01*
X0324149Y0084930D01*
X0324299Y0084899D01*
X0324448Y0084863D01*
X0324596Y0084824D01*
X0324743Y0084781D01*
X0324889Y0084734D01*
X0325034Y0084683D01*
X0325177Y0084628D01*
X0325319Y0084570D01*
X0325459Y0084508D01*
X0325598Y0084443D01*
X0325735Y0084374D01*
X0325870Y0084301D01*
X0326003Y0084225D01*
X0326134Y0084145D01*
X0326263Y0084063D01*
X0326390Y0083976D01*
X0326515Y0083887D01*
X0326637Y0083794D01*
X0326756Y0083698D01*
X0326874Y0083599D01*
X0326988Y0083498D01*
X0327100Y0083393D01*
X0327209Y0083285D01*
X0327315Y0083174D01*
X0327419Y0083061D01*
X0327519Y0082945D01*
X0327617Y0082827D01*
X0327711Y0082706D01*
X0327802Y0082583D01*
X0327890Y0082457D01*
X0327974Y0082329D01*
X0328056Y0082199D01*
X0328133Y0082067D01*
X0328208Y0081933D01*
X0328279Y0081797D01*
X0328346Y0081659D01*
X0328410Y0081519D01*
X0328470Y0081378D01*
X0328526Y0081236D01*
X0328579Y0081092D01*
X0328628Y0080946D01*
X0328673Y0080800D01*
X0328714Y0080652D01*
X0328751Y0080504D01*
X0328785Y0080354D01*
X0328815Y0080203D01*
X0328840Y0080052D01*
X0328862Y0079901D01*
X0328880Y0079748D01*
X0328894Y0079596D01*
X0328904Y0079443D01*
X0328910Y0079289D01*
X0328912Y0079136D01*
X0328910Y0078983D01*
X0328904Y0078829D01*
X0328894Y0078676D01*
X0328880Y0078524D01*
X0328862Y0078371D01*
X0328840Y0078220D01*
X0328815Y0078069D01*
X0328785Y0077918D01*
X0328751Y0077768D01*
X0328714Y0077620D01*
X0328673Y0077472D01*
X0328628Y0077326D01*
X0328579Y0077180D01*
X0328526Y0077036D01*
X0328470Y0076894D01*
X0328410Y0076753D01*
X0328346Y0076613D01*
X0328279Y0076475D01*
X0328208Y0076339D01*
X0328133Y0076205D01*
X0328056Y0076073D01*
X0327974Y0075943D01*
X0327890Y0075815D01*
X0327802Y0075689D01*
X0327711Y0075566D01*
X0327617Y0075445D01*
X0327519Y0075327D01*
X0327419Y0075211D01*
X0327315Y0075098D01*
X0327209Y0074987D01*
X0327100Y0074879D01*
X0326988Y0074774D01*
X0326874Y0074673D01*
X0326756Y0074574D01*
X0326637Y0074478D01*
X0326515Y0074385D01*
X0326390Y0074296D01*
X0326263Y0074209D01*
X0326134Y0074127D01*
X0326003Y0074047D01*
X0325870Y0073971D01*
X0325735Y0073898D01*
X0325598Y0073829D01*
X0325459Y0073764D01*
X0325319Y0073702D01*
X0325177Y0073644D01*
X0325034Y0073589D01*
X0324889Y0073538D01*
X0324743Y0073491D01*
X0324596Y0073448D01*
X0324448Y0073409D01*
X0324299Y0073373D01*
X0324149Y0073342D01*
X0323998Y0073314D01*
X0323847Y0073290D01*
X0323694Y0073270D01*
X0323542Y0073254D01*
X0323389Y0073242D01*
X0323236Y0073234D01*
X0323083Y0073230D01*
X0322929Y0073230D01*
X0322776Y0073234D01*
X0322623Y0073242D01*
X0322470Y0073254D01*
X0322318Y0073270D01*
X0322165Y0073290D01*
X0322014Y0073314D01*
X0321863Y0073342D01*
X0321713Y0073373D01*
X0321564Y0073409D01*
X0321416Y0073448D01*
X0321269Y0073491D01*
X0321123Y0073538D01*
X0320978Y0073589D01*
X0320835Y0073644D01*
X0320693Y0073702D01*
X0320553Y0073764D01*
X0320414Y0073829D01*
X0320277Y0073898D01*
X0320142Y0073971D01*
X0320009Y0074047D01*
X0319878Y0074127D01*
X0319749Y0074209D01*
X0319622Y0074296D01*
X0319497Y0074385D01*
X0319375Y0074478D01*
X0319256Y0074574D01*
X0319138Y0074673D01*
X0319024Y0074774D01*
X0318912Y0074879D01*
X0318803Y0074987D01*
X0318697Y0075098D01*
X0318593Y0075211D01*
X0318493Y0075327D01*
X0318395Y0075445D01*
X0318301Y0075566D01*
X0318210Y0075689D01*
X0318122Y0075815D01*
X0318038Y0075943D01*
X0317956Y0076073D01*
X0317879Y0076205D01*
X0317804Y0076339D01*
X0317733Y0076475D01*
X0317666Y0076613D01*
X0317602Y0076753D01*
X0317542Y0076894D01*
X0317486Y0077036D01*
X0317433Y0077180D01*
X0317384Y0077326D01*
X0317339Y0077472D01*
X0317298Y0077620D01*
X0317261Y0077768D01*
X0317227Y0077918D01*
X0317197Y0078069D01*
X0317172Y0078220D01*
X0317150Y0078371D01*
X0317132Y0078524D01*
X0317118Y0078676D01*
X0317108Y0078829D01*
X0317102Y0078983D01*
X0317100Y0079136D01*
D11*
X0095879Y0123361D02*
X0095145Y0123400D01*
X0094410Y0123422D01*
X0093675Y0123428D01*
X0093675Y0263192D01*
X0102675Y0263389D01*
X0103300Y0263397D01*
X0103924Y0263419D01*
X0104548Y0263458D01*
X0105171Y0263511D01*
X0105792Y0263579D01*
X0106411Y0263663D01*
X0107028Y0263761D01*
X0107642Y0263875D01*
X0108254Y0264003D01*
X0108862Y0264147D01*
X0109466Y0264305D01*
X0110067Y0264478D01*
X0110663Y0264665D01*
X0111254Y0264867D01*
X0111840Y0265084D01*
X0112421Y0265314D01*
X0112996Y0265559D01*
X0113565Y0265817D01*
X0114127Y0266090D01*
X0114682Y0266375D01*
X0115231Y0266675D01*
X0115772Y0266988D01*
X0116305Y0267313D01*
X0116830Y0267652D01*
X0117347Y0268003D01*
X0117855Y0268367D01*
X0118354Y0268743D01*
X0118843Y0269132D01*
X0119323Y0269532D01*
X0119793Y0269943D01*
X0120253Y0270366D01*
X0120703Y0270800D01*
X0121141Y0271245D01*
X0121569Y0271700D01*
X0121986Y0272166D01*
X0122391Y0272642D01*
X0122784Y0273127D01*
X0123166Y0273622D01*
X0123535Y0274126D01*
X0123892Y0274639D01*
X0124236Y0275160D01*
X0124567Y0275690D01*
X0124886Y0276227D01*
X0125191Y0276773D01*
X0125483Y0277325D01*
X0125761Y0277884D01*
X0126026Y0278450D01*
X0126277Y0279023D01*
X0126513Y0279601D01*
X0126736Y0280185D01*
X0126944Y0280774D01*
X0127138Y0281368D01*
X0127317Y0281966D01*
X0127482Y0282569D01*
X0127632Y0283176D01*
X0127767Y0283786D01*
X0127887Y0284399D01*
X0127992Y0285015D01*
X0128082Y0285633D01*
X0128157Y0286253D01*
X0128217Y0286875D01*
X0128262Y0287499D01*
X0128291Y0288123D01*
X0128306Y0288747D01*
X0128305Y0289372D01*
X0128242Y0332995D01*
X0346628Y0333073D01*
X0346628Y0287305D01*
X0346635Y0286727D01*
X0346656Y0286150D01*
X0346691Y0285573D01*
X0346740Y0284997D01*
X0346802Y0284422D01*
X0346879Y0283849D01*
X0346969Y0283279D01*
X0347074Y0282710D01*
X0347191Y0282144D01*
X0347323Y0281582D01*
X0347468Y0281022D01*
X0347627Y0280466D01*
X0347799Y0279915D01*
X0347984Y0279367D01*
X0348182Y0278824D01*
X0348394Y0278286D01*
X0348618Y0277754D01*
X0348855Y0277227D01*
X0349105Y0276706D01*
X0349367Y0276191D01*
X0349642Y0275682D01*
X0349929Y0275181D01*
X0350228Y0274686D01*
X0350539Y0274199D01*
X0350862Y0273719D01*
X0351196Y0273248D01*
X0351541Y0272784D01*
X0351897Y0272329D01*
X0352265Y0271883D01*
X0352643Y0271446D01*
X0353031Y0271018D01*
X0353430Y0270599D01*
X0353838Y0270191D01*
X0354257Y0269792D01*
X0354685Y0269404D01*
X0355122Y0269026D01*
X0355568Y0268658D01*
X0356023Y0268302D01*
X0356487Y0267957D01*
X0356958Y0267623D01*
X0357438Y0267300D01*
X0357925Y0266989D01*
X0358420Y0266690D01*
X0358921Y0266403D01*
X0359430Y0266128D01*
X0359945Y0265866D01*
X0360466Y0265616D01*
X0360993Y0265379D01*
X0361525Y0265155D01*
X0362063Y0264943D01*
X0362606Y0264745D01*
X0363154Y0264560D01*
X0363705Y0264388D01*
X0364261Y0264229D01*
X0364821Y0264084D01*
X0365383Y0263952D01*
X0365949Y0263835D01*
X0366518Y0263730D01*
X0367088Y0263640D01*
X0367661Y0263563D01*
X0368236Y0263501D01*
X0368812Y0263452D01*
X0369389Y0263417D01*
X0369966Y0263396D01*
X0370544Y0263389D01*
X0370544Y0263388D02*
X0381077Y0263192D01*
X0381077Y0123428D01*
X0367297Y0123231D01*
X0366755Y0123181D01*
X0366214Y0123117D01*
X0365674Y0123040D01*
X0365137Y0122950D01*
X0364602Y0122848D01*
X0364069Y0122732D01*
X0363540Y0122604D01*
X0363014Y0122462D01*
X0362491Y0122308D01*
X0361972Y0122142D01*
X0361458Y0121963D01*
X0360947Y0121772D01*
X0360442Y0121568D01*
X0359942Y0121352D01*
X0359447Y0121124D01*
X0358958Y0120885D01*
X0358474Y0120633D01*
X0357997Y0120370D01*
X0357526Y0120096D01*
X0357063Y0119810D01*
X0356606Y0119513D01*
X0356156Y0119205D01*
X0355714Y0118887D01*
X0355280Y0118557D01*
X0354854Y0118218D01*
X0354436Y0117868D01*
X0354027Y0117508D01*
X0353627Y0117139D01*
X0353236Y0116759D01*
X0352854Y0116371D01*
X0352481Y0115973D01*
X0352119Y0115567D01*
X0351766Y0115152D01*
X0351423Y0114728D01*
X0351091Y0114296D01*
X0350769Y0113857D01*
X0350458Y0113410D01*
X0350157Y0112955D01*
X0349868Y0112493D01*
X0349590Y0112025D01*
X0349324Y0111549D01*
X0349069Y0111068D01*
X0348826Y0110580D01*
X0348594Y0110087D01*
X0348375Y0109588D01*
X0348167Y0109084D01*
X0347972Y0108576D01*
X0347790Y0108062D01*
X0347619Y0107545D01*
X0347462Y0107023D01*
X0347317Y0106498D01*
X0347184Y0105970D01*
X0347065Y0105438D01*
X0346958Y0104904D01*
X0346865Y0104367D01*
X0346784Y0103828D01*
X0346716Y0103288D01*
X0346662Y0102746D01*
X0346620Y0102202D01*
X0346592Y0101658D01*
X0346577Y0101114D01*
X0346575Y0100569D01*
X0346586Y0100024D01*
X0346610Y0099480D01*
X0346648Y0098936D01*
X0346647Y0098936D02*
X0346628Y0053546D01*
X0128124Y0053546D01*
X0128309Y0097210D01*
X0128310Y0097210D02*
X0128189Y0097950D01*
X0128050Y0098687D01*
X0127893Y0099421D01*
X0127719Y0100150D01*
X0127527Y0100875D01*
X0127317Y0101595D01*
X0127089Y0102310D01*
X0126845Y0103019D01*
X0126583Y0103722D01*
X0126304Y0104418D01*
X0126008Y0105107D01*
X0125696Y0105789D01*
X0125367Y0106463D01*
X0125022Y0107129D01*
X0124661Y0107786D01*
X0124283Y0108434D01*
X0123891Y0109073D01*
X0123482Y0109702D01*
X0123059Y0110321D01*
X0122620Y0110930D01*
X0122167Y0111527D01*
X0121700Y0112114D01*
X0121218Y0112689D01*
X0120722Y0113252D01*
X0120213Y0113802D01*
X0119691Y0114341D01*
X0119156Y0114866D01*
X0118608Y0115378D01*
X0118047Y0115877D01*
X0117475Y0116362D01*
X0116891Y0116832D01*
X0116296Y0117289D01*
X0115690Y0117731D01*
X0115074Y0118157D01*
X0114447Y0118569D01*
X0113810Y0118966D01*
X0113164Y0119346D01*
X0112509Y0119711D01*
X0111845Y0120060D01*
X0111173Y0120393D01*
X0110492Y0120709D01*
X0109805Y0121009D01*
X0109110Y0121291D01*
X0108409Y0121557D01*
X0107701Y0121805D01*
X0106988Y0122037D01*
X0106269Y0122250D01*
X0105545Y0122447D01*
X0104817Y0122625D01*
X0104084Y0122786D01*
X0103348Y0122929D01*
X0102608Y0123054D01*
X0101866Y0123161D01*
X0101121Y0123250D01*
X0100374Y0123320D01*
X0099626Y0123373D01*
X0098877Y0123407D01*
X0098127Y0123423D01*
X0097377Y0123420D01*
X0096627Y0123400D01*
X0095878Y0123361D01*
D12*
X0146982Y0187483D03*
X0146982Y0197483D03*
X0146982Y0207483D03*
X0146982Y0217483D03*
X0146982Y0227483D03*
X0146982Y0237483D03*
X0146982Y0257483D03*
X0146982Y0267483D03*
X0146982Y0277483D03*
X0146982Y0287483D03*
X0146982Y0297483D03*
X0146982Y0307483D03*
X0336982Y0307483D03*
X0336982Y0297483D03*
X0336982Y0287483D03*
X0336982Y0277483D03*
X0336982Y0267483D03*
X0336982Y0257483D03*
X0336982Y0247483D03*
X0336982Y0237483D03*
X0336982Y0221483D03*
X0336982Y0211483D03*
X0336982Y0201483D03*
X0336982Y0191483D03*
X0336982Y0181483D03*
X0336982Y0171483D03*
X0336982Y0161483D03*
X0336982Y0151483D03*
D13*
X0280683Y0218900D03*
X0280683Y0226774D03*
X0280683Y0234648D03*
X0280683Y0242522D03*
X0280683Y0250396D03*
X0280683Y0258270D03*
X0280683Y0266144D03*
X0280683Y0274018D03*
X0280683Y0281892D03*
X0280683Y0289766D03*
X0194069Y0289766D03*
X0194069Y0281892D03*
X0194069Y0274018D03*
X0194069Y0266144D03*
X0194069Y0258270D03*
X0194069Y0250396D03*
X0194069Y0242522D03*
X0194069Y0234648D03*
X0194069Y0226774D03*
X0194069Y0218900D03*
D14*
X0219502Y0220869D03*
X0219439Y0211395D03*
X0239439Y0211395D03*
X0239502Y0220869D03*
X0308242Y0230869D03*
X0320053Y0230869D03*
X0320053Y0210869D03*
X0308242Y0210869D03*
X0244344Y0067325D03*
X0234344Y0067325D03*
D15*
X0256361Y0210869D02*
X0257761Y0210869D01*
X0257761Y0220869D02*
X0256361Y0220869D01*
X0256361Y0230869D02*
X0257761Y0230869D01*
D16*
X0263509Y0225869D02*
X0264204Y0226564D01*
X0265361Y0229357D01*
X0265361Y0232380D01*
X0264204Y0235174D01*
X0263861Y0235517D01*
X0263861Y0267265D01*
X0271689Y0275092D01*
X0273108Y0275092D01*
X0273108Y0272512D01*
X0274115Y0270081D01*
X0273108Y0267651D01*
X0273108Y0264638D01*
X0274115Y0262207D01*
X0273108Y0259777D01*
X0273108Y0256764D01*
X0274115Y0254333D01*
X0273108Y0251903D01*
X0273108Y0248890D01*
X0274115Y0246459D01*
X0273108Y0244029D01*
X0273108Y0241016D01*
X0274115Y0238585D01*
X0273108Y0236155D01*
X0273108Y0233142D01*
X0274115Y0230711D01*
X0273108Y0228281D01*
X0273108Y0225268D01*
X0274261Y0222483D01*
X0275880Y0220865D01*
X0275636Y0220112D01*
X0275508Y0219308D01*
X0275508Y0218900D01*
X0275508Y0218493D01*
X0275636Y0217688D01*
X0275887Y0216914D01*
X0276257Y0216188D01*
X0276736Y0215529D01*
X0277312Y0214953D01*
X0277971Y0214474D01*
X0278696Y0214105D01*
X0279471Y0213853D01*
X0280276Y0213725D01*
X0280683Y0213725D01*
X0281090Y0213725D01*
X0281895Y0213853D01*
X0282669Y0214105D01*
X0283395Y0214474D01*
X0284054Y0214953D01*
X0284630Y0215529D01*
X0285109Y0216188D01*
X0285479Y0216914D01*
X0285730Y0217688D01*
X0285858Y0218493D01*
X0285858Y0218900D01*
X0280683Y0218900D01*
X0280683Y0213725D01*
X0280683Y0218900D01*
X0280683Y0218900D01*
X0280683Y0218900D01*
X0275508Y0218900D01*
X0280683Y0218900D01*
X0280683Y0218900D01*
X0285858Y0218900D01*
X0285858Y0219308D01*
X0285730Y0220112D01*
X0285486Y0220865D01*
X0287105Y0222483D01*
X0288258Y0225268D01*
X0288258Y0228281D01*
X0287251Y0230711D01*
X0288258Y0233142D01*
X0288258Y0236155D01*
X0287251Y0238585D01*
X0288258Y0241016D01*
X0288258Y0244029D01*
X0287251Y0246459D01*
X0288258Y0248890D01*
X0288258Y0251903D01*
X0287251Y0254333D01*
X0288258Y0256764D01*
X0288258Y0259777D01*
X0287251Y0262207D01*
X0288258Y0264638D01*
X0288258Y0267218D01*
X0295583Y0267218D01*
X0297505Y0265296D01*
X0297505Y0233453D01*
X0298540Y0230954D01*
X0300642Y0228852D01*
X0300642Y0227721D01*
X0305094Y0223269D01*
X0311390Y0223269D01*
X0312190Y0224069D01*
X0316105Y0224069D01*
X0316905Y0223269D01*
X0323201Y0223269D01*
X0327653Y0227721D01*
X0327653Y0234017D01*
X0323201Y0238469D01*
X0316905Y0238469D01*
X0316105Y0237669D01*
X0312190Y0237669D01*
X0311390Y0238469D01*
X0311105Y0238469D01*
X0311105Y0269465D01*
X0310070Y0271965D01*
X0308157Y0273878D01*
X0302251Y0279783D01*
X0299752Y0280818D01*
X0288258Y0280818D01*
X0288258Y0283399D01*
X0287251Y0285829D01*
X0288258Y0288260D01*
X0288258Y0291273D01*
X0287105Y0294057D01*
X0284974Y0296188D01*
X0282190Y0297341D01*
X0279176Y0297341D01*
X0277306Y0296566D01*
X0253740Y0296566D01*
X0251240Y0295531D01*
X0249328Y0293618D01*
X0237828Y0282118D01*
X0237733Y0282118D01*
X0234756Y0280885D01*
X0232477Y0278607D01*
X0231244Y0275630D01*
X0231244Y0272407D01*
X0232477Y0269430D01*
X0234756Y0267152D01*
X0237733Y0265918D01*
X0240956Y0265918D01*
X0243933Y0267152D01*
X0246211Y0269430D01*
X0247444Y0272407D01*
X0247444Y0272502D01*
X0257909Y0282966D01*
X0260329Y0282966D01*
X0251296Y0273933D01*
X0250261Y0271434D01*
X0250261Y0235517D01*
X0249918Y0235174D01*
X0248761Y0232380D01*
X0248761Y0229357D01*
X0249460Y0227669D01*
X0243450Y0227669D01*
X0242650Y0228469D01*
X0236354Y0228469D01*
X0231902Y0224017D01*
X0231902Y0217721D01*
X0233459Y0216163D01*
X0231839Y0214543D01*
X0231839Y0208247D01*
X0236291Y0203795D01*
X0242587Y0203795D01*
X0243387Y0204595D01*
X0251887Y0204595D01*
X0252056Y0204426D01*
X0254849Y0203269D01*
X0259273Y0203269D01*
X0262066Y0204426D01*
X0264204Y0206564D01*
X0265361Y0209357D01*
X0265361Y0212380D01*
X0264204Y0215174D01*
X0263509Y0215869D01*
X0264204Y0216564D01*
X0265361Y0219357D01*
X0265361Y0222380D01*
X0264204Y0225174D01*
X0263509Y0225869D01*
X0264466Y0224542D02*
X0273409Y0224542D01*
X0273108Y0227740D02*
X0264691Y0227740D01*
X0265361Y0230939D02*
X0274021Y0230939D01*
X0273108Y0234137D02*
X0264633Y0234137D01*
X0263861Y0237336D02*
X0273597Y0237336D01*
X0273308Y0240534D02*
X0263861Y0240534D01*
X0263861Y0243733D02*
X0273108Y0243733D01*
X0273919Y0246931D02*
X0263861Y0246931D01*
X0263861Y0250130D02*
X0273108Y0250130D01*
X0273698Y0253328D02*
X0263861Y0253328D01*
X0263861Y0256527D02*
X0273206Y0256527D01*
X0273108Y0259725D02*
X0263861Y0259725D01*
X0263861Y0262924D02*
X0273818Y0262924D01*
X0273108Y0266122D02*
X0263861Y0266122D01*
X0265917Y0269321D02*
X0273800Y0269321D01*
X0273108Y0272519D02*
X0269115Y0272519D01*
X0259478Y0282115D02*
X0257057Y0282115D01*
X0256279Y0278916D02*
X0253859Y0278916D01*
X0253081Y0275718D02*
X0250660Y0275718D01*
X0250710Y0272519D02*
X0247462Y0272519D01*
X0246102Y0269321D02*
X0250261Y0269321D01*
X0250261Y0266122D02*
X0241448Y0266122D01*
X0237241Y0266122D02*
X0201644Y0266122D01*
X0201644Y0264638D02*
X0201644Y0267651D01*
X0200637Y0270081D01*
X0201644Y0272512D01*
X0201644Y0275525D01*
X0200637Y0277955D01*
X0201644Y0280386D01*
X0201644Y0283399D01*
X0200637Y0285829D01*
X0201644Y0288260D01*
X0201644Y0291273D01*
X0200490Y0294057D01*
X0198360Y0296188D01*
X0195575Y0297341D01*
X0192562Y0297341D01*
X0189778Y0296188D01*
X0187647Y0294057D01*
X0186494Y0291273D01*
X0186494Y0288260D01*
X0187501Y0285829D01*
X0186494Y0283399D01*
X0186494Y0280386D01*
X0187501Y0277955D01*
X0186494Y0275525D01*
X0186494Y0272512D01*
X0187501Y0270081D01*
X0186494Y0267651D01*
X0186494Y0264638D01*
X0187501Y0262207D01*
X0186494Y0259777D01*
X0186494Y0256764D01*
X0187501Y0254333D01*
X0186494Y0251903D01*
X0186494Y0248890D01*
X0187501Y0246459D01*
X0186494Y0244029D01*
X0186494Y0241016D01*
X0187501Y0238585D01*
X0186494Y0236155D01*
X0186494Y0233142D01*
X0187501Y0230711D01*
X0186494Y0228281D01*
X0186494Y0225268D01*
X0187501Y0222837D01*
X0186494Y0220407D01*
X0186494Y0217394D01*
X0187647Y0214609D01*
X0189778Y0212479D01*
X0192562Y0211325D01*
X0195575Y0211325D01*
X0198360Y0212479D01*
X0200490Y0214609D01*
X0201644Y0217394D01*
X0201644Y0220407D01*
X0200637Y0222837D01*
X0201644Y0225268D01*
X0201644Y0228281D01*
X0200637Y0230711D01*
X0201644Y0233142D01*
X0201644Y0236155D01*
X0200637Y0238585D01*
X0201644Y0241016D01*
X0201644Y0244029D01*
X0200637Y0246459D01*
X0201644Y0248890D01*
X0201644Y0251903D01*
X0200637Y0254333D01*
X0201644Y0256764D01*
X0201644Y0259777D01*
X0200637Y0262207D01*
X0201644Y0264638D01*
X0200934Y0262924D02*
X0250261Y0262924D01*
X0250261Y0259725D02*
X0201644Y0259725D01*
X0201545Y0256527D02*
X0250261Y0256527D01*
X0250261Y0253328D02*
X0201053Y0253328D01*
X0201644Y0250130D02*
X0250261Y0250130D01*
X0250261Y0246931D02*
X0200832Y0246931D01*
X0201644Y0243733D02*
X0250261Y0243733D01*
X0250261Y0240534D02*
X0201444Y0240534D01*
X0201155Y0237336D02*
X0250261Y0237336D01*
X0249488Y0234137D02*
X0201644Y0234137D01*
X0200731Y0230939D02*
X0248761Y0230939D01*
X0249431Y0227740D02*
X0243379Y0227740D01*
X0235625Y0227740D02*
X0223379Y0227740D01*
X0222650Y0228469D02*
X0216354Y0228469D01*
X0211902Y0224017D01*
X0211902Y0217721D01*
X0213459Y0216163D01*
X0211839Y0214543D01*
X0211839Y0208247D01*
X0216291Y0203795D01*
X0222587Y0203795D01*
X0227039Y0208247D01*
X0227039Y0214543D01*
X0225481Y0216100D01*
X0227102Y0217721D01*
X0227102Y0224017D01*
X0222650Y0228469D01*
X0226577Y0224542D02*
X0232427Y0224542D01*
X0231902Y0221343D02*
X0227102Y0221343D01*
X0227102Y0218145D02*
X0231902Y0218145D01*
X0232242Y0214946D02*
X0226636Y0214946D01*
X0227039Y0211748D02*
X0231839Y0211748D01*
X0231839Y0208549D02*
X0227039Y0208549D01*
X0224143Y0205350D02*
X0234735Y0205350D01*
X0214735Y0205350D02*
X0155082Y0205350D01*
X0155082Y0204128D02*
X0155082Y0210838D01*
X0151740Y0214180D01*
X0152682Y0215122D01*
X0152682Y0217483D01*
X0152682Y0219844D01*
X0150043Y0222483D01*
X0152682Y0225122D01*
X0152682Y0227483D01*
X0152682Y0229844D01*
X0151740Y0230786D01*
X0155082Y0234128D01*
X0155082Y0240838D01*
X0150337Y0245583D01*
X0143627Y0245583D01*
X0138882Y0240838D01*
X0138882Y0234128D01*
X0142224Y0230786D01*
X0141282Y0229844D01*
X0141282Y0227483D01*
X0146982Y0227483D01*
X0146982Y0227483D01*
X0141282Y0227483D01*
X0141282Y0225122D01*
X0143921Y0222483D01*
X0141282Y0219844D01*
X0141282Y0217483D01*
X0146982Y0217483D01*
X0146982Y0217483D01*
X0146982Y0223183D01*
X0146982Y0227483D01*
X0146982Y0227483D01*
X0152682Y0227483D01*
X0146982Y0227483D01*
X0146982Y0227483D01*
X0146982Y0217483D01*
X0146982Y0217483D01*
X0141282Y0217483D01*
X0141282Y0215122D01*
X0142224Y0214180D01*
X0138882Y0210838D01*
X0138882Y0204128D01*
X0140527Y0202483D01*
X0138882Y0200838D01*
X0138882Y0194128D01*
X0140527Y0192483D01*
X0138882Y0190838D01*
X0138882Y0184128D01*
X0143627Y0179383D01*
X0150337Y0179383D01*
X0155082Y0184128D01*
X0155082Y0190838D01*
X0153437Y0192483D01*
X0155082Y0194128D01*
X0155082Y0200838D01*
X0153437Y0202483D01*
X0155082Y0204128D01*
X0153768Y0202152D02*
X0328882Y0202152D01*
X0328882Y0204838D02*
X0328882Y0198128D01*
X0330527Y0196483D01*
X0328882Y0194838D01*
X0328882Y0188128D01*
X0330527Y0186483D01*
X0328882Y0184838D01*
X0328882Y0178128D01*
X0330527Y0176483D01*
X0328882Y0174838D01*
X0328882Y0168128D01*
X0332224Y0164786D01*
X0331282Y0163844D01*
X0331282Y0161483D01*
X0336982Y0161483D01*
X0336982Y0161483D01*
X0331282Y0161483D01*
X0331282Y0159122D01*
X0332224Y0158180D01*
X0328882Y0154838D01*
X0328882Y0148128D01*
X0333627Y0143383D01*
X0340337Y0143383D01*
X0345082Y0148128D01*
X0345082Y0154838D01*
X0341740Y0158180D01*
X0342682Y0159122D01*
X0342682Y0161483D01*
X0342682Y0163844D01*
X0341740Y0164786D01*
X0345082Y0168128D01*
X0345082Y0174838D01*
X0343437Y0176483D01*
X0345082Y0178128D01*
X0345082Y0184838D01*
X0343437Y0186483D01*
X0345082Y0188128D01*
X0345082Y0194838D01*
X0343437Y0196483D01*
X0345082Y0198128D01*
X0345082Y0204838D01*
X0343437Y0206483D01*
X0345082Y0208128D01*
X0345082Y0214838D01*
X0343437Y0216483D01*
X0345082Y0218128D01*
X0345082Y0224838D01*
X0340437Y0229483D01*
X0345082Y0234128D01*
X0345082Y0240838D01*
X0343437Y0242483D01*
X0345082Y0244128D01*
X0345082Y0250838D01*
X0343437Y0252483D01*
X0345082Y0254128D01*
X0345082Y0260838D01*
X0343437Y0262483D01*
X0345082Y0264128D01*
X0345082Y0270838D01*
X0343437Y0272483D01*
X0344355Y0273401D01*
X0344387Y0273324D01*
X0344387Y0273324D01*
X0347617Y0268489D01*
X0351729Y0264378D01*
X0356563Y0261148D01*
X0361935Y0258923D01*
X0367637Y0257788D01*
X0370492Y0257788D01*
X0375477Y0257695D01*
X0375477Y0128948D01*
X0368138Y0128844D01*
X0367955Y0128903D01*
X0367030Y0128828D01*
X0366103Y0128814D01*
X0365926Y0128738D01*
X0363683Y0128556D01*
X0357634Y0126650D01*
X0352161Y0123445D01*
X0352161Y0123445D01*
X0347938Y0119478D01*
X0347325Y0121767D01*
X0345864Y0124298D01*
X0343797Y0126365D01*
X0341266Y0127826D01*
X0338443Y0128582D01*
X0335521Y0128582D01*
X0332698Y0127826D01*
X0330167Y0126365D01*
X0328101Y0124298D01*
X0326639Y0121767D01*
X0325883Y0118944D01*
X0325883Y0116022D01*
X0326639Y0113199D01*
X0328101Y0110668D01*
X0330167Y0108601D01*
X0332698Y0107140D01*
X0335521Y0106384D01*
X0338443Y0106384D01*
X0341266Y0107140D01*
X0341634Y0107352D01*
X0340809Y0101644D01*
X0341047Y0098710D01*
X0341030Y0059146D01*
X0133748Y0059146D01*
X0133907Y0096515D01*
X0134013Y0096944D01*
X0133911Y0097618D01*
X0133914Y0098300D01*
X0133747Y0098709D01*
X0133342Y0101396D01*
X0131111Y0107797D01*
X0127738Y0113675D01*
X0123338Y0118831D01*
X0123338Y0118831D01*
X0123338Y0118831D01*
X0118062Y0123085D01*
X0118062Y0123085D01*
X0112091Y0126293D01*
X0105631Y0128343D01*
X0105631Y0128343D01*
X0099275Y0129120D01*
X0099275Y0257713D01*
X0102736Y0257789D01*
X0105778Y0257789D01*
X0105778Y0257789D01*
X0111863Y0259010D01*
X0111863Y0259010D01*
X0117589Y0261405D01*
X0122731Y0264879D01*
X0127089Y0269297D01*
X0130493Y0274487D01*
X0132809Y0280245D01*
X0133947Y0286346D01*
X0133904Y0289414D01*
X0133850Y0327397D01*
X0272041Y0327447D01*
X0270167Y0326365D01*
X0268101Y0324298D01*
X0266639Y0321767D01*
X0265883Y0318944D01*
X0265883Y0316022D01*
X0266639Y0313199D01*
X0268101Y0310668D01*
X0270167Y0308601D01*
X0272698Y0307140D01*
X0275521Y0306384D01*
X0278443Y0306384D01*
X0281266Y0307140D01*
X0283797Y0308601D01*
X0285864Y0310668D01*
X0287325Y0313199D01*
X0288081Y0316022D01*
X0288081Y0318944D01*
X0287325Y0321767D01*
X0285864Y0324298D01*
X0283797Y0326365D01*
X0281917Y0327450D01*
X0341028Y0327471D01*
X0341028Y0314892D01*
X0340337Y0315583D01*
X0333627Y0315583D01*
X0328882Y0310838D01*
X0328882Y0304128D01*
X0330527Y0302483D01*
X0328882Y0300838D01*
X0328882Y0294128D01*
X0330527Y0292483D01*
X0328882Y0290838D01*
X0328882Y0284128D01*
X0330527Y0282483D01*
X0328882Y0280838D01*
X0328882Y0274128D01*
X0330527Y0272483D01*
X0328882Y0270838D01*
X0328882Y0264128D01*
X0330527Y0262483D01*
X0328882Y0260838D01*
X0328882Y0254128D01*
X0330527Y0252483D01*
X0328882Y0250838D01*
X0328882Y0244128D01*
X0330527Y0242483D01*
X0328882Y0240838D01*
X0328882Y0234128D01*
X0333527Y0229483D01*
X0328882Y0224838D01*
X0328882Y0218128D01*
X0330527Y0216483D01*
X0328882Y0214838D01*
X0328882Y0208128D01*
X0330527Y0206483D01*
X0328882Y0204838D01*
X0329395Y0205350D02*
X0325283Y0205350D01*
X0323201Y0203269D02*
X0327653Y0207721D01*
X0327653Y0214017D01*
X0323201Y0218469D01*
X0316905Y0218469D01*
X0312453Y0214017D01*
X0312453Y0214012D01*
X0310396Y0216069D01*
X0308242Y0216069D01*
X0308242Y0210869D01*
X0308242Y0210869D01*
X0308242Y0216069D01*
X0306088Y0216069D01*
X0303042Y0213023D01*
X0303042Y0210869D01*
X0308242Y0210869D01*
X0308242Y0210869D01*
X0303042Y0210869D01*
X0303042Y0208715D01*
X0306088Y0205669D01*
X0308242Y0205669D01*
X0310396Y0205669D01*
X0312453Y0207726D01*
X0312453Y0207721D01*
X0316905Y0203269D01*
X0323201Y0203269D01*
X0327653Y0208549D02*
X0328882Y0208549D01*
X0328882Y0211748D02*
X0327653Y0211748D01*
X0326724Y0214946D02*
X0328990Y0214946D01*
X0328882Y0218145D02*
X0323525Y0218145D01*
X0328882Y0221343D02*
X0285964Y0221343D01*
X0285803Y0218145D02*
X0316581Y0218145D01*
X0313382Y0214946D02*
X0311519Y0214946D01*
X0308242Y0214946D02*
X0308242Y0214946D01*
X0308242Y0211748D02*
X0308242Y0211748D01*
X0308242Y0210869D02*
X0308242Y0205669D01*
X0308242Y0210869D01*
X0308242Y0210869D01*
X0308242Y0208549D02*
X0308242Y0208549D01*
X0303208Y0208549D02*
X0265026Y0208549D01*
X0265361Y0211748D02*
X0303042Y0211748D01*
X0304965Y0214946D02*
X0284044Y0214946D01*
X0280683Y0214946D02*
X0280683Y0214946D01*
X0280683Y0218145D02*
X0280683Y0218145D01*
X0277322Y0214946D02*
X0264298Y0214946D01*
X0264859Y0218145D02*
X0275563Y0218145D01*
X0275402Y0221343D02*
X0265361Y0221343D01*
X0262991Y0205350D02*
X0314823Y0205350D01*
X0328882Y0198953D02*
X0155082Y0198953D01*
X0155082Y0195755D02*
X0329799Y0195755D01*
X0328882Y0192556D02*
X0153511Y0192556D01*
X0155082Y0189358D02*
X0328882Y0189358D01*
X0330204Y0186159D02*
X0155082Y0186159D01*
X0153915Y0182961D02*
X0328882Y0182961D01*
X0328882Y0179762D02*
X0150717Y0179762D01*
X0143248Y0179762D02*
X0099275Y0179762D01*
X0099275Y0176564D02*
X0330446Y0176564D01*
X0328882Y0173365D02*
X0099275Y0173365D01*
X0099275Y0170167D02*
X0328882Y0170167D01*
X0330042Y0166968D02*
X0099275Y0166968D01*
X0099275Y0163770D02*
X0331282Y0163770D01*
X0331282Y0160571D02*
X0099275Y0160571D01*
X0099275Y0157373D02*
X0331417Y0157373D01*
X0328882Y0154174D02*
X0099275Y0154174D01*
X0099275Y0150976D02*
X0328882Y0150976D01*
X0329233Y0147777D02*
X0099275Y0147777D01*
X0099275Y0144579D02*
X0332431Y0144579D01*
X0341533Y0144579D02*
X0375477Y0144579D01*
X0375477Y0147777D02*
X0344732Y0147777D01*
X0345082Y0150976D02*
X0375477Y0150976D01*
X0375477Y0154174D02*
X0345082Y0154174D01*
X0342547Y0157373D02*
X0375477Y0157373D01*
X0375477Y0160571D02*
X0342682Y0160571D01*
X0342682Y0161483D02*
X0336982Y0161483D01*
X0342682Y0161483D01*
X0342682Y0163770D02*
X0375477Y0163770D01*
X0375477Y0166968D02*
X0343923Y0166968D01*
X0345082Y0170167D02*
X0375477Y0170167D01*
X0375477Y0173365D02*
X0345082Y0173365D01*
X0343518Y0176564D02*
X0375477Y0176564D01*
X0375477Y0179762D02*
X0345082Y0179762D01*
X0345082Y0182961D02*
X0375477Y0182961D01*
X0375477Y0186159D02*
X0343761Y0186159D01*
X0345082Y0189358D02*
X0375477Y0189358D01*
X0375477Y0192556D02*
X0345082Y0192556D01*
X0344165Y0195755D02*
X0375477Y0195755D01*
X0375477Y0198953D02*
X0345082Y0198953D01*
X0345082Y0202152D02*
X0375477Y0202152D01*
X0375477Y0205350D02*
X0344570Y0205350D01*
X0345082Y0208549D02*
X0375477Y0208549D01*
X0375477Y0211748D02*
X0345082Y0211748D01*
X0344974Y0214946D02*
X0375477Y0214946D01*
X0375477Y0218145D02*
X0345082Y0218145D01*
X0345082Y0221343D02*
X0375477Y0221343D01*
X0375477Y0224542D02*
X0345082Y0224542D01*
X0342180Y0227740D02*
X0375477Y0227740D01*
X0375477Y0230939D02*
X0341893Y0230939D01*
X0345082Y0234137D02*
X0375477Y0234137D01*
X0375477Y0237336D02*
X0345082Y0237336D01*
X0345082Y0240534D02*
X0375477Y0240534D01*
X0375477Y0243733D02*
X0344687Y0243733D01*
X0345082Y0246931D02*
X0375477Y0246931D01*
X0375477Y0250130D02*
X0345082Y0250130D01*
X0344282Y0253328D02*
X0375477Y0253328D01*
X0375477Y0256527D02*
X0345082Y0256527D01*
X0345082Y0259725D02*
X0359997Y0259725D01*
X0361935Y0258923D02*
X0361935Y0258923D01*
X0356563Y0261148D02*
X0356563Y0261148D01*
X0353905Y0262924D02*
X0343878Y0262924D01*
X0345082Y0266122D02*
X0349984Y0266122D01*
X0351729Y0264378D02*
X0351729Y0264378D01*
X0347617Y0268489D02*
X0347617Y0268489D01*
X0347062Y0269321D02*
X0345082Y0269321D01*
X0344925Y0272519D02*
X0343474Y0272519D01*
X0330491Y0272519D02*
X0309515Y0272519D01*
X0311105Y0269321D02*
X0328882Y0269321D01*
X0328882Y0266122D02*
X0311105Y0266122D01*
X0311105Y0262924D02*
X0330086Y0262924D01*
X0328882Y0259725D02*
X0311105Y0259725D01*
X0311105Y0256527D02*
X0328882Y0256527D01*
X0329682Y0253328D02*
X0311105Y0253328D01*
X0311105Y0250130D02*
X0328882Y0250130D01*
X0328882Y0246931D02*
X0311105Y0246931D01*
X0311105Y0243733D02*
X0329277Y0243733D01*
X0328882Y0240534D02*
X0311105Y0240534D01*
X0297505Y0240534D02*
X0288058Y0240534D01*
X0288258Y0243733D02*
X0297505Y0243733D01*
X0297505Y0246931D02*
X0287446Y0246931D01*
X0288258Y0250130D02*
X0297505Y0250130D01*
X0297505Y0253328D02*
X0287667Y0253328D01*
X0288160Y0256527D02*
X0297505Y0256527D01*
X0297505Y0259725D02*
X0288258Y0259725D01*
X0287548Y0262924D02*
X0297505Y0262924D01*
X0296679Y0266122D02*
X0288258Y0266122D01*
X0288258Y0282115D02*
X0330159Y0282115D01*
X0328882Y0285313D02*
X0287465Y0285313D01*
X0288258Y0288512D02*
X0328882Y0288512D01*
X0329754Y0291710D02*
X0288077Y0291710D01*
X0286253Y0294909D02*
X0328882Y0294909D01*
X0328882Y0298107D02*
X0155082Y0298107D01*
X0155082Y0300838D02*
X0155082Y0294128D01*
X0153437Y0292483D01*
X0155082Y0290838D01*
X0155082Y0284128D01*
X0153437Y0282483D01*
X0155082Y0280838D01*
X0155082Y0274128D01*
X0153437Y0272483D01*
X0155082Y0270838D01*
X0155082Y0264128D01*
X0153437Y0262483D01*
X0155082Y0260838D01*
X0155082Y0254128D01*
X0150337Y0249383D01*
X0143627Y0249383D01*
X0138882Y0254128D01*
X0138882Y0260838D01*
X0140527Y0262483D01*
X0138882Y0264128D01*
X0138882Y0270838D01*
X0140527Y0272483D01*
X0138882Y0274128D01*
X0138882Y0280838D01*
X0140527Y0282483D01*
X0138882Y0284128D01*
X0138882Y0290838D01*
X0140527Y0292483D01*
X0138882Y0294128D01*
X0138882Y0300838D01*
X0140527Y0302483D01*
X0138882Y0304128D01*
X0138882Y0310838D01*
X0143627Y0315583D01*
X0150337Y0315583D01*
X0155082Y0310838D01*
X0155082Y0304128D01*
X0153437Y0302483D01*
X0155082Y0300838D01*
X0154614Y0301306D02*
X0329350Y0301306D01*
X0328882Y0304504D02*
X0155082Y0304504D01*
X0155082Y0307703D02*
X0271723Y0307703D01*
X0267966Y0310901D02*
X0155019Y0310901D01*
X0151820Y0314100D02*
X0266398Y0314100D01*
X0265883Y0317298D02*
X0133864Y0317298D01*
X0133869Y0314100D02*
X0142144Y0314100D01*
X0138945Y0310901D02*
X0133874Y0310901D01*
X0133878Y0307703D02*
X0138882Y0307703D01*
X0138882Y0304504D02*
X0133883Y0304504D01*
X0133887Y0301306D02*
X0139350Y0301306D01*
X0138882Y0298107D02*
X0133892Y0298107D01*
X0133897Y0294909D02*
X0138882Y0294909D01*
X0139754Y0291710D02*
X0133901Y0291710D01*
X0133917Y0288512D02*
X0138882Y0288512D01*
X0138882Y0285313D02*
X0133754Y0285313D01*
X0133158Y0282115D02*
X0140159Y0282115D01*
X0138882Y0278916D02*
X0132274Y0278916D01*
X0130988Y0275718D02*
X0138882Y0275718D01*
X0140491Y0272519D02*
X0129202Y0272519D01*
X0127105Y0269321D02*
X0138882Y0269321D01*
X0138882Y0266122D02*
X0123957Y0266122D01*
X0122731Y0264879D02*
X0122731Y0264879D01*
X0119837Y0262924D02*
X0140086Y0262924D01*
X0138882Y0259725D02*
X0113573Y0259725D01*
X0117589Y0261405D02*
X0117589Y0261405D01*
X0127089Y0269297D02*
X0127089Y0269297D01*
X0138882Y0256527D02*
X0099275Y0256527D01*
X0099275Y0253328D02*
X0139682Y0253328D01*
X0142880Y0250130D02*
X0099275Y0250130D01*
X0099275Y0246931D02*
X0187305Y0246931D01*
X0186494Y0243733D02*
X0152188Y0243733D01*
X0155082Y0240534D02*
X0186693Y0240534D01*
X0186983Y0237336D02*
X0155082Y0237336D01*
X0155082Y0234137D02*
X0186494Y0234137D01*
X0187406Y0230939D02*
X0151893Y0230939D01*
X0152682Y0227740D02*
X0186494Y0227740D01*
X0186795Y0224542D02*
X0152102Y0224542D01*
X0151183Y0221343D02*
X0186882Y0221343D01*
X0186494Y0218145D02*
X0152682Y0218145D01*
X0152682Y0217483D02*
X0146982Y0217483D01*
X0146982Y0217483D01*
X0152682Y0217483D01*
X0152506Y0214946D02*
X0187508Y0214946D01*
X0191543Y0211748D02*
X0154173Y0211748D01*
X0155082Y0208549D02*
X0211839Y0208549D01*
X0211839Y0211748D02*
X0196594Y0211748D01*
X0200630Y0214946D02*
X0212242Y0214946D01*
X0211902Y0218145D02*
X0201644Y0218145D01*
X0201256Y0221343D02*
X0211902Y0221343D01*
X0212427Y0224542D02*
X0201343Y0224542D01*
X0201644Y0227740D02*
X0215625Y0227740D01*
X0186494Y0250130D02*
X0151084Y0250130D01*
X0154282Y0253328D02*
X0187084Y0253328D01*
X0186592Y0256527D02*
X0155082Y0256527D01*
X0155082Y0259725D02*
X0186494Y0259725D01*
X0187204Y0262924D02*
X0153878Y0262924D01*
X0155082Y0266122D02*
X0186494Y0266122D01*
X0187186Y0269321D02*
X0155082Y0269321D01*
X0153474Y0272519D02*
X0186494Y0272519D01*
X0186574Y0275718D02*
X0155082Y0275718D01*
X0155082Y0278916D02*
X0187103Y0278916D01*
X0186494Y0282115D02*
X0153805Y0282115D01*
X0155082Y0285313D02*
X0187287Y0285313D01*
X0186494Y0288512D02*
X0155082Y0288512D01*
X0154210Y0291710D02*
X0186675Y0291710D01*
X0188499Y0294909D02*
X0155082Y0294909D01*
X0133860Y0320497D02*
X0266299Y0320497D01*
X0267753Y0323695D02*
X0133855Y0323695D01*
X0133851Y0326894D02*
X0271084Y0326894D01*
X0282880Y0326894D02*
X0341028Y0326894D01*
X0341028Y0323695D02*
X0286212Y0323695D01*
X0287665Y0320497D02*
X0341028Y0320497D01*
X0341028Y0317298D02*
X0288081Y0317298D01*
X0287566Y0314100D02*
X0332144Y0314100D01*
X0328945Y0310901D02*
X0285999Y0310901D01*
X0282241Y0307703D02*
X0328882Y0307703D01*
X0328882Y0278916D02*
X0303118Y0278916D01*
X0306317Y0275718D02*
X0328882Y0275718D01*
X0328882Y0237336D02*
X0324334Y0237336D01*
X0327533Y0234137D02*
X0328882Y0234137D01*
X0327653Y0230939D02*
X0332071Y0230939D01*
X0331784Y0227740D02*
X0327653Y0227740D01*
X0328882Y0224542D02*
X0324474Y0224542D01*
X0303821Y0224542D02*
X0287957Y0224542D01*
X0288258Y0227740D02*
X0300642Y0227740D01*
X0298555Y0230939D02*
X0287345Y0230939D01*
X0288258Y0234137D02*
X0297505Y0234137D01*
X0297505Y0237336D02*
X0287769Y0237336D01*
X0241023Y0285313D02*
X0200851Y0285313D01*
X0201644Y0282115D02*
X0237724Y0282115D01*
X0232787Y0278916D02*
X0201035Y0278916D01*
X0201564Y0275718D02*
X0231281Y0275718D01*
X0231244Y0272519D02*
X0201644Y0272519D01*
X0200952Y0269321D02*
X0232587Y0269321D01*
X0244221Y0288512D02*
X0201644Y0288512D01*
X0201462Y0291710D02*
X0247420Y0291710D01*
X0250618Y0294909D02*
X0199639Y0294909D01*
X0141777Y0243733D02*
X0099275Y0243733D01*
X0099275Y0240534D02*
X0138882Y0240534D01*
X0138882Y0237336D02*
X0099275Y0237336D01*
X0099275Y0234137D02*
X0138882Y0234137D01*
X0142071Y0230939D02*
X0099275Y0230939D01*
X0099275Y0227740D02*
X0141282Y0227740D01*
X0141862Y0224542D02*
X0099275Y0224542D01*
X0099275Y0221343D02*
X0142781Y0221343D01*
X0141282Y0218145D02*
X0099275Y0218145D01*
X0099275Y0214946D02*
X0141458Y0214946D01*
X0139792Y0211748D02*
X0099275Y0211748D01*
X0099275Y0208549D02*
X0138882Y0208549D01*
X0138882Y0205350D02*
X0099275Y0205350D01*
X0099275Y0202152D02*
X0117107Y0202152D01*
X0116629Y0201876D02*
X0119070Y0203286D01*
X0121793Y0204015D01*
X0124612Y0204015D01*
X0127335Y0203286D01*
X0129776Y0201876D01*
X0131769Y0199883D01*
X0133179Y0197442D01*
X0133908Y0194719D01*
X0133908Y0191900D01*
X0133179Y0189178D01*
X0131769Y0186736D01*
X0129776Y0184743D01*
X0127335Y0183334D01*
X0124612Y0182604D01*
X0121793Y0182604D01*
X0119070Y0183334D01*
X0116629Y0184743D01*
X0114636Y0186736D01*
X0113227Y0189178D01*
X0112497Y0191900D01*
X0112497Y0194719D01*
X0113227Y0197442D01*
X0114636Y0199883D01*
X0116629Y0201876D01*
X0114099Y0198953D02*
X0099275Y0198953D01*
X0099275Y0195755D02*
X0112775Y0195755D01*
X0112497Y0192556D02*
X0099275Y0192556D01*
X0099275Y0189358D02*
X0113178Y0189358D01*
X0115213Y0186159D02*
X0099275Y0186159D01*
X0099275Y0182961D02*
X0120462Y0182961D01*
X0125943Y0182961D02*
X0140049Y0182961D01*
X0138882Y0186159D02*
X0131192Y0186159D01*
X0133227Y0189358D02*
X0138882Y0189358D01*
X0140453Y0192556D02*
X0133908Y0192556D01*
X0133631Y0195755D02*
X0138882Y0195755D01*
X0138882Y0198953D02*
X0132306Y0198953D01*
X0129298Y0202152D02*
X0140196Y0202152D01*
X0146982Y0218145D02*
X0146982Y0218145D01*
X0146982Y0221343D02*
X0146982Y0221343D01*
X0146982Y0224542D02*
X0146982Y0224542D01*
X0099275Y0141380D02*
X0375477Y0141380D01*
X0375477Y0138182D02*
X0099275Y0138182D01*
X0099275Y0134983D02*
X0375477Y0134983D01*
X0375477Y0131785D02*
X0099275Y0131785D01*
X0103643Y0128586D02*
X0364053Y0128586D01*
X0363683Y0128556D02*
X0363683Y0128556D01*
X0357634Y0126650D02*
X0357634Y0126650D01*
X0355479Y0125388D02*
X0344774Y0125388D01*
X0347081Y0122189D02*
X0350824Y0122189D01*
X0341467Y0106197D02*
X0156169Y0106197D01*
X0155864Y0105668D02*
X0157325Y0108199D01*
X0158081Y0111022D01*
X0158081Y0113944D01*
X0157325Y0116767D01*
X0155864Y0119298D01*
X0153797Y0121365D01*
X0151266Y0122826D01*
X0148443Y0123582D01*
X0145521Y0123582D01*
X0142698Y0122826D01*
X0140167Y0121365D01*
X0138101Y0119298D01*
X0136639Y0116767D01*
X0135883Y0113944D01*
X0135883Y0111022D01*
X0136639Y0108199D01*
X0138101Y0105668D01*
X0140167Y0103601D01*
X0142698Y0102140D01*
X0145521Y0101384D01*
X0148443Y0101384D01*
X0151266Y0102140D01*
X0153797Y0103601D01*
X0155864Y0105668D01*
X0152752Y0102998D02*
X0341005Y0102998D01*
X0340809Y0101644D02*
X0340809Y0101644D01*
X0340959Y0099800D02*
X0133582Y0099800D01*
X0133342Y0101396D02*
X0133342Y0101396D01*
X0132783Y0102998D02*
X0141212Y0102998D01*
X0137795Y0106197D02*
X0131669Y0106197D01*
X0131111Y0107797D02*
X0131111Y0107797D01*
X0130194Y0109395D02*
X0136319Y0109395D01*
X0135883Y0112594D02*
X0128359Y0112594D01*
X0127738Y0113675D02*
X0127738Y0113675D01*
X0125931Y0115792D02*
X0136378Y0115792D01*
X0137923Y0118991D02*
X0123139Y0118991D01*
X0119173Y0122189D02*
X0141595Y0122189D01*
X0152369Y0122189D02*
X0326883Y0122189D01*
X0325895Y0118991D02*
X0156041Y0118991D01*
X0157586Y0115792D02*
X0325944Y0115792D01*
X0326989Y0112594D02*
X0158081Y0112594D01*
X0157645Y0109395D02*
X0329373Y0109395D01*
X0341046Y0096601D02*
X0133928Y0096601D01*
X0133893Y0093403D02*
X0341045Y0093403D01*
X0341044Y0090204D02*
X0133880Y0090204D01*
X0133866Y0087006D02*
X0144475Y0087006D01*
X0145173Y0087703D02*
X0143179Y0085710D01*
X0141770Y0083269D01*
X0141040Y0080546D01*
X0141040Y0077727D01*
X0141770Y0075004D01*
X0143179Y0072563D01*
X0145173Y0070570D01*
X0147614Y0069161D01*
X0150337Y0068431D01*
X0153155Y0068431D01*
X0155878Y0069161D01*
X0158319Y0070570D01*
X0160312Y0072563D01*
X0161722Y0075004D01*
X0162451Y0077727D01*
X0162451Y0080546D01*
X0161722Y0083269D01*
X0160312Y0085710D01*
X0158319Y0087703D01*
X0155878Y0089112D01*
X0153155Y0089842D01*
X0150337Y0089842D01*
X0147614Y0089112D01*
X0145173Y0087703D01*
X0142081Y0083807D02*
X0133852Y0083807D01*
X0133839Y0080609D02*
X0141057Y0080609D01*
X0141125Y0077410D02*
X0133825Y0077410D01*
X0133812Y0074212D02*
X0142228Y0074212D01*
X0144729Y0071013D02*
X0133798Y0071013D01*
X0133785Y0067815D02*
X0229144Y0067815D01*
X0229144Y0067326D02*
X0234344Y0067326D01*
X0234344Y0072525D01*
X0232190Y0072525D01*
X0229144Y0069479D01*
X0229144Y0067326D01*
X0229144Y0067325D02*
X0229144Y0065172D01*
X0232190Y0062125D01*
X0234344Y0062125D01*
X0234344Y0067325D01*
X0234344Y0067325D01*
X0229144Y0067325D01*
X0229700Y0064616D02*
X0133771Y0064616D01*
X0133757Y0061417D02*
X0239504Y0061417D01*
X0241196Y0059725D02*
X0247492Y0059725D01*
X0251944Y0064177D01*
X0251944Y0070473D01*
X0247492Y0074925D01*
X0241196Y0074925D01*
X0237647Y0071376D01*
X0236498Y0072525D01*
X0234344Y0072525D01*
X0234344Y0067326D01*
X0234344Y0067326D01*
X0234344Y0067325D01*
X0234344Y0062125D01*
X0236498Y0062125D01*
X0237647Y0063275D01*
X0241196Y0059725D01*
X0234344Y0064616D02*
X0234344Y0064616D01*
X0234344Y0067815D02*
X0234344Y0067815D01*
X0234344Y0071013D02*
X0234344Y0071013D01*
X0230678Y0071013D02*
X0158762Y0071013D01*
X0161264Y0074212D02*
X0240482Y0074212D01*
X0248206Y0074212D02*
X0313488Y0074212D01*
X0313030Y0075004D02*
X0314439Y0072563D01*
X0316432Y0070570D01*
X0318874Y0069161D01*
X0321596Y0068431D01*
X0324415Y0068431D01*
X0327138Y0069161D01*
X0329579Y0070570D01*
X0331572Y0072563D01*
X0332982Y0075004D01*
X0333711Y0077727D01*
X0333711Y0080546D01*
X0332982Y0083269D01*
X0331572Y0085710D01*
X0329579Y0087703D01*
X0327138Y0089112D01*
X0324415Y0089842D01*
X0321596Y0089842D01*
X0318874Y0089112D01*
X0316432Y0087703D01*
X0314439Y0085710D01*
X0313030Y0083269D01*
X0312300Y0080546D01*
X0312300Y0077727D01*
X0313030Y0075004D01*
X0312385Y0077410D02*
X0162366Y0077410D01*
X0162435Y0080609D02*
X0312317Y0080609D01*
X0313341Y0083807D02*
X0161411Y0083807D01*
X0159017Y0087006D02*
X0315735Y0087006D01*
X0330277Y0087006D02*
X0341042Y0087006D01*
X0341041Y0083807D02*
X0332671Y0083807D01*
X0333694Y0080609D02*
X0341040Y0080609D01*
X0341038Y0077410D02*
X0333626Y0077410D01*
X0332524Y0074212D02*
X0341037Y0074212D01*
X0341035Y0071013D02*
X0330022Y0071013D01*
X0341034Y0067815D02*
X0251944Y0067815D01*
X0251944Y0064616D02*
X0341033Y0064616D01*
X0341031Y0061417D02*
X0249184Y0061417D01*
X0251405Y0071013D02*
X0315989Y0071013D01*
X0329190Y0125388D02*
X0113776Y0125388D01*
X0112091Y0126293D02*
X0112091Y0126293D01*
X0336982Y0161483D02*
X0336982Y0161483D01*
D17*
X0320053Y0230869D02*
X0308242Y0230869D01*
X0304305Y0234806D01*
X0304305Y0268113D01*
X0298399Y0274018D01*
X0280683Y0274018D01*
X0280683Y0281892D02*
X0268872Y0281892D01*
X0257061Y0270081D01*
X0257061Y0230869D01*
X0257061Y0220869D02*
X0239502Y0220869D01*
X0239439Y0211395D02*
X0256535Y0211395D01*
X0257061Y0210869D01*
X0239344Y0274018D02*
X0255092Y0289766D01*
X0280683Y0289766D01*
D18*
X0239344Y0274018D03*
M02*
