%
M48
M72
T01C0.03543
T02C0.03937
T03C0.04000
T04C0.11811
%
T01
X157635Y182666
T02
X157635Y172666
X157635Y162666
X157635Y152666
X157635Y142666
X157635Y132666
X157635Y122666
X157635Y112666
X157635Y102666
X157635Y92666
X157635Y82666
X157635Y72666
X97635Y72666
X97635Y82666
X97635Y92666
X97635Y102666
X97635Y112666
X97635Y122666
X97635Y132666
X97635Y142666
X97635Y152666
X97635Y162666
X97635Y172666
X97635Y182666
T03
X81020Y139595
X71020Y139595
X61020Y139595
X98264Y28414
X108264Y28414
X118264Y28414
X128264Y28414
X138264Y28414
T04
X63146Y41170
X181257Y41170
X181257Y198650
X63146Y198650
M30
