G75*
%MOIN*%
%OFA0B0*%
%FSLAX25Y25*%
%IPPOS*%
%LPD*%
%AMOC8*
5,1,8,0,0,1.08239X$1,22.5*
%
%ADD10C,0.07000*%
%ADD11R,0.07000X0.07000*%
%ADD12C,0.00512*%
%ADD13C,0.06400*%
%ADD14C,0.00591*%
%ADD15C,0.00787*%
%ADD16C,0.05600*%
%ADD17C,0.03200*%
%ADD18C,0.01600*%
%ADD19C,0.05000*%
%ADD20C,0.04000*%
D10*
X0097635Y0072666D03*
X0097635Y0082666D03*
X0097635Y0092666D03*
X0097635Y0102666D03*
X0097635Y0112666D03*
X0097635Y0122666D03*
X0097635Y0132666D03*
X0097635Y0142666D03*
X0097635Y0152666D03*
X0097635Y0162666D03*
X0097635Y0172666D03*
X0097635Y0182666D03*
X0157635Y0172666D03*
X0157635Y0162666D03*
X0157635Y0152666D03*
X0157635Y0142666D03*
X0157635Y0132666D03*
X0157635Y0122666D03*
X0157635Y0112666D03*
X0157635Y0102666D03*
X0157635Y0092666D03*
X0157635Y0082666D03*
X0157635Y0072666D03*
D11*
X0157635Y0182666D03*
D12*
X0178520Y0113591D02*
X0183126Y0113591D01*
X0178520Y0113591D02*
X0178520Y0118985D01*
X0183126Y0118985D01*
X0183126Y0113591D01*
X0183126Y0114102D02*
X0178520Y0114102D01*
X0178520Y0114613D02*
X0183126Y0114613D01*
X0183126Y0115124D02*
X0178520Y0115124D01*
X0178520Y0115635D02*
X0183126Y0115635D01*
X0183126Y0116146D02*
X0178520Y0116146D01*
X0178520Y0116657D02*
X0183126Y0116657D01*
X0183126Y0117168D02*
X0178520Y0117168D01*
X0178520Y0117679D02*
X0183126Y0117679D01*
X0183126Y0118190D02*
X0178520Y0118190D01*
X0178520Y0118701D02*
X0183126Y0118701D01*
X0186001Y0113591D02*
X0190607Y0113591D01*
X0186001Y0113591D02*
X0186001Y0118985D01*
X0190607Y0118985D01*
X0190607Y0113591D01*
X0190607Y0114102D02*
X0186001Y0114102D01*
X0186001Y0114613D02*
X0190607Y0114613D01*
X0190607Y0115124D02*
X0186001Y0115124D01*
X0186001Y0115635D02*
X0190607Y0115635D01*
X0190607Y0116146D02*
X0186001Y0116146D01*
X0186001Y0116657D02*
X0190607Y0116657D01*
X0190607Y0117168D02*
X0186001Y0117168D01*
X0186001Y0117679D02*
X0190607Y0117679D01*
X0190607Y0118190D02*
X0186001Y0118190D01*
X0186001Y0118701D02*
X0190607Y0118701D01*
X0190607Y0068277D02*
X0186001Y0068277D01*
X0190607Y0068277D02*
X0190607Y0062883D01*
X0186001Y0062883D01*
X0186001Y0068277D01*
X0186001Y0063394D02*
X0190607Y0063394D01*
X0190607Y0063905D02*
X0186001Y0063905D01*
X0186001Y0064416D02*
X0190607Y0064416D01*
X0190607Y0064927D02*
X0186001Y0064927D01*
X0186001Y0065438D02*
X0190607Y0065438D01*
X0190607Y0065949D02*
X0186001Y0065949D01*
X0186001Y0066460D02*
X0190607Y0066460D01*
X0190607Y0066971D02*
X0186001Y0066971D01*
X0186001Y0067482D02*
X0190607Y0067482D01*
X0190607Y0067993D02*
X0186001Y0067993D01*
X0183126Y0068277D02*
X0178520Y0068277D01*
X0183126Y0068277D02*
X0183126Y0062883D01*
X0178520Y0062883D01*
X0178520Y0068277D01*
X0178520Y0063394D02*
X0183126Y0063394D01*
X0183126Y0063905D02*
X0178520Y0063905D01*
X0178520Y0064416D02*
X0183126Y0064416D01*
X0183126Y0064927D02*
X0178520Y0064927D01*
X0178520Y0065438D02*
X0183126Y0065438D01*
X0183126Y0065949D02*
X0178520Y0065949D01*
X0178520Y0066460D02*
X0183126Y0066460D01*
X0183126Y0066971D02*
X0178520Y0066971D01*
X0178520Y0067482D02*
X0183126Y0067482D01*
X0183126Y0067993D02*
X0178520Y0067993D01*
X0083560Y0147332D02*
X0083560Y0151938D01*
X0083560Y0147332D02*
X0078166Y0147332D01*
X0078166Y0151938D01*
X0083560Y0151938D01*
X0083560Y0147843D02*
X0078166Y0147843D01*
X0078166Y0148354D02*
X0083560Y0148354D01*
X0083560Y0148865D02*
X0078166Y0148865D01*
X0078166Y0149376D02*
X0083560Y0149376D01*
X0083560Y0149887D02*
X0078166Y0149887D01*
X0078166Y0150398D02*
X0083560Y0150398D01*
X0083560Y0150909D02*
X0078166Y0150909D01*
X0078166Y0151420D02*
X0083560Y0151420D01*
X0083560Y0151931D02*
X0078166Y0151931D01*
X0083560Y0154812D02*
X0083560Y0159418D01*
X0083560Y0154812D02*
X0078166Y0154812D01*
X0078166Y0159418D01*
X0083560Y0159418D01*
X0083560Y0155323D02*
X0078166Y0155323D01*
X0078166Y0155834D02*
X0083560Y0155834D01*
X0083560Y0156345D02*
X0078166Y0156345D01*
X0078166Y0156856D02*
X0083560Y0156856D01*
X0083560Y0157367D02*
X0078166Y0157367D01*
X0078166Y0157878D02*
X0083560Y0157878D01*
X0083560Y0158389D02*
X0078166Y0158389D01*
X0078166Y0158900D02*
X0083560Y0158900D01*
X0083560Y0159411D02*
X0078166Y0159411D01*
X0073717Y0159418D02*
X0073717Y0154812D01*
X0068323Y0154812D01*
X0068323Y0159418D01*
X0073717Y0159418D01*
X0073717Y0155323D02*
X0068323Y0155323D01*
X0068323Y0155834D02*
X0073717Y0155834D01*
X0073717Y0156345D02*
X0068323Y0156345D01*
X0068323Y0156856D02*
X0073717Y0156856D01*
X0073717Y0157367D02*
X0068323Y0157367D01*
X0068323Y0157878D02*
X0073717Y0157878D01*
X0073717Y0158389D02*
X0068323Y0158389D01*
X0068323Y0158900D02*
X0073717Y0158900D01*
X0073717Y0159411D02*
X0068323Y0159411D01*
X0063875Y0159418D02*
X0063875Y0154812D01*
X0058481Y0154812D01*
X0058481Y0159418D01*
X0063875Y0159418D01*
X0063875Y0155323D02*
X0058481Y0155323D01*
X0058481Y0155834D02*
X0063875Y0155834D01*
X0063875Y0156345D02*
X0058481Y0156345D01*
X0058481Y0156856D02*
X0063875Y0156856D01*
X0063875Y0157367D02*
X0058481Y0157367D01*
X0058481Y0157878D02*
X0063875Y0157878D01*
X0063875Y0158389D02*
X0058481Y0158389D01*
X0058481Y0158900D02*
X0063875Y0158900D01*
X0063875Y0159411D02*
X0058481Y0159411D01*
X0063875Y0151938D02*
X0063875Y0147332D01*
X0058481Y0147332D01*
X0058481Y0151938D01*
X0063875Y0151938D01*
X0063875Y0147843D02*
X0058481Y0147843D01*
X0058481Y0148354D02*
X0063875Y0148354D01*
X0063875Y0148865D02*
X0058481Y0148865D01*
X0058481Y0149376D02*
X0063875Y0149376D01*
X0063875Y0149887D02*
X0058481Y0149887D01*
X0058481Y0150398D02*
X0063875Y0150398D01*
X0063875Y0150909D02*
X0058481Y0150909D01*
X0058481Y0151420D02*
X0063875Y0151420D01*
X0063875Y0151931D02*
X0058481Y0151931D01*
X0073717Y0151938D02*
X0073717Y0147332D01*
X0068323Y0147332D01*
X0068323Y0151938D01*
X0073717Y0151938D01*
X0073717Y0147843D02*
X0068323Y0147843D01*
X0068323Y0148354D02*
X0073717Y0148354D01*
X0073717Y0148865D02*
X0068323Y0148865D01*
X0068323Y0149376D02*
X0073717Y0149376D01*
X0073717Y0149887D02*
X0068323Y0149887D01*
X0068323Y0150398D02*
X0073717Y0150398D01*
X0073717Y0150909D02*
X0068323Y0150909D01*
X0068323Y0151420D02*
X0073717Y0151420D01*
X0073717Y0151931D02*
X0068323Y0151931D01*
D13*
X0071020Y0140395D02*
X0071020Y0138795D01*
X0061020Y0138795D02*
X0061020Y0140395D01*
X0081020Y0140395D02*
X0081020Y0138795D01*
X0098264Y0029214D02*
X0098264Y0027614D01*
X0108264Y0027614D02*
X0108264Y0029214D01*
X0118264Y0029214D02*
X0118264Y0027614D01*
X0128264Y0027614D02*
X0128264Y0029214D01*
X0138264Y0029214D02*
X0138264Y0027614D01*
D14*
X0168441Y0075993D02*
X0173757Y0075993D01*
X0168441Y0075993D02*
X0168441Y0083277D01*
X0173757Y0083277D01*
X0173757Y0075993D01*
X0173757Y0076583D02*
X0168441Y0076583D01*
X0168441Y0077173D02*
X0173757Y0077173D01*
X0173757Y0077763D02*
X0168441Y0077763D01*
X0168441Y0078353D02*
X0173757Y0078353D01*
X0173757Y0078943D02*
X0168441Y0078943D01*
X0168441Y0079533D02*
X0173757Y0079533D01*
X0173757Y0080123D02*
X0168441Y0080123D01*
X0168441Y0080713D02*
X0173757Y0080713D01*
X0173757Y0081303D02*
X0168441Y0081303D01*
X0168441Y0081893D02*
X0173757Y0081893D01*
X0173757Y0082483D02*
X0168441Y0082483D01*
X0168441Y0083073D02*
X0173757Y0083073D01*
X0177496Y0075993D02*
X0182812Y0075993D01*
X0177496Y0075993D02*
X0177496Y0083277D01*
X0182812Y0083277D01*
X0182812Y0075993D01*
X0182812Y0076583D02*
X0177496Y0076583D01*
X0177496Y0077173D02*
X0182812Y0077173D01*
X0182812Y0077763D02*
X0177496Y0077763D01*
X0177496Y0078353D02*
X0182812Y0078353D01*
X0182812Y0078943D02*
X0177496Y0078943D01*
X0177496Y0079533D02*
X0182812Y0079533D01*
X0182812Y0080123D02*
X0177496Y0080123D01*
X0177496Y0080713D02*
X0182812Y0080713D01*
X0182812Y0081303D02*
X0177496Y0081303D01*
X0177496Y0081893D02*
X0182812Y0081893D01*
X0182812Y0082483D02*
X0177496Y0082483D01*
X0177496Y0083073D02*
X0182812Y0083073D01*
X0186551Y0075993D02*
X0191867Y0075993D01*
X0186551Y0075993D02*
X0186551Y0083277D01*
X0191867Y0083277D01*
X0191867Y0075993D01*
X0191867Y0076583D02*
X0186551Y0076583D01*
X0186551Y0077173D02*
X0191867Y0077173D01*
X0191867Y0077763D02*
X0186551Y0077763D01*
X0186551Y0078353D02*
X0191867Y0078353D01*
X0191867Y0078943D02*
X0186551Y0078943D01*
X0186551Y0079533D02*
X0191867Y0079533D01*
X0191867Y0080123D02*
X0186551Y0080123D01*
X0186551Y0080713D02*
X0191867Y0080713D01*
X0191867Y0081303D02*
X0186551Y0081303D01*
X0186551Y0081893D02*
X0191867Y0081893D01*
X0191867Y0082483D02*
X0186551Y0082483D01*
X0186551Y0083073D02*
X0191867Y0083073D01*
D15*
X0187241Y0100894D02*
X0173067Y0100894D01*
X0173067Y0107982D01*
X0187241Y0107982D01*
X0187241Y0100894D01*
X0187241Y0101680D02*
X0173067Y0101680D01*
X0173067Y0102466D02*
X0187241Y0102466D01*
X0187241Y0103252D02*
X0173067Y0103252D01*
X0173067Y0104038D02*
X0187241Y0104038D01*
X0187241Y0104824D02*
X0173067Y0104824D01*
X0173067Y0105610D02*
X0187241Y0105610D01*
X0187241Y0106396D02*
X0173067Y0106396D01*
X0173067Y0107182D02*
X0187241Y0107182D01*
X0187241Y0107968D02*
X0173067Y0107968D01*
D16*
X0132753Y0053454D02*
X0128264Y0048965D01*
X0128264Y0028414D01*
X0098579Y0072666D02*
X0069052Y0072666D01*
X0072516Y0102666D02*
X0061020Y0114162D01*
X0061020Y0139595D01*
X0061178Y0139753D01*
X0061178Y0149635D01*
X0071020Y0149635D02*
X0071020Y0139595D01*
X0071020Y0119910D01*
X0078894Y0112036D01*
X0097005Y0112036D01*
X0097635Y0112666D01*
X0097635Y0122666D02*
X0084012Y0122666D01*
X0080863Y0125816D01*
X0080863Y0139438D01*
X0081020Y0139595D01*
X0080863Y0139753D01*
X0080863Y0149635D01*
X0072516Y0102666D02*
X0097635Y0102666D01*
D17*
X0113461Y0116485D02*
X0149642Y0152666D01*
X0157635Y0152666D01*
X0157635Y0132666D02*
X0144642Y0132666D01*
X0123461Y0111485D01*
X0123461Y0071485D01*
X0108461Y0056485D01*
X0108461Y0037430D01*
X0108264Y0028414D01*
X0118264Y0028414D02*
X0118264Y0056288D01*
X0133461Y0071485D01*
X0133461Y0106485D01*
X0139642Y0112666D01*
X0157635Y0112666D01*
X0113461Y0116485D02*
X0113461Y0076485D01*
X0098461Y0061485D01*
X0098461Y0056485D01*
X0098264Y0056288D01*
X0098264Y0028414D01*
D18*
X0049061Y0022676D02*
X0049061Y0212735D01*
X0195342Y0212735D01*
X0195342Y0087007D01*
X0194753Y0087596D01*
X0192880Y0088372D01*
X0185538Y0088372D01*
X0184682Y0088017D01*
X0183825Y0088372D01*
X0176483Y0088372D01*
X0174610Y0087596D01*
X0173177Y0086163D01*
X0172767Y0085172D01*
X0171775Y0085172D01*
X0171775Y0080311D01*
X0170423Y0080311D01*
X0170423Y0085172D01*
X0168192Y0085172D01*
X0167710Y0085042D01*
X0167278Y0084793D01*
X0166925Y0084440D01*
X0166675Y0084008D01*
X0166546Y0083526D01*
X0166546Y0080311D01*
X0170423Y0080311D01*
X0170423Y0078958D01*
X0171775Y0078958D01*
X0171775Y0074098D01*
X0172767Y0074098D01*
X0173177Y0073107D01*
X0174610Y0071673D01*
X0176483Y0070898D01*
X0181614Y0070898D01*
X0180945Y0069282D01*
X0180945Y0066059D01*
X0180344Y0066059D01*
X0180344Y0065100D01*
X0176664Y0065100D01*
X0176664Y0062638D01*
X0176791Y0062166D01*
X0177035Y0061743D01*
X0177381Y0061398D01*
X0177746Y0061187D01*
X0132214Y0061187D01*
X0137087Y0066059D01*
X0138887Y0067860D01*
X0139861Y0070212D01*
X0139861Y0103834D01*
X0142293Y0106266D01*
X0150142Y0106266D01*
X0149335Y0104317D01*
X0149335Y0101015D01*
X0150598Y0097965D01*
X0150897Y0097666D01*
X0150598Y0097368D01*
X0149335Y0094317D01*
X0149335Y0091015D01*
X0150598Y0087965D01*
X0150897Y0087666D01*
X0150598Y0087368D01*
X0149335Y0084317D01*
X0149335Y0081015D01*
X0150598Y0077965D01*
X0150897Y0077666D01*
X0150598Y0077368D01*
X0149335Y0074317D01*
X0149335Y0071015D01*
X0150598Y0067965D01*
X0152933Y0065630D01*
X0155984Y0064366D01*
X0159285Y0064366D01*
X0162336Y0065630D01*
X0164671Y0067965D01*
X0165934Y0071015D01*
X0165934Y0074317D01*
X0164671Y0077368D01*
X0164372Y0077666D01*
X0164671Y0077965D01*
X0165934Y0081015D01*
X0165934Y0084317D01*
X0164671Y0087368D01*
X0164372Y0087666D01*
X0164671Y0087965D01*
X0165934Y0091015D01*
X0165934Y0094317D01*
X0164671Y0097368D01*
X0164372Y0097666D01*
X0164671Y0097965D01*
X0165934Y0101015D01*
X0165934Y0104317D01*
X0164671Y0107368D01*
X0164372Y0107666D01*
X0164671Y0107965D01*
X0165934Y0111015D01*
X0165934Y0114317D01*
X0164671Y0117368D01*
X0164372Y0117666D01*
X0164671Y0117965D01*
X0165934Y0121015D01*
X0165934Y0124317D01*
X0164671Y0127368D01*
X0164372Y0127666D01*
X0164671Y0127965D01*
X0165934Y0131015D01*
X0165934Y0134317D01*
X0164671Y0137368D01*
X0164372Y0137666D01*
X0164671Y0137965D01*
X0165934Y0141015D01*
X0165934Y0144317D01*
X0164671Y0147368D01*
X0164372Y0147666D01*
X0164671Y0147965D01*
X0165934Y0151015D01*
X0165934Y0154317D01*
X0164671Y0157368D01*
X0164372Y0157666D01*
X0164671Y0157965D01*
X0165934Y0161015D01*
X0165934Y0164317D01*
X0164671Y0167368D01*
X0164372Y0167666D01*
X0164671Y0167965D01*
X0165934Y0171015D01*
X0165934Y0173098D01*
X0173523Y0165509D01*
X0173523Y0120133D01*
X0173464Y0119991D01*
X0173464Y0113175D01*
X0172034Y0113175D01*
X0170126Y0112384D01*
X0168665Y0110923D01*
X0167874Y0109014D01*
X0167874Y0099861D01*
X0168665Y0097952D01*
X0170126Y0096491D01*
X0172034Y0095701D01*
X0188274Y0095701D01*
X0190183Y0096491D01*
X0191644Y0097952D01*
X0192434Y0099861D01*
X0192434Y0109014D01*
X0191644Y0110923D01*
X0190831Y0111735D01*
X0190851Y0111735D01*
X0191323Y0111862D01*
X0191746Y0112106D01*
X0192092Y0112452D01*
X0192336Y0112875D01*
X0192463Y0113347D01*
X0192463Y0115809D01*
X0188783Y0115809D01*
X0188783Y0116768D01*
X0188183Y0116768D01*
X0188183Y0119991D01*
X0188123Y0120133D01*
X0188123Y0169984D01*
X0187012Y0172667D01*
X0172878Y0186801D01*
X0170825Y0188855D01*
X0168142Y0189966D01*
X0164123Y0189966D01*
X0163853Y0190235D01*
X0162089Y0190966D01*
X0153180Y0190966D01*
X0151416Y0190235D01*
X0150065Y0188885D01*
X0149335Y0187121D01*
X0149335Y0178211D01*
X0150065Y0176447D01*
X0150172Y0176340D01*
X0149335Y0174317D01*
X0149335Y0171015D01*
X0150598Y0167965D01*
X0150897Y0167666D01*
X0150598Y0167368D01*
X0149335Y0164317D01*
X0149335Y0161015D01*
X0150142Y0159066D01*
X0148369Y0159066D01*
X0146017Y0158092D01*
X0144217Y0156291D01*
X0108036Y0120110D01*
X0107061Y0117758D01*
X0107061Y0079136D01*
X0102407Y0074482D01*
X0102361Y0074624D01*
X0101996Y0075339D01*
X0101913Y0075454D01*
X0102336Y0075630D01*
X0104671Y0077965D01*
X0105934Y0081015D01*
X0105934Y0084317D01*
X0104671Y0087368D01*
X0104372Y0087666D01*
X0104671Y0087965D01*
X0105934Y0091015D01*
X0105934Y0094317D01*
X0104671Y0097368D01*
X0104372Y0097666D01*
X0104671Y0097965D01*
X0105934Y0101015D01*
X0105934Y0104317D01*
X0104671Y0107368D01*
X0104372Y0107666D01*
X0104671Y0107965D01*
X0105934Y0111015D01*
X0105934Y0114317D01*
X0104671Y0117368D01*
X0104372Y0117666D01*
X0104671Y0117965D01*
X0105934Y0121015D01*
X0105934Y0124317D01*
X0104671Y0127368D01*
X0104372Y0127666D01*
X0104671Y0127965D01*
X0105934Y0131015D01*
X0105934Y0134317D01*
X0104671Y0137368D01*
X0104372Y0137666D01*
X0104671Y0137965D01*
X0105934Y0141015D01*
X0105934Y0144317D01*
X0104671Y0147368D01*
X0104372Y0147666D01*
X0104671Y0147965D01*
X0105934Y0151015D01*
X0105934Y0154317D01*
X0104671Y0157368D01*
X0104372Y0157666D01*
X0104671Y0157965D01*
X0105934Y0161015D01*
X0105934Y0164317D01*
X0104671Y0167368D01*
X0104372Y0167666D01*
X0104671Y0167965D01*
X0105934Y0171015D01*
X0105934Y0174317D01*
X0104671Y0177368D01*
X0104372Y0177666D01*
X0104671Y0177965D01*
X0105934Y0181015D01*
X0105934Y0184317D01*
X0104671Y0187368D01*
X0102336Y0189703D01*
X0099285Y0190966D01*
X0095984Y0190966D01*
X0092933Y0189703D01*
X0090598Y0187368D01*
X0089335Y0184317D01*
X0089335Y0181015D01*
X0090598Y0177965D01*
X0090897Y0177666D01*
X0090598Y0177368D01*
X0089335Y0174317D01*
X0089335Y0171015D01*
X0090598Y0167965D01*
X0090897Y0167666D01*
X0090598Y0167368D01*
X0089335Y0164317D01*
X0089335Y0161015D01*
X0090598Y0157965D01*
X0090897Y0157666D01*
X0090598Y0157368D01*
X0089335Y0154317D01*
X0089335Y0151015D01*
X0090598Y0147965D01*
X0090897Y0147666D01*
X0090598Y0147368D01*
X0089335Y0144317D01*
X0089335Y0141015D01*
X0090598Y0137965D01*
X0090897Y0137666D01*
X0090598Y0137368D01*
X0089335Y0134317D01*
X0089335Y0131015D01*
X0089645Y0130266D01*
X0088463Y0130266D01*
X0088463Y0135858D01*
X0089020Y0137204D01*
X0089020Y0141987D01*
X0088463Y0143332D01*
X0088463Y0145957D01*
X0088616Y0146326D01*
X0088616Y0152943D01*
X0087846Y0154802D01*
X0086424Y0156224D01*
X0084565Y0156994D01*
X0082956Y0156994D01*
X0082375Y0157235D01*
X0081342Y0157235D01*
X0081342Y0157594D01*
X0085416Y0157594D01*
X0085416Y0159662D01*
X0085289Y0160134D01*
X0085045Y0160558D01*
X0084699Y0160903D01*
X0084276Y0161148D01*
X0083804Y0161274D01*
X0081342Y0161274D01*
X0081342Y0157595D01*
X0080383Y0157595D01*
X0080383Y0161274D01*
X0077922Y0161274D01*
X0077450Y0161148D01*
X0077026Y0160903D01*
X0076681Y0160558D01*
X0076437Y0160134D01*
X0076310Y0159662D01*
X0076310Y0157594D01*
X0080383Y0157594D01*
X0080383Y0157235D01*
X0079351Y0157235D01*
X0078769Y0156994D01*
X0077160Y0156994D01*
X0075942Y0156489D01*
X0074723Y0156994D01*
X0073114Y0156994D01*
X0072532Y0157235D01*
X0071500Y0157235D01*
X0071500Y0157594D01*
X0075573Y0157594D01*
X0075573Y0159662D01*
X0075447Y0160134D01*
X0075202Y0160558D01*
X0074857Y0160903D01*
X0074434Y0161148D01*
X0073962Y0161274D01*
X0071500Y0161274D01*
X0071500Y0157595D01*
X0070541Y0157595D01*
X0070541Y0161274D01*
X0068079Y0161274D01*
X0067607Y0161148D01*
X0067184Y0160903D01*
X0066838Y0160558D01*
X0066594Y0160134D01*
X0066468Y0159662D01*
X0066468Y0157594D01*
X0070541Y0157594D01*
X0070541Y0157235D01*
X0069509Y0157235D01*
X0068927Y0156994D01*
X0067318Y0156994D01*
X0066099Y0156489D01*
X0064880Y0156994D01*
X0063271Y0156994D01*
X0062690Y0157235D01*
X0061657Y0157235D01*
X0061657Y0157594D01*
X0065731Y0157594D01*
X0065731Y0159662D01*
X0065604Y0160134D01*
X0065360Y0160558D01*
X0065014Y0160903D01*
X0064591Y0161148D01*
X0064119Y0161274D01*
X0061657Y0161274D01*
X0061657Y0157595D01*
X0060698Y0157595D01*
X0060698Y0161274D01*
X0058237Y0161274D01*
X0057765Y0161148D01*
X0057341Y0160903D01*
X0056996Y0160558D01*
X0056752Y0160134D01*
X0056625Y0159662D01*
X0056625Y0157594D01*
X0060698Y0157594D01*
X0060698Y0157235D01*
X0059666Y0157235D01*
X0059084Y0156994D01*
X0057475Y0156994D01*
X0055617Y0156224D01*
X0054195Y0154802D01*
X0053425Y0152943D01*
X0053425Y0146326D01*
X0053578Y0145957D01*
X0053578Y0143332D01*
X0053020Y0141987D01*
X0053020Y0137204D01*
X0053420Y0136238D01*
X0053420Y0112650D01*
X0054577Y0109857D01*
X0056715Y0107719D01*
X0068211Y0096223D01*
X0071005Y0095066D01*
X0089645Y0095066D01*
X0089335Y0094317D01*
X0089335Y0091015D01*
X0090598Y0087965D01*
X0090897Y0087666D01*
X0090598Y0087368D01*
X0089335Y0084317D01*
X0089335Y0081015D01*
X0090598Y0077965D01*
X0092933Y0075630D01*
X0093356Y0075454D01*
X0093273Y0075339D01*
X0092908Y0074624D01*
X0092660Y0073860D01*
X0092535Y0073068D01*
X0092535Y0072850D01*
X0097450Y0072850D01*
X0097450Y0072482D01*
X0092535Y0072482D01*
X0092535Y0072265D01*
X0092660Y0071472D01*
X0092908Y0070708D01*
X0093273Y0069993D01*
X0093744Y0069344D01*
X0094312Y0068776D01*
X0094962Y0068304D01*
X0095677Y0067940D01*
X0095819Y0067894D01*
X0093036Y0065110D01*
X0092061Y0062758D01*
X0092061Y0058036D01*
X0091864Y0057561D01*
X0091864Y0034128D01*
X0091482Y0033746D01*
X0090264Y0030805D01*
X0090264Y0026023D01*
X0091482Y0023083D01*
X0091482Y0023084D02*
X0049061Y0023084D01*
X0049061Y0022676D02*
X0091889Y0022676D01*
X0091482Y0023083D01*
X0090820Y0024682D02*
X0049061Y0024682D01*
X0049061Y0026281D02*
X0090264Y0026281D01*
X0090264Y0027879D02*
X0049061Y0027879D01*
X0049061Y0029478D02*
X0090264Y0029478D01*
X0090377Y0031076D02*
X0066838Y0031076D01*
X0067278Y0031194D02*
X0064556Y0030465D01*
X0061737Y0030465D01*
X0059014Y0031194D01*
X0056573Y0032604D01*
X0054580Y0034597D01*
X0053170Y0037038D01*
X0052441Y0039761D01*
X0052441Y0042579D01*
X0053170Y0045302D01*
X0054580Y0047743D01*
X0056573Y0049737D01*
X0059014Y0051146D01*
X0061737Y0051876D01*
X0064556Y0051876D01*
X0067278Y0051146D01*
X0069720Y0049737D01*
X0071713Y0047743D01*
X0073122Y0045302D01*
X0073852Y0042579D01*
X0073852Y0039761D01*
X0073122Y0037038D01*
X0071713Y0034597D01*
X0069720Y0032604D01*
X0067278Y0031194D01*
X0069791Y0032675D02*
X0091039Y0032675D01*
X0091864Y0034273D02*
X0071389Y0034273D01*
X0072449Y0035872D02*
X0091864Y0035872D01*
X0091864Y0037470D02*
X0073238Y0037470D01*
X0073666Y0039069D02*
X0091864Y0039069D01*
X0091864Y0040667D02*
X0073852Y0040667D01*
X0073852Y0042266D02*
X0091864Y0042266D01*
X0091864Y0043864D02*
X0073508Y0043864D01*
X0073030Y0045463D02*
X0091864Y0045463D01*
X0091864Y0047061D02*
X0072107Y0047061D01*
X0070797Y0048660D02*
X0091864Y0048660D01*
X0091864Y0050258D02*
X0068816Y0050258D01*
X0064626Y0051857D02*
X0091864Y0051857D01*
X0091864Y0053455D02*
X0049061Y0053455D01*
X0049061Y0051857D02*
X0061667Y0051857D01*
X0057476Y0050258D02*
X0049061Y0050258D01*
X0049061Y0048660D02*
X0055496Y0048660D01*
X0054186Y0047061D02*
X0049061Y0047061D01*
X0049061Y0045463D02*
X0053263Y0045463D01*
X0052785Y0043864D02*
X0049061Y0043864D01*
X0049061Y0042266D02*
X0052441Y0042266D01*
X0052441Y0040667D02*
X0049061Y0040667D01*
X0049061Y0039069D02*
X0052626Y0039069D01*
X0053055Y0037470D02*
X0049061Y0037470D01*
X0049061Y0035872D02*
X0053844Y0035872D01*
X0054903Y0034273D02*
X0049061Y0034273D01*
X0049061Y0032675D02*
X0056502Y0032675D01*
X0059455Y0031076D02*
X0049061Y0031076D01*
X0049061Y0055054D02*
X0091864Y0055054D01*
X0091864Y0056652D02*
X0049061Y0056652D01*
X0049061Y0058251D02*
X0092061Y0058251D01*
X0092061Y0059849D02*
X0049061Y0059849D01*
X0049061Y0061448D02*
X0092061Y0061448D01*
X0092181Y0063046D02*
X0049061Y0063046D01*
X0049061Y0064645D02*
X0092843Y0064645D01*
X0094169Y0066243D02*
X0049061Y0066243D01*
X0049061Y0067842D02*
X0095767Y0067842D01*
X0093674Y0069440D02*
X0049061Y0069440D01*
X0049061Y0071039D02*
X0092801Y0071039D01*
X0092782Y0074236D02*
X0049061Y0074236D01*
X0049061Y0075834D02*
X0092728Y0075834D01*
X0091130Y0077433D02*
X0049061Y0077433D01*
X0049061Y0079031D02*
X0090156Y0079031D01*
X0089494Y0080630D02*
X0049061Y0080630D01*
X0049061Y0082228D02*
X0089335Y0082228D01*
X0089335Y0083827D02*
X0049061Y0083827D01*
X0049061Y0085425D02*
X0089794Y0085425D01*
X0090456Y0087024D02*
X0049061Y0087024D01*
X0049061Y0088623D02*
X0090326Y0088623D01*
X0089663Y0090221D02*
X0049061Y0090221D01*
X0049061Y0091820D02*
X0089335Y0091820D01*
X0089335Y0093418D02*
X0049061Y0093418D01*
X0049061Y0095017D02*
X0089624Y0095017D01*
X0104983Y0096615D02*
X0107061Y0096615D01*
X0107061Y0095017D02*
X0105645Y0095017D01*
X0105934Y0093418D02*
X0107061Y0093418D01*
X0107061Y0091820D02*
X0105934Y0091820D01*
X0105606Y0090221D02*
X0107061Y0090221D01*
X0107061Y0088623D02*
X0104943Y0088623D01*
X0104813Y0087024D02*
X0107061Y0087024D01*
X0107061Y0085425D02*
X0105475Y0085425D01*
X0105934Y0083827D02*
X0107061Y0083827D01*
X0107061Y0082228D02*
X0105934Y0082228D01*
X0105775Y0080630D02*
X0107061Y0080630D01*
X0106957Y0079031D02*
X0105113Y0079031D01*
X0105358Y0077433D02*
X0104139Y0077433D01*
X0103760Y0075834D02*
X0102541Y0075834D01*
X0100776Y0072850D02*
X0097819Y0072850D01*
X0097819Y0072482D01*
X0100407Y0072482D01*
X0100776Y0072850D01*
X0100563Y0072637D02*
X0097819Y0072637D01*
X0097450Y0072637D02*
X0049061Y0072637D01*
X0049061Y0096615D02*
X0067819Y0096615D01*
X0066221Y0098214D02*
X0049061Y0098214D01*
X0049061Y0099812D02*
X0064622Y0099812D01*
X0063024Y0101411D02*
X0049061Y0101411D01*
X0049061Y0103009D02*
X0061425Y0103009D01*
X0059827Y0104608D02*
X0049061Y0104608D01*
X0049061Y0106206D02*
X0058228Y0106206D01*
X0056630Y0107805D02*
X0049061Y0107805D01*
X0049061Y0109403D02*
X0055031Y0109403D01*
X0054103Y0111002D02*
X0049061Y0111002D01*
X0049061Y0112600D02*
X0053441Y0112600D01*
X0053420Y0114199D02*
X0049061Y0114199D01*
X0049061Y0115797D02*
X0053420Y0115797D01*
X0053420Y0117396D02*
X0049061Y0117396D01*
X0049061Y0118994D02*
X0053420Y0118994D01*
X0053420Y0120593D02*
X0049061Y0120593D01*
X0049061Y0122191D02*
X0053420Y0122191D01*
X0053420Y0123790D02*
X0049061Y0123790D01*
X0049061Y0125388D02*
X0053420Y0125388D01*
X0053420Y0126987D02*
X0049061Y0126987D01*
X0049061Y0128585D02*
X0053420Y0128585D01*
X0053420Y0130184D02*
X0049061Y0130184D01*
X0049061Y0131782D02*
X0053420Y0131782D01*
X0053420Y0133381D02*
X0049061Y0133381D01*
X0049061Y0134979D02*
X0053420Y0134979D01*
X0053280Y0136578D02*
X0049061Y0136578D01*
X0049061Y0138176D02*
X0053020Y0138176D01*
X0053020Y0139775D02*
X0049061Y0139775D01*
X0049061Y0141373D02*
X0053020Y0141373D01*
X0053428Y0142972D02*
X0049061Y0142972D01*
X0049061Y0144570D02*
X0053578Y0144570D01*
X0053490Y0146169D02*
X0049061Y0146169D01*
X0049061Y0147767D02*
X0053425Y0147767D01*
X0053425Y0149366D02*
X0049061Y0149366D01*
X0049061Y0150964D02*
X0053425Y0150964D01*
X0053425Y0152563D02*
X0049061Y0152563D01*
X0049061Y0154161D02*
X0053930Y0154161D01*
X0055153Y0155760D02*
X0049061Y0155760D01*
X0049061Y0157359D02*
X0060698Y0157359D01*
X0061657Y0157359D02*
X0070541Y0157359D01*
X0071500Y0157359D02*
X0080383Y0157359D01*
X0081342Y0157359D02*
X0090594Y0157359D01*
X0090187Y0158957D02*
X0085416Y0158957D01*
X0085046Y0160556D02*
X0089525Y0160556D01*
X0089335Y0162154D02*
X0049061Y0162154D01*
X0049061Y0160556D02*
X0056995Y0160556D01*
X0056625Y0158957D02*
X0049061Y0158957D01*
X0049061Y0163753D02*
X0089335Y0163753D01*
X0089763Y0165351D02*
X0049061Y0165351D01*
X0049061Y0166950D02*
X0090425Y0166950D01*
X0090356Y0168548D02*
X0049061Y0168548D01*
X0049061Y0170147D02*
X0089694Y0170147D01*
X0089335Y0171745D02*
X0049061Y0171745D01*
X0049061Y0173344D02*
X0089335Y0173344D01*
X0089593Y0174942D02*
X0049061Y0174942D01*
X0049061Y0176541D02*
X0090256Y0176541D01*
X0090526Y0178139D02*
X0049061Y0178139D01*
X0049061Y0179738D02*
X0089864Y0179738D01*
X0089335Y0181336D02*
X0049061Y0181336D01*
X0049061Y0182935D02*
X0089335Y0182935D01*
X0089424Y0184533D02*
X0049061Y0184533D01*
X0049061Y0186132D02*
X0090086Y0186132D01*
X0090961Y0187730D02*
X0049061Y0187730D01*
X0049061Y0189329D02*
X0057881Y0189329D01*
X0059014Y0188674D02*
X0056573Y0190084D01*
X0054580Y0192077D01*
X0053170Y0194518D01*
X0052441Y0197241D01*
X0052441Y0200060D01*
X0053170Y0202783D01*
X0054580Y0205224D01*
X0056573Y0207217D01*
X0059014Y0208626D01*
X0061737Y0209356D01*
X0064556Y0209356D01*
X0067278Y0208626D01*
X0069720Y0207217D01*
X0071713Y0205224D01*
X0073122Y0202783D01*
X0073852Y0200060D01*
X0073852Y0197241D01*
X0073122Y0194518D01*
X0071713Y0192077D01*
X0069720Y0190084D01*
X0067278Y0188674D01*
X0064556Y0187945D01*
X0061737Y0187945D01*
X0059014Y0188674D01*
X0055730Y0190927D02*
X0049061Y0190927D01*
X0049061Y0192526D02*
X0054321Y0192526D01*
X0053398Y0194124D02*
X0049061Y0194124D01*
X0049061Y0195723D02*
X0052848Y0195723D01*
X0052441Y0197321D02*
X0049061Y0197321D01*
X0049061Y0198920D02*
X0052441Y0198920D01*
X0052564Y0200518D02*
X0049061Y0200518D01*
X0049061Y0202117D02*
X0052992Y0202117D01*
X0053709Y0203715D02*
X0049061Y0203715D01*
X0049061Y0205314D02*
X0054670Y0205314D01*
X0056268Y0206912D02*
X0049061Y0206912D01*
X0049061Y0208511D02*
X0058814Y0208511D01*
X0067478Y0208511D02*
X0176924Y0208511D01*
X0177124Y0208626D02*
X0174683Y0207217D01*
X0172690Y0205224D01*
X0171281Y0202783D01*
X0170551Y0200060D01*
X0170551Y0197241D01*
X0171281Y0194518D01*
X0172690Y0192077D01*
X0174683Y0190084D01*
X0177124Y0188674D01*
X0179847Y0187945D01*
X0182666Y0187945D01*
X0185389Y0188674D01*
X0187830Y0190084D01*
X0189823Y0192077D01*
X0191232Y0194518D01*
X0191962Y0197241D01*
X0191962Y0200060D01*
X0191232Y0202783D01*
X0189823Y0205224D01*
X0187830Y0207217D01*
X0185389Y0208626D01*
X0182666Y0209356D01*
X0179847Y0209356D01*
X0177124Y0208626D01*
X0174379Y0206912D02*
X0070024Y0206912D01*
X0071623Y0205314D02*
X0172780Y0205314D01*
X0171819Y0203715D02*
X0072584Y0203715D01*
X0073301Y0202117D02*
X0171102Y0202117D01*
X0170674Y0200518D02*
X0073729Y0200518D01*
X0073852Y0198920D02*
X0170551Y0198920D01*
X0170551Y0197321D02*
X0073852Y0197321D01*
X0073445Y0195723D02*
X0170958Y0195723D01*
X0171508Y0194124D02*
X0072895Y0194124D01*
X0071972Y0192526D02*
X0172431Y0192526D01*
X0173840Y0190927D02*
X0162183Y0190927D01*
X0169681Y0189329D02*
X0175991Y0189329D01*
X0173548Y0186132D02*
X0195342Y0186132D01*
X0195342Y0187730D02*
X0171949Y0187730D01*
X0175146Y0184533D02*
X0195342Y0184533D01*
X0195342Y0182935D02*
X0176745Y0182935D01*
X0178343Y0181336D02*
X0195342Y0181336D01*
X0195342Y0179738D02*
X0179942Y0179738D01*
X0181540Y0178139D02*
X0195342Y0178139D01*
X0195342Y0176541D02*
X0183139Y0176541D01*
X0184737Y0174942D02*
X0195342Y0174942D01*
X0195342Y0173344D02*
X0186336Y0173344D01*
X0187394Y0171745D02*
X0195342Y0171745D01*
X0195342Y0170147D02*
X0188056Y0170147D01*
X0188123Y0168548D02*
X0195342Y0168548D01*
X0195342Y0166950D02*
X0188123Y0166950D01*
X0188123Y0165351D02*
X0195342Y0165351D01*
X0195342Y0163753D02*
X0188123Y0163753D01*
X0188123Y0162154D02*
X0195342Y0162154D01*
X0195342Y0160556D02*
X0188123Y0160556D01*
X0188123Y0158957D02*
X0195342Y0158957D01*
X0195342Y0157359D02*
X0188123Y0157359D01*
X0188123Y0155760D02*
X0195342Y0155760D01*
X0195342Y0154161D02*
X0188123Y0154161D01*
X0188123Y0152563D02*
X0195342Y0152563D01*
X0195342Y0150964D02*
X0188123Y0150964D01*
X0188123Y0149366D02*
X0195342Y0149366D01*
X0195342Y0147767D02*
X0188123Y0147767D01*
X0188123Y0146169D02*
X0195342Y0146169D01*
X0195342Y0144570D02*
X0188123Y0144570D01*
X0188123Y0142972D02*
X0195342Y0142972D01*
X0195342Y0141373D02*
X0188123Y0141373D01*
X0188123Y0139775D02*
X0195342Y0139775D01*
X0195342Y0138176D02*
X0188123Y0138176D01*
X0188123Y0136578D02*
X0195342Y0136578D01*
X0195342Y0134979D02*
X0188123Y0134979D01*
X0188123Y0133381D02*
X0195342Y0133381D01*
X0195342Y0131782D02*
X0188123Y0131782D01*
X0188123Y0130184D02*
X0195342Y0130184D01*
X0195342Y0128585D02*
X0188123Y0128585D01*
X0188123Y0126987D02*
X0195342Y0126987D01*
X0195342Y0125388D02*
X0188123Y0125388D01*
X0188123Y0123790D02*
X0195342Y0123790D01*
X0195342Y0122191D02*
X0188123Y0122191D01*
X0188783Y0120841D02*
X0190851Y0120841D01*
X0191323Y0120714D01*
X0191746Y0120470D01*
X0192092Y0120125D01*
X0192336Y0119701D01*
X0192463Y0119229D01*
X0192463Y0116768D01*
X0188783Y0116768D01*
X0188783Y0120841D01*
X0188783Y0120593D02*
X0188123Y0120593D01*
X0188183Y0118994D02*
X0188783Y0118994D01*
X0188783Y0117396D02*
X0188183Y0117396D01*
X0192178Y0112600D02*
X0195342Y0112600D01*
X0195342Y0111002D02*
X0191565Y0111002D01*
X0192273Y0109403D02*
X0195342Y0109403D01*
X0195342Y0107805D02*
X0192434Y0107805D01*
X0192434Y0106206D02*
X0195342Y0106206D01*
X0195342Y0104608D02*
X0192434Y0104608D01*
X0192434Y0103009D02*
X0195342Y0103009D01*
X0195342Y0101411D02*
X0192434Y0101411D01*
X0192414Y0099812D02*
X0195342Y0099812D01*
X0195342Y0098214D02*
X0191752Y0098214D01*
X0190306Y0096615D02*
X0195342Y0096615D01*
X0195342Y0095017D02*
X0165645Y0095017D01*
X0165934Y0093418D02*
X0195342Y0093418D01*
X0195342Y0091820D02*
X0165934Y0091820D01*
X0165606Y0090221D02*
X0195342Y0090221D01*
X0195342Y0088623D02*
X0164943Y0088623D01*
X0164813Y0087024D02*
X0174039Y0087024D01*
X0172872Y0085425D02*
X0165475Y0085425D01*
X0165934Y0083827D02*
X0166627Y0083827D01*
X0166546Y0082228D02*
X0165934Y0082228D01*
X0165775Y0080630D02*
X0166546Y0080630D01*
X0166546Y0078958D02*
X0166546Y0075743D01*
X0166675Y0075261D01*
X0166925Y0074829D01*
X0167278Y0074476D01*
X0167710Y0074227D01*
X0168192Y0074098D01*
X0170423Y0074098D01*
X0170423Y0078958D01*
X0166546Y0078958D01*
X0165113Y0079031D02*
X0170423Y0079031D01*
X0170423Y0077433D02*
X0171775Y0077433D01*
X0171775Y0075834D02*
X0170423Y0075834D01*
X0170423Y0074236D02*
X0171775Y0074236D01*
X0173646Y0072637D02*
X0165934Y0072637D01*
X0165934Y0071039D02*
X0176142Y0071039D01*
X0177381Y0069761D02*
X0177035Y0069416D01*
X0176791Y0068993D01*
X0176664Y0068521D01*
X0176664Y0066059D01*
X0180344Y0066059D01*
X0180344Y0070132D01*
X0178276Y0070132D01*
X0177804Y0070006D01*
X0177381Y0069761D01*
X0177060Y0069440D02*
X0165282Y0069440D01*
X0164548Y0067842D02*
X0176664Y0067842D01*
X0176664Y0066243D02*
X0162950Y0066243D01*
X0159958Y0064645D02*
X0176664Y0064645D01*
X0176664Y0063046D02*
X0134074Y0063046D01*
X0135672Y0064645D02*
X0155311Y0064645D01*
X0152319Y0066243D02*
X0137271Y0066243D01*
X0138869Y0067842D02*
X0150721Y0067842D01*
X0149987Y0069440D02*
X0139542Y0069440D01*
X0139861Y0071039D02*
X0149335Y0071039D01*
X0149335Y0072637D02*
X0139861Y0072637D01*
X0139861Y0074236D02*
X0149335Y0074236D01*
X0149963Y0075834D02*
X0139861Y0075834D01*
X0139861Y0077433D02*
X0150663Y0077433D01*
X0150156Y0079031D02*
X0139861Y0079031D01*
X0139861Y0080630D02*
X0149494Y0080630D01*
X0149335Y0082228D02*
X0139861Y0082228D01*
X0139861Y0083827D02*
X0149335Y0083827D01*
X0149794Y0085425D02*
X0139861Y0085425D01*
X0139861Y0087024D02*
X0150456Y0087024D01*
X0150326Y0088623D02*
X0139861Y0088623D01*
X0139861Y0090221D02*
X0149663Y0090221D01*
X0149335Y0091820D02*
X0139861Y0091820D01*
X0139861Y0093418D02*
X0149335Y0093418D01*
X0149624Y0095017D02*
X0139861Y0095017D01*
X0139861Y0096615D02*
X0150286Y0096615D01*
X0150495Y0098214D02*
X0139861Y0098214D01*
X0139861Y0099812D02*
X0149833Y0099812D01*
X0149335Y0101411D02*
X0139861Y0101411D01*
X0139861Y0103009D02*
X0149335Y0103009D01*
X0149455Y0104608D02*
X0140635Y0104608D01*
X0142233Y0106206D02*
X0150117Y0106206D01*
X0164511Y0107805D02*
X0167874Y0107805D01*
X0167874Y0106206D02*
X0165152Y0106206D01*
X0165814Y0104608D02*
X0167874Y0104608D01*
X0167874Y0103009D02*
X0165934Y0103009D01*
X0165934Y0101411D02*
X0167874Y0101411D01*
X0167894Y0099812D02*
X0165436Y0099812D01*
X0164774Y0098214D02*
X0168556Y0098214D01*
X0170002Y0096615D02*
X0164983Y0096615D01*
X0170423Y0083827D02*
X0171775Y0083827D01*
X0171775Y0082228D02*
X0170423Y0082228D01*
X0170423Y0080630D02*
X0171775Y0080630D01*
X0166546Y0077433D02*
X0164606Y0077433D01*
X0165306Y0075834D02*
X0166546Y0075834D01*
X0165934Y0074236D02*
X0167694Y0074236D01*
X0180344Y0069440D02*
X0181010Y0069440D01*
X0180945Y0067842D02*
X0180344Y0067842D01*
X0180344Y0066243D02*
X0180945Y0066243D01*
X0177331Y0061448D02*
X0132475Y0061448D01*
X0136634Y0046587D02*
X0135864Y0045817D01*
X0135864Y0033378D01*
X0136422Y0033663D01*
X0137140Y0033896D01*
X0137887Y0034014D01*
X0138064Y0034014D01*
X0138064Y0028614D01*
X0138464Y0028614D01*
X0138464Y0034014D01*
X0138642Y0034014D01*
X0139388Y0033896D01*
X0140107Y0033663D01*
X0140780Y0033319D01*
X0141391Y0032875D01*
X0141926Y0032341D01*
X0142370Y0031730D01*
X0142713Y0031057D01*
X0142946Y0030338D01*
X0143064Y0029592D01*
X0143064Y0028614D01*
X0138465Y0028614D01*
X0138465Y0028214D01*
X0143064Y0028214D01*
X0143064Y0027236D01*
X0142946Y0026490D01*
X0142713Y0025772D01*
X0142370Y0025098D01*
X0141926Y0024487D01*
X0141391Y0023953D01*
X0140780Y0023509D01*
X0140107Y0023166D01*
X0139388Y0022932D01*
X0138642Y0022814D01*
X0138464Y0022814D01*
X0138464Y0028214D01*
X0138064Y0028214D01*
X0138064Y0022814D01*
X0137887Y0022814D01*
X0137140Y0022932D01*
X0136422Y0023166D01*
X0135749Y0023509D01*
X0135345Y0023802D01*
X0135046Y0023083D01*
X0134640Y0022676D01*
X0195342Y0022676D01*
X0195342Y0058416D01*
X0194492Y0056366D01*
X0192439Y0054312D01*
X0187847Y0049720D01*
X0189823Y0047743D01*
X0191232Y0045302D01*
X0191962Y0042579D01*
X0191962Y0039761D01*
X0191232Y0037038D01*
X0189823Y0034597D01*
X0187830Y0032604D01*
X0185389Y0031194D01*
X0182666Y0030465D01*
X0179847Y0030465D01*
X0177124Y0031194D01*
X0174683Y0032604D01*
X0172690Y0034597D01*
X0171281Y0037038D01*
X0170551Y0039761D01*
X0170551Y0042579D01*
X0171281Y0045302D01*
X0172022Y0046587D01*
X0136634Y0046587D01*
X0135864Y0045463D02*
X0171373Y0045463D01*
X0170895Y0043864D02*
X0135864Y0043864D01*
X0135864Y0042266D02*
X0170551Y0042266D01*
X0170551Y0040667D02*
X0135864Y0040667D01*
X0135864Y0039069D02*
X0170736Y0039069D01*
X0171165Y0037470D02*
X0135864Y0037470D01*
X0135864Y0035872D02*
X0171954Y0035872D01*
X0173014Y0034273D02*
X0135864Y0034273D01*
X0138064Y0032675D02*
X0138464Y0032675D01*
X0138464Y0031076D02*
X0138064Y0031076D01*
X0138064Y0029478D02*
X0138464Y0029478D01*
X0138464Y0027879D02*
X0138064Y0027879D01*
X0138064Y0026281D02*
X0138464Y0026281D01*
X0138464Y0024682D02*
X0138064Y0024682D01*
X0138064Y0023084D02*
X0138464Y0023084D01*
X0139854Y0023084D02*
X0195342Y0023084D01*
X0195342Y0024682D02*
X0142067Y0024682D01*
X0142878Y0026281D02*
X0195342Y0026281D01*
X0195342Y0027879D02*
X0143064Y0027879D01*
X0143064Y0029478D02*
X0195342Y0029478D01*
X0195342Y0031076D02*
X0184948Y0031076D01*
X0187901Y0032675D02*
X0195342Y0032675D01*
X0195342Y0034273D02*
X0189499Y0034273D01*
X0190559Y0035872D02*
X0195342Y0035872D01*
X0195342Y0037470D02*
X0191348Y0037470D01*
X0191777Y0039069D02*
X0195342Y0039069D01*
X0195342Y0040667D02*
X0191962Y0040667D01*
X0191962Y0042266D02*
X0195342Y0042266D01*
X0195342Y0043864D02*
X0191618Y0043864D01*
X0191140Y0045463D02*
X0195342Y0045463D01*
X0195342Y0047061D02*
X0190217Y0047061D01*
X0188907Y0048660D02*
X0195342Y0048660D01*
X0195342Y0050258D02*
X0188385Y0050258D01*
X0189984Y0051857D02*
X0195342Y0051857D01*
X0195342Y0053455D02*
X0191582Y0053455D01*
X0193181Y0055054D02*
X0195342Y0055054D01*
X0195342Y0056652D02*
X0194611Y0056652D01*
X0195273Y0058251D02*
X0195342Y0058251D01*
X0174612Y0032675D02*
X0141592Y0032675D01*
X0142703Y0031076D02*
X0177565Y0031076D01*
X0136675Y0023084D02*
X0135047Y0023084D01*
X0195325Y0087024D02*
X0195342Y0087024D01*
X0195342Y0114199D02*
X0192463Y0114199D01*
X0192463Y0115797D02*
X0195342Y0115797D01*
X0195342Y0117396D02*
X0192463Y0117396D01*
X0192463Y0118994D02*
X0195342Y0118994D01*
X0195342Y0120593D02*
X0191534Y0120593D01*
X0173523Y0120593D02*
X0165760Y0120593D01*
X0165934Y0122191D02*
X0173523Y0122191D01*
X0173523Y0123790D02*
X0165934Y0123790D01*
X0165491Y0125388D02*
X0173523Y0125388D01*
X0173523Y0126987D02*
X0164829Y0126987D01*
X0164928Y0128585D02*
X0173523Y0128585D01*
X0173523Y0130184D02*
X0165590Y0130184D01*
X0165934Y0131782D02*
X0173523Y0131782D01*
X0173523Y0133381D02*
X0165934Y0133381D01*
X0165660Y0134979D02*
X0173523Y0134979D01*
X0173523Y0136578D02*
X0164998Y0136578D01*
X0164759Y0138176D02*
X0173523Y0138176D01*
X0173523Y0139775D02*
X0165421Y0139775D01*
X0165934Y0141373D02*
X0173523Y0141373D01*
X0173523Y0142972D02*
X0165934Y0142972D01*
X0165830Y0144570D02*
X0173523Y0144570D01*
X0173523Y0146169D02*
X0165167Y0146169D01*
X0164474Y0147767D02*
X0173523Y0147767D01*
X0173523Y0149366D02*
X0165251Y0149366D01*
X0165913Y0150964D02*
X0173523Y0150964D01*
X0173523Y0152563D02*
X0165934Y0152563D01*
X0165934Y0154161D02*
X0173523Y0154161D01*
X0173523Y0155760D02*
X0165337Y0155760D01*
X0164675Y0157359D02*
X0173523Y0157359D01*
X0173523Y0158957D02*
X0165082Y0158957D01*
X0165744Y0160556D02*
X0173523Y0160556D01*
X0173523Y0162154D02*
X0165934Y0162154D01*
X0165934Y0163753D02*
X0173523Y0163753D01*
X0173523Y0165351D02*
X0165506Y0165351D01*
X0164844Y0166950D02*
X0172082Y0166950D01*
X0170484Y0168548D02*
X0164913Y0168548D01*
X0165575Y0170147D02*
X0168885Y0170147D01*
X0167287Y0171745D02*
X0165934Y0171745D01*
X0150356Y0168548D02*
X0104913Y0168548D01*
X0104844Y0166950D02*
X0150425Y0166950D01*
X0149763Y0165351D02*
X0105506Y0165351D01*
X0105934Y0163753D02*
X0149335Y0163753D01*
X0149335Y0162154D02*
X0105934Y0162154D01*
X0105744Y0160556D02*
X0149525Y0160556D01*
X0148106Y0158957D02*
X0105082Y0158957D01*
X0104675Y0157359D02*
X0145284Y0157359D01*
X0143685Y0155760D02*
X0105337Y0155760D01*
X0105934Y0154161D02*
X0142087Y0154161D01*
X0140488Y0152563D02*
X0105934Y0152563D01*
X0105913Y0150964D02*
X0138890Y0150964D01*
X0137291Y0149366D02*
X0105251Y0149366D01*
X0104474Y0147767D02*
X0135693Y0147767D01*
X0134094Y0146169D02*
X0105167Y0146169D01*
X0105830Y0144570D02*
X0132496Y0144570D01*
X0130897Y0142972D02*
X0105934Y0142972D01*
X0105934Y0141373D02*
X0129299Y0141373D01*
X0127700Y0139775D02*
X0105421Y0139775D01*
X0104759Y0138176D02*
X0126102Y0138176D01*
X0124503Y0136578D02*
X0104998Y0136578D01*
X0105660Y0134979D02*
X0122905Y0134979D01*
X0121306Y0133381D02*
X0105934Y0133381D01*
X0105934Y0131782D02*
X0119708Y0131782D01*
X0118109Y0130184D02*
X0105590Y0130184D01*
X0104928Y0128585D02*
X0116511Y0128585D01*
X0114912Y0126987D02*
X0104829Y0126987D01*
X0105491Y0125388D02*
X0113314Y0125388D01*
X0111715Y0123790D02*
X0105934Y0123790D01*
X0105934Y0122191D02*
X0110117Y0122191D01*
X0108518Y0120593D02*
X0105760Y0120593D01*
X0105097Y0118994D02*
X0107573Y0118994D01*
X0107061Y0117396D02*
X0104643Y0117396D01*
X0105321Y0115797D02*
X0107061Y0115797D01*
X0107061Y0114199D02*
X0105934Y0114199D01*
X0105934Y0112600D02*
X0107061Y0112600D01*
X0107061Y0111002D02*
X0105929Y0111002D01*
X0105267Y0109403D02*
X0107061Y0109403D01*
X0107061Y0107805D02*
X0104511Y0107805D01*
X0105152Y0106206D02*
X0107061Y0106206D01*
X0107061Y0104608D02*
X0105814Y0104608D01*
X0105934Y0103009D02*
X0107061Y0103009D01*
X0107061Y0101411D02*
X0105934Y0101411D01*
X0105436Y0099812D02*
X0107061Y0099812D01*
X0107061Y0098214D02*
X0104774Y0098214D01*
X0089335Y0131782D02*
X0088463Y0131782D01*
X0088463Y0133381D02*
X0089335Y0133381D01*
X0089609Y0134979D02*
X0088463Y0134979D01*
X0088761Y0136578D02*
X0090271Y0136578D01*
X0090510Y0138176D02*
X0089020Y0138176D01*
X0089020Y0139775D02*
X0089848Y0139775D01*
X0089335Y0141373D02*
X0089020Y0141373D01*
X0089335Y0142972D02*
X0088612Y0142972D01*
X0088463Y0144570D02*
X0089439Y0144570D01*
X0090102Y0146169D02*
X0088551Y0146169D01*
X0088616Y0147767D02*
X0090795Y0147767D01*
X0090018Y0149366D02*
X0088616Y0149366D01*
X0088616Y0150964D02*
X0089355Y0150964D01*
X0089335Y0152563D02*
X0088616Y0152563D01*
X0088111Y0154161D02*
X0089335Y0154161D01*
X0089932Y0155760D02*
X0086888Y0155760D01*
X0081342Y0158957D02*
X0080383Y0158957D01*
X0080383Y0160556D02*
X0081342Y0160556D01*
X0076680Y0160556D02*
X0075204Y0160556D01*
X0075573Y0158957D02*
X0076310Y0158957D01*
X0071500Y0158957D02*
X0070541Y0158957D01*
X0070541Y0160556D02*
X0071500Y0160556D01*
X0066837Y0160556D02*
X0065361Y0160556D01*
X0065731Y0158957D02*
X0066468Y0158957D01*
X0061657Y0158957D02*
X0060698Y0158957D01*
X0060698Y0160556D02*
X0061657Y0160556D01*
X0068412Y0189329D02*
X0092559Y0189329D01*
X0095890Y0190927D02*
X0070563Y0190927D01*
X0049061Y0210109D02*
X0195342Y0210109D01*
X0195342Y0208511D02*
X0185589Y0208511D01*
X0188134Y0206912D02*
X0195342Y0206912D01*
X0195342Y0205314D02*
X0189733Y0205314D01*
X0190694Y0203715D02*
X0195342Y0203715D01*
X0195342Y0202117D02*
X0191411Y0202117D01*
X0191839Y0200518D02*
X0195342Y0200518D01*
X0195342Y0198920D02*
X0191962Y0198920D01*
X0191962Y0197321D02*
X0195342Y0197321D01*
X0195342Y0195723D02*
X0191555Y0195723D01*
X0191005Y0194124D02*
X0195342Y0194124D01*
X0195342Y0192526D02*
X0190082Y0192526D01*
X0188673Y0190927D02*
X0195342Y0190927D01*
X0195342Y0189329D02*
X0186522Y0189329D01*
X0195342Y0211708D02*
X0049061Y0211708D01*
X0099379Y0190927D02*
X0153086Y0190927D01*
X0150509Y0189329D02*
X0102710Y0189329D01*
X0104308Y0187730D02*
X0149587Y0187730D01*
X0149335Y0186132D02*
X0105183Y0186132D01*
X0105845Y0184533D02*
X0149335Y0184533D01*
X0149335Y0182935D02*
X0105934Y0182935D01*
X0105934Y0181336D02*
X0149335Y0181336D01*
X0149335Y0179738D02*
X0105405Y0179738D01*
X0104743Y0178139D02*
X0149364Y0178139D01*
X0150027Y0176541D02*
X0105013Y0176541D01*
X0105676Y0174942D02*
X0149593Y0174942D01*
X0149335Y0173344D02*
X0105934Y0173344D01*
X0105934Y0171745D02*
X0149335Y0171745D01*
X0149694Y0170147D02*
X0105575Y0170147D01*
X0165097Y0118994D02*
X0173464Y0118994D01*
X0173464Y0117396D02*
X0164643Y0117396D01*
X0165321Y0115797D02*
X0173464Y0115797D01*
X0173464Y0114199D02*
X0165934Y0114199D01*
X0165934Y0112600D02*
X0170647Y0112600D01*
X0168743Y0111002D02*
X0165929Y0111002D01*
X0165267Y0109403D02*
X0168035Y0109403D01*
D19*
X0180154Y0104438D02*
X0180823Y0105107D01*
X0180823Y0116288D01*
X0180823Y0168532D01*
X0166690Y0182666D01*
X0157635Y0182666D01*
X0189209Y0079635D02*
X0189209Y0066485D01*
X0188304Y0065580D01*
X0188304Y0060501D01*
X0181690Y0053887D01*
X0133186Y0053887D01*
X0132753Y0053454D01*
D20*
X0157871Y0182430D02*
X0157635Y0182666D01*
M02*
