%
M48
M72
T01C0.0354
T02C0.0394
T03C0.0400
T04C0.1181
%
T01
X15763Y18267
T02
X15763Y17267
X15763Y16267
X15763Y15267
X15763Y14267
X15763Y13267
X15763Y12267
X15763Y11267
X15763Y10267
X15763Y9267
X15763Y8267
X15763Y7267
X9763Y7267
X9763Y8267
X9763Y9267
X9763Y10267
X9763Y11267
X9763Y12267
X9763Y13267
X9763Y14267
X9763Y15267
X9763Y16267
X9763Y17267
X9763Y18267
T03
X8102Y13960
X7102Y13960
X6102Y13960
X9826Y2841
X10826Y2841
X11826Y2841
X12826Y2841
X13826Y2841
T04
X6315Y4117
X18126Y4117
X18126Y19865
X6315Y19865
M30
