G75*
%MOIN*%
%OFA0B0*%
%FSLAX25Y25*%
%IPPOS*%
%LPD*%
%AMOC8*
5,1,8,0,0,1.08239X$1,22.5*
%
%ADD10C,0.00600*%
%ADD11C,0.00512*%
%ADD12C,0.00400*%
%ADD13C,0.00500*%
%ADD14C,0.00800*%
D10*
X0046276Y0061891D02*
X0051613Y0061891D01*
X0052681Y0062958D01*
X0052681Y0065093D01*
X0051613Y0066161D01*
X0046276Y0066161D01*
X0048411Y0068336D02*
X0048411Y0071539D01*
X0049478Y0072606D01*
X0052681Y0072606D01*
X0052681Y0074782D02*
X0052681Y0076917D01*
X0052681Y0075849D02*
X0048411Y0075849D01*
X0048411Y0074782D01*
X0046276Y0075849D02*
X0045208Y0075849D01*
X0048411Y0079079D02*
X0052681Y0081214D01*
X0048411Y0083349D01*
X0049478Y0085524D02*
X0048411Y0086592D01*
X0048411Y0088727D01*
X0049478Y0089794D01*
X0050546Y0089794D01*
X0050546Y0085524D01*
X0051613Y0085524D02*
X0049478Y0085524D01*
X0051613Y0085524D02*
X0052681Y0086592D01*
X0052681Y0088727D01*
X0052681Y0091970D02*
X0048411Y0091970D01*
X0048411Y0094105D02*
X0048411Y0095172D01*
X0048411Y0094105D02*
X0050546Y0091970D01*
X0049478Y0097341D02*
X0048411Y0098408D01*
X0048411Y0101611D01*
X0048411Y0103786D02*
X0048411Y0104854D01*
X0052681Y0104854D01*
X0052681Y0103786D02*
X0052681Y0105922D01*
X0051613Y0108083D02*
X0049478Y0108083D01*
X0048411Y0109151D01*
X0048411Y0112354D01*
X0046276Y0112354D02*
X0052681Y0112354D01*
X0052681Y0109151D01*
X0051613Y0108083D01*
X0051613Y0114529D02*
X0050546Y0115596D01*
X0050546Y0118799D01*
X0049478Y0118799D02*
X0052681Y0118799D01*
X0052681Y0115596D01*
X0051613Y0114529D01*
X0048411Y0115596D02*
X0048411Y0117732D01*
X0049478Y0118799D01*
X0049478Y0120974D02*
X0048411Y0122042D01*
X0048411Y0125245D01*
X0046276Y0125245D02*
X0052681Y0125245D01*
X0052681Y0122042D01*
X0051613Y0120974D01*
X0049478Y0120974D01*
X0049478Y0133865D02*
X0048411Y0134933D01*
X0048411Y0138136D01*
X0046276Y0138136D02*
X0052681Y0138136D01*
X0052681Y0134933D01*
X0051613Y0133865D01*
X0049478Y0133865D01*
X0049478Y0140311D02*
X0048411Y0141378D01*
X0048411Y0143514D01*
X0049478Y0144581D01*
X0050546Y0144581D01*
X0050546Y0140311D01*
X0051613Y0140311D02*
X0049478Y0140311D01*
X0051613Y0140311D02*
X0052681Y0141378D01*
X0052681Y0143514D01*
X0056020Y0142095D02*
X0056020Y0137095D01*
X0058520Y0134595D01*
X0063520Y0134595D01*
X0066020Y0137095D01*
X0068520Y0134595D01*
X0073520Y0134595D01*
X0076020Y0137095D01*
X0078520Y0134595D01*
X0083520Y0134595D01*
X0086020Y0137095D01*
X0086020Y0142095D01*
X0083520Y0144595D01*
X0078520Y0144595D01*
X0076020Y0142095D01*
X0076020Y0137095D01*
X0076020Y0142095D02*
X0073520Y0144595D01*
X0068520Y0144595D01*
X0066020Y0142095D01*
X0066020Y0137095D01*
X0066020Y0142095D02*
X0063520Y0144595D01*
X0058520Y0144595D01*
X0056020Y0142095D01*
X0051613Y0153202D02*
X0047343Y0153202D01*
X0046276Y0154269D01*
X0046276Y0156405D01*
X0047343Y0157472D01*
X0046276Y0160715D02*
X0045208Y0162850D01*
X0048411Y0162850D02*
X0048411Y0160715D01*
X0050546Y0160715D02*
X0050546Y0163918D01*
X0049478Y0163918D02*
X0052681Y0163918D01*
X0052681Y0160715D01*
X0051613Y0159647D01*
X0050546Y0160715D01*
X0048411Y0162850D02*
X0049478Y0163918D01*
X0049478Y0166093D02*
X0048411Y0167160D01*
X0048411Y0170363D01*
X0046276Y0170363D02*
X0052681Y0170363D01*
X0052681Y0167160D01*
X0051613Y0166093D01*
X0049478Y0166093D01*
X0048411Y0172538D02*
X0048411Y0173606D01*
X0052681Y0173606D01*
X0052681Y0172538D02*
X0052681Y0174674D01*
X0052681Y0176835D02*
X0052681Y0181106D01*
X0048411Y0181106D02*
X0048411Y0176835D01*
X0046276Y0173606D02*
X0045208Y0173606D01*
X0052681Y0176835D02*
X0048411Y0181106D01*
X0051613Y0157472D02*
X0052681Y0156405D01*
X0052681Y0154269D01*
X0051613Y0153202D01*
X0046276Y0104854D02*
X0045208Y0104854D01*
X0050546Y0100544D02*
X0050546Y0098408D01*
X0049478Y0097341D01*
X0052681Y0097341D02*
X0052681Y0100544D01*
X0051613Y0101611D01*
X0050546Y0100544D01*
X0052681Y0068336D02*
X0048411Y0068336D01*
X0010033Y0106598D02*
X0008966Y0105530D01*
X0010033Y0106598D02*
X0010033Y0108733D01*
X0008966Y0109801D01*
X0006831Y0109801D01*
X0005763Y0108733D01*
X0005763Y0107666D01*
X0006831Y0105530D01*
X0003628Y0105530D01*
X0003628Y0109801D01*
X0005763Y0111976D02*
X0003628Y0114111D01*
X0010033Y0114111D01*
X0010033Y0111976D02*
X0010033Y0116246D01*
X0010033Y0118421D02*
X0010033Y0119489D01*
X0008966Y0119489D01*
X0008966Y0118421D01*
X0010033Y0118421D01*
X0010033Y0121644D02*
X0010033Y0125914D01*
X0010033Y0123779D02*
X0003628Y0123779D01*
X0005763Y0121644D01*
X0004695Y0128090D02*
X0003628Y0129157D01*
X0003628Y0131292D01*
X0004695Y0132360D01*
X0005763Y0132360D01*
X0010033Y0128090D01*
X0010033Y0132360D01*
X0095764Y0033414D02*
X0093264Y0030914D01*
X0093264Y0025914D01*
X0095764Y0023414D01*
X0100764Y0023414D01*
X0103264Y0025914D01*
X0105764Y0023414D01*
X0110764Y0023414D01*
X0113264Y0025914D01*
X0113264Y0030914D01*
X0110764Y0033414D01*
X0105764Y0033414D01*
X0103264Y0030914D01*
X0103264Y0025914D01*
X0103264Y0030914D02*
X0100764Y0033414D01*
X0095764Y0033414D01*
X0096283Y0035013D02*
X0100554Y0035013D01*
X0102689Y0037149D01*
X0100554Y0039284D01*
X0096283Y0039284D01*
X0097351Y0041459D02*
X0101621Y0041459D01*
X0102689Y0042526D01*
X0102689Y0044662D01*
X0101621Y0045729D01*
X0097351Y0045729D01*
X0096283Y0044662D01*
X0096283Y0042526D01*
X0097351Y0041459D01*
X0096283Y0047904D02*
X0101621Y0047904D01*
X0102689Y0048972D01*
X0102689Y0051107D01*
X0101621Y0052175D01*
X0096283Y0052175D01*
X0096283Y0054350D02*
X0096283Y0058620D01*
X0096283Y0056485D02*
X0102689Y0056485D01*
X0105102Y0056485D02*
X0111508Y0056485D01*
X0110440Y0052175D02*
X0105102Y0052175D01*
X0105102Y0054350D02*
X0105102Y0058620D01*
X0107237Y0060795D02*
X0110440Y0060795D01*
X0111508Y0061863D01*
X0111508Y0065066D01*
X0112575Y0065066D02*
X0113643Y0063998D01*
X0113643Y0062931D01*
X0112575Y0065066D02*
X0107237Y0065066D01*
X0102689Y0065066D02*
X0098419Y0060795D01*
X0102689Y0060795D02*
X0098419Y0065066D01*
X0110440Y0052175D02*
X0111508Y0051107D01*
X0111508Y0048972D01*
X0110440Y0047904D01*
X0105102Y0047904D01*
X0106170Y0045729D02*
X0105102Y0044662D01*
X0105102Y0042526D01*
X0106170Y0041459D01*
X0110440Y0041459D01*
X0111508Y0042526D01*
X0111508Y0044662D01*
X0110440Y0045729D01*
X0106170Y0045729D01*
X0105102Y0039284D02*
X0109373Y0039284D01*
X0111508Y0037149D01*
X0109373Y0035013D01*
X0105102Y0035013D01*
X0113264Y0030914D02*
X0115764Y0033414D01*
X0120764Y0033414D01*
X0123264Y0030914D01*
X0125764Y0033414D01*
X0130764Y0033414D01*
X0133264Y0030914D01*
X0135764Y0033414D01*
X0140764Y0033414D01*
X0143264Y0030914D01*
X0143264Y0025914D01*
X0140764Y0023414D01*
X0135764Y0023414D01*
X0133264Y0025914D01*
X0130764Y0023414D01*
X0125764Y0023414D01*
X0123264Y0025914D01*
X0120764Y0023414D01*
X0115764Y0023414D01*
X0113264Y0025914D01*
X0116126Y0035013D02*
X0120396Y0035013D01*
X0122531Y0037149D01*
X0120396Y0039284D01*
X0116126Y0039284D01*
X0117193Y0041459D02*
X0116126Y0042526D01*
X0116126Y0044662D01*
X0117193Y0045729D01*
X0121464Y0045729D01*
X0122531Y0044662D01*
X0122531Y0042526D01*
X0121464Y0041459D01*
X0117193Y0041459D01*
X0116126Y0047904D02*
X0121464Y0047904D01*
X0122531Y0048972D01*
X0122531Y0051107D01*
X0121464Y0052175D01*
X0116126Y0052175D01*
X0116126Y0054350D02*
X0116126Y0058620D01*
X0116126Y0056485D02*
X0122531Y0056485D01*
X0122531Y0060795D02*
X0122531Y0065066D01*
X0118261Y0065066D02*
X0122531Y0060795D01*
X0118261Y0060795D02*
X0118261Y0065066D01*
X0124945Y0050026D02*
X0131350Y0050026D01*
X0124945Y0045756D01*
X0131350Y0045756D01*
X0131350Y0043594D02*
X0131350Y0041459D01*
X0131350Y0042526D02*
X0124945Y0042526D01*
X0124945Y0041459D02*
X0124945Y0043594D01*
X0124945Y0039284D02*
X0129215Y0039284D01*
X0131350Y0037149D01*
X0129215Y0035013D01*
X0124945Y0035013D01*
X0123264Y0030914D02*
X0123264Y0025914D01*
X0133264Y0025914D02*
X0133264Y0030914D01*
X0137036Y0035013D02*
X0135968Y0036081D01*
X0135968Y0038216D01*
X0137036Y0039284D01*
X0139171Y0039284D02*
X0139171Y0037149D01*
X0139171Y0039284D02*
X0141306Y0039284D01*
X0142374Y0038216D01*
X0142374Y0036081D01*
X0141306Y0035013D01*
X0137036Y0035013D01*
X0135968Y0041459D02*
X0142374Y0045729D01*
X0135968Y0045729D01*
X0135968Y0047904D02*
X0135968Y0051107D01*
X0137036Y0052175D01*
X0141306Y0052175D01*
X0142374Y0051107D01*
X0142374Y0047904D01*
X0135968Y0047904D01*
X0135968Y0041459D02*
X0142374Y0041459D01*
X0134016Y0010553D02*
X0129746Y0010553D01*
X0129746Y0004147D01*
X0134016Y0004147D01*
X0136191Y0004147D02*
X0139394Y0004147D01*
X0140461Y0005215D01*
X0139394Y0006282D01*
X0137259Y0006282D01*
X0136191Y0007350D01*
X0137259Y0008418D01*
X0140461Y0008418D01*
X0142637Y0007350D02*
X0142637Y0005215D01*
X0143704Y0004147D01*
X0146907Y0004147D01*
X0149082Y0005215D02*
X0150150Y0006282D01*
X0153352Y0006282D01*
X0153352Y0007350D02*
X0153352Y0004147D01*
X0150150Y0004147D01*
X0149082Y0005215D01*
X0150150Y0008418D02*
X0152285Y0008418D01*
X0153352Y0007350D01*
X0155528Y0004147D02*
X0157663Y0004147D01*
X0156595Y0004147D02*
X0156595Y0010553D01*
X0155528Y0010553D01*
X0160892Y0008418D02*
X0163027Y0008418D01*
X0164095Y0007350D01*
X0164095Y0004147D01*
X0160892Y0004147D01*
X0159825Y0005215D01*
X0160892Y0006282D01*
X0164095Y0006282D01*
X0172716Y0005215D02*
X0173783Y0004147D01*
X0175918Y0004147D01*
X0176986Y0005215D01*
X0176986Y0006282D01*
X0175918Y0007350D01*
X0174851Y0007350D01*
X0175918Y0007350D02*
X0176986Y0008418D01*
X0176986Y0009485D01*
X0175918Y0010553D01*
X0173783Y0010553D01*
X0172716Y0009485D01*
X0185607Y0008418D02*
X0185607Y0007350D01*
X0186674Y0007350D01*
X0186674Y0008418D01*
X0185607Y0008418D01*
X0185607Y0005215D02*
X0185607Y0004147D01*
X0186674Y0004147D01*
X0186674Y0005215D01*
X0185607Y0005215D01*
X0195275Y0004147D02*
X0199545Y0004147D01*
X0197410Y0004147D02*
X0197410Y0010553D01*
X0195275Y0008418D01*
X0146907Y0008418D02*
X0143704Y0008418D01*
X0142637Y0007350D01*
X0131881Y0007350D02*
X0129746Y0007350D01*
X0126668Y0251133D02*
X0124532Y0251133D01*
X0123465Y0252201D01*
X0127735Y0256471D01*
X0127735Y0252201D01*
X0126668Y0251133D01*
X0123465Y0252201D02*
X0123465Y0256471D01*
X0124532Y0257539D01*
X0126668Y0257539D01*
X0127735Y0256471D01*
X0121290Y0254336D02*
X0117019Y0254336D01*
X0120222Y0257539D01*
X0120222Y0251133D01*
D11*
X0043461Y0017076D02*
X0004918Y0017076D01*
X0012595Y0017331D02*
X0013619Y0027312D01*
X0013852Y0027312D02*
X0012595Y0017331D01*
X0011572Y0027312D01*
X0011338Y0027312D02*
X0013852Y0027312D01*
X0013107Y0027312D02*
X0012595Y0017331D01*
X0012083Y0027312D01*
X0011338Y0027312D02*
X0012595Y0017331D01*
X0012595Y0218080D01*
X0013619Y0208099D01*
X0013852Y0208099D02*
X0012595Y0218080D01*
X0011572Y0208099D01*
X0011338Y0208099D02*
X0013852Y0208099D01*
X0013107Y0208099D02*
X0012595Y0218080D01*
X0012083Y0208099D01*
X0011338Y0208099D02*
X0012595Y0218080D01*
X0004918Y0218335D02*
X0043461Y0218335D01*
X0043461Y0256249D01*
X0043717Y0248572D02*
X0053698Y0247548D01*
X0053698Y0247315D02*
X0043717Y0248572D01*
X0053698Y0249595D01*
X0053698Y0249829D02*
X0053698Y0247315D01*
X0053698Y0248060D02*
X0043717Y0248572D01*
X0053698Y0249083D01*
X0053698Y0249829D02*
X0043717Y0248572D01*
X0200686Y0248572D01*
X0190705Y0247548D01*
X0190705Y0247315D02*
X0200686Y0248572D01*
X0190705Y0249595D01*
X0190705Y0249829D02*
X0190705Y0247315D01*
X0190705Y0248060D02*
X0200686Y0248572D01*
X0190705Y0249083D01*
X0190705Y0249829D02*
X0200686Y0248572D01*
X0200942Y0256249D02*
X0200942Y0218335D01*
D12*
X0191079Y0126092D02*
X0189544Y0126092D01*
X0188777Y0125325D01*
X0187242Y0125325D02*
X0186475Y0126092D01*
X0184940Y0126092D01*
X0184173Y0125325D01*
X0184173Y0122255D01*
X0184940Y0121488D01*
X0186475Y0121488D01*
X0187242Y0122255D01*
X0188777Y0121488D02*
X0191846Y0124557D01*
X0191846Y0125325D01*
X0191079Y0126092D01*
X0191846Y0121488D02*
X0188777Y0121488D01*
X0179562Y0094835D02*
X0179562Y0090231D01*
X0178027Y0090231D02*
X0181097Y0090231D01*
X0178027Y0093301D02*
X0179562Y0094835D01*
X0176493Y0094068D02*
X0175725Y0094835D01*
X0174191Y0094835D01*
X0173423Y0094068D01*
X0173423Y0090999D01*
X0174191Y0090231D01*
X0175725Y0090231D01*
X0176493Y0090999D01*
X0171889Y0090231D02*
X0170354Y0090231D01*
X0171122Y0090231D02*
X0171122Y0094835D01*
X0171889Y0094835D02*
X0170354Y0094835D01*
X0181323Y0060383D02*
X0180556Y0059616D01*
X0180556Y0056547D01*
X0181323Y0055780D01*
X0182858Y0055780D01*
X0183625Y0056547D01*
X0185160Y0055780D02*
X0188229Y0055780D01*
X0186694Y0055780D02*
X0186694Y0060383D01*
X0185160Y0058849D01*
X0183625Y0059616D02*
X0182858Y0060383D01*
X0181323Y0060383D01*
X0081568Y0162886D02*
X0076964Y0162886D01*
X0076964Y0165188D01*
X0077732Y0165955D01*
X0079266Y0165955D01*
X0080034Y0165188D01*
X0080034Y0162886D01*
X0080034Y0164420D02*
X0081568Y0165955D01*
X0080801Y0167490D02*
X0081568Y0168257D01*
X0081568Y0169792D01*
X0080801Y0170559D01*
X0080034Y0170559D01*
X0079266Y0169792D01*
X0079266Y0169024D01*
X0079266Y0169792D02*
X0078499Y0170559D01*
X0077732Y0170559D01*
X0076964Y0169792D01*
X0076964Y0168257D01*
X0077732Y0167490D01*
X0071726Y0167490D02*
X0068657Y0170559D01*
X0067889Y0170559D01*
X0067122Y0169792D01*
X0067122Y0168257D01*
X0067889Y0167490D01*
X0067889Y0165955D02*
X0069424Y0165955D01*
X0070191Y0165188D01*
X0070191Y0162886D01*
X0070191Y0164420D02*
X0071726Y0165955D01*
X0071726Y0167490D02*
X0071726Y0170559D01*
X0067889Y0165955D02*
X0067122Y0165188D01*
X0067122Y0162886D01*
X0071726Y0162886D01*
X0061883Y0162886D02*
X0057279Y0162886D01*
X0057279Y0165188D01*
X0058047Y0165955D01*
X0059581Y0165955D01*
X0060349Y0165188D01*
X0060349Y0162886D01*
X0060349Y0164420D02*
X0061883Y0165955D01*
X0061883Y0167490D02*
X0061883Y0170559D01*
X0061883Y0169024D02*
X0057279Y0169024D01*
X0058814Y0167490D01*
D13*
X0065346Y0129896D02*
X0066847Y0129896D01*
X0066096Y0129896D02*
X0066096Y0126142D01*
X0065346Y0125392D01*
X0064595Y0125392D01*
X0063844Y0126142D01*
X0068448Y0125392D02*
X0068448Y0129896D01*
X0070700Y0129896D01*
X0071451Y0129145D01*
X0071451Y0127644D01*
X0070700Y0126893D01*
X0068448Y0126893D01*
X0073052Y0125392D02*
X0076055Y0128394D01*
X0076055Y0129145D01*
X0075304Y0129896D01*
X0073803Y0129896D01*
X0073052Y0129145D01*
X0073052Y0125392D02*
X0076055Y0125392D01*
X0078354Y0030811D02*
X0079856Y0030811D01*
X0079105Y0030811D02*
X0079105Y0027057D01*
X0078354Y0026307D01*
X0077604Y0026307D01*
X0076853Y0027057D01*
X0081457Y0026307D02*
X0081457Y0030811D01*
X0083709Y0030811D01*
X0084460Y0030060D01*
X0084460Y0028559D01*
X0083709Y0027808D01*
X0081457Y0027808D01*
X0086061Y0029309D02*
X0087562Y0030811D01*
X0087562Y0026307D01*
X0086061Y0026307D02*
X0089063Y0026307D01*
D14*
X0167253Y0085036D02*
X0167253Y0099036D01*
X0193056Y0099036D01*
X0193056Y0085036D01*
X0167253Y0085036D01*
M02*
