G75*
%MOIN*%
%OFA0B0*%
%FSLAX25Y25*%
%IPPOS*%
%LPD*%
%AMOC8*
5,1,8,0,0,1.08239X$1,22.5*
%
%ADD10C,0.00452*%
%ADD11C,0.00531*%
%ADD12C,0.00709*%
D10*
X0063605Y0147602D02*
X0063605Y0151668D01*
X0063605Y0147602D02*
X0058751Y0147602D01*
X0058751Y0151668D01*
X0063605Y0151668D01*
X0063605Y0148053D02*
X0058751Y0148053D01*
X0058751Y0148504D02*
X0063605Y0148504D01*
X0063605Y0148955D02*
X0058751Y0148955D01*
X0058751Y0149406D02*
X0063605Y0149406D01*
X0063605Y0149857D02*
X0058751Y0149857D01*
X0058751Y0150308D02*
X0063605Y0150308D01*
X0063605Y0150759D02*
X0058751Y0150759D01*
X0058751Y0151210D02*
X0063605Y0151210D01*
X0063605Y0151661D02*
X0058751Y0151661D01*
X0063605Y0155082D02*
X0063605Y0159148D01*
X0063605Y0155082D02*
X0058751Y0155082D01*
X0058751Y0159148D01*
X0063605Y0159148D01*
X0063605Y0155533D02*
X0058751Y0155533D01*
X0058751Y0155984D02*
X0063605Y0155984D01*
X0063605Y0156435D02*
X0058751Y0156435D01*
X0058751Y0156886D02*
X0063605Y0156886D01*
X0063605Y0157337D02*
X0058751Y0157337D01*
X0058751Y0157788D02*
X0063605Y0157788D01*
X0063605Y0158239D02*
X0058751Y0158239D01*
X0058751Y0158690D02*
X0063605Y0158690D01*
X0063605Y0159141D02*
X0058751Y0159141D01*
X0073447Y0159148D02*
X0073447Y0155082D01*
X0068593Y0155082D01*
X0068593Y0159148D01*
X0073447Y0159148D01*
X0073447Y0155533D02*
X0068593Y0155533D01*
X0068593Y0155984D02*
X0073447Y0155984D01*
X0073447Y0156435D02*
X0068593Y0156435D01*
X0068593Y0156886D02*
X0073447Y0156886D01*
X0073447Y0157337D02*
X0068593Y0157337D01*
X0068593Y0157788D02*
X0073447Y0157788D01*
X0073447Y0158239D02*
X0068593Y0158239D01*
X0068593Y0158690D02*
X0073447Y0158690D01*
X0073447Y0159141D02*
X0068593Y0159141D01*
X0073447Y0151668D02*
X0073447Y0147602D01*
X0068593Y0147602D01*
X0068593Y0151668D01*
X0073447Y0151668D01*
X0073447Y0148053D02*
X0068593Y0148053D01*
X0068593Y0148504D02*
X0073447Y0148504D01*
X0073447Y0148955D02*
X0068593Y0148955D01*
X0068593Y0149406D02*
X0073447Y0149406D01*
X0073447Y0149857D02*
X0068593Y0149857D01*
X0068593Y0150308D02*
X0073447Y0150308D01*
X0073447Y0150759D02*
X0068593Y0150759D01*
X0068593Y0151210D02*
X0073447Y0151210D01*
X0073447Y0151661D02*
X0068593Y0151661D01*
X0083290Y0151668D02*
X0083290Y0147602D01*
X0078436Y0147602D01*
X0078436Y0151668D01*
X0083290Y0151668D01*
X0083290Y0148053D02*
X0078436Y0148053D01*
X0078436Y0148504D02*
X0083290Y0148504D01*
X0083290Y0148955D02*
X0078436Y0148955D01*
X0078436Y0149406D02*
X0083290Y0149406D01*
X0083290Y0149857D02*
X0078436Y0149857D01*
X0078436Y0150308D02*
X0083290Y0150308D01*
X0083290Y0150759D02*
X0078436Y0150759D01*
X0078436Y0151210D02*
X0083290Y0151210D01*
X0083290Y0151661D02*
X0078436Y0151661D01*
X0083290Y0155082D02*
X0083290Y0159148D01*
X0083290Y0155082D02*
X0078436Y0155082D01*
X0078436Y0159148D01*
X0083290Y0159148D01*
X0083290Y0155533D02*
X0078436Y0155533D01*
X0078436Y0155984D02*
X0083290Y0155984D01*
X0083290Y0156435D02*
X0078436Y0156435D01*
X0078436Y0156886D02*
X0083290Y0156886D01*
X0083290Y0157337D02*
X0078436Y0157337D01*
X0078436Y0157788D02*
X0083290Y0157788D01*
X0083290Y0158239D02*
X0078436Y0158239D01*
X0078436Y0158690D02*
X0083290Y0158690D01*
X0083290Y0159141D02*
X0078436Y0159141D01*
X0178790Y0113861D02*
X0182856Y0113861D01*
X0178790Y0113861D02*
X0178790Y0118715D01*
X0182856Y0118715D01*
X0182856Y0113861D01*
X0182856Y0114312D02*
X0178790Y0114312D01*
X0178790Y0114763D02*
X0182856Y0114763D01*
X0182856Y0115214D02*
X0178790Y0115214D01*
X0178790Y0115665D02*
X0182856Y0115665D01*
X0182856Y0116116D02*
X0178790Y0116116D01*
X0178790Y0116567D02*
X0182856Y0116567D01*
X0182856Y0117018D02*
X0178790Y0117018D01*
X0178790Y0117469D02*
X0182856Y0117469D01*
X0182856Y0117920D02*
X0178790Y0117920D01*
X0178790Y0118371D02*
X0182856Y0118371D01*
X0186271Y0113861D02*
X0190337Y0113861D01*
X0186271Y0113861D02*
X0186271Y0118715D01*
X0190337Y0118715D01*
X0190337Y0113861D01*
X0190337Y0114312D02*
X0186271Y0114312D01*
X0186271Y0114763D02*
X0190337Y0114763D01*
X0190337Y0115214D02*
X0186271Y0115214D01*
X0186271Y0115665D02*
X0190337Y0115665D01*
X0190337Y0116116D02*
X0186271Y0116116D01*
X0186271Y0116567D02*
X0190337Y0116567D01*
X0190337Y0117018D02*
X0186271Y0117018D01*
X0186271Y0117469D02*
X0190337Y0117469D01*
X0190337Y0117920D02*
X0186271Y0117920D01*
X0186271Y0118371D02*
X0190337Y0118371D01*
X0190337Y0068007D02*
X0186271Y0068007D01*
X0190337Y0068007D02*
X0190337Y0063153D01*
X0186271Y0063153D01*
X0186271Y0068007D01*
X0186271Y0063604D02*
X0190337Y0063604D01*
X0190337Y0064055D02*
X0186271Y0064055D01*
X0186271Y0064506D02*
X0190337Y0064506D01*
X0190337Y0064957D02*
X0186271Y0064957D01*
X0186271Y0065408D02*
X0190337Y0065408D01*
X0190337Y0065859D02*
X0186271Y0065859D01*
X0186271Y0066310D02*
X0190337Y0066310D01*
X0190337Y0066761D02*
X0186271Y0066761D01*
X0186271Y0067212D02*
X0190337Y0067212D01*
X0190337Y0067663D02*
X0186271Y0067663D01*
X0182856Y0068007D02*
X0178790Y0068007D01*
X0182856Y0068007D02*
X0182856Y0063153D01*
X0178790Y0063153D01*
X0178790Y0068007D01*
X0178790Y0063604D02*
X0182856Y0063604D01*
X0182856Y0064055D02*
X0178790Y0064055D01*
X0178790Y0064506D02*
X0182856Y0064506D01*
X0182856Y0064957D02*
X0178790Y0064957D01*
X0178790Y0065408D02*
X0182856Y0065408D01*
X0182856Y0065859D02*
X0178790Y0065859D01*
X0178790Y0066310D02*
X0182856Y0066310D01*
X0182856Y0066761D02*
X0178790Y0066761D01*
X0178790Y0067212D02*
X0182856Y0067212D01*
X0182856Y0067663D02*
X0178790Y0067663D01*
D11*
X0177766Y0076263D02*
X0182542Y0076263D01*
X0177766Y0076263D02*
X0177766Y0083007D01*
X0182542Y0083007D01*
X0182542Y0076263D01*
X0182542Y0076793D02*
X0177766Y0076793D01*
X0177766Y0077323D02*
X0182542Y0077323D01*
X0182542Y0077853D02*
X0177766Y0077853D01*
X0177766Y0078383D02*
X0182542Y0078383D01*
X0182542Y0078913D02*
X0177766Y0078913D01*
X0177766Y0079443D02*
X0182542Y0079443D01*
X0182542Y0079973D02*
X0177766Y0079973D01*
X0177766Y0080503D02*
X0182542Y0080503D01*
X0182542Y0081033D02*
X0177766Y0081033D01*
X0177766Y0081563D02*
X0182542Y0081563D01*
X0182542Y0082093D02*
X0177766Y0082093D01*
X0177766Y0082623D02*
X0182542Y0082623D01*
X0186821Y0076263D02*
X0191597Y0076263D01*
X0186821Y0076263D02*
X0186821Y0083007D01*
X0191597Y0083007D01*
X0191597Y0076263D01*
X0191597Y0076793D02*
X0186821Y0076793D01*
X0186821Y0077323D02*
X0191597Y0077323D01*
X0191597Y0077853D02*
X0186821Y0077853D01*
X0186821Y0078383D02*
X0191597Y0078383D01*
X0191597Y0078913D02*
X0186821Y0078913D01*
X0186821Y0079443D02*
X0191597Y0079443D01*
X0191597Y0079973D02*
X0186821Y0079973D01*
X0186821Y0080503D02*
X0191597Y0080503D01*
X0191597Y0081033D02*
X0186821Y0081033D01*
X0186821Y0081563D02*
X0191597Y0081563D01*
X0191597Y0082093D02*
X0186821Y0082093D01*
X0186821Y0082623D02*
X0191597Y0082623D01*
X0173487Y0076263D02*
X0168711Y0076263D01*
X0168711Y0083007D01*
X0173487Y0083007D01*
X0173487Y0076263D01*
X0173487Y0076793D02*
X0168711Y0076793D01*
X0168711Y0077323D02*
X0173487Y0077323D01*
X0173487Y0077853D02*
X0168711Y0077853D01*
X0168711Y0078383D02*
X0173487Y0078383D01*
X0173487Y0078913D02*
X0168711Y0078913D01*
X0168711Y0079443D02*
X0173487Y0079443D01*
X0173487Y0079973D02*
X0168711Y0079973D01*
X0168711Y0080503D02*
X0173487Y0080503D01*
X0173487Y0081033D02*
X0168711Y0081033D01*
X0168711Y0081563D02*
X0173487Y0081563D01*
X0173487Y0082093D02*
X0168711Y0082093D01*
X0168711Y0082623D02*
X0173487Y0082623D01*
D12*
X0173422Y0101249D02*
X0186886Y0101249D01*
X0173422Y0101249D02*
X0173422Y0107627D01*
X0186886Y0107627D01*
X0186886Y0101249D01*
X0186886Y0101957D02*
X0173422Y0101957D01*
X0173422Y0102665D02*
X0186886Y0102665D01*
X0186886Y0103373D02*
X0173422Y0103373D01*
X0173422Y0104081D02*
X0186886Y0104081D01*
X0186886Y0104789D02*
X0173422Y0104789D01*
X0173422Y0105497D02*
X0186886Y0105497D01*
X0186886Y0106205D02*
X0173422Y0106205D01*
X0173422Y0106913D02*
X0186886Y0106913D01*
X0186886Y0107621D02*
X0173422Y0107621D01*
M02*
