G75*
%MOIN*%
%OFA0B0*%
%FSLAX25Y25*%
%IPPOS*%
%LPD*%
%AMOC8*
5,1,8,0,0,1.08239X$1,22.5*
%
%ADD10C,0.00600*%
%ADD11C,0.00512*%
%ADD12C,0.00800*%
D10*
X0046276Y0061891D02*
X0051613Y0061891D01*
X0052681Y0062958D01*
X0052681Y0065093D01*
X0051613Y0066161D01*
X0046276Y0066161D01*
X0048411Y0068336D02*
X0048411Y0071539D01*
X0049478Y0072606D01*
X0052681Y0072606D01*
X0052681Y0074782D02*
X0052681Y0076917D01*
X0052681Y0075849D02*
X0048411Y0075849D01*
X0048411Y0074782D01*
X0046276Y0075849D02*
X0045208Y0075849D01*
X0048411Y0079079D02*
X0052681Y0081214D01*
X0048411Y0083349D01*
X0049478Y0085524D02*
X0048411Y0086592D01*
X0048411Y0088727D01*
X0049478Y0089794D01*
X0050546Y0089794D01*
X0050546Y0085524D01*
X0051613Y0085524D02*
X0049478Y0085524D01*
X0051613Y0085524D02*
X0052681Y0086592D01*
X0052681Y0088727D01*
X0052681Y0091970D02*
X0048411Y0091970D01*
X0048411Y0094105D02*
X0048411Y0095172D01*
X0048411Y0094105D02*
X0050546Y0091970D01*
X0049478Y0097341D02*
X0048411Y0098408D01*
X0048411Y0101611D01*
X0048411Y0103786D02*
X0048411Y0104854D01*
X0052681Y0104854D01*
X0052681Y0103786D02*
X0052681Y0105922D01*
X0051613Y0108083D02*
X0049478Y0108083D01*
X0048411Y0109151D01*
X0048411Y0112354D01*
X0046276Y0112354D02*
X0052681Y0112354D01*
X0052681Y0109151D01*
X0051613Y0108083D01*
X0051613Y0114529D02*
X0050546Y0115596D01*
X0050546Y0118799D01*
X0049478Y0118799D02*
X0052681Y0118799D01*
X0052681Y0115596D01*
X0051613Y0114529D01*
X0048411Y0115596D02*
X0048411Y0117732D01*
X0049478Y0118799D01*
X0049478Y0120974D02*
X0048411Y0122042D01*
X0048411Y0125245D01*
X0046276Y0125245D02*
X0052681Y0125245D01*
X0052681Y0122042D01*
X0051613Y0120974D01*
X0049478Y0120974D01*
X0049478Y0133865D02*
X0048411Y0134933D01*
X0048411Y0138136D01*
X0046276Y0138136D02*
X0052681Y0138136D01*
X0052681Y0134933D01*
X0051613Y0133865D01*
X0049478Y0133865D01*
X0049478Y0140311D02*
X0048411Y0141378D01*
X0048411Y0143514D01*
X0049478Y0144581D01*
X0050546Y0144581D01*
X0050546Y0140311D01*
X0051613Y0140311D02*
X0049478Y0140311D01*
X0051613Y0140311D02*
X0052681Y0141378D01*
X0052681Y0143514D01*
X0056020Y0142095D02*
X0056020Y0137095D01*
X0058520Y0134595D01*
X0063520Y0134595D01*
X0066020Y0137095D01*
X0068520Y0134595D01*
X0073520Y0134595D01*
X0076020Y0137095D01*
X0078520Y0134595D01*
X0083520Y0134595D01*
X0086020Y0137095D01*
X0086020Y0142095D01*
X0083520Y0144595D01*
X0078520Y0144595D01*
X0076020Y0142095D01*
X0076020Y0137095D01*
X0076020Y0142095D02*
X0073520Y0144595D01*
X0068520Y0144595D01*
X0066020Y0142095D01*
X0066020Y0137095D01*
X0066020Y0142095D02*
X0063520Y0144595D01*
X0058520Y0144595D01*
X0056020Y0142095D01*
X0051613Y0153202D02*
X0047343Y0153202D01*
X0046276Y0154269D01*
X0046276Y0156405D01*
X0047343Y0157472D01*
X0046276Y0160715D02*
X0045208Y0162850D01*
X0048411Y0162850D02*
X0048411Y0160715D01*
X0050546Y0160715D02*
X0050546Y0163918D01*
X0049478Y0163918D02*
X0052681Y0163918D01*
X0052681Y0160715D01*
X0051613Y0159647D01*
X0050546Y0160715D01*
X0048411Y0162850D02*
X0049478Y0163918D01*
X0049478Y0166093D02*
X0048411Y0167160D01*
X0048411Y0170363D01*
X0046276Y0170363D02*
X0052681Y0170363D01*
X0052681Y0167160D01*
X0051613Y0166093D01*
X0049478Y0166093D01*
X0048411Y0172538D02*
X0048411Y0173606D01*
X0052681Y0173606D01*
X0052681Y0172538D02*
X0052681Y0174674D01*
X0052681Y0176835D02*
X0052681Y0181106D01*
X0048411Y0181106D02*
X0048411Y0176835D01*
X0046276Y0173606D02*
X0045208Y0173606D01*
X0052681Y0176835D02*
X0048411Y0181106D01*
X0051613Y0157472D02*
X0052681Y0156405D01*
X0052681Y0154269D01*
X0051613Y0153202D01*
X0046276Y0104854D02*
X0045208Y0104854D01*
X0050546Y0100544D02*
X0050546Y0098408D01*
X0049478Y0097341D01*
X0052681Y0097341D02*
X0052681Y0100544D01*
X0051613Y0101611D01*
X0050546Y0100544D01*
X0052681Y0068336D02*
X0048411Y0068336D01*
X0010033Y0106598D02*
X0008966Y0105530D01*
X0010033Y0106598D02*
X0010033Y0108733D01*
X0008966Y0109801D01*
X0006831Y0109801D01*
X0005763Y0108733D01*
X0005763Y0107666D01*
X0006831Y0105530D01*
X0003628Y0105530D01*
X0003628Y0109801D01*
X0005763Y0111976D02*
X0003628Y0114111D01*
X0010033Y0114111D01*
X0010033Y0111976D02*
X0010033Y0116246D01*
X0010033Y0118421D02*
X0010033Y0119489D01*
X0008966Y0119489D01*
X0008966Y0118421D01*
X0010033Y0118421D01*
X0010033Y0121644D02*
X0010033Y0125914D01*
X0010033Y0123779D02*
X0003628Y0123779D01*
X0005763Y0121644D01*
X0004695Y0128090D02*
X0003628Y0129157D01*
X0003628Y0131292D01*
X0004695Y0132360D01*
X0005763Y0132360D01*
X0010033Y0128090D01*
X0010033Y0132360D01*
X0095764Y0033414D02*
X0093264Y0030914D01*
X0093264Y0025914D01*
X0095764Y0023414D01*
X0100764Y0023414D01*
X0103264Y0025914D01*
X0105764Y0023414D01*
X0110764Y0023414D01*
X0113264Y0025914D01*
X0113264Y0030914D01*
X0110764Y0033414D01*
X0105764Y0033414D01*
X0103264Y0030914D01*
X0103264Y0025914D01*
X0103264Y0030914D02*
X0100764Y0033414D01*
X0095764Y0033414D01*
X0113264Y0030914D02*
X0115764Y0033414D01*
X0120764Y0033414D01*
X0123264Y0030914D01*
X0125764Y0033414D01*
X0130764Y0033414D01*
X0133264Y0030914D01*
X0135764Y0033414D01*
X0140764Y0033414D01*
X0143264Y0030914D01*
X0143264Y0025914D01*
X0140764Y0023414D01*
X0135764Y0023414D01*
X0133264Y0025914D01*
X0130764Y0023414D01*
X0125764Y0023414D01*
X0123264Y0025914D01*
X0120764Y0023414D01*
X0115764Y0023414D01*
X0113264Y0025914D01*
X0123264Y0025914D02*
X0123264Y0030914D01*
X0133264Y0030914D02*
X0133264Y0025914D01*
X0134016Y0010553D02*
X0129746Y0010553D01*
X0129746Y0004147D01*
X0134016Y0004147D01*
X0136191Y0004147D02*
X0139394Y0004147D01*
X0140461Y0005215D01*
X0139394Y0006282D01*
X0137259Y0006282D01*
X0136191Y0007350D01*
X0137259Y0008418D01*
X0140461Y0008418D01*
X0142637Y0007350D02*
X0142637Y0005215D01*
X0143704Y0004147D01*
X0146907Y0004147D01*
X0149082Y0005215D02*
X0150150Y0006282D01*
X0153352Y0006282D01*
X0153352Y0007350D02*
X0153352Y0004147D01*
X0150150Y0004147D01*
X0149082Y0005215D01*
X0150150Y0008418D02*
X0152285Y0008418D01*
X0153352Y0007350D01*
X0155528Y0004147D02*
X0157663Y0004147D01*
X0156595Y0004147D02*
X0156595Y0010553D01*
X0155528Y0010553D01*
X0160892Y0008418D02*
X0163027Y0008418D01*
X0164095Y0007350D01*
X0164095Y0004147D01*
X0160892Y0004147D01*
X0159825Y0005215D01*
X0160892Y0006282D01*
X0164095Y0006282D01*
X0172716Y0005215D02*
X0173783Y0004147D01*
X0175918Y0004147D01*
X0176986Y0005215D01*
X0176986Y0006282D01*
X0175918Y0007350D01*
X0174851Y0007350D01*
X0175918Y0007350D02*
X0176986Y0008418D01*
X0176986Y0009485D01*
X0175918Y0010553D01*
X0173783Y0010553D01*
X0172716Y0009485D01*
X0185607Y0008418D02*
X0185607Y0007350D01*
X0186674Y0007350D01*
X0186674Y0008418D01*
X0185607Y0008418D01*
X0185607Y0005215D02*
X0185607Y0004147D01*
X0186674Y0004147D01*
X0186674Y0005215D01*
X0185607Y0005215D01*
X0195275Y0004147D02*
X0199545Y0004147D01*
X0197410Y0004147D02*
X0197410Y0010553D01*
X0195275Y0008418D01*
X0146907Y0008418D02*
X0143704Y0008418D01*
X0142637Y0007350D01*
X0131881Y0007350D02*
X0129746Y0007350D01*
X0129343Y0251133D02*
X0127208Y0251133D01*
X0126140Y0252201D01*
X0130410Y0256471D01*
X0130410Y0252201D01*
X0129343Y0251133D01*
X0126140Y0252201D02*
X0126140Y0256471D01*
X0127208Y0257539D01*
X0129343Y0257539D01*
X0130410Y0256471D01*
X0132586Y0256471D02*
X0133653Y0257539D01*
X0135788Y0257539D01*
X0136856Y0256471D01*
X0132586Y0252201D01*
X0133653Y0251133D01*
X0135788Y0251133D01*
X0136856Y0252201D01*
X0136856Y0256471D01*
X0132586Y0256471D02*
X0132586Y0252201D01*
X0123985Y0252201D02*
X0123985Y0251133D01*
X0122917Y0251133D01*
X0122917Y0252201D01*
X0123985Y0252201D01*
X0120742Y0252201D02*
X0119675Y0251133D01*
X0117539Y0251133D01*
X0116472Y0252201D01*
X0120742Y0256471D01*
X0120742Y0252201D01*
X0116472Y0252201D02*
X0116472Y0256471D01*
X0117539Y0257539D01*
X0119675Y0257539D01*
X0120742Y0256471D01*
X0114297Y0254336D02*
X0110026Y0254336D01*
X0113229Y0257539D01*
X0113229Y0251133D01*
D11*
X0043461Y0017076D02*
X0004918Y0017076D01*
X0012595Y0017331D02*
X0013619Y0027312D01*
X0013852Y0027312D02*
X0012595Y0017331D01*
X0011572Y0027312D01*
X0011338Y0027312D02*
X0013852Y0027312D01*
X0013107Y0027312D02*
X0012595Y0017331D01*
X0012083Y0027312D01*
X0011338Y0027312D02*
X0012595Y0017331D01*
X0012595Y0218080D01*
X0013619Y0208099D01*
X0013852Y0208099D02*
X0012595Y0218080D01*
X0011572Y0208099D01*
X0011338Y0208099D02*
X0013852Y0208099D01*
X0013107Y0208099D02*
X0012595Y0218080D01*
X0012083Y0208099D01*
X0011338Y0208099D02*
X0012595Y0218080D01*
X0004918Y0218335D02*
X0043461Y0218335D01*
X0043461Y0256249D01*
X0043717Y0248572D02*
X0053698Y0247548D01*
X0053698Y0247315D02*
X0043717Y0248572D01*
X0053698Y0249595D01*
X0053698Y0249829D02*
X0053698Y0247315D01*
X0053698Y0248060D02*
X0043717Y0248572D01*
X0053698Y0249083D01*
X0053698Y0249829D02*
X0043717Y0248572D01*
X0200686Y0248572D01*
X0190705Y0247548D01*
X0190705Y0247315D02*
X0200686Y0248572D01*
X0190705Y0249595D01*
X0190705Y0249829D02*
X0190705Y0247315D01*
X0190705Y0248060D02*
X0200686Y0248572D01*
X0190705Y0249083D01*
X0190705Y0249829D02*
X0200686Y0248572D01*
X0200942Y0256249D02*
X0200942Y0218335D01*
D12*
X0193056Y0099036D02*
X0167253Y0099036D01*
X0167253Y0085036D01*
X0193056Y0085036D01*
X0193056Y0099036D01*
M02*
