G75*
%MOIN*%
%OFA0B0*%
%FSLAX25Y25*%
%IPPOS*%
%LPD*%
%AMOC8*
5,1,8,0,0,1.08239X$1,22.5*
%
%ADD10C,0.12211*%
%ADD11C,0.07400*%
%ADD12R,0.07400X0.07400*%
%ADD13C,0.00552*%
%ADD14C,0.06800*%
%ADD15C,0.00631*%
%ADD16C,0.00827*%
D10*
X0063146Y0041170D03*
X0181257Y0041170D03*
X0181257Y0198650D03*
X0063146Y0198650D03*
D11*
X0097635Y0182666D03*
X0097635Y0172666D03*
X0097635Y0162666D03*
X0097635Y0152666D03*
X0097635Y0142666D03*
X0097635Y0132666D03*
X0097635Y0122666D03*
X0097635Y0112666D03*
X0097635Y0102666D03*
X0097635Y0092666D03*
X0097635Y0082666D03*
X0097635Y0072666D03*
X0157635Y0072666D03*
X0157635Y0082666D03*
X0157635Y0092666D03*
X0157635Y0102666D03*
X0157635Y0112666D03*
X0157635Y0122666D03*
X0157635Y0132666D03*
X0157635Y0142666D03*
X0157635Y0152666D03*
X0157635Y0162666D03*
X0157635Y0172666D03*
D12*
X0157635Y0182666D03*
D13*
X0178340Y0113411D02*
X0183306Y0113411D01*
X0178340Y0113411D02*
X0178340Y0119165D01*
X0183306Y0119165D01*
X0183306Y0113411D01*
X0183306Y0113962D02*
X0178340Y0113962D01*
X0178340Y0114513D02*
X0183306Y0114513D01*
X0183306Y0115064D02*
X0178340Y0115064D01*
X0178340Y0115615D02*
X0183306Y0115615D01*
X0183306Y0116166D02*
X0178340Y0116166D01*
X0178340Y0116717D02*
X0183306Y0116717D01*
X0183306Y0117268D02*
X0178340Y0117268D01*
X0178340Y0117819D02*
X0183306Y0117819D01*
X0183306Y0118370D02*
X0178340Y0118370D01*
X0178340Y0118921D02*
X0183306Y0118921D01*
X0185821Y0113411D02*
X0190787Y0113411D01*
X0185821Y0113411D02*
X0185821Y0119165D01*
X0190787Y0119165D01*
X0190787Y0113411D01*
X0190787Y0113962D02*
X0185821Y0113962D01*
X0185821Y0114513D02*
X0190787Y0114513D01*
X0190787Y0115064D02*
X0185821Y0115064D01*
X0185821Y0115615D02*
X0190787Y0115615D01*
X0190787Y0116166D02*
X0185821Y0116166D01*
X0185821Y0116717D02*
X0190787Y0116717D01*
X0190787Y0117268D02*
X0185821Y0117268D01*
X0185821Y0117819D02*
X0190787Y0117819D01*
X0190787Y0118370D02*
X0185821Y0118370D01*
X0185821Y0118921D02*
X0190787Y0118921D01*
X0190787Y0068457D02*
X0185821Y0068457D01*
X0190787Y0068457D02*
X0190787Y0062703D01*
X0185821Y0062703D01*
X0185821Y0068457D01*
X0185821Y0063254D02*
X0190787Y0063254D01*
X0190787Y0063805D02*
X0185821Y0063805D01*
X0185821Y0064356D02*
X0190787Y0064356D01*
X0190787Y0064907D02*
X0185821Y0064907D01*
X0185821Y0065458D02*
X0190787Y0065458D01*
X0190787Y0066009D02*
X0185821Y0066009D01*
X0185821Y0066560D02*
X0190787Y0066560D01*
X0190787Y0067111D02*
X0185821Y0067111D01*
X0185821Y0067662D02*
X0190787Y0067662D01*
X0190787Y0068213D02*
X0185821Y0068213D01*
X0183306Y0068457D02*
X0178340Y0068457D01*
X0183306Y0068457D02*
X0183306Y0062703D01*
X0178340Y0062703D01*
X0178340Y0068457D01*
X0178340Y0063254D02*
X0183306Y0063254D01*
X0183306Y0063805D02*
X0178340Y0063805D01*
X0178340Y0064356D02*
X0183306Y0064356D01*
X0183306Y0064907D02*
X0178340Y0064907D01*
X0178340Y0065458D02*
X0183306Y0065458D01*
X0183306Y0066009D02*
X0178340Y0066009D01*
X0178340Y0066560D02*
X0183306Y0066560D01*
X0183306Y0067111D02*
X0178340Y0067111D01*
X0178340Y0067662D02*
X0183306Y0067662D01*
X0183306Y0068213D02*
X0178340Y0068213D01*
X0083740Y0147152D02*
X0083740Y0152118D01*
X0083740Y0147152D02*
X0077986Y0147152D01*
X0077986Y0152118D01*
X0083740Y0152118D01*
X0083740Y0147703D02*
X0077986Y0147703D01*
X0077986Y0148254D02*
X0083740Y0148254D01*
X0083740Y0148805D02*
X0077986Y0148805D01*
X0077986Y0149356D02*
X0083740Y0149356D01*
X0083740Y0149907D02*
X0077986Y0149907D01*
X0077986Y0150458D02*
X0083740Y0150458D01*
X0083740Y0151009D02*
X0077986Y0151009D01*
X0077986Y0151560D02*
X0083740Y0151560D01*
X0083740Y0152111D02*
X0077986Y0152111D01*
X0083740Y0154632D02*
X0083740Y0159598D01*
X0083740Y0154632D02*
X0077986Y0154632D01*
X0077986Y0159598D01*
X0083740Y0159598D01*
X0083740Y0155183D02*
X0077986Y0155183D01*
X0077986Y0155734D02*
X0083740Y0155734D01*
X0083740Y0156285D02*
X0077986Y0156285D01*
X0077986Y0156836D02*
X0083740Y0156836D01*
X0083740Y0157387D02*
X0077986Y0157387D01*
X0077986Y0157938D02*
X0083740Y0157938D01*
X0083740Y0158489D02*
X0077986Y0158489D01*
X0077986Y0159040D02*
X0083740Y0159040D01*
X0083740Y0159591D02*
X0077986Y0159591D01*
X0073897Y0159598D02*
X0073897Y0154632D01*
X0068143Y0154632D01*
X0068143Y0159598D01*
X0073897Y0159598D01*
X0073897Y0155183D02*
X0068143Y0155183D01*
X0068143Y0155734D02*
X0073897Y0155734D01*
X0073897Y0156285D02*
X0068143Y0156285D01*
X0068143Y0156836D02*
X0073897Y0156836D01*
X0073897Y0157387D02*
X0068143Y0157387D01*
X0068143Y0157938D02*
X0073897Y0157938D01*
X0073897Y0158489D02*
X0068143Y0158489D01*
X0068143Y0159040D02*
X0073897Y0159040D01*
X0073897Y0159591D02*
X0068143Y0159591D01*
X0064055Y0159598D02*
X0064055Y0154632D01*
X0058301Y0154632D01*
X0058301Y0159598D01*
X0064055Y0159598D01*
X0064055Y0155183D02*
X0058301Y0155183D01*
X0058301Y0155734D02*
X0064055Y0155734D01*
X0064055Y0156285D02*
X0058301Y0156285D01*
X0058301Y0156836D02*
X0064055Y0156836D01*
X0064055Y0157387D02*
X0058301Y0157387D01*
X0058301Y0157938D02*
X0064055Y0157938D01*
X0064055Y0158489D02*
X0058301Y0158489D01*
X0058301Y0159040D02*
X0064055Y0159040D01*
X0064055Y0159591D02*
X0058301Y0159591D01*
X0064055Y0152118D02*
X0064055Y0147152D01*
X0058301Y0147152D01*
X0058301Y0152118D01*
X0064055Y0152118D01*
X0064055Y0147703D02*
X0058301Y0147703D01*
X0058301Y0148254D02*
X0064055Y0148254D01*
X0064055Y0148805D02*
X0058301Y0148805D01*
X0058301Y0149356D02*
X0064055Y0149356D01*
X0064055Y0149907D02*
X0058301Y0149907D01*
X0058301Y0150458D02*
X0064055Y0150458D01*
X0064055Y0151009D02*
X0058301Y0151009D01*
X0058301Y0151560D02*
X0064055Y0151560D01*
X0064055Y0152111D02*
X0058301Y0152111D01*
X0073897Y0152118D02*
X0073897Y0147152D01*
X0068143Y0147152D01*
X0068143Y0152118D01*
X0073897Y0152118D01*
X0073897Y0147703D02*
X0068143Y0147703D01*
X0068143Y0148254D02*
X0073897Y0148254D01*
X0073897Y0148805D02*
X0068143Y0148805D01*
X0068143Y0149356D02*
X0073897Y0149356D01*
X0073897Y0149907D02*
X0068143Y0149907D01*
X0068143Y0150458D02*
X0073897Y0150458D01*
X0073897Y0151009D02*
X0068143Y0151009D01*
X0068143Y0151560D02*
X0073897Y0151560D01*
X0073897Y0152111D02*
X0068143Y0152111D01*
D14*
X0071020Y0140395D02*
X0071020Y0138795D01*
X0061020Y0138795D02*
X0061020Y0140395D01*
X0081020Y0140395D02*
X0081020Y0138795D01*
X0098264Y0029214D02*
X0098264Y0027614D01*
X0108264Y0027614D02*
X0108264Y0029214D01*
X0118264Y0029214D02*
X0118264Y0027614D01*
X0128264Y0027614D02*
X0128264Y0029214D01*
X0138264Y0029214D02*
X0138264Y0027614D01*
D15*
X0168261Y0075813D02*
X0173937Y0075813D01*
X0168261Y0075813D02*
X0168261Y0083457D01*
X0173937Y0083457D01*
X0173937Y0075813D01*
X0173937Y0076443D02*
X0168261Y0076443D01*
X0168261Y0077073D02*
X0173937Y0077073D01*
X0173937Y0077703D02*
X0168261Y0077703D01*
X0168261Y0078333D02*
X0173937Y0078333D01*
X0173937Y0078963D02*
X0168261Y0078963D01*
X0168261Y0079593D02*
X0173937Y0079593D01*
X0173937Y0080223D02*
X0168261Y0080223D01*
X0168261Y0080853D02*
X0173937Y0080853D01*
X0173937Y0081483D02*
X0168261Y0081483D01*
X0168261Y0082113D02*
X0173937Y0082113D01*
X0173937Y0082743D02*
X0168261Y0082743D01*
X0168261Y0083373D02*
X0173937Y0083373D01*
X0177316Y0075813D02*
X0182992Y0075813D01*
X0177316Y0075813D02*
X0177316Y0083457D01*
X0182992Y0083457D01*
X0182992Y0075813D01*
X0182992Y0076443D02*
X0177316Y0076443D01*
X0177316Y0077073D02*
X0182992Y0077073D01*
X0182992Y0077703D02*
X0177316Y0077703D01*
X0177316Y0078333D02*
X0182992Y0078333D01*
X0182992Y0078963D02*
X0177316Y0078963D01*
X0177316Y0079593D02*
X0182992Y0079593D01*
X0182992Y0080223D02*
X0177316Y0080223D01*
X0177316Y0080853D02*
X0182992Y0080853D01*
X0182992Y0081483D02*
X0177316Y0081483D01*
X0177316Y0082113D02*
X0182992Y0082113D01*
X0182992Y0082743D02*
X0177316Y0082743D01*
X0177316Y0083373D02*
X0182992Y0083373D01*
X0186371Y0075813D02*
X0192047Y0075813D01*
X0186371Y0075813D02*
X0186371Y0083457D01*
X0192047Y0083457D01*
X0192047Y0075813D01*
X0192047Y0076443D02*
X0186371Y0076443D01*
X0186371Y0077073D02*
X0192047Y0077073D01*
X0192047Y0077703D02*
X0186371Y0077703D01*
X0186371Y0078333D02*
X0192047Y0078333D01*
X0192047Y0078963D02*
X0186371Y0078963D01*
X0186371Y0079593D02*
X0192047Y0079593D01*
X0192047Y0080223D02*
X0186371Y0080223D01*
X0186371Y0080853D02*
X0192047Y0080853D01*
X0192047Y0081483D02*
X0186371Y0081483D01*
X0186371Y0082113D02*
X0192047Y0082113D01*
X0192047Y0082743D02*
X0186371Y0082743D01*
X0186371Y0083373D02*
X0192047Y0083373D01*
D16*
X0187421Y0100714D02*
X0172887Y0100714D01*
X0172887Y0108162D01*
X0187421Y0108162D01*
X0187421Y0100714D01*
X0187421Y0101540D02*
X0172887Y0101540D01*
X0172887Y0102366D02*
X0187421Y0102366D01*
X0187421Y0103192D02*
X0172887Y0103192D01*
X0172887Y0104018D02*
X0187421Y0104018D01*
X0187421Y0104844D02*
X0172887Y0104844D01*
X0172887Y0105670D02*
X0187421Y0105670D01*
X0187421Y0106496D02*
X0172887Y0106496D01*
X0172887Y0107322D02*
X0187421Y0107322D01*
X0187421Y0108148D02*
X0172887Y0108148D01*
M02*
