G75*
%MOIN*%
%OFA0B0*%
%FSLAX25Y25*%
%IPPOS*%
%LPD*%
%AMOC8*
5,1,8,0,0,1.08239X$1,22.5*
%
%ADD10C,0.12211*%
%ADD11C,0.07400*%
%ADD12R,0.07400X0.07400*%
%ADD13C,0.06800*%
D10*
X0063146Y0041170D03*
X0181257Y0041170D03*
X0181257Y0198650D03*
X0063146Y0198650D03*
D11*
X0097635Y0182666D03*
X0097635Y0172666D03*
X0097635Y0162666D03*
X0097635Y0152666D03*
X0097635Y0142666D03*
X0097635Y0132666D03*
X0097635Y0122666D03*
X0097635Y0112666D03*
X0097635Y0102666D03*
X0097635Y0092666D03*
X0097635Y0082666D03*
X0097635Y0072666D03*
X0157635Y0072666D03*
X0157635Y0082666D03*
X0157635Y0092666D03*
X0157635Y0102666D03*
X0157635Y0112666D03*
X0157635Y0122666D03*
X0157635Y0132666D03*
X0157635Y0142666D03*
X0157635Y0152666D03*
X0157635Y0162666D03*
X0157635Y0172666D03*
D12*
X0157635Y0182666D03*
D13*
X0081020Y0140395D02*
X0081020Y0138795D01*
X0071020Y0138795D02*
X0071020Y0140395D01*
X0061020Y0140395D02*
X0061020Y0138795D01*
X0098264Y0029214D02*
X0098264Y0027614D01*
X0108264Y0027614D02*
X0108264Y0029214D01*
X0118264Y0029214D02*
X0118264Y0027614D01*
X0128264Y0027614D02*
X0128264Y0029214D01*
X0138264Y0029214D02*
X0138264Y0027614D01*
M02*
