G75*
%MOIN*%
%OFA0B0*%
%FSLAX25Y25*%
%IPPOS*%
%LPD*%
%AMOC8*
5,1,8,0,0,1.08239X$1,22.5*
%
%ADD10C,0.00600*%
%ADD11C,0.00500*%
D10*
X0047470Y0057335D02*
X0051740Y0057335D01*
X0053875Y0059470D01*
X0051740Y0061605D01*
X0047470Y0061605D01*
X0047470Y0063780D02*
X0051740Y0063780D01*
X0051740Y0066983D01*
X0050673Y0068051D01*
X0047470Y0068051D01*
X0048538Y0070226D02*
X0050673Y0070226D01*
X0051740Y0071294D01*
X0051740Y0074496D01*
X0053875Y0074496D02*
X0047470Y0074496D01*
X0047470Y0071294D01*
X0048538Y0070226D01*
X0049605Y0076671D02*
X0051740Y0078807D01*
X0051740Y0079874D01*
X0050673Y0082043D02*
X0051740Y0083110D01*
X0051740Y0085245D01*
X0050673Y0086313D01*
X0049605Y0086313D01*
X0049605Y0082043D01*
X0048538Y0082043D02*
X0050673Y0082043D01*
X0048538Y0082043D02*
X0047470Y0083110D01*
X0047470Y0085245D01*
X0047470Y0088488D02*
X0047470Y0091691D01*
X0048538Y0092758D01*
X0049605Y0091691D01*
X0049605Y0089556D01*
X0050673Y0088488D01*
X0051740Y0089556D01*
X0051740Y0092758D01*
X0054943Y0085245D02*
X0053875Y0083110D01*
X0051740Y0076671D02*
X0047470Y0076671D01*
X0050673Y0061605D02*
X0050673Y0057335D01*
X0051740Y0101379D02*
X0050673Y0102447D01*
X0050673Y0104582D01*
X0049605Y0105649D01*
X0048538Y0105649D01*
X0047470Y0104582D01*
X0047470Y0102447D01*
X0048538Y0101379D01*
X0051740Y0101379D02*
X0052808Y0101379D01*
X0053875Y0102447D01*
X0053875Y0104582D01*
X0052808Y0105649D01*
X0053875Y0108892D02*
X0054943Y0111027D01*
X0051740Y0111027D02*
X0051740Y0108892D01*
X0049605Y0108892D02*
X0049605Y0112095D01*
X0050673Y0112095D02*
X0047470Y0112095D01*
X0047470Y0108892D01*
X0048538Y0107825D01*
X0049605Y0108892D01*
X0051740Y0111027D02*
X0050673Y0112095D01*
X0051740Y0114270D02*
X0047470Y0114270D01*
X0051740Y0114270D02*
X0051740Y0117473D01*
X0050673Y0118540D01*
X0047470Y0118540D01*
X0048538Y0120716D02*
X0047470Y0121783D01*
X0047470Y0124986D01*
X0047470Y0127161D02*
X0053875Y0127161D01*
X0051740Y0128229D02*
X0051740Y0130364D01*
X0050673Y0131431D01*
X0047470Y0131431D01*
X0048538Y0133607D02*
X0050673Y0133607D01*
X0051740Y0134674D01*
X0051740Y0136809D01*
X0050673Y0137877D01*
X0049605Y0137877D01*
X0049605Y0133607D01*
X0048538Y0133607D02*
X0047470Y0134674D01*
X0047470Y0136809D01*
X0047470Y0140052D02*
X0047470Y0144322D01*
X0051740Y0144322D02*
X0047470Y0140052D01*
X0051740Y0140052D02*
X0051740Y0144322D01*
X0051740Y0152943D02*
X0047470Y0152943D01*
X0050673Y0152943D02*
X0050673Y0157213D01*
X0051740Y0157213D02*
X0047470Y0157213D01*
X0047470Y0159389D02*
X0051740Y0159389D01*
X0051740Y0162591D01*
X0050673Y0163659D01*
X0047470Y0163659D01*
X0047470Y0165834D02*
X0047470Y0167969D01*
X0047470Y0166902D02*
X0051740Y0166902D01*
X0051740Y0165834D01*
X0053875Y0166902D02*
X0054943Y0166902D01*
X0053875Y0170131D02*
X0053875Y0171199D01*
X0047470Y0171199D01*
X0047470Y0172266D02*
X0047470Y0170131D01*
X0047470Y0174428D02*
X0047470Y0176563D01*
X0047470Y0175496D02*
X0053875Y0175496D01*
X0053875Y0174428D01*
X0050673Y0178725D02*
X0048538Y0178725D01*
X0047470Y0179793D01*
X0047470Y0181928D01*
X0048538Y0182995D01*
X0050673Y0182995D01*
X0051740Y0181928D01*
X0051740Y0179793D01*
X0050673Y0178725D01*
X0051740Y0157213D02*
X0053875Y0155078D01*
X0051740Y0152943D01*
X0051740Y0128229D02*
X0050673Y0127161D01*
X0051740Y0124986D02*
X0051740Y0121783D01*
X0050673Y0120716D01*
X0048538Y0120716D01*
D11*
X0092674Y0066761D02*
X0092674Y0188808D01*
X0163540Y0188808D01*
X0163540Y0066761D01*
X0092674Y0066761D01*
M02*
