%
M48
M72
T01C0.0236
T02C0.0315
T03C0.0320
T04C0.0394
T05C0.0400
T06C0.0440
T07C0.0550
T08C0.0630
T09C0.0870
T10C0.1181
T11C0.1250
T12C0.1260
T13C0.1300
T14C0.1600
%
T01
X19239Y19931
T02
X26814Y22702
X26814Y23702
X26814Y24702
X26814Y25702
X26814Y26702
X26814Y27702
X26814Y28702
X26814Y29702
X26814Y30702
X25483Y32741
X24696Y32741
X23908Y32741
X23121Y32741
X22334Y32741
X21546Y32741
X20759Y32741
X19971Y32741
X19184Y32741
X18397Y32741
X18397Y41403
X19184Y41403
X19971Y41403
X20759Y41403
X21546Y41403
X22334Y41403
X23121Y41403
X23908Y41403
X24696Y41403
X25483Y41403
X39626Y29661
X40571Y29661
X41516Y29661
X42500Y29661
X43406Y29661
X47221Y31871
X48221Y31871
X49221Y31871
X50221Y31871
X51221Y31871
X52221Y31871
X53221Y31871
X54221Y31871
X55221Y31871
X56786Y31909
X56786Y32909
X57786Y32909
X57786Y31909
X57786Y30909
X56786Y30909
X56786Y29909
X56786Y28909
X57786Y28909
X57786Y29909
X57786Y27909
X56786Y27909
X56786Y26909
X56786Y25909
X57786Y25909
X57786Y26909
X57786Y24909
X56786Y24909
X56786Y23909
X56786Y22909
X57786Y22909
X57786Y23909
X57786Y21909
X56786Y21909
X56786Y20909
X57786Y20909
X57786Y19909
X56786Y19909
X56786Y18909
X57786Y18909
X57786Y33909
X56786Y33909
X56786Y34909
X57786Y34909
X57786Y35909
X56786Y35909
T03
X63069Y29458
X64069Y29458
T04
X53786Y35909
X52786Y35909
X51786Y35909
X50786Y35909
X49786Y35909
X48786Y35909
X47786Y35909
X46786Y35909
X44786Y35909
X43786Y35909
X42786Y35909
X41786Y35909
X40786Y35909
X39786Y35909
X38786Y35909
X37786Y35909
X36186Y35909
X35186Y35909
X34186Y35909
X33186Y35909
X32186Y35909
X31186Y35909
X30186Y35909
X29186Y35909
X28186Y35909
X27186Y35909
X43333Y45561
X44836Y27909
X45836Y27909
X45836Y26909
X44836Y26909
X44836Y25909
X45836Y25909
X45786Y16909
X44786Y16909
X43786Y16909
X42786Y16909
X41786Y16909
X40786Y16909
X39786Y16909
X37786Y16909
X36786Y16909
X35786Y16909
X34786Y16909
X33786Y16909
X32786Y16909
X31786Y16909
X30786Y16909
X27373Y14066
X26192Y12176
X24971Y14066
X43333Y9931
X46786Y16909
X48786Y16909
X49786Y16909
X50786Y16909
X51786Y16909
X52786Y16909
X53786Y16909
X54786Y16909
X55786Y16909
T05
X56260Y10473
X55260Y10473
X54260Y10473
X50837Y10690
X49837Y10690
X48837Y10690
X47837Y10690
X46837Y10690
X42266Y10513
X41266Y10513
X40266Y10513
X38066Y10553
X37066Y10553
X36066Y10553
X33946Y10553
X32946Y10553
X31946Y10553
X29506Y10633
X28506Y10633
X27506Y10633
X25014Y8651
X24014Y8651
X58614Y10473
X59614Y10473
X60614Y10473
X68251Y14124
X68251Y15124
X68251Y16124
X68251Y17124
X68251Y18124
X68251Y19124
X68251Y21317
X68251Y22317
X68251Y23317
X68251Y24317
X68251Y25317
X68251Y33628
X68251Y34628
X68251Y35628
X68251Y36628
X68251Y38746
X68251Y39746
X68251Y40746
X68251Y41746
X59833Y44651
X58833Y44651
X57833Y44651
X56833Y44651
X54321Y44651
X53321Y44651
X52321Y44651
X51321Y44651
X48703Y44651
X47703Y44651
X46703Y44651
T06
X18703Y15809
X19703Y15809
X20703Y15809
T07
X66782Y29616
T08
X59514Y26466
X53018Y21151
X51089Y22332
X50774Y28415
X48451Y34694
X47270Y34458
X48727Y37962
X49672Y38612
X44632Y42883
X34121Y34143
X31798Y32687
X35499Y30757
X37664Y28828
X40026Y27057
X38845Y26269
X43569Y31387
X42388Y32175
X31955Y41348
X20774Y27569
X31837Y19498
X36522Y19498
T09
X66782Y27416
X69782Y29616
X66782Y31816
T10
X66955Y45561
X66955Y9931
X19711Y9931
X16562Y27746
X19711Y45561
T11
X25786Y35909
X25286Y16909
X55286Y35909
X57786Y16909
T12
X44508Y33794
X38524Y33794
T13
X19703Y9909
T14
X47221Y20471
X55221Y20471
M30
