G75*
%MOIN*%
%OFA0B0*%
%FSLAX25Y25*%
%IPPOS*%
%LPD*%
%AMOC8*
5,1,8,0,0,1.08239X$1,22.5*
%
%ADD10OC8,0.08250*%
%ADD11OC8,0.12700*%
%ADD12C,0.05550*%
%ADD13C,0.06400*%
%ADD14C,0.07874*%
%ADD15C,0.06800*%
%ADD16C,0.06337*%
%ADD17C,0.06337*%
%ADD18OC8,0.05550*%
%ADD19R,0.06600X0.06600*%
%ADD20OC8,0.05600*%
%ADD21C,0.06600*%
%ADD22C,0.09449*%
%ADD23C,0.04000*%
%ADD24C,0.05600*%
%ADD25C,0.07000*%
%ADD26R,0.03962X0.03962*%
%ADD27C,0.03200*%
D10*
X0667821Y0296157D03*
D11*
X0667821Y0318157D03*
X0697821Y0296157D03*
X0667821Y0274157D03*
D12*
X0577865Y0279088D03*
X0567865Y0279088D03*
X0567865Y0269088D03*
X0567865Y0259088D03*
X0577865Y0259088D03*
X0577865Y0269088D03*
X0577865Y0249088D03*
X0567865Y0249088D03*
X0567865Y0239088D03*
X0567865Y0229088D03*
X0577865Y0229088D03*
X0577865Y0239088D03*
X0577865Y0219088D03*
X0577865Y0209088D03*
X0567865Y0209088D03*
X0567865Y0219088D03*
X0567865Y0199088D03*
X0577865Y0199088D03*
X0577865Y0189088D03*
X0567865Y0189088D03*
X0567865Y0289088D03*
X0577865Y0289088D03*
X0577865Y0299088D03*
X0567865Y0299088D03*
X0567865Y0309088D03*
X0577865Y0309088D03*
X0577865Y0319088D03*
X0567865Y0319088D03*
X0567865Y0329088D03*
X0577865Y0329088D03*
X0577865Y0339088D03*
X0567865Y0339088D03*
X0567865Y0349088D03*
X0577865Y0349088D03*
X0577865Y0359088D03*
X0567865Y0359088D03*
X0254832Y0327413D03*
X0246958Y0327413D03*
X0239084Y0327413D03*
X0231210Y0327413D03*
X0223336Y0327413D03*
X0215462Y0327413D03*
X0207588Y0327413D03*
X0199714Y0327413D03*
X0191840Y0327413D03*
X0183966Y0327413D03*
X0183966Y0414027D03*
X0191840Y0414027D03*
X0199714Y0414027D03*
X0207588Y0414027D03*
X0215462Y0414027D03*
X0223336Y0414027D03*
X0231210Y0414027D03*
X0239084Y0414027D03*
X0246958Y0414027D03*
X0254832Y0414027D03*
D13*
X0467033Y0445712D02*
X0467033Y0447312D01*
X0477033Y0447312D02*
X0477033Y0445712D01*
X0487033Y0445712D02*
X0487033Y0447312D01*
X0513215Y0447312D02*
X0513215Y0445712D01*
X0523215Y0445712D02*
X0523215Y0447312D01*
X0533215Y0447312D02*
X0533215Y0445712D01*
X0543215Y0445712D02*
X0543215Y0447312D01*
X0568333Y0447312D02*
X0568333Y0445712D01*
X0578333Y0445712D02*
X0578333Y0447312D01*
X0588333Y0447312D02*
X0588333Y0445712D01*
X0598333Y0445712D02*
X0598333Y0447312D01*
X0681706Y0417457D02*
X0683306Y0417457D01*
X0683306Y0407457D02*
X0681706Y0407457D01*
X0681706Y0397457D02*
X0683306Y0397457D01*
X0683306Y0387457D02*
X0681706Y0387457D01*
X0681706Y0366276D02*
X0683306Y0366276D01*
X0683306Y0356276D02*
X0681706Y0356276D01*
X0681706Y0346276D02*
X0683306Y0346276D01*
X0683306Y0336276D02*
X0681706Y0336276D01*
X0681706Y0253165D02*
X0683306Y0253165D01*
X0683306Y0243165D02*
X0681706Y0243165D01*
X0681706Y0233165D02*
X0683306Y0233165D01*
X0683306Y0223165D02*
X0681706Y0223165D01*
X0681706Y0213165D02*
X0683306Y0213165D01*
X0683306Y0191236D02*
X0681706Y0191236D01*
X0681706Y0181236D02*
X0683306Y0181236D01*
X0683306Y0171236D02*
X0681706Y0171236D01*
X0681706Y0161236D02*
X0683306Y0161236D01*
X0683306Y0151236D02*
X0681706Y0151236D01*
X0681706Y0141236D02*
X0683306Y0141236D01*
X0606139Y0105529D02*
X0606139Y0103929D01*
X0596139Y0103929D02*
X0596139Y0105529D01*
X0586139Y0105529D02*
X0586139Y0103929D01*
X0562602Y0103929D02*
X0562602Y0105529D01*
X0552602Y0105529D02*
X0552602Y0103929D01*
X0542602Y0103929D02*
X0542602Y0105529D01*
X0508367Y0106101D02*
X0508367Y0107701D01*
X0498367Y0107701D02*
X0498367Y0106101D01*
X0488367Y0106101D02*
X0488367Y0107701D01*
X0478367Y0107701D02*
X0478367Y0106101D01*
X0468367Y0106101D02*
X0468367Y0107701D01*
X0422665Y0105929D02*
X0422665Y0104329D01*
X0412665Y0104329D02*
X0412665Y0105929D01*
X0402665Y0105929D02*
X0402665Y0104329D01*
X0380665Y0104729D02*
X0380665Y0106329D01*
X0370665Y0106329D02*
X0370665Y0104729D01*
X0360665Y0104729D02*
X0360665Y0106329D01*
X0339465Y0106329D02*
X0339465Y0104729D01*
X0329465Y0104729D02*
X0329465Y0106329D01*
X0319465Y0106329D02*
X0319465Y0104729D01*
X0295065Y0105529D02*
X0295065Y0107129D01*
X0285065Y0107129D02*
X0285065Y0105529D01*
X0275065Y0105529D02*
X0275065Y0107129D01*
X0250144Y0087312D02*
X0250144Y0085712D01*
X0240144Y0085712D02*
X0240144Y0087312D01*
D14*
X0260931Y0121759D02*
X0262900Y0121759D01*
X0273726Y0139672D02*
X0273726Y0141641D01*
X0249711Y0141641D02*
X0249711Y0139672D01*
D15*
X0207029Y0157243D02*
X0207029Y0158943D01*
X0197029Y0158943D02*
X0197029Y0157243D01*
X0187029Y0157243D02*
X0187029Y0158943D01*
D16*
X0307865Y0168296D02*
X0307865Y0169880D01*
X0317865Y0169880D02*
X0317865Y0168296D01*
X0327865Y0168296D02*
X0327865Y0169880D01*
X0337865Y0169880D02*
X0337865Y0168296D01*
X0347865Y0168296D02*
X0347865Y0169880D01*
X0357865Y0169880D02*
X0357865Y0168296D01*
X0367865Y0168296D02*
X0367865Y0169880D01*
X0377865Y0169880D02*
X0377865Y0168296D01*
X0397865Y0168296D02*
X0397865Y0169880D01*
X0407865Y0169880D02*
X0407865Y0168296D01*
X0417865Y0168296D02*
X0417865Y0169880D01*
X0427865Y0169880D02*
X0427865Y0168296D01*
X0437865Y0168296D02*
X0437865Y0169880D01*
X0447865Y0169880D02*
X0447865Y0168296D01*
X0457865Y0168296D02*
X0457865Y0169880D01*
X0467865Y0169880D02*
X0467865Y0168296D01*
X0487865Y0168296D02*
X0487865Y0169880D01*
X0497865Y0169880D02*
X0497865Y0168296D01*
X0507865Y0168296D02*
X0507865Y0169880D01*
X0517865Y0169880D02*
X0517865Y0168296D01*
X0527865Y0168296D02*
X0527865Y0169880D01*
X0537865Y0169880D02*
X0537865Y0168296D01*
X0547865Y0168296D02*
X0547865Y0169880D01*
X0557865Y0169880D02*
X0557865Y0168296D01*
X0537865Y0358296D02*
X0537865Y0359880D01*
X0527865Y0359880D02*
X0527865Y0358296D01*
X0517865Y0358296D02*
X0517865Y0359880D01*
X0507865Y0359880D02*
X0507865Y0358296D01*
X0497865Y0358296D02*
X0497865Y0359880D01*
X0487865Y0359880D02*
X0487865Y0358296D01*
X0477865Y0358296D02*
X0477865Y0359880D01*
X0467865Y0359880D02*
X0467865Y0358296D01*
X0447865Y0358296D02*
X0447865Y0359880D01*
X0437865Y0359880D02*
X0437865Y0358296D01*
X0427865Y0358296D02*
X0427865Y0359880D01*
X0417865Y0359880D02*
X0417865Y0358296D01*
X0407865Y0358296D02*
X0407865Y0359880D01*
X0397865Y0359880D02*
X0397865Y0358296D01*
X0387865Y0358296D02*
X0387865Y0359880D01*
X0377865Y0359880D02*
X0377865Y0358296D01*
X0361865Y0358296D02*
X0361865Y0359880D01*
X0351865Y0359880D02*
X0351865Y0358296D01*
X0341865Y0358296D02*
X0341865Y0359880D01*
X0331865Y0359880D02*
X0331865Y0358296D01*
X0321865Y0358296D02*
X0321865Y0359880D01*
X0311865Y0359880D02*
X0311865Y0358296D01*
X0301865Y0358296D02*
X0301865Y0359880D01*
X0291865Y0359880D02*
X0291865Y0358296D01*
X0281865Y0358296D02*
X0281865Y0359880D01*
X0271865Y0359880D02*
X0271865Y0358296D01*
D17*
X0448365Y0279088D03*
X0458365Y0279088D03*
X0458365Y0269088D03*
X0458365Y0259088D03*
X0448365Y0259088D03*
X0448365Y0269088D03*
D18*
X0472215Y0318710D03*
X0482215Y0318710D03*
X0492215Y0318710D03*
X0502215Y0318710D03*
X0512215Y0318710D03*
X0522215Y0318710D03*
X0532215Y0318710D03*
X0542215Y0318710D03*
X0552215Y0318710D03*
X0268136Y0307024D03*
X0268136Y0297024D03*
X0268136Y0287024D03*
X0268136Y0277024D03*
X0268136Y0267024D03*
X0268136Y0257024D03*
X0268136Y0247024D03*
X0268136Y0237024D03*
X0268136Y0227024D03*
D19*
X0396262Y0296606D03*
X0405711Y0296606D03*
X0415159Y0296606D03*
X0425002Y0296606D03*
X0434057Y0296606D03*
D20*
X0630695Y0294583D03*
X0640695Y0294583D03*
D21*
X0162228Y0114758D02*
X0162437Y0112098D01*
X0162437Y0112842D01*
X0162363Y0114167D01*
X0162228Y0114758D01*
X0162379Y0112836D02*
X0162437Y0112836D01*
X0178637Y0112836D02*
X0186306Y0112836D01*
X0186406Y0112936D02*
X0183185Y0109715D01*
X0180908Y0105770D01*
X0179729Y0101370D01*
X0179729Y0096815D01*
X0180908Y0092415D01*
X0183185Y0088470D01*
X0186406Y0085249D01*
X0190351Y0082972D01*
X0194751Y0081793D01*
X0199306Y0081793D01*
X0203706Y0082972D01*
X0207651Y0085249D01*
X0210872Y0088470D01*
X0213150Y0092415D01*
X0214329Y0096815D01*
X0214329Y0101370D01*
X0213150Y0105770D01*
X0210872Y0109715D01*
X0207651Y0112936D01*
X0203706Y0115214D01*
X0199306Y0116393D01*
X0194751Y0116393D01*
X0190351Y0115214D01*
X0186406Y0112936D01*
X0181177Y0106237D02*
X0178637Y0106237D01*
X0178637Y0099639D02*
X0179729Y0099639D01*
X0180740Y0093040D02*
X0178637Y0093040D01*
X0178637Y0086442D02*
X0185214Y0086442D01*
X0178637Y0079843D02*
X0231408Y0079843D01*
X0231742Y0079265D02*
X0233697Y0077310D01*
X0236091Y0075927D01*
X0238761Y0075212D01*
X0241526Y0075212D01*
X0244197Y0075927D01*
X0245144Y0076474D01*
X0246091Y0075927D01*
X0248761Y0075212D01*
X0251526Y0075212D01*
X0254197Y0075927D01*
X0256591Y0077310D01*
X0258546Y0079265D01*
X0259928Y0081659D01*
X0260644Y0084329D01*
X0260644Y0088694D01*
X0259928Y0091365D01*
X0258546Y0093759D01*
X0256591Y0095714D01*
X0254197Y0097096D01*
X0251526Y0097812D01*
X0248761Y0097812D01*
X0246091Y0097096D01*
X0245144Y0096549D01*
X0244197Y0097096D01*
X0241526Y0097812D01*
X0238761Y0097812D01*
X0236091Y0097096D01*
X0233697Y0095714D01*
X0231742Y0093759D01*
X0230359Y0091365D01*
X0229644Y0088694D01*
X0229644Y0084329D01*
X0230359Y0081659D01*
X0231742Y0079265D01*
X0229644Y0086442D02*
X0208843Y0086442D01*
X0213317Y0093040D02*
X0231327Y0093040D01*
X0214329Y0099639D02*
X0266342Y0099639D01*
X0266663Y0099082D02*
X0268618Y0097127D01*
X0271012Y0095745D01*
X0273683Y0095029D01*
X0276447Y0095029D01*
X0279118Y0095745D01*
X0280065Y0096292D01*
X0281012Y0095745D01*
X0283683Y0095029D01*
X0286447Y0095029D01*
X0289118Y0095745D01*
X0291512Y0097127D01*
X0292929Y0098544D01*
X0293638Y0098354D01*
X0294586Y0098229D01*
X0295065Y0098229D01*
X0295543Y0098229D01*
X0296492Y0098354D01*
X0297416Y0098602D01*
X0298301Y0098968D01*
X0299129Y0099446D01*
X0299889Y0100029D01*
X0300565Y0100706D01*
X0301148Y0101465D01*
X0301626Y0102293D01*
X0301992Y0103178D01*
X0302240Y0104102D01*
X0302365Y0105051D01*
X0302365Y0106329D01*
X0295665Y0106329D01*
X0295665Y0106329D01*
X0302365Y0106329D01*
X0302365Y0107608D01*
X0302240Y0108556D01*
X0301992Y0109481D01*
X0301626Y0110365D01*
X0301148Y0111193D01*
X0300565Y0111953D01*
X0299889Y0112629D01*
X0299129Y0113212D01*
X0298301Y0113690D01*
X0297416Y0114057D01*
X0296492Y0114304D01*
X0295665Y0114413D01*
X0295665Y0143499D01*
X0298747Y0146581D01*
X0312407Y0146581D01*
X0318865Y0140123D01*
X0318865Y0116829D01*
X0318083Y0116829D01*
X0315412Y0116114D01*
X0313018Y0114731D01*
X0311063Y0112776D01*
X0309681Y0110382D01*
X0308965Y0107711D01*
X0308965Y0103347D01*
X0309681Y0100676D01*
X0311063Y0098282D01*
X0313018Y0096327D01*
X0315412Y0094945D01*
X0318083Y0094229D01*
X0320847Y0094229D01*
X0323518Y0094945D01*
X0324465Y0095492D01*
X0325412Y0094945D01*
X0328083Y0094229D01*
X0330847Y0094229D01*
X0333518Y0094945D01*
X0335912Y0096327D01*
X0337329Y0097744D01*
X0338038Y0097554D01*
X0338986Y0097429D01*
X0339465Y0097429D01*
X0339943Y0097429D01*
X0340892Y0097554D01*
X0341816Y0097802D01*
X0342701Y0098168D01*
X0343529Y0098646D01*
X0344289Y0099229D01*
X0344965Y0099906D01*
X0345548Y0100665D01*
X0346026Y0101493D01*
X0346392Y0102378D01*
X0346640Y0103302D01*
X0346765Y0104251D01*
X0346765Y0105529D01*
X0340065Y0105529D01*
X0340065Y0105529D01*
X0346765Y0105529D01*
X0346765Y0106808D01*
X0346640Y0107756D01*
X0346392Y0108681D01*
X0346026Y0109565D01*
X0345548Y0110393D01*
X0344965Y0111153D01*
X0344289Y0111829D01*
X0343529Y0112412D01*
X0342701Y0112890D01*
X0341816Y0113257D01*
X0340892Y0113504D01*
X0340065Y0113613D01*
X0340065Y0145909D01*
X0339885Y0146581D01*
X0352170Y0146581D01*
X0360065Y0138686D01*
X0360065Y0116829D01*
X0359283Y0116829D01*
X0356612Y0116114D01*
X0354218Y0114731D01*
X0352263Y0112776D01*
X0350881Y0110382D01*
X0350165Y0107711D01*
X0350165Y0103347D01*
X0350881Y0100676D01*
X0352263Y0098282D01*
X0354218Y0096327D01*
X0356612Y0094945D01*
X0359283Y0094229D01*
X0362047Y0094229D01*
X0364718Y0094945D01*
X0365665Y0095492D01*
X0366612Y0094945D01*
X0369283Y0094229D01*
X0372047Y0094229D01*
X0374718Y0094945D01*
X0377112Y0096327D01*
X0378529Y0097744D01*
X0379238Y0097554D01*
X0380186Y0097429D01*
X0380665Y0097429D01*
X0381143Y0097429D01*
X0382092Y0097554D01*
X0383016Y0097802D01*
X0383901Y0098168D01*
X0384729Y0098646D01*
X0385489Y0099229D01*
X0386165Y0099906D01*
X0386748Y0100665D01*
X0387226Y0101493D01*
X0387592Y0102378D01*
X0387840Y0103302D01*
X0387965Y0104251D01*
X0387965Y0105529D01*
X0381265Y0105529D01*
X0381265Y0105529D01*
X0387965Y0105529D01*
X0387965Y0106808D01*
X0387840Y0107756D01*
X0387592Y0108681D01*
X0387226Y0109565D01*
X0386748Y0110393D01*
X0386165Y0111153D01*
X0385489Y0111829D01*
X0384729Y0112412D01*
X0383901Y0112890D01*
X0383016Y0113257D01*
X0382092Y0113504D01*
X0381265Y0113613D01*
X0381265Y0144473D01*
X0380700Y0146581D01*
X0398627Y0146581D01*
X0402065Y0143143D01*
X0402065Y0116429D01*
X0401283Y0116429D01*
X0398612Y0115714D01*
X0396218Y0114331D01*
X0394263Y0112376D01*
X0392881Y0109982D01*
X0392165Y0107311D01*
X0392165Y0102947D01*
X0392881Y0100276D01*
X0394263Y0097882D01*
X0396218Y0095927D01*
X0398612Y0094545D01*
X0401283Y0093829D01*
X0404047Y0093829D01*
X0406718Y0094545D01*
X0407665Y0095092D01*
X0408612Y0094545D01*
X0411283Y0093829D01*
X0414047Y0093829D01*
X0416718Y0094545D01*
X0419112Y0095927D01*
X0420529Y0097344D01*
X0421238Y0097154D01*
X0422186Y0097029D01*
X0422665Y0097029D01*
X0423143Y0097029D01*
X0424092Y0097154D01*
X0424182Y0097178D01*
X0425475Y0094057D01*
X0428082Y0091450D01*
X0431489Y0090039D01*
X0435176Y0090039D01*
X0438583Y0091450D01*
X0441190Y0094057D01*
X0442601Y0097463D01*
X0442601Y0101151D01*
X0441190Y0104557D01*
X0438583Y0107165D01*
X0435176Y0108576D01*
X0431489Y0108576D01*
X0429711Y0107839D01*
X0429592Y0108281D01*
X0429226Y0109165D01*
X0428748Y0109993D01*
X0428165Y0110753D01*
X0427489Y0111429D01*
X0426729Y0112012D01*
X0425901Y0112490D01*
X0425016Y0112857D01*
X0424092Y0113104D01*
X0423265Y0113213D01*
X0423265Y0146581D01*
X0477761Y0146581D01*
X0487596Y0136746D01*
X0487702Y0118201D01*
X0486985Y0118201D01*
X0484314Y0117485D01*
X0483367Y0116938D01*
X0482420Y0117485D01*
X0479750Y0118201D01*
X0476985Y0118201D01*
X0474314Y0117485D01*
X0473367Y0116938D01*
X0472420Y0117485D01*
X0469750Y0118201D01*
X0466985Y0118201D01*
X0464314Y0117485D01*
X0461920Y0116103D01*
X0459965Y0114148D01*
X0458583Y0111754D01*
X0457867Y0109083D01*
X0457867Y0104718D01*
X0458583Y0102048D01*
X0459965Y0099654D01*
X0461920Y0097699D01*
X0464314Y0096316D01*
X0466985Y0095601D01*
X0469750Y0095601D01*
X0472420Y0096316D01*
X0473367Y0096863D01*
X0474314Y0096316D01*
X0476985Y0095601D01*
X0479750Y0095601D01*
X0482420Y0096316D01*
X0483367Y0096863D01*
X0484314Y0096316D01*
X0486985Y0095601D01*
X0489750Y0095601D01*
X0492420Y0096316D01*
X0493367Y0096863D01*
X0494314Y0096316D01*
X0496985Y0095601D01*
X0499750Y0095601D01*
X0502420Y0096316D01*
X0504814Y0097699D01*
X0506231Y0099116D01*
X0506940Y0098926D01*
X0507889Y0098801D01*
X0508367Y0098801D01*
X0508367Y0102852D01*
X0508367Y0102853D01*
X0508367Y0098801D01*
X0508846Y0098801D01*
X0509795Y0098926D01*
X0510719Y0099173D01*
X0511603Y0099540D01*
X0512432Y0100018D01*
X0513191Y0100601D01*
X0513868Y0101277D01*
X0514450Y0102036D01*
X0514929Y0102865D01*
X0515295Y0103749D01*
X0515542Y0104674D01*
X0515667Y0105622D01*
X0515667Y0106901D01*
X0515667Y0108179D01*
X0515542Y0109128D01*
X0515295Y0110052D01*
X0514929Y0110936D01*
X0514450Y0111765D01*
X0513868Y0112524D01*
X0513191Y0113201D01*
X0512432Y0113784D01*
X0511603Y0114262D01*
X0510719Y0114628D01*
X0509795Y0114876D01*
X0508921Y0114991D01*
X0508770Y0141192D01*
X0508770Y0142558D01*
X0508762Y0142588D01*
X0508762Y0142619D01*
X0508401Y0143935D01*
X0508048Y0145254D01*
X0508033Y0145280D01*
X0508024Y0145310D01*
X0507335Y0146489D01*
X0507282Y0146581D01*
X0529599Y0146581D01*
X0543302Y0132879D01*
X0543302Y0116029D01*
X0541220Y0116029D01*
X0538549Y0115314D01*
X0536155Y0113931D01*
X0534200Y0111976D01*
X0532818Y0109582D01*
X0532102Y0106911D01*
X0532102Y0102547D01*
X0532818Y0099876D01*
X0534200Y0097482D01*
X0536155Y0095527D01*
X0538549Y0094145D01*
X0541220Y0093429D01*
X0543984Y0093429D01*
X0546655Y0094145D01*
X0547602Y0094692D01*
X0548549Y0094145D01*
X0551220Y0093429D01*
X0553984Y0093429D01*
X0556655Y0094145D01*
X0559049Y0095527D01*
X0560466Y0096944D01*
X0561175Y0096754D01*
X0562123Y0096629D01*
X0562602Y0096629D01*
X0563080Y0096629D01*
X0564029Y0096754D01*
X0564954Y0097002D01*
X0565838Y0097368D01*
X0566666Y0097846D01*
X0567426Y0098429D01*
X0568102Y0099106D01*
X0568685Y0099865D01*
X0569163Y0100693D01*
X0569529Y0101578D01*
X0569777Y0102502D01*
X0569902Y0103451D01*
X0569902Y0104729D01*
X0563102Y0104729D01*
X0563102Y0104729D01*
X0569902Y0104729D01*
X0569902Y0106008D01*
X0569777Y0106956D01*
X0569529Y0107881D01*
X0569163Y0108765D01*
X0568685Y0109593D01*
X0568102Y0110353D01*
X0567426Y0111029D01*
X0566666Y0111612D01*
X0565838Y0112090D01*
X0564954Y0112457D01*
X0564029Y0112704D01*
X0563080Y0112829D01*
X0562602Y0112829D01*
X0562602Y0108777D01*
X0562602Y0108778D01*
X0562602Y0112829D01*
X0562123Y0112829D01*
X0561902Y0112800D01*
X0561902Y0138581D01*
X0560486Y0141999D01*
X0555904Y0146581D01*
X0583930Y0146581D01*
X0586839Y0143672D01*
X0586839Y0116029D01*
X0584757Y0116029D01*
X0582086Y0115314D01*
X0579692Y0113931D01*
X0577737Y0111976D01*
X0576355Y0109582D01*
X0575639Y0106911D01*
X0575639Y0102547D01*
X0576355Y0099876D01*
X0577737Y0097482D01*
X0579692Y0095527D01*
X0582086Y0094145D01*
X0584757Y0093429D01*
X0587521Y0093429D01*
X0590192Y0094145D01*
X0591139Y0094692D01*
X0592086Y0094145D01*
X0594757Y0093429D01*
X0597521Y0093429D01*
X0600192Y0094145D01*
X0602586Y0095527D01*
X0604003Y0096944D01*
X0604712Y0096754D01*
X0605660Y0096629D01*
X0606139Y0096629D01*
X0606617Y0096629D01*
X0607566Y0096754D01*
X0608491Y0097002D01*
X0609375Y0097368D01*
X0610203Y0097846D01*
X0610963Y0098429D01*
X0611639Y0099106D01*
X0612222Y0099865D01*
X0612700Y0100693D01*
X0613066Y0101578D01*
X0613314Y0102502D01*
X0613439Y0103451D01*
X0613439Y0104729D01*
X0606639Y0104729D01*
X0606639Y0104729D01*
X0613439Y0104729D01*
X0613439Y0106008D01*
X0613314Y0106956D01*
X0613066Y0107881D01*
X0612700Y0108765D01*
X0612222Y0109593D01*
X0611639Y0110353D01*
X0610963Y0111029D01*
X0610203Y0111612D01*
X0609375Y0112090D01*
X0608491Y0112457D01*
X0607566Y0112704D01*
X0606617Y0112829D01*
X0606139Y0112829D01*
X0606139Y0108777D01*
X0606139Y0108778D01*
X0606139Y0112829D01*
X0605660Y0112829D01*
X0605439Y0112800D01*
X0605439Y0149374D01*
X0604023Y0152792D01*
X0601407Y0155409D01*
X0600554Y0156262D01*
X0611495Y0167203D01*
X0613468Y0169176D01*
X0614864Y0171594D01*
X0615521Y0174045D01*
X0616214Y0173352D01*
X0619632Y0171936D01*
X0671206Y0171936D01*
X0671206Y0169854D01*
X0671921Y0167183D01*
X0672468Y0166236D01*
X0671921Y0165289D01*
X0671206Y0162619D01*
X0671206Y0159854D01*
X0671921Y0157183D01*
X0672468Y0156236D01*
X0671921Y0155289D01*
X0671206Y0152619D01*
X0671206Y0149854D01*
X0671921Y0147183D01*
X0672468Y0146236D01*
X0671921Y0145289D01*
X0671206Y0142619D01*
X0671206Y0139854D01*
X0671921Y0137183D01*
X0673304Y0134789D01*
X0675259Y0132834D01*
X0677653Y0131452D01*
X0680324Y0130736D01*
X0684688Y0130736D01*
X0687359Y0131452D01*
X0689753Y0132834D01*
X0691708Y0134789D01*
X0693090Y0137183D01*
X0693806Y0139854D01*
X0693806Y0142619D01*
X0693090Y0145289D01*
X0692543Y0146236D01*
X0693090Y0147183D01*
X0693806Y0149854D01*
X0693806Y0152619D01*
X0693090Y0155289D01*
X0692543Y0156236D01*
X0693090Y0157183D01*
X0693806Y0159854D01*
X0693806Y0162619D01*
X0693090Y0165289D01*
X0692543Y0166236D01*
X0693090Y0167183D01*
X0693806Y0169854D01*
X0693806Y0172619D01*
X0693090Y0175289D01*
X0692543Y0176236D01*
X0693090Y0177183D01*
X0693806Y0179854D01*
X0693806Y0182619D01*
X0693090Y0185289D01*
X0691708Y0187683D01*
X0690291Y0189100D01*
X0690481Y0189809D01*
X0690606Y0190758D01*
X0690606Y0191236D01*
X0686555Y0191236D01*
X0686554Y0191236D01*
X0690606Y0191236D01*
X0690606Y0191715D01*
X0690481Y0192663D01*
X0690233Y0193588D01*
X0689867Y0194472D01*
X0689389Y0195301D01*
X0688806Y0196060D01*
X0688129Y0196736D01*
X0687370Y0197319D01*
X0686542Y0197797D01*
X0685657Y0198164D01*
X0684733Y0198411D01*
X0683784Y0198536D01*
X0682506Y0198536D01*
X0682506Y0191736D01*
X0682506Y0191736D01*
X0682506Y0198536D01*
X0681227Y0198536D01*
X0680279Y0198411D01*
X0679354Y0198164D01*
X0678470Y0197797D01*
X0677642Y0197319D01*
X0676882Y0196736D01*
X0676206Y0196060D01*
X0675623Y0195301D01*
X0675145Y0194472D01*
X0674778Y0193588D01*
X0674531Y0192663D01*
X0674406Y0191715D01*
X0674406Y0191236D01*
X0674406Y0190758D01*
X0674435Y0190536D01*
X0625334Y0190536D01*
X0615586Y0200284D01*
X0615586Y0233865D01*
X0671206Y0233865D01*
X0671206Y0231783D01*
X0671921Y0229112D01*
X0672468Y0228165D01*
X0671921Y0227218D01*
X0671206Y0224548D01*
X0671206Y0221783D01*
X0671921Y0219112D01*
X0672468Y0218165D01*
X0671921Y0217218D01*
X0671206Y0214548D01*
X0671206Y0211783D01*
X0671921Y0209112D01*
X0673304Y0206718D01*
X0675259Y0204763D01*
X0677653Y0203381D01*
X0680324Y0202665D01*
X0684688Y0202665D01*
X0687359Y0203381D01*
X0689753Y0204763D01*
X0691708Y0206718D01*
X0693090Y0209112D01*
X0693806Y0211783D01*
X0693806Y0214548D01*
X0693090Y0217218D01*
X0692543Y0218165D01*
X0693090Y0219112D01*
X0693806Y0221783D01*
X0693806Y0224548D01*
X0693090Y0227218D01*
X0692543Y0228165D01*
X0693090Y0229112D01*
X0693806Y0231783D01*
X0693806Y0234548D01*
X0693090Y0237218D01*
X0692543Y0238165D01*
X0693090Y0239112D01*
X0693806Y0241783D01*
X0693806Y0244548D01*
X0693090Y0247218D01*
X0691708Y0249612D01*
X0690291Y0251029D01*
X0690481Y0251738D01*
X0690606Y0252687D01*
X0690606Y0253165D01*
X0686555Y0253165D01*
X0686554Y0253165D01*
X0690606Y0253165D01*
X0690606Y0253644D01*
X0690481Y0254593D01*
X0690233Y0255517D01*
X0689867Y0256401D01*
X0689389Y0257230D01*
X0688806Y0257989D01*
X0688129Y0258666D01*
X0687370Y0259248D01*
X0686542Y0259727D01*
X0685657Y0260093D01*
X0684733Y0260340D01*
X0683784Y0260465D01*
X0682506Y0260465D01*
X0682506Y0253665D01*
X0682506Y0253665D01*
X0682506Y0260465D01*
X0681227Y0260465D01*
X0680279Y0260340D01*
X0679354Y0260093D01*
X0678470Y0259727D01*
X0677642Y0259248D01*
X0676882Y0258666D01*
X0676206Y0257989D01*
X0675623Y0257230D01*
X0675145Y0256401D01*
X0674778Y0255517D01*
X0674531Y0254593D01*
X0674406Y0253644D01*
X0674406Y0253165D01*
X0674406Y0252687D01*
X0674435Y0252465D01*
X0620492Y0252465D01*
X0615586Y0257371D01*
X0615586Y0357217D01*
X0616168Y0356976D01*
X0674435Y0356976D01*
X0674406Y0356754D01*
X0674406Y0356276D01*
X0678457Y0356276D01*
X0678458Y0356276D01*
X0678457Y0356276D01*
X0674406Y0356276D01*
X0674406Y0355797D01*
X0674531Y0354848D01*
X0674721Y0354140D01*
X0673304Y0352723D01*
X0671921Y0350328D01*
X0671206Y0347658D01*
X0671206Y0344893D01*
X0671921Y0342223D01*
X0672468Y0341276D01*
X0671921Y0340328D01*
X0671206Y0337658D01*
X0671206Y0334893D01*
X0671921Y0332223D01*
X0673304Y0329828D01*
X0675259Y0327873D01*
X0677653Y0326491D01*
X0680324Y0325776D01*
X0684688Y0325776D01*
X0687359Y0326491D01*
X0689753Y0327873D01*
X0691708Y0329828D01*
X0693090Y0332223D01*
X0693806Y0334893D01*
X0693806Y0337658D01*
X0693090Y0340328D01*
X0692543Y0341276D01*
X0693090Y0342223D01*
X0693806Y0344893D01*
X0693806Y0347658D01*
X0693090Y0350328D01*
X0691708Y0352723D01*
X0690291Y0354140D01*
X0690481Y0354848D01*
X0690606Y0355797D01*
X0690606Y0356276D01*
X0690606Y0356754D01*
X0690481Y0357703D01*
X0690291Y0358412D01*
X0691708Y0359828D01*
X0693090Y0362223D01*
X0693806Y0364893D01*
X0693806Y0367658D01*
X0693090Y0370328D01*
X0691708Y0372723D01*
X0689753Y0374678D01*
X0687359Y0376060D01*
X0684688Y0376776D01*
X0680324Y0376776D01*
X0677653Y0376060D01*
X0676814Y0375576D01*
X0621870Y0375576D01*
X0616255Y0381191D01*
X0616255Y0388559D01*
X0615586Y0390172D01*
X0615586Y0408157D01*
X0674435Y0408157D01*
X0674406Y0407935D01*
X0674406Y0407457D01*
X0678457Y0407457D01*
X0678458Y0407457D01*
X0678457Y0407457D01*
X0674406Y0407457D01*
X0674406Y0406978D01*
X0674531Y0406029D01*
X0674721Y0405321D01*
X0673304Y0403904D01*
X0671921Y0401510D01*
X0671206Y0398839D01*
X0671206Y0396074D01*
X0671921Y0393404D01*
X0672468Y0392457D01*
X0671921Y0391510D01*
X0671206Y0388839D01*
X0671206Y0386074D01*
X0671921Y0383404D01*
X0673304Y0381010D01*
X0675259Y0379055D01*
X0677653Y0377672D01*
X0680324Y0376957D01*
X0684688Y0376957D01*
X0687359Y0377672D01*
X0689753Y0379055D01*
X0691708Y0381010D01*
X0693090Y0383404D01*
X0693806Y0386074D01*
X0693806Y0388839D01*
X0693090Y0391510D01*
X0692543Y0392457D01*
X0693090Y0393404D01*
X0693806Y0396074D01*
X0693806Y0398839D01*
X0693090Y0401510D01*
X0691708Y0403904D01*
X0690291Y0405321D01*
X0690481Y0406029D01*
X0690606Y0406978D01*
X0690606Y0407457D01*
X0690606Y0407935D01*
X0690481Y0408884D01*
X0690291Y0409593D01*
X0691708Y0411010D01*
X0693090Y0413404D01*
X0693806Y0416074D01*
X0693806Y0418839D01*
X0693090Y0421510D01*
X0691708Y0423904D01*
X0689753Y0425859D01*
X0687359Y0427241D01*
X0684688Y0427957D01*
X0680324Y0427957D01*
X0677653Y0427241D01*
X0676814Y0426757D01*
X0614562Y0426757D01*
X0613468Y0428650D01*
X0611495Y0430624D01*
X0611495Y0430624D01*
X0605589Y0436529D01*
X0604509Y0437153D01*
X0604780Y0437310D01*
X0606735Y0439265D01*
X0608117Y0441659D01*
X0608833Y0444329D01*
X0608833Y0448694D01*
X0608117Y0451365D01*
X0606735Y0453759D01*
X0604780Y0455714D01*
X0602386Y0457096D01*
X0599715Y0457812D01*
X0596950Y0457812D01*
X0594280Y0457096D01*
X0593333Y0456549D01*
X0592386Y0457096D01*
X0589715Y0457812D01*
X0587633Y0457812D01*
X0587562Y0457909D01*
X0587280Y0458591D01*
X0586482Y0459389D01*
X0585816Y0460300D01*
X0585186Y0460685D01*
X0584664Y0461207D01*
X0583621Y0461639D01*
X0582658Y0462226D01*
X0581928Y0462340D01*
X0581246Y0462623D01*
X0580117Y0462623D01*
X0579002Y0462797D01*
X0578284Y0462623D01*
X0577546Y0462623D01*
X0576503Y0462191D01*
X0575406Y0461925D01*
X0574810Y0461490D01*
X0574128Y0461207D01*
X0573330Y0460409D01*
X0572418Y0459744D01*
X0572034Y0459113D01*
X0571512Y0458591D01*
X0571080Y0457548D01*
X0570492Y0456585D01*
X0570378Y0455855D01*
X0570096Y0455173D01*
X0570096Y0454397D01*
X0569760Y0454487D01*
X0568811Y0454612D01*
X0568333Y0454612D01*
X0568333Y0450560D01*
X0568333Y0454612D01*
X0567854Y0454612D01*
X0566905Y0454487D01*
X0565981Y0454239D01*
X0565097Y0453873D01*
X0564268Y0453395D01*
X0563509Y0452812D01*
X0562832Y0452135D01*
X0562250Y0451376D01*
X0561771Y0450547D01*
X0561405Y0449663D01*
X0561158Y0448739D01*
X0561033Y0447790D01*
X0561033Y0446512D01*
X0567833Y0446512D01*
X0567833Y0446512D01*
X0561033Y0446512D01*
X0561033Y0445233D01*
X0561158Y0444285D01*
X0561405Y0443360D01*
X0561771Y0442476D01*
X0562250Y0441647D01*
X0562832Y0440888D01*
X0563509Y0440212D01*
X0564268Y0439629D01*
X0565097Y0439151D01*
X0565981Y0438784D01*
X0566493Y0438647D01*
X0550999Y0438647D01*
X0551617Y0439265D01*
X0552999Y0441659D01*
X0553715Y0444329D01*
X0553715Y0448694D01*
X0552999Y0451365D01*
X0551617Y0453759D01*
X0549662Y0455714D01*
X0547267Y0457096D01*
X0544597Y0457812D01*
X0541832Y0457812D01*
X0539162Y0457096D01*
X0538215Y0456549D01*
X0537267Y0457096D01*
X0534597Y0457812D01*
X0532515Y0457812D01*
X0532444Y0457909D01*
X0532162Y0458591D01*
X0531364Y0459389D01*
X0530698Y0460300D01*
X0530068Y0460685D01*
X0529546Y0461207D01*
X0528503Y0461639D01*
X0527539Y0462226D01*
X0526810Y0462340D01*
X0526127Y0462623D01*
X0524999Y0462623D01*
X0523884Y0462797D01*
X0523166Y0462623D01*
X0522428Y0462623D01*
X0521385Y0462191D01*
X0520288Y0461925D01*
X0519692Y0461490D01*
X0519010Y0461207D01*
X0518212Y0460409D01*
X0517300Y0459744D01*
X0516916Y0459113D01*
X0516393Y0458591D01*
X0515962Y0457548D01*
X0515374Y0456585D01*
X0515260Y0455855D01*
X0514978Y0455173D01*
X0514978Y0454397D01*
X0514642Y0454487D01*
X0513693Y0454612D01*
X0513215Y0454612D01*
X0513215Y0450560D01*
X0513214Y0450560D02*
X0513214Y0454612D01*
X0512736Y0454612D01*
X0511787Y0454487D01*
X0510863Y0454239D01*
X0509979Y0453873D01*
X0509150Y0453395D01*
X0508391Y0452812D01*
X0507714Y0452135D01*
X0507132Y0451376D01*
X0506653Y0450547D01*
X0506287Y0449663D01*
X0506039Y0448739D01*
X0505915Y0447790D01*
X0505915Y0446512D01*
X0512715Y0446512D01*
X0512715Y0446512D01*
X0505915Y0446512D01*
X0505915Y0445233D01*
X0506039Y0444285D01*
X0506287Y0443360D01*
X0506653Y0442476D01*
X0507132Y0441647D01*
X0507714Y0440888D01*
X0508391Y0440212D01*
X0509150Y0439629D01*
X0509979Y0439151D01*
X0510863Y0438784D01*
X0511375Y0438647D01*
X0494818Y0438647D01*
X0495436Y0439265D01*
X0496818Y0441659D01*
X0497533Y0444329D01*
X0497533Y0448694D01*
X0496818Y0451365D01*
X0495436Y0453759D01*
X0493481Y0455714D01*
X0491086Y0457096D01*
X0488416Y0457812D01*
X0485651Y0457812D01*
X0482981Y0457096D01*
X0482033Y0456549D01*
X0481086Y0457096D01*
X0478416Y0457812D01*
X0475651Y0457812D01*
X0472981Y0457096D01*
X0470586Y0455714D01*
X0469169Y0454297D01*
X0468461Y0454487D01*
X0467512Y0454612D01*
X0467034Y0454612D01*
X0467034Y0450560D01*
X0467033Y0450560D02*
X0467033Y0454612D01*
X0466555Y0454612D01*
X0465606Y0454487D01*
X0464682Y0454239D01*
X0463798Y0453873D01*
X0462969Y0453395D01*
X0462210Y0452812D01*
X0461533Y0452135D01*
X0460951Y0451376D01*
X0460472Y0450547D01*
X0460106Y0449663D01*
X0459858Y0448739D01*
X0459733Y0447790D01*
X0459733Y0446512D01*
X0466533Y0446512D01*
X0466533Y0446512D01*
X0459733Y0446512D01*
X0459733Y0445233D01*
X0459858Y0444285D01*
X0460106Y0443360D01*
X0460472Y0442476D01*
X0460951Y0441647D01*
X0461533Y0440888D01*
X0462210Y0440212D01*
X0462969Y0439629D01*
X0463798Y0439151D01*
X0464682Y0438784D01*
X0465194Y0438647D01*
X0453378Y0438647D01*
X0450966Y0440040D01*
X0447908Y0440859D01*
X0444742Y0440859D01*
X0441684Y0440040D01*
X0438942Y0438457D01*
X0436703Y0436218D01*
X0435120Y0433476D01*
X0434300Y0430418D01*
X0434300Y0427252D01*
X0435120Y0424193D01*
X0436703Y0421451D01*
X0438942Y0419213D01*
X0441684Y0417630D01*
X0444742Y0416810D01*
X0447908Y0416810D01*
X0450285Y0417447D01*
X0594386Y0417447D01*
X0594386Y0276686D01*
X0593561Y0276686D01*
X0590502Y0275866D01*
X0587761Y0274283D01*
X0586961Y0273483D01*
X0586612Y0274088D01*
X0587253Y0275199D01*
X0587940Y0277762D01*
X0587940Y0280415D01*
X0587253Y0282977D01*
X0586612Y0284088D01*
X0587253Y0285199D01*
X0587940Y0287762D01*
X0587940Y0290415D01*
X0587253Y0292977D01*
X0586612Y0294088D01*
X0587253Y0295199D01*
X0587940Y0297762D01*
X0587940Y0300415D01*
X0587253Y0302977D01*
X0586612Y0304088D01*
X0587253Y0305199D01*
X0587940Y0307762D01*
X0587940Y0310415D01*
X0587253Y0312977D01*
X0586612Y0314088D01*
X0587253Y0315199D01*
X0587940Y0317762D01*
X0587940Y0320415D01*
X0587253Y0322977D01*
X0586612Y0324088D01*
X0587253Y0325199D01*
X0587940Y0327762D01*
X0587940Y0330415D01*
X0587253Y0332977D01*
X0586612Y0334088D01*
X0587253Y0335199D01*
X0587940Y0337762D01*
X0587940Y0340415D01*
X0587253Y0342977D01*
X0586612Y0344088D01*
X0587253Y0345199D01*
X0587940Y0347762D01*
X0587940Y0350415D01*
X0587253Y0352977D01*
X0586612Y0354088D01*
X0587253Y0355199D01*
X0587940Y0357762D01*
X0587940Y0360415D01*
X0587253Y0362977D01*
X0585927Y0365274D01*
X0584051Y0367150D01*
X0581754Y0368476D01*
X0579191Y0369163D01*
X0576539Y0369163D01*
X0573976Y0368476D01*
X0572865Y0367835D01*
X0571754Y0368476D01*
X0569191Y0369163D01*
X0566539Y0369163D01*
X0563976Y0368476D01*
X0563129Y0367987D01*
X0561185Y0369931D01*
X0558095Y0371715D01*
X0554649Y0372638D01*
X0551081Y0372638D01*
X0547635Y0371715D01*
X0544545Y0369931D01*
X0543392Y0368777D01*
X0541906Y0369635D01*
X0539243Y0370349D01*
X0536487Y0370349D01*
X0533824Y0369635D01*
X0532865Y0369082D01*
X0531906Y0369635D01*
X0529243Y0370349D01*
X0526487Y0370349D01*
X0523824Y0369635D01*
X0522865Y0369082D01*
X0521906Y0369635D01*
X0519243Y0370349D01*
X0516487Y0370349D01*
X0513824Y0369635D01*
X0512865Y0369082D01*
X0511906Y0369635D01*
X0509243Y0370349D01*
X0506487Y0370349D01*
X0503824Y0369635D01*
X0502865Y0369082D01*
X0501906Y0369635D01*
X0499243Y0370349D01*
X0496487Y0370349D01*
X0494192Y0369734D01*
X0494653Y0370000D01*
X0496892Y0372239D01*
X0497962Y0374094D01*
X0498302Y0374094D01*
X0501360Y0374913D01*
X0504102Y0376496D01*
X0506340Y0378735D01*
X0507923Y0381477D01*
X0508743Y0384535D01*
X0508743Y0387701D01*
X0507923Y0390759D01*
X0506340Y0393501D01*
X0504102Y0395740D01*
X0501360Y0397323D01*
X0498302Y0398143D01*
X0497280Y0398143D01*
X0494828Y0399158D01*
X0202743Y0399158D01*
X0199324Y0397742D01*
X0186572Y0384990D01*
X0183956Y0382374D01*
X0182540Y0378955D01*
X0182540Y0337975D01*
X0175696Y0337773D01*
X0174457Y0337773D01*
X0174304Y0337732D01*
X0174145Y0337727D01*
X0172958Y0337372D01*
X0171761Y0337051D01*
X0171623Y0336971D01*
X0171471Y0336926D01*
X0170417Y0336275D01*
X0169344Y0335655D01*
X0169232Y0335543D01*
X0169096Y0335460D01*
X0168246Y0334558D01*
X0167370Y0333682D01*
X0167291Y0333544D01*
X0167182Y0333429D01*
X0166594Y0332338D01*
X0165975Y0331265D01*
X0165934Y0331111D01*
X0165858Y0330972D01*
X0165573Y0329766D01*
X0165252Y0328569D01*
X0165252Y0328410D01*
X0165216Y0328256D01*
X0165252Y0327017D01*
X0165252Y0300471D01*
X0165975Y0297775D01*
X0167370Y0295358D01*
X0177260Y0285468D01*
X0177260Y0283699D01*
X0176183Y0285565D01*
X0173725Y0288024D01*
X0170713Y0289762D01*
X0167355Y0290662D01*
X0163878Y0290662D01*
X0160519Y0289762D01*
X0157508Y0288024D01*
X0155049Y0285565D01*
X0153311Y0282554D01*
X0152411Y0279195D01*
X0152411Y0275718D01*
X0153311Y0272360D01*
X0155049Y0269348D01*
X0157508Y0266890D01*
X0160519Y0265151D01*
X0163878Y0264251D01*
X0167355Y0264251D01*
X0170713Y0265151D01*
X0173725Y0266890D01*
X0176183Y0269348D01*
X0177260Y0271214D01*
X0177260Y0246140D01*
X0177983Y0243444D01*
X0179378Y0241027D01*
X0199724Y0220681D01*
X0201698Y0218707D01*
X0204115Y0217312D01*
X0206811Y0216589D01*
X0211078Y0216589D01*
X0211799Y0216394D01*
X0266724Y0216228D01*
X0266765Y0216217D01*
X0268145Y0216224D01*
X0269525Y0216219D01*
X0269566Y0216230D01*
X0299071Y0216370D01*
X0299071Y0205845D01*
X0298871Y0205099D01*
X0298871Y0202255D01*
X0299607Y0199509D01*
X0301029Y0197046D01*
X0306957Y0191117D01*
X0307167Y0190335D01*
X0308750Y0187593D01*
X0310989Y0185354D01*
X0313731Y0183771D01*
X0316789Y0182952D01*
X0319955Y0182952D01*
X0323013Y0183771D01*
X0325755Y0185354D01*
X0327994Y0187593D01*
X0329577Y0190335D01*
X0330396Y0193393D01*
X0330396Y0196559D01*
X0329577Y0199618D01*
X0327994Y0202360D01*
X0325755Y0204598D01*
X0323013Y0206181D01*
X0322231Y0206391D01*
X0320271Y0208351D01*
X0320271Y0222547D01*
X0331901Y0234176D01*
X0506056Y0234176D01*
X0508803Y0234912D01*
X0511266Y0236334D01*
X0521138Y0246207D01*
X0521506Y0246844D01*
X0559105Y0284111D01*
X0559118Y0284088D01*
X0558477Y0282977D01*
X0557790Y0280415D01*
X0557790Y0277762D01*
X0558477Y0275199D01*
X0559118Y0274088D01*
X0558477Y0272977D01*
X0557790Y0270415D01*
X0557790Y0267762D01*
X0558477Y0265199D01*
X0559118Y0264088D01*
X0558477Y0262977D01*
X0557790Y0260415D01*
X0557790Y0257762D01*
X0558477Y0255199D01*
X0559118Y0254088D01*
X0558477Y0252977D01*
X0557790Y0250415D01*
X0557790Y0247762D01*
X0558477Y0245199D01*
X0559118Y0244088D01*
X0558477Y0242977D01*
X0557790Y0240415D01*
X0557790Y0237762D01*
X0558477Y0235199D01*
X0559118Y0234088D01*
X0558477Y0232977D01*
X0557790Y0230415D01*
X0557790Y0227762D01*
X0558477Y0225199D01*
X0559118Y0224088D01*
X0558477Y0222977D01*
X0557790Y0220415D01*
X0557790Y0219056D01*
X0554229Y0220010D01*
X0550200Y0220010D01*
X0546309Y0218968D01*
X0542820Y0216953D01*
X0541522Y0215655D01*
X0541388Y0216153D01*
X0539805Y0218895D01*
X0537566Y0221134D01*
X0534824Y0222717D01*
X0531766Y0223536D01*
X0528600Y0223536D01*
X0525542Y0222717D01*
X0522800Y0221134D01*
X0520561Y0218895D01*
X0518978Y0216153D01*
X0518159Y0213095D01*
X0518159Y0209929D01*
X0518978Y0206871D01*
X0520561Y0204129D01*
X0520883Y0203807D01*
X0520883Y0191945D01*
X0522299Y0188527D01*
X0530929Y0179897D01*
X0529243Y0180349D01*
X0526487Y0180349D01*
X0523824Y0179635D01*
X0522865Y0179082D01*
X0521906Y0179635D01*
X0519243Y0180349D01*
X0516487Y0180349D01*
X0513824Y0179635D01*
X0512865Y0179082D01*
X0511906Y0179635D01*
X0509243Y0180349D01*
X0506487Y0180349D01*
X0503824Y0179635D01*
X0502865Y0179082D01*
X0501906Y0179635D01*
X0499243Y0180349D01*
X0496487Y0180349D01*
X0493824Y0179635D01*
X0492865Y0179082D01*
X0491906Y0179635D01*
X0489243Y0180349D01*
X0486487Y0180349D01*
X0483824Y0179635D01*
X0481437Y0178257D01*
X0479488Y0176308D01*
X0478110Y0173921D01*
X0477865Y0173007D01*
X0477620Y0173921D01*
X0476242Y0176308D01*
X0474293Y0178257D01*
X0471906Y0179635D01*
X0469243Y0180349D01*
X0466487Y0180349D01*
X0463824Y0179635D01*
X0462865Y0179082D01*
X0461906Y0179635D01*
X0459243Y0180349D01*
X0456487Y0180349D01*
X0453824Y0179635D01*
X0452865Y0179082D01*
X0451906Y0179635D01*
X0449243Y0180349D01*
X0446487Y0180349D01*
X0443824Y0179635D01*
X0442865Y0179082D01*
X0441906Y0179635D01*
X0439243Y0180349D01*
X0436487Y0180349D01*
X0433824Y0179635D01*
X0432865Y0179082D01*
X0431906Y0179635D01*
X0429243Y0180349D01*
X0426487Y0180349D01*
X0423824Y0179635D01*
X0422865Y0179082D01*
X0421906Y0179635D01*
X0419243Y0180349D01*
X0416487Y0180349D01*
X0413824Y0179635D01*
X0412865Y0179082D01*
X0411906Y0179635D01*
X0409243Y0180349D01*
X0406487Y0180349D01*
X0403824Y0179635D01*
X0402865Y0179082D01*
X0401906Y0179635D01*
X0399243Y0180349D01*
X0396487Y0180349D01*
X0393824Y0179635D01*
X0391437Y0178257D01*
X0389488Y0176308D01*
X0388110Y0173921D01*
X0387865Y0173007D01*
X0387620Y0173921D01*
X0386242Y0176308D01*
X0384293Y0178257D01*
X0381906Y0179635D01*
X0379243Y0180349D01*
X0376487Y0180349D01*
X0373824Y0179635D01*
X0371437Y0178257D01*
X0370010Y0176830D01*
X0369286Y0177024D01*
X0368341Y0177149D01*
X0367865Y0177149D01*
X0367865Y0173007D01*
X0367865Y0173007D01*
X0367865Y0177149D01*
X0367389Y0177149D01*
X0366444Y0177024D01*
X0365524Y0176778D01*
X0364643Y0176413D01*
X0363818Y0175937D01*
X0363062Y0175357D01*
X0362865Y0175160D01*
X0362668Y0175357D01*
X0361912Y0175937D01*
X0361087Y0176413D01*
X0360206Y0176778D01*
X0359286Y0177024D01*
X0358341Y0177149D01*
X0357865Y0177149D01*
X0357865Y0173007D01*
X0357865Y0177149D01*
X0357389Y0177149D01*
X0356444Y0177024D01*
X0355720Y0176830D01*
X0354293Y0178257D01*
X0351906Y0179635D01*
X0349243Y0180349D01*
X0346487Y0180349D01*
X0343824Y0179635D01*
X0342865Y0179082D01*
X0341906Y0179635D01*
X0339243Y0180349D01*
X0336487Y0180349D01*
X0333824Y0179635D01*
X0332865Y0179082D01*
X0331906Y0179635D01*
X0329243Y0180349D01*
X0326487Y0180349D01*
X0323824Y0179635D01*
X0322865Y0179082D01*
X0321906Y0179635D01*
X0319243Y0180349D01*
X0316487Y0180349D01*
X0313824Y0179635D01*
X0312865Y0179082D01*
X0311906Y0179635D01*
X0309243Y0180349D01*
X0306487Y0180349D01*
X0305047Y0179963D01*
X0305047Y0182723D01*
X0304359Y0185292D01*
X0303029Y0187595D01*
X0301148Y0189476D01*
X0292978Y0197647D01*
X0292012Y0199320D01*
X0283542Y0207789D01*
X0281125Y0209185D01*
X0278429Y0209907D01*
X0190992Y0209907D01*
X0188296Y0209185D01*
X0185879Y0207789D01*
X0183906Y0205816D01*
X0182510Y0203399D01*
X0181788Y0200703D01*
X0181788Y0197912D01*
X0182510Y0195216D01*
X0183906Y0192799D01*
X0185879Y0190825D01*
X0188296Y0189429D01*
X0190992Y0188707D01*
X0272643Y0188707D01*
X0277021Y0184329D01*
X0278694Y0183363D01*
X0284847Y0177210D01*
X0284847Y0162662D01*
X0276583Y0154398D01*
X0275187Y0151981D01*
X0274559Y0149638D01*
X0274253Y0149678D01*
X0273726Y0149678D01*
X0273200Y0149678D01*
X0272155Y0149540D01*
X0271137Y0149268D01*
X0270164Y0148865D01*
X0269252Y0148338D01*
X0268416Y0147696D01*
X0267671Y0146951D01*
X0267030Y0146116D01*
X0266503Y0145203D01*
X0266100Y0144230D01*
X0265827Y0143212D01*
X0265689Y0142168D01*
X0265689Y0140657D01*
X0273726Y0140657D01*
X0273726Y0140657D01*
X0273726Y0149678D01*
X0273726Y0140657D01*
X0273726Y0140657D01*
X0265689Y0140657D01*
X0265689Y0139146D01*
X0265827Y0138101D01*
X0266100Y0137083D01*
X0266503Y0136110D01*
X0267030Y0135198D01*
X0267671Y0134362D01*
X0268416Y0133617D01*
X0269252Y0132976D01*
X0270164Y0132449D01*
X0271137Y0132046D01*
X0272155Y0131773D01*
X0273200Y0131635D01*
X0273726Y0131635D01*
X0273726Y0140657D01*
X0273726Y0140657D01*
X0273726Y0131635D01*
X0274253Y0131635D01*
X0274465Y0131663D01*
X0274465Y0117629D01*
X0273683Y0117629D01*
X0271012Y0116914D01*
X0268618Y0115531D01*
X0266663Y0113576D01*
X0265281Y0111182D01*
X0264565Y0108511D01*
X0264565Y0104147D01*
X0265281Y0101476D01*
X0266663Y0099082D01*
X0264565Y0106237D02*
X0212880Y0106237D01*
X0207752Y0112836D02*
X0266235Y0112836D01*
X0265489Y0114132D02*
X0266462Y0114535D01*
X0267374Y0115062D01*
X0268210Y0115704D01*
X0268955Y0116449D01*
X0269596Y0117284D01*
X0270123Y0118197D01*
X0270526Y0119170D01*
X0270799Y0120188D01*
X0270937Y0121232D01*
X0270937Y0121759D01*
X0270937Y0122286D01*
X0270799Y0123330D01*
X0270526Y0124348D01*
X0270123Y0125321D01*
X0269596Y0126234D01*
X0268955Y0127070D01*
X0268210Y0127815D01*
X0267374Y0128456D01*
X0266462Y0128983D01*
X0265489Y0129386D01*
X0264471Y0129659D01*
X0263426Y0129796D01*
X0261915Y0129796D01*
X0260404Y0129796D01*
X0259360Y0129659D01*
X0258342Y0129386D01*
X0257369Y0128983D01*
X0256456Y0128456D01*
X0255621Y0127815D01*
X0254876Y0127070D01*
X0254234Y0126234D01*
X0253707Y0125321D01*
X0253304Y0124348D01*
X0253032Y0123330D01*
X0252894Y0122286D01*
X0252894Y0121759D01*
X0252894Y0121232D01*
X0253032Y0120188D01*
X0253304Y0119170D01*
X0253707Y0118197D01*
X0254234Y0117284D01*
X0254876Y0116449D01*
X0255621Y0115704D01*
X0256456Y0115062D01*
X0257369Y0114535D01*
X0258342Y0114132D01*
X0259360Y0113860D01*
X0260404Y0113722D01*
X0261915Y0113722D01*
X0261915Y0121759D01*
X0252894Y0121759D01*
X0261915Y0121759D01*
X0261915Y0121759D01*
X0261915Y0121759D01*
X0261915Y0129796D01*
X0261915Y0121759D01*
X0261915Y0121759D01*
X0261915Y0113722D01*
X0263426Y0113722D01*
X0264471Y0113860D01*
X0265489Y0114132D01*
X0261915Y0119434D02*
X0261915Y0119434D01*
X0261915Y0121759D02*
X0261915Y0121759D01*
X0270937Y0121759D01*
X0261915Y0121759D01*
X0261915Y0126033D02*
X0261915Y0126033D01*
X0256610Y0130681D02*
X0258702Y0132773D01*
X0260182Y0135335D01*
X0260948Y0138193D01*
X0260948Y0143120D01*
X0260182Y0145978D01*
X0258702Y0148541D01*
X0256610Y0150633D01*
X0254048Y0152112D01*
X0251190Y0152878D01*
X0248231Y0152878D01*
X0245373Y0152112D01*
X0242811Y0150633D01*
X0240719Y0148541D01*
X0239239Y0145978D01*
X0238474Y0143120D01*
X0238474Y0138193D01*
X0239239Y0135335D01*
X0240719Y0132773D01*
X0242811Y0130681D01*
X0245373Y0129201D01*
X0248231Y0128435D01*
X0251190Y0128435D01*
X0254048Y0129201D01*
X0256610Y0130681D01*
X0258561Y0132631D02*
X0269848Y0132631D01*
X0273726Y0132631D02*
X0273726Y0132631D01*
X0273726Y0139230D02*
X0273726Y0139230D01*
X0273726Y0145828D02*
X0273726Y0145828D01*
X0275445Y0152427D02*
X0252874Y0152427D01*
X0254649Y0155538D02*
X0251081Y0155538D01*
X0247635Y0156462D01*
X0244545Y0158245D01*
X0242022Y0160768D01*
X0240238Y0163858D01*
X0239315Y0167304D01*
X0239315Y0170872D01*
X0240238Y0174318D01*
X0242022Y0177408D01*
X0244545Y0179931D01*
X0247635Y0181715D01*
X0251081Y0182638D01*
X0254649Y0182638D01*
X0258095Y0181715D01*
X0261185Y0179931D01*
X0263708Y0177408D01*
X0265492Y0174318D01*
X0266415Y0170872D01*
X0266415Y0167304D01*
X0265492Y0163858D01*
X0263708Y0160768D01*
X0261185Y0158245D01*
X0258095Y0156462D01*
X0254649Y0155538D01*
X0261965Y0159025D02*
X0281210Y0159025D01*
X0285065Y0147890D02*
X0293766Y0156591D01*
X0294356Y0157181D01*
X0316797Y0157181D01*
X0329465Y0144513D01*
X0329465Y0105529D01*
X0339465Y0101481D02*
X0339465Y0097429D01*
X0339465Y0101481D01*
X0339465Y0101481D01*
X0339465Y0099639D02*
X0339465Y0099639D01*
X0344698Y0099639D02*
X0351480Y0099639D01*
X0350165Y0106237D02*
X0346765Y0106237D01*
X0342795Y0112836D02*
X0352322Y0112836D01*
X0360065Y0119434D02*
X0340065Y0119434D01*
X0340065Y0126033D02*
X0360065Y0126033D01*
X0360065Y0132631D02*
X0340065Y0132631D01*
X0340065Y0139230D02*
X0359522Y0139230D01*
X0352923Y0145828D02*
X0340065Y0145828D01*
X0356561Y0157181D02*
X0370665Y0143077D01*
X0370665Y0105529D01*
X0380665Y0101481D02*
X0380665Y0097429D01*
X0380665Y0101481D01*
X0380665Y0101481D01*
X0380665Y0099639D02*
X0380665Y0099639D01*
X0385898Y0099639D02*
X0393249Y0099639D01*
X0392165Y0106237D02*
X0387965Y0106237D01*
X0383995Y0112836D02*
X0394722Y0112836D01*
X0402065Y0119434D02*
X0381265Y0119434D01*
X0381265Y0126033D02*
X0402065Y0126033D01*
X0402065Y0132631D02*
X0381265Y0132631D01*
X0381265Y0139230D02*
X0402065Y0139230D01*
X0399380Y0145828D02*
X0380902Y0145828D01*
X0403018Y0157181D02*
X0412665Y0147534D01*
X0412665Y0105129D01*
X0422665Y0101081D02*
X0422665Y0097029D01*
X0422665Y0101081D01*
X0422665Y0101081D01*
X0422665Y0099639D02*
X0422665Y0099639D01*
X0426492Y0093040D02*
X0258961Y0093040D01*
X0260644Y0086442D02*
X0666546Y0086442D01*
X0667815Y0086102D02*
X0671292Y0086102D01*
X0674650Y0087002D01*
X0677662Y0088740D01*
X0680120Y0091199D01*
X0681859Y0094210D01*
X0682759Y0097569D01*
X0682759Y0101046D01*
X0681859Y0104404D01*
X0680120Y0107415D01*
X0677662Y0109874D01*
X0674650Y0111613D01*
X0671292Y0112513D01*
X0667815Y0112513D01*
X0664456Y0111613D01*
X0661445Y0109874D01*
X0658986Y0107415D01*
X0657248Y0104404D01*
X0656348Y0101046D01*
X0656348Y0097569D01*
X0657248Y0094210D01*
X0658986Y0091199D01*
X0661445Y0088740D01*
X0664456Y0087002D01*
X0667815Y0086102D01*
X0672560Y0086442D02*
X0688028Y0086442D01*
X0688028Y0093040D02*
X0681183Y0093040D01*
X0682759Y0099639D02*
X0688028Y0099639D01*
X0688028Y0106237D02*
X0680801Y0106237D01*
X0688028Y0112836D02*
X0605439Y0112836D01*
X0605439Y0119434D02*
X0688812Y0119434D01*
X0689433Y0122158D02*
X0688028Y0116000D01*
X0688028Y0067053D01*
X0178637Y0067053D01*
X0178637Y0116000D01*
X0177232Y0122158D01*
X0174491Y0127849D01*
X0170553Y0132787D01*
X0170553Y0132787D01*
X0165615Y0136726D01*
X0159924Y0139466D01*
X0153766Y0140872D01*
X0144189Y0140872D01*
X0144189Y0414042D01*
X0153766Y0414042D01*
X0159924Y0415447D01*
X0165615Y0418188D01*
X0170553Y0422126D01*
X0170553Y0422126D01*
X0174491Y0427064D01*
X0177232Y0432755D01*
X0177232Y0432755D01*
X0178637Y0438913D01*
X0178637Y0443682D01*
X0178637Y0487861D01*
X0688028Y0487861D01*
X0688028Y0438913D01*
X0689433Y0432755D01*
X0692174Y0427064D01*
X0696112Y0422126D01*
X0696112Y0422126D01*
X0696112Y0422126D01*
X0701051Y0418188D01*
X0706741Y0415447D01*
X0706741Y0415447D01*
X0712899Y0414042D01*
X0722477Y0414042D01*
X0722477Y0140872D01*
X0712899Y0140872D01*
X0706741Y0139466D01*
X0701051Y0136726D01*
X0701051Y0136726D01*
X0696112Y0132787D01*
X0692174Y0127849D01*
X0689433Y0122158D01*
X0689433Y0122158D01*
X0691299Y0126033D02*
X0605439Y0126033D01*
X0605439Y0132631D02*
X0675610Y0132631D01*
X0671373Y0139230D02*
X0605439Y0139230D01*
X0605439Y0145828D02*
X0672233Y0145828D01*
X0671206Y0152427D02*
X0604175Y0152427D01*
X0603317Y0159025D02*
X0671428Y0159025D01*
X0672115Y0165624D02*
X0609916Y0165624D01*
X0615032Y0172222D02*
X0618942Y0172222D01*
X0604986Y0175685D02*
X0604986Y0197732D01*
X0604986Y0254819D01*
X0604986Y0422142D01*
X0599081Y0428047D01*
X0589238Y0428047D01*
X0530183Y0428047D01*
X0492781Y0428047D01*
X0447112Y0428047D01*
X0446325Y0428835D01*
X0435829Y0422966D02*
X0259499Y0422966D01*
X0258721Y0423415D02*
X0256158Y0424102D01*
X0253506Y0424102D01*
X0250943Y0423415D01*
X0250895Y0423387D01*
X0250847Y0423415D01*
X0248284Y0424102D01*
X0245631Y0424102D01*
X0243069Y0423415D01*
X0243021Y0423387D01*
X0242973Y0423415D01*
X0240410Y0424102D01*
X0237757Y0424102D01*
X0235195Y0423415D01*
X0235147Y0423387D01*
X0235099Y0423415D01*
X0232536Y0424102D01*
X0229883Y0424102D01*
X0227321Y0423415D01*
X0227273Y0423387D01*
X0227225Y0423415D01*
X0224662Y0424102D01*
X0222009Y0424102D01*
X0219447Y0423415D01*
X0219399Y0423387D01*
X0219351Y0423415D01*
X0216788Y0424102D01*
X0214135Y0424102D01*
X0211573Y0423415D01*
X0211525Y0423387D01*
X0211477Y0423415D01*
X0208914Y0424102D01*
X0206261Y0424102D01*
X0203699Y0423415D01*
X0203651Y0423387D01*
X0203602Y0423415D01*
X0201040Y0424102D01*
X0198387Y0424102D01*
X0195825Y0423415D01*
X0195777Y0423387D01*
X0195728Y0423415D01*
X0193166Y0424102D01*
X0190513Y0424102D01*
X0187951Y0423415D01*
X0187903Y0423387D01*
X0187854Y0423415D01*
X0185292Y0424102D01*
X0182639Y0424102D01*
X0180077Y0423415D01*
X0177780Y0422089D01*
X0175904Y0420213D01*
X0174578Y0417915D01*
X0173891Y0415353D01*
X0173891Y0412700D01*
X0174578Y0410138D01*
X0175904Y0407841D01*
X0177780Y0405965D01*
X0180077Y0404639D01*
X0182639Y0403952D01*
X0185292Y0403952D01*
X0187854Y0404639D01*
X0187903Y0404666D01*
X0187951Y0404639D01*
X0190513Y0403952D01*
X0193166Y0403952D01*
X0195728Y0404639D01*
X0195777Y0404666D01*
X0195825Y0404639D01*
X0198387Y0403952D01*
X0201040Y0403952D01*
X0203602Y0404639D01*
X0203651Y0404666D01*
X0203699Y0404639D01*
X0206261Y0403952D01*
X0208914Y0403952D01*
X0211477Y0404639D01*
X0211525Y0404666D01*
X0211573Y0404639D01*
X0214135Y0403952D01*
X0216788Y0403952D01*
X0219351Y0404639D01*
X0219399Y0404666D01*
X0219447Y0404639D01*
X0222009Y0403952D01*
X0224662Y0403952D01*
X0227225Y0404639D01*
X0227273Y0404666D01*
X0227321Y0404639D01*
X0229883Y0403952D01*
X0232536Y0403952D01*
X0235099Y0404639D01*
X0235147Y0404666D01*
X0235195Y0404639D01*
X0237757Y0403952D01*
X0240410Y0403952D01*
X0242973Y0404639D01*
X0243021Y0404666D01*
X0243069Y0404639D01*
X0245631Y0403952D01*
X0248284Y0403952D01*
X0250847Y0404639D01*
X0250895Y0404666D01*
X0250943Y0404639D01*
X0253506Y0403952D01*
X0256158Y0403952D01*
X0258721Y0404639D01*
X0261018Y0405965D01*
X0262894Y0407841D01*
X0264220Y0410138D01*
X0264907Y0412700D01*
X0264907Y0415353D01*
X0264220Y0417915D01*
X0262894Y0420213D01*
X0261018Y0422089D01*
X0258721Y0423415D01*
X0264635Y0416367D02*
X0594386Y0416367D01*
X0594386Y0409769D02*
X0264007Y0409769D01*
X0259649Y0372638D02*
X0256081Y0372638D01*
X0252635Y0371715D01*
X0249545Y0369931D01*
X0247022Y0367408D01*
X0245238Y0364318D01*
X0244315Y0360872D01*
X0244315Y0357304D01*
X0245238Y0353858D01*
X0247022Y0350768D01*
X0249545Y0348245D01*
X0252635Y0346462D01*
X0256081Y0345538D01*
X0259649Y0345538D01*
X0263095Y0346462D01*
X0266185Y0348245D01*
X0266972Y0349033D01*
X0267824Y0348541D01*
X0270487Y0347828D01*
X0273243Y0347828D01*
X0275906Y0348541D01*
X0276865Y0349095D01*
X0277824Y0348541D01*
X0280487Y0347828D01*
X0283243Y0347828D01*
X0285906Y0348541D01*
X0286865Y0349095D01*
X0287824Y0348541D01*
X0290487Y0347828D01*
X0293243Y0347828D01*
X0295906Y0348541D01*
X0298293Y0349919D01*
X0299720Y0351346D01*
X0300444Y0351152D01*
X0301389Y0351028D01*
X0301865Y0351028D01*
X0302341Y0351028D01*
X0303286Y0351152D01*
X0304010Y0351346D01*
X0305437Y0349919D01*
X0307824Y0348541D01*
X0310487Y0347828D01*
X0313243Y0347828D01*
X0315906Y0348541D01*
X0316865Y0349095D01*
X0317824Y0348541D01*
X0320487Y0347828D01*
X0323243Y0347828D01*
X0325906Y0348541D01*
X0326865Y0349095D01*
X0327824Y0348541D01*
X0330487Y0347828D01*
X0331014Y0347828D01*
X0330002Y0346074D01*
X0329182Y0343016D01*
X0329182Y0339850D01*
X0330002Y0336792D01*
X0331585Y0334050D01*
X0331907Y0333728D01*
X0331907Y0298041D01*
X0323575Y0289709D01*
X0309829Y0289709D01*
X0306411Y0288294D01*
X0303795Y0285677D01*
X0299953Y0281835D01*
X0277572Y0281835D01*
X0277384Y0282024D01*
X0278211Y0282851D01*
X0278211Y0291197D01*
X0277384Y0292024D01*
X0278211Y0292851D01*
X0278211Y0301197D01*
X0277384Y0302024D01*
X0278211Y0302851D01*
X0278211Y0311197D01*
X0272309Y0317098D01*
X0263963Y0317098D01*
X0258061Y0311197D01*
X0258061Y0302851D01*
X0258888Y0302024D01*
X0258061Y0301197D01*
X0258061Y0292851D01*
X0258888Y0292024D01*
X0258061Y0291197D01*
X0258061Y0282851D01*
X0258888Y0282024D01*
X0258061Y0281197D01*
X0258061Y0272851D01*
X0258888Y0272024D01*
X0258061Y0271197D01*
X0258061Y0262851D01*
X0258888Y0262024D01*
X0258061Y0261197D01*
X0258061Y0252851D01*
X0258888Y0252024D01*
X0258061Y0251197D01*
X0258061Y0242851D01*
X0261261Y0239651D01*
X0261261Y0237844D01*
X0212394Y0237992D01*
X0198460Y0251926D01*
X0198460Y0291254D01*
X0197738Y0293950D01*
X0196342Y0296367D01*
X0194369Y0298340D01*
X0186452Y0306257D01*
X0186452Y0317092D01*
X0188347Y0317660D01*
X0188639Y0317840D01*
X0190513Y0317338D01*
X0193166Y0317338D01*
X0195728Y0318024D01*
X0195777Y0318052D01*
X0195825Y0318024D01*
X0198387Y0317338D01*
X0201040Y0317338D01*
X0203602Y0318024D01*
X0203651Y0318052D01*
X0203699Y0318024D01*
X0206261Y0317338D01*
X0208914Y0317338D01*
X0211477Y0318024D01*
X0211525Y0318052D01*
X0211573Y0318024D01*
X0214135Y0317338D01*
X0216788Y0317338D01*
X0219351Y0318024D01*
X0219399Y0318052D01*
X0219447Y0318024D01*
X0222009Y0317338D01*
X0224662Y0317338D01*
X0227225Y0318024D01*
X0227273Y0318052D01*
X0227321Y0318024D01*
X0229883Y0317338D01*
X0232536Y0317338D01*
X0235099Y0318024D01*
X0235147Y0318052D01*
X0235195Y0318024D01*
X0237757Y0317338D01*
X0240410Y0317338D01*
X0242973Y0318024D01*
X0243021Y0318052D01*
X0243069Y0318024D01*
X0245631Y0317338D01*
X0248284Y0317338D01*
X0250847Y0318024D01*
X0253144Y0319351D01*
X0254337Y0320544D01*
X0254381Y0320538D01*
X0254832Y0320538D01*
X0255282Y0320538D01*
X0256176Y0320655D01*
X0257046Y0320889D01*
X0257879Y0321234D01*
X0258660Y0321684D01*
X0259374Y0322233D01*
X0260012Y0322870D01*
X0260560Y0323585D01*
X0261011Y0324365D01*
X0261356Y0325198D01*
X0261589Y0326069D01*
X0261707Y0326962D01*
X0261707Y0327413D01*
X0261707Y0327863D01*
X0261589Y0328757D01*
X0261356Y0329627D01*
X0261011Y0330460D01*
X0260560Y0331240D01*
X0260012Y0331955D01*
X0259374Y0332592D01*
X0258660Y0333141D01*
X0257879Y0333592D01*
X0257046Y0333937D01*
X0256176Y0334170D01*
X0255282Y0334287D01*
X0254832Y0334287D01*
X0254832Y0333786D01*
X0254832Y0333787D01*
X0254832Y0334287D01*
X0254381Y0334287D01*
X0254337Y0334282D01*
X0253144Y0335474D01*
X0250847Y0336801D01*
X0248284Y0337487D01*
X0245631Y0337487D01*
X0243069Y0336801D01*
X0243021Y0336773D01*
X0242973Y0336801D01*
X0240410Y0337487D01*
X0237757Y0337487D01*
X0235195Y0336801D01*
X0235147Y0336773D01*
X0235099Y0336801D01*
X0232536Y0337487D01*
X0229883Y0337487D01*
X0227321Y0336801D01*
X0227273Y0336773D01*
X0227225Y0336801D01*
X0224662Y0337487D01*
X0222009Y0337487D01*
X0219447Y0336801D01*
X0219399Y0336773D01*
X0219351Y0336801D01*
X0216788Y0337487D01*
X0214135Y0337487D01*
X0211573Y0336801D01*
X0211525Y0336773D01*
X0211477Y0336801D01*
X0209014Y0337461D01*
X0209014Y0369316D01*
X0212775Y0373078D01*
X0477163Y0373078D01*
X0477648Y0372239D01*
X0479646Y0370241D01*
X0479243Y0370349D01*
X0476487Y0370349D01*
X0473824Y0369635D01*
X0472865Y0369082D01*
X0471906Y0369635D01*
X0469243Y0370349D01*
X0466487Y0370349D01*
X0463824Y0369635D01*
X0461437Y0368257D01*
X0459488Y0366308D01*
X0458110Y0363921D01*
X0457865Y0363007D01*
X0457620Y0363921D01*
X0456242Y0366308D01*
X0454293Y0368257D01*
X0451906Y0369635D01*
X0449243Y0370349D01*
X0446487Y0370349D01*
X0443824Y0369635D01*
X0442865Y0369082D01*
X0441906Y0369635D01*
X0439243Y0370349D01*
X0436487Y0370349D01*
X0433824Y0369635D01*
X0432865Y0369082D01*
X0431906Y0369635D01*
X0429243Y0370349D01*
X0426487Y0370349D01*
X0423824Y0369635D01*
X0422865Y0369082D01*
X0421906Y0369635D01*
X0419243Y0370349D01*
X0416487Y0370349D01*
X0413824Y0369635D01*
X0412865Y0369082D01*
X0411906Y0369635D01*
X0409243Y0370349D01*
X0406487Y0370349D01*
X0403824Y0369635D01*
X0402865Y0369082D01*
X0401906Y0369635D01*
X0399243Y0370349D01*
X0396487Y0370349D01*
X0393824Y0369635D01*
X0392865Y0369082D01*
X0391906Y0369635D01*
X0389243Y0370349D01*
X0386487Y0370349D01*
X0383824Y0369635D01*
X0382865Y0369082D01*
X0381906Y0369635D01*
X0379243Y0370349D01*
X0376487Y0370349D01*
X0373824Y0369635D01*
X0371437Y0368257D01*
X0369865Y0366685D01*
X0368293Y0368257D01*
X0365906Y0369635D01*
X0363243Y0370349D01*
X0360487Y0370349D01*
X0357824Y0369635D01*
X0356865Y0369082D01*
X0355906Y0369635D01*
X0353243Y0370349D01*
X0350487Y0370349D01*
X0347824Y0369635D01*
X0346865Y0369082D01*
X0345906Y0369635D01*
X0343243Y0370349D01*
X0340487Y0370349D01*
X0337824Y0369635D01*
X0336865Y0369082D01*
X0335906Y0369635D01*
X0333243Y0370349D01*
X0330487Y0370349D01*
X0327824Y0369635D01*
X0326865Y0369082D01*
X0325906Y0369635D01*
X0323243Y0370349D01*
X0320487Y0370349D01*
X0317824Y0369635D01*
X0316865Y0369082D01*
X0315906Y0369635D01*
X0313243Y0370349D01*
X0310487Y0370349D01*
X0307824Y0369635D01*
X0305437Y0368257D01*
X0304010Y0366830D01*
X0303286Y0367024D01*
X0302341Y0367149D01*
X0301865Y0367149D01*
X0301865Y0363007D01*
X0301865Y0363007D01*
X0301865Y0363007D01*
X0301865Y0367149D01*
X0301389Y0367149D01*
X0300444Y0367024D01*
X0299720Y0366830D01*
X0298293Y0368257D01*
X0295906Y0369635D01*
X0293243Y0370349D01*
X0290487Y0370349D01*
X0287824Y0369635D01*
X0286865Y0369082D01*
X0285906Y0369635D01*
X0283243Y0370349D01*
X0280487Y0370349D01*
X0277824Y0369635D01*
X0276865Y0369082D01*
X0275906Y0369635D01*
X0273243Y0370349D01*
X0270487Y0370349D01*
X0267824Y0369635D01*
X0266972Y0369143D01*
X0266185Y0369931D01*
X0263095Y0371715D01*
X0259649Y0372638D01*
X0265758Y0370178D02*
X0269848Y0370178D01*
X0273882Y0370178D02*
X0279848Y0370178D01*
X0283882Y0370178D02*
X0289848Y0370178D01*
X0293882Y0370178D02*
X0309848Y0370178D01*
X0313882Y0370178D02*
X0319848Y0370178D01*
X0323882Y0370178D02*
X0329848Y0370178D01*
X0333882Y0370178D02*
X0339848Y0370178D01*
X0343882Y0370178D02*
X0349848Y0370178D01*
X0353882Y0370178D02*
X0359848Y0370178D01*
X0363882Y0370178D02*
X0375848Y0370178D01*
X0379882Y0370178D02*
X0385848Y0370178D01*
X0389882Y0370178D02*
X0395848Y0370178D01*
X0399882Y0370178D02*
X0405848Y0370178D01*
X0409882Y0370178D02*
X0415848Y0370178D01*
X0419882Y0370178D02*
X0425848Y0370178D01*
X0429882Y0370178D02*
X0435848Y0370178D01*
X0439882Y0370178D02*
X0445848Y0370178D01*
X0449882Y0370178D02*
X0465848Y0370178D01*
X0469882Y0370178D02*
X0475848Y0370178D01*
X0458018Y0363579D02*
X0457712Y0363579D01*
X0457865Y0355169D02*
X0458110Y0354255D01*
X0459488Y0351868D01*
X0461437Y0349919D01*
X0461784Y0349719D01*
X0461498Y0349224D01*
X0460678Y0346166D01*
X0460678Y0343000D01*
X0461498Y0339941D01*
X0463081Y0337200D01*
X0465320Y0334961D01*
X0468062Y0333378D01*
X0471120Y0332558D01*
X0471575Y0332558D01*
X0475348Y0328785D01*
X0468041Y0328785D01*
X0462140Y0322883D01*
X0462140Y0314537D01*
X0468041Y0308635D01*
X0476388Y0308635D01*
X0477215Y0309462D01*
X0478041Y0308635D01*
X0486388Y0308635D01*
X0489588Y0311835D01*
X0492214Y0311835D01*
X0492214Y0314462D01*
X0492215Y0314462D01*
X0492215Y0311835D01*
X0494841Y0311835D01*
X0498041Y0308635D01*
X0506388Y0308635D01*
X0507215Y0309462D01*
X0508041Y0308635D01*
X0516388Y0308635D01*
X0517215Y0309462D01*
X0518041Y0308635D01*
X0526388Y0308635D01*
X0527215Y0309462D01*
X0528041Y0308635D01*
X0536388Y0308635D01*
X0537215Y0309462D01*
X0538041Y0308635D01*
X0542115Y0308635D01*
X0542115Y0297120D01*
X0506566Y0261885D01*
X0505865Y0261480D01*
X0500161Y0255776D01*
X0464846Y0255776D01*
X0464898Y0255867D01*
X0465262Y0256747D01*
X0465509Y0257667D01*
X0465633Y0258612D01*
X0465633Y0259088D01*
X0461491Y0259088D01*
X0461492Y0259088D01*
X0465633Y0259088D01*
X0465633Y0259565D01*
X0465509Y0260509D01*
X0465315Y0261234D01*
X0466742Y0262660D01*
X0468120Y0265047D01*
X0468833Y0267710D01*
X0468833Y0270466D01*
X0468120Y0273129D01*
X0467566Y0274088D01*
X0468120Y0275047D01*
X0468833Y0277710D01*
X0468833Y0280466D01*
X0468120Y0283129D01*
X0466742Y0285516D01*
X0464793Y0287465D01*
X0462406Y0288843D01*
X0459743Y0289557D01*
X0456987Y0289557D01*
X0454324Y0288843D01*
X0453365Y0288289D01*
X0452406Y0288843D01*
X0449743Y0289557D01*
X0446987Y0289557D01*
X0444324Y0288843D01*
X0441937Y0287465D01*
X0439988Y0285516D01*
X0438610Y0283129D01*
X0437896Y0280466D01*
X0437896Y0277710D01*
X0438610Y0275047D01*
X0439164Y0274088D01*
X0438610Y0273129D01*
X0437896Y0270466D01*
X0437896Y0267710D01*
X0438610Y0265047D01*
X0439164Y0264088D01*
X0438610Y0263129D01*
X0437896Y0260466D01*
X0437896Y0257710D01*
X0438415Y0255776D01*
X0427278Y0255776D01*
X0427278Y0270448D01*
X0425862Y0273866D01*
X0423246Y0276483D01*
X0413723Y0286006D01*
X0419912Y0286006D01*
X0420081Y0286076D01*
X0420250Y0286006D01*
X0438809Y0286006D01*
X0441492Y0287118D01*
X0443546Y0289171D01*
X0444657Y0291854D01*
X0444657Y0301358D01*
X0443546Y0304041D01*
X0443207Y0304381D01*
X0445317Y0306491D01*
X0446900Y0309233D01*
X0447719Y0312291D01*
X0447719Y0315457D01*
X0446900Y0318515D01*
X0445317Y0321257D01*
X0443078Y0323496D01*
X0440336Y0325079D01*
X0437278Y0325898D01*
X0435220Y0325898D01*
X0435089Y0326389D01*
X0433506Y0329131D01*
X0431267Y0331370D01*
X0428525Y0332953D01*
X0425467Y0333772D01*
X0422301Y0333772D01*
X0419243Y0332953D01*
X0416501Y0331370D01*
X0414262Y0329131D01*
X0412679Y0326389D01*
X0411859Y0323331D01*
X0411859Y0322876D01*
X0407275Y0318292D01*
X0405859Y0314873D01*
X0405859Y0304230D01*
X0405711Y0304081D01*
X0403697Y0306095D01*
X0401014Y0307206D01*
X0391510Y0307206D01*
X0388827Y0306095D01*
X0386773Y0304041D01*
X0385662Y0301358D01*
X0385662Y0296266D01*
X0384023Y0297905D01*
X0381281Y0299488D01*
X0378223Y0300308D01*
X0377480Y0300308D01*
X0374553Y0301520D01*
X0355105Y0301520D01*
X0351687Y0300105D01*
X0350507Y0298925D01*
X0350507Y0333728D01*
X0350829Y0334050D01*
X0352412Y0336792D01*
X0353231Y0339850D01*
X0353231Y0343016D01*
X0352412Y0346074D01*
X0351399Y0347828D01*
X0353243Y0347828D01*
X0355906Y0348541D01*
X0356865Y0349095D01*
X0357824Y0348541D01*
X0360487Y0347828D01*
X0363243Y0347828D01*
X0365906Y0348541D01*
X0368293Y0349919D01*
X0369865Y0351491D01*
X0371437Y0349919D01*
X0373824Y0348541D01*
X0376015Y0347954D01*
X0374356Y0346295D01*
X0372566Y0343194D01*
X0371639Y0339735D01*
X0371639Y0336155D01*
X0372566Y0332696D01*
X0374356Y0329595D01*
X0376888Y0327063D01*
X0379989Y0325272D01*
X0383448Y0324346D01*
X0387029Y0324346D01*
X0390487Y0325272D01*
X0393588Y0327063D01*
X0396120Y0329595D01*
X0397911Y0332696D01*
X0398837Y0336155D01*
X0398837Y0339735D01*
X0397911Y0343194D01*
X0396120Y0346295D01*
X0393893Y0348523D01*
X0396487Y0347828D01*
X0399243Y0347828D01*
X0401906Y0348541D01*
X0402865Y0349095D01*
X0403824Y0348541D01*
X0406487Y0347828D01*
X0409243Y0347828D01*
X0411906Y0348541D01*
X0412865Y0349095D01*
X0413824Y0348541D01*
X0416487Y0347828D01*
X0419243Y0347828D01*
X0421906Y0348541D01*
X0422865Y0349095D01*
X0423824Y0348541D01*
X0426487Y0347828D01*
X0429243Y0347828D01*
X0431906Y0348541D01*
X0432865Y0349095D01*
X0433824Y0348541D01*
X0435891Y0347987D01*
X0434199Y0346295D01*
X0432408Y0343194D01*
X0431481Y0339735D01*
X0431481Y0336155D01*
X0432408Y0332696D01*
X0434199Y0329595D01*
X0436731Y0327063D01*
X0439832Y0325272D01*
X0443290Y0324346D01*
X0446871Y0324346D01*
X0450330Y0325272D01*
X0453431Y0327063D01*
X0455963Y0329595D01*
X0457753Y0332696D01*
X0458680Y0336155D01*
X0458680Y0339735D01*
X0457753Y0343194D01*
X0455963Y0346295D01*
X0453431Y0348827D01*
X0452916Y0349124D01*
X0454293Y0349919D01*
X0456242Y0351868D01*
X0457620Y0354255D01*
X0457865Y0355169D01*
X0454756Y0350382D02*
X0460974Y0350382D01*
X0460678Y0343783D02*
X0457413Y0343783D01*
X0458680Y0337185D02*
X0463095Y0337185D01*
X0456535Y0330586D02*
X0473547Y0330586D01*
X0463244Y0323988D02*
X0442226Y0323988D01*
X0447202Y0317389D02*
X0462140Y0317389D01*
X0465886Y0310791D02*
X0447317Y0310791D01*
X0443395Y0304192D02*
X0542115Y0304192D01*
X0542115Y0297594D02*
X0444657Y0297594D01*
X0444301Y0290995D02*
X0535935Y0290995D01*
X0529278Y0284397D02*
X0467388Y0284397D01*
X0468833Y0277798D02*
X0522621Y0277798D01*
X0515964Y0271200D02*
X0468637Y0271200D01*
X0467862Y0264601D02*
X0509307Y0264601D01*
X0502387Y0258003D02*
X0465553Y0258003D01*
X0438867Y0264601D02*
X0427278Y0264601D01*
X0427278Y0258003D02*
X0437896Y0258003D01*
X0438093Y0271200D02*
X0426967Y0271200D01*
X0421931Y0277798D02*
X0437896Y0277798D01*
X0439342Y0284397D02*
X0415332Y0284397D01*
X0405822Y0304192D02*
X0405599Y0304192D01*
X0405859Y0310791D02*
X0350507Y0310791D01*
X0350507Y0317389D02*
X0406902Y0317389D01*
X0412035Y0323988D02*
X0350507Y0323988D01*
X0350507Y0330586D02*
X0373784Y0330586D01*
X0371639Y0337185D02*
X0352517Y0337185D01*
X0353025Y0343783D02*
X0372906Y0343783D01*
X0370974Y0350382D02*
X0368756Y0350382D01*
X0397570Y0343783D02*
X0432749Y0343783D01*
X0431481Y0337185D02*
X0398837Y0337185D01*
X0396693Y0330586D02*
X0415717Y0330586D01*
X0432050Y0330586D02*
X0433626Y0330586D01*
X0386924Y0304192D02*
X0350507Y0304192D01*
X0331907Y0304192D02*
X0278211Y0304192D01*
X0278211Y0297594D02*
X0331459Y0297594D01*
X0324861Y0290995D02*
X0278211Y0290995D01*
X0278211Y0284397D02*
X0302514Y0284397D01*
X0278211Y0310791D02*
X0331907Y0310791D01*
X0331907Y0317389D02*
X0248477Y0317389D01*
X0245439Y0317389D02*
X0240603Y0317389D01*
X0237565Y0317389D02*
X0232729Y0317389D01*
X0229691Y0317389D02*
X0224855Y0317389D01*
X0221817Y0317389D02*
X0216981Y0317389D01*
X0213943Y0317389D02*
X0209107Y0317389D01*
X0206069Y0317389D02*
X0201233Y0317389D01*
X0198195Y0317389D02*
X0193359Y0317389D01*
X0190321Y0317389D02*
X0187445Y0317389D01*
X0186452Y0310791D02*
X0258061Y0310791D01*
X0258061Y0304192D02*
X0188517Y0304192D01*
X0195115Y0297594D02*
X0258061Y0297594D01*
X0258061Y0290995D02*
X0198460Y0290995D01*
X0198460Y0284397D02*
X0258061Y0284397D01*
X0258061Y0277798D02*
X0198460Y0277798D01*
X0198460Y0271200D02*
X0258064Y0271200D01*
X0258061Y0264601D02*
X0198460Y0264601D01*
X0198460Y0258003D02*
X0258061Y0258003D01*
X0258269Y0251404D02*
X0198982Y0251404D01*
X0205580Y0244806D02*
X0258061Y0244806D01*
X0261261Y0238207D02*
X0212179Y0238207D01*
X0213254Y0227189D02*
X0208206Y0227189D01*
X0187860Y0247535D01*
X0187860Y0289858D01*
X0175852Y0301866D01*
X0175852Y0327173D01*
X0183966Y0327413D01*
X0172261Y0337185D02*
X0144189Y0337185D01*
X0144189Y0330586D02*
X0165767Y0330586D01*
X0165252Y0323988D02*
X0144189Y0323988D01*
X0144189Y0317389D02*
X0165252Y0317389D01*
X0165252Y0310791D02*
X0144189Y0310791D01*
X0144189Y0304192D02*
X0165252Y0304192D01*
X0166079Y0297594D02*
X0144189Y0297594D01*
X0144189Y0290995D02*
X0171732Y0290995D01*
X0176858Y0284397D02*
X0177260Y0284397D01*
X0177252Y0271200D02*
X0177260Y0271200D01*
X0177260Y0264601D02*
X0168662Y0264601D01*
X0162571Y0264601D02*
X0144189Y0264601D01*
X0144189Y0258003D02*
X0177260Y0258003D01*
X0177260Y0251404D02*
X0144189Y0251404D01*
X0144189Y0244806D02*
X0177618Y0244806D01*
X0182198Y0238207D02*
X0144189Y0238207D01*
X0144189Y0231609D02*
X0188796Y0231609D01*
X0195395Y0225010D02*
X0144189Y0225010D01*
X0144189Y0218412D02*
X0202210Y0218412D01*
X0192388Y0199307D02*
X0277033Y0199307D01*
X0283530Y0192811D01*
X0275931Y0185419D02*
X0144189Y0185419D01*
X0144189Y0178821D02*
X0243435Y0178821D01*
X0239677Y0172222D02*
X0144189Y0172222D01*
X0144189Y0165624D02*
X0178577Y0165624D01*
X0178467Y0165513D02*
X0177058Y0163073D01*
X0176329Y0160352D01*
X0176329Y0155834D01*
X0177058Y0153113D01*
X0178467Y0150673D01*
X0180459Y0148681D01*
X0182899Y0147272D01*
X0185620Y0146543D01*
X0188437Y0146543D01*
X0191159Y0147272D01*
X0193599Y0148681D01*
X0194953Y0150035D01*
X0195562Y0149871D01*
X0196537Y0149743D01*
X0197029Y0149743D01*
X0197520Y0149743D01*
X0198495Y0149871D01*
X0199105Y0150035D01*
X0200459Y0148681D01*
X0202899Y0147272D01*
X0205620Y0146543D01*
X0208437Y0146543D01*
X0211159Y0147272D01*
X0213599Y0148681D01*
X0215591Y0150673D01*
X0217000Y0153113D01*
X0217729Y0155834D01*
X0217729Y0160352D01*
X0217000Y0163073D01*
X0215591Y0165513D01*
X0213599Y0167505D01*
X0211159Y0168914D01*
X0208437Y0169643D01*
X0205620Y0169643D01*
X0202899Y0168914D01*
X0200459Y0167505D01*
X0199105Y0166151D01*
X0198495Y0166315D01*
X0197520Y0166443D01*
X0197029Y0166443D01*
X0197029Y0162964D01*
X0197029Y0162964D01*
X0197029Y0162964D01*
X0197029Y0166443D01*
X0196537Y0166443D01*
X0195562Y0166315D01*
X0194953Y0166151D01*
X0193599Y0167505D01*
X0191159Y0168914D01*
X0188437Y0169643D01*
X0185620Y0169643D01*
X0182899Y0168914D01*
X0180459Y0167505D01*
X0178467Y0165513D01*
X0176329Y0159025D02*
X0144189Y0159025D01*
X0144189Y0152427D02*
X0177454Y0152427D01*
X0165615Y0136726D02*
X0165615Y0136726D01*
X0160415Y0139230D02*
X0238474Y0139230D01*
X0239199Y0145828D02*
X0144189Y0145828D01*
X0159924Y0139466D02*
X0159924Y0139466D01*
X0170678Y0132631D02*
X0240860Y0132631D01*
X0254118Y0126033D02*
X0175366Y0126033D01*
X0177854Y0119434D02*
X0253234Y0119434D01*
X0270597Y0119434D02*
X0274465Y0119434D01*
X0274465Y0126033D02*
X0269713Y0126033D01*
X0265689Y0139230D02*
X0260948Y0139230D01*
X0260222Y0145828D02*
X0266864Y0145828D01*
X0246547Y0152427D02*
X0216603Y0152427D01*
X0217729Y0159025D02*
X0243765Y0159025D01*
X0239765Y0165624D02*
X0215480Y0165624D01*
X0197029Y0165624D02*
X0197029Y0165624D01*
X0197029Y0153222D02*
X0197029Y0153222D01*
X0197029Y0153222D01*
X0197029Y0149743D01*
X0197029Y0153222D01*
X0197029Y0152427D02*
X0197029Y0152427D01*
X0184686Y0192018D02*
X0144189Y0192018D01*
X0144189Y0198616D02*
X0181788Y0198616D01*
X0183559Y0205215D02*
X0144189Y0205215D01*
X0144189Y0211813D02*
X0299071Y0211813D01*
X0298902Y0205215D02*
X0286116Y0205215D01*
X0292418Y0198616D02*
X0300122Y0198616D01*
X0298606Y0192018D02*
X0306057Y0192018D01*
X0304285Y0185419D02*
X0310924Y0185419D01*
X0325820Y0185419D02*
X0525407Y0185419D01*
X0520883Y0192018D02*
X0480830Y0192018D01*
X0481609Y0192467D02*
X0484458Y0195316D01*
X0486472Y0198805D01*
X0487515Y0202696D01*
X0487515Y0206725D01*
X0486472Y0210616D01*
X0484458Y0214105D01*
X0481609Y0216953D01*
X0478120Y0218968D01*
X0474229Y0220010D01*
X0470200Y0220010D01*
X0466309Y0218968D01*
X0462820Y0216953D01*
X0459972Y0214105D01*
X0457957Y0210616D01*
X0456915Y0206725D01*
X0456915Y0202696D01*
X0457957Y0198805D01*
X0459972Y0195316D01*
X0462820Y0192467D01*
X0466309Y0190453D01*
X0470200Y0189410D01*
X0474229Y0189410D01*
X0478120Y0190453D01*
X0481609Y0192467D01*
X0486363Y0198616D02*
X0520883Y0198616D01*
X0519934Y0205215D02*
X0487515Y0205215D01*
X0485781Y0211813D02*
X0518159Y0211813D01*
X0520282Y0218412D02*
X0479083Y0218412D01*
X0465346Y0218412D02*
X0320271Y0218412D01*
X0320271Y0211813D02*
X0458649Y0211813D01*
X0456915Y0205215D02*
X0324687Y0205215D01*
X0329845Y0198616D02*
X0458066Y0198616D01*
X0463599Y0192018D02*
X0330028Y0192018D01*
X0309671Y0203677D02*
X0309671Y0227220D01*
X0322735Y0225010D02*
X0558586Y0225010D01*
X0558110Y0231609D02*
X0329333Y0231609D01*
X0363190Y0255776D02*
X0366712Y0259298D01*
X0376912Y0259298D01*
X0377246Y0258052D01*
X0378559Y0255776D01*
X0363190Y0255776D01*
X0365417Y0258003D02*
X0377274Y0258003D01*
X0398342Y0255776D02*
X0399656Y0258052D01*
X0399787Y0258543D01*
X0401845Y0258543D01*
X0404903Y0259362D01*
X0407645Y0260945D01*
X0408678Y0261978D01*
X0408678Y0256703D01*
X0407752Y0255776D01*
X0398342Y0255776D01*
X0399628Y0258003D02*
X0408678Y0258003D01*
X0385662Y0297594D02*
X0384334Y0297594D01*
X0331907Y0323988D02*
X0260793Y0323988D01*
X0261707Y0327413D02*
X0257033Y0327413D01*
X0261707Y0327413D01*
X0260938Y0330586D02*
X0331907Y0330586D01*
X0329896Y0337185D02*
X0249413Y0337185D01*
X0244503Y0337185D02*
X0241539Y0337185D01*
X0236629Y0337185D02*
X0233665Y0337185D01*
X0228755Y0337185D02*
X0225791Y0337185D01*
X0220881Y0337185D02*
X0217917Y0337185D01*
X0213007Y0337185D02*
X0210043Y0337185D01*
X0209014Y0343783D02*
X0329388Y0343783D01*
X0304974Y0350382D02*
X0298756Y0350382D01*
X0301865Y0351028D02*
X0301865Y0355169D01*
X0301865Y0355169D01*
X0301865Y0351028D01*
X0301865Y0355169D02*
X0301865Y0355169D01*
X0301865Y0363579D02*
X0301865Y0363579D01*
X0257033Y0327413D02*
X0257033Y0327413D01*
X0254832Y0321039D02*
X0254832Y0320538D01*
X0254832Y0321039D01*
X0254832Y0321039D01*
X0247409Y0350382D02*
X0209014Y0350382D01*
X0209014Y0356981D02*
X0244402Y0356981D01*
X0245040Y0363579D02*
X0209014Y0363579D01*
X0209875Y0370178D02*
X0249972Y0370178D01*
X0198154Y0396572D02*
X0144189Y0396572D01*
X0144189Y0403170D02*
X0594386Y0403170D01*
X0594386Y0396572D02*
X0502661Y0396572D01*
X0508134Y0389973D02*
X0594386Y0389973D01*
X0594386Y0383375D02*
X0508432Y0383375D01*
X0504382Y0376776D02*
X0594386Y0376776D01*
X0594386Y0370178D02*
X0560758Y0370178D01*
X0544972Y0370178D02*
X0539882Y0370178D01*
X0535848Y0370178D02*
X0529882Y0370178D01*
X0525848Y0370178D02*
X0519882Y0370178D01*
X0515848Y0370178D02*
X0509882Y0370178D01*
X0505848Y0370178D02*
X0499882Y0370178D01*
X0495848Y0370178D02*
X0494830Y0370178D01*
X0496783Y0347828D02*
X0499243Y0347828D01*
X0501906Y0348541D01*
X0502865Y0349095D01*
X0503824Y0348541D01*
X0506487Y0347828D01*
X0509243Y0347828D01*
X0511906Y0348541D01*
X0512865Y0349095D01*
X0513824Y0348541D01*
X0516487Y0347828D01*
X0519243Y0347828D01*
X0521906Y0348541D01*
X0522865Y0349095D01*
X0523824Y0348541D01*
X0526487Y0347828D01*
X0529243Y0347828D01*
X0531906Y0348541D01*
X0532865Y0349095D01*
X0533824Y0348541D01*
X0536487Y0347828D01*
X0539243Y0347828D01*
X0541906Y0348541D01*
X0543392Y0349399D01*
X0544545Y0348245D01*
X0547635Y0346462D01*
X0551081Y0345538D01*
X0554649Y0345538D01*
X0558095Y0346462D01*
X0558133Y0346483D01*
X0558477Y0345199D01*
X0559118Y0344088D01*
X0558477Y0342977D01*
X0557790Y0340415D01*
X0557790Y0337762D01*
X0558477Y0335199D01*
X0559118Y0334088D01*
X0558477Y0332977D01*
X0557790Y0330415D01*
X0557790Y0327762D01*
X0557929Y0327244D01*
X0556388Y0328785D01*
X0553638Y0328785D01*
X0553544Y0328810D01*
X0550885Y0328810D01*
X0550791Y0328785D01*
X0548041Y0328785D01*
X0547215Y0327958D01*
X0546388Y0328785D01*
X0538041Y0328785D01*
X0537215Y0327958D01*
X0536388Y0328785D01*
X0528041Y0328785D01*
X0527215Y0327958D01*
X0526388Y0328785D01*
X0520516Y0328785D01*
X0520492Y0328843D01*
X0505136Y0344199D01*
X0501718Y0345615D01*
X0498996Y0345615D01*
X0496783Y0347828D01*
X0505552Y0343783D02*
X0558942Y0343783D01*
X0557945Y0337185D02*
X0512150Y0337185D01*
X0518749Y0330586D02*
X0557836Y0330586D01*
X0586669Y0323988D02*
X0594386Y0323988D01*
X0594386Y0330586D02*
X0587894Y0330586D01*
X0587785Y0337185D02*
X0594386Y0337185D01*
X0594386Y0343783D02*
X0586788Y0343783D01*
X0587940Y0350382D02*
X0594386Y0350382D01*
X0594386Y0356981D02*
X0587730Y0356981D01*
X0586906Y0363579D02*
X0594386Y0363579D01*
X0615586Y0356981D02*
X0616156Y0356981D01*
X0615586Y0350382D02*
X0671952Y0350382D01*
X0671503Y0343783D02*
X0615586Y0343783D01*
X0615586Y0337185D02*
X0671206Y0337185D01*
X0672866Y0330586D02*
X0615586Y0330586D01*
X0615586Y0323988D02*
X0658873Y0323988D01*
X0657371Y0322486D02*
X0657371Y0318158D01*
X0667821Y0318158D01*
X0667821Y0318158D01*
X0667821Y0328607D01*
X0672149Y0328607D01*
X0678271Y0322486D01*
X0678271Y0318158D01*
X0667821Y0318158D01*
X0667821Y0328607D01*
X0663492Y0328607D01*
X0657371Y0322486D01*
X0657371Y0318157D02*
X0657371Y0313829D01*
X0663492Y0307707D01*
X0667821Y0307707D01*
X0672149Y0307707D01*
X0678271Y0313829D01*
X0678271Y0318157D01*
X0667821Y0318157D01*
X0667821Y0307707D01*
X0667821Y0318157D01*
X0667821Y0318157D01*
X0667821Y0318158D01*
X0667821Y0318157D01*
X0657371Y0318157D01*
X0657371Y0317389D02*
X0615586Y0317389D01*
X0615586Y0310791D02*
X0660409Y0310791D01*
X0663088Y0307582D02*
X0656396Y0300890D01*
X0656396Y0291425D01*
X0663088Y0284732D01*
X0672553Y0284732D01*
X0679246Y0291425D01*
X0679246Y0300890D01*
X0672553Y0307582D01*
X0663088Y0307582D01*
X0659698Y0304192D02*
X0645369Y0304192D01*
X0644878Y0304683D02*
X0636511Y0304683D01*
X0635695Y0303866D01*
X0634878Y0304683D01*
X0626511Y0304683D01*
X0620595Y0298766D01*
X0620595Y0290399D01*
X0626511Y0284483D01*
X0634878Y0284483D01*
X0635695Y0285299D01*
X0636511Y0284483D01*
X0644878Y0284483D01*
X0650795Y0290399D01*
X0650795Y0298766D01*
X0644878Y0304683D01*
X0636021Y0304192D02*
X0635369Y0304192D01*
X0626021Y0304192D02*
X0615586Y0304192D01*
X0615586Y0297594D02*
X0620595Y0297594D01*
X0620595Y0290995D02*
X0615586Y0290995D01*
X0615586Y0284397D02*
X0663282Y0284397D01*
X0663492Y0284607D02*
X0657371Y0278486D01*
X0657371Y0274158D01*
X0667821Y0274158D01*
X0667821Y0274158D01*
X0667821Y0284607D01*
X0672149Y0284607D01*
X0678271Y0278486D01*
X0678271Y0274158D01*
X0667821Y0274158D01*
X0667821Y0284607D01*
X0663492Y0284607D01*
X0667821Y0284397D02*
X0667821Y0284397D01*
X0672360Y0284397D02*
X0722477Y0284397D01*
X0722477Y0290995D02*
X0707437Y0290995D01*
X0708271Y0291829D02*
X0702149Y0285707D01*
X0697821Y0285707D01*
X0697821Y0296157D01*
X0697821Y0296157D01*
X0697821Y0285707D01*
X0693492Y0285707D01*
X0687371Y0291829D01*
X0687371Y0296157D01*
X0697821Y0296157D01*
X0697821Y0296158D01*
X0697821Y0296158D01*
X0697821Y0306607D01*
X0702149Y0306607D01*
X0708271Y0300486D01*
X0708271Y0296158D01*
X0697821Y0296158D01*
X0697821Y0306607D01*
X0693492Y0306607D01*
X0687371Y0300486D01*
X0687371Y0296158D01*
X0697821Y0296158D01*
X0697821Y0296157D01*
X0708271Y0296157D01*
X0708271Y0291829D01*
X0708271Y0297594D02*
X0722477Y0297594D01*
X0722477Y0304192D02*
X0704564Y0304192D01*
X0697821Y0304192D02*
X0697821Y0304192D01*
X0697821Y0297594D02*
X0697821Y0297594D01*
X0697821Y0290995D02*
X0697821Y0290995D01*
X0688204Y0290995D02*
X0678816Y0290995D01*
X0679246Y0297594D02*
X0687371Y0297594D01*
X0691077Y0304192D02*
X0675943Y0304192D01*
X0675233Y0310791D02*
X0722477Y0310791D01*
X0722477Y0317389D02*
X0678271Y0317389D01*
X0676769Y0323988D02*
X0722477Y0323988D01*
X0722477Y0330586D02*
X0692146Y0330586D01*
X0693806Y0337185D02*
X0722477Y0337185D01*
X0722477Y0343783D02*
X0693509Y0343783D01*
X0693059Y0350382D02*
X0722477Y0350382D01*
X0722477Y0356981D02*
X0690576Y0356981D01*
X0690606Y0356276D02*
X0686554Y0356276D01*
X0686554Y0356276D01*
X0686555Y0356276D01*
X0690606Y0356276D01*
X0693454Y0363579D02*
X0722477Y0363579D01*
X0722477Y0370178D02*
X0693131Y0370178D01*
X0693073Y0383375D02*
X0722477Y0383375D01*
X0722477Y0389973D02*
X0693502Y0389973D01*
X0693806Y0396572D02*
X0722477Y0396572D01*
X0722477Y0403170D02*
X0692132Y0403170D01*
X0690606Y0407457D02*
X0686555Y0407457D01*
X0686554Y0407457D02*
X0690606Y0407457D01*
X0690467Y0409769D02*
X0722477Y0409769D01*
X0704831Y0416367D02*
X0693806Y0416367D01*
X0692250Y0422966D02*
X0695443Y0422966D01*
X0692174Y0427064D02*
X0692174Y0427064D01*
X0690970Y0429564D02*
X0612554Y0429564D01*
X0605956Y0436163D02*
X0688656Y0436163D01*
X0689433Y0432755D02*
X0689433Y0432755D01*
X0688028Y0442761D02*
X0672637Y0442761D01*
X0671292Y0442401D02*
X0674650Y0443301D01*
X0677662Y0445039D01*
X0680120Y0447498D01*
X0681859Y0450509D01*
X0682759Y0453868D01*
X0682759Y0457345D01*
X0681859Y0460703D01*
X0680120Y0463715D01*
X0677662Y0466173D01*
X0674650Y0467912D01*
X0671292Y0468812D01*
X0667815Y0468812D01*
X0664456Y0467912D01*
X0661445Y0466173D01*
X0658986Y0463715D01*
X0657248Y0460703D01*
X0656348Y0457345D01*
X0656348Y0453868D01*
X0657248Y0450509D01*
X0658986Y0447498D01*
X0661445Y0445039D01*
X0664456Y0443301D01*
X0667815Y0442401D01*
X0671292Y0442401D01*
X0666470Y0442761D02*
X0608412Y0442761D01*
X0608654Y0449360D02*
X0657911Y0449360D01*
X0656348Y0455958D02*
X0604357Y0455958D01*
X0581405Y0462557D02*
X0658318Y0462557D01*
X0680789Y0462557D02*
X0688028Y0462557D01*
X0688028Y0469155D02*
X0178637Y0469155D01*
X0178637Y0462557D02*
X0185877Y0462557D01*
X0186545Y0463715D02*
X0184807Y0460703D01*
X0183907Y0457345D01*
X0183907Y0453868D01*
X0184807Y0450509D01*
X0186545Y0447498D01*
X0189004Y0445039D01*
X0192015Y0443301D01*
X0195374Y0442401D01*
X0198851Y0442401D01*
X0202209Y0443301D01*
X0205221Y0445039D01*
X0207679Y0447498D01*
X0209418Y0450509D01*
X0210318Y0453868D01*
X0210318Y0457345D01*
X0209418Y0460703D01*
X0207679Y0463715D01*
X0205221Y0466173D01*
X0202209Y0467912D01*
X0198851Y0468812D01*
X0195374Y0468812D01*
X0192015Y0467912D01*
X0189004Y0466173D01*
X0186545Y0463715D01*
X0183907Y0455958D02*
X0178637Y0455958D01*
X0178637Y0449360D02*
X0185470Y0449360D01*
X0178637Y0442761D02*
X0194029Y0442761D01*
X0200196Y0442761D02*
X0460354Y0442761D01*
X0460025Y0449360D02*
X0440194Y0449360D01*
X0441190Y0450356D02*
X0442601Y0453763D01*
X0442601Y0457450D01*
X0441190Y0460856D01*
X0438583Y0463464D01*
X0435176Y0464875D01*
X0431489Y0464875D01*
X0428082Y0463464D01*
X0425475Y0460856D01*
X0424064Y0457450D01*
X0424064Y0453763D01*
X0425475Y0450356D01*
X0428082Y0447749D01*
X0431489Y0446338D01*
X0435176Y0446338D01*
X0438583Y0447749D01*
X0441190Y0450356D01*
X0442601Y0455958D02*
X0471009Y0455958D01*
X0467034Y0450560D02*
X0467033Y0450560D01*
X0467033Y0442464D02*
X0467033Y0438647D01*
X0467034Y0438647D01*
X0467034Y0442463D01*
X0467033Y0442464D01*
X0493057Y0455958D02*
X0515276Y0455958D01*
X0513215Y0450560D02*
X0513214Y0450560D01*
X0506206Y0449360D02*
X0497355Y0449360D01*
X0497113Y0442761D02*
X0506535Y0442761D01*
X0513214Y0442464D02*
X0513214Y0438647D01*
X0513215Y0438647D01*
X0513215Y0442463D01*
X0513214Y0442464D01*
X0522268Y0462557D02*
X0439490Y0462557D01*
X0427175Y0462557D02*
X0208348Y0462557D01*
X0210318Y0455958D02*
X0424064Y0455958D01*
X0426472Y0449360D02*
X0208754Y0449360D01*
X0178010Y0436163D02*
X0436671Y0436163D01*
X0434300Y0429564D02*
X0175695Y0429564D01*
X0174491Y0427064D02*
X0174491Y0427064D01*
X0171223Y0422966D02*
X0179299Y0422966D01*
X0174163Y0416367D02*
X0161834Y0416367D01*
X0159924Y0415447D02*
X0159924Y0415447D01*
X0165615Y0418188D02*
X0165615Y0418188D01*
X0170553Y0422126D02*
X0170553Y0422126D01*
X0174791Y0409769D02*
X0144189Y0409769D01*
X0144189Y0389973D02*
X0191555Y0389973D01*
X0184957Y0383375D02*
X0144189Y0383375D01*
X0144189Y0376776D02*
X0182540Y0376776D01*
X0182540Y0370178D02*
X0144189Y0370178D01*
X0144189Y0363579D02*
X0182540Y0363579D01*
X0182540Y0356981D02*
X0144189Y0356981D01*
X0144189Y0350382D02*
X0182540Y0350382D01*
X0182540Y0343783D02*
X0144189Y0343783D01*
X0144189Y0284397D02*
X0154375Y0284397D01*
X0152411Y0277798D02*
X0144189Y0277798D01*
X0144189Y0271200D02*
X0153980Y0271200D01*
X0262295Y0178821D02*
X0283236Y0178821D01*
X0284847Y0172222D02*
X0266053Y0172222D01*
X0265965Y0165624D02*
X0284847Y0165624D01*
X0285065Y0147890D02*
X0285065Y0106329D01*
X0295065Y0102281D02*
X0295065Y0098229D01*
X0295065Y0102280D01*
X0295065Y0102281D01*
X0295065Y0099639D02*
X0295065Y0099639D01*
X0299380Y0099639D02*
X0310280Y0099639D01*
X0308965Y0106237D02*
X0302365Y0106237D01*
X0299620Y0112836D02*
X0311122Y0112836D01*
X0318865Y0119434D02*
X0295665Y0119434D01*
X0295665Y0126033D02*
X0318865Y0126033D01*
X0318865Y0132631D02*
X0295665Y0132631D01*
X0295665Y0139230D02*
X0318865Y0139230D01*
X0313160Y0145828D02*
X0297994Y0145828D01*
X0316797Y0157181D02*
X0356561Y0157181D01*
X0403018Y0157181D01*
X0482152Y0157181D01*
X0498170Y0141162D01*
X0498367Y0106901D01*
X0508967Y0106901D02*
X0515667Y0106901D01*
X0508967Y0106901D01*
X0508967Y0106901D01*
X0515667Y0106237D02*
X0532102Y0106237D01*
X0532955Y0099639D02*
X0511774Y0099639D01*
X0508367Y0099639D02*
X0508367Y0099639D01*
X0513556Y0112836D02*
X0535059Y0112836D01*
X0543302Y0119434D02*
X0508895Y0119434D01*
X0508858Y0126033D02*
X0543302Y0126033D01*
X0543302Y0132631D02*
X0508820Y0132631D01*
X0508782Y0139230D02*
X0536951Y0139230D01*
X0530352Y0145828D02*
X0507721Y0145828D01*
X0485112Y0139230D02*
X0423265Y0139230D01*
X0423265Y0145828D02*
X0478514Y0145828D01*
X0482152Y0157181D02*
X0532152Y0157181D01*
X0586482Y0157181D01*
X0604986Y0175685D01*
X0623853Y0192018D02*
X0674446Y0192018D01*
X0674406Y0191236D02*
X0678458Y0191236D01*
X0678457Y0191236D01*
X0674406Y0191236D01*
X0682506Y0192018D02*
X0682506Y0192018D01*
X0690566Y0192018D02*
X0722477Y0192018D01*
X0722477Y0198616D02*
X0617254Y0198616D01*
X0615586Y0205215D02*
X0674807Y0205215D01*
X0671206Y0211813D02*
X0615586Y0211813D01*
X0615586Y0218412D02*
X0672326Y0218412D01*
X0671330Y0225010D02*
X0615586Y0225010D01*
X0615586Y0231609D02*
X0671253Y0231609D01*
X0692568Y0238207D02*
X0722477Y0238207D01*
X0722477Y0231609D02*
X0693759Y0231609D01*
X0693682Y0225010D02*
X0722477Y0225010D01*
X0722477Y0218412D02*
X0692686Y0218412D01*
X0693806Y0211813D02*
X0722477Y0211813D01*
X0722477Y0205215D02*
X0690205Y0205215D01*
X0693015Y0185419D02*
X0722477Y0185419D01*
X0722477Y0178821D02*
X0693529Y0178821D01*
X0693806Y0172222D02*
X0722477Y0172222D01*
X0722477Y0165624D02*
X0692897Y0165624D01*
X0693584Y0159025D02*
X0722477Y0159025D01*
X0722477Y0152427D02*
X0693806Y0152427D01*
X0692779Y0145828D02*
X0722477Y0145828D01*
X0706741Y0139466D02*
X0706741Y0139466D01*
X0706250Y0139230D02*
X0693639Y0139230D01*
X0696112Y0132787D02*
X0696112Y0132787D01*
X0696112Y0132787D01*
X0695988Y0132631D02*
X0689401Y0132631D01*
X0692174Y0127849D02*
X0692174Y0127849D01*
X0658306Y0106237D02*
X0613409Y0106237D01*
X0612048Y0099639D02*
X0656348Y0099639D01*
X0657923Y0093040D02*
X0440173Y0093040D01*
X0442601Y0099639D02*
X0459980Y0099639D01*
X0457867Y0106237D02*
X0439510Y0106237D01*
X0425067Y0112836D02*
X0459208Y0112836D01*
X0487695Y0119434D02*
X0423265Y0119434D01*
X0423265Y0126033D02*
X0487657Y0126033D01*
X0487619Y0132631D02*
X0423265Y0132631D01*
X0367396Y0169088D02*
X0360596Y0169088D01*
X0358333Y0169088D01*
X0358333Y0169088D01*
X0367396Y0169088D01*
X0367396Y0169088D01*
X0357865Y0173007D02*
X0357865Y0173007D01*
X0353317Y0178821D02*
X0372413Y0178821D01*
X0383317Y0178821D02*
X0392413Y0178821D01*
X0473317Y0178821D02*
X0482413Y0178821D01*
X0540084Y0218412D02*
X0545346Y0218412D01*
X0557790Y0238207D02*
X0513139Y0238207D01*
X0519737Y0244806D02*
X0558704Y0244806D01*
X0558055Y0251404D02*
X0526107Y0251404D01*
X0532764Y0258003D02*
X0557790Y0258003D01*
X0558822Y0264601D02*
X0539421Y0264601D01*
X0546079Y0271200D02*
X0558001Y0271200D01*
X0557790Y0277798D02*
X0552736Y0277798D01*
X0552411Y0292402D02*
X0512496Y0252838D01*
X0507742Y0248126D01*
X0546813Y0190318D02*
X0550200Y0189410D01*
X0554229Y0189410D01*
X0557790Y0190364D01*
X0557790Y0189316D01*
X0547815Y0189316D01*
X0546813Y0190318D01*
X0556657Y0145828D02*
X0584683Y0145828D01*
X0586839Y0139230D02*
X0561633Y0139230D01*
X0561902Y0132631D02*
X0586839Y0132631D01*
X0586839Y0126033D02*
X0561902Y0126033D01*
X0561902Y0119434D02*
X0586839Y0119434D01*
X0578596Y0112836D02*
X0561902Y0112836D01*
X0569872Y0106237D02*
X0575639Y0106237D01*
X0576492Y0099639D02*
X0568511Y0099639D01*
X0562602Y0099639D02*
X0562602Y0099639D01*
X0562602Y0100681D02*
X0562602Y0100681D01*
X0562602Y0096629D01*
X0562602Y0100681D01*
X0606139Y0100680D02*
X0606139Y0096629D01*
X0606139Y0100681D01*
X0606139Y0100680D01*
X0606139Y0099639D02*
X0606139Y0099639D01*
X0688028Y0079843D02*
X0258880Y0079843D01*
X0178637Y0073245D02*
X0688028Y0073245D01*
X0693737Y0244806D02*
X0722477Y0244806D01*
X0722477Y0251404D02*
X0690392Y0251404D01*
X0678458Y0253165D02*
X0678457Y0253165D01*
X0674406Y0253165D01*
X0678458Y0253165D01*
X0676220Y0258003D02*
X0615586Y0258003D01*
X0615586Y0264601D02*
X0662598Y0264601D01*
X0663492Y0263707D02*
X0657371Y0269829D01*
X0657371Y0274157D01*
X0667821Y0274157D01*
X0667821Y0263707D01*
X0672149Y0263707D01*
X0678271Y0269829D01*
X0678271Y0274157D01*
X0667821Y0274157D01*
X0667821Y0274157D01*
X0667821Y0263707D01*
X0663492Y0263707D01*
X0667821Y0264601D02*
X0667821Y0264601D01*
X0673043Y0264601D02*
X0722477Y0264601D01*
X0722477Y0258003D02*
X0688792Y0258003D01*
X0682506Y0258003D02*
X0682506Y0258003D01*
X0678271Y0271200D02*
X0722477Y0271200D01*
X0722477Y0277798D02*
X0678271Y0277798D01*
X0667821Y0277798D02*
X0667821Y0277798D01*
X0667821Y0274158D02*
X0667821Y0274157D01*
X0667821Y0274158D01*
X0667821Y0271200D02*
X0667821Y0271200D01*
X0657371Y0271200D02*
X0615586Y0271200D01*
X0615586Y0277798D02*
X0657371Y0277798D01*
X0656826Y0290995D02*
X0650795Y0290995D01*
X0650795Y0297594D02*
X0656396Y0297594D01*
X0667821Y0310791D02*
X0667821Y0310791D01*
X0667821Y0317389D02*
X0667821Y0317389D01*
X0667821Y0323988D02*
X0667821Y0323988D01*
X0620669Y0376776D02*
X0722477Y0376776D01*
X0686555Y0407457D02*
X0686554Y0407457D01*
X0686554Y0407457D01*
X0672880Y0403170D02*
X0615586Y0403170D01*
X0615586Y0396572D02*
X0671206Y0396572D01*
X0671510Y0389973D02*
X0615669Y0389973D01*
X0616255Y0383375D02*
X0671938Y0383375D01*
X0701051Y0418188D02*
X0701051Y0418188D01*
X0688028Y0449360D02*
X0681195Y0449360D01*
X0682759Y0455958D02*
X0688028Y0455958D01*
X0688028Y0475754D02*
X0178637Y0475754D01*
X0178637Y0482352D02*
X0688028Y0482352D01*
X0577386Y0462557D02*
X0526287Y0462557D01*
X0549239Y0455958D02*
X0570394Y0455958D01*
X0568333Y0450560D02*
X0568333Y0450560D01*
X0561324Y0449360D02*
X0553536Y0449360D01*
X0553294Y0442761D02*
X0561653Y0442761D01*
X0568333Y0442464D02*
X0568333Y0438647D01*
X0568333Y0438647D01*
X0568333Y0442463D01*
X0568333Y0442464D01*
X0587840Y0317389D02*
X0594386Y0317389D01*
X0594386Y0310791D02*
X0587839Y0310791D01*
X0586672Y0304192D02*
X0594386Y0304192D01*
X0594386Y0297594D02*
X0587895Y0297594D01*
X0587784Y0290995D02*
X0594386Y0290995D01*
X0594386Y0284397D02*
X0586790Y0284397D01*
X0587940Y0277798D02*
X0594386Y0277798D01*
X0495886Y0310791D02*
X0488543Y0310791D01*
X0492215Y0314462D02*
X0492215Y0314462D01*
D22*
X0484514Y0346945D03*
X0472703Y0344583D03*
X0487270Y0379622D03*
X0496719Y0386118D03*
X0446325Y0428835D03*
X0341207Y0341433D03*
X0317978Y0326866D03*
X0354986Y0307575D03*
X0376640Y0288283D03*
X0400262Y0270567D03*
X0388451Y0262693D03*
X0435695Y0313874D03*
X0423884Y0321748D03*
X0507742Y0284150D03*
X0510892Y0223323D03*
X0530183Y0211512D03*
X0595144Y0264661D03*
X0365222Y0194976D03*
X0318372Y0194976D03*
X0207742Y0275685D03*
X0319553Y0413480D03*
D23*
X0341207Y0341433D02*
X0341207Y0294189D01*
X0327427Y0280409D01*
X0311679Y0280409D01*
X0303805Y0272535D01*
X0272309Y0272535D01*
X0267821Y0277024D01*
X0268136Y0277024D01*
X0268136Y0267024D02*
X0270498Y0264661D01*
X0307742Y0264661D01*
X0315616Y0272535D01*
X0337270Y0272535D01*
X0356955Y0292220D01*
X0372703Y0292220D01*
X0376640Y0288283D01*
X0396325Y0286315D02*
X0402230Y0280409D01*
X0406167Y0280409D01*
X0417978Y0268598D01*
X0417978Y0252850D01*
X0410104Y0244976D01*
X0388451Y0262693D02*
X0382545Y0268598D01*
X0362860Y0268598D01*
X0351049Y0256787D01*
X0323490Y0256787D01*
X0313726Y0247024D01*
X0268136Y0247024D01*
X0268372Y0256787D02*
X0268136Y0257024D01*
X0268372Y0256787D02*
X0311679Y0256787D01*
X0319553Y0264661D01*
X0347112Y0264661D01*
X0356955Y0274504D01*
X0396325Y0274504D01*
X0400262Y0270567D01*
X0396325Y0286315D02*
X0396325Y0296543D01*
X0396262Y0296606D01*
X0405711Y0296614D02*
X0406167Y0296157D01*
X0405711Y0296614D02*
X0405711Y0315840D01*
X0415159Y0313024D02*
X0423884Y0321748D01*
X0415159Y0313024D02*
X0415159Y0296606D01*
X0425002Y0296606D02*
X0425002Y0305150D01*
X0433726Y0313874D01*
X0435695Y0313874D01*
X0472703Y0344583D02*
X0488451Y0328835D01*
X0495537Y0328835D01*
X0502608Y0321764D01*
X0512608Y0323575D02*
X0499868Y0336315D01*
X0495144Y0336315D01*
X0484514Y0346945D01*
X0487270Y0379622D02*
X0484514Y0382378D01*
X0208923Y0382378D01*
X0199714Y0373169D01*
X0199714Y0327413D01*
X0191840Y0327413D02*
X0191840Y0377106D01*
X0204593Y0389858D01*
X0492978Y0389858D01*
X0496719Y0386118D01*
X0492781Y0428047D02*
X0490813Y0428047D01*
X0477033Y0441827D01*
X0477033Y0446512D01*
X0523215Y0446512D02*
X0524278Y0453323D01*
X0524278Y0433953D01*
X0530183Y0428047D01*
X0579396Y0437890D02*
X0589238Y0428047D01*
X0599081Y0428047D02*
X0609671Y0417457D01*
X0682506Y0417457D01*
X0682506Y0366276D02*
X0618018Y0366276D01*
X0606955Y0377339D01*
X0606955Y0382772D01*
X0604986Y0384740D01*
X0604986Y0422142D01*
X0579396Y0437890D02*
X0579396Y0453323D01*
X0578333Y0446512D01*
X0606955Y0386709D02*
X0606955Y0382772D01*
X0595144Y0264661D02*
X0595144Y0193795D01*
X0581364Y0180016D01*
X0543963Y0180016D01*
X0530183Y0193795D01*
X0530183Y0211512D01*
X0470734Y0261118D02*
X0467978Y0258362D01*
X0466404Y0258362D01*
X0461285Y0253244D01*
X0458136Y0253244D01*
X0458365Y0253473D01*
X0458365Y0259088D01*
X0466859Y0259088D02*
X0467191Y0258756D01*
X0532152Y0157181D02*
X0552602Y0136731D01*
X0552602Y0104729D01*
X0596139Y0104729D02*
X0596139Y0147524D01*
X0586482Y0157181D01*
X0621482Y0181236D02*
X0604986Y0197732D01*
X0621482Y0181236D02*
X0682506Y0181236D01*
X0682506Y0243165D02*
X0616640Y0243165D01*
X0604986Y0254819D01*
D24*
X0552411Y0292402D02*
X0552215Y0292598D01*
X0552215Y0318710D01*
X0294947Y0181394D02*
X0294947Y0157772D01*
X0293766Y0156591D01*
X0294947Y0181394D02*
X0283530Y0192811D01*
X0279199Y0197142D01*
D25*
X0309671Y0203677D02*
X0318372Y0194976D01*
X0309671Y0227220D02*
X0327427Y0244976D01*
X0410104Y0244976D01*
X0504634Y0244976D01*
X0512496Y0252838D01*
X0309671Y0227220D02*
X0268136Y0227024D01*
X0213254Y0227189D01*
D26*
X0192388Y0199307D03*
D27*
X0502215Y0318710D02*
X0502215Y0321370D01*
X0502608Y0321764D01*
X0512215Y0323181D02*
X0512215Y0318710D01*
X0512215Y0323181D02*
X0512608Y0323575D01*
M02*
