G75*
%MOIN*%
%OFA0B0*%
%FSLAX25Y25*%
%IPPOS*%
%LPD*%
%AMOC8*
5,1,8,0,0,1.08239X$1,22.5*
%
%ADD10R,0.00394X0.00394*%
%ADD11R,0.01969X0.00394*%
%ADD12R,0.00787X0.00394*%
%ADD13R,0.02362X0.00394*%
%ADD14R,0.02756X0.00394*%
%ADD15R,0.03150X0.00394*%
%ADD16R,0.03543X0.00394*%
%ADD17R,0.01181X0.00394*%
%ADD18R,0.01575X0.00394*%
%ADD19R,0.03937X0.00394*%
%ADD20R,0.52362X0.00394*%
%ADD21R,0.05512X0.00394*%
%ADD22R,0.07087X0.00394*%
%ADD23R,0.08268X0.00394*%
%ADD24R,0.04331X0.00394*%
%ADD25R,0.10236X0.00394*%
%ADD26R,0.09449X0.00394*%
%ADD27R,0.09055X0.00394*%
%ADD28R,0.08661X0.00394*%
%ADD29R,0.05906X0.00394*%
%ADD30R,0.04724X0.00394*%
%ADD31R,0.05118X0.00394*%
%ADD32R,0.07480X0.00394*%
%ADD33R,0.10630X0.00394*%
%ADD34R,0.07874X0.00394*%
%ADD35R,0.14173X0.00394*%
%ADD36R,0.13386X0.00394*%
%ADD37C,0.01700*%
%ADD38C,0.00512*%
%ADD39C,0.01200*%
%ADD40C,0.00800*%
%ADD41C,0.00600*%
%ADD42C,0.00400*%
%ADD43C,0.03000*%
%ADD44R,0.03000X0.02000*%
%ADD45R,0.03000X0.04000*%
%ADD46R,0.02000X0.03000*%
%ADD47R,0.04000X0.03000*%
%ADD48C,0.00200*%
%ADD49R,0.03000X0.02500*%
%ADD50R,0.05000X0.11000*%
%ADD51C,0.00500*%
%ADD52C,0.01000*%
%ADD53R,0.00787X0.00787*%
%ADD54R,0.00591X0.00984*%
D10*
X0293175Y0244583D03*
X0293175Y0244976D03*
X0293175Y0245370D03*
X0293175Y0245764D03*
X0293175Y0246157D03*
X0293175Y0246551D03*
X0293175Y0246945D03*
X0293175Y0247339D03*
X0293175Y0247732D03*
X0293175Y0248126D03*
X0296719Y0243795D03*
X0301443Y0243008D03*
X0303411Y0243008D03*
X0303411Y0243402D03*
X0303411Y0243795D03*
X0303411Y0244189D03*
X0303411Y0244583D03*
X0303411Y0244976D03*
X0303411Y0245370D03*
X0303411Y0245764D03*
X0303411Y0246157D03*
X0303411Y0246551D03*
X0303411Y0247732D03*
X0303411Y0248126D03*
X0304986Y0246551D03*
X0305380Y0245764D03*
X0305380Y0245370D03*
X0305774Y0244583D03*
X0305774Y0244189D03*
X0306167Y0243795D03*
X0306955Y0243795D03*
X0306955Y0244189D03*
X0307348Y0244976D03*
X0307348Y0245370D03*
X0307742Y0246157D03*
X0307742Y0246551D03*
X0309317Y0245764D03*
X0309317Y0245370D03*
X0309317Y0244189D03*
X0309317Y0243795D03*
X0309711Y0243402D03*
X0312073Y0243795D03*
X0313648Y0243795D03*
X0313648Y0243402D03*
X0313648Y0243008D03*
X0313648Y0244189D03*
X0313648Y0244583D03*
X0313648Y0244976D03*
X0313648Y0246551D03*
X0312073Y0245764D03*
X0312073Y0245370D03*
X0316404Y0245764D03*
X0316404Y0246157D03*
X0318766Y0245764D03*
X0318766Y0243402D03*
X0320734Y0243008D03*
X0322309Y0244189D03*
X0322309Y0244583D03*
X0322309Y0244976D03*
X0322309Y0245370D03*
X0322703Y0246157D03*
X0320734Y0247732D03*
X0325459Y0247732D03*
X0325459Y0247339D03*
X0325459Y0246945D03*
X0325459Y0246551D03*
X0325459Y0245370D03*
X0325459Y0244976D03*
X0325459Y0244583D03*
X0325459Y0244189D03*
X0325459Y0243008D03*
X0327033Y0243795D03*
X0327033Y0244189D03*
X0327427Y0246157D03*
X0329789Y0245764D03*
X0329789Y0244583D03*
X0329789Y0244189D03*
X0331364Y0244189D03*
X0331364Y0244583D03*
X0331364Y0244976D03*
X0331364Y0245370D03*
X0334514Y0245370D03*
X0334514Y0244976D03*
X0334514Y0244583D03*
X0334514Y0244189D03*
X0334514Y0243008D03*
X0334514Y0246551D03*
X0334514Y0246945D03*
X0334514Y0247339D03*
X0334514Y0247732D03*
X0334514Y0248126D03*
X0325459Y0248126D03*
X0325065Y0239858D03*
X0325065Y0239465D03*
X0325065Y0238283D03*
X0325065Y0237890D03*
X0325065Y0237496D03*
X0325065Y0237102D03*
X0325065Y0236709D03*
X0325065Y0236315D03*
X0325065Y0235921D03*
X0325065Y0235528D03*
X0325065Y0235134D03*
X0325065Y0234740D03*
X0323096Y0235528D03*
X0323096Y0235921D03*
X0323096Y0236315D03*
X0323096Y0236709D03*
X0323096Y0237102D03*
X0323096Y0238283D03*
X0323096Y0238677D03*
X0323096Y0239071D03*
X0323096Y0239465D03*
X0323096Y0239858D03*
X0320341Y0237496D03*
X0319947Y0236315D03*
X0318372Y0236315D03*
X0318372Y0235921D03*
X0318372Y0235528D03*
X0318372Y0237102D03*
X0318372Y0237496D03*
X0317191Y0239465D03*
X0317585Y0239858D03*
X0314041Y0238677D03*
X0314041Y0235921D03*
X0315616Y0235528D03*
X0312073Y0234346D03*
X0310104Y0236315D03*
X0310104Y0236709D03*
X0310104Y0237890D03*
X0310104Y0238283D03*
X0306167Y0237102D03*
X0306167Y0235528D03*
X0303411Y0235528D03*
X0303411Y0237102D03*
X0303411Y0237496D03*
X0301443Y0237102D03*
X0301443Y0236709D03*
X0301443Y0236315D03*
X0301443Y0235921D03*
X0301443Y0235528D03*
X0301443Y0238283D03*
X0301443Y0238677D03*
X0301443Y0239071D03*
X0301443Y0239858D03*
X0298687Y0237496D03*
X0298687Y0235528D03*
X0301443Y0246157D03*
X0304199Y0257575D03*
X0304593Y0258362D03*
X0304593Y0258756D03*
X0304593Y0259150D03*
X0304593Y0259543D03*
X0304593Y0259937D03*
X0304593Y0260331D03*
X0304593Y0260724D03*
X0304593Y0261118D03*
X0304593Y0261512D03*
X0304593Y0261906D03*
X0304593Y0262299D03*
X0304593Y0262693D03*
X0304593Y0263087D03*
X0304593Y0263480D03*
X0304593Y0263874D03*
X0304593Y0264268D03*
X0304593Y0264661D03*
X0304593Y0265055D03*
X0304593Y0265449D03*
X0304593Y0265843D03*
X0304593Y0266236D03*
X0304593Y0266630D03*
X0304593Y0267024D03*
X0304593Y0267417D03*
X0304593Y0267811D03*
X0304593Y0268205D03*
X0304593Y0268598D03*
X0304593Y0268992D03*
X0304593Y0269386D03*
X0293569Y0286315D03*
X0293569Y0291827D03*
X0293569Y0297732D03*
X0304986Y0301276D03*
X0304986Y0307181D03*
X0304593Y0307575D03*
X0322703Y0307181D03*
X0323096Y0307575D03*
X0322703Y0301669D03*
X0322703Y0296157D03*
X0334120Y0297732D03*
X0334120Y0291827D03*
X0334120Y0286315D03*
X0328215Y0236709D03*
X0327821Y0236315D03*
X0327427Y0235921D03*
D11*
X0321522Y0234740D03*
X0316797Y0234740D03*
X0317191Y0238283D03*
X0317585Y0243008D03*
X0317585Y0246551D03*
X0323884Y0246551D03*
X0329002Y0244976D03*
X0332939Y0246551D03*
X0332939Y0243008D03*
X0334514Y0255606D03*
X0334120Y0256787D03*
X0333726Y0257575D03*
X0333726Y0257969D03*
X0333333Y0258756D03*
X0333333Y0259150D03*
X0332939Y0259543D03*
X0332939Y0259937D03*
X0332152Y0261906D03*
X0332152Y0262299D03*
X0331758Y0262693D03*
X0331758Y0263087D03*
X0331758Y0263480D03*
X0331364Y0263874D03*
X0331364Y0264268D03*
X0330970Y0264661D03*
X0330970Y0265055D03*
X0330970Y0265449D03*
X0330577Y0265843D03*
X0330577Y0266236D03*
X0330183Y0267024D03*
X0330183Y0267417D03*
X0329789Y0268205D03*
X0327427Y0267417D03*
X0327033Y0266630D03*
X0327033Y0266236D03*
X0326640Y0265449D03*
X0326640Y0265055D03*
X0326246Y0264268D03*
X0325852Y0263480D03*
X0325852Y0263087D03*
X0325459Y0262299D03*
X0325459Y0261906D03*
X0324671Y0259937D03*
X0324278Y0259543D03*
X0324278Y0259150D03*
X0324278Y0258756D03*
X0323884Y0258362D03*
X0323884Y0257969D03*
X0323490Y0257181D03*
X0323490Y0256787D03*
X0323096Y0256394D03*
X0323096Y0256000D03*
X0323096Y0255606D03*
X0318766Y0258362D03*
X0319159Y0259150D03*
X0319159Y0259543D03*
X0319553Y0259937D03*
X0319553Y0260331D03*
X0319553Y0260724D03*
X0319159Y0266630D03*
X0319159Y0267024D03*
X0316797Y0275685D03*
X0310892Y0275685D03*
X0315222Y0281591D03*
X0317585Y0286315D03*
X0317585Y0288283D03*
X0317585Y0288677D03*
X0321915Y0294189D03*
X0321915Y0299701D03*
X0321915Y0305213D03*
X0333333Y0295764D03*
X0333333Y0289858D03*
X0333333Y0284346D03*
X0331364Y0281591D03*
X0329789Y0279622D03*
X0329002Y0284346D03*
X0310104Y0286315D03*
X0310104Y0288283D03*
X0305774Y0294189D03*
X0305774Y0299701D03*
X0305774Y0305213D03*
X0294356Y0295764D03*
X0294356Y0289858D03*
X0294356Y0284346D03*
X0296325Y0281591D03*
X0297900Y0279622D03*
X0300262Y0282378D03*
X0298687Y0284346D03*
X0309317Y0267024D03*
X0308923Y0266630D03*
X0308923Y0266236D03*
X0308530Y0265843D03*
X0308530Y0265449D03*
X0308530Y0265055D03*
X0308530Y0264661D03*
X0308136Y0263874D03*
X0308136Y0263480D03*
X0308136Y0263087D03*
X0308136Y0262693D03*
X0308136Y0262299D03*
X0308136Y0261906D03*
X0308530Y0261512D03*
X0308530Y0261118D03*
X0308530Y0260724D03*
X0308530Y0260331D03*
X0308923Y0259543D03*
X0314041Y0255213D03*
X0310892Y0246551D03*
X0310892Y0243008D03*
X0300656Y0246551D03*
X0299868Y0234740D03*
D12*
X0298884Y0235134D03*
X0298490Y0235921D03*
X0298490Y0236315D03*
X0298490Y0236709D03*
X0298490Y0237102D03*
X0298884Y0237890D03*
X0301246Y0237496D03*
X0301640Y0239465D03*
X0304002Y0237890D03*
X0305577Y0237890D03*
X0305970Y0237496D03*
X0305970Y0235134D03*
X0303608Y0235134D03*
X0303215Y0235921D03*
X0301640Y0234740D03*
X0301246Y0235134D03*
X0298884Y0243008D03*
X0298884Y0243402D03*
X0298884Y0243795D03*
X0298884Y0244189D03*
X0298884Y0244583D03*
X0298884Y0244976D03*
X0298884Y0245370D03*
X0298884Y0245764D03*
X0298884Y0246551D03*
X0296915Y0246551D03*
X0296915Y0246157D03*
X0296915Y0245764D03*
X0296915Y0245370D03*
X0296915Y0244976D03*
X0296915Y0244583D03*
X0296915Y0244189D03*
X0296522Y0243402D03*
X0293766Y0243402D03*
X0293372Y0243795D03*
X0293372Y0244189D03*
X0296915Y0246945D03*
X0296915Y0247339D03*
X0296915Y0247732D03*
X0296915Y0248126D03*
X0301640Y0245764D03*
X0301640Y0245370D03*
X0301640Y0244976D03*
X0301640Y0244583D03*
X0301640Y0244189D03*
X0301640Y0243795D03*
X0301640Y0243402D03*
X0305577Y0244976D03*
X0305183Y0246157D03*
X0307545Y0245764D03*
X0307152Y0244583D03*
X0306364Y0243402D03*
X0306364Y0243008D03*
X0309120Y0244583D03*
X0309514Y0246157D03*
X0311876Y0246157D03*
X0313844Y0245764D03*
X0313844Y0245370D03*
X0315026Y0246551D03*
X0316600Y0245370D03*
X0316207Y0243795D03*
X0316600Y0243402D03*
X0318963Y0243795D03*
X0318963Y0244189D03*
X0320537Y0244189D03*
X0320537Y0244583D03*
X0320537Y0244976D03*
X0320537Y0245370D03*
X0320537Y0245764D03*
X0320537Y0246157D03*
X0320537Y0246551D03*
X0320537Y0248126D03*
X0318569Y0246157D03*
X0320537Y0243795D03*
X0320537Y0243402D03*
X0322506Y0243795D03*
X0322900Y0243402D03*
X0325262Y0243795D03*
X0325262Y0245764D03*
X0327230Y0245764D03*
X0327624Y0244583D03*
X0327230Y0243402D03*
X0329593Y0243795D03*
X0329986Y0243008D03*
X0331561Y0243795D03*
X0331955Y0243402D03*
X0331561Y0245764D03*
X0331955Y0246157D03*
X0329593Y0246157D03*
X0329593Y0245370D03*
X0334317Y0245764D03*
X0334317Y0243795D03*
X0328805Y0237496D03*
X0328411Y0237102D03*
X0327230Y0235528D03*
X0326837Y0235134D03*
X0323293Y0234740D03*
X0322900Y0235134D03*
X0322900Y0237496D03*
X0320537Y0237890D03*
X0320144Y0237102D03*
X0320144Y0236709D03*
X0320144Y0235921D03*
X0320144Y0235528D03*
X0320537Y0235134D03*
X0318569Y0234740D03*
X0318175Y0235134D03*
X0315813Y0235134D03*
X0315813Y0235921D03*
X0315813Y0237496D03*
X0316207Y0237890D03*
X0318175Y0237890D03*
X0314238Y0236315D03*
X0313844Y0235528D03*
X0313451Y0235134D03*
X0310695Y0235134D03*
X0310301Y0235528D03*
X0310301Y0235921D03*
X0309907Y0237102D03*
X0309907Y0237496D03*
X0310301Y0238677D03*
X0310695Y0239071D03*
X0311089Y0239465D03*
X0313451Y0239465D03*
X0313844Y0239071D03*
X0311876Y0243402D03*
X0322506Y0245764D03*
X0304002Y0257181D03*
X0303608Y0256787D03*
X0304396Y0257969D03*
X0312663Y0276472D03*
X0313844Y0276866D03*
X0315026Y0276472D03*
X0333923Y0285528D03*
X0333923Y0285921D03*
X0333923Y0291433D03*
X0333923Y0296945D03*
X0333923Y0297339D03*
X0322506Y0295764D03*
X0322506Y0300882D03*
X0322506Y0301276D03*
X0322506Y0306787D03*
X0305183Y0306787D03*
X0304789Y0301669D03*
X0305183Y0300882D03*
X0304789Y0296157D03*
X0305183Y0295764D03*
X0305183Y0295370D03*
X0293766Y0296945D03*
X0293766Y0297339D03*
X0293766Y0291433D03*
X0293766Y0285921D03*
X0293766Y0285528D03*
D13*
X0294553Y0283953D03*
X0294553Y0283559D03*
X0294947Y0283165D03*
X0295341Y0282772D03*
X0295734Y0282378D03*
X0296128Y0281984D03*
X0296522Y0281197D03*
X0296915Y0280803D03*
X0297309Y0280409D03*
X0297703Y0280016D03*
X0298096Y0279228D03*
X0298490Y0278835D03*
X0300852Y0281591D03*
X0300459Y0281984D03*
X0300065Y0282772D03*
X0299671Y0283165D03*
X0299278Y0283559D03*
X0298884Y0283953D03*
X0298490Y0284740D03*
X0298096Y0285134D03*
X0297703Y0285528D03*
X0297309Y0285921D03*
X0296915Y0286315D03*
X0296915Y0286709D03*
X0296522Y0287102D03*
X0296128Y0287496D03*
X0295734Y0287890D03*
X0295341Y0288283D03*
X0295341Y0288677D03*
X0294947Y0289071D03*
X0294553Y0289465D03*
X0296915Y0292220D03*
X0297309Y0291827D03*
X0297703Y0291433D03*
X0298096Y0291039D03*
X0298490Y0290252D03*
X0298884Y0289858D03*
X0299278Y0289465D03*
X0299671Y0289071D03*
X0300065Y0288283D03*
X0300459Y0287890D03*
X0300852Y0287496D03*
X0301246Y0287102D03*
X0301640Y0286709D03*
X0302033Y0285921D03*
X0302427Y0285528D03*
X0302821Y0285134D03*
X0303215Y0284740D03*
X0303608Y0283953D03*
X0310301Y0285921D03*
X0309907Y0288677D03*
X0309907Y0289071D03*
X0307939Y0291433D03*
X0307545Y0291827D03*
X0307152Y0292220D03*
X0306758Y0292614D03*
X0306364Y0293008D03*
X0305970Y0293795D03*
X0308333Y0296157D03*
X0308726Y0295764D03*
X0309120Y0295370D03*
X0309514Y0294976D03*
X0309514Y0294583D03*
X0309907Y0294189D03*
X0311482Y0292614D03*
X0311482Y0292220D03*
X0313844Y0289465D03*
X0313844Y0289071D03*
X0313844Y0288677D03*
X0313844Y0288283D03*
X0313844Y0287890D03*
X0313844Y0287496D03*
X0313844Y0287102D03*
X0313844Y0286709D03*
X0313844Y0286315D03*
X0317388Y0285921D03*
X0317781Y0289071D03*
X0319750Y0291433D03*
X0320144Y0291827D03*
X0320537Y0292220D03*
X0320931Y0292614D03*
X0321325Y0293008D03*
X0321719Y0293795D03*
X0319356Y0296157D03*
X0318963Y0295764D03*
X0318569Y0295370D03*
X0318175Y0294976D03*
X0318175Y0294583D03*
X0317781Y0294189D03*
X0316207Y0292614D03*
X0316207Y0292220D03*
X0313844Y0295370D03*
X0312270Y0297339D03*
X0311876Y0297732D03*
X0311482Y0298126D03*
X0311089Y0298520D03*
X0310695Y0298913D03*
X0310695Y0299307D03*
X0310301Y0299701D03*
X0309907Y0300094D03*
X0309514Y0300488D03*
X0309120Y0300882D03*
X0308726Y0301276D03*
X0308333Y0302063D03*
X0307939Y0302457D03*
X0307545Y0302850D03*
X0307152Y0303244D03*
X0306758Y0303638D03*
X0305970Y0304819D03*
X0305970Y0299307D03*
X0305970Y0298913D03*
X0306364Y0298520D03*
X0306758Y0298126D03*
X0307152Y0297732D03*
X0307545Y0297339D03*
X0307939Y0296551D03*
X0315419Y0297339D03*
X0315813Y0297732D03*
X0316207Y0298126D03*
X0316600Y0298520D03*
X0316994Y0298913D03*
X0316994Y0299307D03*
X0317388Y0299701D03*
X0317781Y0300094D03*
X0318175Y0300488D03*
X0318569Y0300882D03*
X0318963Y0301276D03*
X0319356Y0302063D03*
X0319750Y0302457D03*
X0320144Y0302850D03*
X0320537Y0303244D03*
X0320931Y0303638D03*
X0321325Y0304425D03*
X0321719Y0304819D03*
X0321719Y0299307D03*
X0321719Y0298913D03*
X0321325Y0298520D03*
X0320931Y0298126D03*
X0320537Y0297732D03*
X0320144Y0297339D03*
X0319750Y0296551D03*
X0327624Y0288283D03*
X0327230Y0287890D03*
X0326837Y0287496D03*
X0326443Y0287102D03*
X0326049Y0286709D03*
X0325656Y0285921D03*
X0325262Y0285528D03*
X0324868Y0285134D03*
X0324474Y0284740D03*
X0324081Y0283953D03*
X0327230Y0282378D03*
X0327230Y0281984D03*
X0327624Y0282772D03*
X0328018Y0283165D03*
X0328411Y0283559D03*
X0328805Y0283953D03*
X0329199Y0284740D03*
X0329593Y0285134D03*
X0329986Y0285528D03*
X0330380Y0285921D03*
X0330774Y0286315D03*
X0330774Y0286709D03*
X0331167Y0287102D03*
X0331561Y0287496D03*
X0331955Y0287890D03*
X0332348Y0288283D03*
X0332348Y0288677D03*
X0332742Y0289071D03*
X0333136Y0289465D03*
X0330774Y0292220D03*
X0330380Y0291827D03*
X0329986Y0291433D03*
X0329593Y0291039D03*
X0329199Y0290252D03*
X0328805Y0289858D03*
X0328411Y0289465D03*
X0328018Y0289071D03*
X0331167Y0292614D03*
X0331561Y0293402D03*
X0331955Y0293795D03*
X0332348Y0294189D03*
X0332742Y0294583D03*
X0333136Y0295370D03*
X0333136Y0283953D03*
X0333136Y0283559D03*
X0332742Y0283165D03*
X0332348Y0282772D03*
X0331955Y0282378D03*
X0331561Y0281984D03*
X0331167Y0281197D03*
X0330774Y0280803D03*
X0330380Y0280409D03*
X0329986Y0280016D03*
X0329593Y0279228D03*
X0329199Y0278835D03*
X0328805Y0270173D03*
X0328805Y0269780D03*
X0333530Y0258362D03*
X0333923Y0257181D03*
X0334317Y0256394D03*
X0334317Y0256000D03*
X0323687Y0257575D03*
X0318963Y0258756D03*
X0318569Y0257969D03*
X0318175Y0257575D03*
X0309907Y0257969D03*
X0309514Y0258362D03*
X0309120Y0258756D03*
X0309120Y0259150D03*
X0308726Y0259937D03*
X0309514Y0267417D03*
X0309907Y0267811D03*
X0318569Y0267811D03*
X0318963Y0267417D03*
X0319356Y0266236D03*
X0328411Y0246551D03*
X0312270Y0239858D03*
X0304789Y0234740D03*
X0296522Y0292614D03*
X0296128Y0293402D03*
X0295734Y0293795D03*
X0295341Y0294189D03*
X0294947Y0294583D03*
X0294553Y0295370D03*
D14*
X0294750Y0294976D03*
X0296325Y0293008D03*
X0298293Y0290646D03*
X0299868Y0288677D03*
X0301837Y0286315D03*
X0303411Y0284346D03*
X0304199Y0283559D03*
X0304593Y0283165D03*
X0302230Y0280409D03*
X0301837Y0280803D03*
X0301443Y0281197D03*
X0299081Y0278441D03*
X0299474Y0278047D03*
X0299868Y0277654D03*
X0310104Y0285528D03*
X0311679Y0283165D03*
X0316010Y0283165D03*
X0317585Y0285528D03*
X0319553Y0291039D03*
X0321522Y0293402D03*
X0319947Y0296945D03*
X0319159Y0301669D03*
X0321128Y0304031D03*
X0332939Y0294976D03*
X0331364Y0293008D03*
X0329396Y0290646D03*
X0327821Y0288677D03*
X0325852Y0286315D03*
X0324278Y0284346D03*
X0323490Y0283559D03*
X0323096Y0283165D03*
X0325459Y0280409D03*
X0325852Y0280803D03*
X0326246Y0281197D03*
X0326640Y0281591D03*
X0328608Y0278441D03*
X0328215Y0278047D03*
X0327821Y0277654D03*
X0318372Y0268205D03*
X0317978Y0268598D03*
X0310104Y0268205D03*
X0310104Y0257575D03*
X0317585Y0257181D03*
X0312073Y0234740D03*
X0295144Y0243008D03*
X0308136Y0291039D03*
X0306167Y0293402D03*
X0307742Y0296945D03*
X0308530Y0301669D03*
X0306561Y0304031D03*
X0306167Y0304425D03*
X0311679Y0291827D03*
X0316010Y0291827D03*
D15*
X0315813Y0291433D03*
X0316207Y0293008D03*
X0313844Y0294976D03*
X0313844Y0295764D03*
X0311482Y0293008D03*
X0311876Y0291433D03*
X0313844Y0290252D03*
X0313844Y0289858D03*
X0313844Y0285921D03*
X0313844Y0285528D03*
X0313844Y0285134D03*
X0315813Y0283953D03*
X0315813Y0283559D03*
X0317781Y0285134D03*
X0317781Y0289465D03*
X0309907Y0289465D03*
X0309907Y0285134D03*
X0311876Y0283559D03*
X0313844Y0280409D03*
X0314238Y0270567D03*
X0310695Y0268598D03*
X0310695Y0257181D03*
X0296915Y0256394D03*
X0296522Y0256787D03*
X0296128Y0257181D03*
X0296128Y0257575D03*
X0295734Y0269386D03*
X0300852Y0276866D03*
X0300459Y0277260D03*
X0301640Y0276472D03*
X0302821Y0280016D03*
X0324868Y0280016D03*
X0327230Y0277260D03*
X0326837Y0276866D03*
X0326049Y0276472D03*
X0328805Y0269386D03*
X0328805Y0268992D03*
X0328018Y0238283D03*
X0328018Y0234740D03*
D16*
X0304593Y0236315D03*
X0304593Y0236709D03*
X0295931Y0257969D03*
X0295931Y0258362D03*
X0295931Y0258756D03*
X0295931Y0259150D03*
X0295931Y0259543D03*
X0303411Y0279622D03*
X0310892Y0282772D03*
X0311679Y0283953D03*
X0316797Y0282772D03*
X0317978Y0289858D03*
X0309711Y0289858D03*
X0324278Y0279622D03*
X0328608Y0268598D03*
D17*
X0315616Y0276079D03*
X0312073Y0276079D03*
X0304593Y0269780D03*
X0303018Y0256394D03*
X0299081Y0246157D03*
X0301049Y0237890D03*
X0314041Y0246157D03*
X0318372Y0244583D03*
X0325065Y0243402D03*
X0325065Y0246157D03*
X0329396Y0243402D03*
X0334120Y0243402D03*
X0334120Y0246157D03*
X0329002Y0237890D03*
X0322703Y0237890D03*
X0317978Y0236709D03*
X0316404Y0236315D03*
X0333726Y0285134D03*
X0333726Y0291039D03*
X0333726Y0296551D03*
X0322309Y0295370D03*
X0322309Y0294976D03*
X0322309Y0300488D03*
X0322309Y0306000D03*
X0322309Y0306394D03*
X0305380Y0306394D03*
X0305380Y0306000D03*
X0305380Y0300488D03*
X0305380Y0294976D03*
X0293963Y0296551D03*
X0293963Y0291039D03*
X0293963Y0285134D03*
D18*
X0294159Y0284740D03*
X0294159Y0290252D03*
X0294159Y0290646D03*
X0294159Y0296157D03*
X0305577Y0294583D03*
X0305577Y0300094D03*
X0305577Y0305606D03*
X0322112Y0305606D03*
X0322112Y0300094D03*
X0322112Y0294583D03*
X0333530Y0296157D03*
X0333530Y0290646D03*
X0333530Y0290252D03*
X0333530Y0284740D03*
X0317388Y0286709D03*
X0317388Y0287102D03*
X0317388Y0287496D03*
X0317388Y0287890D03*
X0310301Y0287890D03*
X0310301Y0287496D03*
X0310301Y0287102D03*
X0310301Y0286709D03*
X0308333Y0264268D03*
X0302033Y0256000D03*
X0317388Y0244976D03*
X0323687Y0243008D03*
X0328018Y0243008D03*
X0321719Y0238283D03*
X0304789Y0238283D03*
X0300065Y0238283D03*
X0325656Y0262693D03*
X0326049Y0263874D03*
X0326443Y0264661D03*
X0326837Y0265843D03*
X0327230Y0267024D03*
X0327624Y0267811D03*
X0327624Y0268205D03*
X0329986Y0267811D03*
X0330380Y0266630D03*
D19*
X0325262Y0276079D03*
X0313844Y0280016D03*
X0313844Y0280803D03*
X0309514Y0290252D03*
X0311482Y0293402D03*
X0313844Y0294189D03*
X0313844Y0294583D03*
X0313844Y0296157D03*
X0316207Y0293402D03*
X0318175Y0290252D03*
X0302427Y0276079D03*
X0295734Y0269780D03*
X0295734Y0268992D03*
X0295734Y0268598D03*
X0295734Y0268205D03*
X0295734Y0267811D03*
X0295734Y0267417D03*
X0295734Y0267024D03*
X0295734Y0266630D03*
X0295734Y0266236D03*
X0295734Y0265843D03*
X0295734Y0265449D03*
X0295734Y0265055D03*
X0295734Y0264661D03*
X0295734Y0264268D03*
X0295734Y0263874D03*
X0295734Y0263480D03*
X0295734Y0263087D03*
X0295734Y0262693D03*
X0295734Y0262299D03*
X0295734Y0261906D03*
X0295734Y0261512D03*
X0295734Y0261118D03*
X0295734Y0260724D03*
X0295734Y0260331D03*
X0295734Y0259937D03*
X0298096Y0256000D03*
X0299671Y0255606D03*
X0310695Y0244976D03*
X0316600Y0256787D03*
X0316994Y0268992D03*
X0311482Y0268992D03*
D20*
X0315222Y0251276D03*
D21*
X0314238Y0255606D03*
X0314238Y0270173D03*
X0313844Y0279622D03*
D22*
X0314238Y0269780D03*
X0314238Y0256000D03*
X0295734Y0270173D03*
D23*
X0306561Y0275291D03*
X0309317Y0281591D03*
X0321128Y0275291D03*
X0314041Y0256394D03*
D24*
X0311679Y0256787D03*
X0304593Y0270173D03*
X0304199Y0279228D03*
X0305774Y0282772D03*
X0308136Y0281197D03*
X0319553Y0281197D03*
X0321915Y0282772D03*
X0323490Y0279228D03*
D25*
X0328805Y0260331D03*
D26*
X0328805Y0260724D03*
X0328805Y0261118D03*
X0313844Y0293795D03*
D27*
X0308530Y0282378D03*
X0308136Y0278441D03*
X0318766Y0281984D03*
X0319159Y0282378D03*
X0319553Y0278441D03*
X0328608Y0261512D03*
D28*
X0314238Y0269386D03*
X0308726Y0281984D03*
D29*
X0306561Y0274898D03*
X0319553Y0281591D03*
X0321128Y0274898D03*
D30*
X0324081Y0275685D03*
X0313844Y0281197D03*
X0303608Y0275685D03*
X0313844Y0296551D03*
X0313844Y0296945D03*
D31*
X0308136Y0277654D03*
X0319553Y0277654D03*
D32*
X0319553Y0278047D03*
X0308136Y0278047D03*
D33*
X0308136Y0278835D03*
X0319553Y0278835D03*
D34*
X0313844Y0279228D03*
X0313844Y0284346D03*
X0313844Y0291039D03*
D35*
X0313844Y0284740D03*
D36*
X0313844Y0290646D03*
D37*
X0604655Y0020161D02*
X0604655Y0006850D01*
X0613529Y0006850D01*
X0618467Y0006850D02*
X0625123Y0006850D01*
X0627341Y0009069D01*
X0625123Y0011287D01*
X0620685Y0011287D01*
X0618467Y0013506D01*
X0620685Y0015724D01*
X0627341Y0015724D01*
X0632279Y0013506D02*
X0632279Y0009069D01*
X0634497Y0006850D01*
X0641153Y0006850D01*
X0646091Y0009069D02*
X0648309Y0011287D01*
X0654965Y0011287D01*
X0654965Y0013506D02*
X0654965Y0006850D01*
X0648309Y0006850D01*
X0646091Y0009069D01*
X0648309Y0015724D02*
X0652746Y0015724D01*
X0654965Y0013506D01*
X0659902Y0020161D02*
X0662121Y0020161D01*
X0662121Y0006850D01*
X0664339Y0006850D02*
X0659902Y0006850D01*
X0669110Y0009069D02*
X0671329Y0011287D01*
X0677984Y0011287D01*
X0677984Y0013506D02*
X0677984Y0006850D01*
X0671329Y0006850D01*
X0669110Y0009069D01*
X0671329Y0015724D02*
X0675766Y0015724D01*
X0677984Y0013506D01*
X0696734Y0015724D02*
X0701171Y0020161D01*
X0701171Y0006850D01*
X0696734Y0006850D02*
X0705608Y0006850D01*
X0710546Y0006850D02*
X0710546Y0009069D01*
X0712764Y0009069D01*
X0712764Y0006850D01*
X0710546Y0006850D01*
X0710546Y0013506D02*
X0710546Y0015724D01*
X0712764Y0015724D01*
X0712764Y0013506D01*
X0710546Y0013506D01*
X0717451Y0015724D02*
X0721889Y0020161D01*
X0721889Y0006850D01*
X0726326Y0006850D02*
X0717451Y0006850D01*
X0641153Y0015724D02*
X0634497Y0015724D01*
X0632279Y0013506D01*
X0613529Y0020161D02*
X0604655Y0020161D01*
X0604655Y0013506D02*
X0609092Y0013506D01*
D38*
X0166600Y0055016D02*
X0017585Y0055016D01*
X0025262Y0055272D02*
X0026285Y0065252D01*
X0026519Y0065252D02*
X0025262Y0055272D01*
X0024238Y0065252D01*
X0024005Y0065252D02*
X0026519Y0065252D01*
X0025774Y0065252D02*
X0025262Y0055272D01*
X0024750Y0065252D01*
X0024005Y0065252D02*
X0025262Y0055272D01*
X0025262Y0499642D01*
X0026285Y0489661D01*
X0026519Y0489661D02*
X0025262Y0499642D01*
X0024238Y0489661D01*
X0024005Y0489661D02*
X0026519Y0489661D01*
X0025774Y0489661D02*
X0025262Y0499642D01*
X0024750Y0489661D01*
X0024005Y0489661D02*
X0025262Y0499642D01*
X0017585Y0499898D02*
X0166600Y0499898D01*
X0166600Y0554425D01*
X0166856Y0546748D02*
X0176837Y0545724D01*
X0176837Y0545491D02*
X0166856Y0546748D01*
X0176837Y0547772D01*
X0176837Y0548005D02*
X0176837Y0545491D01*
X0176837Y0546236D02*
X0166856Y0546748D01*
X0176837Y0547260D01*
X0176837Y0548005D02*
X0166856Y0546748D01*
X0699809Y0546748D01*
X0689829Y0545724D01*
X0689829Y0545491D02*
X0699809Y0546748D01*
X0689829Y0547772D01*
X0689829Y0548005D02*
X0689829Y0545491D01*
X0689829Y0546236D02*
X0699809Y0546748D01*
X0689829Y0547260D01*
X0689829Y0548005D02*
X0699809Y0546748D01*
X0700065Y0554425D02*
X0700065Y0499898D01*
X0734514Y0426079D02*
X0734514Y0595764D01*
X0734258Y0588087D02*
X0724278Y0589110D01*
X0724278Y0589343D02*
X0724278Y0586830D01*
X0734258Y0588087D01*
X0724278Y0587063D01*
X0724278Y0587575D02*
X0734258Y0588087D01*
X0724278Y0588598D01*
X0724278Y0589343D02*
X0734258Y0588087D01*
X0132407Y0588087D01*
X0142388Y0587063D01*
X0142388Y0586830D02*
X0132407Y0588087D01*
X0142388Y0589110D01*
X0142388Y0589343D02*
X0142388Y0586830D01*
X0142388Y0587575D02*
X0132407Y0588087D01*
X0142388Y0588598D01*
X0142388Y0589343D02*
X0132407Y0588087D01*
X0132152Y0595764D02*
X0132152Y0426079D01*
X0063648Y0426079D01*
X0071325Y0425823D02*
X0072348Y0415843D01*
X0072582Y0415843D02*
X0071325Y0425823D01*
X0070301Y0415843D01*
X0070068Y0415843D02*
X0072582Y0415843D01*
X0071837Y0415843D02*
X0071325Y0425823D01*
X0070813Y0415843D01*
X0070068Y0415843D02*
X0071325Y0425823D01*
X0071325Y0129091D01*
X0072348Y0139071D01*
X0072582Y0139071D02*
X0071325Y0129091D01*
X0070301Y0139071D01*
X0070068Y0139071D02*
X0072582Y0139071D01*
X0071837Y0139071D02*
X0071325Y0129091D01*
X0070813Y0139071D01*
X0070068Y0139071D02*
X0071325Y0129091D01*
X0063648Y0128835D02*
X0132152Y0128835D01*
D39*
X0066463Y0251402D02*
X0064161Y0251402D01*
X0054953Y0260610D01*
X0052651Y0260610D01*
X0052651Y0251402D01*
X0052651Y0265214D02*
X0059557Y0265214D01*
X0057255Y0269818D01*
X0057255Y0272120D01*
X0059557Y0274422D01*
X0064161Y0274422D01*
X0066463Y0272120D01*
X0066463Y0267516D01*
X0064161Y0265214D01*
X0052651Y0265214D02*
X0052651Y0274422D01*
X0064161Y0279026D02*
X0064161Y0281328D01*
X0066463Y0281328D01*
X0066463Y0279026D01*
X0064161Y0279026D01*
X0064161Y0285932D02*
X0066463Y0288234D01*
X0066463Y0292837D01*
X0064161Y0295139D01*
X0059557Y0295139D01*
X0057255Y0292837D01*
X0057255Y0290535D01*
X0059557Y0285932D01*
X0052651Y0285932D01*
X0052651Y0295139D01*
X0054953Y0299743D02*
X0052651Y0302045D01*
X0052651Y0306649D01*
X0054953Y0308951D01*
X0064161Y0299743D01*
X0066463Y0302045D01*
X0066463Y0306649D01*
X0064161Y0308951D01*
X0054953Y0308951D01*
X0054953Y0299743D02*
X0064161Y0299743D01*
X0020400Y0300798D02*
X0020400Y0296194D01*
X0018098Y0293892D01*
X0008890Y0303100D01*
X0018098Y0303100D01*
X0020400Y0300798D01*
X0018098Y0307704D02*
X0008890Y0307704D01*
X0006588Y0310006D01*
X0006588Y0314610D01*
X0008890Y0316912D01*
X0018098Y0307704D01*
X0020400Y0310006D01*
X0020400Y0314610D01*
X0018098Y0316912D01*
X0008890Y0316912D01*
X0008890Y0303100D02*
X0006588Y0300798D01*
X0006588Y0296194D01*
X0008890Y0293892D01*
X0018098Y0293892D01*
X0018098Y0289288D02*
X0020400Y0289288D01*
X0020400Y0286986D01*
X0018098Y0286986D01*
X0018098Y0289288D01*
X0018098Y0282383D02*
X0020400Y0280081D01*
X0020400Y0275477D01*
X0018098Y0273175D01*
X0020400Y0268571D02*
X0020400Y0259363D01*
X0020400Y0263967D02*
X0006588Y0263967D01*
X0011192Y0259363D01*
X0020400Y0254759D02*
X0020400Y0245551D01*
X0020400Y0250155D02*
X0006588Y0250155D01*
X0011192Y0245551D01*
X0008890Y0273175D02*
X0006588Y0275477D01*
X0006588Y0280081D01*
X0008890Y0282383D01*
X0011192Y0282383D01*
X0013494Y0280081D01*
X0015796Y0282383D01*
X0018098Y0282383D01*
X0013494Y0280081D02*
X0013494Y0277779D01*
X0401427Y0551610D02*
X0410635Y0551610D01*
X0406031Y0551610D02*
X0406031Y0565422D01*
X0401427Y0560818D01*
X0415239Y0563120D02*
X0417541Y0565422D01*
X0422145Y0565422D01*
X0424447Y0563120D01*
X0424447Y0560818D01*
X0422145Y0558516D01*
X0424447Y0556214D01*
X0424447Y0553912D01*
X0422145Y0551610D01*
X0417541Y0551610D01*
X0415239Y0553912D01*
X0419843Y0558516D02*
X0422145Y0558516D01*
X0429051Y0558516D02*
X0429051Y0565422D01*
X0438258Y0565422D01*
X0435957Y0560818D02*
X0438258Y0558516D01*
X0438258Y0553912D01*
X0435957Y0551610D01*
X0431353Y0551610D01*
X0429051Y0553912D01*
X0429051Y0558516D02*
X0433655Y0560818D01*
X0435957Y0560818D01*
X0442862Y0553912D02*
X0445164Y0553912D01*
X0445164Y0551610D01*
X0442862Y0551610D01*
X0442862Y0553912D01*
X0449768Y0553912D02*
X0452070Y0551610D01*
X0456674Y0551610D01*
X0458976Y0553912D01*
X0458976Y0558516D01*
X0456674Y0560818D01*
X0454372Y0560818D01*
X0449768Y0558516D01*
X0449768Y0565422D01*
X0458976Y0565422D01*
X0463580Y0563120D02*
X0465882Y0565422D01*
X0470486Y0565422D01*
X0472788Y0563120D01*
X0463580Y0553912D01*
X0465882Y0551610D01*
X0470486Y0551610D01*
X0472788Y0553912D01*
X0472788Y0563120D01*
X0463580Y0563120D02*
X0463580Y0553912D01*
X0465882Y0592948D02*
X0463580Y0595250D01*
X0472788Y0604458D01*
X0472788Y0595250D01*
X0470486Y0592948D01*
X0465882Y0592948D01*
X0463580Y0595250D02*
X0463580Y0604458D01*
X0465882Y0606760D01*
X0470486Y0606760D01*
X0472788Y0604458D01*
X0458976Y0604458D02*
X0458976Y0595250D01*
X0456674Y0592948D01*
X0452070Y0592948D01*
X0449768Y0595250D01*
X0458976Y0604458D01*
X0456674Y0606760D01*
X0452070Y0606760D01*
X0449768Y0604458D01*
X0449768Y0595250D01*
X0445164Y0595250D02*
X0445164Y0592948D01*
X0442862Y0592948D01*
X0442862Y0595250D01*
X0445164Y0595250D01*
X0438258Y0595250D02*
X0435957Y0592948D01*
X0431353Y0592948D01*
X0429051Y0595250D01*
X0424447Y0595250D02*
X0422145Y0592948D01*
X0417541Y0592948D01*
X0415239Y0595250D01*
X0415239Y0599854D02*
X0419843Y0602156D01*
X0422145Y0602156D01*
X0424447Y0599854D01*
X0424447Y0595250D01*
X0429051Y0604458D02*
X0431353Y0606760D01*
X0435957Y0606760D01*
X0438258Y0604458D01*
X0438258Y0602156D01*
X0435957Y0599854D01*
X0438258Y0597552D01*
X0438258Y0595250D01*
X0435957Y0599854D02*
X0433655Y0599854D01*
X0424447Y0606760D02*
X0415239Y0606760D01*
X0415239Y0599854D01*
X0410635Y0592948D02*
X0401427Y0592948D01*
X0406031Y0592948D02*
X0406031Y0606760D01*
X0401427Y0602156D01*
X0512811Y0278090D02*
X0512811Y0275154D01*
X0517215Y0275154D01*
X0517215Y0278090D01*
X0515013Y0276622D02*
X0515013Y0275154D01*
X0517215Y0272933D02*
X0517215Y0269997D01*
X0512811Y0269997D01*
X0512811Y0267777D02*
X0516481Y0267777D01*
X0517215Y0267043D01*
X0517215Y0265575D01*
X0516481Y0264841D01*
X0512811Y0264841D01*
X0513545Y0262620D02*
X0512811Y0261886D01*
X0512811Y0259685D01*
X0517215Y0259685D01*
X0517215Y0261886D01*
X0516481Y0262620D01*
X0513545Y0262620D01*
X0513545Y0257464D02*
X0512811Y0256730D01*
X0512811Y0255262D01*
X0513545Y0254528D01*
X0516481Y0254528D01*
X0517215Y0255262D01*
X0517215Y0256730D01*
X0516481Y0257464D01*
X0513545Y0257464D01*
X0512811Y0252308D02*
X0517215Y0252308D01*
X0517215Y0249372D02*
X0512811Y0249372D01*
X0514279Y0250840D01*
X0512811Y0252308D01*
X0517949Y0247151D02*
X0517949Y0244215D01*
X0516481Y0241995D02*
X0517215Y0241261D01*
X0517215Y0239793D01*
X0516481Y0239059D01*
X0515013Y0239793D02*
X0514279Y0239059D01*
X0513545Y0239059D01*
X0512811Y0239793D01*
X0512811Y0241261D01*
X0513545Y0241995D01*
X0515013Y0241261D02*
X0515747Y0241995D01*
X0516481Y0241995D01*
X0515013Y0241261D02*
X0515013Y0239793D01*
X0515013Y0236838D02*
X0513545Y0236838D01*
X0512811Y0236104D01*
X0512811Y0233903D01*
X0517215Y0233903D01*
X0515747Y0233903D02*
X0515747Y0236104D01*
X0515013Y0236838D01*
X0515013Y0231682D02*
X0515013Y0230214D01*
X0515013Y0231682D02*
X0516481Y0231682D01*
X0517215Y0230948D01*
X0517215Y0229480D01*
X0516481Y0228746D01*
X0513545Y0228746D01*
X0512811Y0229480D01*
X0512811Y0230948D01*
X0513545Y0231682D01*
D40*
X0287529Y0323082D02*
X0287529Y0418357D01*
X0183572Y0418357D01*
X0158670Y0393456D01*
X0158670Y0347983D01*
X0183572Y0323082D01*
X0287529Y0323082D01*
X0245144Y0211906D02*
X0234514Y0211906D01*
X0245144Y0211906D02*
X0245144Y0182378D01*
X0241600Y0178835D01*
X0234514Y0178835D01*
X0222703Y0178835D02*
X0215616Y0178835D01*
X0212073Y0182378D01*
X0212073Y0211906D01*
X0222703Y0211906D01*
X0234120Y0209740D02*
X0234468Y0209602D01*
X0234812Y0209455D01*
X0235153Y0209300D01*
X0235490Y0209137D01*
X0235823Y0208965D01*
X0236152Y0208785D01*
X0236476Y0208598D01*
X0236796Y0208403D01*
X0237110Y0208199D01*
X0237420Y0207989D01*
X0237724Y0207771D01*
X0238023Y0207545D01*
X0238317Y0207312D01*
X0238605Y0207073D01*
X0238886Y0206826D01*
X0239162Y0206572D01*
X0239431Y0206312D01*
X0239695Y0206046D01*
X0239951Y0205773D01*
X0240201Y0205494D01*
X0240444Y0205209D01*
X0240680Y0204918D01*
X0240908Y0204621D01*
X0241130Y0204319D01*
X0241344Y0204012D01*
X0241550Y0203699D01*
X0241749Y0203382D01*
X0241940Y0203060D01*
X0242123Y0202733D01*
X0242299Y0202402D01*
X0242466Y0202067D01*
X0242624Y0201728D01*
X0242775Y0201385D01*
X0242917Y0201038D01*
X0243051Y0200689D01*
X0243176Y0200336D01*
X0243292Y0199980D01*
X0243400Y0199621D01*
X0243499Y0199260D01*
X0243590Y0198896D01*
X0243671Y0198531D01*
X0243743Y0198163D01*
X0243807Y0197794D01*
X0243861Y0197424D01*
X0243907Y0197052D01*
X0243943Y0196679D01*
X0243971Y0196306D01*
X0243989Y0195932D01*
X0243998Y0195557D01*
X0243998Y0195183D01*
X0243989Y0194808D01*
X0243971Y0194434D01*
X0243943Y0194061D01*
X0243907Y0193688D01*
X0243861Y0193316D01*
X0243807Y0192946D01*
X0243743Y0192577D01*
X0243671Y0192209D01*
X0243590Y0191844D01*
X0243499Y0191480D01*
X0243400Y0191119D01*
X0243292Y0190760D01*
X0243176Y0190404D01*
X0243051Y0190051D01*
X0242917Y0189702D01*
X0242775Y0189355D01*
X0242624Y0189012D01*
X0242466Y0188673D01*
X0242299Y0188338D01*
X0242123Y0188007D01*
X0241940Y0187680D01*
X0241749Y0187358D01*
X0241550Y0187041D01*
X0241344Y0186728D01*
X0241130Y0186421D01*
X0240908Y0186119D01*
X0240680Y0185822D01*
X0240444Y0185531D01*
X0240201Y0185246D01*
X0239951Y0184967D01*
X0239695Y0184694D01*
X0239431Y0184428D01*
X0239162Y0184168D01*
X0238886Y0183914D01*
X0238605Y0183667D01*
X0238317Y0183428D01*
X0238023Y0183195D01*
X0237724Y0182969D01*
X0237420Y0182751D01*
X0237110Y0182541D01*
X0236796Y0182337D01*
X0236476Y0182142D01*
X0236152Y0181955D01*
X0235823Y0181775D01*
X0235490Y0181603D01*
X0235153Y0181440D01*
X0234812Y0181285D01*
X0234468Y0181138D01*
X0234120Y0181000D01*
X0223096Y0181000D02*
X0222748Y0181138D01*
X0222404Y0181285D01*
X0222063Y0181440D01*
X0221726Y0181603D01*
X0221393Y0181775D01*
X0221064Y0181955D01*
X0220740Y0182142D01*
X0220420Y0182337D01*
X0220106Y0182541D01*
X0219796Y0182751D01*
X0219492Y0182969D01*
X0219193Y0183195D01*
X0218899Y0183428D01*
X0218611Y0183667D01*
X0218330Y0183914D01*
X0218054Y0184168D01*
X0217785Y0184428D01*
X0217521Y0184694D01*
X0217265Y0184967D01*
X0217015Y0185246D01*
X0216772Y0185531D01*
X0216536Y0185822D01*
X0216308Y0186119D01*
X0216086Y0186421D01*
X0215872Y0186728D01*
X0215666Y0187041D01*
X0215467Y0187358D01*
X0215276Y0187680D01*
X0215093Y0188007D01*
X0214917Y0188338D01*
X0214750Y0188673D01*
X0214592Y0189012D01*
X0214441Y0189355D01*
X0214299Y0189702D01*
X0214165Y0190051D01*
X0214040Y0190404D01*
X0213924Y0190760D01*
X0213816Y0191119D01*
X0213717Y0191480D01*
X0213626Y0191844D01*
X0213545Y0192209D01*
X0213473Y0192577D01*
X0213409Y0192946D01*
X0213355Y0193316D01*
X0213309Y0193688D01*
X0213273Y0194061D01*
X0213245Y0194434D01*
X0213227Y0194808D01*
X0213218Y0195183D01*
X0213218Y0195557D01*
X0213227Y0195932D01*
X0213245Y0196306D01*
X0213273Y0196679D01*
X0213309Y0197052D01*
X0213355Y0197424D01*
X0213409Y0197794D01*
X0213473Y0198163D01*
X0213545Y0198531D01*
X0213626Y0198896D01*
X0213717Y0199260D01*
X0213816Y0199621D01*
X0213924Y0199980D01*
X0214040Y0200336D01*
X0214165Y0200689D01*
X0214299Y0201038D01*
X0214441Y0201385D01*
X0214592Y0201728D01*
X0214750Y0202067D01*
X0214917Y0202402D01*
X0215093Y0202733D01*
X0215276Y0203060D01*
X0215467Y0203382D01*
X0215666Y0203699D01*
X0215872Y0204012D01*
X0216086Y0204319D01*
X0216308Y0204621D01*
X0216536Y0204918D01*
X0216772Y0205209D01*
X0217015Y0205494D01*
X0217265Y0205773D01*
X0217521Y0206046D01*
X0217785Y0206312D01*
X0218054Y0206572D01*
X0218330Y0206826D01*
X0218611Y0207073D01*
X0218899Y0207312D01*
X0219193Y0207545D01*
X0219492Y0207771D01*
X0219796Y0207989D01*
X0220106Y0208199D01*
X0220420Y0208403D01*
X0220740Y0208598D01*
X0221064Y0208785D01*
X0221393Y0208965D01*
X0221726Y0209137D01*
X0222063Y0209300D01*
X0222404Y0209455D01*
X0222748Y0209602D01*
X0223096Y0209740D01*
X0176246Y0200291D02*
X0176246Y0193205D01*
X0176246Y0200291D02*
X0172703Y0203835D01*
X0143175Y0203835D01*
X0143175Y0193205D01*
X0143175Y0181394D02*
X0143175Y0170764D01*
X0172703Y0170764D01*
X0176246Y0174307D01*
X0176246Y0181394D01*
X0174081Y0192811D02*
X0173943Y0193159D01*
X0173796Y0193503D01*
X0173641Y0193844D01*
X0173478Y0194181D01*
X0173306Y0194514D01*
X0173126Y0194843D01*
X0172939Y0195167D01*
X0172744Y0195487D01*
X0172540Y0195801D01*
X0172330Y0196111D01*
X0172112Y0196415D01*
X0171886Y0196714D01*
X0171653Y0197008D01*
X0171414Y0197296D01*
X0171167Y0197577D01*
X0170913Y0197853D01*
X0170653Y0198122D01*
X0170387Y0198386D01*
X0170114Y0198642D01*
X0169835Y0198892D01*
X0169550Y0199135D01*
X0169259Y0199371D01*
X0168962Y0199599D01*
X0168660Y0199821D01*
X0168353Y0200035D01*
X0168040Y0200241D01*
X0167723Y0200440D01*
X0167401Y0200631D01*
X0167074Y0200814D01*
X0166743Y0200990D01*
X0166408Y0201157D01*
X0166069Y0201315D01*
X0165726Y0201466D01*
X0165379Y0201608D01*
X0165030Y0201742D01*
X0164677Y0201867D01*
X0164321Y0201983D01*
X0163962Y0202091D01*
X0163601Y0202190D01*
X0163237Y0202281D01*
X0162872Y0202362D01*
X0162504Y0202434D01*
X0162135Y0202498D01*
X0161765Y0202552D01*
X0161393Y0202598D01*
X0161020Y0202634D01*
X0160647Y0202662D01*
X0160273Y0202680D01*
X0159898Y0202689D01*
X0159524Y0202689D01*
X0159149Y0202680D01*
X0158775Y0202662D01*
X0158402Y0202634D01*
X0158029Y0202598D01*
X0157657Y0202552D01*
X0157287Y0202498D01*
X0156918Y0202434D01*
X0156550Y0202362D01*
X0156185Y0202281D01*
X0155821Y0202190D01*
X0155460Y0202091D01*
X0155101Y0201983D01*
X0154745Y0201867D01*
X0154392Y0201742D01*
X0154043Y0201608D01*
X0153696Y0201466D01*
X0153353Y0201315D01*
X0153014Y0201157D01*
X0152679Y0200990D01*
X0152348Y0200814D01*
X0152021Y0200631D01*
X0151699Y0200440D01*
X0151382Y0200241D01*
X0151069Y0200035D01*
X0150762Y0199821D01*
X0150460Y0199599D01*
X0150163Y0199371D01*
X0149872Y0199135D01*
X0149587Y0198892D01*
X0149308Y0198642D01*
X0149035Y0198386D01*
X0148769Y0198122D01*
X0148509Y0197853D01*
X0148255Y0197577D01*
X0148008Y0197296D01*
X0147769Y0197008D01*
X0147536Y0196714D01*
X0147310Y0196415D01*
X0147092Y0196111D01*
X0146882Y0195801D01*
X0146678Y0195487D01*
X0146483Y0195167D01*
X0146296Y0194843D01*
X0146116Y0194514D01*
X0145944Y0194181D01*
X0145781Y0193844D01*
X0145626Y0193503D01*
X0145479Y0193159D01*
X0145341Y0192811D01*
X0145341Y0181787D02*
X0145479Y0181439D01*
X0145626Y0181095D01*
X0145781Y0180754D01*
X0145944Y0180417D01*
X0146116Y0180084D01*
X0146296Y0179755D01*
X0146483Y0179431D01*
X0146678Y0179111D01*
X0146882Y0178797D01*
X0147092Y0178487D01*
X0147310Y0178183D01*
X0147536Y0177884D01*
X0147769Y0177590D01*
X0148008Y0177302D01*
X0148255Y0177021D01*
X0148509Y0176745D01*
X0148769Y0176476D01*
X0149035Y0176212D01*
X0149308Y0175956D01*
X0149587Y0175706D01*
X0149872Y0175463D01*
X0150163Y0175227D01*
X0150460Y0174999D01*
X0150762Y0174777D01*
X0151069Y0174563D01*
X0151382Y0174357D01*
X0151699Y0174158D01*
X0152021Y0173967D01*
X0152348Y0173784D01*
X0152679Y0173608D01*
X0153014Y0173441D01*
X0153353Y0173283D01*
X0153696Y0173132D01*
X0154043Y0172990D01*
X0154392Y0172856D01*
X0154745Y0172731D01*
X0155101Y0172615D01*
X0155460Y0172507D01*
X0155821Y0172408D01*
X0156185Y0172317D01*
X0156550Y0172236D01*
X0156918Y0172164D01*
X0157287Y0172100D01*
X0157657Y0172046D01*
X0158029Y0172000D01*
X0158402Y0171964D01*
X0158775Y0171936D01*
X0159149Y0171918D01*
X0159524Y0171909D01*
X0159898Y0171909D01*
X0160273Y0171918D01*
X0160647Y0171936D01*
X0161020Y0171964D01*
X0161393Y0172000D01*
X0161765Y0172046D01*
X0162135Y0172100D01*
X0162504Y0172164D01*
X0162872Y0172236D01*
X0163237Y0172317D01*
X0163601Y0172408D01*
X0163962Y0172507D01*
X0164321Y0172615D01*
X0164677Y0172731D01*
X0165030Y0172856D01*
X0165379Y0172990D01*
X0165726Y0173132D01*
X0166069Y0173283D01*
X0166408Y0173441D01*
X0166743Y0173608D01*
X0167074Y0173784D01*
X0167401Y0173967D01*
X0167723Y0174158D01*
X0168040Y0174357D01*
X0168353Y0174563D01*
X0168660Y0174777D01*
X0168962Y0174999D01*
X0169259Y0175227D01*
X0169550Y0175463D01*
X0169835Y0175706D01*
X0170114Y0175956D01*
X0170387Y0176212D01*
X0170653Y0176476D01*
X0170913Y0176745D01*
X0171167Y0177021D01*
X0171414Y0177302D01*
X0171653Y0177590D01*
X0171886Y0177884D01*
X0172112Y0178183D01*
X0172330Y0178487D01*
X0172540Y0178797D01*
X0172744Y0179111D01*
X0172939Y0179431D01*
X0173126Y0179755D01*
X0173306Y0180084D01*
X0173478Y0180417D01*
X0173641Y0180754D01*
X0173796Y0181095D01*
X0173943Y0181439D01*
X0174081Y0181787D01*
D41*
X0176529Y0148093D02*
X0176529Y0099093D01*
X0180029Y0099093D01*
X0180029Y0093093D01*
X0176529Y0093093D01*
X0176529Y0085593D01*
X0217529Y0085593D01*
X0217529Y0093093D01*
X0214029Y0093093D01*
X0214029Y0099093D01*
X0217529Y0099093D01*
X0217529Y0148093D01*
X0176529Y0148093D01*
X0189929Y0099093D02*
X0189931Y0099267D01*
X0189938Y0099441D01*
X0189948Y0099615D01*
X0189963Y0099789D01*
X0189982Y0099962D01*
X0190006Y0100135D01*
X0190034Y0100307D01*
X0190065Y0100478D01*
X0190102Y0100649D01*
X0190142Y0100818D01*
X0190186Y0100987D01*
X0190235Y0101154D01*
X0190287Y0101320D01*
X0190344Y0101485D01*
X0190405Y0101648D01*
X0190469Y0101810D01*
X0190538Y0101970D01*
X0190611Y0102129D01*
X0190687Y0102285D01*
X0190767Y0102440D01*
X0190851Y0102593D01*
X0190939Y0102743D01*
X0191031Y0102891D01*
X0191126Y0103038D01*
X0191224Y0103181D01*
X0191326Y0103322D01*
X0191432Y0103461D01*
X0191541Y0103597D01*
X0191653Y0103731D01*
X0191768Y0103861D01*
X0191887Y0103989D01*
X0192009Y0104113D01*
X0192133Y0104235D01*
X0192261Y0104354D01*
X0192391Y0104469D01*
X0192525Y0104581D01*
X0192661Y0104690D01*
X0192800Y0104796D01*
X0192941Y0104898D01*
X0193084Y0104996D01*
X0193231Y0105091D01*
X0193379Y0105183D01*
X0193529Y0105271D01*
X0193682Y0105355D01*
X0193837Y0105435D01*
X0193993Y0105511D01*
X0194152Y0105584D01*
X0194312Y0105653D01*
X0194474Y0105717D01*
X0194637Y0105778D01*
X0194802Y0105835D01*
X0194968Y0105887D01*
X0195135Y0105936D01*
X0195304Y0105980D01*
X0195473Y0106020D01*
X0195644Y0106057D01*
X0195815Y0106088D01*
X0195987Y0106116D01*
X0196160Y0106140D01*
X0196333Y0106159D01*
X0196507Y0106174D01*
X0196681Y0106184D01*
X0196855Y0106191D01*
X0197029Y0106193D01*
X0197203Y0106191D01*
X0197377Y0106184D01*
X0197551Y0106174D01*
X0197725Y0106159D01*
X0197898Y0106140D01*
X0198071Y0106116D01*
X0198243Y0106088D01*
X0198414Y0106057D01*
X0198585Y0106020D01*
X0198754Y0105980D01*
X0198923Y0105936D01*
X0199090Y0105887D01*
X0199256Y0105835D01*
X0199421Y0105778D01*
X0199584Y0105717D01*
X0199746Y0105653D01*
X0199906Y0105584D01*
X0200065Y0105511D01*
X0200221Y0105435D01*
X0200376Y0105355D01*
X0200529Y0105271D01*
X0200679Y0105183D01*
X0200827Y0105091D01*
X0200974Y0104996D01*
X0201117Y0104898D01*
X0201258Y0104796D01*
X0201397Y0104690D01*
X0201533Y0104581D01*
X0201667Y0104469D01*
X0201797Y0104354D01*
X0201925Y0104235D01*
X0202049Y0104113D01*
X0202171Y0103989D01*
X0202290Y0103861D01*
X0202405Y0103731D01*
X0202517Y0103597D01*
X0202626Y0103461D01*
X0202732Y0103322D01*
X0202834Y0103181D01*
X0202932Y0103038D01*
X0203027Y0102891D01*
X0203119Y0102743D01*
X0203207Y0102593D01*
X0203291Y0102440D01*
X0203371Y0102285D01*
X0203447Y0102129D01*
X0203520Y0101970D01*
X0203589Y0101810D01*
X0203653Y0101648D01*
X0203714Y0101485D01*
X0203771Y0101320D01*
X0203823Y0101154D01*
X0203872Y0100987D01*
X0203916Y0100818D01*
X0203956Y0100649D01*
X0203993Y0100478D01*
X0204024Y0100307D01*
X0204052Y0100135D01*
X0204076Y0099962D01*
X0204095Y0099789D01*
X0204110Y0099615D01*
X0204120Y0099441D01*
X0204127Y0099267D01*
X0204129Y0099093D01*
X0204127Y0098919D01*
X0204120Y0098745D01*
X0204110Y0098571D01*
X0204095Y0098397D01*
X0204076Y0098224D01*
X0204052Y0098051D01*
X0204024Y0097879D01*
X0203993Y0097708D01*
X0203956Y0097537D01*
X0203916Y0097368D01*
X0203872Y0097199D01*
X0203823Y0097032D01*
X0203771Y0096866D01*
X0203714Y0096701D01*
X0203653Y0096538D01*
X0203589Y0096376D01*
X0203520Y0096216D01*
X0203447Y0096057D01*
X0203371Y0095901D01*
X0203291Y0095746D01*
X0203207Y0095593D01*
X0203119Y0095443D01*
X0203027Y0095295D01*
X0202932Y0095148D01*
X0202834Y0095005D01*
X0202732Y0094864D01*
X0202626Y0094725D01*
X0202517Y0094589D01*
X0202405Y0094455D01*
X0202290Y0094325D01*
X0202171Y0094197D01*
X0202049Y0094073D01*
X0201925Y0093951D01*
X0201797Y0093832D01*
X0201667Y0093717D01*
X0201533Y0093605D01*
X0201397Y0093496D01*
X0201258Y0093390D01*
X0201117Y0093288D01*
X0200974Y0093190D01*
X0200827Y0093095D01*
X0200679Y0093003D01*
X0200529Y0092915D01*
X0200376Y0092831D01*
X0200221Y0092751D01*
X0200065Y0092675D01*
X0199906Y0092602D01*
X0199746Y0092533D01*
X0199584Y0092469D01*
X0199421Y0092408D01*
X0199256Y0092351D01*
X0199090Y0092299D01*
X0198923Y0092250D01*
X0198754Y0092206D01*
X0198585Y0092166D01*
X0198414Y0092129D01*
X0198243Y0092098D01*
X0198071Y0092070D01*
X0197898Y0092046D01*
X0197725Y0092027D01*
X0197551Y0092012D01*
X0197377Y0092002D01*
X0197203Y0091995D01*
X0197029Y0091993D01*
X0196855Y0091995D01*
X0196681Y0092002D01*
X0196507Y0092012D01*
X0196333Y0092027D01*
X0196160Y0092046D01*
X0195987Y0092070D01*
X0195815Y0092098D01*
X0195644Y0092129D01*
X0195473Y0092166D01*
X0195304Y0092206D01*
X0195135Y0092250D01*
X0194968Y0092299D01*
X0194802Y0092351D01*
X0194637Y0092408D01*
X0194474Y0092469D01*
X0194312Y0092533D01*
X0194152Y0092602D01*
X0193993Y0092675D01*
X0193837Y0092751D01*
X0193682Y0092831D01*
X0193529Y0092915D01*
X0193379Y0093003D01*
X0193231Y0093095D01*
X0193084Y0093190D01*
X0192941Y0093288D01*
X0192800Y0093390D01*
X0192661Y0093496D01*
X0192525Y0093605D01*
X0192391Y0093717D01*
X0192261Y0093832D01*
X0192133Y0093951D01*
X0192009Y0094073D01*
X0191887Y0094197D01*
X0191768Y0094325D01*
X0191653Y0094455D01*
X0191541Y0094589D01*
X0191432Y0094725D01*
X0191326Y0094864D01*
X0191224Y0095005D01*
X0191126Y0095148D01*
X0191031Y0095295D01*
X0190939Y0095443D01*
X0190851Y0095593D01*
X0190767Y0095746D01*
X0190687Y0095901D01*
X0190611Y0096057D01*
X0190538Y0096216D01*
X0190469Y0096376D01*
X0190405Y0096538D01*
X0190344Y0096701D01*
X0190287Y0096866D01*
X0190235Y0097032D01*
X0190186Y0097199D01*
X0190142Y0097368D01*
X0190102Y0097537D01*
X0190065Y0097708D01*
X0190034Y0097879D01*
X0190006Y0098051D01*
X0189982Y0098224D01*
X0189963Y0098397D01*
X0189948Y0098571D01*
X0189938Y0098745D01*
X0189931Y0098919D01*
X0189929Y0099093D01*
X0235144Y0089012D02*
X0235144Y0084012D01*
X0237644Y0081512D01*
X0242644Y0081512D01*
X0245144Y0084012D01*
X0245144Y0089012D01*
X0242644Y0091512D01*
X0237644Y0091512D01*
X0235144Y0089012D01*
X0245144Y0089012D02*
X0247644Y0091512D01*
X0252644Y0091512D01*
X0255144Y0089012D01*
X0255144Y0084012D01*
X0252644Y0081512D01*
X0247644Y0081512D01*
X0245144Y0084012D01*
X0270065Y0088829D02*
X0280065Y0088829D01*
X0290065Y0088829D01*
X0300065Y0088829D01*
X0300065Y0098829D01*
X0290065Y0098829D01*
X0280065Y0098829D01*
X0270065Y0098829D01*
X0270065Y0088829D01*
X0280065Y0088829D02*
X0280065Y0098829D01*
X0290065Y0098829D02*
X0290065Y0088829D01*
X0314465Y0088029D02*
X0324465Y0088029D01*
X0334465Y0088029D01*
X0344465Y0088029D01*
X0344465Y0098029D01*
X0334465Y0098029D01*
X0324465Y0098029D01*
X0314465Y0098029D01*
X0314465Y0088029D01*
X0324465Y0088029D02*
X0324465Y0098029D01*
X0334465Y0098029D02*
X0334465Y0088029D01*
X0355665Y0088029D02*
X0365665Y0088029D01*
X0375665Y0088029D01*
X0385665Y0088029D01*
X0385665Y0098029D01*
X0375665Y0098029D01*
X0365665Y0098029D01*
X0355665Y0098029D01*
X0355665Y0088029D01*
X0365665Y0088029D02*
X0365665Y0098029D01*
X0375665Y0098029D02*
X0375665Y0088029D01*
X0397665Y0087629D02*
X0407665Y0087629D01*
X0417665Y0087629D01*
X0427665Y0087629D01*
X0427665Y0097629D01*
X0417665Y0097629D01*
X0407665Y0097629D01*
X0397665Y0097629D01*
X0397665Y0087629D01*
X0407665Y0087629D02*
X0407665Y0097629D01*
X0417665Y0097629D02*
X0417665Y0087629D01*
X0463367Y0089401D02*
X0473367Y0089401D01*
X0483367Y0089401D01*
X0493367Y0089401D01*
X0503367Y0089401D01*
X0513367Y0089401D01*
X0513367Y0099401D01*
X0503367Y0099401D01*
X0493367Y0099401D01*
X0483367Y0099401D01*
X0473367Y0099401D01*
X0463367Y0099401D01*
X0463367Y0089401D01*
X0473367Y0089401D02*
X0473367Y0099401D01*
X0483367Y0099401D02*
X0483367Y0089401D01*
X0493367Y0089401D02*
X0493367Y0099401D01*
X0503367Y0099401D02*
X0503367Y0089401D01*
X0537602Y0087229D02*
X0547602Y0087229D01*
X0557602Y0087229D01*
X0567602Y0087229D01*
X0567602Y0097229D01*
X0557602Y0097229D01*
X0547602Y0097229D01*
X0537602Y0097229D01*
X0537602Y0087229D01*
X0547602Y0087229D02*
X0547602Y0097229D01*
X0557602Y0097229D02*
X0557602Y0087229D01*
X0581139Y0087229D02*
X0591139Y0087229D01*
X0601139Y0087229D01*
X0611139Y0087229D01*
X0611139Y0097229D01*
X0601139Y0097229D01*
X0591139Y0097229D01*
X0581139Y0097229D01*
X0581139Y0087229D01*
X0591139Y0087229D02*
X0591139Y0097229D01*
X0601139Y0097229D02*
X0601139Y0087229D01*
X0690006Y0136236D02*
X0700006Y0136236D01*
X0700006Y0146236D01*
X0700006Y0156236D01*
X0700006Y0166236D01*
X0700006Y0176236D01*
X0700006Y0186236D01*
X0700006Y0196236D01*
X0690006Y0196236D01*
X0690006Y0186236D01*
X0690006Y0176236D01*
X0690006Y0166236D01*
X0690006Y0156236D01*
X0690006Y0146236D01*
X0690006Y0136236D01*
X0690006Y0146236D02*
X0700006Y0146236D01*
X0700006Y0156236D02*
X0690006Y0156236D01*
X0690006Y0166236D02*
X0700006Y0166236D01*
X0700006Y0176236D02*
X0690006Y0176236D01*
X0690006Y0186236D02*
X0700006Y0186236D01*
X0700006Y0208165D02*
X0690006Y0208165D01*
X0690006Y0218165D01*
X0700006Y0218165D01*
X0700006Y0208165D01*
X0700006Y0218165D02*
X0700006Y0228165D01*
X0700006Y0238165D01*
X0700006Y0248165D01*
X0700006Y0258165D01*
X0690006Y0258165D01*
X0690006Y0248165D01*
X0690006Y0238165D01*
X0690006Y0228165D01*
X0690006Y0218165D01*
X0690006Y0228165D02*
X0700006Y0228165D01*
X0700006Y0238165D02*
X0690006Y0238165D01*
X0690006Y0248165D02*
X0700006Y0248165D01*
X0645195Y0290583D02*
X0645195Y0298583D01*
X0645193Y0298643D01*
X0645188Y0298704D01*
X0645179Y0298763D01*
X0645166Y0298822D01*
X0645150Y0298881D01*
X0645130Y0298938D01*
X0645107Y0298993D01*
X0645080Y0299048D01*
X0645051Y0299100D01*
X0645018Y0299151D01*
X0644982Y0299200D01*
X0644944Y0299246D01*
X0644902Y0299290D01*
X0644858Y0299332D01*
X0644812Y0299370D01*
X0644763Y0299406D01*
X0644712Y0299439D01*
X0644660Y0299468D01*
X0644605Y0299495D01*
X0644550Y0299518D01*
X0644493Y0299538D01*
X0644434Y0299554D01*
X0644375Y0299567D01*
X0644316Y0299576D01*
X0644255Y0299581D01*
X0644195Y0299583D01*
X0627195Y0299583D01*
X0627135Y0299581D01*
X0627074Y0299576D01*
X0627015Y0299567D01*
X0626956Y0299554D01*
X0626897Y0299538D01*
X0626840Y0299518D01*
X0626785Y0299495D01*
X0626730Y0299468D01*
X0626678Y0299439D01*
X0626627Y0299406D01*
X0626578Y0299370D01*
X0626532Y0299332D01*
X0626488Y0299290D01*
X0626446Y0299246D01*
X0626408Y0299200D01*
X0626372Y0299151D01*
X0626339Y0299100D01*
X0626310Y0299048D01*
X0626283Y0298993D01*
X0626260Y0298938D01*
X0626240Y0298881D01*
X0626224Y0298822D01*
X0626211Y0298763D01*
X0626202Y0298704D01*
X0626197Y0298643D01*
X0626195Y0298583D01*
X0626195Y0290583D01*
X0626197Y0290523D01*
X0626202Y0290462D01*
X0626211Y0290403D01*
X0626224Y0290344D01*
X0626240Y0290285D01*
X0626260Y0290228D01*
X0626283Y0290173D01*
X0626310Y0290118D01*
X0626339Y0290066D01*
X0626372Y0290015D01*
X0626408Y0289966D01*
X0626446Y0289920D01*
X0626488Y0289876D01*
X0626532Y0289834D01*
X0626578Y0289796D01*
X0626627Y0289760D01*
X0626678Y0289727D01*
X0626730Y0289698D01*
X0626785Y0289671D01*
X0626840Y0289648D01*
X0626897Y0289628D01*
X0626956Y0289612D01*
X0627015Y0289599D01*
X0627074Y0289590D01*
X0627135Y0289585D01*
X0627195Y0289583D01*
X0644195Y0289583D01*
X0644255Y0289585D01*
X0644316Y0289590D01*
X0644375Y0289599D01*
X0644434Y0289612D01*
X0644493Y0289628D01*
X0644550Y0289648D01*
X0644605Y0289671D01*
X0644660Y0289698D01*
X0644712Y0289727D01*
X0644763Y0289760D01*
X0644812Y0289796D01*
X0644858Y0289834D01*
X0644902Y0289876D01*
X0644944Y0289920D01*
X0644982Y0289966D01*
X0645018Y0290015D01*
X0645051Y0290066D01*
X0645080Y0290118D01*
X0645107Y0290173D01*
X0645130Y0290228D01*
X0645150Y0290285D01*
X0645166Y0290344D01*
X0645179Y0290403D01*
X0645188Y0290462D01*
X0645193Y0290523D01*
X0645195Y0290583D01*
X0637195Y0294583D02*
X0636695Y0294583D01*
X0634695Y0294583D02*
X0634195Y0294583D01*
X0690006Y0331276D02*
X0690006Y0341276D01*
X0700006Y0341276D01*
X0700006Y0331276D01*
X0690006Y0331276D01*
X0690006Y0341276D02*
X0690006Y0351276D01*
X0700006Y0351276D01*
X0700006Y0341276D01*
X0700006Y0351276D02*
X0700006Y0361276D01*
X0700006Y0371276D01*
X0690006Y0371276D01*
X0690006Y0361276D01*
X0690006Y0351276D01*
X0690006Y0361276D02*
X0700006Y0361276D01*
X0700006Y0382457D02*
X0690006Y0382457D01*
X0690006Y0392457D01*
X0700006Y0392457D01*
X0700006Y0382457D01*
X0700006Y0392457D02*
X0700006Y0402457D01*
X0700006Y0412457D01*
X0700006Y0422457D01*
X0690006Y0422457D01*
X0690006Y0412457D01*
X0690006Y0402457D01*
X0690006Y0392457D01*
X0690006Y0402457D02*
X0700006Y0402457D01*
X0700006Y0412457D02*
X0690006Y0412457D01*
X0603333Y0454012D02*
X0603333Y0464012D01*
X0593333Y0464012D01*
X0583333Y0464012D01*
X0573333Y0464012D01*
X0563333Y0464012D01*
X0563333Y0454012D01*
X0573333Y0454012D01*
X0583333Y0454012D01*
X0593333Y0454012D01*
X0603333Y0454012D01*
X0593333Y0454012D02*
X0593333Y0464012D01*
X0583333Y0464012D02*
X0583333Y0454012D01*
X0573333Y0454012D02*
X0573333Y0464012D01*
X0548215Y0464012D02*
X0548215Y0454012D01*
X0538215Y0454012D01*
X0538215Y0464012D01*
X0548215Y0464012D01*
X0538215Y0464012D02*
X0528215Y0464012D01*
X0518215Y0464012D01*
X0508215Y0464012D01*
X0508215Y0454012D01*
X0518215Y0454012D01*
X0528215Y0454012D01*
X0538215Y0454012D01*
X0528215Y0454012D02*
X0528215Y0464012D01*
X0518215Y0464012D02*
X0518215Y0454012D01*
X0492033Y0454012D02*
X0492033Y0464012D01*
X0482033Y0464012D01*
X0472033Y0464012D01*
X0462033Y0464012D01*
X0462033Y0454012D01*
X0472033Y0454012D01*
X0482033Y0454012D01*
X0492033Y0454012D01*
X0482033Y0454012D02*
X0482033Y0464012D01*
X0472033Y0464012D02*
X0472033Y0454012D01*
X0473079Y0308596D02*
X0472512Y0308029D01*
X0472512Y0306894D01*
X0473079Y0306327D01*
X0473646Y0306327D01*
X0474213Y0306894D01*
X0474213Y0308029D01*
X0474780Y0308596D01*
X0475347Y0308596D01*
X0475915Y0308029D01*
X0475915Y0306894D01*
X0475347Y0306327D01*
X0474213Y0304913D02*
X0474780Y0304345D01*
X0474780Y0302644D01*
X0475915Y0302644D02*
X0472512Y0302644D01*
X0472512Y0304345D01*
X0473079Y0304913D01*
X0474213Y0304913D01*
X0474213Y0301229D02*
X0474780Y0300662D01*
X0474780Y0298961D01*
X0475915Y0298961D02*
X0472512Y0298961D01*
X0472512Y0300662D01*
X0473079Y0301229D01*
X0474213Y0301229D01*
X0482512Y0300189D02*
X0484780Y0300189D01*
X0485915Y0301323D01*
X0484780Y0302457D01*
X0482512Y0302457D01*
X0482512Y0303872D02*
X0482512Y0305006D01*
X0482512Y0304439D02*
X0485915Y0304439D01*
X0485915Y0303872D02*
X0485915Y0305006D01*
X0485915Y0306327D02*
X0482512Y0306327D01*
X0485915Y0308596D01*
X0482512Y0308596D01*
X0492512Y0308029D02*
X0492512Y0306327D01*
X0495915Y0306327D01*
X0495915Y0308029D01*
X0495347Y0308596D01*
X0493079Y0308596D01*
X0492512Y0308029D01*
X0492512Y0304913D02*
X0495915Y0304913D01*
X0492512Y0302644D01*
X0495915Y0302644D01*
X0495347Y0301229D02*
X0494213Y0301229D01*
X0494213Y0300095D01*
X0493079Y0298961D02*
X0495347Y0298961D01*
X0495915Y0299528D01*
X0495915Y0300662D01*
X0495347Y0301229D01*
X0493079Y0301229D02*
X0492512Y0300662D01*
X0492512Y0299528D01*
X0493079Y0298961D01*
X0502512Y0302644D02*
X0502512Y0304345D01*
X0503079Y0304913D01*
X0504213Y0304913D01*
X0504780Y0304345D01*
X0504780Y0302644D01*
X0504780Y0303778D02*
X0505915Y0304913D01*
X0505915Y0306327D02*
X0502512Y0308596D01*
X0502512Y0306327D02*
X0505915Y0308596D01*
X0505915Y0302644D02*
X0502512Y0302644D01*
X0512512Y0302644D02*
X0512512Y0304913D01*
X0512512Y0303778D02*
X0515915Y0303778D01*
X0515915Y0306327D02*
X0512512Y0308596D01*
X0512512Y0306327D02*
X0515915Y0308596D01*
X0522512Y0308596D02*
X0525915Y0306327D01*
X0525915Y0305006D02*
X0525915Y0303872D01*
X0525915Y0304439D02*
X0522512Y0304439D01*
X0522512Y0303872D02*
X0522512Y0305006D01*
X0522512Y0306327D02*
X0525915Y0308596D01*
X0532512Y0308596D02*
X0532512Y0306327D01*
X0532512Y0307461D02*
X0535915Y0307461D01*
X0535915Y0304913D02*
X0533646Y0304913D01*
X0532512Y0303778D01*
X0533646Y0302644D01*
X0535915Y0302644D01*
X0535347Y0301229D02*
X0535915Y0300662D01*
X0535915Y0298961D01*
X0532512Y0298961D01*
X0532512Y0300662D01*
X0533079Y0301229D01*
X0533646Y0301229D01*
X0534213Y0300662D01*
X0534213Y0298961D01*
X0534780Y0297546D02*
X0532512Y0297546D01*
X0534780Y0297546D02*
X0535915Y0296412D01*
X0534780Y0295278D01*
X0532512Y0295278D01*
X0534213Y0300662D02*
X0534780Y0301229D01*
X0535347Y0301229D01*
X0534213Y0302644D02*
X0534213Y0304913D01*
X0542512Y0304913D02*
X0542512Y0302644D01*
X0545915Y0302644D01*
X0545915Y0304913D01*
X0545915Y0306327D02*
X0542512Y0306327D01*
X0545915Y0308596D01*
X0542512Y0308596D01*
X0544213Y0303778D02*
X0544213Y0302644D01*
X0552512Y0303211D02*
X0552512Y0304345D01*
X0553079Y0304913D01*
X0553646Y0304913D01*
X0554213Y0304345D01*
X0554780Y0304913D01*
X0555347Y0304913D01*
X0555915Y0304345D01*
X0555915Y0303211D01*
X0555347Y0302644D01*
X0555347Y0301370D02*
X0555915Y0301370D01*
X0555915Y0300802D01*
X0555347Y0300802D01*
X0555347Y0301370D01*
X0555347Y0299388D02*
X0555915Y0298821D01*
X0555915Y0297686D01*
X0555347Y0297119D01*
X0554213Y0298254D02*
X0554213Y0298821D01*
X0554780Y0299388D01*
X0555347Y0299388D01*
X0554213Y0298821D02*
X0553646Y0299388D01*
X0553079Y0299388D01*
X0552512Y0298821D01*
X0552512Y0297686D01*
X0553079Y0297119D01*
X0553079Y0302644D02*
X0552512Y0303211D01*
X0554213Y0303778D02*
X0554213Y0304345D01*
X0554780Y0306327D02*
X0555915Y0307461D01*
X0554780Y0308596D01*
X0552512Y0308596D01*
X0552512Y0306327D02*
X0554780Y0306327D01*
X0525915Y0300189D02*
X0522512Y0300189D01*
X0522512Y0302457D01*
X0524213Y0301323D02*
X0524213Y0300189D01*
X0228993Y0337716D02*
X0228993Y0399995D01*
X0208106Y0399995D02*
X0208106Y0337716D01*
D42*
X0210846Y0341554D02*
X0210846Y0347584D01*
X0211176Y0347584D01*
X0211504Y0347420D01*
X0211779Y0347584D01*
X0212053Y0347584D01*
X0215507Y0348955D01*
X0211669Y0352847D01*
X0211395Y0353067D01*
X0211066Y0353231D01*
X0210846Y0353286D01*
X0210846Y0356739D01*
X0211340Y0356027D01*
X0211724Y0355479D01*
X0212381Y0354711D01*
X0217206Y0349558D01*
X0224772Y0352628D01*
X0225978Y0353505D01*
X0225978Y0353669D01*
X0225649Y0353998D01*
X0224333Y0354437D01*
X0221866Y0355095D01*
X0218741Y0355862D01*
X0212930Y0357288D01*
X0211943Y0357507D01*
X0210846Y0357507D01*
X0210846Y0369952D01*
X0211011Y0370610D01*
X0211285Y0371048D01*
X0211888Y0371377D01*
X0212437Y0371596D01*
X0213369Y0371596D01*
X0213807Y0371432D01*
X0216548Y0370774D01*
X0217096Y0370555D01*
X0217919Y0369733D01*
X0218193Y0369075D01*
X0218412Y0368198D01*
X0218412Y0367101D01*
X0218631Y0368691D01*
X0219180Y0369842D01*
X0219289Y0369897D01*
X0220770Y0369897D01*
X0223182Y0369294D01*
X0223785Y0368910D01*
X0224443Y0368800D01*
X0225375Y0367978D01*
X0225704Y0367320D01*
X0226033Y0366279D01*
X0226033Y0347255D01*
X0225430Y0347584D01*
X0225046Y0347584D01*
X0220715Y0345830D01*
X0225156Y0341280D01*
X0226033Y0340786D01*
X0226033Y0337552D01*
X0225046Y0338922D01*
X0219070Y0345281D01*
X0211450Y0342157D01*
X0210846Y0341554D01*
X0217370Y0360522D02*
X0212711Y0361674D01*
X0212711Y0366717D01*
X0212985Y0367211D01*
X0213862Y0367265D01*
X0216767Y0366498D01*
X0217151Y0366333D01*
X0217370Y0366005D01*
X0217370Y0360522D01*
X0219344Y0360139D02*
X0224169Y0358878D01*
X0224169Y0364195D01*
X0224059Y0364415D01*
X0223620Y0364798D01*
X0223291Y0365018D01*
X0220057Y0365840D01*
X0219893Y0365840D01*
X0219509Y0365566D01*
X0219344Y0365128D01*
X0219344Y0360139D01*
X0223182Y0371103D02*
X0218302Y0372200D01*
X0217700Y0372364D01*
X0216384Y0373022D01*
X0215671Y0373515D01*
X0215123Y0374393D01*
X0214904Y0375050D01*
X0214849Y0375379D01*
X0214849Y0383987D01*
X0215068Y0384589D01*
X0215616Y0385302D01*
X0215835Y0385522D01*
X0217754Y0385522D01*
X0221537Y0384589D01*
X0221537Y0375598D01*
X0223401Y0375160D01*
X0223730Y0375050D01*
X0224114Y0375105D01*
X0224278Y0375324D01*
X0224278Y0383219D01*
X0224169Y0383931D01*
X0226033Y0383164D01*
X0226033Y0372309D01*
X0225923Y0371870D01*
X0225594Y0371432D01*
X0225210Y0371158D01*
X0224607Y0370993D01*
X0224059Y0370993D01*
X0223182Y0371103D01*
X0219783Y0376092D02*
X0219837Y0376147D01*
X0219837Y0380861D01*
X0217480Y0381465D01*
X0216767Y0381465D01*
X0216603Y0381300D01*
X0216548Y0381081D01*
X0216548Y0377189D01*
X0216713Y0376859D01*
X0217096Y0376640D01*
X0217535Y0376476D01*
X0219783Y0376092D01*
X0223182Y0385686D02*
X0218302Y0386782D01*
X0217700Y0386947D01*
X0216384Y0387605D01*
X0215671Y0388098D01*
X0215123Y0388975D01*
X0214904Y0389633D01*
X0214849Y0389962D01*
X0214849Y0398569D01*
X0215068Y0399172D01*
X0215616Y0399885D01*
X0215835Y0400104D01*
X0217754Y0400104D01*
X0221537Y0399172D01*
X0221537Y0390181D01*
X0223401Y0389743D01*
X0223730Y0389633D01*
X0224114Y0389688D01*
X0224278Y0389907D01*
X0224278Y0397802D01*
X0224169Y0398514D01*
X0226033Y0397747D01*
X0226033Y0386892D01*
X0225923Y0386453D01*
X0225594Y0386015D01*
X0225210Y0385741D01*
X0224607Y0385576D01*
X0224059Y0385576D01*
X0223182Y0385686D01*
X0219783Y0390675D02*
X0219837Y0390730D01*
X0219837Y0395444D01*
X0217480Y0396047D01*
X0216767Y0396047D01*
X0216603Y0395883D01*
X0216548Y0395663D01*
X0216548Y0391771D01*
X0216713Y0391442D01*
X0217096Y0391223D01*
X0217535Y0391058D01*
X0219783Y0390675D01*
X0231954Y0394293D02*
X0232556Y0393142D01*
X0234311Y0391059D01*
X0235791Y0389578D01*
X0236230Y0389414D01*
X0237545Y0389140D01*
X0238642Y0389085D01*
X0239683Y0389633D01*
X0240287Y0390565D01*
X0240287Y0391826D01*
X0240067Y0393416D01*
X0239409Y0394457D01*
X0239080Y0395883D01*
X0238313Y0396650D01*
X0237491Y0397692D01*
X0236394Y0398295D01*
X0235681Y0398405D01*
X0234640Y0398131D01*
X0233872Y0397199D01*
X0233105Y0396102D01*
X0232885Y0395335D01*
X0232611Y0395280D01*
X0232173Y0394896D01*
X0231954Y0394348D01*
X0233817Y0393745D02*
X0234256Y0393142D01*
X0235352Y0391717D01*
X0236613Y0390785D01*
X0238203Y0390291D01*
X0238752Y0390236D01*
X0239026Y0390730D01*
X0238971Y0392045D01*
X0238477Y0393361D01*
X0238039Y0394732D01*
X0237381Y0395883D01*
X0236613Y0396980D01*
X0235298Y0396980D01*
X0234037Y0395773D01*
X0233817Y0395115D01*
X0233817Y0393745D01*
X0233379Y0387879D02*
X0233872Y0387605D01*
X0234311Y0387605D01*
X0234749Y0387166D01*
X0235133Y0386563D01*
X0235681Y0385357D01*
X0236394Y0384206D01*
X0236723Y0383657D01*
X0237545Y0384480D01*
X0238258Y0385522D01*
X0238861Y0386289D01*
X0239409Y0386728D01*
X0239957Y0386947D01*
X0240287Y0387002D01*
X0240615Y0386837D01*
X0240670Y0386673D01*
X0240341Y0386234D01*
X0238642Y0384096D01*
X0237271Y0382068D01*
X0237271Y0381684D01*
X0237655Y0381574D01*
X0238752Y0381191D01*
X0239738Y0380861D01*
X0240287Y0380642D01*
X0240615Y0380642D01*
X0240067Y0380039D01*
X0239245Y0379984D01*
X0238696Y0380094D01*
X0236942Y0380587D01*
X0235956Y0380861D01*
X0234585Y0381465D01*
X0233872Y0381848D01*
X0233489Y0382013D01*
X0233433Y0381629D01*
X0233763Y0381191D01*
X0233708Y0381191D01*
X0233489Y0381026D01*
X0233324Y0380752D01*
X0233105Y0380642D01*
X0232776Y0380697D01*
X0232447Y0381026D01*
X0232228Y0381629D01*
X0231954Y0382342D01*
X0231954Y0385522D01*
X0232118Y0386180D01*
X0232392Y0386947D01*
X0232666Y0387385D01*
X0233105Y0387769D01*
X0233379Y0387879D01*
X0233708Y0386344D02*
X0233817Y0385960D01*
X0234366Y0385412D01*
X0234804Y0384644D01*
X0235188Y0383931D01*
X0235352Y0383109D01*
X0235681Y0382452D01*
X0233817Y0383493D01*
X0233269Y0383548D01*
X0233269Y0385522D01*
X0233379Y0386180D01*
X0233708Y0386344D01*
X0233653Y0378669D02*
X0233872Y0378669D01*
X0234366Y0378449D01*
X0234749Y0378120D01*
X0235188Y0377463D01*
X0236394Y0375050D01*
X0236887Y0373789D01*
X0237107Y0372803D01*
X0237161Y0372474D01*
X0237161Y0372090D01*
X0237655Y0371926D01*
X0238642Y0371596D01*
X0239519Y0371322D01*
X0239903Y0371103D01*
X0240122Y0370993D01*
X0240231Y0370774D01*
X0240067Y0370500D01*
X0239738Y0370281D01*
X0239354Y0370281D01*
X0238916Y0370391D01*
X0237874Y0370884D01*
X0237107Y0371213D01*
X0236394Y0371322D01*
X0235736Y0371487D01*
X0234859Y0371761D01*
X0234201Y0372035D01*
X0233763Y0372309D01*
X0233763Y0371870D01*
X0232831Y0371870D01*
X0232831Y0372364D01*
X0232502Y0372803D01*
X0232063Y0373241D01*
X0232337Y0373735D01*
X0232337Y0375708D01*
X0232502Y0377298D01*
X0233159Y0378394D01*
X0233653Y0378669D01*
X0233817Y0377408D02*
X0233982Y0377353D01*
X0234201Y0377079D01*
X0234640Y0376202D01*
X0235133Y0375489D01*
X0235407Y0374502D01*
X0235681Y0373789D01*
X0235736Y0373351D01*
X0235736Y0372693D01*
X0233708Y0373680D01*
X0233433Y0373789D01*
X0233433Y0376585D01*
X0233708Y0377243D01*
X0233817Y0377408D01*
X0177669Y0284214D02*
X0174599Y0284214D01*
X0173832Y0283447D01*
X0173832Y0281145D01*
X0178436Y0281145D01*
X0178436Y0283447D01*
X0177669Y0284214D01*
X0177669Y0279611D02*
X0178436Y0278843D01*
X0178436Y0277309D01*
X0177669Y0276541D01*
X0177669Y0275007D02*
X0176134Y0275007D01*
X0175367Y0274239D01*
X0175367Y0272705D01*
X0176134Y0271937D01*
X0177669Y0271937D01*
X0178436Y0272705D01*
X0178436Y0274239D01*
X0177669Y0275007D01*
X0176134Y0277309D02*
X0176134Y0278843D01*
X0176901Y0279611D01*
X0177669Y0279611D01*
X0176134Y0277309D02*
X0175367Y0276541D01*
X0174599Y0276541D01*
X0173832Y0277309D01*
X0173832Y0278843D01*
X0174599Y0279611D01*
X0175367Y0270403D02*
X0175367Y0269635D01*
X0176901Y0268101D01*
X0175367Y0268101D02*
X0178436Y0268101D01*
X0178436Y0266566D02*
X0178436Y0264264D01*
X0177669Y0263497D01*
X0176134Y0263497D01*
X0175367Y0264264D01*
X0175367Y0266566D01*
X0175367Y0261195D02*
X0178436Y0261195D01*
X0178436Y0260428D02*
X0178436Y0261962D01*
X0178436Y0258893D02*
X0173832Y0258893D01*
X0175367Y0257358D01*
X0173832Y0255824D01*
X0178436Y0255824D01*
X0175367Y0260428D02*
X0175367Y0261195D01*
X0173832Y0261195D02*
X0173065Y0261195D01*
X0388254Y0484741D02*
X0388327Y0484664D01*
X0388402Y0484589D01*
X0388480Y0484518D01*
X0388561Y0484449D01*
X0388644Y0484383D01*
X0388729Y0484320D01*
X0388817Y0484261D01*
X0388906Y0484204D01*
X0388998Y0484151D01*
X0389092Y0484101D01*
X0389187Y0484055D01*
X0389284Y0484012D01*
X0389382Y0483973D01*
X0389482Y0483937D01*
X0389583Y0483905D01*
X0389685Y0483877D01*
X0389788Y0483852D01*
X0389892Y0483831D01*
X0389997Y0483814D01*
X0390102Y0483800D01*
X0390207Y0483791D01*
X0390313Y0483785D01*
X0390419Y0483783D01*
X0390525Y0483785D01*
X0390631Y0483791D01*
X0390736Y0483800D01*
X0390841Y0483814D01*
X0390946Y0483831D01*
X0391050Y0483852D01*
X0391153Y0483877D01*
X0391255Y0483905D01*
X0391356Y0483937D01*
X0391456Y0483973D01*
X0391554Y0484012D01*
X0391651Y0484055D01*
X0391746Y0484101D01*
X0391840Y0484151D01*
X0391932Y0484204D01*
X0392021Y0484261D01*
X0392109Y0484320D01*
X0392194Y0484383D01*
X0392277Y0484449D01*
X0392358Y0484518D01*
X0392436Y0484589D01*
X0392511Y0484664D01*
X0392584Y0484741D01*
X0392584Y0488677D02*
X0392511Y0488754D01*
X0392436Y0488829D01*
X0392358Y0488900D01*
X0392277Y0488969D01*
X0392194Y0489035D01*
X0392109Y0489098D01*
X0392021Y0489157D01*
X0391932Y0489214D01*
X0391840Y0489267D01*
X0391746Y0489317D01*
X0391651Y0489363D01*
X0391554Y0489406D01*
X0391456Y0489445D01*
X0391356Y0489481D01*
X0391255Y0489513D01*
X0391153Y0489541D01*
X0391050Y0489566D01*
X0390946Y0489587D01*
X0390841Y0489604D01*
X0390736Y0489618D01*
X0390631Y0489627D01*
X0390525Y0489633D01*
X0390419Y0489635D01*
X0390313Y0489633D01*
X0390207Y0489627D01*
X0390102Y0489618D01*
X0389997Y0489604D01*
X0389892Y0489587D01*
X0389788Y0489566D01*
X0389685Y0489541D01*
X0389583Y0489513D01*
X0389482Y0489481D01*
X0389382Y0489445D01*
X0389284Y0489406D01*
X0389187Y0489363D01*
X0389092Y0489317D01*
X0388998Y0489267D01*
X0388906Y0489214D01*
X0388817Y0489157D01*
X0388729Y0489098D01*
X0388644Y0489035D01*
X0388561Y0488969D01*
X0388480Y0488900D01*
X0388402Y0488829D01*
X0388327Y0488754D01*
X0388254Y0488677D01*
X0423294Y0488086D02*
X0423367Y0488163D01*
X0423442Y0488238D01*
X0423520Y0488309D01*
X0423601Y0488378D01*
X0423684Y0488444D01*
X0423769Y0488507D01*
X0423857Y0488566D01*
X0423946Y0488623D01*
X0424038Y0488676D01*
X0424132Y0488726D01*
X0424227Y0488772D01*
X0424324Y0488815D01*
X0424422Y0488854D01*
X0424522Y0488890D01*
X0424623Y0488922D01*
X0424725Y0488950D01*
X0424828Y0488975D01*
X0424932Y0488996D01*
X0425037Y0489013D01*
X0425142Y0489027D01*
X0425247Y0489036D01*
X0425353Y0489042D01*
X0425459Y0489044D01*
X0425565Y0489042D01*
X0425671Y0489036D01*
X0425776Y0489027D01*
X0425881Y0489013D01*
X0425986Y0488996D01*
X0426090Y0488975D01*
X0426193Y0488950D01*
X0426295Y0488922D01*
X0426396Y0488890D01*
X0426496Y0488854D01*
X0426594Y0488815D01*
X0426691Y0488772D01*
X0426786Y0488726D01*
X0426880Y0488676D01*
X0426972Y0488623D01*
X0427061Y0488566D01*
X0427149Y0488507D01*
X0427234Y0488444D01*
X0427317Y0488378D01*
X0427398Y0488309D01*
X0427476Y0488238D01*
X0427551Y0488163D01*
X0427624Y0488086D01*
X0427624Y0484150D02*
X0427551Y0484073D01*
X0427476Y0483998D01*
X0427398Y0483927D01*
X0427317Y0483858D01*
X0427234Y0483792D01*
X0427149Y0483729D01*
X0427061Y0483670D01*
X0426972Y0483613D01*
X0426880Y0483560D01*
X0426786Y0483510D01*
X0426691Y0483464D01*
X0426594Y0483421D01*
X0426496Y0483382D01*
X0426396Y0483346D01*
X0426295Y0483314D01*
X0426193Y0483286D01*
X0426090Y0483261D01*
X0425986Y0483240D01*
X0425881Y0483223D01*
X0425776Y0483209D01*
X0425671Y0483200D01*
X0425565Y0483194D01*
X0425459Y0483192D01*
X0425353Y0483194D01*
X0425247Y0483200D01*
X0425142Y0483209D01*
X0425037Y0483223D01*
X0424932Y0483240D01*
X0424828Y0483261D01*
X0424725Y0483286D01*
X0424623Y0483314D01*
X0424522Y0483346D01*
X0424422Y0483382D01*
X0424324Y0483421D01*
X0424227Y0483464D01*
X0424132Y0483510D01*
X0424038Y0483560D01*
X0423946Y0483613D01*
X0423857Y0483670D01*
X0423769Y0483729D01*
X0423684Y0483792D01*
X0423601Y0483858D01*
X0423520Y0483927D01*
X0423442Y0483998D01*
X0423367Y0484073D01*
X0423294Y0484150D01*
D43*
X0467033Y0489012D02*
X0467033Y0466512D01*
X0477033Y0466512D02*
X0477033Y0489012D01*
X0487033Y0489012D02*
X0487033Y0466512D01*
X0513215Y0466512D02*
X0513215Y0489012D01*
X0523215Y0489012D02*
X0523215Y0466512D01*
X0533215Y0466512D02*
X0533215Y0489012D01*
X0543215Y0489012D02*
X0543215Y0466512D01*
X0568333Y0466512D02*
X0568333Y0489012D01*
X0578333Y0489012D02*
X0578333Y0466512D01*
X0588333Y0466512D02*
X0588333Y0489012D01*
X0598333Y0489012D02*
X0598333Y0466512D01*
X0702506Y0417457D02*
X0725006Y0417457D01*
X0725006Y0407457D02*
X0702506Y0407457D01*
X0702506Y0397457D02*
X0725006Y0397457D01*
X0725006Y0387457D02*
X0702506Y0387457D01*
X0702506Y0366276D02*
X0725006Y0366276D01*
X0725006Y0356276D02*
X0702506Y0356276D01*
X0702506Y0346276D02*
X0725006Y0346276D01*
X0725006Y0336276D02*
X0702506Y0336276D01*
X0702506Y0253165D02*
X0725006Y0253165D01*
X0725006Y0243165D02*
X0702506Y0243165D01*
X0702506Y0233165D02*
X0725006Y0233165D01*
X0725006Y0223165D02*
X0702506Y0223165D01*
X0702506Y0213165D02*
X0725006Y0213165D01*
X0725006Y0191236D02*
X0702506Y0191236D01*
X0702506Y0181236D02*
X0725006Y0181236D01*
X0725006Y0171236D02*
X0702506Y0171236D01*
X0702506Y0161236D02*
X0725006Y0161236D01*
X0725006Y0151236D02*
X0702506Y0151236D01*
X0702506Y0141236D02*
X0725006Y0141236D01*
X0606139Y0084729D02*
X0606139Y0062229D01*
X0596139Y0062229D02*
X0596139Y0084729D01*
X0586139Y0084729D02*
X0586139Y0062229D01*
X0562602Y0062229D02*
X0562602Y0084729D01*
X0552602Y0084729D02*
X0552602Y0062229D01*
X0542602Y0062229D02*
X0542602Y0084729D01*
X0508367Y0086901D02*
X0508367Y0064401D01*
X0498367Y0064401D02*
X0498367Y0086901D01*
X0488367Y0086901D02*
X0488367Y0064401D01*
X0478367Y0064401D02*
X0478367Y0086901D01*
X0468367Y0086901D02*
X0468367Y0064401D01*
X0422665Y0062629D02*
X0422665Y0085129D01*
X0412665Y0085129D02*
X0412665Y0062629D01*
X0402665Y0062629D02*
X0402665Y0085129D01*
X0380665Y0085529D02*
X0380665Y0063029D01*
X0370665Y0063029D02*
X0370665Y0085529D01*
X0360665Y0085529D02*
X0360665Y0063029D01*
X0339465Y0063029D02*
X0339465Y0085529D01*
X0329465Y0085529D02*
X0329465Y0063029D01*
X0319465Y0063029D02*
X0319465Y0085529D01*
X0295065Y0086329D02*
X0295065Y0063829D01*
X0285065Y0063829D02*
X0285065Y0086329D01*
X0275065Y0086329D02*
X0275065Y0063829D01*
D44*
X0275065Y0087829D03*
X0285065Y0087829D03*
X0295065Y0087829D03*
X0319465Y0087029D03*
X0329465Y0087029D03*
X0339465Y0087029D03*
X0360665Y0087029D03*
X0370665Y0087029D03*
X0380665Y0087029D03*
X0402665Y0086629D03*
X0412665Y0086629D03*
X0422665Y0086629D03*
X0468367Y0088401D03*
X0478367Y0088401D03*
X0488367Y0088401D03*
X0498367Y0088401D03*
X0508367Y0088401D03*
X0542602Y0086229D03*
X0552602Y0086229D03*
X0562602Y0086229D03*
X0586139Y0086229D03*
X0596139Y0086229D03*
X0606139Y0086229D03*
X0598333Y0465012D03*
X0588333Y0465012D03*
X0578333Y0465012D03*
X0568333Y0465012D03*
X0543215Y0465012D03*
X0533215Y0465012D03*
X0523215Y0465012D03*
X0513215Y0465012D03*
X0487033Y0465012D03*
X0477033Y0465012D03*
X0467033Y0465012D03*
D45*
X0467033Y0452012D03*
X0477033Y0452012D03*
X0487033Y0452012D03*
X0513215Y0452012D03*
X0523215Y0452012D03*
X0533215Y0452012D03*
X0543215Y0452012D03*
X0568333Y0452012D03*
X0578333Y0452012D03*
X0588333Y0452012D03*
X0598333Y0452012D03*
X0596139Y0099229D03*
X0606139Y0099229D03*
X0586139Y0099229D03*
X0562602Y0099229D03*
X0552602Y0099229D03*
X0542602Y0099229D03*
X0508367Y0101401D03*
X0498367Y0101401D03*
X0488367Y0101401D03*
X0478367Y0101401D03*
X0468367Y0101401D03*
X0422665Y0099629D03*
X0412665Y0099629D03*
X0402665Y0099629D03*
X0380665Y0100029D03*
X0370665Y0100029D03*
X0360665Y0100029D03*
X0339465Y0100029D03*
X0329465Y0100029D03*
X0319465Y0100029D03*
X0295065Y0100829D03*
X0285065Y0100829D03*
X0275065Y0100829D03*
D46*
X0701006Y0141236D03*
X0701006Y0151236D03*
X0701006Y0161236D03*
X0701006Y0171236D03*
X0701006Y0181236D03*
X0701006Y0191236D03*
X0701006Y0213165D03*
X0701006Y0223165D03*
X0701006Y0233165D03*
X0701006Y0243165D03*
X0701006Y0253165D03*
X0701006Y0336276D03*
X0701006Y0346276D03*
X0701006Y0356276D03*
X0701006Y0366276D03*
X0701006Y0387457D03*
X0701006Y0397457D03*
X0701006Y0407457D03*
X0701006Y0417457D03*
D47*
X0688006Y0417457D03*
X0688006Y0407457D03*
X0688006Y0397457D03*
X0688006Y0387457D03*
X0688006Y0366276D03*
X0688006Y0356276D03*
X0688006Y0346276D03*
X0688006Y0336276D03*
X0688006Y0253165D03*
X0688006Y0243165D03*
X0688006Y0233165D03*
X0688006Y0223165D03*
X0688006Y0213165D03*
X0688006Y0191236D03*
X0688006Y0181236D03*
X0688006Y0171236D03*
X0688006Y0161236D03*
X0688006Y0151236D03*
X0688006Y0141236D03*
D48*
X0215029Y0145593D02*
X0215029Y0113093D01*
X0179029Y0113093D01*
X0179029Y0145593D01*
X0215029Y0145593D01*
D49*
X0207029Y0160343D03*
X0197029Y0160343D03*
X0187029Y0160343D03*
D50*
X0187029Y0153593D03*
X0197029Y0153593D03*
X0207029Y0153593D03*
D51*
X0197865Y0159088D02*
X0197865Y0369088D01*
X0577865Y0369088D01*
X0587865Y0359088D01*
X0587865Y0319088D01*
X0597865Y0309088D01*
X0597865Y0174088D01*
X0587865Y0164088D01*
X0587865Y0159088D01*
X0197865Y0159088D01*
X0158136Y0221906D02*
X0158136Y0311906D01*
X0278136Y0311906D01*
X0278136Y0312457D01*
X0278136Y0311906D02*
X0278136Y0221906D01*
X0158136Y0221906D01*
X0169636Y0250624D02*
X0177636Y0250624D01*
X0177636Y0253624D01*
X0179636Y0253624D01*
X0179636Y0251624D01*
X0180636Y0250624D01*
X0189636Y0250624D01*
X0194636Y0255624D01*
X0209636Y0255624D01*
X0209636Y0285624D01*
X0169636Y0285624D01*
X0169636Y0250624D01*
X0267865Y0351588D02*
X0267865Y0366588D01*
X0367865Y0366588D01*
X0367865Y0351588D01*
X0267865Y0351588D01*
X0372865Y0351588D02*
X0452865Y0351588D01*
X0452865Y0366588D01*
X0372865Y0366588D01*
X0372865Y0351588D01*
X0373821Y0347787D02*
X0373821Y0292669D01*
X0456498Y0292669D01*
X0456498Y0347787D01*
X0373821Y0347787D01*
X0442865Y0284088D02*
X0462865Y0284088D01*
X0462865Y0254088D01*
X0442865Y0254088D01*
X0442865Y0284088D01*
X0482215Y0289710D02*
X0542215Y0289710D01*
X0542215Y0224710D01*
X0482215Y0224710D01*
X0482215Y0289710D01*
X0462215Y0322710D02*
X0462217Y0322862D01*
X0462223Y0323014D01*
X0462232Y0323166D01*
X0462246Y0323317D01*
X0462263Y0323468D01*
X0462284Y0323619D01*
X0462309Y0323769D01*
X0462338Y0323918D01*
X0462370Y0324066D01*
X0462407Y0324214D01*
X0462446Y0324361D01*
X0462490Y0324506D01*
X0462538Y0324651D01*
X0462588Y0324794D01*
X0462643Y0324936D01*
X0462701Y0325076D01*
X0462763Y0325215D01*
X0462828Y0325352D01*
X0462897Y0325488D01*
X0462969Y0325622D01*
X0463044Y0325754D01*
X0463123Y0325884D01*
X0463205Y0326012D01*
X0463290Y0326138D01*
X0463379Y0326261D01*
X0463470Y0326383D01*
X0463565Y0326502D01*
X0463662Y0326618D01*
X0463763Y0326732D01*
X0463866Y0326844D01*
X0463972Y0326953D01*
X0464081Y0327059D01*
X0464193Y0327162D01*
X0464307Y0327263D01*
X0464423Y0327360D01*
X0464542Y0327455D01*
X0464664Y0327546D01*
X0464787Y0327635D01*
X0464913Y0327720D01*
X0465041Y0327802D01*
X0465171Y0327881D01*
X0465303Y0327956D01*
X0465437Y0328028D01*
X0465573Y0328097D01*
X0465710Y0328162D01*
X0465849Y0328224D01*
X0465989Y0328282D01*
X0466131Y0328337D01*
X0466274Y0328387D01*
X0466419Y0328435D01*
X0466564Y0328479D01*
X0466711Y0328518D01*
X0466859Y0328555D01*
X0467007Y0328587D01*
X0467156Y0328616D01*
X0467306Y0328641D01*
X0467457Y0328662D01*
X0467608Y0328679D01*
X0467759Y0328693D01*
X0467911Y0328702D01*
X0468063Y0328708D01*
X0468215Y0328710D01*
X0556215Y0328710D01*
X0556367Y0328708D01*
X0556519Y0328702D01*
X0556671Y0328693D01*
X0556822Y0328679D01*
X0556973Y0328662D01*
X0557124Y0328641D01*
X0557274Y0328616D01*
X0557423Y0328587D01*
X0557571Y0328555D01*
X0557719Y0328518D01*
X0557866Y0328479D01*
X0558011Y0328435D01*
X0558156Y0328387D01*
X0558299Y0328337D01*
X0558441Y0328282D01*
X0558581Y0328224D01*
X0558720Y0328162D01*
X0558857Y0328097D01*
X0558993Y0328028D01*
X0559127Y0327956D01*
X0559259Y0327881D01*
X0559389Y0327802D01*
X0559517Y0327720D01*
X0559643Y0327635D01*
X0559766Y0327546D01*
X0559888Y0327455D01*
X0560007Y0327360D01*
X0560123Y0327263D01*
X0560237Y0327162D01*
X0560349Y0327059D01*
X0560458Y0326953D01*
X0560564Y0326844D01*
X0560667Y0326732D01*
X0560768Y0326618D01*
X0560865Y0326502D01*
X0560960Y0326383D01*
X0561051Y0326261D01*
X0561140Y0326138D01*
X0561225Y0326012D01*
X0561307Y0325884D01*
X0561386Y0325754D01*
X0561461Y0325622D01*
X0561533Y0325488D01*
X0561602Y0325352D01*
X0561667Y0325215D01*
X0561729Y0325076D01*
X0561787Y0324936D01*
X0561842Y0324794D01*
X0561892Y0324651D01*
X0561940Y0324506D01*
X0561984Y0324361D01*
X0562023Y0324214D01*
X0562060Y0324066D01*
X0562092Y0323918D01*
X0562121Y0323769D01*
X0562146Y0323619D01*
X0562167Y0323468D01*
X0562184Y0323317D01*
X0562198Y0323166D01*
X0562207Y0323014D01*
X0562213Y0322862D01*
X0562215Y0322710D01*
X0562215Y0200710D01*
X0562213Y0200558D01*
X0562207Y0200406D01*
X0562198Y0200254D01*
X0562184Y0200103D01*
X0562167Y0199952D01*
X0562146Y0199801D01*
X0562121Y0199651D01*
X0562092Y0199502D01*
X0562060Y0199354D01*
X0562023Y0199206D01*
X0561984Y0199059D01*
X0561940Y0198914D01*
X0561892Y0198769D01*
X0561842Y0198626D01*
X0561787Y0198484D01*
X0561729Y0198344D01*
X0561667Y0198205D01*
X0561602Y0198068D01*
X0561533Y0197932D01*
X0561461Y0197798D01*
X0561386Y0197666D01*
X0561307Y0197536D01*
X0561225Y0197408D01*
X0561140Y0197282D01*
X0561051Y0197159D01*
X0560960Y0197037D01*
X0560865Y0196918D01*
X0560768Y0196802D01*
X0560667Y0196688D01*
X0560564Y0196576D01*
X0560458Y0196467D01*
X0560349Y0196361D01*
X0560237Y0196258D01*
X0560123Y0196157D01*
X0560007Y0196060D01*
X0559888Y0195965D01*
X0559766Y0195874D01*
X0559643Y0195785D01*
X0559517Y0195700D01*
X0559389Y0195618D01*
X0559259Y0195539D01*
X0559127Y0195464D01*
X0558993Y0195392D01*
X0558857Y0195323D01*
X0558720Y0195258D01*
X0558581Y0195196D01*
X0558441Y0195138D01*
X0558299Y0195083D01*
X0558156Y0195033D01*
X0558011Y0194985D01*
X0557866Y0194941D01*
X0557719Y0194902D01*
X0557571Y0194865D01*
X0557423Y0194833D01*
X0557274Y0194804D01*
X0557124Y0194779D01*
X0556973Y0194758D01*
X0556822Y0194741D01*
X0556671Y0194727D01*
X0556519Y0194718D01*
X0556367Y0194712D01*
X0556215Y0194710D01*
X0468215Y0194710D01*
X0468063Y0194712D01*
X0467911Y0194718D01*
X0467759Y0194727D01*
X0467608Y0194741D01*
X0467457Y0194758D01*
X0467306Y0194779D01*
X0467156Y0194804D01*
X0467007Y0194833D01*
X0466859Y0194865D01*
X0466711Y0194902D01*
X0466564Y0194941D01*
X0466419Y0194985D01*
X0466274Y0195033D01*
X0466131Y0195083D01*
X0465989Y0195138D01*
X0465849Y0195196D01*
X0465710Y0195258D01*
X0465573Y0195323D01*
X0465437Y0195392D01*
X0465303Y0195464D01*
X0465171Y0195539D01*
X0465041Y0195618D01*
X0464913Y0195700D01*
X0464787Y0195785D01*
X0464664Y0195874D01*
X0464542Y0195965D01*
X0464423Y0196060D01*
X0464307Y0196157D01*
X0464193Y0196258D01*
X0464081Y0196361D01*
X0463972Y0196467D01*
X0463866Y0196576D01*
X0463763Y0196688D01*
X0463662Y0196802D01*
X0463565Y0196918D01*
X0463470Y0197037D01*
X0463379Y0197159D01*
X0463290Y0197282D01*
X0463205Y0197408D01*
X0463123Y0197536D01*
X0463044Y0197666D01*
X0462969Y0197798D01*
X0462897Y0197932D01*
X0462828Y0198068D01*
X0462763Y0198205D01*
X0462701Y0198344D01*
X0462643Y0198484D01*
X0462588Y0198626D01*
X0462538Y0198769D01*
X0462490Y0198914D01*
X0462446Y0199059D01*
X0462407Y0199206D01*
X0462370Y0199354D01*
X0462338Y0199502D01*
X0462309Y0199651D01*
X0462284Y0199801D01*
X0462263Y0199952D01*
X0462246Y0200103D01*
X0462232Y0200254D01*
X0462223Y0200406D01*
X0462217Y0200558D01*
X0462215Y0200710D01*
X0462215Y0322710D01*
X0462865Y0351588D02*
X0462865Y0366588D01*
X0542865Y0366588D01*
X0542865Y0351588D01*
X0462865Y0351588D01*
X0562865Y0364088D02*
X0562865Y0184088D01*
X0582865Y0184088D01*
X0582865Y0364088D01*
X0562865Y0364088D01*
X0562865Y0176588D02*
X0482865Y0176588D01*
X0482865Y0161588D01*
X0562865Y0161588D01*
X0562865Y0176588D01*
X0472865Y0176588D02*
X0472865Y0161588D01*
X0392865Y0161588D01*
X0392865Y0176588D01*
X0472865Y0176588D01*
X0382865Y0176588D02*
X0382865Y0161588D01*
X0302865Y0161588D01*
X0302865Y0176588D01*
X0382865Y0176588D01*
D52*
X0634695Y0291583D02*
X0634695Y0294583D01*
X0634695Y0297583D01*
X0636695Y0297583D02*
X0636695Y0294583D01*
X0636695Y0291583D01*
D53*
X0425459Y0486118D03*
X0390419Y0486709D03*
D54*
X0388352Y0488972D03*
X0427526Y0483854D03*
M02*
