G75*
%MOIN*%
%OFA0B0*%
%FSLAX25Y25*%
%IPPOS*%
%LPD*%
%AMOC8*
5,1,8,0,0,1.08239X$1,22.5*
%
%ADD10C,0.12211*%
%ADD11C,0.04337*%
%ADD12OC8,0.08650*%
%ADD13OC8,0.13100*%
%ADD14C,0.05950*%
%ADD15C,0.06800*%
%ADD16C,0.08274*%
%ADD17C,0.07200*%
%ADD18C,0.13400*%
%ADD19C,0.06737*%
%ADD20C,0.06737*%
%ADD21C,0.12900*%
%ADD22OC8,0.05950*%
%ADD23C,0.16400*%
%ADD24C,0.12998*%
%ADD25R,0.07000X0.07000*%
%ADD26OC8,0.06000*%
%ADD27C,0.09849*%
D10*
X0197112Y0099307D03*
X0165616Y0277457D03*
X0197112Y0455606D03*
X0669553Y0455606D03*
X0669553Y0099307D03*
D11*
X0433333Y0099307D03*
X0433333Y0455606D03*
D12*
X0667821Y0296157D03*
D13*
X0667821Y0318157D03*
X0697821Y0296157D03*
X0667821Y0274157D03*
D14*
X0577865Y0279088D03*
X0567865Y0279088D03*
X0567865Y0269088D03*
X0567865Y0259088D03*
X0577865Y0259088D03*
X0577865Y0269088D03*
X0577865Y0249088D03*
X0567865Y0249088D03*
X0567865Y0239088D03*
X0567865Y0229088D03*
X0577865Y0229088D03*
X0577865Y0239088D03*
X0577865Y0219088D03*
X0577865Y0209088D03*
X0567865Y0209088D03*
X0567865Y0219088D03*
X0567865Y0199088D03*
X0577865Y0199088D03*
X0577865Y0189088D03*
X0567865Y0189088D03*
X0567865Y0289088D03*
X0577865Y0289088D03*
X0577865Y0299088D03*
X0567865Y0299088D03*
X0567865Y0309088D03*
X0577865Y0309088D03*
X0577865Y0319088D03*
X0567865Y0319088D03*
X0567865Y0329088D03*
X0577865Y0329088D03*
X0577865Y0339088D03*
X0567865Y0339088D03*
X0567865Y0349088D03*
X0577865Y0349088D03*
X0577865Y0359088D03*
X0567865Y0359088D03*
X0254832Y0327413D03*
X0246958Y0327413D03*
X0239084Y0327413D03*
X0231210Y0327413D03*
X0223336Y0327413D03*
X0215462Y0327413D03*
X0207588Y0327413D03*
X0199714Y0327413D03*
X0191840Y0327413D03*
X0183966Y0327413D03*
X0183966Y0414027D03*
X0191840Y0414027D03*
X0199714Y0414027D03*
X0207588Y0414027D03*
X0215462Y0414027D03*
X0223336Y0414027D03*
X0231210Y0414027D03*
X0239084Y0414027D03*
X0246958Y0414027D03*
X0254832Y0414027D03*
D15*
X0467033Y0445712D02*
X0467033Y0447312D01*
X0477033Y0447312D02*
X0477033Y0445712D01*
X0487033Y0445712D02*
X0487033Y0447312D01*
X0513215Y0447312D02*
X0513215Y0445712D01*
X0523215Y0445712D02*
X0523215Y0447312D01*
X0533215Y0447312D02*
X0533215Y0445712D01*
X0543215Y0445712D02*
X0543215Y0447312D01*
X0568333Y0447312D02*
X0568333Y0445712D01*
X0578333Y0445712D02*
X0578333Y0447312D01*
X0588333Y0447312D02*
X0588333Y0445712D01*
X0598333Y0445712D02*
X0598333Y0447312D01*
X0681706Y0417457D02*
X0683306Y0417457D01*
X0683306Y0407457D02*
X0681706Y0407457D01*
X0681706Y0397457D02*
X0683306Y0397457D01*
X0683306Y0387457D02*
X0681706Y0387457D01*
X0681706Y0366276D02*
X0683306Y0366276D01*
X0683306Y0356276D02*
X0681706Y0356276D01*
X0681706Y0346276D02*
X0683306Y0346276D01*
X0683306Y0336276D02*
X0681706Y0336276D01*
X0681706Y0253165D02*
X0683306Y0253165D01*
X0683306Y0243165D02*
X0681706Y0243165D01*
X0681706Y0233165D02*
X0683306Y0233165D01*
X0683306Y0223165D02*
X0681706Y0223165D01*
X0681706Y0213165D02*
X0683306Y0213165D01*
X0683306Y0191236D02*
X0681706Y0191236D01*
X0681706Y0181236D02*
X0683306Y0181236D01*
X0683306Y0171236D02*
X0681706Y0171236D01*
X0681706Y0161236D02*
X0683306Y0161236D01*
X0683306Y0151236D02*
X0681706Y0151236D01*
X0681706Y0141236D02*
X0683306Y0141236D01*
X0606139Y0105529D02*
X0606139Y0103929D01*
X0596139Y0103929D02*
X0596139Y0105529D01*
X0586139Y0105529D02*
X0586139Y0103929D01*
X0562602Y0103929D02*
X0562602Y0105529D01*
X0552602Y0105529D02*
X0552602Y0103929D01*
X0542602Y0103929D02*
X0542602Y0105529D01*
X0508367Y0106101D02*
X0508367Y0107701D01*
X0498367Y0107701D02*
X0498367Y0106101D01*
X0488367Y0106101D02*
X0488367Y0107701D01*
X0478367Y0107701D02*
X0478367Y0106101D01*
X0468367Y0106101D02*
X0468367Y0107701D01*
X0422665Y0105929D02*
X0422665Y0104329D01*
X0412665Y0104329D02*
X0412665Y0105929D01*
X0402665Y0105929D02*
X0402665Y0104329D01*
X0380665Y0104729D02*
X0380665Y0106329D01*
X0370665Y0106329D02*
X0370665Y0104729D01*
X0360665Y0104729D02*
X0360665Y0106329D01*
X0339465Y0106329D02*
X0339465Y0104729D01*
X0329465Y0104729D02*
X0329465Y0106329D01*
X0319465Y0106329D02*
X0319465Y0104729D01*
X0295065Y0105529D02*
X0295065Y0107129D01*
X0285065Y0107129D02*
X0285065Y0105529D01*
X0275065Y0105529D02*
X0275065Y0107129D01*
X0250144Y0087312D02*
X0250144Y0085712D01*
X0240144Y0085712D02*
X0240144Y0087312D01*
D16*
X0260931Y0121759D02*
X0262900Y0121759D01*
X0273726Y0139672D02*
X0273726Y0141641D01*
X0249711Y0141641D02*
X0249711Y0139672D01*
D17*
X0187029Y0157243D02*
X0187029Y0158943D01*
X0197029Y0158943D02*
X0197029Y0157243D01*
X0207029Y0157243D02*
X0207029Y0158943D01*
D18*
X0197029Y0099093D03*
D19*
X0307865Y0168296D02*
X0307865Y0169880D01*
X0317865Y0169880D02*
X0317865Y0168296D01*
X0327865Y0168296D02*
X0327865Y0169880D01*
X0337865Y0169880D02*
X0337865Y0168296D01*
X0347865Y0168296D02*
X0347865Y0169880D01*
X0357865Y0169880D02*
X0357865Y0168296D01*
X0367865Y0168296D02*
X0367865Y0169880D01*
X0377865Y0169880D02*
X0377865Y0168296D01*
X0397865Y0168296D02*
X0397865Y0169880D01*
X0407865Y0169880D02*
X0407865Y0168296D01*
X0417865Y0168296D02*
X0417865Y0169880D01*
X0427865Y0169880D02*
X0427865Y0168296D01*
X0437865Y0168296D02*
X0437865Y0169880D01*
X0447865Y0169880D02*
X0447865Y0168296D01*
X0457865Y0168296D02*
X0457865Y0169880D01*
X0467865Y0169880D02*
X0467865Y0168296D01*
X0487865Y0168296D02*
X0487865Y0169880D01*
X0497865Y0169880D02*
X0497865Y0168296D01*
X0507865Y0168296D02*
X0507865Y0169880D01*
X0517865Y0169880D02*
X0517865Y0168296D01*
X0527865Y0168296D02*
X0527865Y0169880D01*
X0537865Y0169880D02*
X0537865Y0168296D01*
X0547865Y0168296D02*
X0547865Y0169880D01*
X0557865Y0169880D02*
X0557865Y0168296D01*
X0537865Y0358296D02*
X0537865Y0359880D01*
X0527865Y0359880D02*
X0527865Y0358296D01*
X0517865Y0358296D02*
X0517865Y0359880D01*
X0507865Y0359880D02*
X0507865Y0358296D01*
X0497865Y0358296D02*
X0497865Y0359880D01*
X0487865Y0359880D02*
X0487865Y0358296D01*
X0477865Y0358296D02*
X0477865Y0359880D01*
X0467865Y0359880D02*
X0467865Y0358296D01*
X0447865Y0358296D02*
X0447865Y0359880D01*
X0437865Y0359880D02*
X0437865Y0358296D01*
X0427865Y0358296D02*
X0427865Y0359880D01*
X0417865Y0359880D02*
X0417865Y0358296D01*
X0407865Y0358296D02*
X0407865Y0359880D01*
X0397865Y0359880D02*
X0397865Y0358296D01*
X0387865Y0358296D02*
X0387865Y0359880D01*
X0377865Y0359880D02*
X0377865Y0358296D01*
X0361865Y0358296D02*
X0361865Y0359880D01*
X0351865Y0359880D02*
X0351865Y0358296D01*
X0341865Y0358296D02*
X0341865Y0359880D01*
X0331865Y0359880D02*
X0331865Y0358296D01*
X0321865Y0358296D02*
X0321865Y0359880D01*
X0311865Y0359880D02*
X0311865Y0358296D01*
X0301865Y0358296D02*
X0301865Y0359880D01*
X0291865Y0359880D02*
X0291865Y0358296D01*
X0281865Y0358296D02*
X0281865Y0359880D01*
X0271865Y0359880D02*
X0271865Y0358296D01*
D20*
X0448365Y0279088D03*
X0458365Y0279088D03*
X0458365Y0269088D03*
X0458365Y0259088D03*
X0448365Y0259088D03*
X0448365Y0269088D03*
D21*
X0552865Y0359088D03*
X0577865Y0169088D03*
X0257865Y0359088D03*
X0252865Y0169088D03*
D22*
X0268136Y0227024D03*
X0268136Y0237024D03*
X0268136Y0247024D03*
X0268136Y0257024D03*
X0268136Y0267024D03*
X0268136Y0277024D03*
X0268136Y0287024D03*
X0268136Y0297024D03*
X0268136Y0307024D03*
X0472215Y0318710D03*
X0482215Y0318710D03*
X0492215Y0318710D03*
X0502215Y0318710D03*
X0512215Y0318710D03*
X0522215Y0318710D03*
X0532215Y0318710D03*
X0542215Y0318710D03*
X0552215Y0318710D03*
D23*
X0552215Y0204710D03*
X0472215Y0204710D03*
D24*
X0445081Y0337945D03*
X0385238Y0337945D03*
D25*
X0396262Y0296606D03*
X0405711Y0296606D03*
X0415159Y0296606D03*
X0425002Y0296606D03*
X0434057Y0296606D03*
D26*
X0630695Y0294583D03*
X0640695Y0294583D03*
D27*
X0595144Y0264661D03*
X0530183Y0211512D03*
X0510892Y0223323D03*
X0507742Y0284150D03*
X0484514Y0346945D03*
X0472703Y0344583D03*
X0487270Y0379622D03*
X0496719Y0386118D03*
X0446325Y0428835D03*
X0341207Y0341433D03*
X0317978Y0326866D03*
X0354986Y0307575D03*
X0376640Y0288283D03*
X0400262Y0270567D03*
X0388451Y0262693D03*
X0435695Y0313874D03*
X0423884Y0321748D03*
X0319553Y0413480D03*
X0207742Y0275685D03*
X0318372Y0194976D03*
X0365222Y0194976D03*
M02*
