G75*
%MOIN*%
%OFA0B0*%
%FSLAX25Y25*%
%IPPOS*%
%LPD*%
%AMOC8*
5,1,8,0,0,1.08239X$1,22.5*
%
%ADD10C,0.12211*%
%ADD11C,0.04337*%
%ADD12OC8,0.08650*%
%ADD13OC8,0.13100*%
%ADD14C,0.05950*%
%ADD15C,0.06800*%
%ADD16C,0.08274*%
%ADD17C,0.07200*%
%ADD18C,0.13400*%
%ADD19C,0.06737*%
%ADD20C,0.06737*%
%ADD21C,0.12900*%
%ADD22OC8,0.05950*%
%ADD23C,0.16400*%
%ADD24C,0.12998*%
%ADD25R,0.07000X0.07000*%
%ADD26C,0.01024*%
%ADD27OC8,0.06000*%
%ADD28C,0.00670*%
%ADD29C,0.00552*%
%ADD30C,0.09849*%
D10*
X0197112Y0099307D03*
X0165616Y0277457D03*
X0197112Y0455606D03*
X0669553Y0455606D03*
X0669553Y0099307D03*
D11*
X0433333Y0099307D03*
X0433333Y0455606D03*
D12*
X0667821Y0296157D03*
D13*
X0667821Y0318157D03*
X0697821Y0296157D03*
X0667821Y0274157D03*
D14*
X0577865Y0279088D03*
X0567865Y0279088D03*
X0567865Y0269088D03*
X0567865Y0259088D03*
X0577865Y0259088D03*
X0577865Y0269088D03*
X0577865Y0249088D03*
X0567865Y0249088D03*
X0567865Y0239088D03*
X0567865Y0229088D03*
X0577865Y0229088D03*
X0577865Y0239088D03*
X0577865Y0219088D03*
X0577865Y0209088D03*
X0567865Y0209088D03*
X0567865Y0219088D03*
X0567865Y0199088D03*
X0577865Y0199088D03*
X0577865Y0189088D03*
X0567865Y0189088D03*
X0567865Y0289088D03*
X0577865Y0289088D03*
X0577865Y0299088D03*
X0567865Y0299088D03*
X0567865Y0309088D03*
X0577865Y0309088D03*
X0577865Y0319088D03*
X0567865Y0319088D03*
X0567865Y0329088D03*
X0577865Y0329088D03*
X0577865Y0339088D03*
X0567865Y0339088D03*
X0567865Y0349088D03*
X0577865Y0349088D03*
X0577865Y0359088D03*
X0567865Y0359088D03*
X0254832Y0327413D03*
X0246958Y0327413D03*
X0239084Y0327413D03*
X0231210Y0327413D03*
X0223336Y0327413D03*
X0215462Y0327413D03*
X0207588Y0327413D03*
X0199714Y0327413D03*
X0191840Y0327413D03*
X0183966Y0327413D03*
X0183966Y0414027D03*
X0191840Y0414027D03*
X0199714Y0414027D03*
X0207588Y0414027D03*
X0215462Y0414027D03*
X0223336Y0414027D03*
X0231210Y0414027D03*
X0239084Y0414027D03*
X0246958Y0414027D03*
X0254832Y0414027D03*
D15*
X0467033Y0445712D02*
X0467033Y0447312D01*
X0477033Y0447312D02*
X0477033Y0445712D01*
X0487033Y0445712D02*
X0487033Y0447312D01*
X0513215Y0447312D02*
X0513215Y0445712D01*
X0523215Y0445712D02*
X0523215Y0447312D01*
X0533215Y0447312D02*
X0533215Y0445712D01*
X0543215Y0445712D02*
X0543215Y0447312D01*
X0568333Y0447312D02*
X0568333Y0445712D01*
X0578333Y0445712D02*
X0578333Y0447312D01*
X0588333Y0447312D02*
X0588333Y0445712D01*
X0598333Y0445712D02*
X0598333Y0447312D01*
X0681706Y0417457D02*
X0683306Y0417457D01*
X0683306Y0407457D02*
X0681706Y0407457D01*
X0681706Y0397457D02*
X0683306Y0397457D01*
X0683306Y0387457D02*
X0681706Y0387457D01*
X0681706Y0366276D02*
X0683306Y0366276D01*
X0683306Y0356276D02*
X0681706Y0356276D01*
X0681706Y0346276D02*
X0683306Y0346276D01*
X0683306Y0336276D02*
X0681706Y0336276D01*
X0681706Y0253165D02*
X0683306Y0253165D01*
X0683306Y0243165D02*
X0681706Y0243165D01*
X0681706Y0233165D02*
X0683306Y0233165D01*
X0683306Y0223165D02*
X0681706Y0223165D01*
X0681706Y0213165D02*
X0683306Y0213165D01*
X0683306Y0191236D02*
X0681706Y0191236D01*
X0681706Y0181236D02*
X0683306Y0181236D01*
X0683306Y0171236D02*
X0681706Y0171236D01*
X0681706Y0161236D02*
X0683306Y0161236D01*
X0683306Y0151236D02*
X0681706Y0151236D01*
X0681706Y0141236D02*
X0683306Y0141236D01*
X0606139Y0105529D02*
X0606139Y0103929D01*
X0596139Y0103929D02*
X0596139Y0105529D01*
X0586139Y0105529D02*
X0586139Y0103929D01*
X0562602Y0103929D02*
X0562602Y0105529D01*
X0552602Y0105529D02*
X0552602Y0103929D01*
X0542602Y0103929D02*
X0542602Y0105529D01*
X0508367Y0106101D02*
X0508367Y0107701D01*
X0498367Y0107701D02*
X0498367Y0106101D01*
X0488367Y0106101D02*
X0488367Y0107701D01*
X0478367Y0107701D02*
X0478367Y0106101D01*
X0468367Y0106101D02*
X0468367Y0107701D01*
X0422665Y0105929D02*
X0422665Y0104329D01*
X0412665Y0104329D02*
X0412665Y0105929D01*
X0402665Y0105929D02*
X0402665Y0104329D01*
X0380665Y0104729D02*
X0380665Y0106329D01*
X0370665Y0106329D02*
X0370665Y0104729D01*
X0360665Y0104729D02*
X0360665Y0106329D01*
X0339465Y0106329D02*
X0339465Y0104729D01*
X0329465Y0104729D02*
X0329465Y0106329D01*
X0319465Y0106329D02*
X0319465Y0104729D01*
X0295065Y0105529D02*
X0295065Y0107129D01*
X0285065Y0107129D02*
X0285065Y0105529D01*
X0275065Y0105529D02*
X0275065Y0107129D01*
X0250144Y0087312D02*
X0250144Y0085712D01*
X0240144Y0085712D02*
X0240144Y0087312D01*
D16*
X0260931Y0121759D02*
X0262900Y0121759D01*
X0273726Y0139672D02*
X0273726Y0141641D01*
X0249711Y0141641D02*
X0249711Y0139672D01*
D17*
X0187029Y0157243D02*
X0187029Y0158943D01*
X0197029Y0158943D02*
X0197029Y0157243D01*
X0207029Y0157243D02*
X0207029Y0158943D01*
D18*
X0197029Y0099093D03*
D19*
X0307865Y0168296D02*
X0307865Y0169880D01*
X0317865Y0169880D02*
X0317865Y0168296D01*
X0327865Y0168296D02*
X0327865Y0169880D01*
X0337865Y0169880D02*
X0337865Y0168296D01*
X0347865Y0168296D02*
X0347865Y0169880D01*
X0357865Y0169880D02*
X0357865Y0168296D01*
X0367865Y0168296D02*
X0367865Y0169880D01*
X0377865Y0169880D02*
X0377865Y0168296D01*
X0397865Y0168296D02*
X0397865Y0169880D01*
X0407865Y0169880D02*
X0407865Y0168296D01*
X0417865Y0168296D02*
X0417865Y0169880D01*
X0427865Y0169880D02*
X0427865Y0168296D01*
X0437865Y0168296D02*
X0437865Y0169880D01*
X0447865Y0169880D02*
X0447865Y0168296D01*
X0457865Y0168296D02*
X0457865Y0169880D01*
X0467865Y0169880D02*
X0467865Y0168296D01*
X0487865Y0168296D02*
X0487865Y0169880D01*
X0497865Y0169880D02*
X0497865Y0168296D01*
X0507865Y0168296D02*
X0507865Y0169880D01*
X0517865Y0169880D02*
X0517865Y0168296D01*
X0527865Y0168296D02*
X0527865Y0169880D01*
X0537865Y0169880D02*
X0537865Y0168296D01*
X0547865Y0168296D02*
X0547865Y0169880D01*
X0557865Y0169880D02*
X0557865Y0168296D01*
X0537865Y0358296D02*
X0537865Y0359880D01*
X0527865Y0359880D02*
X0527865Y0358296D01*
X0517865Y0358296D02*
X0517865Y0359880D01*
X0507865Y0359880D02*
X0507865Y0358296D01*
X0497865Y0358296D02*
X0497865Y0359880D01*
X0487865Y0359880D02*
X0487865Y0358296D01*
X0477865Y0358296D02*
X0477865Y0359880D01*
X0467865Y0359880D02*
X0467865Y0358296D01*
X0447865Y0358296D02*
X0447865Y0359880D01*
X0437865Y0359880D02*
X0437865Y0358296D01*
X0427865Y0358296D02*
X0427865Y0359880D01*
X0417865Y0359880D02*
X0417865Y0358296D01*
X0407865Y0358296D02*
X0407865Y0359880D01*
X0397865Y0359880D02*
X0397865Y0358296D01*
X0387865Y0358296D02*
X0387865Y0359880D01*
X0377865Y0359880D02*
X0377865Y0358296D01*
X0361865Y0358296D02*
X0361865Y0359880D01*
X0351865Y0359880D02*
X0351865Y0358296D01*
X0341865Y0358296D02*
X0341865Y0359880D01*
X0331865Y0359880D02*
X0331865Y0358296D01*
X0321865Y0358296D02*
X0321865Y0359880D01*
X0311865Y0359880D02*
X0311865Y0358296D01*
X0301865Y0358296D02*
X0301865Y0359880D01*
X0291865Y0359880D02*
X0291865Y0358296D01*
X0281865Y0358296D02*
X0281865Y0359880D01*
X0271865Y0359880D02*
X0271865Y0358296D01*
D20*
X0448365Y0279088D03*
X0458365Y0279088D03*
X0458365Y0269088D03*
X0458365Y0259088D03*
X0448365Y0259088D03*
X0448365Y0269088D03*
D21*
X0552865Y0359088D03*
X0577865Y0169088D03*
X0257865Y0359088D03*
X0252865Y0169088D03*
D22*
X0268136Y0227024D03*
X0268136Y0237024D03*
X0268136Y0247024D03*
X0268136Y0257024D03*
X0268136Y0267024D03*
X0268136Y0277024D03*
X0268136Y0287024D03*
X0268136Y0297024D03*
X0268136Y0307024D03*
X0472215Y0318710D03*
X0482215Y0318710D03*
X0492215Y0318710D03*
X0502215Y0318710D03*
X0512215Y0318710D03*
X0522215Y0318710D03*
X0532215Y0318710D03*
X0542215Y0318710D03*
X0552215Y0318710D03*
D23*
X0552215Y0204710D03*
X0472215Y0204710D03*
D24*
X0445081Y0337945D03*
X0385238Y0337945D03*
D25*
X0396262Y0296606D03*
X0405711Y0296606D03*
X0415159Y0296606D03*
X0425002Y0296606D03*
X0434057Y0296606D03*
D26*
X0223999Y0214743D02*
X0223999Y0201587D01*
X0223999Y0214743D02*
X0233217Y0214743D01*
X0233217Y0201587D01*
X0223999Y0201587D01*
X0223999Y0202610D02*
X0233217Y0202610D01*
X0233217Y0203633D02*
X0223999Y0203633D01*
X0223999Y0204656D02*
X0233217Y0204656D01*
X0233217Y0205679D02*
X0223999Y0205679D01*
X0223999Y0206702D02*
X0233217Y0206702D01*
X0233217Y0207725D02*
X0223999Y0207725D01*
X0223999Y0208748D02*
X0233217Y0208748D01*
X0233217Y0209771D02*
X0223999Y0209771D01*
X0223999Y0210794D02*
X0233217Y0210794D01*
X0233217Y0211817D02*
X0223999Y0211817D01*
X0223999Y0212840D02*
X0233217Y0212840D01*
X0233217Y0213863D02*
X0223999Y0213863D01*
X0223999Y0189153D02*
X0223999Y0175997D01*
X0223999Y0189153D02*
X0233217Y0189153D01*
X0233217Y0175997D01*
X0223999Y0175997D01*
X0223999Y0177020D02*
X0233217Y0177020D01*
X0233217Y0178043D02*
X0223999Y0178043D01*
X0223999Y0179066D02*
X0233217Y0179066D01*
X0233217Y0180089D02*
X0223999Y0180089D01*
X0223999Y0181112D02*
X0233217Y0181112D01*
X0233217Y0182135D02*
X0223999Y0182135D01*
X0223999Y0183158D02*
X0233217Y0183158D01*
X0233217Y0184181D02*
X0223999Y0184181D01*
X0223999Y0185204D02*
X0233217Y0185204D01*
X0233217Y0186227D02*
X0223999Y0186227D01*
X0223999Y0187250D02*
X0233217Y0187250D01*
X0233217Y0188273D02*
X0223999Y0188273D01*
X0179084Y0182690D02*
X0165928Y0182690D01*
X0165928Y0191908D01*
X0179084Y0191908D01*
X0179084Y0182690D01*
X0179084Y0183713D02*
X0165928Y0183713D01*
X0165928Y0184736D02*
X0179084Y0184736D01*
X0179084Y0185759D02*
X0165928Y0185759D01*
X0165928Y0186782D02*
X0179084Y0186782D01*
X0179084Y0187805D02*
X0165928Y0187805D01*
X0165928Y0188828D02*
X0179084Y0188828D01*
X0179084Y0189851D02*
X0165928Y0189851D01*
X0165928Y0190874D02*
X0179084Y0190874D01*
X0179084Y0191897D02*
X0165928Y0191897D01*
X0153493Y0182690D02*
X0140337Y0182690D01*
X0140337Y0191908D01*
X0153493Y0191908D01*
X0153493Y0182690D01*
X0153493Y0183713D02*
X0140337Y0183713D01*
X0140337Y0184736D02*
X0153493Y0184736D01*
X0153493Y0185759D02*
X0140337Y0185759D01*
X0140337Y0186782D02*
X0153493Y0186782D01*
X0153493Y0187805D02*
X0140337Y0187805D01*
X0140337Y0188828D02*
X0153493Y0188828D01*
X0153493Y0189851D02*
X0140337Y0189851D01*
X0140337Y0190874D02*
X0153493Y0190874D01*
X0153493Y0191897D02*
X0140337Y0191897D01*
D27*
X0630695Y0294583D03*
X0640695Y0294583D03*
D28*
X0434071Y0482704D02*
X0428043Y0482704D01*
X0428043Y0489532D01*
X0434071Y0489532D01*
X0434071Y0482704D01*
X0434071Y0483373D02*
X0428043Y0483373D01*
X0428043Y0484042D02*
X0434071Y0484042D01*
X0434071Y0484711D02*
X0428043Y0484711D01*
X0428043Y0485380D02*
X0434071Y0485380D01*
X0434071Y0486049D02*
X0428043Y0486049D01*
X0428043Y0486718D02*
X0434071Y0486718D01*
X0434071Y0487387D02*
X0428043Y0487387D01*
X0428043Y0488056D02*
X0434071Y0488056D01*
X0434071Y0488725D02*
X0428043Y0488725D01*
X0428043Y0489394D02*
X0434071Y0489394D01*
X0422874Y0482704D02*
X0416846Y0482704D01*
X0416846Y0489532D01*
X0422874Y0489532D01*
X0422874Y0482704D01*
X0422874Y0483373D02*
X0416846Y0483373D01*
X0416846Y0484042D02*
X0422874Y0484042D01*
X0422874Y0484711D02*
X0416846Y0484711D01*
X0416846Y0485380D02*
X0422874Y0485380D01*
X0422874Y0486049D02*
X0416846Y0486049D01*
X0416846Y0486718D02*
X0422874Y0486718D01*
X0422874Y0487387D02*
X0416846Y0487387D01*
X0416846Y0488056D02*
X0422874Y0488056D01*
X0422874Y0488725D02*
X0416846Y0488725D01*
X0416846Y0489394D02*
X0422874Y0489394D01*
X0399032Y0490123D02*
X0393004Y0490123D01*
X0399032Y0490123D02*
X0399032Y0483295D01*
X0393004Y0483295D01*
X0393004Y0490123D01*
X0393004Y0483964D02*
X0399032Y0483964D01*
X0399032Y0484633D02*
X0393004Y0484633D01*
X0393004Y0485302D02*
X0399032Y0485302D01*
X0399032Y0485971D02*
X0393004Y0485971D01*
X0393004Y0486640D02*
X0399032Y0486640D01*
X0399032Y0487309D02*
X0393004Y0487309D01*
X0393004Y0487978D02*
X0399032Y0487978D01*
X0399032Y0488647D02*
X0393004Y0488647D01*
X0393004Y0489316D02*
X0399032Y0489316D01*
X0399032Y0489985D02*
X0393004Y0489985D01*
X0387835Y0490123D02*
X0381807Y0490123D01*
X0387835Y0490123D02*
X0387835Y0483295D01*
X0381807Y0483295D01*
X0381807Y0490123D01*
X0381807Y0483964D02*
X0387835Y0483964D01*
X0387835Y0484633D02*
X0381807Y0484633D01*
X0381807Y0485302D02*
X0387835Y0485302D01*
X0387835Y0485971D02*
X0381807Y0485971D01*
X0381807Y0486640D02*
X0387835Y0486640D01*
X0387835Y0487309D02*
X0381807Y0487309D01*
X0381807Y0487978D02*
X0387835Y0487978D01*
X0387835Y0488647D02*
X0381807Y0488647D01*
X0381807Y0489316D02*
X0387835Y0489316D01*
X0387835Y0489985D02*
X0381807Y0489985D01*
D29*
X0398808Y0438601D02*
X0398808Y0433635D01*
X0393054Y0433635D01*
X0393054Y0438601D01*
X0398808Y0438601D01*
X0398808Y0434186D02*
X0393054Y0434186D01*
X0393054Y0434737D02*
X0398808Y0434737D01*
X0398808Y0435288D02*
X0393054Y0435288D01*
X0393054Y0435839D02*
X0398808Y0435839D01*
X0398808Y0436390D02*
X0393054Y0436390D01*
X0393054Y0436941D02*
X0398808Y0436941D01*
X0398808Y0437492D02*
X0393054Y0437492D01*
X0393054Y0438043D02*
X0398808Y0438043D01*
X0398808Y0438594D02*
X0393054Y0438594D01*
X0398808Y0431121D02*
X0398808Y0426155D01*
X0393054Y0426155D01*
X0393054Y0431121D01*
X0398808Y0431121D01*
X0398808Y0426706D02*
X0393054Y0426706D01*
X0393054Y0427257D02*
X0398808Y0427257D01*
X0398808Y0427808D02*
X0393054Y0427808D01*
X0393054Y0428359D02*
X0398808Y0428359D01*
X0398808Y0428910D02*
X0393054Y0428910D01*
X0393054Y0429461D02*
X0398808Y0429461D01*
X0398808Y0430012D02*
X0393054Y0430012D01*
X0393054Y0430563D02*
X0398808Y0430563D01*
X0398808Y0431114D02*
X0393054Y0431114D01*
X0423218Y0431514D02*
X0423218Y0426548D01*
X0417464Y0426548D01*
X0417464Y0431514D01*
X0423218Y0431514D01*
X0423218Y0427099D02*
X0417464Y0427099D01*
X0417464Y0427650D02*
X0423218Y0427650D01*
X0423218Y0428201D02*
X0417464Y0428201D01*
X0417464Y0428752D02*
X0423218Y0428752D01*
X0423218Y0429303D02*
X0417464Y0429303D01*
X0417464Y0429854D02*
X0423218Y0429854D01*
X0423218Y0430405D02*
X0417464Y0430405D01*
X0417464Y0430956D02*
X0423218Y0430956D01*
X0423218Y0431507D02*
X0417464Y0431507D01*
X0423218Y0434029D02*
X0423218Y0438995D01*
X0423218Y0434029D02*
X0417464Y0434029D01*
X0417464Y0438995D01*
X0423218Y0438995D01*
X0423218Y0434580D02*
X0417464Y0434580D01*
X0417464Y0435131D02*
X0423218Y0435131D01*
X0423218Y0435682D02*
X0417464Y0435682D01*
X0417464Y0436233D02*
X0423218Y0436233D01*
X0423218Y0436784D02*
X0417464Y0436784D01*
X0417464Y0437335D02*
X0423218Y0437335D01*
X0423218Y0437886D02*
X0417464Y0437886D01*
X0417464Y0438437D02*
X0423218Y0438437D01*
X0423218Y0438988D02*
X0417464Y0438988D01*
X0524354Y0293674D02*
X0529320Y0293674D01*
X0524354Y0293674D02*
X0524354Y0299428D01*
X0529320Y0299428D01*
X0529320Y0293674D01*
X0529320Y0294225D02*
X0524354Y0294225D01*
X0524354Y0294776D02*
X0529320Y0294776D01*
X0529320Y0295327D02*
X0524354Y0295327D01*
X0524354Y0295878D02*
X0529320Y0295878D01*
X0529320Y0296429D02*
X0524354Y0296429D01*
X0524354Y0296980D02*
X0529320Y0296980D01*
X0529320Y0297531D02*
X0524354Y0297531D01*
X0524354Y0298082D02*
X0529320Y0298082D01*
X0529320Y0298633D02*
X0524354Y0298633D01*
X0524354Y0299184D02*
X0529320Y0299184D01*
X0531834Y0293674D02*
X0536800Y0293674D01*
X0531834Y0293674D02*
X0531834Y0299428D01*
X0536800Y0299428D01*
X0536800Y0293674D01*
X0536800Y0294225D02*
X0531834Y0294225D01*
X0531834Y0294776D02*
X0536800Y0294776D01*
X0536800Y0295327D02*
X0531834Y0295327D01*
X0531834Y0295878D02*
X0536800Y0295878D01*
X0536800Y0296429D02*
X0531834Y0296429D01*
X0531834Y0296980D02*
X0536800Y0296980D01*
X0536800Y0297531D02*
X0531834Y0297531D01*
X0531834Y0298082D02*
X0536800Y0298082D01*
X0536800Y0298633D02*
X0531834Y0298633D01*
X0531834Y0299184D02*
X0536800Y0299184D01*
X0535225Y0279501D02*
X0530259Y0279501D01*
X0530259Y0285255D01*
X0535225Y0285255D01*
X0535225Y0279501D01*
X0535225Y0280052D02*
X0530259Y0280052D01*
X0530259Y0280603D02*
X0535225Y0280603D01*
X0535225Y0281154D02*
X0530259Y0281154D01*
X0530259Y0281705D02*
X0535225Y0281705D01*
X0535225Y0282256D02*
X0530259Y0282256D01*
X0530259Y0282807D02*
X0535225Y0282807D01*
X0535225Y0283358D02*
X0530259Y0283358D01*
X0530259Y0283909D02*
X0535225Y0283909D01*
X0535225Y0284460D02*
X0530259Y0284460D01*
X0530259Y0285011D02*
X0535225Y0285011D01*
X0527745Y0279501D02*
X0522779Y0279501D01*
X0522779Y0285255D01*
X0527745Y0285255D01*
X0527745Y0279501D01*
X0527745Y0280052D02*
X0522779Y0280052D01*
X0522779Y0280603D02*
X0527745Y0280603D01*
X0527745Y0281154D02*
X0522779Y0281154D01*
X0522779Y0281705D02*
X0527745Y0281705D01*
X0527745Y0282256D02*
X0522779Y0282256D01*
X0522779Y0282807D02*
X0527745Y0282807D01*
X0527745Y0283358D02*
X0522779Y0283358D01*
X0522779Y0283909D02*
X0527745Y0283909D01*
X0527745Y0284460D02*
X0522779Y0284460D01*
X0522779Y0285011D02*
X0527745Y0285011D01*
X0527351Y0264934D02*
X0522385Y0264934D01*
X0522385Y0270688D01*
X0527351Y0270688D01*
X0527351Y0264934D01*
X0527351Y0265485D02*
X0522385Y0265485D01*
X0522385Y0266036D02*
X0527351Y0266036D01*
X0527351Y0266587D02*
X0522385Y0266587D01*
X0522385Y0267138D02*
X0527351Y0267138D01*
X0527351Y0267689D02*
X0522385Y0267689D01*
X0522385Y0268240D02*
X0527351Y0268240D01*
X0527351Y0268791D02*
X0522385Y0268791D01*
X0522385Y0269342D02*
X0527351Y0269342D01*
X0527351Y0269893D02*
X0522385Y0269893D01*
X0522385Y0270444D02*
X0527351Y0270444D01*
X0529865Y0264934D02*
X0534831Y0264934D01*
X0529865Y0264934D02*
X0529865Y0270688D01*
X0534831Y0270688D01*
X0534831Y0264934D01*
X0534831Y0265485D02*
X0529865Y0265485D01*
X0529865Y0266036D02*
X0534831Y0266036D01*
X0534831Y0266587D02*
X0529865Y0266587D01*
X0529865Y0267138D02*
X0534831Y0267138D01*
X0534831Y0267689D02*
X0529865Y0267689D01*
X0529865Y0268240D02*
X0534831Y0268240D01*
X0534831Y0268791D02*
X0529865Y0268791D01*
X0529865Y0269342D02*
X0534831Y0269342D01*
X0534831Y0269893D02*
X0529865Y0269893D01*
X0529865Y0270444D02*
X0534831Y0270444D01*
X0534044Y0243674D02*
X0529078Y0243674D01*
X0529078Y0249428D01*
X0534044Y0249428D01*
X0534044Y0243674D01*
X0534044Y0244225D02*
X0529078Y0244225D01*
X0529078Y0244776D02*
X0534044Y0244776D01*
X0534044Y0245327D02*
X0529078Y0245327D01*
X0529078Y0245878D02*
X0534044Y0245878D01*
X0534044Y0246429D02*
X0529078Y0246429D01*
X0529078Y0246980D02*
X0534044Y0246980D01*
X0534044Y0247531D02*
X0529078Y0247531D01*
X0529078Y0248082D02*
X0534044Y0248082D01*
X0534044Y0248633D02*
X0529078Y0248633D01*
X0529078Y0249184D02*
X0534044Y0249184D01*
X0536558Y0243674D02*
X0541524Y0243674D01*
X0536558Y0243674D02*
X0536558Y0249428D01*
X0541524Y0249428D01*
X0541524Y0243674D01*
X0541524Y0244225D02*
X0536558Y0244225D01*
X0536558Y0244776D02*
X0541524Y0244776D01*
X0541524Y0245327D02*
X0536558Y0245327D01*
X0536558Y0245878D02*
X0541524Y0245878D01*
X0541524Y0246429D02*
X0536558Y0246429D01*
X0536558Y0246980D02*
X0541524Y0246980D01*
X0541524Y0247531D02*
X0536558Y0247531D01*
X0536558Y0248082D02*
X0541524Y0248082D01*
X0541524Y0248633D02*
X0536558Y0248633D01*
X0536558Y0249184D02*
X0541524Y0249184D01*
X0540737Y0231469D02*
X0535771Y0231469D01*
X0535771Y0237223D01*
X0540737Y0237223D01*
X0540737Y0231469D01*
X0540737Y0232020D02*
X0535771Y0232020D01*
X0535771Y0232571D02*
X0540737Y0232571D01*
X0540737Y0233122D02*
X0535771Y0233122D01*
X0535771Y0233673D02*
X0540737Y0233673D01*
X0540737Y0234224D02*
X0535771Y0234224D01*
X0535771Y0234775D02*
X0540737Y0234775D01*
X0540737Y0235326D02*
X0535771Y0235326D01*
X0535771Y0235877D02*
X0540737Y0235877D01*
X0540737Y0236428D02*
X0535771Y0236428D01*
X0535771Y0236979D02*
X0540737Y0236979D01*
X0533257Y0231469D02*
X0528291Y0231469D01*
X0528291Y0237223D01*
X0533257Y0237223D01*
X0533257Y0231469D01*
X0533257Y0232020D02*
X0528291Y0232020D01*
X0528291Y0232571D02*
X0533257Y0232571D01*
X0533257Y0233122D02*
X0528291Y0233122D01*
X0528291Y0233673D02*
X0533257Y0233673D01*
X0533257Y0234224D02*
X0528291Y0234224D01*
X0528291Y0234775D02*
X0533257Y0234775D01*
X0533257Y0235326D02*
X0528291Y0235326D01*
X0528291Y0235877D02*
X0533257Y0235877D01*
X0533257Y0236428D02*
X0528291Y0236428D01*
X0528291Y0236979D02*
X0533257Y0236979D01*
X0533257Y0221233D02*
X0528291Y0221233D01*
X0528291Y0226987D01*
X0533257Y0226987D01*
X0533257Y0221233D01*
X0533257Y0221784D02*
X0528291Y0221784D01*
X0528291Y0222335D02*
X0533257Y0222335D01*
X0533257Y0222886D02*
X0528291Y0222886D01*
X0528291Y0223437D02*
X0533257Y0223437D01*
X0533257Y0223988D02*
X0528291Y0223988D01*
X0528291Y0224539D02*
X0533257Y0224539D01*
X0533257Y0225090D02*
X0528291Y0225090D01*
X0528291Y0225641D02*
X0533257Y0225641D01*
X0533257Y0226192D02*
X0528291Y0226192D01*
X0528291Y0226743D02*
X0533257Y0226743D01*
X0535771Y0221233D02*
X0540737Y0221233D01*
X0535771Y0221233D02*
X0535771Y0226987D01*
X0540737Y0226987D01*
X0540737Y0221233D01*
X0540737Y0221784D02*
X0535771Y0221784D01*
X0535771Y0222335D02*
X0540737Y0222335D01*
X0540737Y0222886D02*
X0535771Y0222886D01*
X0535771Y0223437D02*
X0540737Y0223437D01*
X0540737Y0223988D02*
X0535771Y0223988D01*
X0535771Y0224539D02*
X0540737Y0224539D01*
X0540737Y0225090D02*
X0535771Y0225090D01*
X0535771Y0225641D02*
X0540737Y0225641D01*
X0540737Y0226192D02*
X0535771Y0226192D01*
X0535771Y0226743D02*
X0540737Y0226743D01*
X0393099Y0219703D02*
X0393099Y0214737D01*
X0387345Y0214737D01*
X0387345Y0219703D01*
X0393099Y0219703D01*
X0393099Y0215288D02*
X0387345Y0215288D01*
X0387345Y0215839D02*
X0393099Y0215839D01*
X0393099Y0216390D02*
X0387345Y0216390D01*
X0387345Y0216941D02*
X0393099Y0216941D01*
X0393099Y0217492D02*
X0387345Y0217492D01*
X0387345Y0218043D02*
X0393099Y0218043D01*
X0393099Y0218594D02*
X0387345Y0218594D01*
X0387345Y0219145D02*
X0393099Y0219145D01*
X0393099Y0219696D02*
X0387345Y0219696D01*
X0393099Y0212223D02*
X0393099Y0207257D01*
X0387345Y0207257D01*
X0387345Y0212223D01*
X0393099Y0212223D01*
X0393099Y0207808D02*
X0387345Y0207808D01*
X0387345Y0208359D02*
X0393099Y0208359D01*
X0393099Y0208910D02*
X0387345Y0208910D01*
X0387345Y0209461D02*
X0393099Y0209461D01*
X0393099Y0210012D02*
X0387345Y0210012D01*
X0387345Y0210563D02*
X0393099Y0210563D01*
X0393099Y0211114D02*
X0387345Y0211114D01*
X0387345Y0211665D02*
X0393099Y0211665D01*
X0393099Y0212216D02*
X0387345Y0212216D01*
X0385968Y0196430D02*
X0390934Y0196430D01*
X0385968Y0196430D02*
X0385968Y0202184D01*
X0390934Y0202184D01*
X0390934Y0196430D01*
X0390934Y0196981D02*
X0385968Y0196981D01*
X0385968Y0197532D02*
X0390934Y0197532D01*
X0390934Y0198083D02*
X0385968Y0198083D01*
X0385968Y0198634D02*
X0390934Y0198634D01*
X0390934Y0199185D02*
X0385968Y0199185D01*
X0385968Y0199736D02*
X0390934Y0199736D01*
X0390934Y0200287D02*
X0385968Y0200287D01*
X0385968Y0200838D02*
X0390934Y0200838D01*
X0390934Y0201389D02*
X0385968Y0201389D01*
X0385968Y0201940D02*
X0390934Y0201940D01*
X0383453Y0196430D02*
X0378487Y0196430D01*
X0378487Y0202184D01*
X0383453Y0202184D01*
X0383453Y0196430D01*
X0383453Y0196981D02*
X0378487Y0196981D01*
X0378487Y0197532D02*
X0383453Y0197532D01*
X0383453Y0198083D02*
X0378487Y0198083D01*
X0378487Y0198634D02*
X0383453Y0198634D01*
X0383453Y0199185D02*
X0378487Y0199185D01*
X0378487Y0199736D02*
X0383453Y0199736D01*
X0383453Y0200287D02*
X0378487Y0200287D01*
X0378487Y0200838D02*
X0383453Y0200838D01*
X0383453Y0201389D02*
X0378487Y0201389D01*
X0378487Y0201940D02*
X0383453Y0201940D01*
D30*
X0365222Y0194976D03*
X0318372Y0194976D03*
X0388451Y0262693D03*
X0400262Y0270567D03*
X0376640Y0288283D03*
X0354986Y0307575D03*
X0341207Y0341433D03*
X0317978Y0326866D03*
X0319553Y0413480D03*
X0423884Y0321748D03*
X0435695Y0313874D03*
X0472703Y0344583D03*
X0484514Y0346945D03*
X0487270Y0379622D03*
X0496719Y0386118D03*
X0446325Y0428835D03*
X0507742Y0284150D03*
X0510892Y0223323D03*
X0530183Y0211512D03*
X0595144Y0264661D03*
X0207742Y0275685D03*
M02*
