G75*
%MOIN*%
%OFA0B0*%
%FSLAX25Y25*%
%IPPOS*%
%LPD*%
%AMOC8*
5,1,8,0,0,1.08239X$1,22.5*
%
%ADD10OC8,0.08250*%
%ADD11OC8,0.12700*%
%ADD12C,0.05550*%
%ADD13C,0.06400*%
%ADD14C,0.07874*%
%ADD15C,0.06800*%
%ADD16C,0.06337*%
%ADD17C,0.06337*%
%ADD18OC8,0.05550*%
%ADD19R,0.06600X0.06600*%
%ADD20C,0.00984*%
%ADD21OC8,0.05600*%
%ADD22C,0.00630*%
%ADD23C,0.00512*%
%ADD24C,0.06600*%
%ADD25C,0.09449*%
%ADD26C,0.04000*%
%ADD27C,0.07000*%
%ADD28C,0.03200*%
%ADD29C,0.02400*%
%ADD30R,0.03962X0.03962*%
D10*
X0667821Y0296157D03*
D11*
X0667821Y0318157D03*
X0697821Y0296157D03*
X0667821Y0274157D03*
D12*
X0577865Y0279088D03*
X0567865Y0279088D03*
X0567865Y0269088D03*
X0567865Y0259088D03*
X0577865Y0259088D03*
X0577865Y0269088D03*
X0577865Y0249088D03*
X0567865Y0249088D03*
X0567865Y0239088D03*
X0567865Y0229088D03*
X0577865Y0229088D03*
X0577865Y0239088D03*
X0577865Y0219088D03*
X0577865Y0209088D03*
X0567865Y0209088D03*
X0567865Y0219088D03*
X0567865Y0199088D03*
X0577865Y0199088D03*
X0577865Y0189088D03*
X0567865Y0189088D03*
X0567865Y0289088D03*
X0577865Y0289088D03*
X0577865Y0299088D03*
X0567865Y0299088D03*
X0567865Y0309088D03*
X0577865Y0309088D03*
X0577865Y0319088D03*
X0567865Y0319088D03*
X0567865Y0329088D03*
X0577865Y0329088D03*
X0577865Y0339088D03*
X0567865Y0339088D03*
X0567865Y0349088D03*
X0577865Y0349088D03*
X0577865Y0359088D03*
X0567865Y0359088D03*
X0254832Y0327413D03*
X0246958Y0327413D03*
X0239084Y0327413D03*
X0231210Y0327413D03*
X0223336Y0327413D03*
X0215462Y0327413D03*
X0207588Y0327413D03*
X0199714Y0327413D03*
X0191840Y0327413D03*
X0183966Y0327413D03*
X0183966Y0414027D03*
X0191840Y0414027D03*
X0199714Y0414027D03*
X0207588Y0414027D03*
X0215462Y0414027D03*
X0223336Y0414027D03*
X0231210Y0414027D03*
X0239084Y0414027D03*
X0246958Y0414027D03*
X0254832Y0414027D03*
D13*
X0467033Y0445712D02*
X0467033Y0447312D01*
X0477033Y0447312D02*
X0477033Y0445712D01*
X0487033Y0445712D02*
X0487033Y0447312D01*
X0513215Y0447312D02*
X0513215Y0445712D01*
X0523215Y0445712D02*
X0523215Y0447312D01*
X0533215Y0447312D02*
X0533215Y0445712D01*
X0543215Y0445712D02*
X0543215Y0447312D01*
X0568333Y0447312D02*
X0568333Y0445712D01*
X0578333Y0445712D02*
X0578333Y0447312D01*
X0588333Y0447312D02*
X0588333Y0445712D01*
X0598333Y0445712D02*
X0598333Y0447312D01*
X0681706Y0417457D02*
X0683306Y0417457D01*
X0683306Y0407457D02*
X0681706Y0407457D01*
X0681706Y0397457D02*
X0683306Y0397457D01*
X0683306Y0387457D02*
X0681706Y0387457D01*
X0681706Y0366276D02*
X0683306Y0366276D01*
X0683306Y0356276D02*
X0681706Y0356276D01*
X0681706Y0346276D02*
X0683306Y0346276D01*
X0683306Y0336276D02*
X0681706Y0336276D01*
X0681706Y0253165D02*
X0683306Y0253165D01*
X0683306Y0243165D02*
X0681706Y0243165D01*
X0681706Y0233165D02*
X0683306Y0233165D01*
X0683306Y0223165D02*
X0681706Y0223165D01*
X0681706Y0213165D02*
X0683306Y0213165D01*
X0683306Y0191236D02*
X0681706Y0191236D01*
X0681706Y0181236D02*
X0683306Y0181236D01*
X0683306Y0171236D02*
X0681706Y0171236D01*
X0681706Y0161236D02*
X0683306Y0161236D01*
X0683306Y0151236D02*
X0681706Y0151236D01*
X0681706Y0141236D02*
X0683306Y0141236D01*
X0606139Y0105529D02*
X0606139Y0103929D01*
X0596139Y0103929D02*
X0596139Y0105529D01*
X0586139Y0105529D02*
X0586139Y0103929D01*
X0562602Y0103929D02*
X0562602Y0105529D01*
X0552602Y0105529D02*
X0552602Y0103929D01*
X0542602Y0103929D02*
X0542602Y0105529D01*
X0508367Y0106101D02*
X0508367Y0107701D01*
X0498367Y0107701D02*
X0498367Y0106101D01*
X0488367Y0106101D02*
X0488367Y0107701D01*
X0478367Y0107701D02*
X0478367Y0106101D01*
X0468367Y0106101D02*
X0468367Y0107701D01*
X0422665Y0105929D02*
X0422665Y0104329D01*
X0412665Y0104329D02*
X0412665Y0105929D01*
X0402665Y0105929D02*
X0402665Y0104329D01*
X0380665Y0104729D02*
X0380665Y0106329D01*
X0370665Y0106329D02*
X0370665Y0104729D01*
X0360665Y0104729D02*
X0360665Y0106329D01*
X0339465Y0106329D02*
X0339465Y0104729D01*
X0329465Y0104729D02*
X0329465Y0106329D01*
X0319465Y0106329D02*
X0319465Y0104729D01*
X0295065Y0105529D02*
X0295065Y0107129D01*
X0285065Y0107129D02*
X0285065Y0105529D01*
X0275065Y0105529D02*
X0275065Y0107129D01*
X0250144Y0087312D02*
X0250144Y0085712D01*
X0240144Y0085712D02*
X0240144Y0087312D01*
D14*
X0260931Y0121759D02*
X0262900Y0121759D01*
X0273726Y0139672D02*
X0273726Y0141641D01*
X0249711Y0141641D02*
X0249711Y0139672D01*
D15*
X0207029Y0157243D02*
X0207029Y0158943D01*
X0197029Y0158943D02*
X0197029Y0157243D01*
X0187029Y0157243D02*
X0187029Y0158943D01*
D16*
X0307865Y0168296D02*
X0307865Y0169880D01*
X0317865Y0169880D02*
X0317865Y0168296D01*
X0327865Y0168296D02*
X0327865Y0169880D01*
X0337865Y0169880D02*
X0337865Y0168296D01*
X0347865Y0168296D02*
X0347865Y0169880D01*
X0357865Y0169880D02*
X0357865Y0168296D01*
X0367865Y0168296D02*
X0367865Y0169880D01*
X0377865Y0169880D02*
X0377865Y0168296D01*
X0397865Y0168296D02*
X0397865Y0169880D01*
X0407865Y0169880D02*
X0407865Y0168296D01*
X0417865Y0168296D02*
X0417865Y0169880D01*
X0427865Y0169880D02*
X0427865Y0168296D01*
X0437865Y0168296D02*
X0437865Y0169880D01*
X0447865Y0169880D02*
X0447865Y0168296D01*
X0457865Y0168296D02*
X0457865Y0169880D01*
X0467865Y0169880D02*
X0467865Y0168296D01*
X0487865Y0168296D02*
X0487865Y0169880D01*
X0497865Y0169880D02*
X0497865Y0168296D01*
X0507865Y0168296D02*
X0507865Y0169880D01*
X0517865Y0169880D02*
X0517865Y0168296D01*
X0527865Y0168296D02*
X0527865Y0169880D01*
X0537865Y0169880D02*
X0537865Y0168296D01*
X0547865Y0168296D02*
X0547865Y0169880D01*
X0557865Y0169880D02*
X0557865Y0168296D01*
X0537865Y0358296D02*
X0537865Y0359880D01*
X0527865Y0359880D02*
X0527865Y0358296D01*
X0517865Y0358296D02*
X0517865Y0359880D01*
X0507865Y0359880D02*
X0507865Y0358296D01*
X0497865Y0358296D02*
X0497865Y0359880D01*
X0487865Y0359880D02*
X0487865Y0358296D01*
X0477865Y0358296D02*
X0477865Y0359880D01*
X0467865Y0359880D02*
X0467865Y0358296D01*
X0447865Y0358296D02*
X0447865Y0359880D01*
X0437865Y0359880D02*
X0437865Y0358296D01*
X0427865Y0358296D02*
X0427865Y0359880D01*
X0417865Y0359880D02*
X0417865Y0358296D01*
X0407865Y0358296D02*
X0407865Y0359880D01*
X0397865Y0359880D02*
X0397865Y0358296D01*
X0387865Y0358296D02*
X0387865Y0359880D01*
X0377865Y0359880D02*
X0377865Y0358296D01*
X0361865Y0358296D02*
X0361865Y0359880D01*
X0351865Y0359880D02*
X0351865Y0358296D01*
X0341865Y0358296D02*
X0341865Y0359880D01*
X0331865Y0359880D02*
X0331865Y0358296D01*
X0321865Y0358296D02*
X0321865Y0359880D01*
X0311865Y0359880D02*
X0311865Y0358296D01*
X0301865Y0358296D02*
X0301865Y0359880D01*
X0291865Y0359880D02*
X0291865Y0358296D01*
X0281865Y0358296D02*
X0281865Y0359880D01*
X0271865Y0359880D02*
X0271865Y0358296D01*
D17*
X0448365Y0279088D03*
X0458365Y0279088D03*
X0458365Y0269088D03*
X0458365Y0259088D03*
X0448365Y0259088D03*
X0448365Y0269088D03*
D18*
X0472215Y0318710D03*
X0482215Y0318710D03*
X0492215Y0318710D03*
X0502215Y0318710D03*
X0512215Y0318710D03*
X0522215Y0318710D03*
X0532215Y0318710D03*
X0542215Y0318710D03*
X0552215Y0318710D03*
X0268136Y0307024D03*
X0268136Y0297024D03*
X0268136Y0287024D03*
X0268136Y0277024D03*
X0268136Y0267024D03*
X0268136Y0257024D03*
X0268136Y0247024D03*
X0268136Y0237024D03*
X0268136Y0227024D03*
D19*
X0396262Y0296606D03*
X0405711Y0296606D03*
X0415159Y0296606D03*
X0425002Y0296606D03*
X0434057Y0296606D03*
D20*
X0224179Y0214563D02*
X0224179Y0201767D01*
X0224179Y0214563D02*
X0233037Y0214563D01*
X0233037Y0201767D01*
X0224179Y0201767D01*
X0224179Y0202750D02*
X0233037Y0202750D01*
X0233037Y0203733D02*
X0224179Y0203733D01*
X0224179Y0204716D02*
X0233037Y0204716D01*
X0233037Y0205699D02*
X0224179Y0205699D01*
X0224179Y0206682D02*
X0233037Y0206682D01*
X0233037Y0207665D02*
X0224179Y0207665D01*
X0224179Y0208648D02*
X0233037Y0208648D01*
X0233037Y0209631D02*
X0224179Y0209631D01*
X0224179Y0210614D02*
X0233037Y0210614D01*
X0233037Y0211597D02*
X0224179Y0211597D01*
X0224179Y0212580D02*
X0233037Y0212580D01*
X0233037Y0213563D02*
X0224179Y0213563D01*
X0224179Y0214546D02*
X0233037Y0214546D01*
X0224179Y0188973D02*
X0224179Y0176177D01*
X0224179Y0188973D02*
X0233037Y0188973D01*
X0233037Y0176177D01*
X0224179Y0176177D01*
X0224179Y0177160D02*
X0233037Y0177160D01*
X0233037Y0178143D02*
X0224179Y0178143D01*
X0224179Y0179126D02*
X0233037Y0179126D01*
X0233037Y0180109D02*
X0224179Y0180109D01*
X0224179Y0181092D02*
X0233037Y0181092D01*
X0233037Y0182075D02*
X0224179Y0182075D01*
X0224179Y0183058D02*
X0233037Y0183058D01*
X0233037Y0184041D02*
X0224179Y0184041D01*
X0224179Y0185024D02*
X0233037Y0185024D01*
X0233037Y0186007D02*
X0224179Y0186007D01*
X0224179Y0186990D02*
X0233037Y0186990D01*
X0233037Y0187973D02*
X0224179Y0187973D01*
X0224179Y0188956D02*
X0233037Y0188956D01*
X0178904Y0182870D02*
X0166108Y0182870D01*
X0166108Y0191728D01*
X0178904Y0191728D01*
X0178904Y0182870D01*
X0178904Y0183853D02*
X0166108Y0183853D01*
X0166108Y0184836D02*
X0178904Y0184836D01*
X0178904Y0185819D02*
X0166108Y0185819D01*
X0166108Y0186802D02*
X0178904Y0186802D01*
X0178904Y0187785D02*
X0166108Y0187785D01*
X0166108Y0188768D02*
X0178904Y0188768D01*
X0178904Y0189751D02*
X0166108Y0189751D01*
X0166108Y0190734D02*
X0178904Y0190734D01*
X0178904Y0191717D02*
X0166108Y0191717D01*
X0153313Y0182870D02*
X0140517Y0182870D01*
X0140517Y0191728D01*
X0153313Y0191728D01*
X0153313Y0182870D01*
X0153313Y0183853D02*
X0140517Y0183853D01*
X0140517Y0184836D02*
X0153313Y0184836D01*
X0153313Y0185819D02*
X0140517Y0185819D01*
X0140517Y0186802D02*
X0153313Y0186802D01*
X0153313Y0187785D02*
X0140517Y0187785D01*
X0140517Y0188768D02*
X0153313Y0188768D01*
X0153313Y0189751D02*
X0140517Y0189751D01*
X0140517Y0190734D02*
X0153313Y0190734D01*
X0153313Y0191717D02*
X0140517Y0191717D01*
D21*
X0630695Y0294583D03*
X0640695Y0294583D03*
D22*
X0433891Y0482884D02*
X0428223Y0482884D01*
X0428223Y0489352D01*
X0433891Y0489352D01*
X0433891Y0482884D01*
X0433891Y0483513D02*
X0428223Y0483513D01*
X0428223Y0484142D02*
X0433891Y0484142D01*
X0433891Y0484771D02*
X0428223Y0484771D01*
X0428223Y0485400D02*
X0433891Y0485400D01*
X0433891Y0486029D02*
X0428223Y0486029D01*
X0428223Y0486658D02*
X0433891Y0486658D01*
X0433891Y0487287D02*
X0428223Y0487287D01*
X0428223Y0487916D02*
X0433891Y0487916D01*
X0433891Y0488545D02*
X0428223Y0488545D01*
X0428223Y0489174D02*
X0433891Y0489174D01*
X0422694Y0482884D02*
X0417026Y0482884D01*
X0417026Y0489352D01*
X0422694Y0489352D01*
X0422694Y0482884D01*
X0422694Y0483513D02*
X0417026Y0483513D01*
X0417026Y0484142D02*
X0422694Y0484142D01*
X0422694Y0484771D02*
X0417026Y0484771D01*
X0417026Y0485400D02*
X0422694Y0485400D01*
X0422694Y0486029D02*
X0417026Y0486029D01*
X0417026Y0486658D02*
X0422694Y0486658D01*
X0422694Y0487287D02*
X0417026Y0487287D01*
X0417026Y0487916D02*
X0422694Y0487916D01*
X0422694Y0488545D02*
X0417026Y0488545D01*
X0417026Y0489174D02*
X0422694Y0489174D01*
X0398852Y0489943D02*
X0393184Y0489943D01*
X0398852Y0489943D02*
X0398852Y0483475D01*
X0393184Y0483475D01*
X0393184Y0489943D01*
X0393184Y0484104D02*
X0398852Y0484104D01*
X0398852Y0484733D02*
X0393184Y0484733D01*
X0393184Y0485362D02*
X0398852Y0485362D01*
X0398852Y0485991D02*
X0393184Y0485991D01*
X0393184Y0486620D02*
X0398852Y0486620D01*
X0398852Y0487249D02*
X0393184Y0487249D01*
X0393184Y0487878D02*
X0398852Y0487878D01*
X0398852Y0488507D02*
X0393184Y0488507D01*
X0393184Y0489136D02*
X0398852Y0489136D01*
X0398852Y0489765D02*
X0393184Y0489765D01*
X0387655Y0489943D02*
X0381987Y0489943D01*
X0387655Y0489943D02*
X0387655Y0483475D01*
X0381987Y0483475D01*
X0381987Y0489943D01*
X0381987Y0484104D02*
X0387655Y0484104D01*
X0387655Y0484733D02*
X0381987Y0484733D01*
X0381987Y0485362D02*
X0387655Y0485362D01*
X0387655Y0485991D02*
X0381987Y0485991D01*
X0381987Y0486620D02*
X0387655Y0486620D01*
X0387655Y0487249D02*
X0381987Y0487249D01*
X0381987Y0487878D02*
X0387655Y0487878D01*
X0387655Y0488507D02*
X0381987Y0488507D01*
X0381987Y0489136D02*
X0387655Y0489136D01*
X0387655Y0489765D02*
X0381987Y0489765D01*
D23*
X0398628Y0438421D02*
X0398628Y0433815D01*
X0393234Y0433815D01*
X0393234Y0438421D01*
X0398628Y0438421D01*
X0398628Y0434326D02*
X0393234Y0434326D01*
X0393234Y0434837D02*
X0398628Y0434837D01*
X0398628Y0435348D02*
X0393234Y0435348D01*
X0393234Y0435859D02*
X0398628Y0435859D01*
X0398628Y0436370D02*
X0393234Y0436370D01*
X0393234Y0436881D02*
X0398628Y0436881D01*
X0398628Y0437392D02*
X0393234Y0437392D01*
X0393234Y0437903D02*
X0398628Y0437903D01*
X0398628Y0438414D02*
X0393234Y0438414D01*
X0398628Y0430941D02*
X0398628Y0426335D01*
X0393234Y0426335D01*
X0393234Y0430941D01*
X0398628Y0430941D01*
X0398628Y0426846D02*
X0393234Y0426846D01*
X0393234Y0427357D02*
X0398628Y0427357D01*
X0398628Y0427868D02*
X0393234Y0427868D01*
X0393234Y0428379D02*
X0398628Y0428379D01*
X0398628Y0428890D02*
X0393234Y0428890D01*
X0393234Y0429401D02*
X0398628Y0429401D01*
X0398628Y0429912D02*
X0393234Y0429912D01*
X0393234Y0430423D02*
X0398628Y0430423D01*
X0398628Y0430934D02*
X0393234Y0430934D01*
X0423038Y0431334D02*
X0423038Y0426728D01*
X0417644Y0426728D01*
X0417644Y0431334D01*
X0423038Y0431334D01*
X0423038Y0427239D02*
X0417644Y0427239D01*
X0417644Y0427750D02*
X0423038Y0427750D01*
X0423038Y0428261D02*
X0417644Y0428261D01*
X0417644Y0428772D02*
X0423038Y0428772D01*
X0423038Y0429283D02*
X0417644Y0429283D01*
X0417644Y0429794D02*
X0423038Y0429794D01*
X0423038Y0430305D02*
X0417644Y0430305D01*
X0417644Y0430816D02*
X0423038Y0430816D01*
X0423038Y0431327D02*
X0417644Y0431327D01*
X0423038Y0434209D02*
X0423038Y0438815D01*
X0423038Y0434209D02*
X0417644Y0434209D01*
X0417644Y0438815D01*
X0423038Y0438815D01*
X0423038Y0434720D02*
X0417644Y0434720D01*
X0417644Y0435231D02*
X0423038Y0435231D01*
X0423038Y0435742D02*
X0417644Y0435742D01*
X0417644Y0436253D02*
X0423038Y0436253D01*
X0423038Y0436764D02*
X0417644Y0436764D01*
X0417644Y0437275D02*
X0423038Y0437275D01*
X0423038Y0437786D02*
X0417644Y0437786D01*
X0417644Y0438297D02*
X0423038Y0438297D01*
X0423038Y0438808D02*
X0417644Y0438808D01*
X0524534Y0293854D02*
X0529140Y0293854D01*
X0524534Y0293854D02*
X0524534Y0299248D01*
X0529140Y0299248D01*
X0529140Y0293854D01*
X0529140Y0294365D02*
X0524534Y0294365D01*
X0524534Y0294876D02*
X0529140Y0294876D01*
X0529140Y0295387D02*
X0524534Y0295387D01*
X0524534Y0295898D02*
X0529140Y0295898D01*
X0529140Y0296409D02*
X0524534Y0296409D01*
X0524534Y0296920D02*
X0529140Y0296920D01*
X0529140Y0297431D02*
X0524534Y0297431D01*
X0524534Y0297942D02*
X0529140Y0297942D01*
X0529140Y0298453D02*
X0524534Y0298453D01*
X0524534Y0298964D02*
X0529140Y0298964D01*
X0532014Y0293854D02*
X0536620Y0293854D01*
X0532014Y0293854D02*
X0532014Y0299248D01*
X0536620Y0299248D01*
X0536620Y0293854D01*
X0536620Y0294365D02*
X0532014Y0294365D01*
X0532014Y0294876D02*
X0536620Y0294876D01*
X0536620Y0295387D02*
X0532014Y0295387D01*
X0532014Y0295898D02*
X0536620Y0295898D01*
X0536620Y0296409D02*
X0532014Y0296409D01*
X0532014Y0296920D02*
X0536620Y0296920D01*
X0536620Y0297431D02*
X0532014Y0297431D01*
X0532014Y0297942D02*
X0536620Y0297942D01*
X0536620Y0298453D02*
X0532014Y0298453D01*
X0532014Y0298964D02*
X0536620Y0298964D01*
X0535045Y0279681D02*
X0530439Y0279681D01*
X0530439Y0285075D01*
X0535045Y0285075D01*
X0535045Y0279681D01*
X0535045Y0280192D02*
X0530439Y0280192D01*
X0530439Y0280703D02*
X0535045Y0280703D01*
X0535045Y0281214D02*
X0530439Y0281214D01*
X0530439Y0281725D02*
X0535045Y0281725D01*
X0535045Y0282236D02*
X0530439Y0282236D01*
X0530439Y0282747D02*
X0535045Y0282747D01*
X0535045Y0283258D02*
X0530439Y0283258D01*
X0530439Y0283769D02*
X0535045Y0283769D01*
X0535045Y0284280D02*
X0530439Y0284280D01*
X0530439Y0284791D02*
X0535045Y0284791D01*
X0527565Y0279681D02*
X0522959Y0279681D01*
X0522959Y0285075D01*
X0527565Y0285075D01*
X0527565Y0279681D01*
X0527565Y0280192D02*
X0522959Y0280192D01*
X0522959Y0280703D02*
X0527565Y0280703D01*
X0527565Y0281214D02*
X0522959Y0281214D01*
X0522959Y0281725D02*
X0527565Y0281725D01*
X0527565Y0282236D02*
X0522959Y0282236D01*
X0522959Y0282747D02*
X0527565Y0282747D01*
X0527565Y0283258D02*
X0522959Y0283258D01*
X0522959Y0283769D02*
X0527565Y0283769D01*
X0527565Y0284280D02*
X0522959Y0284280D01*
X0522959Y0284791D02*
X0527565Y0284791D01*
X0527171Y0265114D02*
X0522565Y0265114D01*
X0522565Y0270508D01*
X0527171Y0270508D01*
X0527171Y0265114D01*
X0527171Y0265625D02*
X0522565Y0265625D01*
X0522565Y0266136D02*
X0527171Y0266136D01*
X0527171Y0266647D02*
X0522565Y0266647D01*
X0522565Y0267158D02*
X0527171Y0267158D01*
X0527171Y0267669D02*
X0522565Y0267669D01*
X0522565Y0268180D02*
X0527171Y0268180D01*
X0527171Y0268691D02*
X0522565Y0268691D01*
X0522565Y0269202D02*
X0527171Y0269202D01*
X0527171Y0269713D02*
X0522565Y0269713D01*
X0522565Y0270224D02*
X0527171Y0270224D01*
X0530045Y0265114D02*
X0534651Y0265114D01*
X0530045Y0265114D02*
X0530045Y0270508D01*
X0534651Y0270508D01*
X0534651Y0265114D01*
X0534651Y0265625D02*
X0530045Y0265625D01*
X0530045Y0266136D02*
X0534651Y0266136D01*
X0534651Y0266647D02*
X0530045Y0266647D01*
X0530045Y0267158D02*
X0534651Y0267158D01*
X0534651Y0267669D02*
X0530045Y0267669D01*
X0530045Y0268180D02*
X0534651Y0268180D01*
X0534651Y0268691D02*
X0530045Y0268691D01*
X0530045Y0269202D02*
X0534651Y0269202D01*
X0534651Y0269713D02*
X0530045Y0269713D01*
X0530045Y0270224D02*
X0534651Y0270224D01*
X0533864Y0243854D02*
X0529258Y0243854D01*
X0529258Y0249248D01*
X0533864Y0249248D01*
X0533864Y0243854D01*
X0533864Y0244365D02*
X0529258Y0244365D01*
X0529258Y0244876D02*
X0533864Y0244876D01*
X0533864Y0245387D02*
X0529258Y0245387D01*
X0529258Y0245898D02*
X0533864Y0245898D01*
X0533864Y0246409D02*
X0529258Y0246409D01*
X0529258Y0246920D02*
X0533864Y0246920D01*
X0533864Y0247431D02*
X0529258Y0247431D01*
X0529258Y0247942D02*
X0533864Y0247942D01*
X0533864Y0248453D02*
X0529258Y0248453D01*
X0529258Y0248964D02*
X0533864Y0248964D01*
X0536738Y0243854D02*
X0541344Y0243854D01*
X0536738Y0243854D02*
X0536738Y0249248D01*
X0541344Y0249248D01*
X0541344Y0243854D01*
X0541344Y0244365D02*
X0536738Y0244365D01*
X0536738Y0244876D02*
X0541344Y0244876D01*
X0541344Y0245387D02*
X0536738Y0245387D01*
X0536738Y0245898D02*
X0541344Y0245898D01*
X0541344Y0246409D02*
X0536738Y0246409D01*
X0536738Y0246920D02*
X0541344Y0246920D01*
X0541344Y0247431D02*
X0536738Y0247431D01*
X0536738Y0247942D02*
X0541344Y0247942D01*
X0541344Y0248453D02*
X0536738Y0248453D01*
X0536738Y0248964D02*
X0541344Y0248964D01*
X0540557Y0231649D02*
X0535951Y0231649D01*
X0535951Y0237043D01*
X0540557Y0237043D01*
X0540557Y0231649D01*
X0540557Y0232160D02*
X0535951Y0232160D01*
X0535951Y0232671D02*
X0540557Y0232671D01*
X0540557Y0233182D02*
X0535951Y0233182D01*
X0535951Y0233693D02*
X0540557Y0233693D01*
X0540557Y0234204D02*
X0535951Y0234204D01*
X0535951Y0234715D02*
X0540557Y0234715D01*
X0540557Y0235226D02*
X0535951Y0235226D01*
X0535951Y0235737D02*
X0540557Y0235737D01*
X0540557Y0236248D02*
X0535951Y0236248D01*
X0535951Y0236759D02*
X0540557Y0236759D01*
X0533077Y0231649D02*
X0528471Y0231649D01*
X0528471Y0237043D01*
X0533077Y0237043D01*
X0533077Y0231649D01*
X0533077Y0232160D02*
X0528471Y0232160D01*
X0528471Y0232671D02*
X0533077Y0232671D01*
X0533077Y0233182D02*
X0528471Y0233182D01*
X0528471Y0233693D02*
X0533077Y0233693D01*
X0533077Y0234204D02*
X0528471Y0234204D01*
X0528471Y0234715D02*
X0533077Y0234715D01*
X0533077Y0235226D02*
X0528471Y0235226D01*
X0528471Y0235737D02*
X0533077Y0235737D01*
X0533077Y0236248D02*
X0528471Y0236248D01*
X0528471Y0236759D02*
X0533077Y0236759D01*
X0533077Y0221413D02*
X0528471Y0221413D01*
X0528471Y0226807D01*
X0533077Y0226807D01*
X0533077Y0221413D01*
X0533077Y0221924D02*
X0528471Y0221924D01*
X0528471Y0222435D02*
X0533077Y0222435D01*
X0533077Y0222946D02*
X0528471Y0222946D01*
X0528471Y0223457D02*
X0533077Y0223457D01*
X0533077Y0223968D02*
X0528471Y0223968D01*
X0528471Y0224479D02*
X0533077Y0224479D01*
X0533077Y0224990D02*
X0528471Y0224990D01*
X0528471Y0225501D02*
X0533077Y0225501D01*
X0533077Y0226012D02*
X0528471Y0226012D01*
X0528471Y0226523D02*
X0533077Y0226523D01*
X0535951Y0221413D02*
X0540557Y0221413D01*
X0535951Y0221413D02*
X0535951Y0226807D01*
X0540557Y0226807D01*
X0540557Y0221413D01*
X0540557Y0221924D02*
X0535951Y0221924D01*
X0535951Y0222435D02*
X0540557Y0222435D01*
X0540557Y0222946D02*
X0535951Y0222946D01*
X0535951Y0223457D02*
X0540557Y0223457D01*
X0540557Y0223968D02*
X0535951Y0223968D01*
X0535951Y0224479D02*
X0540557Y0224479D01*
X0540557Y0224990D02*
X0535951Y0224990D01*
X0535951Y0225501D02*
X0540557Y0225501D01*
X0540557Y0226012D02*
X0535951Y0226012D01*
X0535951Y0226523D02*
X0540557Y0226523D01*
X0392919Y0219523D02*
X0392919Y0214917D01*
X0387525Y0214917D01*
X0387525Y0219523D01*
X0392919Y0219523D01*
X0392919Y0215428D02*
X0387525Y0215428D01*
X0387525Y0215939D02*
X0392919Y0215939D01*
X0392919Y0216450D02*
X0387525Y0216450D01*
X0387525Y0216961D02*
X0392919Y0216961D01*
X0392919Y0217472D02*
X0387525Y0217472D01*
X0387525Y0217983D02*
X0392919Y0217983D01*
X0392919Y0218494D02*
X0387525Y0218494D01*
X0387525Y0219005D02*
X0392919Y0219005D01*
X0392919Y0219516D02*
X0387525Y0219516D01*
X0392919Y0212043D02*
X0392919Y0207437D01*
X0387525Y0207437D01*
X0387525Y0212043D01*
X0392919Y0212043D01*
X0392919Y0207948D02*
X0387525Y0207948D01*
X0387525Y0208459D02*
X0392919Y0208459D01*
X0392919Y0208970D02*
X0387525Y0208970D01*
X0387525Y0209481D02*
X0392919Y0209481D01*
X0392919Y0209992D02*
X0387525Y0209992D01*
X0387525Y0210503D02*
X0392919Y0210503D01*
X0392919Y0211014D02*
X0387525Y0211014D01*
X0387525Y0211525D02*
X0392919Y0211525D01*
X0392919Y0212036D02*
X0387525Y0212036D01*
X0386148Y0196610D02*
X0390754Y0196610D01*
X0386148Y0196610D02*
X0386148Y0202004D01*
X0390754Y0202004D01*
X0390754Y0196610D01*
X0390754Y0197121D02*
X0386148Y0197121D01*
X0386148Y0197632D02*
X0390754Y0197632D01*
X0390754Y0198143D02*
X0386148Y0198143D01*
X0386148Y0198654D02*
X0390754Y0198654D01*
X0390754Y0199165D02*
X0386148Y0199165D01*
X0386148Y0199676D02*
X0390754Y0199676D01*
X0390754Y0200187D02*
X0386148Y0200187D01*
X0386148Y0200698D02*
X0390754Y0200698D01*
X0390754Y0201209D02*
X0386148Y0201209D01*
X0386148Y0201720D02*
X0390754Y0201720D01*
X0383273Y0196610D02*
X0378667Y0196610D01*
X0378667Y0202004D01*
X0383273Y0202004D01*
X0383273Y0196610D01*
X0383273Y0197121D02*
X0378667Y0197121D01*
X0378667Y0197632D02*
X0383273Y0197632D01*
X0383273Y0198143D02*
X0378667Y0198143D01*
X0378667Y0198654D02*
X0383273Y0198654D01*
X0383273Y0199165D02*
X0378667Y0199165D01*
X0378667Y0199676D02*
X0383273Y0199676D01*
X0383273Y0200187D02*
X0378667Y0200187D01*
X0378667Y0200698D02*
X0383273Y0200698D01*
X0383273Y0201209D02*
X0378667Y0201209D01*
X0378667Y0201720D02*
X0383273Y0201720D01*
D24*
X0143389Y0178278D02*
X0143389Y0140072D01*
X0153676Y0140072D01*
X0159658Y0138706D01*
X0159658Y0138706D01*
X0165186Y0136044D01*
X0165186Y0136044D01*
X0169984Y0132218D01*
X0169984Y0132218D01*
X0173810Y0127421D01*
X0176472Y0121892D01*
X0177837Y0115910D01*
X0177837Y0066253D01*
X0688828Y0066253D01*
X0688828Y0115910D01*
X0690193Y0121892D01*
X0690193Y0121892D01*
X0692856Y0127421D01*
X0692856Y0127421D01*
X0696681Y0132218D01*
X0696681Y0132218D01*
X0696681Y0132218D01*
X0701479Y0136044D01*
X0701479Y0136044D01*
X0707007Y0138706D01*
X0707007Y0138706D01*
X0712989Y0140072D01*
X0723277Y0140072D01*
X0723277Y0414842D01*
X0712989Y0414842D01*
X0707007Y0416207D01*
X0707007Y0416207D01*
X0701479Y0418869D01*
X0701479Y0418869D01*
X0696681Y0422695D01*
X0696681Y0422695D01*
X0696681Y0422695D01*
X0692856Y0427493D01*
X0692856Y0427493D01*
X0690193Y0433021D01*
X0690193Y0433021D01*
X0688828Y0439003D01*
X0688828Y0488661D01*
X0438307Y0488661D01*
X0438307Y0486118D01*
X0431057Y0486118D01*
X0431057Y0486118D01*
X0431057Y0478469D01*
X0428374Y0478469D01*
X0428402Y0462651D01*
X0428536Y0462786D01*
X0431648Y0464075D01*
X0435017Y0464075D01*
X0438130Y0462786D01*
X0440512Y0460403D01*
X0441801Y0457291D01*
X0441801Y0453922D01*
X0440512Y0450809D01*
X0438130Y0448427D01*
X0435017Y0447138D01*
X0431648Y0447138D01*
X0428536Y0448427D01*
X0428426Y0448536D01*
X0428436Y0442970D01*
X0428765Y0442642D01*
X0429793Y0440159D01*
X0429793Y0437531D01*
X0431115Y0437531D01*
X0431175Y0437555D01*
X0432804Y0437531D01*
X0434433Y0437531D01*
X0434492Y0437507D01*
X0439057Y0437441D01*
X0439433Y0437816D01*
X0441992Y0439294D01*
X0444847Y0440059D01*
X0447803Y0440059D01*
X0450657Y0439294D01*
X0453217Y0437816D01*
X0455307Y0435727D01*
X0456784Y0433167D01*
X0457549Y0430312D01*
X0457549Y0427357D01*
X0457374Y0426705D01*
X0457765Y0426705D01*
X0468282Y0437222D01*
X0470774Y0438254D01*
X0469992Y0439036D01*
X0469385Y0438784D01*
X0468461Y0438537D01*
X0467512Y0438412D01*
X0467034Y0438412D01*
X0467034Y0446512D01*
X0467033Y0446512D01*
X0467033Y0446512D01*
X0459733Y0446512D01*
X0459733Y0447790D01*
X0459858Y0448739D01*
X0460106Y0449663D01*
X0460472Y0450547D01*
X0460951Y0451376D01*
X0461533Y0452135D01*
X0462210Y0452812D01*
X0462969Y0453395D01*
X0463798Y0453873D01*
X0464682Y0454239D01*
X0465606Y0454487D01*
X0466555Y0454612D01*
X0467033Y0454612D01*
X0467033Y0446512D01*
X0459733Y0446512D01*
X0459733Y0445233D01*
X0459858Y0444285D01*
X0460106Y0443360D01*
X0460472Y0442476D01*
X0460951Y0441647D01*
X0461533Y0440888D01*
X0462210Y0440212D01*
X0462969Y0439629D01*
X0463798Y0439151D01*
X0464682Y0438784D01*
X0465606Y0438537D01*
X0466555Y0438412D01*
X0467033Y0438412D01*
X0467033Y0446512D01*
X0467034Y0446512D01*
X0467034Y0454612D01*
X0467512Y0454612D01*
X0468461Y0454487D01*
X0469385Y0454239D01*
X0469992Y0453988D01*
X0471539Y0455535D01*
X0475104Y0457012D01*
X0478963Y0457012D01*
X0482033Y0455740D01*
X0485104Y0457012D01*
X0488963Y0457012D01*
X0492528Y0455535D01*
X0495257Y0452806D01*
X0496733Y0449241D01*
X0496733Y0445308D01*
X0497344Y0443832D01*
X0497344Y0432262D01*
X0496673Y0430642D01*
X0505009Y0430642D01*
X0511589Y0437222D01*
X0514713Y0438516D01*
X0516693Y0438516D01*
X0516173Y0439036D01*
X0515566Y0438784D01*
X0514642Y0438537D01*
X0513693Y0438412D01*
X0513215Y0438412D01*
X0513215Y0446512D01*
X0513214Y0446512D01*
X0513214Y0446512D01*
X0505915Y0446512D01*
X0505915Y0447790D01*
X0506039Y0448739D01*
X0506287Y0449663D01*
X0506653Y0450547D01*
X0507132Y0451376D01*
X0507714Y0452135D01*
X0508391Y0452812D01*
X0509150Y0453395D01*
X0509979Y0453873D01*
X0510863Y0454239D01*
X0511787Y0454487D01*
X0512736Y0454612D01*
X0513214Y0454612D01*
X0513214Y0446512D01*
X0505915Y0446512D01*
X0505915Y0445233D01*
X0506039Y0444285D01*
X0506287Y0443360D01*
X0506653Y0442476D01*
X0507132Y0441647D01*
X0507714Y0440888D01*
X0508391Y0440212D01*
X0509150Y0439629D01*
X0509979Y0439151D01*
X0510863Y0438784D01*
X0511787Y0438537D01*
X0512736Y0438412D01*
X0513214Y0438412D01*
X0513214Y0446512D01*
X0513215Y0446512D01*
X0513215Y0454612D01*
X0513693Y0454612D01*
X0514642Y0454487D01*
X0515566Y0454239D01*
X0516173Y0453988D01*
X0517720Y0455535D01*
X0521285Y0457012D01*
X0525144Y0457012D01*
X0528215Y0455740D01*
X0531285Y0457012D01*
X0535144Y0457012D01*
X0538215Y0455740D01*
X0541285Y0457012D01*
X0545144Y0457012D01*
X0548709Y0455535D01*
X0551438Y0452806D01*
X0552915Y0449241D01*
X0552915Y0443782D01*
X0552463Y0442691D01*
X0552463Y0424388D01*
X0551791Y0422768D01*
X0579812Y0422768D01*
X0582707Y0425663D01*
X0582707Y0436495D01*
X0582332Y0436869D01*
X0580262Y0436012D01*
X0576403Y0436012D01*
X0572838Y0437489D01*
X0571291Y0439036D01*
X0570684Y0438784D01*
X0569760Y0438537D01*
X0568811Y0438412D01*
X0568333Y0438412D01*
X0568333Y0446512D01*
X0568333Y0446512D01*
X0568333Y0454612D01*
X0568811Y0454612D01*
X0569760Y0454487D01*
X0570684Y0454239D01*
X0571291Y0453988D01*
X0572838Y0455535D01*
X0576403Y0457012D01*
X0580262Y0457012D01*
X0583333Y0455740D01*
X0586403Y0457012D01*
X0590262Y0457012D01*
X0593333Y0455740D01*
X0596403Y0457012D01*
X0600262Y0457012D01*
X0603827Y0455535D01*
X0606556Y0452806D01*
X0608033Y0449241D01*
X0608033Y0443782D01*
X0607581Y0442691D01*
X0607581Y0416514D01*
X0606287Y0413390D01*
X0599014Y0406117D01*
X0599959Y0405726D01*
X0606539Y0399146D01*
X0666426Y0399146D01*
X0669552Y0402272D01*
X0671943Y0404663D01*
X0674602Y0405764D01*
X0674531Y0406029D01*
X0674406Y0406978D01*
X0674406Y0407457D01*
X0682506Y0407457D01*
X0690606Y0407457D01*
X0690606Y0407935D01*
X0690481Y0408884D01*
X0690233Y0409808D01*
X0689982Y0410415D01*
X0691529Y0411962D01*
X0693006Y0415527D01*
X0693006Y0419386D01*
X0691529Y0422951D01*
X0688801Y0425680D01*
X0685235Y0427157D01*
X0679776Y0427157D01*
X0676211Y0425680D01*
X0673483Y0422951D01*
X0672006Y0419386D01*
X0672006Y0415527D01*
X0673483Y0411962D01*
X0675030Y0410415D01*
X0674778Y0409808D01*
X0674531Y0408884D01*
X0674406Y0407935D01*
X0674406Y0407457D01*
X0682506Y0407457D01*
X0682506Y0407457D01*
X0682506Y0407457D01*
X0690606Y0407457D01*
X0690606Y0406978D01*
X0690481Y0406029D01*
X0690233Y0405105D01*
X0689982Y0404498D01*
X0691529Y0402951D01*
X0693006Y0399386D01*
X0693006Y0395527D01*
X0691734Y0392457D01*
X0693006Y0389386D01*
X0693006Y0385527D01*
X0691529Y0381962D01*
X0689991Y0380424D01*
X0689885Y0379762D01*
X0689353Y0378896D01*
X0688964Y0377957D01*
X0688476Y0377469D01*
X0688115Y0376881D01*
X0687291Y0376284D01*
X0686573Y0375566D01*
X0686399Y0375494D01*
X0688801Y0374499D01*
X0691529Y0371770D01*
X0693006Y0368205D01*
X0693006Y0364346D01*
X0691529Y0360781D01*
X0689982Y0359234D01*
X0690233Y0358627D01*
X0690481Y0357703D01*
X0690606Y0356754D01*
X0690606Y0356276D01*
X0682506Y0356276D01*
X0682506Y0356276D01*
X0682506Y0356276D01*
X0674406Y0356276D01*
X0674406Y0356754D01*
X0674531Y0357703D01*
X0674778Y0358627D01*
X0675030Y0359234D01*
X0673483Y0360781D01*
X0672006Y0364346D01*
X0672006Y0368205D01*
X0673483Y0371770D01*
X0675984Y0374272D01*
X0606910Y0374272D01*
X0607581Y0372651D01*
X0607581Y0358733D01*
X0611539Y0354776D01*
X0674550Y0354776D01*
X0674531Y0354848D01*
X0674406Y0355797D01*
X0674406Y0356276D01*
X0682506Y0356276D01*
X0690606Y0356276D01*
X0690606Y0355797D01*
X0690481Y0354848D01*
X0690233Y0353924D01*
X0689982Y0353317D01*
X0691529Y0351770D01*
X0693006Y0348205D01*
X0693006Y0344346D01*
X0692351Y0342766D01*
X0693856Y0342143D01*
X0696247Y0339752D01*
X0697541Y0336628D01*
X0697541Y0333246D01*
X0696247Y0330122D01*
X0693856Y0327731D01*
X0690732Y0326437D01*
X0674320Y0326437D01*
X0678271Y0322486D01*
X0678271Y0318158D01*
X0667821Y0318158D01*
X0667821Y0318157D01*
X0667821Y0307707D01*
X0672149Y0307707D01*
X0678271Y0313829D01*
X0678271Y0318157D01*
X0667821Y0318157D01*
X0667821Y0318157D01*
X0667821Y0307707D01*
X0663492Y0307707D01*
X0657371Y0313829D01*
X0657371Y0318157D01*
X0667821Y0318157D01*
X0667821Y0318158D01*
X0657371Y0318158D01*
X0657371Y0322486D01*
X0661322Y0326437D01*
X0601918Y0326437D01*
X0598793Y0327731D01*
X0596402Y0330122D01*
X0587140Y0339385D01*
X0587140Y0337243D01*
X0585833Y0334088D01*
X0587140Y0330933D01*
X0587140Y0327243D01*
X0585833Y0324088D01*
X0587140Y0320933D01*
X0587140Y0317243D01*
X0585833Y0314088D01*
X0587140Y0310933D01*
X0587140Y0307243D01*
X0585833Y0304088D01*
X0587140Y0300933D01*
X0587140Y0297243D01*
X0585833Y0294088D01*
X0587140Y0290933D01*
X0587140Y0287243D01*
X0585833Y0284088D01*
X0587140Y0280933D01*
X0587140Y0277243D01*
X0585833Y0274088D01*
X0586672Y0272063D01*
X0588252Y0273643D01*
X0590811Y0275121D01*
X0593666Y0275886D01*
X0594347Y0275886D01*
X0617859Y0299398D01*
X0620250Y0301789D01*
X0623374Y0303083D01*
X0626043Y0303083D01*
X0626843Y0303883D01*
X0634547Y0303883D01*
X0635695Y0302735D01*
X0636843Y0303883D01*
X0638708Y0303883D01*
X0640579Y0304657D01*
X0661295Y0304657D01*
X0663420Y0306782D01*
X0672222Y0306782D01*
X0678446Y0300558D01*
X0678446Y0291756D01*
X0672222Y0285532D01*
X0663420Y0285532D01*
X0661295Y0287657D01*
X0646922Y0287657D01*
X0644547Y0285283D01*
X0636843Y0285283D01*
X0635695Y0286430D01*
X0634547Y0285283D01*
X0627786Y0285283D01*
X0606368Y0263865D01*
X0606368Y0263184D01*
X0605877Y0261350D01*
X0612582Y0261350D01*
X0615707Y0260056D01*
X0634098Y0241665D01*
X0672006Y0241665D01*
X0672006Y0245095D01*
X0673483Y0248660D01*
X0675030Y0250207D01*
X0674778Y0250814D01*
X0674531Y0251738D01*
X0674406Y0252687D01*
X0674406Y0253165D01*
X0682506Y0253165D01*
X0682506Y0253165D01*
X0690606Y0253165D01*
X0690606Y0252687D01*
X0690481Y0251738D01*
X0690233Y0250814D01*
X0689982Y0250207D01*
X0691529Y0248660D01*
X0693006Y0245095D01*
X0693006Y0241236D01*
X0691734Y0238165D01*
X0693006Y0235095D01*
X0693006Y0231236D01*
X0691734Y0228165D01*
X0693006Y0225095D01*
X0693006Y0221236D01*
X0692258Y0219432D01*
X0692890Y0218901D01*
X0693065Y0218564D01*
X0693334Y0218295D01*
X0693840Y0217074D01*
X0694450Y0215901D01*
X0694482Y0215522D01*
X0694628Y0215171D01*
X0694628Y0213849D01*
X0694742Y0212532D01*
X0694628Y0212170D01*
X0694628Y0211790D01*
X0694122Y0210568D01*
X0693724Y0209308D01*
X0693479Y0209017D01*
X0693334Y0208665D01*
X0692399Y0207731D01*
X0691549Y0206719D01*
X0691212Y0206543D01*
X0690943Y0206274D01*
X0689722Y0205768D01*
X0689524Y0205666D01*
X0688801Y0204942D01*
X0685235Y0203465D01*
X0679776Y0203465D01*
X0676211Y0204942D01*
X0676173Y0204980D01*
X0624949Y0204980D01*
X0621825Y0206274D01*
X0619434Y0208665D01*
X0598513Y0229587D01*
X0594995Y0229587D01*
X0635392Y0189190D01*
X0635392Y0189190D01*
X0637783Y0186799D01*
X0639077Y0183675D01*
X0639077Y0178673D01*
X0672268Y0178673D01*
X0672006Y0179307D01*
X0672006Y0183166D01*
X0673483Y0186731D01*
X0675030Y0188278D01*
X0674778Y0188885D01*
X0674531Y0189809D01*
X0674406Y0190758D01*
X0674406Y0191236D01*
X0682506Y0191236D01*
X0682506Y0191236D01*
X0690606Y0191236D01*
X0690606Y0190758D01*
X0690481Y0189809D01*
X0690233Y0188885D01*
X0689982Y0188278D01*
X0691529Y0186731D01*
X0693006Y0183166D01*
X0693006Y0179307D01*
X0691734Y0176236D01*
X0691977Y0175649D01*
X0692396Y0175261D01*
X0692466Y0175108D01*
X0692586Y0174988D01*
X0693170Y0173577D01*
X0693809Y0172189D01*
X0693815Y0172020D01*
X0693880Y0171864D01*
X0693880Y0170337D01*
X0693939Y0168810D01*
X0693880Y0168652D01*
X0693880Y0168482D01*
X0693295Y0167071D01*
X0692766Y0165639D01*
X0692651Y0165515D01*
X0692586Y0165358D01*
X0692241Y0165013D01*
X0693006Y0163166D01*
X0693006Y0159307D01*
X0691734Y0156236D01*
X0693006Y0153166D01*
X0693006Y0149307D01*
X0691734Y0146236D01*
X0693006Y0143166D01*
X0693006Y0139307D01*
X0691529Y0135742D01*
X0688801Y0133013D01*
X0685235Y0131536D01*
X0679776Y0131536D01*
X0676879Y0132736D01*
X0614516Y0132736D01*
X0611392Y0134030D01*
X0588922Y0156500D01*
X0587628Y0159624D01*
X0587628Y0160820D01*
X0585694Y0158886D01*
X0582786Y0157207D01*
X0579544Y0156338D01*
X0576186Y0156338D01*
X0572944Y0157207D01*
X0570036Y0158886D01*
X0567662Y0161259D01*
X0566354Y0163526D01*
X0566062Y0162819D01*
X0563342Y0160099D01*
X0559788Y0158628D01*
X0555942Y0158628D01*
X0552865Y0159902D01*
X0551476Y0159327D01*
X0557439Y0153363D01*
X0559830Y0150972D01*
X0561124Y0147848D01*
X0561124Y0125663D01*
X0564413Y0122374D01*
X0579512Y0122374D01*
X0582636Y0121080D01*
X0588782Y0114933D01*
X0591139Y0113957D01*
X0594210Y0115229D01*
X0598068Y0115229D01*
X0601634Y0113752D01*
X0603181Y0112205D01*
X0603787Y0112457D01*
X0604712Y0112704D01*
X0605660Y0112829D01*
X0606139Y0112829D01*
X0606139Y0104729D01*
X0606139Y0096629D01*
X0606617Y0096629D01*
X0607566Y0096754D01*
X0608491Y0097002D01*
X0609375Y0097368D01*
X0610203Y0097846D01*
X0610963Y0098429D01*
X0611639Y0099106D01*
X0612222Y0099865D01*
X0612700Y0100693D01*
X0613066Y0101578D01*
X0613314Y0102502D01*
X0613439Y0103451D01*
X0613439Y0104729D01*
X0606139Y0104729D01*
X0606139Y0104729D01*
X0606139Y0096629D01*
X0605660Y0096629D01*
X0604712Y0096754D01*
X0603787Y0097002D01*
X0603181Y0097253D01*
X0601634Y0095706D01*
X0598068Y0094229D01*
X0594210Y0094229D01*
X0591139Y0095501D01*
X0588068Y0094229D01*
X0584210Y0094229D01*
X0580644Y0095706D01*
X0577916Y0098435D01*
X0576439Y0102000D01*
X0576439Y0103235D01*
X0574300Y0105374D01*
X0569902Y0105374D01*
X0569902Y0104729D01*
X0562602Y0104729D01*
X0562602Y0096629D01*
X0563080Y0096629D01*
X0564029Y0096754D01*
X0564954Y0097002D01*
X0565838Y0097368D01*
X0566666Y0097846D01*
X0567426Y0098429D01*
X0568102Y0099106D01*
X0568685Y0099865D01*
X0569163Y0100693D01*
X0569529Y0101578D01*
X0569777Y0102502D01*
X0569902Y0103451D01*
X0569902Y0104729D01*
X0562602Y0104729D01*
X0562602Y0104729D01*
X0562602Y0104729D01*
X0562602Y0096629D01*
X0562123Y0096629D01*
X0561175Y0096754D01*
X0560250Y0097002D01*
X0559644Y0097253D01*
X0558097Y0095706D01*
X0554531Y0094229D01*
X0550673Y0094229D01*
X0550036Y0094493D01*
X0549791Y0093902D01*
X0547400Y0091511D01*
X0544275Y0090217D01*
X0540894Y0090217D01*
X0537770Y0091511D01*
X0535379Y0093902D01*
X0534085Y0097026D01*
X0534085Y0099103D01*
X0534077Y0099121D01*
X0534078Y0099162D01*
X0532902Y0102000D01*
X0532902Y0107459D01*
X0534085Y0110314D01*
X0534085Y0137715D01*
X0521796Y0150004D01*
X0520502Y0153128D01*
X0520502Y0158923D01*
X0519788Y0158628D01*
X0515942Y0158628D01*
X0512865Y0159902D01*
X0509788Y0158628D01*
X0505942Y0158628D01*
X0502865Y0159902D01*
X0499788Y0158628D01*
X0495942Y0158628D01*
X0492865Y0159902D01*
X0489788Y0158628D01*
X0485942Y0158628D01*
X0482388Y0160099D01*
X0479668Y0162819D01*
X0478196Y0166373D01*
X0478196Y0171803D01*
X0479047Y0173856D01*
X0477450Y0175453D01*
X0475966Y0175453D01*
X0476062Y0175357D01*
X0477533Y0171803D01*
X0477533Y0166373D01*
X0476062Y0162819D01*
X0473342Y0160099D01*
X0472784Y0159869D01*
X0493182Y0139471D01*
X0495573Y0137079D01*
X0496867Y0133955D01*
X0496867Y0117401D01*
X0500297Y0117401D01*
X0503862Y0115924D01*
X0505409Y0114377D01*
X0506016Y0114628D01*
X0506940Y0114876D01*
X0507889Y0115001D01*
X0508367Y0115001D01*
X0508367Y0106901D01*
X0508367Y0106901D01*
X0508367Y0115001D01*
X0508846Y0115001D01*
X0509795Y0114876D01*
X0510719Y0114628D01*
X0511603Y0114262D01*
X0512432Y0113784D01*
X0513191Y0113201D01*
X0513868Y0112524D01*
X0514450Y0111765D01*
X0514929Y0110936D01*
X0515295Y0110052D01*
X0515542Y0109128D01*
X0515667Y0108179D01*
X0515667Y0106901D01*
X0508367Y0106901D01*
X0508367Y0106901D01*
X0508367Y0098801D01*
X0507889Y0098801D01*
X0506940Y0098926D01*
X0506016Y0099173D01*
X0505409Y0099425D01*
X0503862Y0097878D01*
X0500297Y0096401D01*
X0496438Y0096401D01*
X0493367Y0097673D01*
X0490297Y0096401D01*
X0486438Y0096401D01*
X0483367Y0097673D01*
X0480297Y0096401D01*
X0476438Y0096401D01*
X0473367Y0097673D01*
X0470297Y0096401D01*
X0466438Y0096401D01*
X0462873Y0097878D01*
X0460144Y0100606D01*
X0458667Y0104171D01*
X0458667Y0109630D01*
X0459867Y0112527D01*
X0459867Y0127090D01*
X0431758Y0155200D01*
X0411165Y0134607D01*
X0411165Y0115629D01*
X0414594Y0115629D01*
X0418160Y0114152D01*
X0419707Y0112605D01*
X0420313Y0112857D01*
X0421238Y0113104D01*
X0422186Y0113229D01*
X0422665Y0113229D01*
X0422665Y0105129D01*
X0422665Y0097029D01*
X0423143Y0097029D01*
X0424092Y0097154D01*
X0424962Y0097387D01*
X0426153Y0094510D01*
X0428536Y0092128D01*
X0431648Y0090839D01*
X0435017Y0090839D01*
X0438130Y0092128D01*
X0440512Y0094510D01*
X0441801Y0097623D01*
X0441801Y0100992D01*
X0440512Y0104104D01*
X0438130Y0106486D01*
X0435017Y0107776D01*
X0431648Y0107776D01*
X0429881Y0107044D01*
X0429840Y0107356D01*
X0429592Y0108281D01*
X0429226Y0109165D01*
X0428748Y0109993D01*
X0428165Y0110753D01*
X0427489Y0111429D01*
X0426729Y0112012D01*
X0425901Y0112490D01*
X0425016Y0112857D01*
X0424092Y0113104D01*
X0423143Y0113229D01*
X0422665Y0113229D01*
X0422665Y0105129D01*
X0422665Y0105129D01*
X0422665Y0097029D01*
X0422186Y0097029D01*
X0421238Y0097154D01*
X0420313Y0097402D01*
X0419707Y0097653D01*
X0418160Y0096106D01*
X0414594Y0094629D01*
X0410736Y0094629D01*
X0407665Y0095901D01*
X0404594Y0094629D01*
X0400736Y0094629D01*
X0397170Y0096106D01*
X0394442Y0098835D01*
X0392965Y0102400D01*
X0392965Y0107859D01*
X0394165Y0110756D01*
X0394165Y0135098D01*
X0374696Y0135098D01*
X0369165Y0129567D01*
X0369165Y0116029D01*
X0372594Y0116029D01*
X0376160Y0114552D01*
X0377707Y0113005D01*
X0378313Y0113257D01*
X0379238Y0113504D01*
X0380186Y0113629D01*
X0380665Y0113629D01*
X0380665Y0105529D01*
X0380665Y0097429D01*
X0381143Y0097429D01*
X0382092Y0097554D01*
X0383016Y0097802D01*
X0383901Y0098168D01*
X0384729Y0098646D01*
X0385489Y0099229D01*
X0386165Y0099906D01*
X0386748Y0100665D01*
X0387226Y0101493D01*
X0387592Y0102378D01*
X0387840Y0103302D01*
X0387965Y0104251D01*
X0387965Y0105529D01*
X0380665Y0105529D01*
X0380665Y0105529D01*
X0380665Y0105529D01*
X0380665Y0097429D01*
X0380186Y0097429D01*
X0379238Y0097554D01*
X0378313Y0097802D01*
X0377707Y0098053D01*
X0376160Y0096506D01*
X0372594Y0095029D01*
X0368736Y0095029D01*
X0365665Y0096301D01*
X0362594Y0095029D01*
X0358736Y0095029D01*
X0355170Y0096506D01*
X0352442Y0099235D01*
X0350965Y0102800D01*
X0350965Y0108259D01*
X0352165Y0111156D01*
X0352165Y0134779D01*
X0353459Y0137903D01*
X0355850Y0140294D01*
X0357544Y0141988D01*
X0340386Y0141988D01*
X0327965Y0129567D01*
X0327965Y0116029D01*
X0331394Y0116029D01*
X0334960Y0114552D01*
X0336507Y0113005D01*
X0337113Y0113257D01*
X0338038Y0113504D01*
X0338986Y0113629D01*
X0339465Y0113629D01*
X0339465Y0105529D01*
X0339465Y0097429D01*
X0339943Y0097429D01*
X0340892Y0097554D01*
X0341816Y0097802D01*
X0342701Y0098168D01*
X0343529Y0098646D01*
X0344289Y0099229D01*
X0344965Y0099906D01*
X0345548Y0100665D01*
X0346026Y0101493D01*
X0346392Y0102378D01*
X0346640Y0103302D01*
X0346765Y0104251D01*
X0346765Y0105529D01*
X0339465Y0105529D01*
X0339465Y0105529D01*
X0339465Y0105529D01*
X0339465Y0097429D01*
X0338986Y0097429D01*
X0338038Y0097554D01*
X0337113Y0097802D01*
X0336507Y0098053D01*
X0334960Y0096506D01*
X0331394Y0095029D01*
X0327536Y0095029D01*
X0324465Y0096301D01*
X0321394Y0095029D01*
X0317536Y0095029D01*
X0313970Y0096506D01*
X0311242Y0099235D01*
X0309765Y0102800D01*
X0309765Y0106632D01*
X0309407Y0106274D01*
X0306283Y0104980D01*
X0302356Y0104980D01*
X0302240Y0104102D01*
X0301992Y0103178D01*
X0301626Y0102293D01*
X0301148Y0101465D01*
X0300565Y0100706D01*
X0299889Y0100029D01*
X0299129Y0099446D01*
X0298301Y0098968D01*
X0297416Y0098602D01*
X0296492Y0098354D01*
X0295543Y0098229D01*
X0295065Y0098229D01*
X0295065Y0104980D01*
X0295065Y0104980D01*
X0295065Y0098229D01*
X0294586Y0098229D01*
X0293638Y0098354D01*
X0292713Y0098602D01*
X0292107Y0098853D01*
X0290560Y0097306D01*
X0286994Y0095829D01*
X0283136Y0095829D01*
X0280065Y0097101D01*
X0276994Y0095829D01*
X0273136Y0095829D01*
X0269570Y0097306D01*
X0266842Y0100035D01*
X0265365Y0103600D01*
X0265365Y0109059D01*
X0266842Y0112624D01*
X0269570Y0115352D01*
X0273136Y0116829D01*
X0273480Y0116829D01*
X0277337Y0120686D01*
X0280461Y0121980D01*
X0301072Y0121980D01*
X0301407Y0122316D01*
X0301407Y0135250D01*
X0302702Y0138374D01*
X0305093Y0140765D01*
X0323830Y0159502D01*
X0322865Y0159902D01*
X0319788Y0158628D01*
X0315942Y0158628D01*
X0312865Y0159902D01*
X0309788Y0158628D01*
X0305942Y0158628D01*
X0302388Y0160099D01*
X0299668Y0162819D01*
X0298196Y0166373D01*
X0298196Y0171803D01*
X0299668Y0175357D01*
X0302388Y0178077D01*
X0305942Y0179549D01*
X0309788Y0179549D01*
X0312865Y0178274D01*
X0315942Y0179549D01*
X0319788Y0179549D01*
X0322865Y0178274D01*
X0325942Y0179549D01*
X0327531Y0179549D01*
X0322593Y0184487D01*
X0319850Y0183752D01*
X0316894Y0183752D01*
X0314040Y0184517D01*
X0311480Y0185995D01*
X0309390Y0188084D01*
X0307913Y0190644D01*
X0307148Y0193499D01*
X0307148Y0196454D01*
X0307913Y0199309D01*
X0308034Y0199519D01*
X0283766Y0175251D01*
X0280164Y0173759D01*
X0264813Y0173759D01*
X0265615Y0170767D01*
X0265615Y0167410D01*
X0264746Y0164167D01*
X0263067Y0161259D01*
X0260694Y0158886D01*
X0257786Y0157207D01*
X0254544Y0156338D01*
X0251186Y0156338D01*
X0247944Y0157207D01*
X0245036Y0158886D01*
X0242662Y0161259D01*
X0240984Y0164167D01*
X0240115Y0167410D01*
X0240115Y0170767D01*
X0240917Y0173759D01*
X0239604Y0173759D01*
X0238965Y0172216D01*
X0238408Y0171660D01*
X0238408Y0102107D01*
X0239911Y0100604D01*
X0239911Y0135921D01*
X0239274Y0138298D01*
X0239274Y0143015D01*
X0239985Y0145669D01*
X0241359Y0148049D01*
X0243302Y0149993D01*
X0245682Y0151367D01*
X0248337Y0152078D01*
X0251085Y0152078D01*
X0253739Y0151367D01*
X0256119Y0149993D01*
X0258062Y0148049D01*
X0259436Y0145669D01*
X0260148Y0143015D01*
X0260148Y0138298D01*
X0259511Y0135921D01*
X0259511Y0129678D01*
X0260404Y0129796D01*
X0261915Y0129796D01*
X0261915Y0121759D01*
X0261915Y0121759D01*
X0261915Y0113722D01*
X0260404Y0113722D01*
X0259511Y0113840D01*
X0259511Y0094564D01*
X0260652Y0091808D01*
X0260652Y0087909D01*
X0259944Y0086198D01*
X0259944Y0084562D01*
X0259844Y0084321D01*
X0259844Y0083782D01*
X0258367Y0080217D01*
X0255638Y0077489D01*
X0252073Y0076012D01*
X0248214Y0076012D01*
X0245144Y0077284D01*
X0242073Y0076012D01*
X0238214Y0076012D01*
X0234649Y0077489D01*
X0231920Y0080217D01*
X0231455Y0081341D01*
X0223057Y0089739D01*
X0220300Y0092496D01*
X0218808Y0096098D01*
X0218808Y0169349D01*
X0216892Y0167433D01*
X0216892Y0165939D01*
X0216912Y0165889D01*
X0216892Y0163992D01*
X0216892Y0162095D01*
X0216871Y0162045D01*
X0216861Y0161075D01*
X0216929Y0160912D01*
X0216929Y0155274D01*
X0215422Y0151635D01*
X0212637Y0148850D01*
X0208998Y0147343D01*
X0205059Y0147343D01*
X0201421Y0148850D01*
X0199940Y0150331D01*
X0199445Y0150126D01*
X0198495Y0149871D01*
X0197520Y0149743D01*
X0197029Y0149743D01*
X0197029Y0158093D01*
X0197029Y0158093D01*
X0197029Y0166443D01*
X0197292Y0166443D01*
X0197292Y0173441D01*
X0198784Y0177043D01*
X0201541Y0179800D01*
X0211837Y0190095D01*
X0215438Y0191587D01*
X0217694Y0191587D01*
X0218251Y0192933D01*
X0220218Y0194900D01*
X0222788Y0195965D01*
X0234428Y0195965D01*
X0236998Y0194900D01*
X0238539Y0193359D01*
X0274155Y0193359D01*
X0296088Y0215291D01*
X0298844Y0218048D01*
X0302446Y0219540D01*
X0371123Y0219540D01*
X0371836Y0219835D01*
X0375735Y0219835D01*
X0379337Y0218343D01*
X0381804Y0215876D01*
X0383170Y0217242D01*
X0383170Y0219866D01*
X0383277Y0220544D01*
X0383489Y0221196D01*
X0383800Y0221807D01*
X0384203Y0222361D01*
X0384688Y0222846D01*
X0385243Y0223249D01*
X0385853Y0223560D01*
X0386506Y0223772D01*
X0387183Y0223880D01*
X0390222Y0223880D01*
X0390222Y0218799D01*
X0390222Y0218799D01*
X0390222Y0223880D01*
X0393262Y0223880D01*
X0393939Y0223772D01*
X0394591Y0223560D01*
X0395202Y0223249D01*
X0395757Y0222846D01*
X0396242Y0222361D01*
X0396645Y0221807D01*
X0396956Y0221196D01*
X0397168Y0220544D01*
X0397275Y0219866D01*
X0397275Y0217242D01*
X0398647Y0215870D01*
X0399675Y0213387D01*
X0399675Y0206630D01*
X0399959Y0206513D01*
X0414019Y0192453D01*
X0464445Y0192453D01*
X0463311Y0193107D01*
X0460612Y0195807D01*
X0458703Y0199113D01*
X0457715Y0202801D01*
X0457715Y0206619D01*
X0458703Y0210307D01*
X0460612Y0213613D01*
X0463311Y0216313D01*
X0466618Y0218222D01*
X0470306Y0219210D01*
X0474124Y0219210D01*
X0477811Y0218222D01*
X0481118Y0216313D01*
X0483817Y0213613D01*
X0485726Y0210307D01*
X0486715Y0206619D01*
X0486715Y0202801D01*
X0485726Y0199113D01*
X0483817Y0195807D01*
X0481118Y0193107D01*
X0479984Y0192453D01*
X0482661Y0192453D01*
X0485785Y0191159D01*
X0488176Y0188768D01*
X0495066Y0181878D01*
X0496031Y0179549D01*
X0499788Y0179549D01*
X0502865Y0178274D01*
X0505942Y0179549D01*
X0509788Y0179549D01*
X0512865Y0178274D01*
X0515942Y0179549D01*
X0519788Y0179549D01*
X0522865Y0178274D01*
X0525942Y0179549D01*
X0529788Y0179549D01*
X0532865Y0178274D01*
X0535942Y0179549D01*
X0539788Y0179549D01*
X0542865Y0178274D01*
X0545942Y0179549D01*
X0549788Y0179549D01*
X0552865Y0178274D01*
X0555942Y0179549D01*
X0559788Y0179549D01*
X0563342Y0178077D01*
X0566062Y0175357D01*
X0566354Y0174651D01*
X0567662Y0176917D01*
X0570036Y0179291D01*
X0572944Y0180969D01*
X0576186Y0181838D01*
X0579544Y0181838D01*
X0582786Y0180969D01*
X0585694Y0179291D01*
X0587628Y0177356D01*
X0587628Y0184369D01*
X0584544Y0187453D01*
X0584389Y0186874D01*
X0584044Y0186041D01*
X0583593Y0185261D01*
X0583045Y0184546D01*
X0582408Y0183908D01*
X0581693Y0183360D01*
X0580912Y0182909D01*
X0580080Y0182564D01*
X0579209Y0182331D01*
X0578316Y0182213D01*
X0577865Y0182213D01*
X0577865Y0189088D01*
X0577865Y0189088D01*
X0577865Y0182213D01*
X0577414Y0182213D01*
X0576521Y0182331D01*
X0575650Y0182564D01*
X0574818Y0182909D01*
X0574808Y0182915D01*
X0573119Y0181225D01*
X0569710Y0179813D01*
X0566020Y0179813D01*
X0562611Y0181225D01*
X0560002Y0183834D01*
X0558590Y0187243D01*
X0558590Y0190933D01*
X0558979Y0191873D01*
X0557811Y0191198D01*
X0554124Y0190210D01*
X0550306Y0190210D01*
X0546618Y0191198D01*
X0543311Y0193107D01*
X0540612Y0195807D01*
X0538703Y0199113D01*
X0537715Y0202801D01*
X0537715Y0203170D01*
X0537075Y0202530D01*
X0534516Y0201052D01*
X0531661Y0200287D01*
X0528705Y0200287D01*
X0525851Y0201052D01*
X0523291Y0202530D01*
X0521201Y0204620D01*
X0519724Y0207179D01*
X0518959Y0210034D01*
X0518959Y0212990D01*
X0519724Y0215844D01*
X0521201Y0218404D01*
X0521683Y0218886D01*
X0521683Y0225210D01*
X0521715Y0225286D01*
X0521715Y0228151D01*
X0522161Y0229228D01*
X0521715Y0230306D01*
X0521715Y0238387D01*
X0522274Y0239737D01*
X0522274Y0247455D01*
X0522502Y0248006D01*
X0522502Y0250479D01*
X0519856Y0253125D01*
X0517465Y0255516D01*
X0516171Y0258640D01*
X0516171Y0262896D01*
X0515809Y0263770D01*
X0515809Y0271852D01*
X0516368Y0273201D01*
X0516368Y0277938D01*
X0516203Y0278337D01*
X0516203Y0286419D01*
X0516762Y0287768D01*
X0516762Y0296667D01*
X0517778Y0299119D01*
X0517778Y0300592D01*
X0518806Y0303075D01*
X0520707Y0304975D01*
X0523190Y0306004D01*
X0530484Y0306004D01*
X0530577Y0305965D01*
X0530670Y0306004D01*
X0537964Y0306004D01*
X0540447Y0304975D01*
X0542149Y0303273D01*
X0550495Y0303273D01*
X0553472Y0302040D01*
X0555751Y0299762D01*
X0558817Y0296695D01*
X0558590Y0297243D01*
X0558590Y0300933D01*
X0559897Y0304088D01*
X0558590Y0307243D01*
X0558590Y0310933D01*
X0559323Y0312702D01*
X0556056Y0309435D01*
X0548373Y0309435D01*
X0547215Y0310594D01*
X0546056Y0309435D01*
X0538373Y0309435D01*
X0537215Y0310594D01*
X0536056Y0309435D01*
X0528373Y0309435D01*
X0527215Y0310594D01*
X0526056Y0309435D01*
X0518373Y0309435D01*
X0517215Y0310594D01*
X0516056Y0309435D01*
X0508373Y0309435D01*
X0507215Y0310594D01*
X0506056Y0309435D01*
X0498373Y0309435D01*
X0495518Y0312291D01*
X0495062Y0311835D01*
X0492215Y0311835D01*
X0492215Y0318710D01*
X0492214Y0318710D01*
X0492214Y0311835D01*
X0489367Y0311835D01*
X0488912Y0312291D01*
X0486056Y0309435D01*
X0478373Y0309435D01*
X0477215Y0310594D01*
X0476056Y0309435D01*
X0468373Y0309435D01*
X0464683Y0313125D01*
X0458226Y0306668D01*
X0455102Y0305374D01*
X0443069Y0305374D01*
X0442587Y0304892D01*
X0441938Y0304518D01*
X0442868Y0303588D01*
X0443857Y0301199D01*
X0443857Y0296783D01*
X0466913Y0296783D01*
X0470037Y0295489D01*
X0472428Y0293098D01*
X0476365Y0289161D01*
X0477659Y0286037D01*
X0477659Y0272813D01*
X0476365Y0269689D01*
X0473974Y0267298D01*
X0468559Y0261882D01*
X0465483Y0260608D01*
X0465509Y0260509D01*
X0465633Y0259565D01*
X0465633Y0259088D01*
X0458365Y0259088D01*
X0458365Y0251820D01*
X0458841Y0251820D01*
X0459786Y0251944D01*
X0460706Y0252191D01*
X0461587Y0252555D01*
X0462412Y0253032D01*
X0463168Y0253612D01*
X0463841Y0254285D01*
X0464421Y0255041D01*
X0464898Y0255867D01*
X0465262Y0256747D01*
X0465509Y0257667D01*
X0465633Y0258612D01*
X0465633Y0259088D01*
X0458365Y0259088D01*
X0458365Y0259088D01*
X0458365Y0251820D01*
X0457889Y0251820D01*
X0456944Y0251944D01*
X0456024Y0252191D01*
X0455399Y0252449D01*
X0453842Y0250892D01*
X0450288Y0249420D01*
X0446442Y0249420D01*
X0442888Y0250892D01*
X0440168Y0253611D01*
X0439827Y0254435D01*
X0431459Y0246067D01*
X0431459Y0246067D01*
X0429068Y0243676D01*
X0425944Y0242382D01*
X0382823Y0242382D01*
X0379699Y0243676D01*
X0377308Y0246067D01*
X0369434Y0253941D01*
X0368140Y0257065D01*
X0368140Y0280910D01*
X0367658Y0281392D01*
X0366180Y0283951D01*
X0365415Y0286806D01*
X0365415Y0289761D01*
X0366180Y0292616D01*
X0367658Y0295175D01*
X0369748Y0297265D01*
X0372307Y0298743D01*
X0375162Y0299508D01*
X0378117Y0299508D01*
X0380972Y0298743D01*
X0383532Y0297265D01*
X0385622Y0295175D01*
X0386462Y0293720D01*
X0386462Y0301199D01*
X0387451Y0303588D01*
X0389280Y0305417D01*
X0391669Y0306406D01*
X0400855Y0306406D01*
X0403244Y0305417D01*
X0404654Y0304006D01*
X0405711Y0304006D01*
X0405711Y0302047D01*
X0405711Y0302047D01*
X0405711Y0302047D01*
X0405711Y0304006D01*
X0406767Y0304006D01*
X0408177Y0305417D01*
X0410567Y0306406D01*
X0419752Y0306406D01*
X0420081Y0306270D01*
X0420409Y0306406D01*
X0427289Y0306406D01*
X0426713Y0306982D01*
X0425235Y0309542D01*
X0424972Y0310524D01*
X0422406Y0310524D01*
X0419551Y0311289D01*
X0416992Y0312766D01*
X0414902Y0314856D01*
X0413424Y0317416D01*
X0412659Y0320270D01*
X0412659Y0323226D01*
X0413424Y0326080D01*
X0414902Y0328640D01*
X0416992Y0330730D01*
X0419551Y0332208D01*
X0422406Y0332972D01*
X0425362Y0332972D01*
X0428216Y0332208D01*
X0430776Y0330730D01*
X0431258Y0330248D01*
X0434745Y0330248D01*
X0433154Y0333005D01*
X0432281Y0336260D01*
X0432281Y0339630D01*
X0433154Y0342885D01*
X0434839Y0345804D01*
X0437222Y0348187D01*
X0437985Y0348628D01*
X0435942Y0348628D01*
X0432865Y0349902D01*
X0429788Y0348628D01*
X0425942Y0348628D01*
X0422865Y0349902D01*
X0419788Y0348628D01*
X0415942Y0348628D01*
X0412865Y0349902D01*
X0409788Y0348628D01*
X0405942Y0348628D01*
X0402865Y0349902D01*
X0399788Y0348628D01*
X0395942Y0348628D01*
X0392865Y0349902D01*
X0391270Y0349241D01*
X0393097Y0348187D01*
X0395480Y0345804D01*
X0397165Y0342885D01*
X0398037Y0339630D01*
X0398037Y0336260D01*
X0397165Y0333005D01*
X0395480Y0330086D01*
X0393097Y0327703D01*
X0390178Y0326018D01*
X0386923Y0325146D01*
X0383553Y0325146D01*
X0380298Y0326018D01*
X0377379Y0327703D01*
X0374996Y0330086D01*
X0373311Y0333005D01*
X0372439Y0336260D01*
X0372439Y0339630D01*
X0373311Y0342885D01*
X0374996Y0345804D01*
X0377379Y0348187D01*
X0378143Y0348628D01*
X0375942Y0348628D01*
X0372388Y0350099D01*
X0369865Y0352623D01*
X0367342Y0350099D01*
X0363788Y0348628D01*
X0359942Y0348628D01*
X0356865Y0349902D01*
X0353788Y0348628D01*
X0350365Y0348628D01*
X0350365Y0348019D01*
X0351666Y0345766D01*
X0352431Y0342911D01*
X0352431Y0339955D01*
X0351666Y0337101D01*
X0350188Y0334541D01*
X0348099Y0332451D01*
X0345539Y0330974D01*
X0342684Y0330209D01*
X0339729Y0330209D01*
X0336874Y0330974D01*
X0334315Y0332451D01*
X0332225Y0334541D01*
X0330747Y0337101D01*
X0329982Y0339955D01*
X0329982Y0342911D01*
X0330747Y0345766D01*
X0332225Y0348325D01*
X0332527Y0348628D01*
X0329942Y0348628D01*
X0326865Y0349902D01*
X0323788Y0348628D01*
X0319942Y0348628D01*
X0316865Y0349902D01*
X0313788Y0348628D01*
X0309942Y0348628D01*
X0306388Y0350099D01*
X0304831Y0351657D01*
X0304206Y0351399D01*
X0303286Y0351152D01*
X0302341Y0351028D01*
X0301865Y0351028D01*
X0301865Y0359088D01*
X0301865Y0359088D01*
X0301865Y0351028D01*
X0301389Y0351028D01*
X0300444Y0351152D01*
X0299524Y0351399D01*
X0298899Y0351657D01*
X0297342Y0350099D01*
X0293788Y0348628D01*
X0289942Y0348628D01*
X0286865Y0349902D01*
X0283788Y0348628D01*
X0279942Y0348628D01*
X0276865Y0349902D01*
X0273788Y0348628D01*
X0269942Y0348628D01*
X0266755Y0349947D01*
X0265694Y0348886D01*
X0262786Y0347207D01*
X0259544Y0346338D01*
X0256186Y0346338D01*
X0252944Y0347207D01*
X0250036Y0348886D01*
X0247662Y0351259D01*
X0245984Y0354167D01*
X0245115Y0357410D01*
X0245115Y0360767D01*
X0245984Y0364009D01*
X0247662Y0366917D01*
X0250036Y0369291D01*
X0252944Y0370969D01*
X0256186Y0371838D01*
X0259544Y0371838D01*
X0262786Y0370969D01*
X0265694Y0369291D01*
X0266755Y0368229D01*
X0269942Y0369549D01*
X0273788Y0369549D01*
X0276865Y0368274D01*
X0279942Y0369549D01*
X0283788Y0369549D01*
X0286865Y0368274D01*
X0289942Y0369549D01*
X0293788Y0369549D01*
X0297342Y0368077D01*
X0298899Y0366519D01*
X0299524Y0366778D01*
X0300444Y0367024D01*
X0301389Y0367149D01*
X0301865Y0367149D01*
X0301865Y0359088D01*
X0301865Y0359088D01*
X0301865Y0367149D01*
X0302341Y0367149D01*
X0303286Y0367024D01*
X0304206Y0366778D01*
X0304831Y0366519D01*
X0306388Y0368077D01*
X0309942Y0369549D01*
X0313788Y0369549D01*
X0316865Y0368274D01*
X0319942Y0369549D01*
X0323788Y0369549D01*
X0326865Y0368274D01*
X0329942Y0369549D01*
X0333788Y0369549D01*
X0336865Y0368274D01*
X0339942Y0369549D01*
X0343365Y0369549D01*
X0343365Y0373467D01*
X0344659Y0376591D01*
X0365497Y0397429D01*
X0367888Y0399820D01*
X0371012Y0401114D01*
X0380993Y0401114D01*
X0387825Y0407946D01*
X0387825Y0422190D01*
X0387507Y0422508D01*
X0386478Y0424991D01*
X0386478Y0432285D01*
X0386517Y0432378D01*
X0386478Y0432471D01*
X0386478Y0439765D01*
X0387431Y0442065D01*
X0387431Y0446359D01*
X0387427Y0446368D01*
X0387431Y0448048D01*
X0387431Y0449730D01*
X0387435Y0449739D01*
X0387501Y0479059D01*
X0384821Y0479059D01*
X0384821Y0486709D01*
X0384821Y0486709D01*
X0377571Y0486709D01*
X0377571Y0488661D01*
X0177837Y0488661D01*
X0177837Y0439003D01*
X0176472Y0433021D01*
X0176472Y0433021D01*
X0173810Y0427493D01*
X0173810Y0427493D01*
X0169984Y0422695D01*
X0169984Y0422695D01*
X0169984Y0422695D01*
X0165186Y0418869D01*
X0165186Y0418869D01*
X0159658Y0416207D01*
X0159658Y0416207D01*
X0153676Y0414842D01*
X0143389Y0414842D01*
X0143389Y0196320D01*
X0146915Y0196320D01*
X0146915Y0187299D01*
X0146915Y0187299D01*
X0146915Y0178278D01*
X0143389Y0178278D01*
X0146915Y0178278D02*
X0153674Y0178278D01*
X0154388Y0178391D01*
X0155076Y0178614D01*
X0155720Y0178943D01*
X0156305Y0179367D01*
X0156816Y0179879D01*
X0157241Y0180463D01*
X0157569Y0181107D01*
X0157792Y0181795D01*
X0157905Y0182509D01*
X0157905Y0187299D01*
X0146915Y0187299D01*
X0146915Y0178278D01*
X0146915Y0178821D02*
X0146915Y0178821D01*
X0146915Y0185419D02*
X0146915Y0185419D01*
X0146915Y0187299D02*
X0146915Y0187299D01*
X0146915Y0187299D01*
X0146915Y0196320D01*
X0153674Y0196320D01*
X0154388Y0196207D01*
X0155076Y0195984D01*
X0155720Y0195656D01*
X0156305Y0195231D01*
X0156816Y0194720D01*
X0157241Y0194135D01*
X0157569Y0193491D01*
X0157792Y0192804D01*
X0157905Y0192090D01*
X0157905Y0187299D01*
X0146915Y0187299D01*
X0146915Y0192018D02*
X0146915Y0192018D01*
X0143389Y0198616D02*
X0164466Y0198616D01*
X0164717Y0198720D02*
X0162148Y0197656D01*
X0160181Y0195689D01*
X0159116Y0193119D01*
X0159116Y0181479D01*
X0160181Y0178909D01*
X0162148Y0176942D01*
X0162706Y0176711D01*
X0162706Y0168147D01*
X0162517Y0167061D01*
X0162706Y0166217D01*
X0162706Y0165351D01*
X0163128Y0164333D01*
X0163369Y0163257D01*
X0163867Y0162549D01*
X0164198Y0161750D01*
X0164978Y0160970D01*
X0165612Y0160068D01*
X0166343Y0159605D01*
X0166955Y0158993D01*
X0167973Y0158571D01*
X0178537Y0151873D01*
X0178636Y0151635D01*
X0181421Y0148850D01*
X0185059Y0147343D01*
X0188998Y0147343D01*
X0192637Y0148850D01*
X0194117Y0150331D01*
X0194613Y0150126D01*
X0195562Y0149871D01*
X0196537Y0149743D01*
X0197029Y0149743D01*
X0197029Y0158093D01*
X0197029Y0158093D01*
X0197029Y0166443D01*
X0196537Y0166443D01*
X0195562Y0166315D01*
X0194613Y0166060D01*
X0194117Y0165855D01*
X0192637Y0167336D01*
X0188998Y0168843D01*
X0188375Y0168843D01*
X0182306Y0172691D01*
X0182306Y0176711D01*
X0182864Y0176942D01*
X0184831Y0178909D01*
X0185896Y0181479D01*
X0185896Y0186830D01*
X0188573Y0189507D01*
X0194337Y0189507D01*
X0197939Y0190999D01*
X0200696Y0193756D01*
X0202188Y0197358D01*
X0202188Y0201256D01*
X0200696Y0204858D01*
X0197939Y0207615D01*
X0194337Y0209107D01*
X0182564Y0209107D01*
X0178963Y0207615D01*
X0170068Y0198720D01*
X0164717Y0198720D01*
X0159116Y0192018D02*
X0157905Y0192018D01*
X0157905Y0185419D02*
X0159116Y0185419D01*
X0160269Y0178821D02*
X0155481Y0178821D01*
X0162706Y0172222D02*
X0143389Y0172222D01*
X0143389Y0165624D02*
X0162706Y0165624D01*
X0166922Y0159025D02*
X0143389Y0159025D01*
X0143389Y0152427D02*
X0177664Y0152427D01*
X0187029Y0158093D02*
X0172506Y0167301D01*
X0172506Y0187299D01*
X0184514Y0199307D01*
X0192388Y0199307D01*
X0198958Y0192018D02*
X0217872Y0192018D01*
X0221772Y0197840D02*
X0222416Y0197512D01*
X0223104Y0197289D01*
X0223818Y0197176D01*
X0228608Y0197176D01*
X0228608Y0208165D01*
X0228608Y0208165D01*
X0219587Y0208165D01*
X0219587Y0201406D01*
X0219700Y0200692D01*
X0219923Y0200005D01*
X0220252Y0199361D01*
X0220676Y0198776D01*
X0221188Y0198265D01*
X0221772Y0197840D01*
X0220836Y0198616D02*
X0202188Y0198616D01*
X0200339Y0205215D02*
X0219587Y0205215D01*
X0219587Y0208165D02*
X0228608Y0208165D01*
X0228608Y0208165D01*
X0228608Y0197176D01*
X0233399Y0197176D01*
X0234113Y0197289D01*
X0234800Y0197512D01*
X0235444Y0197840D01*
X0236029Y0198265D01*
X0236540Y0198776D01*
X0236965Y0199361D01*
X0237293Y0200005D01*
X0237516Y0200692D01*
X0237630Y0201406D01*
X0237630Y0208165D01*
X0228608Y0208165D01*
X0228608Y0208165D01*
X0228608Y0219155D01*
X0223818Y0219155D01*
X0223104Y0219042D01*
X0222416Y0218819D01*
X0221772Y0218491D01*
X0221188Y0218066D01*
X0220676Y0217555D01*
X0220252Y0216970D01*
X0219923Y0216326D01*
X0219700Y0215638D01*
X0219587Y0214924D01*
X0219587Y0208165D01*
X0219587Y0211813D02*
X0143389Y0211813D01*
X0143389Y0205215D02*
X0176562Y0205215D01*
X0185896Y0185419D02*
X0207160Y0185419D01*
X0200562Y0178821D02*
X0184743Y0178821D01*
X0183045Y0172222D02*
X0197292Y0172222D01*
X0197029Y0165624D02*
X0197029Y0165624D01*
X0207092Y0164044D02*
X0207092Y0171492D01*
X0217388Y0181787D01*
X0227821Y0181787D01*
X0228608Y0182575D01*
X0229593Y0183559D01*
X0278215Y0183559D01*
X0304396Y0209740D01*
X0373490Y0209740D01*
X0373785Y0210035D01*
X0380970Y0202850D01*
X0380970Y0199307D01*
X0380970Y0173323D01*
X0378608Y0170961D01*
X0377821Y0170173D02*
X0377821Y0169132D01*
X0377865Y0169088D01*
X0367821Y0169088D02*
X0360596Y0169088D01*
X0357865Y0169088D01*
X0357865Y0169088D01*
X0367821Y0169088D01*
X0367821Y0169088D01*
X0367865Y0172269D02*
X0367865Y0177149D01*
X0367865Y0172269D01*
X0367865Y0172269D01*
X0367865Y0177149D02*
X0367389Y0177149D01*
X0366444Y0177024D01*
X0365524Y0176778D01*
X0364643Y0176413D01*
X0363818Y0175937D01*
X0363062Y0175357D01*
X0362865Y0175160D01*
X0362668Y0175357D01*
X0361912Y0175937D01*
X0361087Y0176413D01*
X0360206Y0176778D01*
X0359286Y0177024D01*
X0358341Y0177149D01*
X0357865Y0177149D01*
X0357865Y0169088D01*
X0357865Y0169088D01*
X0357865Y0177149D01*
X0357389Y0177149D01*
X0356444Y0177024D01*
X0355524Y0176778D01*
X0354899Y0176519D01*
X0353342Y0178077D01*
X0349788Y0179549D01*
X0347865Y0179549D01*
X0347865Y0185347D01*
X0346343Y0189022D01*
X0335424Y0199940D01*
X0370021Y0199940D01*
X0371170Y0198791D01*
X0371170Y0177665D01*
X0370261Y0176755D01*
X0370206Y0176778D01*
X0369286Y0177024D01*
X0368341Y0177149D01*
X0367865Y0177149D01*
X0371170Y0178821D02*
X0351546Y0178821D01*
X0347835Y0185419D02*
X0371170Y0185419D01*
X0371170Y0192018D02*
X0343347Y0192018D01*
X0336748Y0198616D02*
X0371170Y0198616D01*
X0379172Y0218412D02*
X0383170Y0218412D01*
X0397275Y0218412D02*
X0467326Y0218412D01*
X0459572Y0211813D02*
X0399675Y0211813D01*
X0401257Y0205215D02*
X0457715Y0205215D01*
X0458990Y0198616D02*
X0407855Y0198616D01*
X0357865Y0172222D02*
X0357865Y0172222D01*
X0324184Y0178821D02*
X0321546Y0178821D01*
X0314184Y0178821D02*
X0311546Y0178821D01*
X0312477Y0185419D02*
X0293934Y0185419D01*
X0287335Y0178821D02*
X0304184Y0178821D01*
X0298370Y0172222D02*
X0265225Y0172222D01*
X0265136Y0165624D02*
X0298507Y0165624D01*
X0304982Y0159025D02*
X0260833Y0159025D01*
X0269252Y0148338D02*
X0268416Y0147696D01*
X0267671Y0146951D01*
X0267030Y0146116D01*
X0266503Y0145203D01*
X0266100Y0144230D01*
X0265827Y0143212D01*
X0265689Y0142168D01*
X0265689Y0140657D01*
X0273726Y0140657D01*
X0273726Y0140657D01*
X0273726Y0149678D01*
X0273200Y0149678D01*
X0272155Y0149540D01*
X0271137Y0149268D01*
X0270164Y0148865D01*
X0269252Y0148338D01*
X0266864Y0145828D02*
X0259345Y0145828D01*
X0260148Y0139230D02*
X0265689Y0139230D01*
X0265689Y0139146D02*
X0265827Y0138101D01*
X0266100Y0137083D01*
X0266503Y0136110D01*
X0267030Y0135198D01*
X0267671Y0134362D01*
X0268416Y0133617D01*
X0269252Y0132976D01*
X0270164Y0132449D01*
X0271137Y0132046D01*
X0272155Y0131773D01*
X0273200Y0131635D01*
X0273726Y0131635D01*
X0273726Y0140657D01*
X0273726Y0140657D01*
X0265689Y0140657D01*
X0265689Y0139146D01*
X0269848Y0132631D02*
X0259511Y0132631D01*
X0261915Y0129796D02*
X0261915Y0121759D01*
X0261915Y0121759D01*
X0261915Y0113722D01*
X0263426Y0113722D01*
X0264471Y0113860D01*
X0265489Y0114132D01*
X0266462Y0114535D01*
X0267374Y0115062D01*
X0268210Y0115704D01*
X0268955Y0116449D01*
X0269596Y0117284D01*
X0270123Y0118197D01*
X0270526Y0119170D01*
X0270799Y0120188D01*
X0270937Y0121232D01*
X0270937Y0121759D01*
X0270937Y0122286D01*
X0270799Y0123330D01*
X0270526Y0124348D01*
X0270123Y0125321D01*
X0269596Y0126234D01*
X0268955Y0127070D01*
X0268210Y0127815D01*
X0267374Y0128456D01*
X0266462Y0128983D01*
X0265489Y0129386D01*
X0264471Y0129659D01*
X0263426Y0129796D01*
X0261915Y0129796D01*
X0261915Y0126033D02*
X0261915Y0126033D01*
X0261915Y0121759D02*
X0270937Y0121759D01*
X0261915Y0121759D01*
X0261915Y0121759D01*
X0261915Y0119434D02*
X0261915Y0119434D01*
X0259511Y0112836D02*
X0267054Y0112836D01*
X0265365Y0106237D02*
X0259511Y0106237D01*
X0259511Y0099639D02*
X0267238Y0099639D01*
X0260142Y0093040D02*
X0427623Y0093040D01*
X0422665Y0099639D02*
X0422665Y0099639D01*
X0422665Y0105129D02*
X0422665Y0105129D01*
X0422665Y0106237D02*
X0422665Y0106237D01*
X0422665Y0112836D02*
X0422665Y0112836D01*
X0425067Y0112836D02*
X0459867Y0112836D01*
X0459867Y0119434D02*
X0411165Y0119434D01*
X0411165Y0126033D02*
X0459867Y0126033D01*
X0454326Y0132631D02*
X0411165Y0132631D01*
X0415788Y0139230D02*
X0447728Y0139230D01*
X0441129Y0145828D02*
X0422386Y0145828D01*
X0428985Y0152427D02*
X0434531Y0152427D01*
X0473628Y0159025D02*
X0484982Y0159025D01*
X0490748Y0159025D02*
X0494982Y0159025D01*
X0500748Y0159025D02*
X0504982Y0159025D01*
X0510748Y0159025D02*
X0514982Y0159025D01*
X0520793Y0152427D02*
X0480226Y0152427D01*
X0486825Y0145828D02*
X0525972Y0145828D01*
X0532570Y0139230D02*
X0493423Y0139230D01*
X0496867Y0132631D02*
X0534085Y0132631D01*
X0534085Y0126033D02*
X0496867Y0126033D01*
X0496867Y0119434D02*
X0534085Y0119434D01*
X0534085Y0112836D02*
X0513556Y0112836D01*
X0508367Y0112836D02*
X0508367Y0112836D01*
X0508367Y0106901D02*
X0508367Y0106901D01*
X0508367Y0098801D01*
X0508846Y0098801D01*
X0509795Y0098926D01*
X0510719Y0099173D01*
X0511603Y0099540D01*
X0512432Y0100018D01*
X0513191Y0100601D01*
X0513868Y0101277D01*
X0514450Y0102036D01*
X0514929Y0102865D01*
X0515295Y0103749D01*
X0515542Y0104674D01*
X0515667Y0105622D01*
X0515667Y0106901D01*
X0508367Y0106901D01*
X0508367Y0106237D02*
X0508367Y0106237D01*
X0508367Y0099639D02*
X0508367Y0099639D01*
X0511774Y0099639D02*
X0533880Y0099639D01*
X0532902Y0106237D02*
X0515667Y0106237D01*
X0536240Y0093040D02*
X0439042Y0093040D01*
X0441801Y0099639D02*
X0461112Y0099639D01*
X0458667Y0106237D02*
X0438379Y0106237D01*
X0420263Y0112836D02*
X0419476Y0112836D01*
X0394165Y0112836D02*
X0383995Y0112836D01*
X0383901Y0112890D02*
X0383016Y0113257D01*
X0382092Y0113504D01*
X0381143Y0113629D01*
X0380665Y0113629D01*
X0380665Y0105529D01*
X0387965Y0105529D01*
X0387965Y0106808D01*
X0387840Y0107756D01*
X0387592Y0108681D01*
X0387226Y0109565D01*
X0386748Y0110393D01*
X0386165Y0111153D01*
X0385489Y0111829D01*
X0384729Y0112412D01*
X0383901Y0112890D01*
X0380665Y0112836D02*
X0380665Y0112836D01*
X0380665Y0106237D02*
X0380665Y0106237D01*
X0380665Y0105529D02*
X0380665Y0105529D01*
X0380665Y0099639D02*
X0380665Y0099639D01*
X0385898Y0099639D02*
X0394109Y0099639D01*
X0392965Y0106237D02*
X0387965Y0106237D01*
X0394165Y0119434D02*
X0369165Y0119434D01*
X0369165Y0126033D02*
X0394165Y0126033D01*
X0394165Y0132631D02*
X0372229Y0132631D01*
X0354786Y0139230D02*
X0337627Y0139230D01*
X0331029Y0132631D02*
X0352165Y0132631D01*
X0352165Y0126033D02*
X0327965Y0126033D01*
X0327965Y0119434D02*
X0352165Y0119434D01*
X0352165Y0112836D02*
X0342795Y0112836D01*
X0342701Y0112890D02*
X0343529Y0112412D01*
X0344289Y0111829D01*
X0344965Y0111153D01*
X0345548Y0110393D01*
X0346026Y0109565D01*
X0346392Y0108681D01*
X0346640Y0107756D01*
X0346765Y0106808D01*
X0346765Y0105529D01*
X0339465Y0105529D01*
X0339465Y0105529D01*
X0339465Y0113629D01*
X0339943Y0113629D01*
X0340892Y0113504D01*
X0341816Y0113257D01*
X0342701Y0112890D01*
X0339465Y0112836D02*
X0339465Y0112836D01*
X0339465Y0106237D02*
X0339465Y0106237D01*
X0339465Y0099639D02*
X0339465Y0099639D01*
X0344698Y0099639D02*
X0352274Y0099639D01*
X0350965Y0106237D02*
X0346765Y0106237D01*
X0311074Y0099639D02*
X0299380Y0099639D01*
X0295065Y0099639D02*
X0295065Y0099639D01*
X0309317Y0106237D02*
X0309765Y0106237D01*
X0301407Y0126033D02*
X0269713Y0126033D01*
X0270597Y0119434D02*
X0276085Y0119434D01*
X0274253Y0131635D02*
X0275298Y0131773D01*
X0276315Y0132046D01*
X0277289Y0132449D01*
X0278201Y0132976D01*
X0279037Y0133617D01*
X0279782Y0134362D01*
X0280423Y0135198D01*
X0280950Y0136110D01*
X0281353Y0137083D01*
X0281626Y0138101D01*
X0281763Y0139146D01*
X0281763Y0140657D01*
X0281763Y0142168D01*
X0281626Y0143212D01*
X0281353Y0144230D01*
X0280950Y0145203D01*
X0280423Y0146116D01*
X0279782Y0146951D01*
X0279037Y0147696D01*
X0278201Y0148338D01*
X0277289Y0148865D01*
X0276315Y0149268D01*
X0275298Y0149540D01*
X0274253Y0149678D01*
X0273726Y0149678D01*
X0273726Y0140657D01*
X0273726Y0140657D01*
X0273727Y0140657D02*
X0281763Y0140657D01*
X0273727Y0140657D01*
X0273727Y0140657D01*
X0273726Y0140657D02*
X0273726Y0131635D01*
X0274253Y0131635D01*
X0273726Y0132631D02*
X0273726Y0132631D01*
X0277604Y0132631D02*
X0301407Y0132631D01*
X0303557Y0139230D02*
X0281763Y0139230D01*
X0280589Y0145828D02*
X0310156Y0145828D01*
X0316754Y0152427D02*
X0238408Y0152427D01*
X0238408Y0159025D02*
X0244897Y0159025D01*
X0240593Y0165624D02*
X0238408Y0165624D01*
X0238967Y0172222D02*
X0240505Y0172222D01*
X0228608Y0182575D02*
X0228608Y0098047D01*
X0240144Y0086512D01*
X0250144Y0086512D02*
X0250144Y0089150D01*
X0250852Y0089858D01*
X0249711Y0091000D01*
X0249711Y0140657D01*
X0239274Y0139230D02*
X0238408Y0139230D01*
X0238408Y0145828D02*
X0240077Y0145828D01*
X0239911Y0132631D02*
X0238408Y0132631D01*
X0238408Y0126033D02*
X0239911Y0126033D01*
X0239911Y0119434D02*
X0238408Y0119434D01*
X0238408Y0112836D02*
X0239911Y0112836D01*
X0239911Y0106237D02*
X0238408Y0106237D01*
X0218808Y0106237D02*
X0207915Y0106237D01*
X0207431Y0107075D02*
X0205011Y0109495D01*
X0202047Y0111207D01*
X0198740Y0112093D01*
X0195317Y0112093D01*
X0192011Y0111207D01*
X0189047Y0109495D01*
X0186626Y0107075D01*
X0184915Y0104111D01*
X0184029Y0100804D01*
X0184029Y0097381D01*
X0184915Y0094075D01*
X0186626Y0091111D01*
X0189047Y0088690D01*
X0192011Y0086979D01*
X0195317Y0086093D01*
X0198740Y0086093D01*
X0202047Y0086979D01*
X0205011Y0088690D01*
X0207431Y0091111D01*
X0209143Y0094075D01*
X0210029Y0097381D01*
X0210029Y0100804D01*
X0209143Y0104111D01*
X0207431Y0107075D01*
X0210029Y0099639D02*
X0218808Y0099639D01*
X0220075Y0093040D02*
X0208545Y0093040D01*
X0200041Y0086442D02*
X0226355Y0086442D01*
X0232295Y0079843D02*
X0177837Y0079843D01*
X0177837Y0086442D02*
X0194016Y0086442D01*
X0185512Y0093040D02*
X0177837Y0093040D01*
X0177837Y0099639D02*
X0184029Y0099639D01*
X0186142Y0106237D02*
X0177837Y0106237D01*
X0177837Y0112836D02*
X0218808Y0112836D01*
X0218808Y0119434D02*
X0177033Y0119434D01*
X0174478Y0126033D02*
X0218808Y0126033D01*
X0218808Y0132631D02*
X0169466Y0132631D01*
X0157365Y0139230D02*
X0218808Y0139230D01*
X0218808Y0145828D02*
X0143389Y0145828D01*
X0197029Y0152427D02*
X0197029Y0152427D01*
X0197029Y0159025D02*
X0197029Y0159025D01*
X0207029Y0158093D02*
X0207092Y0164044D01*
X0216910Y0165624D02*
X0218808Y0165624D01*
X0218808Y0159025D02*
X0216929Y0159025D01*
X0215749Y0152427D02*
X0218808Y0152427D01*
X0273726Y0145828D02*
X0273726Y0145828D01*
X0273726Y0139230D02*
X0273726Y0139230D01*
X0310748Y0159025D02*
X0314982Y0159025D01*
X0320748Y0159025D02*
X0323353Y0159025D01*
X0307544Y0192018D02*
X0300533Y0192018D01*
X0307131Y0198616D02*
X0307727Y0198616D01*
X0292609Y0211813D02*
X0237630Y0211813D01*
X0237630Y0214924D02*
X0237630Y0208165D01*
X0228608Y0208165D01*
X0228608Y0208165D01*
X0228608Y0219155D01*
X0233399Y0219155D01*
X0234113Y0219042D01*
X0234800Y0218819D01*
X0235444Y0218491D01*
X0236029Y0218066D01*
X0236540Y0217555D01*
X0236965Y0216970D01*
X0237293Y0216326D01*
X0237516Y0215638D01*
X0237630Y0214924D01*
X0235553Y0218412D02*
X0263631Y0218412D01*
X0264294Y0217749D02*
X0271978Y0217749D01*
X0277411Y0223182D01*
X0277411Y0230865D01*
X0274555Y0233721D01*
X0275011Y0234176D01*
X0275011Y0237024D01*
X0275011Y0239871D01*
X0274555Y0240327D01*
X0277411Y0243182D01*
X0277411Y0250865D01*
X0276252Y0252024D01*
X0277411Y0253182D01*
X0277411Y0260865D01*
X0276252Y0262024D01*
X0277411Y0263182D01*
X0277411Y0270865D01*
X0276252Y0272024D01*
X0277411Y0273182D01*
X0277411Y0280865D01*
X0276252Y0282024D01*
X0277411Y0283182D01*
X0277411Y0290865D01*
X0276252Y0292024D01*
X0277411Y0293182D01*
X0277411Y0300865D01*
X0276252Y0302024D01*
X0277411Y0303182D01*
X0277411Y0310865D01*
X0271978Y0316298D01*
X0264294Y0316298D01*
X0258861Y0310865D01*
X0258861Y0303182D01*
X0260019Y0302024D01*
X0258861Y0300865D01*
X0258861Y0293182D01*
X0260019Y0292024D01*
X0258861Y0290865D01*
X0258861Y0283182D01*
X0260019Y0282024D01*
X0258861Y0280865D01*
X0258861Y0273182D01*
X0260019Y0272024D01*
X0258861Y0270865D01*
X0258861Y0263182D01*
X0260019Y0262024D01*
X0258861Y0260865D01*
X0258861Y0253182D01*
X0260019Y0252024D01*
X0258861Y0250865D01*
X0258861Y0243182D01*
X0261716Y0240327D01*
X0261261Y0239871D01*
X0261261Y0237024D01*
X0268136Y0237024D01*
X0275011Y0237024D01*
X0268136Y0237024D01*
X0268136Y0237024D01*
X0268136Y0237024D01*
X0261261Y0237024D01*
X0261261Y0234176D01*
X0261716Y0233721D01*
X0258861Y0230865D01*
X0258861Y0223182D01*
X0264294Y0217749D01*
X0272641Y0218412D02*
X0299722Y0218412D01*
X0286011Y0205215D02*
X0237630Y0205215D01*
X0236380Y0198616D02*
X0279412Y0198616D01*
X0277411Y0225010D02*
X0521683Y0225010D01*
X0521715Y0231609D02*
X0276667Y0231609D01*
X0275011Y0238207D02*
X0521715Y0238207D01*
X0522274Y0244806D02*
X0430198Y0244806D01*
X0436796Y0251404D02*
X0442375Y0251404D01*
X0454354Y0251404D02*
X0521577Y0251404D01*
X0516435Y0258003D02*
X0465553Y0258003D01*
X0458365Y0258003D02*
X0458365Y0258003D01*
X0458365Y0259088D02*
X0458365Y0259088D01*
X0471278Y0264601D02*
X0515809Y0264601D01*
X0515809Y0271200D02*
X0476991Y0271200D01*
X0477659Y0277798D02*
X0516368Y0277798D01*
X0516203Y0284397D02*
X0477659Y0284397D01*
X0474531Y0290995D02*
X0516762Y0290995D01*
X0517146Y0297594D02*
X0443857Y0297594D01*
X0442263Y0304192D02*
X0519924Y0304192D01*
X0541230Y0304192D02*
X0559854Y0304192D01*
X0558590Y0297594D02*
X0557918Y0297594D01*
X0557412Y0310791D02*
X0558590Y0310791D01*
X0585876Y0304192D02*
X0639456Y0304192D01*
X0660409Y0310791D02*
X0587140Y0310791D01*
X0587140Y0317389D02*
X0657371Y0317389D01*
X0658873Y0323988D02*
X0585874Y0323988D01*
X0587140Y0330586D02*
X0595938Y0330586D01*
X0589339Y0337185D02*
X0587116Y0337185D01*
X0609334Y0356981D02*
X0674436Y0356981D01*
X0672324Y0363579D02*
X0607581Y0363579D01*
X0607581Y0370178D02*
X0672823Y0370178D01*
X0687970Y0376776D02*
X0723277Y0376776D01*
X0723277Y0370178D02*
X0692189Y0370178D01*
X0692688Y0363579D02*
X0723277Y0363579D01*
X0723277Y0356981D02*
X0690576Y0356981D01*
X0692104Y0350382D02*
X0723277Y0350382D01*
X0723277Y0343783D02*
X0692773Y0343783D01*
X0697311Y0337185D02*
X0723277Y0337185D01*
X0723277Y0330586D02*
X0696440Y0330586D01*
X0678271Y0317389D02*
X0723277Y0317389D01*
X0723277Y0310791D02*
X0675233Y0310791D01*
X0674812Y0304192D02*
X0691077Y0304192D01*
X0693492Y0306607D02*
X0687371Y0300486D01*
X0687371Y0296158D01*
X0697821Y0296158D01*
X0697821Y0296158D01*
X0697821Y0306607D01*
X0702149Y0306607D01*
X0708271Y0300486D01*
X0708271Y0296158D01*
X0697821Y0296158D01*
X0697821Y0306607D01*
X0693492Y0306607D01*
X0697821Y0304192D02*
X0697821Y0304192D01*
X0697821Y0297594D02*
X0697821Y0297594D01*
X0697821Y0296158D02*
X0697821Y0296157D01*
X0697821Y0285707D01*
X0702149Y0285707D01*
X0708271Y0291829D01*
X0708271Y0296157D01*
X0697821Y0296157D01*
X0697821Y0296157D01*
X0697821Y0285707D01*
X0693492Y0285707D01*
X0687371Y0291829D01*
X0687371Y0296157D01*
X0697821Y0296157D01*
X0697821Y0296158D01*
X0697821Y0290995D02*
X0697821Y0290995D01*
X0707437Y0290995D02*
X0723277Y0290995D01*
X0723277Y0284397D02*
X0672360Y0284397D01*
X0672149Y0284607D02*
X0667821Y0284607D01*
X0667821Y0274158D01*
X0667821Y0274158D01*
X0667821Y0284607D01*
X0663492Y0284607D01*
X0657371Y0278486D01*
X0657371Y0274158D01*
X0667821Y0274158D01*
X0678271Y0274158D01*
X0678271Y0278486D01*
X0672149Y0284607D01*
X0667821Y0284397D02*
X0667821Y0284397D01*
X0663282Y0284397D02*
X0626900Y0284397D01*
X0620301Y0277798D02*
X0657371Y0277798D01*
X0657371Y0274157D02*
X0657371Y0269829D01*
X0663492Y0263707D01*
X0667821Y0263707D01*
X0672149Y0263707D01*
X0678271Y0269829D01*
X0678271Y0274157D01*
X0667821Y0274157D01*
X0667821Y0263707D01*
X0667821Y0274157D01*
X0667821Y0274157D01*
X0667821Y0274158D01*
X0667821Y0274157D01*
X0657371Y0274157D01*
X0657371Y0271200D02*
X0613703Y0271200D01*
X0607104Y0264601D02*
X0662598Y0264601D01*
X0667821Y0264601D02*
X0667821Y0264601D01*
X0673043Y0264601D02*
X0723277Y0264601D01*
X0723277Y0258003D02*
X0688792Y0258003D01*
X0688806Y0257989D02*
X0688129Y0258666D01*
X0687370Y0259248D01*
X0686542Y0259727D01*
X0685657Y0260093D01*
X0684733Y0260340D01*
X0683784Y0260465D01*
X0682506Y0260465D01*
X0682506Y0253165D01*
X0682506Y0253165D01*
X0690606Y0253165D01*
X0690606Y0253644D01*
X0690481Y0254593D01*
X0690233Y0255517D01*
X0689867Y0256401D01*
X0689389Y0257230D01*
X0688806Y0257989D01*
X0682506Y0258003D02*
X0682506Y0258003D01*
X0682506Y0260465D02*
X0681227Y0260465D01*
X0680279Y0260340D01*
X0679354Y0260093D01*
X0678470Y0259727D01*
X0677642Y0259248D01*
X0676882Y0258666D01*
X0676206Y0257989D01*
X0675623Y0257230D01*
X0675145Y0256401D01*
X0674778Y0255517D01*
X0674531Y0254593D01*
X0674406Y0253644D01*
X0674406Y0253165D01*
X0682506Y0253165D01*
X0682506Y0253165D01*
X0682506Y0260465D01*
X0676220Y0258003D02*
X0617760Y0258003D01*
X0624359Y0251404D02*
X0674620Y0251404D01*
X0672006Y0244806D02*
X0630957Y0244806D01*
X0609687Y0218412D02*
X0606170Y0218412D01*
X0603089Y0225010D02*
X0599572Y0225010D01*
X0612769Y0211813D02*
X0616286Y0211813D01*
X0619367Y0205215D02*
X0624383Y0205215D01*
X0625966Y0198616D02*
X0723277Y0198616D01*
X0723277Y0192018D02*
X0690566Y0192018D01*
X0690606Y0191715D02*
X0690481Y0192663D01*
X0690233Y0193588D01*
X0689867Y0194472D01*
X0689389Y0195301D01*
X0688806Y0196060D01*
X0688129Y0196736D01*
X0687370Y0197319D01*
X0686542Y0197797D01*
X0685657Y0198164D01*
X0684733Y0198411D01*
X0683784Y0198536D01*
X0682506Y0198536D01*
X0682506Y0191236D01*
X0682506Y0191236D01*
X0690606Y0191236D01*
X0690606Y0191715D01*
X0692072Y0185419D02*
X0723277Y0185419D01*
X0723277Y0178821D02*
X0692805Y0178821D01*
X0693794Y0172222D02*
X0723277Y0172222D01*
X0723277Y0165624D02*
X0692752Y0165624D01*
X0692889Y0159025D02*
X0723277Y0159025D01*
X0723277Y0152427D02*
X0693006Y0152427D01*
X0691903Y0145828D02*
X0723277Y0145828D01*
X0709300Y0139230D02*
X0692974Y0139230D01*
X0697199Y0132631D02*
X0687879Y0132631D01*
X0692187Y0126033D02*
X0561124Y0126033D01*
X0561124Y0132631D02*
X0677133Y0132631D01*
X0689632Y0119434D02*
X0584282Y0119434D01*
X0602550Y0112836D02*
X0688828Y0112836D01*
X0688828Y0106237D02*
X0679877Y0106237D01*
X0679480Y0106924D02*
X0677170Y0109234D01*
X0674341Y0110867D01*
X0671186Y0111713D01*
X0667920Y0111713D01*
X0664765Y0110867D01*
X0661936Y0109234D01*
X0659626Y0106924D01*
X0657993Y0104095D01*
X0657148Y0100940D01*
X0657148Y0097674D01*
X0657993Y0094519D01*
X0659626Y0091690D01*
X0661936Y0089380D01*
X0664765Y0087747D01*
X0667920Y0086902D01*
X0671186Y0086902D01*
X0674341Y0087747D01*
X0677170Y0089380D01*
X0679480Y0091690D01*
X0681113Y0094519D01*
X0681959Y0097674D01*
X0681959Y0100940D01*
X0681113Y0104095D01*
X0679480Y0106924D01*
X0681959Y0099639D02*
X0688828Y0099639D01*
X0688828Y0093040D02*
X0680260Y0093040D01*
X0688828Y0086442D02*
X0260045Y0086442D01*
X0257993Y0079843D02*
X0688828Y0079843D01*
X0688828Y0073245D02*
X0177837Y0073245D01*
X0177837Y0066646D02*
X0688828Y0066646D01*
X0658847Y0093040D02*
X0548929Y0093040D01*
X0562602Y0099639D02*
X0562602Y0099639D01*
X0568511Y0099639D02*
X0577417Y0099639D01*
X0606139Y0099639D02*
X0606139Y0099639D01*
X0606139Y0104729D02*
X0606139Y0104729D01*
X0613439Y0104729D01*
X0613439Y0106008D01*
X0613314Y0106956D01*
X0613066Y0107881D01*
X0612700Y0108765D01*
X0612222Y0109593D01*
X0611639Y0110353D01*
X0610963Y0111029D01*
X0610203Y0111612D01*
X0609375Y0112090D01*
X0608491Y0112457D01*
X0607566Y0112704D01*
X0606617Y0112829D01*
X0606139Y0112829D01*
X0606139Y0104729D01*
X0606139Y0104729D01*
X0606139Y0106237D02*
X0606139Y0106237D01*
X0613409Y0106237D02*
X0659230Y0106237D01*
X0657148Y0099639D02*
X0612048Y0099639D01*
X0606192Y0139230D02*
X0561124Y0139230D01*
X0561124Y0145828D02*
X0599594Y0145828D01*
X0592995Y0152427D02*
X0558376Y0152427D01*
X0560748Y0159025D02*
X0569897Y0159025D01*
X0567191Y0155213D02*
X0565616Y0156787D01*
X0565616Y0176079D01*
X0566010Y0175685D01*
X0567978Y0175685D01*
X0576246Y0183953D01*
X0577821Y0183953D01*
X0577865Y0183997D01*
X0577865Y0189088D01*
X0577865Y0185419D02*
X0577865Y0185419D01*
X0583685Y0185419D02*
X0586578Y0185419D01*
X0586164Y0178821D02*
X0587628Y0178821D01*
X0569566Y0178821D02*
X0561546Y0178821D01*
X0559346Y0185419D02*
X0491525Y0185419D01*
X0483711Y0192018D02*
X0545199Y0192018D01*
X0538990Y0198616D02*
X0485439Y0198616D01*
X0486715Y0205215D02*
X0520858Y0205215D01*
X0518959Y0211813D02*
X0484857Y0211813D01*
X0477103Y0218412D02*
X0521209Y0218412D01*
X0521546Y0178821D02*
X0524184Y0178821D01*
X0531546Y0178821D02*
X0534184Y0178821D01*
X0541546Y0178821D02*
X0544184Y0178821D01*
X0551546Y0178821D02*
X0554184Y0178821D01*
X0554982Y0159025D02*
X0551777Y0159025D01*
X0585833Y0159025D02*
X0587876Y0159025D01*
X0632564Y0192018D02*
X0674446Y0192018D01*
X0674406Y0191715D02*
X0674406Y0191236D01*
X0682506Y0191236D01*
X0682506Y0191236D01*
X0682506Y0198536D01*
X0681227Y0198536D01*
X0680279Y0198411D01*
X0679354Y0198164D01*
X0678470Y0197797D01*
X0677642Y0197319D01*
X0676882Y0196736D01*
X0676206Y0196060D01*
X0675623Y0195301D01*
X0675145Y0194472D01*
X0674778Y0193588D01*
X0674531Y0192663D01*
X0674406Y0191715D01*
X0672939Y0185419D02*
X0638354Y0185419D01*
X0639077Y0178821D02*
X0672207Y0178821D01*
X0682506Y0192018D02*
X0682506Y0192018D01*
X0689073Y0205215D02*
X0723277Y0205215D01*
X0723277Y0211813D02*
X0694628Y0211813D01*
X0693217Y0218412D02*
X0723277Y0218412D01*
X0723277Y0225010D02*
X0693006Y0225010D01*
X0693006Y0231609D02*
X0723277Y0231609D01*
X0723277Y0238207D02*
X0691751Y0238207D01*
X0693006Y0244806D02*
X0723277Y0244806D01*
X0723277Y0251404D02*
X0690392Y0251404D01*
X0678271Y0271200D02*
X0723277Y0271200D01*
X0723277Y0277798D02*
X0678271Y0277798D01*
X0667821Y0277798D02*
X0667821Y0277798D01*
X0667821Y0271200D02*
X0667821Y0271200D01*
X0677685Y0290995D02*
X0688204Y0290995D01*
X0687371Y0297594D02*
X0678446Y0297594D01*
X0667821Y0310791D02*
X0667821Y0310791D01*
X0667821Y0317389D02*
X0667821Y0317389D01*
X0676769Y0323988D02*
X0723277Y0323988D01*
X0723277Y0304192D02*
X0704564Y0304192D01*
X0708271Y0297594D02*
X0723277Y0297594D01*
X0723277Y0383375D02*
X0692114Y0383375D01*
X0692763Y0389973D02*
X0723277Y0389973D01*
X0723277Y0396572D02*
X0693006Y0396572D01*
X0691310Y0403170D02*
X0723277Y0403170D01*
X0723277Y0409769D02*
X0690244Y0409769D01*
X0693006Y0416367D02*
X0706675Y0416367D01*
X0696466Y0422966D02*
X0691515Y0422966D01*
X0691858Y0429564D02*
X0607581Y0429564D01*
X0607581Y0436163D02*
X0689476Y0436163D01*
X0688828Y0442761D02*
X0607610Y0442761D01*
X0607984Y0449360D02*
X0658835Y0449360D01*
X0659626Y0447989D02*
X0661936Y0445679D01*
X0664765Y0444046D01*
X0667920Y0443201D01*
X0671186Y0443201D01*
X0674341Y0444046D01*
X0677170Y0445679D01*
X0679480Y0447989D01*
X0681113Y0450818D01*
X0681959Y0453973D01*
X0681959Y0457240D01*
X0681113Y0460395D01*
X0679480Y0463223D01*
X0677170Y0465533D01*
X0674341Y0467166D01*
X0671186Y0468012D01*
X0667920Y0468012D01*
X0664765Y0467166D01*
X0661936Y0465533D01*
X0659626Y0463223D01*
X0657993Y0460395D01*
X0657148Y0457240D01*
X0657148Y0453973D01*
X0657993Y0450818D01*
X0659626Y0447989D01*
X0657148Y0455958D02*
X0602806Y0455958D01*
X0593860Y0455958D02*
X0592806Y0455958D01*
X0583860Y0455958D02*
X0582806Y0455958D01*
X0573860Y0455958D02*
X0547688Y0455958D01*
X0552866Y0449360D02*
X0561324Y0449360D01*
X0561405Y0449663D02*
X0561158Y0448739D01*
X0561033Y0447790D01*
X0561033Y0446512D01*
X0568333Y0446512D01*
X0568333Y0454612D01*
X0567854Y0454612D01*
X0566905Y0454487D01*
X0565981Y0454239D01*
X0565097Y0453873D01*
X0564268Y0453395D01*
X0563509Y0452812D01*
X0562832Y0452135D01*
X0562250Y0451376D01*
X0561771Y0450547D01*
X0561405Y0449663D01*
X0561033Y0446512D02*
X0561033Y0445233D01*
X0561158Y0444285D01*
X0561405Y0443360D01*
X0561771Y0442476D01*
X0562250Y0441647D01*
X0562832Y0440888D01*
X0563509Y0440212D01*
X0564268Y0439629D01*
X0565097Y0439151D01*
X0565981Y0438784D01*
X0566905Y0438537D01*
X0567854Y0438412D01*
X0568333Y0438412D01*
X0568333Y0446512D01*
X0568333Y0446512D01*
X0568333Y0446512D01*
X0561033Y0446512D01*
X0561653Y0442761D02*
X0552492Y0442761D01*
X0552463Y0436163D02*
X0576039Y0436163D01*
X0580626Y0436163D02*
X0582707Y0436163D01*
X0582707Y0429564D02*
X0552463Y0429564D01*
X0551873Y0422966D02*
X0580010Y0422966D01*
X0602665Y0409769D02*
X0674768Y0409769D01*
X0672006Y0416367D02*
X0607520Y0416367D01*
X0607581Y0422966D02*
X0673497Y0422966D01*
X0670450Y0403170D02*
X0602514Y0403170D01*
X0568333Y0442761D02*
X0568333Y0442761D01*
X0568333Y0449360D02*
X0568333Y0449360D01*
X0538741Y0455958D02*
X0537688Y0455958D01*
X0528741Y0455958D02*
X0527688Y0455958D01*
X0518741Y0455958D02*
X0491507Y0455958D01*
X0496684Y0449360D02*
X0506206Y0449360D01*
X0506535Y0442761D02*
X0497344Y0442761D01*
X0497344Y0436163D02*
X0510530Y0436163D01*
X0513214Y0442761D02*
X0513215Y0442761D01*
X0513214Y0449360D02*
X0513215Y0449360D01*
X0482560Y0455958D02*
X0481507Y0455958D01*
X0472560Y0455958D02*
X0441801Y0455958D01*
X0439062Y0449360D02*
X0460025Y0449360D01*
X0460354Y0442761D02*
X0428645Y0442761D01*
X0438359Y0462557D02*
X0659241Y0462557D01*
X0679865Y0462557D02*
X0688828Y0462557D01*
X0688828Y0469155D02*
X0428390Y0469155D01*
X0428378Y0475754D02*
X0688828Y0475754D01*
X0688828Y0482352D02*
X0438278Y0482352D01*
X0438307Y0482536D02*
X0438307Y0486118D01*
X0431057Y0486118D01*
X0431057Y0478469D01*
X0434239Y0478469D01*
X0434926Y0478578D01*
X0435586Y0478792D01*
X0436206Y0479108D01*
X0436768Y0479516D01*
X0437259Y0480008D01*
X0437668Y0480570D01*
X0437983Y0481189D01*
X0438198Y0481850D01*
X0438307Y0482536D01*
X0431057Y0482352D02*
X0431057Y0482352D01*
X0431057Y0486118D02*
X0431057Y0486118D01*
X0387493Y0475754D02*
X0177837Y0475754D01*
X0177837Y0482352D02*
X0377709Y0482352D01*
X0377680Y0482441D02*
X0377895Y0481780D01*
X0378210Y0481160D01*
X0378619Y0480598D01*
X0379110Y0480107D01*
X0379672Y0479698D01*
X0380291Y0479383D01*
X0380952Y0479168D01*
X0381639Y0479059D01*
X0384821Y0479059D01*
X0384821Y0486709D01*
X0384821Y0486709D01*
X0377571Y0486709D01*
X0377571Y0483127D01*
X0377680Y0482441D01*
X0384821Y0482352D02*
X0384821Y0482352D01*
X0387478Y0469155D02*
X0177837Y0469155D01*
X0177837Y0462557D02*
X0186800Y0462557D01*
X0187185Y0463223D02*
X0185552Y0460395D01*
X0184707Y0457240D01*
X0184707Y0453973D01*
X0185552Y0450818D01*
X0187185Y0447989D01*
X0189495Y0445679D01*
X0192324Y0444046D01*
X0195479Y0443201D01*
X0198745Y0443201D01*
X0201901Y0444046D01*
X0204729Y0445679D01*
X0207039Y0447989D01*
X0208672Y0450818D01*
X0209518Y0453973D01*
X0209518Y0457240D01*
X0208672Y0460395D01*
X0207039Y0463223D01*
X0204729Y0465533D01*
X0201901Y0467166D01*
X0198745Y0468012D01*
X0195479Y0468012D01*
X0192324Y0467166D01*
X0189495Y0465533D01*
X0187185Y0463223D01*
X0184707Y0455958D02*
X0177837Y0455958D01*
X0177837Y0449360D02*
X0186394Y0449360D01*
X0177837Y0442761D02*
X0387431Y0442761D01*
X0387431Y0449360D02*
X0207830Y0449360D01*
X0209518Y0455958D02*
X0387449Y0455958D01*
X0387464Y0462557D02*
X0207424Y0462557D01*
X0177189Y0436163D02*
X0386478Y0436163D01*
X0386478Y0429564D02*
X0174807Y0429564D01*
X0178712Y0421890D02*
X0182121Y0423302D01*
X0185811Y0423302D01*
X0187903Y0422435D01*
X0189995Y0423302D01*
X0193685Y0423302D01*
X0195777Y0422435D01*
X0197869Y0423302D01*
X0201559Y0423302D01*
X0203651Y0422435D01*
X0205743Y0423302D01*
X0209433Y0423302D01*
X0211525Y0422435D01*
X0213617Y0423302D01*
X0217307Y0423302D01*
X0219399Y0422435D01*
X0221491Y0423302D01*
X0225181Y0423302D01*
X0227273Y0422435D01*
X0229365Y0423302D01*
X0233055Y0423302D01*
X0235147Y0422435D01*
X0237239Y0423302D01*
X0240929Y0423302D01*
X0243021Y0422435D01*
X0245113Y0423302D01*
X0248803Y0423302D01*
X0250895Y0422435D01*
X0252987Y0423302D01*
X0256677Y0423302D01*
X0260086Y0421890D01*
X0262695Y0419281D01*
X0264107Y0415872D01*
X0264107Y0412182D01*
X0262695Y0408773D01*
X0260086Y0406164D01*
X0256677Y0404752D01*
X0252987Y0404752D01*
X0250895Y0405619D01*
X0248803Y0404752D01*
X0245113Y0404752D01*
X0243021Y0405619D01*
X0240929Y0404752D01*
X0237239Y0404752D01*
X0235147Y0405619D01*
X0233055Y0404752D01*
X0229365Y0404752D01*
X0227273Y0405619D01*
X0225181Y0404752D01*
X0221491Y0404752D01*
X0219399Y0405619D01*
X0217307Y0404752D01*
X0213617Y0404752D01*
X0211525Y0405619D01*
X0209433Y0404752D01*
X0205743Y0404752D01*
X0203651Y0405619D01*
X0201559Y0404752D01*
X0197869Y0404752D01*
X0195777Y0405619D01*
X0193685Y0404752D01*
X0189995Y0404752D01*
X0187903Y0405619D01*
X0185811Y0404752D01*
X0182121Y0404752D01*
X0178712Y0406164D01*
X0176103Y0408773D01*
X0174691Y0412182D01*
X0174691Y0415872D01*
X0176103Y0419281D01*
X0178712Y0421890D01*
X0181310Y0422966D02*
X0170199Y0422966D01*
X0174896Y0416367D02*
X0159990Y0416367D01*
X0175691Y0409769D02*
X0143389Y0409769D01*
X0143389Y0403170D02*
X0383049Y0403170D01*
X0387825Y0409769D02*
X0263107Y0409769D01*
X0263901Y0416367D02*
X0387825Y0416367D01*
X0387317Y0422966D02*
X0257488Y0422966D01*
X0252176Y0422966D02*
X0249614Y0422966D01*
X0244302Y0422966D02*
X0241740Y0422966D01*
X0236428Y0422966D02*
X0233866Y0422966D01*
X0228554Y0422966D02*
X0225992Y0422966D01*
X0220680Y0422966D02*
X0218118Y0422966D01*
X0212806Y0422966D02*
X0210244Y0422966D01*
X0204932Y0422966D02*
X0202370Y0422966D01*
X0197058Y0422966D02*
X0194496Y0422966D01*
X0189184Y0422966D02*
X0186622Y0422966D01*
X0143389Y0396572D02*
X0364639Y0396572D01*
X0358041Y0389973D02*
X0143389Y0389973D01*
X0143389Y0383375D02*
X0351442Y0383375D01*
X0344844Y0376776D02*
X0143389Y0376776D01*
X0143389Y0370178D02*
X0251572Y0370178D01*
X0245869Y0363579D02*
X0143389Y0363579D01*
X0143389Y0356981D02*
X0245230Y0356981D01*
X0248540Y0350382D02*
X0143389Y0350382D01*
X0143389Y0343783D02*
X0330216Y0343783D01*
X0330725Y0337185D02*
X0143389Y0337185D01*
X0143389Y0330586D02*
X0175241Y0330586D01*
X0174691Y0329257D02*
X0174691Y0325568D01*
X0176103Y0322159D01*
X0178712Y0319550D01*
X0182121Y0318138D01*
X0185811Y0318138D01*
X0187903Y0319004D01*
X0189995Y0318138D01*
X0193685Y0318138D01*
X0195777Y0319004D01*
X0197869Y0318138D01*
X0201559Y0318138D01*
X0203651Y0319004D01*
X0205743Y0318138D01*
X0209433Y0318138D01*
X0211525Y0319004D01*
X0213617Y0318138D01*
X0217307Y0318138D01*
X0219399Y0319004D01*
X0221491Y0318138D01*
X0225181Y0318138D01*
X0227273Y0319004D01*
X0229365Y0318138D01*
X0233055Y0318138D01*
X0235147Y0319004D01*
X0237239Y0318138D01*
X0240929Y0318138D01*
X0243021Y0319004D01*
X0245113Y0318138D01*
X0248803Y0318138D01*
X0252212Y0319550D01*
X0253353Y0320691D01*
X0253488Y0320655D01*
X0254381Y0320538D01*
X0254832Y0320538D01*
X0255282Y0320538D01*
X0256176Y0320655D01*
X0257046Y0320889D01*
X0257879Y0321234D01*
X0258660Y0321684D01*
X0259374Y0322233D01*
X0260012Y0322870D01*
X0260560Y0323585D01*
X0261011Y0324365D01*
X0261356Y0325198D01*
X0261589Y0326069D01*
X0261707Y0326962D01*
X0261707Y0327413D01*
X0261707Y0327863D01*
X0261589Y0328757D01*
X0261356Y0329627D01*
X0261011Y0330460D01*
X0260560Y0331240D01*
X0260012Y0331955D01*
X0259374Y0332592D01*
X0258660Y0333141D01*
X0257879Y0333592D01*
X0257046Y0333937D01*
X0256176Y0334170D01*
X0255282Y0334287D01*
X0254832Y0334287D01*
X0254832Y0332639D01*
X0254832Y0332639D01*
X0254832Y0334287D01*
X0254381Y0334287D01*
X0253488Y0334170D01*
X0253353Y0334134D01*
X0252212Y0335275D01*
X0248803Y0336687D01*
X0245113Y0336687D01*
X0243021Y0335821D01*
X0240929Y0336687D01*
X0237239Y0336687D01*
X0235147Y0335821D01*
X0233055Y0336687D01*
X0229365Y0336687D01*
X0227273Y0335821D01*
X0225181Y0336687D01*
X0221491Y0336687D01*
X0219399Y0335821D01*
X0217307Y0336687D01*
X0213617Y0336687D01*
X0211525Y0335821D01*
X0209433Y0336687D01*
X0205743Y0336687D01*
X0203651Y0335821D01*
X0201559Y0336687D01*
X0197869Y0336687D01*
X0195777Y0335821D01*
X0193685Y0336687D01*
X0189995Y0336687D01*
X0187903Y0335821D01*
X0185811Y0336687D01*
X0182121Y0336687D01*
X0178712Y0335275D01*
X0176103Y0332666D01*
X0174691Y0329257D01*
X0175345Y0323988D02*
X0143389Y0323988D01*
X0143389Y0317389D02*
X0413439Y0317389D01*
X0412864Y0323988D02*
X0260793Y0323988D01*
X0261707Y0327413D02*
X0256233Y0327413D01*
X0261707Y0327413D01*
X0260938Y0330586D02*
X0338319Y0330586D01*
X0344094Y0330586D02*
X0374707Y0330586D01*
X0372439Y0337185D02*
X0351689Y0337185D01*
X0352197Y0343783D02*
X0373830Y0343783D01*
X0372106Y0350382D02*
X0367624Y0350382D01*
X0343365Y0370178D02*
X0264158Y0370178D01*
X0297624Y0350382D02*
X0306106Y0350382D01*
X0301865Y0356981D02*
X0301865Y0356981D01*
X0301865Y0363579D02*
X0301865Y0363579D01*
X0256233Y0327413D02*
X0256233Y0327413D01*
X0254832Y0322186D02*
X0254832Y0320538D01*
X0254832Y0322186D01*
X0254832Y0322186D01*
X0258861Y0310791D02*
X0143389Y0310791D01*
X0143389Y0304192D02*
X0258861Y0304192D01*
X0258861Y0297594D02*
X0143389Y0297594D01*
X0143389Y0290995D02*
X0258991Y0290995D01*
X0258861Y0284397D02*
X0175934Y0284397D01*
X0175543Y0285074D02*
X0173233Y0287384D01*
X0170404Y0289017D01*
X0167249Y0289862D01*
X0163983Y0289862D01*
X0160828Y0289017D01*
X0157999Y0287384D01*
X0155689Y0285074D01*
X0154056Y0282245D01*
X0153211Y0279090D01*
X0153211Y0275823D01*
X0154056Y0272668D01*
X0155689Y0269840D01*
X0157999Y0267530D01*
X0160828Y0265897D01*
X0163983Y0265051D01*
X0167249Y0265051D01*
X0170404Y0265897D01*
X0173233Y0267530D01*
X0175543Y0269840D01*
X0177176Y0272668D01*
X0178022Y0275823D01*
X0178022Y0279090D01*
X0177176Y0282245D01*
X0175543Y0285074D01*
X0178022Y0277798D02*
X0258861Y0277798D01*
X0259196Y0271200D02*
X0176328Y0271200D01*
X0154904Y0271200D02*
X0143389Y0271200D01*
X0143389Y0277798D02*
X0153211Y0277798D01*
X0155298Y0284397D02*
X0143389Y0284397D01*
X0143389Y0264601D02*
X0258861Y0264601D01*
X0258861Y0258003D02*
X0143389Y0258003D01*
X0143389Y0251404D02*
X0259400Y0251404D01*
X0258861Y0244806D02*
X0143389Y0244806D01*
X0143389Y0238207D02*
X0261261Y0238207D01*
X0259604Y0231609D02*
X0143389Y0231609D01*
X0143389Y0225010D02*
X0258861Y0225010D01*
X0277411Y0244806D02*
X0378569Y0244806D01*
X0371971Y0251404D02*
X0276872Y0251404D01*
X0277411Y0258003D02*
X0368140Y0258003D01*
X0368140Y0264601D02*
X0277411Y0264601D01*
X0277076Y0271200D02*
X0368140Y0271200D01*
X0368140Y0277798D02*
X0277411Y0277798D01*
X0277411Y0284397D02*
X0366061Y0284397D01*
X0365746Y0290995D02*
X0277281Y0290995D01*
X0277411Y0297594D02*
X0370317Y0297594D01*
X0382962Y0297594D02*
X0386462Y0297594D01*
X0388056Y0304192D02*
X0277411Y0304192D01*
X0277411Y0310791D02*
X0421409Y0310791D01*
X0406953Y0304192D02*
X0404468Y0304192D01*
X0395769Y0330586D02*
X0416849Y0330586D01*
X0430919Y0330586D02*
X0434550Y0330586D01*
X0432281Y0337185D02*
X0398037Y0337185D01*
X0396647Y0343783D02*
X0433672Y0343783D01*
X0462349Y0310791D02*
X0467017Y0310791D01*
X0487412Y0310791D02*
X0497017Y0310791D01*
X0492215Y0317389D02*
X0492214Y0317389D01*
X0587140Y0297594D02*
X0616055Y0297594D01*
X0609457Y0290995D02*
X0587114Y0290995D01*
X0585961Y0284397D02*
X0602858Y0284397D01*
X0596260Y0277798D02*
X0587140Y0277798D01*
X0514184Y0178821D02*
X0511546Y0178821D01*
X0504184Y0178821D02*
X0501546Y0178821D01*
X0478370Y0172222D02*
X0477360Y0172222D01*
X0477223Y0165624D02*
X0478507Y0165624D01*
X0228608Y0198616D02*
X0228608Y0198616D01*
X0228608Y0205215D02*
X0228608Y0205215D01*
X0228608Y0211813D02*
X0228608Y0211813D01*
X0228608Y0218412D02*
X0228608Y0218412D01*
X0221664Y0218412D02*
X0143389Y0218412D01*
X0457549Y0429564D02*
X0460624Y0429564D01*
X0454870Y0436163D02*
X0467223Y0436163D01*
X0467033Y0442761D02*
X0467034Y0442761D01*
X0467033Y0449360D02*
X0467034Y0449360D01*
X0680271Y0449360D02*
X0688828Y0449360D01*
X0688828Y0455958D02*
X0681959Y0455958D01*
D25*
X0496719Y0386118D03*
X0487270Y0379622D03*
X0484514Y0346945D03*
X0472703Y0344583D03*
X0435695Y0313874D03*
X0423884Y0321748D03*
X0376640Y0288283D03*
X0354986Y0307575D03*
X0341207Y0341433D03*
X0317978Y0326866D03*
X0388451Y0262693D03*
X0400262Y0270567D03*
X0365222Y0194976D03*
X0318372Y0194976D03*
X0207742Y0275685D03*
X0319553Y0413480D03*
X0446325Y0428835D03*
X0507742Y0284150D03*
X0510892Y0223323D03*
X0530183Y0211512D03*
X0595144Y0264661D03*
D26*
X0625065Y0294583D01*
X0630695Y0294583D01*
X0640695Y0294583D02*
X0642270Y0296157D01*
X0667821Y0296157D01*
X0682506Y0336276D02*
X0686482Y0336236D01*
X0686482Y0334937D01*
X0689041Y0334937D01*
X0686482Y0334937D02*
X0603608Y0334937D01*
X0591404Y0347142D01*
X0591404Y0366827D01*
X0583333Y0374898D01*
X0543963Y0374898D01*
X0537865Y0368800D01*
X0537865Y0359088D01*
X0538057Y0358896D01*
X0538057Y0351276D01*
X0514435Y0327654D01*
X0467191Y0327654D01*
X0453411Y0313874D01*
X0435695Y0313874D01*
X0423884Y0321748D02*
X0449474Y0321748D01*
X0463254Y0335528D01*
X0510498Y0335528D01*
X0529199Y0354228D01*
X0529199Y0357378D01*
X0529199Y0357754D01*
X0527865Y0359088D01*
X0528215Y0359438D01*
X0528215Y0370961D01*
X0540026Y0382772D01*
X0587270Y0382772D01*
X0599081Y0370961D01*
X0599081Y0355213D01*
X0608018Y0346276D01*
X0682506Y0346276D01*
X0681758Y0382772D02*
X0682506Y0387457D01*
X0681758Y0382772D02*
X0599081Y0382772D01*
X0591207Y0390646D01*
X0536089Y0390646D01*
X0517865Y0372422D01*
X0517865Y0359088D01*
X0507865Y0359088D02*
X0507865Y0374233D01*
X0532152Y0398520D01*
X0595144Y0398520D01*
X0603018Y0390646D01*
X0669947Y0390646D01*
X0676758Y0397457D01*
X0682506Y0397457D01*
X0599081Y0418205D02*
X0587270Y0406394D01*
X0528215Y0406394D01*
X0520341Y0398520D01*
X0488844Y0398520D01*
X0477033Y0386709D01*
X0437663Y0386709D01*
X0427865Y0376910D01*
X0427865Y0359088D01*
X0417865Y0359088D02*
X0417865Y0378721D01*
X0433726Y0394583D01*
X0473096Y0394583D01*
X0484907Y0406394D01*
X0516404Y0406394D01*
X0524278Y0414268D01*
X0583333Y0414268D01*
X0591207Y0422142D01*
X0591207Y0440016D01*
X0588333Y0442890D01*
X0588333Y0446512D01*
X0598333Y0446512D02*
X0598333Y0441079D01*
X0599081Y0445764D02*
X0599081Y0418205D01*
X0599081Y0445764D02*
X0598333Y0446512D01*
X0543963Y0444268D02*
X0543963Y0426079D01*
X0540026Y0422142D01*
X0520341Y0422142D01*
X0512467Y0414268D01*
X0480970Y0414268D01*
X0469159Y0402457D01*
X0429789Y0402457D01*
X0407865Y0380532D01*
X0407865Y0359088D01*
X0397865Y0359088D02*
X0397865Y0382343D01*
X0425852Y0410331D01*
X0465222Y0410331D01*
X0477033Y0422142D01*
X0508530Y0422142D01*
X0516404Y0430016D01*
X0528215Y0430016D01*
X0532152Y0433953D01*
X0532152Y0445449D01*
X0533215Y0446512D01*
X0533215Y0446827D01*
X0543215Y0446512D02*
X0543215Y0445016D01*
X0543963Y0444268D01*
X0488844Y0442142D02*
X0488844Y0433953D01*
X0484907Y0430016D01*
X0473096Y0430016D01*
X0461285Y0418205D01*
X0457348Y0418205D01*
X0421915Y0418205D01*
X0387865Y0384154D01*
X0387865Y0359088D01*
X0396325Y0325685D02*
X0396325Y0323717D01*
X0404199Y0315843D01*
X0404199Y0311906D01*
X0405711Y0310394D01*
X0405711Y0315840D01*
X0405711Y0310394D02*
X0405711Y0296606D01*
X0400262Y0270567D02*
X0421915Y0270567D01*
X0439632Y0288283D01*
X0465222Y0288283D01*
X0469159Y0284346D01*
X0469159Y0274504D01*
X0463744Y0269088D01*
X0458365Y0269088D01*
X0448365Y0269088D02*
X0442459Y0269088D01*
X0424253Y0250882D01*
X0384514Y0250882D01*
X0376640Y0258756D01*
X0376640Y0288283D01*
X0388451Y0262693D02*
X0423884Y0262693D01*
X0439632Y0278441D01*
X0447718Y0278441D01*
X0448365Y0279088D01*
X0524868Y0281984D02*
X0524868Y0267811D01*
X0524671Y0267614D01*
X0524671Y0260331D01*
X0531561Y0253441D01*
X0531561Y0246551D01*
X0530774Y0245764D01*
X0530774Y0234346D01*
X0530774Y0224110D01*
X0530183Y0223520D01*
X0530183Y0211512D01*
X0577865Y0209088D02*
X0578320Y0209543D01*
X0583333Y0209543D01*
X0606955Y0185921D01*
X0606955Y0164268D01*
X0619986Y0151236D01*
X0682506Y0151236D01*
X0682506Y0141236D02*
X0616207Y0141236D01*
X0596128Y0161315D01*
X0596128Y0187890D01*
X0584317Y0199701D01*
X0578478Y0199701D01*
X0577865Y0199088D01*
X0577865Y0219088D02*
X0578163Y0219386D01*
X0583333Y0219386D01*
X0618766Y0183953D01*
X0618766Y0170173D01*
X0627703Y0161236D01*
X0682506Y0161236D01*
X0685380Y0170173D02*
X0634514Y0170173D01*
X0630577Y0174110D01*
X0630577Y0181984D01*
X0583473Y0229088D01*
X0577865Y0229088D01*
X0578867Y0238087D02*
X0602033Y0238087D01*
X0626640Y0213480D01*
X0686128Y0213480D01*
X0682506Y0213165D01*
X0682506Y0223165D02*
X0628766Y0223165D01*
X0607939Y0243992D01*
X0590222Y0243992D01*
X0583507Y0249088D02*
X0587270Y0252850D01*
X0610892Y0252850D01*
X0630577Y0233165D01*
X0682506Y0233165D01*
X0682506Y0171236D02*
X0685380Y0170173D01*
X0586139Y0105556D02*
X0586139Y0104729D01*
X0586139Y0105556D02*
X0577821Y0113874D01*
X0560892Y0113874D01*
X0552624Y0122142D01*
X0552624Y0146157D01*
X0537663Y0161118D01*
X0537663Y0168887D01*
X0537865Y0169088D01*
X0529002Y0167951D02*
X0529002Y0154819D01*
X0542585Y0141236D01*
X0542585Y0100775D01*
X0542602Y0104729D01*
X0542585Y0100775D02*
X0542585Y0098717D01*
X0488367Y0106901D02*
X0488367Y0132265D01*
X0457865Y0162767D01*
X0457865Y0169088D01*
X0447865Y0169088D02*
X0447865Y0161940D01*
X0478367Y0131438D01*
X0478367Y0106901D01*
X0468367Y0106901D02*
X0468367Y0130611D01*
X0437865Y0161113D01*
X0437865Y0169088D01*
X0427865Y0169088D02*
X0427865Y0163328D01*
X0402665Y0138128D01*
X0402665Y0105129D01*
X0396325Y0143598D02*
X0371175Y0143598D01*
X0360665Y0133088D01*
X0360665Y0105529D01*
X0319465Y0105529D02*
X0319465Y0133088D01*
X0336865Y0150488D01*
X0394356Y0150488D01*
X0407152Y0163283D01*
X0407152Y0168375D01*
X0407865Y0169088D01*
X0397865Y0169088D02*
X0397865Y0163839D01*
X0391404Y0157378D01*
X0333726Y0157378D01*
X0309907Y0133559D01*
X0309907Y0118795D01*
X0304593Y0113480D01*
X0282152Y0113480D01*
X0275065Y0106394D01*
X0275065Y0106329D01*
X0388451Y0199307D02*
X0395144Y0199307D01*
X0410498Y0183953D01*
X0480970Y0183953D01*
X0487860Y0177063D01*
X0487860Y0169093D01*
X0487865Y0169088D01*
X0527865Y0169088D02*
X0529002Y0167951D01*
X0578867Y0238087D02*
X0577865Y0239088D01*
X0577865Y0249088D02*
X0583507Y0249088D01*
X0525262Y0282378D02*
X0525262Y0294976D01*
X0526837Y0296551D01*
X0525262Y0282378D02*
X0524868Y0281984D01*
X0484514Y0346945D02*
X0484514Y0352439D01*
X0477865Y0359088D01*
X0472703Y0354250D02*
X0472703Y0344583D01*
X0472703Y0354250D02*
X0467865Y0359088D01*
X0487270Y0359683D02*
X0487270Y0379622D01*
X0496719Y0386118D02*
X0497865Y0384972D01*
X0497865Y0359088D01*
X0487865Y0359088D02*
X0487270Y0359683D01*
X0446325Y0428835D02*
X0432742Y0429031D01*
X0420341Y0429031D01*
X0420341Y0436512D02*
X0419947Y0436906D01*
X0419860Y0486118D01*
X0396018Y0486709D02*
X0395931Y0448039D01*
X0395931Y0436118D01*
X0395931Y0428638D02*
X0396325Y0428244D01*
X0396325Y0404425D01*
X0384514Y0392614D01*
X0372703Y0392614D01*
X0351865Y0371776D01*
X0351865Y0359088D01*
X0341865Y0359088D02*
X0341865Y0342091D01*
X0341207Y0341433D01*
X0487033Y0443953D02*
X0488844Y0442142D01*
X0487033Y0443953D02*
X0487033Y0446512D01*
X0390222Y0209740D02*
X0390222Y0201079D01*
X0388451Y0199307D01*
X0417865Y0169088D02*
X0417865Y0165139D01*
X0396325Y0143598D01*
D27*
X0377821Y0170173D02*
X0378608Y0170961D01*
X0337865Y0169088D02*
X0337865Y0183357D01*
X0326246Y0194976D01*
X0318372Y0194976D01*
D28*
X0532348Y0267811D02*
X0533626Y0269088D01*
X0567865Y0269088D01*
X0572454Y0264071D02*
X0577865Y0269088D01*
X0573281Y0274110D02*
X0577865Y0279088D01*
X0567865Y0279088D02*
X0564969Y0279088D01*
X0548884Y0295173D01*
X0535695Y0295173D01*
X0534317Y0296551D01*
X0532742Y0282378D02*
X0533530Y0281591D01*
X0534907Y0281591D01*
X0535301Y0281197D01*
X0553018Y0281197D01*
X0559711Y0274110D01*
X0557939Y0264071D02*
X0540419Y0246551D01*
X0539041Y0246551D01*
X0545931Y0239071D02*
X0541207Y0234346D01*
X0538254Y0234346D01*
X0545931Y0239071D02*
X0548293Y0239071D01*
X0553608Y0244386D01*
X0553608Y0252063D01*
X0560633Y0259088D01*
X0567865Y0259088D01*
X0562860Y0254228D02*
X0558333Y0249701D01*
X0558333Y0229819D01*
X0552624Y0224110D01*
X0538254Y0224110D01*
X0567865Y0249088D02*
X0568394Y0249088D01*
X0573490Y0243992D01*
X0573005Y0254228D02*
X0577865Y0259088D01*
X0529199Y0357378D02*
X0529199Y0358165D01*
D29*
X0527624Y0358165D01*
X0537208Y0359088D02*
X0537865Y0359088D01*
X0537865Y0358957D01*
X0559711Y0274110D02*
X0573281Y0274110D01*
X0572454Y0264071D02*
X0557939Y0264071D01*
X0562860Y0254228D02*
X0573005Y0254228D01*
X0573490Y0243992D02*
X0590222Y0243992D01*
D30*
X0192388Y0199307D03*
M02*
