G75*
%MOIN*%
%OFA0B0*%
%FSLAX25Y25*%
%IPPOS*%
%LPD*%
%AMOC8*
5,1,8,0,0,1.08239X$1,22.5*
%
%ADD10C,0.00886*%
%ADD11C,0.00567*%
%ADD12C,0.00452*%
D10*
X0140961Y0183313D02*
X0152869Y0183313D01*
X0140961Y0183313D02*
X0140961Y0191285D01*
X0152869Y0191285D01*
X0152869Y0183313D01*
X0152869Y0184198D02*
X0140961Y0184198D01*
X0140961Y0185083D02*
X0152869Y0185083D01*
X0152869Y0185968D02*
X0140961Y0185968D01*
X0140961Y0186853D02*
X0152869Y0186853D01*
X0152869Y0187738D02*
X0140961Y0187738D01*
X0140961Y0188623D02*
X0152869Y0188623D01*
X0152869Y0189508D02*
X0140961Y0189508D01*
X0140961Y0190393D02*
X0152869Y0190393D01*
X0152869Y0191278D02*
X0140961Y0191278D01*
X0166552Y0183313D02*
X0178460Y0183313D01*
X0166552Y0183313D02*
X0166552Y0191285D01*
X0178460Y0191285D01*
X0178460Y0183313D01*
X0178460Y0184198D02*
X0166552Y0184198D01*
X0166552Y0185083D02*
X0178460Y0185083D01*
X0178460Y0185968D02*
X0166552Y0185968D01*
X0166552Y0186853D02*
X0178460Y0186853D01*
X0178460Y0187738D02*
X0166552Y0187738D01*
X0166552Y0188623D02*
X0178460Y0188623D01*
X0178460Y0189508D02*
X0166552Y0189508D01*
X0166552Y0190393D02*
X0178460Y0190393D01*
X0178460Y0191278D02*
X0166552Y0191278D01*
X0224622Y0188529D02*
X0224622Y0176621D01*
X0224622Y0188529D02*
X0232594Y0188529D01*
X0232594Y0176621D01*
X0224622Y0176621D01*
X0224622Y0177506D02*
X0232594Y0177506D01*
X0232594Y0178391D02*
X0224622Y0178391D01*
X0224622Y0179276D02*
X0232594Y0179276D01*
X0232594Y0180161D02*
X0224622Y0180161D01*
X0224622Y0181046D02*
X0232594Y0181046D01*
X0232594Y0181931D02*
X0224622Y0181931D01*
X0224622Y0182816D02*
X0232594Y0182816D01*
X0232594Y0183701D02*
X0224622Y0183701D01*
X0224622Y0184586D02*
X0232594Y0184586D01*
X0232594Y0185471D02*
X0224622Y0185471D01*
X0224622Y0186356D02*
X0232594Y0186356D01*
X0232594Y0187241D02*
X0224622Y0187241D01*
X0224622Y0188126D02*
X0232594Y0188126D01*
X0224622Y0202211D02*
X0224622Y0214119D01*
X0232594Y0214119D01*
X0232594Y0202211D01*
X0224622Y0202211D01*
X0224622Y0203096D02*
X0232594Y0203096D01*
X0232594Y0203981D02*
X0224622Y0203981D01*
X0224622Y0204866D02*
X0232594Y0204866D01*
X0232594Y0205751D02*
X0224622Y0205751D01*
X0224622Y0206636D02*
X0232594Y0206636D01*
X0232594Y0207521D02*
X0224622Y0207521D01*
X0224622Y0208406D02*
X0232594Y0208406D01*
X0232594Y0209291D02*
X0224622Y0209291D01*
X0224622Y0210176D02*
X0232594Y0210176D01*
X0232594Y0211061D02*
X0224622Y0211061D01*
X0224622Y0211946D02*
X0232594Y0211946D01*
X0232594Y0212831D02*
X0224622Y0212831D01*
X0224622Y0213716D02*
X0232594Y0213716D01*
D11*
X0382270Y0489660D02*
X0387372Y0489660D01*
X0387372Y0483758D01*
X0382270Y0483758D01*
X0382270Y0489660D01*
X0382270Y0484324D02*
X0387372Y0484324D01*
X0387372Y0484890D02*
X0382270Y0484890D01*
X0382270Y0485456D02*
X0387372Y0485456D01*
X0387372Y0486022D02*
X0382270Y0486022D01*
X0382270Y0486588D02*
X0387372Y0486588D01*
X0387372Y0487154D02*
X0382270Y0487154D01*
X0382270Y0487720D02*
X0387372Y0487720D01*
X0387372Y0488286D02*
X0382270Y0488286D01*
X0382270Y0488852D02*
X0387372Y0488852D01*
X0387372Y0489418D02*
X0382270Y0489418D01*
X0393467Y0489660D02*
X0398569Y0489660D01*
X0398569Y0483758D01*
X0393467Y0483758D01*
X0393467Y0489660D01*
X0393467Y0484324D02*
X0398569Y0484324D01*
X0398569Y0484890D02*
X0393467Y0484890D01*
X0393467Y0485456D02*
X0398569Y0485456D01*
X0398569Y0486022D02*
X0393467Y0486022D01*
X0393467Y0486588D02*
X0398569Y0486588D01*
X0398569Y0487154D02*
X0393467Y0487154D01*
X0393467Y0487720D02*
X0398569Y0487720D01*
X0398569Y0488286D02*
X0393467Y0488286D01*
X0393467Y0488852D02*
X0398569Y0488852D01*
X0398569Y0489418D02*
X0393467Y0489418D01*
X0417309Y0483167D02*
X0422411Y0483167D01*
X0417309Y0483167D02*
X0417309Y0489069D01*
X0422411Y0489069D01*
X0422411Y0483167D01*
X0422411Y0483733D02*
X0417309Y0483733D01*
X0417309Y0484299D02*
X0422411Y0484299D01*
X0422411Y0484865D02*
X0417309Y0484865D01*
X0417309Y0485431D02*
X0422411Y0485431D01*
X0422411Y0485997D02*
X0417309Y0485997D01*
X0417309Y0486563D02*
X0422411Y0486563D01*
X0422411Y0487129D02*
X0417309Y0487129D01*
X0417309Y0487695D02*
X0422411Y0487695D01*
X0422411Y0488261D02*
X0417309Y0488261D01*
X0417309Y0488827D02*
X0422411Y0488827D01*
X0428506Y0483167D02*
X0433608Y0483167D01*
X0428506Y0483167D02*
X0428506Y0489069D01*
X0433608Y0489069D01*
X0433608Y0483167D01*
X0433608Y0483733D02*
X0428506Y0483733D01*
X0428506Y0484299D02*
X0433608Y0484299D01*
X0433608Y0484865D02*
X0428506Y0484865D01*
X0428506Y0485431D02*
X0433608Y0485431D01*
X0433608Y0485997D02*
X0428506Y0485997D01*
X0428506Y0486563D02*
X0433608Y0486563D01*
X0433608Y0487129D02*
X0428506Y0487129D01*
X0428506Y0487695D02*
X0433608Y0487695D01*
X0433608Y0488261D02*
X0428506Y0488261D01*
X0428506Y0488827D02*
X0433608Y0488827D01*
D12*
X0422768Y0438545D02*
X0422768Y0434479D01*
X0417914Y0434479D01*
X0417914Y0438545D01*
X0422768Y0438545D01*
X0422768Y0434930D02*
X0417914Y0434930D01*
X0417914Y0435381D02*
X0422768Y0435381D01*
X0422768Y0435832D02*
X0417914Y0435832D01*
X0417914Y0436283D02*
X0422768Y0436283D01*
X0422768Y0436734D02*
X0417914Y0436734D01*
X0417914Y0437185D02*
X0422768Y0437185D01*
X0422768Y0437636D02*
X0417914Y0437636D01*
X0417914Y0438087D02*
X0422768Y0438087D01*
X0422768Y0438538D02*
X0417914Y0438538D01*
X0422768Y0431064D02*
X0422768Y0426998D01*
X0417914Y0426998D01*
X0417914Y0431064D01*
X0422768Y0431064D01*
X0422768Y0427449D02*
X0417914Y0427449D01*
X0417914Y0427900D02*
X0422768Y0427900D01*
X0422768Y0428351D02*
X0417914Y0428351D01*
X0417914Y0428802D02*
X0422768Y0428802D01*
X0422768Y0429253D02*
X0417914Y0429253D01*
X0417914Y0429704D02*
X0422768Y0429704D01*
X0422768Y0430155D02*
X0417914Y0430155D01*
X0417914Y0430606D02*
X0422768Y0430606D01*
X0422768Y0431057D02*
X0417914Y0431057D01*
X0398358Y0430671D02*
X0398358Y0426605D01*
X0393504Y0426605D01*
X0393504Y0430671D01*
X0398358Y0430671D01*
X0398358Y0427056D02*
X0393504Y0427056D01*
X0393504Y0427507D02*
X0398358Y0427507D01*
X0398358Y0427958D02*
X0393504Y0427958D01*
X0393504Y0428409D02*
X0398358Y0428409D01*
X0398358Y0428860D02*
X0393504Y0428860D01*
X0393504Y0429311D02*
X0398358Y0429311D01*
X0398358Y0429762D02*
X0393504Y0429762D01*
X0393504Y0430213D02*
X0398358Y0430213D01*
X0398358Y0430664D02*
X0393504Y0430664D01*
X0398358Y0434085D02*
X0398358Y0438151D01*
X0398358Y0434085D02*
X0393504Y0434085D01*
X0393504Y0438151D01*
X0398358Y0438151D01*
X0398358Y0434536D02*
X0393504Y0434536D01*
X0393504Y0434987D02*
X0398358Y0434987D01*
X0398358Y0435438D02*
X0393504Y0435438D01*
X0393504Y0435889D02*
X0398358Y0435889D01*
X0398358Y0436340D02*
X0393504Y0436340D01*
X0393504Y0436791D02*
X0398358Y0436791D01*
X0398358Y0437242D02*
X0393504Y0437242D01*
X0393504Y0437693D02*
X0398358Y0437693D01*
X0398358Y0438144D02*
X0393504Y0438144D01*
X0524804Y0294124D02*
X0528870Y0294124D01*
X0524804Y0294124D02*
X0524804Y0298978D01*
X0528870Y0298978D01*
X0528870Y0294124D01*
X0528870Y0294575D02*
X0524804Y0294575D01*
X0524804Y0295026D02*
X0528870Y0295026D01*
X0528870Y0295477D02*
X0524804Y0295477D01*
X0524804Y0295928D02*
X0528870Y0295928D01*
X0528870Y0296379D02*
X0524804Y0296379D01*
X0524804Y0296830D02*
X0528870Y0296830D01*
X0528870Y0297281D02*
X0524804Y0297281D01*
X0524804Y0297732D02*
X0528870Y0297732D01*
X0528870Y0298183D02*
X0524804Y0298183D01*
X0524804Y0298634D02*
X0528870Y0298634D01*
X0532284Y0294124D02*
X0536350Y0294124D01*
X0532284Y0294124D02*
X0532284Y0298978D01*
X0536350Y0298978D01*
X0536350Y0294124D01*
X0536350Y0294575D02*
X0532284Y0294575D01*
X0532284Y0295026D02*
X0536350Y0295026D01*
X0536350Y0295477D02*
X0532284Y0295477D01*
X0532284Y0295928D02*
X0536350Y0295928D01*
X0536350Y0296379D02*
X0532284Y0296379D01*
X0532284Y0296830D02*
X0536350Y0296830D01*
X0536350Y0297281D02*
X0532284Y0297281D01*
X0532284Y0297732D02*
X0536350Y0297732D01*
X0536350Y0298183D02*
X0532284Y0298183D01*
X0532284Y0298634D02*
X0536350Y0298634D01*
X0534775Y0279951D02*
X0530709Y0279951D01*
X0530709Y0284805D01*
X0534775Y0284805D01*
X0534775Y0279951D01*
X0534775Y0280402D02*
X0530709Y0280402D01*
X0530709Y0280853D02*
X0534775Y0280853D01*
X0534775Y0281304D02*
X0530709Y0281304D01*
X0530709Y0281755D02*
X0534775Y0281755D01*
X0534775Y0282206D02*
X0530709Y0282206D01*
X0530709Y0282657D02*
X0534775Y0282657D01*
X0534775Y0283108D02*
X0530709Y0283108D01*
X0530709Y0283559D02*
X0534775Y0283559D01*
X0534775Y0284010D02*
X0530709Y0284010D01*
X0530709Y0284461D02*
X0534775Y0284461D01*
X0527295Y0279951D02*
X0523229Y0279951D01*
X0523229Y0284805D01*
X0527295Y0284805D01*
X0527295Y0279951D01*
X0527295Y0280402D02*
X0523229Y0280402D01*
X0523229Y0280853D02*
X0527295Y0280853D01*
X0527295Y0281304D02*
X0523229Y0281304D01*
X0523229Y0281755D02*
X0527295Y0281755D01*
X0527295Y0282206D02*
X0523229Y0282206D01*
X0523229Y0282657D02*
X0527295Y0282657D01*
X0527295Y0283108D02*
X0523229Y0283108D01*
X0523229Y0283559D02*
X0527295Y0283559D01*
X0527295Y0284010D02*
X0523229Y0284010D01*
X0523229Y0284461D02*
X0527295Y0284461D01*
X0526901Y0265384D02*
X0522835Y0265384D01*
X0522835Y0270238D01*
X0526901Y0270238D01*
X0526901Y0265384D01*
X0526901Y0265835D02*
X0522835Y0265835D01*
X0522835Y0266286D02*
X0526901Y0266286D01*
X0526901Y0266737D02*
X0522835Y0266737D01*
X0522835Y0267188D02*
X0526901Y0267188D01*
X0526901Y0267639D02*
X0522835Y0267639D01*
X0522835Y0268090D02*
X0526901Y0268090D01*
X0526901Y0268541D02*
X0522835Y0268541D01*
X0522835Y0268992D02*
X0526901Y0268992D01*
X0526901Y0269443D02*
X0522835Y0269443D01*
X0522835Y0269894D02*
X0526901Y0269894D01*
X0530315Y0265384D02*
X0534381Y0265384D01*
X0530315Y0265384D02*
X0530315Y0270238D01*
X0534381Y0270238D01*
X0534381Y0265384D01*
X0534381Y0265835D02*
X0530315Y0265835D01*
X0530315Y0266286D02*
X0534381Y0266286D01*
X0534381Y0266737D02*
X0530315Y0266737D01*
X0530315Y0267188D02*
X0534381Y0267188D01*
X0534381Y0267639D02*
X0530315Y0267639D01*
X0530315Y0268090D02*
X0534381Y0268090D01*
X0534381Y0268541D02*
X0530315Y0268541D01*
X0530315Y0268992D02*
X0534381Y0268992D01*
X0534381Y0269443D02*
X0530315Y0269443D01*
X0530315Y0269894D02*
X0534381Y0269894D01*
X0533594Y0244124D02*
X0529528Y0244124D01*
X0529528Y0248978D01*
X0533594Y0248978D01*
X0533594Y0244124D01*
X0533594Y0244575D02*
X0529528Y0244575D01*
X0529528Y0245026D02*
X0533594Y0245026D01*
X0533594Y0245477D02*
X0529528Y0245477D01*
X0529528Y0245928D02*
X0533594Y0245928D01*
X0533594Y0246379D02*
X0529528Y0246379D01*
X0529528Y0246830D02*
X0533594Y0246830D01*
X0533594Y0247281D02*
X0529528Y0247281D01*
X0529528Y0247732D02*
X0533594Y0247732D01*
X0533594Y0248183D02*
X0529528Y0248183D01*
X0529528Y0248634D02*
X0533594Y0248634D01*
X0537008Y0244124D02*
X0541074Y0244124D01*
X0537008Y0244124D02*
X0537008Y0248978D01*
X0541074Y0248978D01*
X0541074Y0244124D01*
X0541074Y0244575D02*
X0537008Y0244575D01*
X0537008Y0245026D02*
X0541074Y0245026D01*
X0541074Y0245477D02*
X0537008Y0245477D01*
X0537008Y0245928D02*
X0541074Y0245928D01*
X0541074Y0246379D02*
X0537008Y0246379D01*
X0537008Y0246830D02*
X0541074Y0246830D01*
X0541074Y0247281D02*
X0537008Y0247281D01*
X0537008Y0247732D02*
X0541074Y0247732D01*
X0541074Y0248183D02*
X0537008Y0248183D01*
X0537008Y0248634D02*
X0541074Y0248634D01*
X0540287Y0231919D02*
X0536221Y0231919D01*
X0536221Y0236773D01*
X0540287Y0236773D01*
X0540287Y0231919D01*
X0540287Y0232370D02*
X0536221Y0232370D01*
X0536221Y0232821D02*
X0540287Y0232821D01*
X0540287Y0233272D02*
X0536221Y0233272D01*
X0536221Y0233723D02*
X0540287Y0233723D01*
X0540287Y0234174D02*
X0536221Y0234174D01*
X0536221Y0234625D02*
X0540287Y0234625D01*
X0540287Y0235076D02*
X0536221Y0235076D01*
X0536221Y0235527D02*
X0540287Y0235527D01*
X0540287Y0235978D02*
X0536221Y0235978D01*
X0536221Y0236429D02*
X0540287Y0236429D01*
X0532807Y0231919D02*
X0528741Y0231919D01*
X0528741Y0236773D01*
X0532807Y0236773D01*
X0532807Y0231919D01*
X0532807Y0232370D02*
X0528741Y0232370D01*
X0528741Y0232821D02*
X0532807Y0232821D01*
X0532807Y0233272D02*
X0528741Y0233272D01*
X0528741Y0233723D02*
X0532807Y0233723D01*
X0532807Y0234174D02*
X0528741Y0234174D01*
X0528741Y0234625D02*
X0532807Y0234625D01*
X0532807Y0235076D02*
X0528741Y0235076D01*
X0528741Y0235527D02*
X0532807Y0235527D01*
X0532807Y0235978D02*
X0528741Y0235978D01*
X0528741Y0236429D02*
X0532807Y0236429D01*
X0532807Y0221683D02*
X0528741Y0221683D01*
X0528741Y0226537D01*
X0532807Y0226537D01*
X0532807Y0221683D01*
X0532807Y0222134D02*
X0528741Y0222134D01*
X0528741Y0222585D02*
X0532807Y0222585D01*
X0532807Y0223036D02*
X0528741Y0223036D01*
X0528741Y0223487D02*
X0532807Y0223487D01*
X0532807Y0223938D02*
X0528741Y0223938D01*
X0528741Y0224389D02*
X0532807Y0224389D01*
X0532807Y0224840D02*
X0528741Y0224840D01*
X0528741Y0225291D02*
X0532807Y0225291D01*
X0532807Y0225742D02*
X0528741Y0225742D01*
X0528741Y0226193D02*
X0532807Y0226193D01*
X0536221Y0221683D02*
X0540287Y0221683D01*
X0536221Y0221683D02*
X0536221Y0226537D01*
X0540287Y0226537D01*
X0540287Y0221683D01*
X0540287Y0222134D02*
X0536221Y0222134D01*
X0536221Y0222585D02*
X0540287Y0222585D01*
X0540287Y0223036D02*
X0536221Y0223036D01*
X0536221Y0223487D02*
X0540287Y0223487D01*
X0540287Y0223938D02*
X0536221Y0223938D01*
X0536221Y0224389D02*
X0540287Y0224389D01*
X0540287Y0224840D02*
X0536221Y0224840D01*
X0536221Y0225291D02*
X0540287Y0225291D01*
X0540287Y0225742D02*
X0536221Y0225742D01*
X0536221Y0226193D02*
X0540287Y0226193D01*
X0392649Y0219253D02*
X0392649Y0215187D01*
X0387795Y0215187D01*
X0387795Y0219253D01*
X0392649Y0219253D01*
X0392649Y0215638D02*
X0387795Y0215638D01*
X0387795Y0216089D02*
X0392649Y0216089D01*
X0392649Y0216540D02*
X0387795Y0216540D01*
X0387795Y0216991D02*
X0392649Y0216991D01*
X0392649Y0217442D02*
X0387795Y0217442D01*
X0387795Y0217893D02*
X0392649Y0217893D01*
X0392649Y0218344D02*
X0387795Y0218344D01*
X0387795Y0218795D02*
X0392649Y0218795D01*
X0392649Y0219246D02*
X0387795Y0219246D01*
X0392649Y0211773D02*
X0392649Y0207707D01*
X0387795Y0207707D01*
X0387795Y0211773D01*
X0392649Y0211773D01*
X0392649Y0208158D02*
X0387795Y0208158D01*
X0387795Y0208609D02*
X0392649Y0208609D01*
X0392649Y0209060D02*
X0387795Y0209060D01*
X0387795Y0209511D02*
X0392649Y0209511D01*
X0392649Y0209962D02*
X0387795Y0209962D01*
X0387795Y0210413D02*
X0392649Y0210413D01*
X0392649Y0210864D02*
X0387795Y0210864D01*
X0387795Y0211315D02*
X0392649Y0211315D01*
X0392649Y0211766D02*
X0387795Y0211766D01*
X0386418Y0196880D02*
X0390484Y0196880D01*
X0386418Y0196880D02*
X0386418Y0201734D01*
X0390484Y0201734D01*
X0390484Y0196880D01*
X0390484Y0197331D02*
X0386418Y0197331D01*
X0386418Y0197782D02*
X0390484Y0197782D01*
X0390484Y0198233D02*
X0386418Y0198233D01*
X0386418Y0198684D02*
X0390484Y0198684D01*
X0390484Y0199135D02*
X0386418Y0199135D01*
X0386418Y0199586D02*
X0390484Y0199586D01*
X0390484Y0200037D02*
X0386418Y0200037D01*
X0386418Y0200488D02*
X0390484Y0200488D01*
X0390484Y0200939D02*
X0386418Y0200939D01*
X0386418Y0201390D02*
X0390484Y0201390D01*
X0383003Y0196880D02*
X0378937Y0196880D01*
X0378937Y0201734D01*
X0383003Y0201734D01*
X0383003Y0196880D01*
X0383003Y0197331D02*
X0378937Y0197331D01*
X0378937Y0197782D02*
X0383003Y0197782D01*
X0383003Y0198233D02*
X0378937Y0198233D01*
X0378937Y0198684D02*
X0383003Y0198684D01*
X0383003Y0199135D02*
X0378937Y0199135D01*
X0378937Y0199586D02*
X0383003Y0199586D01*
X0383003Y0200037D02*
X0378937Y0200037D01*
X0378937Y0200488D02*
X0383003Y0200488D01*
X0383003Y0200939D02*
X0378937Y0200939D01*
X0378937Y0201390D02*
X0383003Y0201390D01*
M02*
