%
M48
M72
T01C0.02362
T02C0.03150
T03C0.03200
T04C0.03937
T05C0.04000
T06C0.04400
T07C0.05500
T08C0.06299
T09C0.08700
T10C0.11811
T11C0.12500
T12C0.12598
T13C0.13000
T14C0.16000
%
T01
X192388Y199307
T02
X268136Y227024
X268136Y237024
X268136Y247024
X268136Y257024
X268136Y267024
X268136Y277024
X268136Y287024
X268136Y297024
X268136Y307024
X254832Y327413
X246958Y327413
X239084Y327413
X231210Y327413
X223336Y327413
X215462Y327413
X207588Y327413
X199714Y327413
X191840Y327413
X183966Y327413
X183966Y414027
X191840Y414027
X199714Y414027
X207588Y414027
X215462Y414027
X223336Y414027
X231210Y414027
X239084Y414027
X246958Y414027
X254832Y414027
X396262Y296606
X405711Y296606
X415159Y296606
X425002Y296606
X434057Y296606
X472215Y318710
X482215Y318710
X492215Y318710
X502215Y318710
X512215Y318710
X522215Y318710
X532215Y318710
X542215Y318710
X552215Y318710
X567865Y319088
X577865Y319088
X577865Y329088
X567865Y329088
X567865Y339088
X577865Y339088
X577865Y349088
X567865Y349088
X567865Y359088
X577865Y359088
X577865Y309088
X567865Y309088
X567865Y299088
X567865Y289088
X577865Y289088
X577865Y299088
X577865Y279088
X567865Y279088
X567865Y269088
X567865Y259088
X577865Y259088
X577865Y269088
X577865Y249088
X567865Y249088
X567865Y239088
X567865Y229088
X577865Y229088
X577865Y239088
X577865Y219088
X577865Y209088
X567865Y209088
X567865Y219088
X567865Y199088
X577865Y199088
X577865Y189088
X567865Y189088
T03
X630695Y294583
X640695Y294583
T04
X537865Y359088
X527865Y359088
X517865Y359088
X507865Y359088
X497865Y359088
X487865Y359088
X477865Y359088
X467865Y359088
X447865Y359088
X437865Y359088
X427865Y359088
X417865Y359088
X407865Y359088
X397865Y359088
X387865Y359088
X377865Y359088
X361865Y359088
X351865Y359088
X341865Y359088
X331865Y359088
X321865Y359088
X311865Y359088
X301865Y359088
X291865Y359088
X281865Y359088
X271865Y359088
X433333Y455606
X448365Y279088
X458365Y279088
X458365Y269088
X458365Y259088
X448365Y259088
X448365Y269088
X447865Y169088
X457865Y169088
X467865Y169088
X487865Y169088
X497865Y169088
X507865Y169088
X517865Y169088
X527865Y169088
X537865Y169088
X547865Y169088
X557865Y169088
X437865Y169088
X427865Y169088
X417865Y169088
X407865Y169088
X397865Y169088
X377865Y169088
X367865Y169088
X357865Y169088
X347865Y169088
X337865Y169088
X327865Y169088
X317865Y169088
X307865Y169088
X273726Y140657
X261915Y121759
X249711Y140657
X433333Y99307
T05
X422665Y105129
X412665Y105129
X402665Y105129
X380665Y105529
X370665Y105529
X360665Y105529
X339465Y105529
X329465Y105529
X319465Y105529
X295065Y106329
X285065Y106329
X275065Y106329
X250144Y86512
X240144Y86512
X468367Y106901
X478367Y106901
X488367Y106901
X498367Y106901
X508367Y106901
X542602Y104729
X552602Y104729
X562602Y104729
X586139Y104729
X596139Y104729
X606139Y104729
X682506Y141236
X682506Y151236
X682506Y161236
X682506Y171236
X682506Y181236
X682506Y191236
X682506Y213165
X682506Y223165
X682506Y233165
X682506Y243165
X682506Y253165
X682506Y336276
X682506Y346276
X682506Y356276
X682506Y366276
X682506Y387457
X682506Y397457
X682506Y407457
X682506Y417457
X598333Y446512
X588333Y446512
X578333Y446512
X568333Y446512
X543215Y446512
X533215Y446512
X523215Y446512
X513215Y446512
X487033Y446512
X477033Y446512
X467033Y446512
T06
X187029Y158093
X197029Y158093
X207029Y158093
T07
X667821Y296157
T08
X595144Y264661
X530183Y211512
X510892Y223323
X507742Y284150
X484514Y346945
X472703Y344583
X487270Y379622
X496719Y386118
X446325Y428835
X341207Y341433
X317978Y326866
X354986Y307575
X376640Y288283
X400262Y270567
X388451Y262693
X435695Y313874
X423884Y321748
X319553Y413480
X207742Y275685
X318372Y194976
X365222Y194976
T09
X667821Y274157
X697821Y296157
X667821Y318157
T10
X669553Y455606
X669553Y99307
X197112Y99307
X165616Y277457
X197112Y455606
T11
X257865Y359088
X252865Y169088
X552865Y359088
X577865Y169088
T12
X445081Y337945
X385238Y337945
T13
X197029Y99093
T14
X472215Y204710
X552215Y204710
M30
