G75*
%MOIN*%
%OFA0B0*%
%FSLAX25Y25*%
%IPPOS*%
%LPD*%
%AMOC8*
5,1,8,0,0,1.08239X$1,22.5*
%
%ADD10C,0.00000*%
%ADD11C,0.01600*%
D10*
X0190529Y0099093D02*
X0190531Y0099254D01*
X0190537Y0099414D01*
X0190547Y0099575D01*
X0190561Y0099735D01*
X0190579Y0099895D01*
X0190600Y0100054D01*
X0190626Y0100213D01*
X0190656Y0100371D01*
X0190689Y0100528D01*
X0190727Y0100685D01*
X0190768Y0100840D01*
X0190813Y0100994D01*
X0190862Y0101147D01*
X0190915Y0101299D01*
X0190971Y0101450D01*
X0191032Y0101599D01*
X0191095Y0101747D01*
X0191163Y0101893D01*
X0191234Y0102037D01*
X0191308Y0102179D01*
X0191386Y0102320D01*
X0191468Y0102458D01*
X0191553Y0102595D01*
X0191641Y0102729D01*
X0191733Y0102861D01*
X0191828Y0102991D01*
X0191926Y0103119D01*
X0192027Y0103244D01*
X0192131Y0103366D01*
X0192238Y0103486D01*
X0192348Y0103603D01*
X0192461Y0103718D01*
X0192577Y0103829D01*
X0192696Y0103938D01*
X0192817Y0104043D01*
X0192941Y0104146D01*
X0193067Y0104246D01*
X0193195Y0104342D01*
X0193326Y0104435D01*
X0193460Y0104525D01*
X0193595Y0104612D01*
X0193733Y0104695D01*
X0193872Y0104775D01*
X0194014Y0104851D01*
X0194157Y0104924D01*
X0194302Y0104993D01*
X0194449Y0105059D01*
X0194597Y0105121D01*
X0194747Y0105179D01*
X0194898Y0105234D01*
X0195051Y0105285D01*
X0195205Y0105332D01*
X0195360Y0105375D01*
X0195516Y0105414D01*
X0195672Y0105450D01*
X0195830Y0105481D01*
X0195988Y0105509D01*
X0196147Y0105533D01*
X0196307Y0105553D01*
X0196467Y0105569D01*
X0196627Y0105581D01*
X0196788Y0105589D01*
X0196949Y0105593D01*
X0197109Y0105593D01*
X0197270Y0105589D01*
X0197431Y0105581D01*
X0197591Y0105569D01*
X0197751Y0105553D01*
X0197911Y0105533D01*
X0198070Y0105509D01*
X0198228Y0105481D01*
X0198386Y0105450D01*
X0198542Y0105414D01*
X0198698Y0105375D01*
X0198853Y0105332D01*
X0199007Y0105285D01*
X0199160Y0105234D01*
X0199311Y0105179D01*
X0199461Y0105121D01*
X0199609Y0105059D01*
X0199756Y0104993D01*
X0199901Y0104924D01*
X0200044Y0104851D01*
X0200186Y0104775D01*
X0200325Y0104695D01*
X0200463Y0104612D01*
X0200598Y0104525D01*
X0200732Y0104435D01*
X0200863Y0104342D01*
X0200991Y0104246D01*
X0201117Y0104146D01*
X0201241Y0104043D01*
X0201362Y0103938D01*
X0201481Y0103829D01*
X0201597Y0103718D01*
X0201710Y0103603D01*
X0201820Y0103486D01*
X0201927Y0103366D01*
X0202031Y0103244D01*
X0202132Y0103119D01*
X0202230Y0102991D01*
X0202325Y0102861D01*
X0202417Y0102729D01*
X0202505Y0102595D01*
X0202590Y0102458D01*
X0202672Y0102320D01*
X0202750Y0102179D01*
X0202824Y0102037D01*
X0202895Y0101893D01*
X0202963Y0101747D01*
X0203026Y0101599D01*
X0203087Y0101450D01*
X0203143Y0101299D01*
X0203196Y0101147D01*
X0203245Y0100994D01*
X0203290Y0100840D01*
X0203331Y0100685D01*
X0203369Y0100528D01*
X0203402Y0100371D01*
X0203432Y0100213D01*
X0203458Y0100054D01*
X0203479Y0099895D01*
X0203497Y0099735D01*
X0203511Y0099575D01*
X0203521Y0099414D01*
X0203527Y0099254D01*
X0203529Y0099093D01*
X0203527Y0098932D01*
X0203521Y0098772D01*
X0203511Y0098611D01*
X0203497Y0098451D01*
X0203479Y0098291D01*
X0203458Y0098132D01*
X0203432Y0097973D01*
X0203402Y0097815D01*
X0203369Y0097658D01*
X0203331Y0097501D01*
X0203290Y0097346D01*
X0203245Y0097192D01*
X0203196Y0097039D01*
X0203143Y0096887D01*
X0203087Y0096736D01*
X0203026Y0096587D01*
X0202963Y0096439D01*
X0202895Y0096293D01*
X0202824Y0096149D01*
X0202750Y0096007D01*
X0202672Y0095866D01*
X0202590Y0095728D01*
X0202505Y0095591D01*
X0202417Y0095457D01*
X0202325Y0095325D01*
X0202230Y0095195D01*
X0202132Y0095067D01*
X0202031Y0094942D01*
X0201927Y0094820D01*
X0201820Y0094700D01*
X0201710Y0094583D01*
X0201597Y0094468D01*
X0201481Y0094357D01*
X0201362Y0094248D01*
X0201241Y0094143D01*
X0201117Y0094040D01*
X0200991Y0093940D01*
X0200863Y0093844D01*
X0200732Y0093751D01*
X0200598Y0093661D01*
X0200463Y0093574D01*
X0200325Y0093491D01*
X0200186Y0093411D01*
X0200044Y0093335D01*
X0199901Y0093262D01*
X0199756Y0093193D01*
X0199609Y0093127D01*
X0199461Y0093065D01*
X0199311Y0093007D01*
X0199160Y0092952D01*
X0199007Y0092901D01*
X0198853Y0092854D01*
X0198698Y0092811D01*
X0198542Y0092772D01*
X0198386Y0092736D01*
X0198228Y0092705D01*
X0198070Y0092677D01*
X0197911Y0092653D01*
X0197751Y0092633D01*
X0197591Y0092617D01*
X0197431Y0092605D01*
X0197270Y0092597D01*
X0197109Y0092593D01*
X0196949Y0092593D01*
X0196788Y0092597D01*
X0196627Y0092605D01*
X0196467Y0092617D01*
X0196307Y0092633D01*
X0196147Y0092653D01*
X0195988Y0092677D01*
X0195830Y0092705D01*
X0195672Y0092736D01*
X0195516Y0092772D01*
X0195360Y0092811D01*
X0195205Y0092854D01*
X0195051Y0092901D01*
X0194898Y0092952D01*
X0194747Y0093007D01*
X0194597Y0093065D01*
X0194449Y0093127D01*
X0194302Y0093193D01*
X0194157Y0093262D01*
X0194014Y0093335D01*
X0193872Y0093411D01*
X0193733Y0093491D01*
X0193595Y0093574D01*
X0193460Y0093661D01*
X0193326Y0093751D01*
X0193195Y0093844D01*
X0193067Y0093940D01*
X0192941Y0094040D01*
X0192817Y0094143D01*
X0192696Y0094248D01*
X0192577Y0094357D01*
X0192461Y0094468D01*
X0192348Y0094583D01*
X0192238Y0094700D01*
X0192131Y0094820D01*
X0192027Y0094942D01*
X0191926Y0095067D01*
X0191828Y0095195D01*
X0191733Y0095325D01*
X0191641Y0095457D01*
X0191553Y0095591D01*
X0191468Y0095728D01*
X0191386Y0095866D01*
X0191308Y0096007D01*
X0191234Y0096149D01*
X0191163Y0096293D01*
X0191095Y0096439D01*
X0191032Y0096587D01*
X0190971Y0096736D01*
X0190915Y0096887D01*
X0190862Y0097039D01*
X0190813Y0097192D01*
X0190768Y0097346D01*
X0190727Y0097501D01*
X0190689Y0097658D01*
X0190656Y0097815D01*
X0190626Y0097973D01*
X0190600Y0098132D01*
X0190579Y0098291D01*
X0190561Y0098451D01*
X0190547Y0098611D01*
X0190537Y0098772D01*
X0190531Y0098932D01*
X0190529Y0099093D01*
X0191206Y0099307D02*
X0191208Y0099460D01*
X0191214Y0099614D01*
X0191224Y0099767D01*
X0191238Y0099919D01*
X0191256Y0100072D01*
X0191278Y0100223D01*
X0191303Y0100374D01*
X0191333Y0100525D01*
X0191367Y0100675D01*
X0191404Y0100823D01*
X0191445Y0100971D01*
X0191490Y0101117D01*
X0191539Y0101263D01*
X0191592Y0101407D01*
X0191648Y0101549D01*
X0191708Y0101690D01*
X0191772Y0101830D01*
X0191839Y0101968D01*
X0191910Y0102104D01*
X0191985Y0102238D01*
X0192062Y0102370D01*
X0192144Y0102500D01*
X0192228Y0102628D01*
X0192316Y0102754D01*
X0192407Y0102877D01*
X0192501Y0102998D01*
X0192599Y0103116D01*
X0192699Y0103232D01*
X0192803Y0103345D01*
X0192909Y0103456D01*
X0193018Y0103564D01*
X0193130Y0103669D01*
X0193244Y0103770D01*
X0193362Y0103869D01*
X0193481Y0103965D01*
X0193603Y0104058D01*
X0193728Y0104147D01*
X0193855Y0104234D01*
X0193984Y0104316D01*
X0194115Y0104396D01*
X0194248Y0104472D01*
X0194383Y0104545D01*
X0194520Y0104614D01*
X0194659Y0104679D01*
X0194799Y0104741D01*
X0194941Y0104799D01*
X0195084Y0104854D01*
X0195229Y0104905D01*
X0195375Y0104952D01*
X0195522Y0104995D01*
X0195670Y0105034D01*
X0195819Y0105070D01*
X0195969Y0105101D01*
X0196120Y0105129D01*
X0196271Y0105153D01*
X0196424Y0105173D01*
X0196576Y0105189D01*
X0196729Y0105201D01*
X0196882Y0105209D01*
X0197035Y0105213D01*
X0197189Y0105213D01*
X0197342Y0105209D01*
X0197495Y0105201D01*
X0197648Y0105189D01*
X0197800Y0105173D01*
X0197953Y0105153D01*
X0198104Y0105129D01*
X0198255Y0105101D01*
X0198405Y0105070D01*
X0198554Y0105034D01*
X0198702Y0104995D01*
X0198849Y0104952D01*
X0198995Y0104905D01*
X0199140Y0104854D01*
X0199283Y0104799D01*
X0199425Y0104741D01*
X0199565Y0104679D01*
X0199704Y0104614D01*
X0199841Y0104545D01*
X0199976Y0104472D01*
X0200109Y0104396D01*
X0200240Y0104316D01*
X0200369Y0104234D01*
X0200496Y0104147D01*
X0200621Y0104058D01*
X0200743Y0103965D01*
X0200862Y0103869D01*
X0200980Y0103770D01*
X0201094Y0103669D01*
X0201206Y0103564D01*
X0201315Y0103456D01*
X0201421Y0103345D01*
X0201525Y0103232D01*
X0201625Y0103116D01*
X0201723Y0102998D01*
X0201817Y0102877D01*
X0201908Y0102754D01*
X0201996Y0102628D01*
X0202080Y0102500D01*
X0202162Y0102370D01*
X0202239Y0102238D01*
X0202314Y0102104D01*
X0202385Y0101968D01*
X0202452Y0101830D01*
X0202516Y0101690D01*
X0202576Y0101549D01*
X0202632Y0101407D01*
X0202685Y0101263D01*
X0202734Y0101117D01*
X0202779Y0100971D01*
X0202820Y0100823D01*
X0202857Y0100675D01*
X0202891Y0100525D01*
X0202921Y0100374D01*
X0202946Y0100223D01*
X0202968Y0100072D01*
X0202986Y0099919D01*
X0203000Y0099767D01*
X0203010Y0099614D01*
X0203016Y0099460D01*
X0203018Y0099307D01*
X0203016Y0099154D01*
X0203010Y0099000D01*
X0203000Y0098847D01*
X0202986Y0098695D01*
X0202968Y0098542D01*
X0202946Y0098391D01*
X0202921Y0098240D01*
X0202891Y0098089D01*
X0202857Y0097939D01*
X0202820Y0097791D01*
X0202779Y0097643D01*
X0202734Y0097497D01*
X0202685Y0097351D01*
X0202632Y0097207D01*
X0202576Y0097065D01*
X0202516Y0096924D01*
X0202452Y0096784D01*
X0202385Y0096646D01*
X0202314Y0096510D01*
X0202239Y0096376D01*
X0202162Y0096244D01*
X0202080Y0096114D01*
X0201996Y0095986D01*
X0201908Y0095860D01*
X0201817Y0095737D01*
X0201723Y0095616D01*
X0201625Y0095498D01*
X0201525Y0095382D01*
X0201421Y0095269D01*
X0201315Y0095158D01*
X0201206Y0095050D01*
X0201094Y0094945D01*
X0200980Y0094844D01*
X0200862Y0094745D01*
X0200743Y0094649D01*
X0200621Y0094556D01*
X0200496Y0094467D01*
X0200369Y0094380D01*
X0200240Y0094298D01*
X0200109Y0094218D01*
X0199976Y0094142D01*
X0199841Y0094069D01*
X0199704Y0094000D01*
X0199565Y0093935D01*
X0199425Y0093873D01*
X0199283Y0093815D01*
X0199140Y0093760D01*
X0198995Y0093709D01*
X0198849Y0093662D01*
X0198702Y0093619D01*
X0198554Y0093580D01*
X0198405Y0093544D01*
X0198255Y0093513D01*
X0198104Y0093485D01*
X0197953Y0093461D01*
X0197800Y0093441D01*
X0197648Y0093425D01*
X0197495Y0093413D01*
X0197342Y0093405D01*
X0197189Y0093401D01*
X0197035Y0093401D01*
X0196882Y0093405D01*
X0196729Y0093413D01*
X0196576Y0093425D01*
X0196424Y0093441D01*
X0196271Y0093461D01*
X0196120Y0093485D01*
X0195969Y0093513D01*
X0195819Y0093544D01*
X0195670Y0093580D01*
X0195522Y0093619D01*
X0195375Y0093662D01*
X0195229Y0093709D01*
X0195084Y0093760D01*
X0194941Y0093815D01*
X0194799Y0093873D01*
X0194659Y0093935D01*
X0194520Y0094000D01*
X0194383Y0094069D01*
X0194248Y0094142D01*
X0194115Y0094218D01*
X0193984Y0094298D01*
X0193855Y0094380D01*
X0193728Y0094467D01*
X0193603Y0094556D01*
X0193481Y0094649D01*
X0193362Y0094745D01*
X0193244Y0094844D01*
X0193130Y0094945D01*
X0193018Y0095050D01*
X0192909Y0095158D01*
X0192803Y0095269D01*
X0192699Y0095382D01*
X0192599Y0095498D01*
X0192501Y0095616D01*
X0192407Y0095737D01*
X0192316Y0095860D01*
X0192228Y0095986D01*
X0192144Y0096114D01*
X0192062Y0096244D01*
X0191985Y0096376D01*
X0191910Y0096510D01*
X0191839Y0096646D01*
X0191772Y0096784D01*
X0191708Y0096924D01*
X0191648Y0097065D01*
X0191592Y0097207D01*
X0191539Y0097351D01*
X0191490Y0097497D01*
X0191445Y0097643D01*
X0191404Y0097791D01*
X0191367Y0097939D01*
X0191333Y0098089D01*
X0191303Y0098240D01*
X0191278Y0098391D01*
X0191256Y0098542D01*
X0191238Y0098695D01*
X0191224Y0098847D01*
X0191214Y0099000D01*
X0191208Y0099154D01*
X0191206Y0099307D01*
X0247742Y0134161D02*
X0251679Y0134161D01*
X0251679Y0147153D01*
X0247742Y0147153D01*
X0247742Y0134161D01*
X0256404Y0123728D02*
X0267427Y0123728D01*
X0267427Y0119791D01*
X0256404Y0119791D01*
X0256404Y0123728D01*
X0271758Y0135145D02*
X0275695Y0135145D01*
X0275695Y0146169D01*
X0271758Y0146169D01*
X0271758Y0135145D01*
X0246615Y0169088D02*
X0246617Y0169246D01*
X0246623Y0169403D01*
X0246633Y0169561D01*
X0246647Y0169718D01*
X0246665Y0169874D01*
X0246686Y0170031D01*
X0246712Y0170186D01*
X0246742Y0170341D01*
X0246775Y0170495D01*
X0246813Y0170648D01*
X0246854Y0170801D01*
X0246899Y0170952D01*
X0246948Y0171102D01*
X0247001Y0171250D01*
X0247057Y0171398D01*
X0247118Y0171543D01*
X0247181Y0171688D01*
X0247249Y0171830D01*
X0247320Y0171971D01*
X0247394Y0172110D01*
X0247472Y0172247D01*
X0247554Y0172382D01*
X0247638Y0172515D01*
X0247727Y0172646D01*
X0247818Y0172774D01*
X0247913Y0172901D01*
X0248010Y0173024D01*
X0248111Y0173146D01*
X0248215Y0173264D01*
X0248322Y0173380D01*
X0248432Y0173493D01*
X0248544Y0173604D01*
X0248660Y0173711D01*
X0248778Y0173816D01*
X0248898Y0173918D01*
X0249021Y0174016D01*
X0249147Y0174112D01*
X0249275Y0174204D01*
X0249405Y0174293D01*
X0249537Y0174379D01*
X0249672Y0174461D01*
X0249809Y0174540D01*
X0249947Y0174615D01*
X0250087Y0174687D01*
X0250230Y0174755D01*
X0250373Y0174820D01*
X0250519Y0174881D01*
X0250666Y0174938D01*
X0250814Y0174992D01*
X0250964Y0175042D01*
X0251114Y0175088D01*
X0251266Y0175130D01*
X0251419Y0175169D01*
X0251573Y0175203D01*
X0251728Y0175234D01*
X0251883Y0175260D01*
X0252039Y0175283D01*
X0252196Y0175302D01*
X0252353Y0175317D01*
X0252510Y0175328D01*
X0252668Y0175335D01*
X0252826Y0175338D01*
X0252983Y0175337D01*
X0253141Y0175332D01*
X0253298Y0175323D01*
X0253456Y0175310D01*
X0253612Y0175293D01*
X0253769Y0175272D01*
X0253924Y0175248D01*
X0254079Y0175219D01*
X0254234Y0175186D01*
X0254387Y0175150D01*
X0254540Y0175109D01*
X0254691Y0175065D01*
X0254841Y0175017D01*
X0254990Y0174966D01*
X0255138Y0174910D01*
X0255284Y0174851D01*
X0255429Y0174788D01*
X0255572Y0174721D01*
X0255713Y0174651D01*
X0255852Y0174578D01*
X0255990Y0174501D01*
X0256126Y0174420D01*
X0256259Y0174336D01*
X0256390Y0174249D01*
X0256519Y0174158D01*
X0256646Y0174064D01*
X0256771Y0173967D01*
X0256892Y0173867D01*
X0257012Y0173764D01*
X0257128Y0173658D01*
X0257242Y0173549D01*
X0257354Y0173437D01*
X0257462Y0173323D01*
X0257567Y0173205D01*
X0257670Y0173085D01*
X0257769Y0172963D01*
X0257865Y0172838D01*
X0257958Y0172710D01*
X0258048Y0172581D01*
X0258134Y0172449D01*
X0258218Y0172315D01*
X0258297Y0172179D01*
X0258374Y0172041D01*
X0258446Y0171901D01*
X0258515Y0171759D01*
X0258581Y0171616D01*
X0258643Y0171471D01*
X0258701Y0171324D01*
X0258756Y0171176D01*
X0258807Y0171027D01*
X0258854Y0170876D01*
X0258897Y0170725D01*
X0258936Y0170572D01*
X0258972Y0170418D01*
X0259003Y0170264D01*
X0259031Y0170109D01*
X0259055Y0169953D01*
X0259075Y0169796D01*
X0259091Y0169639D01*
X0259103Y0169482D01*
X0259111Y0169325D01*
X0259115Y0169167D01*
X0259115Y0169009D01*
X0259111Y0168851D01*
X0259103Y0168694D01*
X0259091Y0168537D01*
X0259075Y0168380D01*
X0259055Y0168223D01*
X0259031Y0168067D01*
X0259003Y0167912D01*
X0258972Y0167758D01*
X0258936Y0167604D01*
X0258897Y0167451D01*
X0258854Y0167300D01*
X0258807Y0167149D01*
X0258756Y0167000D01*
X0258701Y0166852D01*
X0258643Y0166705D01*
X0258581Y0166560D01*
X0258515Y0166417D01*
X0258446Y0166275D01*
X0258374Y0166135D01*
X0258297Y0165997D01*
X0258218Y0165861D01*
X0258134Y0165727D01*
X0258048Y0165595D01*
X0257958Y0165466D01*
X0257865Y0165338D01*
X0257769Y0165213D01*
X0257670Y0165091D01*
X0257567Y0164971D01*
X0257462Y0164853D01*
X0257354Y0164739D01*
X0257242Y0164627D01*
X0257128Y0164518D01*
X0257012Y0164412D01*
X0256892Y0164309D01*
X0256771Y0164209D01*
X0256646Y0164112D01*
X0256519Y0164018D01*
X0256390Y0163927D01*
X0256259Y0163840D01*
X0256126Y0163756D01*
X0255990Y0163675D01*
X0255852Y0163598D01*
X0255713Y0163525D01*
X0255572Y0163455D01*
X0255429Y0163388D01*
X0255284Y0163325D01*
X0255138Y0163266D01*
X0254990Y0163210D01*
X0254841Y0163159D01*
X0254691Y0163111D01*
X0254540Y0163067D01*
X0254387Y0163026D01*
X0254234Y0162990D01*
X0254079Y0162957D01*
X0253924Y0162928D01*
X0253769Y0162904D01*
X0253612Y0162883D01*
X0253456Y0162866D01*
X0253298Y0162853D01*
X0253141Y0162844D01*
X0252983Y0162839D01*
X0252826Y0162838D01*
X0252668Y0162841D01*
X0252510Y0162848D01*
X0252353Y0162859D01*
X0252196Y0162874D01*
X0252039Y0162893D01*
X0251883Y0162916D01*
X0251728Y0162942D01*
X0251573Y0162973D01*
X0251419Y0163007D01*
X0251266Y0163046D01*
X0251114Y0163088D01*
X0250964Y0163134D01*
X0250814Y0163184D01*
X0250666Y0163238D01*
X0250519Y0163295D01*
X0250373Y0163356D01*
X0250230Y0163421D01*
X0250087Y0163489D01*
X0249947Y0163561D01*
X0249809Y0163636D01*
X0249672Y0163715D01*
X0249537Y0163797D01*
X0249405Y0163883D01*
X0249275Y0163972D01*
X0249147Y0164064D01*
X0249021Y0164160D01*
X0248898Y0164258D01*
X0248778Y0164360D01*
X0248660Y0164465D01*
X0248544Y0164572D01*
X0248432Y0164683D01*
X0248322Y0164796D01*
X0248215Y0164912D01*
X0248111Y0165030D01*
X0248010Y0165152D01*
X0247913Y0165275D01*
X0247818Y0165402D01*
X0247727Y0165530D01*
X0247638Y0165661D01*
X0247554Y0165794D01*
X0247472Y0165929D01*
X0247394Y0166066D01*
X0247320Y0166205D01*
X0247249Y0166346D01*
X0247181Y0166488D01*
X0247118Y0166633D01*
X0247057Y0166778D01*
X0247001Y0166926D01*
X0246948Y0167074D01*
X0246899Y0167224D01*
X0246854Y0167375D01*
X0246813Y0167528D01*
X0246775Y0167681D01*
X0246742Y0167835D01*
X0246712Y0167990D01*
X0246686Y0168145D01*
X0246665Y0168302D01*
X0246647Y0168458D01*
X0246633Y0168615D01*
X0246623Y0168773D01*
X0246617Y0168930D01*
X0246615Y0169088D01*
X0159710Y0277457D02*
X0159712Y0277610D01*
X0159718Y0277764D01*
X0159728Y0277917D01*
X0159742Y0278069D01*
X0159760Y0278222D01*
X0159782Y0278373D01*
X0159807Y0278524D01*
X0159837Y0278675D01*
X0159871Y0278825D01*
X0159908Y0278973D01*
X0159949Y0279121D01*
X0159994Y0279267D01*
X0160043Y0279413D01*
X0160096Y0279557D01*
X0160152Y0279699D01*
X0160212Y0279840D01*
X0160276Y0279980D01*
X0160343Y0280118D01*
X0160414Y0280254D01*
X0160489Y0280388D01*
X0160566Y0280520D01*
X0160648Y0280650D01*
X0160732Y0280778D01*
X0160820Y0280904D01*
X0160911Y0281027D01*
X0161005Y0281148D01*
X0161103Y0281266D01*
X0161203Y0281382D01*
X0161307Y0281495D01*
X0161413Y0281606D01*
X0161522Y0281714D01*
X0161634Y0281819D01*
X0161748Y0281920D01*
X0161866Y0282019D01*
X0161985Y0282115D01*
X0162107Y0282208D01*
X0162232Y0282297D01*
X0162359Y0282384D01*
X0162488Y0282466D01*
X0162619Y0282546D01*
X0162752Y0282622D01*
X0162887Y0282695D01*
X0163024Y0282764D01*
X0163163Y0282829D01*
X0163303Y0282891D01*
X0163445Y0282949D01*
X0163588Y0283004D01*
X0163733Y0283055D01*
X0163879Y0283102D01*
X0164026Y0283145D01*
X0164174Y0283184D01*
X0164323Y0283220D01*
X0164473Y0283251D01*
X0164624Y0283279D01*
X0164775Y0283303D01*
X0164928Y0283323D01*
X0165080Y0283339D01*
X0165233Y0283351D01*
X0165386Y0283359D01*
X0165539Y0283363D01*
X0165693Y0283363D01*
X0165846Y0283359D01*
X0165999Y0283351D01*
X0166152Y0283339D01*
X0166304Y0283323D01*
X0166457Y0283303D01*
X0166608Y0283279D01*
X0166759Y0283251D01*
X0166909Y0283220D01*
X0167058Y0283184D01*
X0167206Y0283145D01*
X0167353Y0283102D01*
X0167499Y0283055D01*
X0167644Y0283004D01*
X0167787Y0282949D01*
X0167929Y0282891D01*
X0168069Y0282829D01*
X0168208Y0282764D01*
X0168345Y0282695D01*
X0168480Y0282622D01*
X0168613Y0282546D01*
X0168744Y0282466D01*
X0168873Y0282384D01*
X0169000Y0282297D01*
X0169125Y0282208D01*
X0169247Y0282115D01*
X0169366Y0282019D01*
X0169484Y0281920D01*
X0169598Y0281819D01*
X0169710Y0281714D01*
X0169819Y0281606D01*
X0169925Y0281495D01*
X0170029Y0281382D01*
X0170129Y0281266D01*
X0170227Y0281148D01*
X0170321Y0281027D01*
X0170412Y0280904D01*
X0170500Y0280778D01*
X0170584Y0280650D01*
X0170666Y0280520D01*
X0170743Y0280388D01*
X0170818Y0280254D01*
X0170889Y0280118D01*
X0170956Y0279980D01*
X0171020Y0279840D01*
X0171080Y0279699D01*
X0171136Y0279557D01*
X0171189Y0279413D01*
X0171238Y0279267D01*
X0171283Y0279121D01*
X0171324Y0278973D01*
X0171361Y0278825D01*
X0171395Y0278675D01*
X0171425Y0278524D01*
X0171450Y0278373D01*
X0171472Y0278222D01*
X0171490Y0278069D01*
X0171504Y0277917D01*
X0171514Y0277764D01*
X0171520Y0277610D01*
X0171522Y0277457D01*
X0171520Y0277304D01*
X0171514Y0277150D01*
X0171504Y0276997D01*
X0171490Y0276845D01*
X0171472Y0276692D01*
X0171450Y0276541D01*
X0171425Y0276390D01*
X0171395Y0276239D01*
X0171361Y0276089D01*
X0171324Y0275941D01*
X0171283Y0275793D01*
X0171238Y0275647D01*
X0171189Y0275501D01*
X0171136Y0275357D01*
X0171080Y0275215D01*
X0171020Y0275074D01*
X0170956Y0274934D01*
X0170889Y0274796D01*
X0170818Y0274660D01*
X0170743Y0274526D01*
X0170666Y0274394D01*
X0170584Y0274264D01*
X0170500Y0274136D01*
X0170412Y0274010D01*
X0170321Y0273887D01*
X0170227Y0273766D01*
X0170129Y0273648D01*
X0170029Y0273532D01*
X0169925Y0273419D01*
X0169819Y0273308D01*
X0169710Y0273200D01*
X0169598Y0273095D01*
X0169484Y0272994D01*
X0169366Y0272895D01*
X0169247Y0272799D01*
X0169125Y0272706D01*
X0169000Y0272617D01*
X0168873Y0272530D01*
X0168744Y0272448D01*
X0168613Y0272368D01*
X0168480Y0272292D01*
X0168345Y0272219D01*
X0168208Y0272150D01*
X0168069Y0272085D01*
X0167929Y0272023D01*
X0167787Y0271965D01*
X0167644Y0271910D01*
X0167499Y0271859D01*
X0167353Y0271812D01*
X0167206Y0271769D01*
X0167058Y0271730D01*
X0166909Y0271694D01*
X0166759Y0271663D01*
X0166608Y0271635D01*
X0166457Y0271611D01*
X0166304Y0271591D01*
X0166152Y0271575D01*
X0165999Y0271563D01*
X0165846Y0271555D01*
X0165693Y0271551D01*
X0165539Y0271551D01*
X0165386Y0271555D01*
X0165233Y0271563D01*
X0165080Y0271575D01*
X0164928Y0271591D01*
X0164775Y0271611D01*
X0164624Y0271635D01*
X0164473Y0271663D01*
X0164323Y0271694D01*
X0164174Y0271730D01*
X0164026Y0271769D01*
X0163879Y0271812D01*
X0163733Y0271859D01*
X0163588Y0271910D01*
X0163445Y0271965D01*
X0163303Y0272023D01*
X0163163Y0272085D01*
X0163024Y0272150D01*
X0162887Y0272219D01*
X0162752Y0272292D01*
X0162619Y0272368D01*
X0162488Y0272448D01*
X0162359Y0272530D01*
X0162232Y0272617D01*
X0162107Y0272706D01*
X0161985Y0272799D01*
X0161866Y0272895D01*
X0161748Y0272994D01*
X0161634Y0273095D01*
X0161522Y0273200D01*
X0161413Y0273308D01*
X0161307Y0273419D01*
X0161203Y0273532D01*
X0161103Y0273648D01*
X0161005Y0273766D01*
X0160911Y0273887D01*
X0160820Y0274010D01*
X0160732Y0274136D01*
X0160648Y0274264D01*
X0160566Y0274394D01*
X0160489Y0274526D01*
X0160414Y0274660D01*
X0160343Y0274796D01*
X0160276Y0274934D01*
X0160212Y0275074D01*
X0160152Y0275215D01*
X0160096Y0275357D01*
X0160043Y0275501D01*
X0159994Y0275647D01*
X0159949Y0275793D01*
X0159908Y0275941D01*
X0159871Y0276089D01*
X0159837Y0276239D01*
X0159807Y0276390D01*
X0159782Y0276541D01*
X0159760Y0276692D01*
X0159742Y0276845D01*
X0159728Y0276997D01*
X0159718Y0277150D01*
X0159712Y0277304D01*
X0159710Y0277457D01*
X0251615Y0359088D02*
X0251617Y0359246D01*
X0251623Y0359403D01*
X0251633Y0359561D01*
X0251647Y0359718D01*
X0251665Y0359874D01*
X0251686Y0360031D01*
X0251712Y0360186D01*
X0251742Y0360341D01*
X0251775Y0360495D01*
X0251813Y0360648D01*
X0251854Y0360801D01*
X0251899Y0360952D01*
X0251948Y0361102D01*
X0252001Y0361250D01*
X0252057Y0361398D01*
X0252118Y0361543D01*
X0252181Y0361688D01*
X0252249Y0361830D01*
X0252320Y0361971D01*
X0252394Y0362110D01*
X0252472Y0362247D01*
X0252554Y0362382D01*
X0252638Y0362515D01*
X0252727Y0362646D01*
X0252818Y0362774D01*
X0252913Y0362901D01*
X0253010Y0363024D01*
X0253111Y0363146D01*
X0253215Y0363264D01*
X0253322Y0363380D01*
X0253432Y0363493D01*
X0253544Y0363604D01*
X0253660Y0363711D01*
X0253778Y0363816D01*
X0253898Y0363918D01*
X0254021Y0364016D01*
X0254147Y0364112D01*
X0254275Y0364204D01*
X0254405Y0364293D01*
X0254537Y0364379D01*
X0254672Y0364461D01*
X0254809Y0364540D01*
X0254947Y0364615D01*
X0255087Y0364687D01*
X0255230Y0364755D01*
X0255373Y0364820D01*
X0255519Y0364881D01*
X0255666Y0364938D01*
X0255814Y0364992D01*
X0255964Y0365042D01*
X0256114Y0365088D01*
X0256266Y0365130D01*
X0256419Y0365169D01*
X0256573Y0365203D01*
X0256728Y0365234D01*
X0256883Y0365260D01*
X0257039Y0365283D01*
X0257196Y0365302D01*
X0257353Y0365317D01*
X0257510Y0365328D01*
X0257668Y0365335D01*
X0257826Y0365338D01*
X0257983Y0365337D01*
X0258141Y0365332D01*
X0258298Y0365323D01*
X0258456Y0365310D01*
X0258612Y0365293D01*
X0258769Y0365272D01*
X0258924Y0365248D01*
X0259079Y0365219D01*
X0259234Y0365186D01*
X0259387Y0365150D01*
X0259540Y0365109D01*
X0259691Y0365065D01*
X0259841Y0365017D01*
X0259990Y0364966D01*
X0260138Y0364910D01*
X0260284Y0364851D01*
X0260429Y0364788D01*
X0260572Y0364721D01*
X0260713Y0364651D01*
X0260852Y0364578D01*
X0260990Y0364501D01*
X0261126Y0364420D01*
X0261259Y0364336D01*
X0261390Y0364249D01*
X0261519Y0364158D01*
X0261646Y0364064D01*
X0261771Y0363967D01*
X0261892Y0363867D01*
X0262012Y0363764D01*
X0262128Y0363658D01*
X0262242Y0363549D01*
X0262354Y0363437D01*
X0262462Y0363323D01*
X0262567Y0363205D01*
X0262670Y0363085D01*
X0262769Y0362963D01*
X0262865Y0362838D01*
X0262958Y0362710D01*
X0263048Y0362581D01*
X0263134Y0362449D01*
X0263218Y0362315D01*
X0263297Y0362179D01*
X0263374Y0362041D01*
X0263446Y0361901D01*
X0263515Y0361759D01*
X0263581Y0361616D01*
X0263643Y0361471D01*
X0263701Y0361324D01*
X0263756Y0361176D01*
X0263807Y0361027D01*
X0263854Y0360876D01*
X0263897Y0360725D01*
X0263936Y0360572D01*
X0263972Y0360418D01*
X0264003Y0360264D01*
X0264031Y0360109D01*
X0264055Y0359953D01*
X0264075Y0359796D01*
X0264091Y0359639D01*
X0264103Y0359482D01*
X0264111Y0359325D01*
X0264115Y0359167D01*
X0264115Y0359009D01*
X0264111Y0358851D01*
X0264103Y0358694D01*
X0264091Y0358537D01*
X0264075Y0358380D01*
X0264055Y0358223D01*
X0264031Y0358067D01*
X0264003Y0357912D01*
X0263972Y0357758D01*
X0263936Y0357604D01*
X0263897Y0357451D01*
X0263854Y0357300D01*
X0263807Y0357149D01*
X0263756Y0357000D01*
X0263701Y0356852D01*
X0263643Y0356705D01*
X0263581Y0356560D01*
X0263515Y0356417D01*
X0263446Y0356275D01*
X0263374Y0356135D01*
X0263297Y0355997D01*
X0263218Y0355861D01*
X0263134Y0355727D01*
X0263048Y0355595D01*
X0262958Y0355466D01*
X0262865Y0355338D01*
X0262769Y0355213D01*
X0262670Y0355091D01*
X0262567Y0354971D01*
X0262462Y0354853D01*
X0262354Y0354739D01*
X0262242Y0354627D01*
X0262128Y0354518D01*
X0262012Y0354412D01*
X0261892Y0354309D01*
X0261771Y0354209D01*
X0261646Y0354112D01*
X0261519Y0354018D01*
X0261390Y0353927D01*
X0261259Y0353840D01*
X0261126Y0353756D01*
X0260990Y0353675D01*
X0260852Y0353598D01*
X0260713Y0353525D01*
X0260572Y0353455D01*
X0260429Y0353388D01*
X0260284Y0353325D01*
X0260138Y0353266D01*
X0259990Y0353210D01*
X0259841Y0353159D01*
X0259691Y0353111D01*
X0259540Y0353067D01*
X0259387Y0353026D01*
X0259234Y0352990D01*
X0259079Y0352957D01*
X0258924Y0352928D01*
X0258769Y0352904D01*
X0258612Y0352883D01*
X0258456Y0352866D01*
X0258298Y0352853D01*
X0258141Y0352844D01*
X0257983Y0352839D01*
X0257826Y0352838D01*
X0257668Y0352841D01*
X0257510Y0352848D01*
X0257353Y0352859D01*
X0257196Y0352874D01*
X0257039Y0352893D01*
X0256883Y0352916D01*
X0256728Y0352942D01*
X0256573Y0352973D01*
X0256419Y0353007D01*
X0256266Y0353046D01*
X0256114Y0353088D01*
X0255964Y0353134D01*
X0255814Y0353184D01*
X0255666Y0353238D01*
X0255519Y0353295D01*
X0255373Y0353356D01*
X0255230Y0353421D01*
X0255087Y0353489D01*
X0254947Y0353561D01*
X0254809Y0353636D01*
X0254672Y0353715D01*
X0254537Y0353797D01*
X0254405Y0353883D01*
X0254275Y0353972D01*
X0254147Y0354064D01*
X0254021Y0354160D01*
X0253898Y0354258D01*
X0253778Y0354360D01*
X0253660Y0354465D01*
X0253544Y0354572D01*
X0253432Y0354683D01*
X0253322Y0354796D01*
X0253215Y0354912D01*
X0253111Y0355030D01*
X0253010Y0355152D01*
X0252913Y0355275D01*
X0252818Y0355402D01*
X0252727Y0355530D01*
X0252638Y0355661D01*
X0252554Y0355794D01*
X0252472Y0355929D01*
X0252394Y0356066D01*
X0252320Y0356205D01*
X0252249Y0356346D01*
X0252181Y0356488D01*
X0252118Y0356633D01*
X0252057Y0356778D01*
X0252001Y0356926D01*
X0251948Y0357074D01*
X0251899Y0357224D01*
X0251854Y0357375D01*
X0251813Y0357528D01*
X0251775Y0357681D01*
X0251742Y0357835D01*
X0251712Y0357990D01*
X0251686Y0358145D01*
X0251665Y0358302D01*
X0251647Y0358458D01*
X0251633Y0358615D01*
X0251623Y0358773D01*
X0251617Y0358930D01*
X0251615Y0359088D01*
X0191206Y0455606D02*
X0191208Y0455759D01*
X0191214Y0455913D01*
X0191224Y0456066D01*
X0191238Y0456218D01*
X0191256Y0456371D01*
X0191278Y0456522D01*
X0191303Y0456673D01*
X0191333Y0456824D01*
X0191367Y0456974D01*
X0191404Y0457122D01*
X0191445Y0457270D01*
X0191490Y0457416D01*
X0191539Y0457562D01*
X0191592Y0457706D01*
X0191648Y0457848D01*
X0191708Y0457989D01*
X0191772Y0458129D01*
X0191839Y0458267D01*
X0191910Y0458403D01*
X0191985Y0458537D01*
X0192062Y0458669D01*
X0192144Y0458799D01*
X0192228Y0458927D01*
X0192316Y0459053D01*
X0192407Y0459176D01*
X0192501Y0459297D01*
X0192599Y0459415D01*
X0192699Y0459531D01*
X0192803Y0459644D01*
X0192909Y0459755D01*
X0193018Y0459863D01*
X0193130Y0459968D01*
X0193244Y0460069D01*
X0193362Y0460168D01*
X0193481Y0460264D01*
X0193603Y0460357D01*
X0193728Y0460446D01*
X0193855Y0460533D01*
X0193984Y0460615D01*
X0194115Y0460695D01*
X0194248Y0460771D01*
X0194383Y0460844D01*
X0194520Y0460913D01*
X0194659Y0460978D01*
X0194799Y0461040D01*
X0194941Y0461098D01*
X0195084Y0461153D01*
X0195229Y0461204D01*
X0195375Y0461251D01*
X0195522Y0461294D01*
X0195670Y0461333D01*
X0195819Y0461369D01*
X0195969Y0461400D01*
X0196120Y0461428D01*
X0196271Y0461452D01*
X0196424Y0461472D01*
X0196576Y0461488D01*
X0196729Y0461500D01*
X0196882Y0461508D01*
X0197035Y0461512D01*
X0197189Y0461512D01*
X0197342Y0461508D01*
X0197495Y0461500D01*
X0197648Y0461488D01*
X0197800Y0461472D01*
X0197953Y0461452D01*
X0198104Y0461428D01*
X0198255Y0461400D01*
X0198405Y0461369D01*
X0198554Y0461333D01*
X0198702Y0461294D01*
X0198849Y0461251D01*
X0198995Y0461204D01*
X0199140Y0461153D01*
X0199283Y0461098D01*
X0199425Y0461040D01*
X0199565Y0460978D01*
X0199704Y0460913D01*
X0199841Y0460844D01*
X0199976Y0460771D01*
X0200109Y0460695D01*
X0200240Y0460615D01*
X0200369Y0460533D01*
X0200496Y0460446D01*
X0200621Y0460357D01*
X0200743Y0460264D01*
X0200862Y0460168D01*
X0200980Y0460069D01*
X0201094Y0459968D01*
X0201206Y0459863D01*
X0201315Y0459755D01*
X0201421Y0459644D01*
X0201525Y0459531D01*
X0201625Y0459415D01*
X0201723Y0459297D01*
X0201817Y0459176D01*
X0201908Y0459053D01*
X0201996Y0458927D01*
X0202080Y0458799D01*
X0202162Y0458669D01*
X0202239Y0458537D01*
X0202314Y0458403D01*
X0202385Y0458267D01*
X0202452Y0458129D01*
X0202516Y0457989D01*
X0202576Y0457848D01*
X0202632Y0457706D01*
X0202685Y0457562D01*
X0202734Y0457416D01*
X0202779Y0457270D01*
X0202820Y0457122D01*
X0202857Y0456974D01*
X0202891Y0456824D01*
X0202921Y0456673D01*
X0202946Y0456522D01*
X0202968Y0456371D01*
X0202986Y0456218D01*
X0203000Y0456066D01*
X0203010Y0455913D01*
X0203016Y0455759D01*
X0203018Y0455606D01*
X0203016Y0455453D01*
X0203010Y0455299D01*
X0203000Y0455146D01*
X0202986Y0454994D01*
X0202968Y0454841D01*
X0202946Y0454690D01*
X0202921Y0454539D01*
X0202891Y0454388D01*
X0202857Y0454238D01*
X0202820Y0454090D01*
X0202779Y0453942D01*
X0202734Y0453796D01*
X0202685Y0453650D01*
X0202632Y0453506D01*
X0202576Y0453364D01*
X0202516Y0453223D01*
X0202452Y0453083D01*
X0202385Y0452945D01*
X0202314Y0452809D01*
X0202239Y0452675D01*
X0202162Y0452543D01*
X0202080Y0452413D01*
X0201996Y0452285D01*
X0201908Y0452159D01*
X0201817Y0452036D01*
X0201723Y0451915D01*
X0201625Y0451797D01*
X0201525Y0451681D01*
X0201421Y0451568D01*
X0201315Y0451457D01*
X0201206Y0451349D01*
X0201094Y0451244D01*
X0200980Y0451143D01*
X0200862Y0451044D01*
X0200743Y0450948D01*
X0200621Y0450855D01*
X0200496Y0450766D01*
X0200369Y0450679D01*
X0200240Y0450597D01*
X0200109Y0450517D01*
X0199976Y0450441D01*
X0199841Y0450368D01*
X0199704Y0450299D01*
X0199565Y0450234D01*
X0199425Y0450172D01*
X0199283Y0450114D01*
X0199140Y0450059D01*
X0198995Y0450008D01*
X0198849Y0449961D01*
X0198702Y0449918D01*
X0198554Y0449879D01*
X0198405Y0449843D01*
X0198255Y0449812D01*
X0198104Y0449784D01*
X0197953Y0449760D01*
X0197800Y0449740D01*
X0197648Y0449724D01*
X0197495Y0449712D01*
X0197342Y0449704D01*
X0197189Y0449700D01*
X0197035Y0449700D01*
X0196882Y0449704D01*
X0196729Y0449712D01*
X0196576Y0449724D01*
X0196424Y0449740D01*
X0196271Y0449760D01*
X0196120Y0449784D01*
X0195969Y0449812D01*
X0195819Y0449843D01*
X0195670Y0449879D01*
X0195522Y0449918D01*
X0195375Y0449961D01*
X0195229Y0450008D01*
X0195084Y0450059D01*
X0194941Y0450114D01*
X0194799Y0450172D01*
X0194659Y0450234D01*
X0194520Y0450299D01*
X0194383Y0450368D01*
X0194248Y0450441D01*
X0194115Y0450517D01*
X0193984Y0450597D01*
X0193855Y0450679D01*
X0193728Y0450766D01*
X0193603Y0450855D01*
X0193481Y0450948D01*
X0193362Y0451044D01*
X0193244Y0451143D01*
X0193130Y0451244D01*
X0193018Y0451349D01*
X0192909Y0451457D01*
X0192803Y0451568D01*
X0192699Y0451681D01*
X0192599Y0451797D01*
X0192501Y0451915D01*
X0192407Y0452036D01*
X0192316Y0452159D01*
X0192228Y0452285D01*
X0192144Y0452413D01*
X0192062Y0452543D01*
X0191985Y0452675D01*
X0191910Y0452809D01*
X0191839Y0452945D01*
X0191772Y0453083D01*
X0191708Y0453223D01*
X0191648Y0453364D01*
X0191592Y0453506D01*
X0191539Y0453650D01*
X0191490Y0453796D01*
X0191445Y0453942D01*
X0191404Y0454090D01*
X0191367Y0454238D01*
X0191333Y0454388D01*
X0191303Y0454539D01*
X0191278Y0454690D01*
X0191256Y0454841D01*
X0191238Y0454994D01*
X0191224Y0455146D01*
X0191214Y0455299D01*
X0191208Y0455453D01*
X0191206Y0455606D01*
X0378939Y0337945D02*
X0378941Y0338103D01*
X0378947Y0338261D01*
X0378957Y0338419D01*
X0378971Y0338577D01*
X0378989Y0338734D01*
X0379010Y0338891D01*
X0379036Y0339047D01*
X0379066Y0339203D01*
X0379099Y0339358D01*
X0379137Y0339511D01*
X0379178Y0339664D01*
X0379223Y0339816D01*
X0379272Y0339967D01*
X0379325Y0340116D01*
X0379381Y0340264D01*
X0379441Y0340410D01*
X0379505Y0340555D01*
X0379573Y0340698D01*
X0379644Y0340840D01*
X0379718Y0340980D01*
X0379796Y0341117D01*
X0379878Y0341253D01*
X0379962Y0341387D01*
X0380051Y0341518D01*
X0380142Y0341647D01*
X0380237Y0341774D01*
X0380334Y0341899D01*
X0380435Y0342021D01*
X0380539Y0342140D01*
X0380646Y0342257D01*
X0380756Y0342371D01*
X0380869Y0342482D01*
X0380984Y0342591D01*
X0381102Y0342696D01*
X0381223Y0342798D01*
X0381346Y0342898D01*
X0381472Y0342994D01*
X0381600Y0343087D01*
X0381730Y0343177D01*
X0381863Y0343263D01*
X0381998Y0343347D01*
X0382134Y0343426D01*
X0382273Y0343503D01*
X0382414Y0343575D01*
X0382556Y0343645D01*
X0382700Y0343710D01*
X0382846Y0343772D01*
X0382993Y0343830D01*
X0383142Y0343885D01*
X0383292Y0343936D01*
X0383443Y0343983D01*
X0383595Y0344026D01*
X0383748Y0344065D01*
X0383903Y0344101D01*
X0384058Y0344132D01*
X0384214Y0344160D01*
X0384370Y0344184D01*
X0384527Y0344204D01*
X0384685Y0344220D01*
X0384842Y0344232D01*
X0385001Y0344240D01*
X0385159Y0344244D01*
X0385317Y0344244D01*
X0385475Y0344240D01*
X0385634Y0344232D01*
X0385791Y0344220D01*
X0385949Y0344204D01*
X0386106Y0344184D01*
X0386262Y0344160D01*
X0386418Y0344132D01*
X0386573Y0344101D01*
X0386728Y0344065D01*
X0386881Y0344026D01*
X0387033Y0343983D01*
X0387184Y0343936D01*
X0387334Y0343885D01*
X0387483Y0343830D01*
X0387630Y0343772D01*
X0387776Y0343710D01*
X0387920Y0343645D01*
X0388062Y0343575D01*
X0388203Y0343503D01*
X0388342Y0343426D01*
X0388478Y0343347D01*
X0388613Y0343263D01*
X0388746Y0343177D01*
X0388876Y0343087D01*
X0389004Y0342994D01*
X0389130Y0342898D01*
X0389253Y0342798D01*
X0389374Y0342696D01*
X0389492Y0342591D01*
X0389607Y0342482D01*
X0389720Y0342371D01*
X0389830Y0342257D01*
X0389937Y0342140D01*
X0390041Y0342021D01*
X0390142Y0341899D01*
X0390239Y0341774D01*
X0390334Y0341647D01*
X0390425Y0341518D01*
X0390514Y0341387D01*
X0390598Y0341253D01*
X0390680Y0341117D01*
X0390758Y0340980D01*
X0390832Y0340840D01*
X0390903Y0340698D01*
X0390971Y0340555D01*
X0391035Y0340410D01*
X0391095Y0340264D01*
X0391151Y0340116D01*
X0391204Y0339967D01*
X0391253Y0339816D01*
X0391298Y0339664D01*
X0391339Y0339511D01*
X0391377Y0339358D01*
X0391410Y0339203D01*
X0391440Y0339047D01*
X0391466Y0338891D01*
X0391487Y0338734D01*
X0391505Y0338577D01*
X0391519Y0338419D01*
X0391529Y0338261D01*
X0391535Y0338103D01*
X0391537Y0337945D01*
X0391535Y0337787D01*
X0391529Y0337629D01*
X0391519Y0337471D01*
X0391505Y0337313D01*
X0391487Y0337156D01*
X0391466Y0336999D01*
X0391440Y0336843D01*
X0391410Y0336687D01*
X0391377Y0336532D01*
X0391339Y0336379D01*
X0391298Y0336226D01*
X0391253Y0336074D01*
X0391204Y0335923D01*
X0391151Y0335774D01*
X0391095Y0335626D01*
X0391035Y0335480D01*
X0390971Y0335335D01*
X0390903Y0335192D01*
X0390832Y0335050D01*
X0390758Y0334910D01*
X0390680Y0334773D01*
X0390598Y0334637D01*
X0390514Y0334503D01*
X0390425Y0334372D01*
X0390334Y0334243D01*
X0390239Y0334116D01*
X0390142Y0333991D01*
X0390041Y0333869D01*
X0389937Y0333750D01*
X0389830Y0333633D01*
X0389720Y0333519D01*
X0389607Y0333408D01*
X0389492Y0333299D01*
X0389374Y0333194D01*
X0389253Y0333092D01*
X0389130Y0332992D01*
X0389004Y0332896D01*
X0388876Y0332803D01*
X0388746Y0332713D01*
X0388613Y0332627D01*
X0388478Y0332543D01*
X0388342Y0332464D01*
X0388203Y0332387D01*
X0388062Y0332315D01*
X0387920Y0332245D01*
X0387776Y0332180D01*
X0387630Y0332118D01*
X0387483Y0332060D01*
X0387334Y0332005D01*
X0387184Y0331954D01*
X0387033Y0331907D01*
X0386881Y0331864D01*
X0386728Y0331825D01*
X0386573Y0331789D01*
X0386418Y0331758D01*
X0386262Y0331730D01*
X0386106Y0331706D01*
X0385949Y0331686D01*
X0385791Y0331670D01*
X0385634Y0331658D01*
X0385475Y0331650D01*
X0385317Y0331646D01*
X0385159Y0331646D01*
X0385001Y0331650D01*
X0384842Y0331658D01*
X0384685Y0331670D01*
X0384527Y0331686D01*
X0384370Y0331706D01*
X0384214Y0331730D01*
X0384058Y0331758D01*
X0383903Y0331789D01*
X0383748Y0331825D01*
X0383595Y0331864D01*
X0383443Y0331907D01*
X0383292Y0331954D01*
X0383142Y0332005D01*
X0382993Y0332060D01*
X0382846Y0332118D01*
X0382700Y0332180D01*
X0382556Y0332245D01*
X0382414Y0332315D01*
X0382273Y0332387D01*
X0382134Y0332464D01*
X0381998Y0332543D01*
X0381863Y0332627D01*
X0381730Y0332713D01*
X0381600Y0332803D01*
X0381472Y0332896D01*
X0381346Y0332992D01*
X0381223Y0333092D01*
X0381102Y0333194D01*
X0380984Y0333299D01*
X0380869Y0333408D01*
X0380756Y0333519D01*
X0380646Y0333633D01*
X0380539Y0333750D01*
X0380435Y0333869D01*
X0380334Y0333991D01*
X0380237Y0334116D01*
X0380142Y0334243D01*
X0380051Y0334372D01*
X0379962Y0334503D01*
X0379878Y0334637D01*
X0379796Y0334773D01*
X0379718Y0334910D01*
X0379644Y0335050D01*
X0379573Y0335192D01*
X0379505Y0335335D01*
X0379441Y0335480D01*
X0379381Y0335626D01*
X0379325Y0335774D01*
X0379272Y0335923D01*
X0379223Y0336074D01*
X0379178Y0336226D01*
X0379137Y0336379D01*
X0379099Y0336532D01*
X0379066Y0336687D01*
X0379036Y0336843D01*
X0379010Y0336999D01*
X0378989Y0337156D01*
X0378971Y0337313D01*
X0378957Y0337471D01*
X0378947Y0337629D01*
X0378941Y0337787D01*
X0378939Y0337945D01*
X0438782Y0337945D02*
X0438784Y0338103D01*
X0438790Y0338261D01*
X0438800Y0338419D01*
X0438814Y0338577D01*
X0438832Y0338734D01*
X0438853Y0338891D01*
X0438879Y0339047D01*
X0438909Y0339203D01*
X0438942Y0339358D01*
X0438980Y0339511D01*
X0439021Y0339664D01*
X0439066Y0339816D01*
X0439115Y0339967D01*
X0439168Y0340116D01*
X0439224Y0340264D01*
X0439284Y0340410D01*
X0439348Y0340555D01*
X0439416Y0340698D01*
X0439487Y0340840D01*
X0439561Y0340980D01*
X0439639Y0341117D01*
X0439721Y0341253D01*
X0439805Y0341387D01*
X0439894Y0341518D01*
X0439985Y0341647D01*
X0440080Y0341774D01*
X0440177Y0341899D01*
X0440278Y0342021D01*
X0440382Y0342140D01*
X0440489Y0342257D01*
X0440599Y0342371D01*
X0440712Y0342482D01*
X0440827Y0342591D01*
X0440945Y0342696D01*
X0441066Y0342798D01*
X0441189Y0342898D01*
X0441315Y0342994D01*
X0441443Y0343087D01*
X0441573Y0343177D01*
X0441706Y0343263D01*
X0441841Y0343347D01*
X0441977Y0343426D01*
X0442116Y0343503D01*
X0442257Y0343575D01*
X0442399Y0343645D01*
X0442543Y0343710D01*
X0442689Y0343772D01*
X0442836Y0343830D01*
X0442985Y0343885D01*
X0443135Y0343936D01*
X0443286Y0343983D01*
X0443438Y0344026D01*
X0443591Y0344065D01*
X0443746Y0344101D01*
X0443901Y0344132D01*
X0444057Y0344160D01*
X0444213Y0344184D01*
X0444370Y0344204D01*
X0444528Y0344220D01*
X0444685Y0344232D01*
X0444844Y0344240D01*
X0445002Y0344244D01*
X0445160Y0344244D01*
X0445318Y0344240D01*
X0445477Y0344232D01*
X0445634Y0344220D01*
X0445792Y0344204D01*
X0445949Y0344184D01*
X0446105Y0344160D01*
X0446261Y0344132D01*
X0446416Y0344101D01*
X0446571Y0344065D01*
X0446724Y0344026D01*
X0446876Y0343983D01*
X0447027Y0343936D01*
X0447177Y0343885D01*
X0447326Y0343830D01*
X0447473Y0343772D01*
X0447619Y0343710D01*
X0447763Y0343645D01*
X0447905Y0343575D01*
X0448046Y0343503D01*
X0448185Y0343426D01*
X0448321Y0343347D01*
X0448456Y0343263D01*
X0448589Y0343177D01*
X0448719Y0343087D01*
X0448847Y0342994D01*
X0448973Y0342898D01*
X0449096Y0342798D01*
X0449217Y0342696D01*
X0449335Y0342591D01*
X0449450Y0342482D01*
X0449563Y0342371D01*
X0449673Y0342257D01*
X0449780Y0342140D01*
X0449884Y0342021D01*
X0449985Y0341899D01*
X0450082Y0341774D01*
X0450177Y0341647D01*
X0450268Y0341518D01*
X0450357Y0341387D01*
X0450441Y0341253D01*
X0450523Y0341117D01*
X0450601Y0340980D01*
X0450675Y0340840D01*
X0450746Y0340698D01*
X0450814Y0340555D01*
X0450878Y0340410D01*
X0450938Y0340264D01*
X0450994Y0340116D01*
X0451047Y0339967D01*
X0451096Y0339816D01*
X0451141Y0339664D01*
X0451182Y0339511D01*
X0451220Y0339358D01*
X0451253Y0339203D01*
X0451283Y0339047D01*
X0451309Y0338891D01*
X0451330Y0338734D01*
X0451348Y0338577D01*
X0451362Y0338419D01*
X0451372Y0338261D01*
X0451378Y0338103D01*
X0451380Y0337945D01*
X0451378Y0337787D01*
X0451372Y0337629D01*
X0451362Y0337471D01*
X0451348Y0337313D01*
X0451330Y0337156D01*
X0451309Y0336999D01*
X0451283Y0336843D01*
X0451253Y0336687D01*
X0451220Y0336532D01*
X0451182Y0336379D01*
X0451141Y0336226D01*
X0451096Y0336074D01*
X0451047Y0335923D01*
X0450994Y0335774D01*
X0450938Y0335626D01*
X0450878Y0335480D01*
X0450814Y0335335D01*
X0450746Y0335192D01*
X0450675Y0335050D01*
X0450601Y0334910D01*
X0450523Y0334773D01*
X0450441Y0334637D01*
X0450357Y0334503D01*
X0450268Y0334372D01*
X0450177Y0334243D01*
X0450082Y0334116D01*
X0449985Y0333991D01*
X0449884Y0333869D01*
X0449780Y0333750D01*
X0449673Y0333633D01*
X0449563Y0333519D01*
X0449450Y0333408D01*
X0449335Y0333299D01*
X0449217Y0333194D01*
X0449096Y0333092D01*
X0448973Y0332992D01*
X0448847Y0332896D01*
X0448719Y0332803D01*
X0448589Y0332713D01*
X0448456Y0332627D01*
X0448321Y0332543D01*
X0448185Y0332464D01*
X0448046Y0332387D01*
X0447905Y0332315D01*
X0447763Y0332245D01*
X0447619Y0332180D01*
X0447473Y0332118D01*
X0447326Y0332060D01*
X0447177Y0332005D01*
X0447027Y0331954D01*
X0446876Y0331907D01*
X0446724Y0331864D01*
X0446571Y0331825D01*
X0446416Y0331789D01*
X0446261Y0331758D01*
X0446105Y0331730D01*
X0445949Y0331706D01*
X0445792Y0331686D01*
X0445634Y0331670D01*
X0445477Y0331658D01*
X0445318Y0331650D01*
X0445160Y0331646D01*
X0445002Y0331646D01*
X0444844Y0331650D01*
X0444685Y0331658D01*
X0444528Y0331670D01*
X0444370Y0331686D01*
X0444213Y0331706D01*
X0444057Y0331730D01*
X0443901Y0331758D01*
X0443746Y0331789D01*
X0443591Y0331825D01*
X0443438Y0331864D01*
X0443286Y0331907D01*
X0443135Y0331954D01*
X0442985Y0332005D01*
X0442836Y0332060D01*
X0442689Y0332118D01*
X0442543Y0332180D01*
X0442399Y0332245D01*
X0442257Y0332315D01*
X0442116Y0332387D01*
X0441977Y0332464D01*
X0441841Y0332543D01*
X0441706Y0332627D01*
X0441573Y0332713D01*
X0441443Y0332803D01*
X0441315Y0332896D01*
X0441189Y0332992D01*
X0441066Y0333092D01*
X0440945Y0333194D01*
X0440827Y0333299D01*
X0440712Y0333408D01*
X0440599Y0333519D01*
X0440489Y0333633D01*
X0440382Y0333750D01*
X0440278Y0333869D01*
X0440177Y0333991D01*
X0440080Y0334116D01*
X0439985Y0334243D01*
X0439894Y0334372D01*
X0439805Y0334503D01*
X0439721Y0334637D01*
X0439639Y0334773D01*
X0439561Y0334910D01*
X0439487Y0335050D01*
X0439416Y0335192D01*
X0439348Y0335335D01*
X0439284Y0335480D01*
X0439224Y0335626D01*
X0439168Y0335774D01*
X0439115Y0335923D01*
X0439066Y0336074D01*
X0439021Y0336226D01*
X0438980Y0336379D01*
X0438942Y0336532D01*
X0438909Y0336687D01*
X0438879Y0336843D01*
X0438853Y0336999D01*
X0438832Y0337156D01*
X0438814Y0337313D01*
X0438800Y0337471D01*
X0438790Y0337629D01*
X0438784Y0337787D01*
X0438782Y0337945D01*
X0546615Y0359088D02*
X0546617Y0359246D01*
X0546623Y0359403D01*
X0546633Y0359561D01*
X0546647Y0359718D01*
X0546665Y0359874D01*
X0546686Y0360031D01*
X0546712Y0360186D01*
X0546742Y0360341D01*
X0546775Y0360495D01*
X0546813Y0360648D01*
X0546854Y0360801D01*
X0546899Y0360952D01*
X0546948Y0361102D01*
X0547001Y0361250D01*
X0547057Y0361398D01*
X0547118Y0361543D01*
X0547181Y0361688D01*
X0547249Y0361830D01*
X0547320Y0361971D01*
X0547394Y0362110D01*
X0547472Y0362247D01*
X0547554Y0362382D01*
X0547638Y0362515D01*
X0547727Y0362646D01*
X0547818Y0362774D01*
X0547913Y0362901D01*
X0548010Y0363024D01*
X0548111Y0363146D01*
X0548215Y0363264D01*
X0548322Y0363380D01*
X0548432Y0363493D01*
X0548544Y0363604D01*
X0548660Y0363711D01*
X0548778Y0363816D01*
X0548898Y0363918D01*
X0549021Y0364016D01*
X0549147Y0364112D01*
X0549275Y0364204D01*
X0549405Y0364293D01*
X0549537Y0364379D01*
X0549672Y0364461D01*
X0549809Y0364540D01*
X0549947Y0364615D01*
X0550087Y0364687D01*
X0550230Y0364755D01*
X0550373Y0364820D01*
X0550519Y0364881D01*
X0550666Y0364938D01*
X0550814Y0364992D01*
X0550964Y0365042D01*
X0551114Y0365088D01*
X0551266Y0365130D01*
X0551419Y0365169D01*
X0551573Y0365203D01*
X0551728Y0365234D01*
X0551883Y0365260D01*
X0552039Y0365283D01*
X0552196Y0365302D01*
X0552353Y0365317D01*
X0552510Y0365328D01*
X0552668Y0365335D01*
X0552826Y0365338D01*
X0552983Y0365337D01*
X0553141Y0365332D01*
X0553298Y0365323D01*
X0553456Y0365310D01*
X0553612Y0365293D01*
X0553769Y0365272D01*
X0553924Y0365248D01*
X0554079Y0365219D01*
X0554234Y0365186D01*
X0554387Y0365150D01*
X0554540Y0365109D01*
X0554691Y0365065D01*
X0554841Y0365017D01*
X0554990Y0364966D01*
X0555138Y0364910D01*
X0555284Y0364851D01*
X0555429Y0364788D01*
X0555572Y0364721D01*
X0555713Y0364651D01*
X0555852Y0364578D01*
X0555990Y0364501D01*
X0556126Y0364420D01*
X0556259Y0364336D01*
X0556390Y0364249D01*
X0556519Y0364158D01*
X0556646Y0364064D01*
X0556771Y0363967D01*
X0556892Y0363867D01*
X0557012Y0363764D01*
X0557128Y0363658D01*
X0557242Y0363549D01*
X0557354Y0363437D01*
X0557462Y0363323D01*
X0557567Y0363205D01*
X0557670Y0363085D01*
X0557769Y0362963D01*
X0557865Y0362838D01*
X0557958Y0362710D01*
X0558048Y0362581D01*
X0558134Y0362449D01*
X0558218Y0362315D01*
X0558297Y0362179D01*
X0558374Y0362041D01*
X0558446Y0361901D01*
X0558515Y0361759D01*
X0558581Y0361616D01*
X0558643Y0361471D01*
X0558701Y0361324D01*
X0558756Y0361176D01*
X0558807Y0361027D01*
X0558854Y0360876D01*
X0558897Y0360725D01*
X0558936Y0360572D01*
X0558972Y0360418D01*
X0559003Y0360264D01*
X0559031Y0360109D01*
X0559055Y0359953D01*
X0559075Y0359796D01*
X0559091Y0359639D01*
X0559103Y0359482D01*
X0559111Y0359325D01*
X0559115Y0359167D01*
X0559115Y0359009D01*
X0559111Y0358851D01*
X0559103Y0358694D01*
X0559091Y0358537D01*
X0559075Y0358380D01*
X0559055Y0358223D01*
X0559031Y0358067D01*
X0559003Y0357912D01*
X0558972Y0357758D01*
X0558936Y0357604D01*
X0558897Y0357451D01*
X0558854Y0357300D01*
X0558807Y0357149D01*
X0558756Y0357000D01*
X0558701Y0356852D01*
X0558643Y0356705D01*
X0558581Y0356560D01*
X0558515Y0356417D01*
X0558446Y0356275D01*
X0558374Y0356135D01*
X0558297Y0355997D01*
X0558218Y0355861D01*
X0558134Y0355727D01*
X0558048Y0355595D01*
X0557958Y0355466D01*
X0557865Y0355338D01*
X0557769Y0355213D01*
X0557670Y0355091D01*
X0557567Y0354971D01*
X0557462Y0354853D01*
X0557354Y0354739D01*
X0557242Y0354627D01*
X0557128Y0354518D01*
X0557012Y0354412D01*
X0556892Y0354309D01*
X0556771Y0354209D01*
X0556646Y0354112D01*
X0556519Y0354018D01*
X0556390Y0353927D01*
X0556259Y0353840D01*
X0556126Y0353756D01*
X0555990Y0353675D01*
X0555852Y0353598D01*
X0555713Y0353525D01*
X0555572Y0353455D01*
X0555429Y0353388D01*
X0555284Y0353325D01*
X0555138Y0353266D01*
X0554990Y0353210D01*
X0554841Y0353159D01*
X0554691Y0353111D01*
X0554540Y0353067D01*
X0554387Y0353026D01*
X0554234Y0352990D01*
X0554079Y0352957D01*
X0553924Y0352928D01*
X0553769Y0352904D01*
X0553612Y0352883D01*
X0553456Y0352866D01*
X0553298Y0352853D01*
X0553141Y0352844D01*
X0552983Y0352839D01*
X0552826Y0352838D01*
X0552668Y0352841D01*
X0552510Y0352848D01*
X0552353Y0352859D01*
X0552196Y0352874D01*
X0552039Y0352893D01*
X0551883Y0352916D01*
X0551728Y0352942D01*
X0551573Y0352973D01*
X0551419Y0353007D01*
X0551266Y0353046D01*
X0551114Y0353088D01*
X0550964Y0353134D01*
X0550814Y0353184D01*
X0550666Y0353238D01*
X0550519Y0353295D01*
X0550373Y0353356D01*
X0550230Y0353421D01*
X0550087Y0353489D01*
X0549947Y0353561D01*
X0549809Y0353636D01*
X0549672Y0353715D01*
X0549537Y0353797D01*
X0549405Y0353883D01*
X0549275Y0353972D01*
X0549147Y0354064D01*
X0549021Y0354160D01*
X0548898Y0354258D01*
X0548778Y0354360D01*
X0548660Y0354465D01*
X0548544Y0354572D01*
X0548432Y0354683D01*
X0548322Y0354796D01*
X0548215Y0354912D01*
X0548111Y0355030D01*
X0548010Y0355152D01*
X0547913Y0355275D01*
X0547818Y0355402D01*
X0547727Y0355530D01*
X0547638Y0355661D01*
X0547554Y0355794D01*
X0547472Y0355929D01*
X0547394Y0356066D01*
X0547320Y0356205D01*
X0547249Y0356346D01*
X0547181Y0356488D01*
X0547118Y0356633D01*
X0547057Y0356778D01*
X0547001Y0356926D01*
X0546948Y0357074D01*
X0546899Y0357224D01*
X0546854Y0357375D01*
X0546813Y0357528D01*
X0546775Y0357681D01*
X0546742Y0357835D01*
X0546712Y0357990D01*
X0546686Y0358145D01*
X0546665Y0358302D01*
X0546647Y0358458D01*
X0546633Y0358615D01*
X0546623Y0358773D01*
X0546617Y0358930D01*
X0546615Y0359088D01*
X0431364Y0455606D02*
X0431366Y0455694D01*
X0431372Y0455782D01*
X0431382Y0455870D01*
X0431396Y0455958D01*
X0431413Y0456044D01*
X0431435Y0456130D01*
X0431460Y0456214D01*
X0431490Y0456298D01*
X0431522Y0456380D01*
X0431559Y0456460D01*
X0431599Y0456539D01*
X0431643Y0456616D01*
X0431690Y0456691D01*
X0431740Y0456763D01*
X0431794Y0456834D01*
X0431850Y0456901D01*
X0431910Y0456967D01*
X0431972Y0457029D01*
X0432038Y0457089D01*
X0432105Y0457145D01*
X0432176Y0457199D01*
X0432248Y0457249D01*
X0432323Y0457296D01*
X0432400Y0457340D01*
X0432479Y0457380D01*
X0432559Y0457417D01*
X0432641Y0457449D01*
X0432725Y0457479D01*
X0432809Y0457504D01*
X0432895Y0457526D01*
X0432981Y0457543D01*
X0433069Y0457557D01*
X0433157Y0457567D01*
X0433245Y0457573D01*
X0433333Y0457575D01*
X0433421Y0457573D01*
X0433509Y0457567D01*
X0433597Y0457557D01*
X0433685Y0457543D01*
X0433771Y0457526D01*
X0433857Y0457504D01*
X0433941Y0457479D01*
X0434025Y0457449D01*
X0434107Y0457417D01*
X0434187Y0457380D01*
X0434266Y0457340D01*
X0434343Y0457296D01*
X0434418Y0457249D01*
X0434490Y0457199D01*
X0434561Y0457145D01*
X0434628Y0457089D01*
X0434694Y0457029D01*
X0434756Y0456967D01*
X0434816Y0456901D01*
X0434872Y0456834D01*
X0434926Y0456763D01*
X0434976Y0456691D01*
X0435023Y0456616D01*
X0435067Y0456539D01*
X0435107Y0456460D01*
X0435144Y0456380D01*
X0435176Y0456298D01*
X0435206Y0456214D01*
X0435231Y0456130D01*
X0435253Y0456044D01*
X0435270Y0455958D01*
X0435284Y0455870D01*
X0435294Y0455782D01*
X0435300Y0455694D01*
X0435302Y0455606D01*
X0435300Y0455518D01*
X0435294Y0455430D01*
X0435284Y0455342D01*
X0435270Y0455254D01*
X0435253Y0455168D01*
X0435231Y0455082D01*
X0435206Y0454998D01*
X0435176Y0454914D01*
X0435144Y0454832D01*
X0435107Y0454752D01*
X0435067Y0454673D01*
X0435023Y0454596D01*
X0434976Y0454521D01*
X0434926Y0454449D01*
X0434872Y0454378D01*
X0434816Y0454311D01*
X0434756Y0454245D01*
X0434694Y0454183D01*
X0434628Y0454123D01*
X0434561Y0454067D01*
X0434490Y0454013D01*
X0434418Y0453963D01*
X0434343Y0453916D01*
X0434266Y0453872D01*
X0434187Y0453832D01*
X0434107Y0453795D01*
X0434025Y0453763D01*
X0433941Y0453733D01*
X0433857Y0453708D01*
X0433771Y0453686D01*
X0433685Y0453669D01*
X0433597Y0453655D01*
X0433509Y0453645D01*
X0433421Y0453639D01*
X0433333Y0453637D01*
X0433245Y0453639D01*
X0433157Y0453645D01*
X0433069Y0453655D01*
X0432981Y0453669D01*
X0432895Y0453686D01*
X0432809Y0453708D01*
X0432725Y0453733D01*
X0432641Y0453763D01*
X0432559Y0453795D01*
X0432479Y0453832D01*
X0432400Y0453872D01*
X0432323Y0453916D01*
X0432248Y0453963D01*
X0432176Y0454013D01*
X0432105Y0454067D01*
X0432038Y0454123D01*
X0431972Y0454183D01*
X0431910Y0454245D01*
X0431850Y0454311D01*
X0431794Y0454378D01*
X0431740Y0454449D01*
X0431690Y0454521D01*
X0431643Y0454596D01*
X0431599Y0454673D01*
X0431559Y0454752D01*
X0431522Y0454832D01*
X0431490Y0454914D01*
X0431460Y0454998D01*
X0431435Y0455082D01*
X0431413Y0455168D01*
X0431396Y0455254D01*
X0431382Y0455342D01*
X0431372Y0455430D01*
X0431366Y0455518D01*
X0431364Y0455606D01*
X0663647Y0455606D02*
X0663649Y0455759D01*
X0663655Y0455913D01*
X0663665Y0456066D01*
X0663679Y0456218D01*
X0663697Y0456371D01*
X0663719Y0456522D01*
X0663744Y0456673D01*
X0663774Y0456824D01*
X0663808Y0456974D01*
X0663845Y0457122D01*
X0663886Y0457270D01*
X0663931Y0457416D01*
X0663980Y0457562D01*
X0664033Y0457706D01*
X0664089Y0457848D01*
X0664149Y0457989D01*
X0664213Y0458129D01*
X0664280Y0458267D01*
X0664351Y0458403D01*
X0664426Y0458537D01*
X0664503Y0458669D01*
X0664585Y0458799D01*
X0664669Y0458927D01*
X0664757Y0459053D01*
X0664848Y0459176D01*
X0664942Y0459297D01*
X0665040Y0459415D01*
X0665140Y0459531D01*
X0665244Y0459644D01*
X0665350Y0459755D01*
X0665459Y0459863D01*
X0665571Y0459968D01*
X0665685Y0460069D01*
X0665803Y0460168D01*
X0665922Y0460264D01*
X0666044Y0460357D01*
X0666169Y0460446D01*
X0666296Y0460533D01*
X0666425Y0460615D01*
X0666556Y0460695D01*
X0666689Y0460771D01*
X0666824Y0460844D01*
X0666961Y0460913D01*
X0667100Y0460978D01*
X0667240Y0461040D01*
X0667382Y0461098D01*
X0667525Y0461153D01*
X0667670Y0461204D01*
X0667816Y0461251D01*
X0667963Y0461294D01*
X0668111Y0461333D01*
X0668260Y0461369D01*
X0668410Y0461400D01*
X0668561Y0461428D01*
X0668712Y0461452D01*
X0668865Y0461472D01*
X0669017Y0461488D01*
X0669170Y0461500D01*
X0669323Y0461508D01*
X0669476Y0461512D01*
X0669630Y0461512D01*
X0669783Y0461508D01*
X0669936Y0461500D01*
X0670089Y0461488D01*
X0670241Y0461472D01*
X0670394Y0461452D01*
X0670545Y0461428D01*
X0670696Y0461400D01*
X0670846Y0461369D01*
X0670995Y0461333D01*
X0671143Y0461294D01*
X0671290Y0461251D01*
X0671436Y0461204D01*
X0671581Y0461153D01*
X0671724Y0461098D01*
X0671866Y0461040D01*
X0672006Y0460978D01*
X0672145Y0460913D01*
X0672282Y0460844D01*
X0672417Y0460771D01*
X0672550Y0460695D01*
X0672681Y0460615D01*
X0672810Y0460533D01*
X0672937Y0460446D01*
X0673062Y0460357D01*
X0673184Y0460264D01*
X0673303Y0460168D01*
X0673421Y0460069D01*
X0673535Y0459968D01*
X0673647Y0459863D01*
X0673756Y0459755D01*
X0673862Y0459644D01*
X0673966Y0459531D01*
X0674066Y0459415D01*
X0674164Y0459297D01*
X0674258Y0459176D01*
X0674349Y0459053D01*
X0674437Y0458927D01*
X0674521Y0458799D01*
X0674603Y0458669D01*
X0674680Y0458537D01*
X0674755Y0458403D01*
X0674826Y0458267D01*
X0674893Y0458129D01*
X0674957Y0457989D01*
X0675017Y0457848D01*
X0675073Y0457706D01*
X0675126Y0457562D01*
X0675175Y0457416D01*
X0675220Y0457270D01*
X0675261Y0457122D01*
X0675298Y0456974D01*
X0675332Y0456824D01*
X0675362Y0456673D01*
X0675387Y0456522D01*
X0675409Y0456371D01*
X0675427Y0456218D01*
X0675441Y0456066D01*
X0675451Y0455913D01*
X0675457Y0455759D01*
X0675459Y0455606D01*
X0675457Y0455453D01*
X0675451Y0455299D01*
X0675441Y0455146D01*
X0675427Y0454994D01*
X0675409Y0454841D01*
X0675387Y0454690D01*
X0675362Y0454539D01*
X0675332Y0454388D01*
X0675298Y0454238D01*
X0675261Y0454090D01*
X0675220Y0453942D01*
X0675175Y0453796D01*
X0675126Y0453650D01*
X0675073Y0453506D01*
X0675017Y0453364D01*
X0674957Y0453223D01*
X0674893Y0453083D01*
X0674826Y0452945D01*
X0674755Y0452809D01*
X0674680Y0452675D01*
X0674603Y0452543D01*
X0674521Y0452413D01*
X0674437Y0452285D01*
X0674349Y0452159D01*
X0674258Y0452036D01*
X0674164Y0451915D01*
X0674066Y0451797D01*
X0673966Y0451681D01*
X0673862Y0451568D01*
X0673756Y0451457D01*
X0673647Y0451349D01*
X0673535Y0451244D01*
X0673421Y0451143D01*
X0673303Y0451044D01*
X0673184Y0450948D01*
X0673062Y0450855D01*
X0672937Y0450766D01*
X0672810Y0450679D01*
X0672681Y0450597D01*
X0672550Y0450517D01*
X0672417Y0450441D01*
X0672282Y0450368D01*
X0672145Y0450299D01*
X0672006Y0450234D01*
X0671866Y0450172D01*
X0671724Y0450114D01*
X0671581Y0450059D01*
X0671436Y0450008D01*
X0671290Y0449961D01*
X0671143Y0449918D01*
X0670995Y0449879D01*
X0670846Y0449843D01*
X0670696Y0449812D01*
X0670545Y0449784D01*
X0670394Y0449760D01*
X0670241Y0449740D01*
X0670089Y0449724D01*
X0669936Y0449712D01*
X0669783Y0449704D01*
X0669630Y0449700D01*
X0669476Y0449700D01*
X0669323Y0449704D01*
X0669170Y0449712D01*
X0669017Y0449724D01*
X0668865Y0449740D01*
X0668712Y0449760D01*
X0668561Y0449784D01*
X0668410Y0449812D01*
X0668260Y0449843D01*
X0668111Y0449879D01*
X0667963Y0449918D01*
X0667816Y0449961D01*
X0667670Y0450008D01*
X0667525Y0450059D01*
X0667382Y0450114D01*
X0667240Y0450172D01*
X0667100Y0450234D01*
X0666961Y0450299D01*
X0666824Y0450368D01*
X0666689Y0450441D01*
X0666556Y0450517D01*
X0666425Y0450597D01*
X0666296Y0450679D01*
X0666169Y0450766D01*
X0666044Y0450855D01*
X0665922Y0450948D01*
X0665803Y0451044D01*
X0665685Y0451143D01*
X0665571Y0451244D01*
X0665459Y0451349D01*
X0665350Y0451457D01*
X0665244Y0451568D01*
X0665140Y0451681D01*
X0665040Y0451797D01*
X0664942Y0451915D01*
X0664848Y0452036D01*
X0664757Y0452159D01*
X0664669Y0452285D01*
X0664585Y0452413D01*
X0664503Y0452543D01*
X0664426Y0452675D01*
X0664351Y0452809D01*
X0664280Y0452945D01*
X0664213Y0453083D01*
X0664149Y0453223D01*
X0664089Y0453364D01*
X0664033Y0453506D01*
X0663980Y0453650D01*
X0663931Y0453796D01*
X0663886Y0453942D01*
X0663845Y0454090D01*
X0663808Y0454238D01*
X0663774Y0454388D01*
X0663744Y0454539D01*
X0663719Y0454690D01*
X0663697Y0454841D01*
X0663679Y0454994D01*
X0663665Y0455146D01*
X0663655Y0455299D01*
X0663649Y0455453D01*
X0663647Y0455606D01*
X0544215Y0204710D02*
X0544217Y0204906D01*
X0544225Y0205103D01*
X0544237Y0205299D01*
X0544254Y0205494D01*
X0544275Y0205689D01*
X0544302Y0205884D01*
X0544333Y0206078D01*
X0544369Y0206271D01*
X0544409Y0206463D01*
X0544455Y0206654D01*
X0544505Y0206844D01*
X0544559Y0207032D01*
X0544619Y0207219D01*
X0544683Y0207405D01*
X0544751Y0207589D01*
X0544824Y0207771D01*
X0544901Y0207952D01*
X0544983Y0208130D01*
X0545069Y0208307D01*
X0545160Y0208481D01*
X0545254Y0208653D01*
X0545353Y0208823D01*
X0545456Y0208990D01*
X0545563Y0209155D01*
X0545674Y0209316D01*
X0545789Y0209476D01*
X0545908Y0209632D01*
X0546031Y0209785D01*
X0546157Y0209935D01*
X0546287Y0210082D01*
X0546421Y0210226D01*
X0546558Y0210367D01*
X0546699Y0210504D01*
X0546843Y0210638D01*
X0546990Y0210768D01*
X0547140Y0210894D01*
X0547293Y0211017D01*
X0547449Y0211136D01*
X0547609Y0211251D01*
X0547770Y0211362D01*
X0547935Y0211469D01*
X0548102Y0211572D01*
X0548272Y0211671D01*
X0548444Y0211765D01*
X0548618Y0211856D01*
X0548795Y0211942D01*
X0548973Y0212024D01*
X0549154Y0212101D01*
X0549336Y0212174D01*
X0549520Y0212242D01*
X0549706Y0212306D01*
X0549893Y0212366D01*
X0550081Y0212420D01*
X0550271Y0212470D01*
X0550462Y0212516D01*
X0550654Y0212556D01*
X0550847Y0212592D01*
X0551041Y0212623D01*
X0551236Y0212650D01*
X0551431Y0212671D01*
X0551626Y0212688D01*
X0551822Y0212700D01*
X0552019Y0212708D01*
X0552215Y0212710D01*
X0552411Y0212708D01*
X0552608Y0212700D01*
X0552804Y0212688D01*
X0552999Y0212671D01*
X0553194Y0212650D01*
X0553389Y0212623D01*
X0553583Y0212592D01*
X0553776Y0212556D01*
X0553968Y0212516D01*
X0554159Y0212470D01*
X0554349Y0212420D01*
X0554537Y0212366D01*
X0554724Y0212306D01*
X0554910Y0212242D01*
X0555094Y0212174D01*
X0555276Y0212101D01*
X0555457Y0212024D01*
X0555635Y0211942D01*
X0555812Y0211856D01*
X0555986Y0211765D01*
X0556158Y0211671D01*
X0556328Y0211572D01*
X0556495Y0211469D01*
X0556660Y0211362D01*
X0556821Y0211251D01*
X0556981Y0211136D01*
X0557137Y0211017D01*
X0557290Y0210894D01*
X0557440Y0210768D01*
X0557587Y0210638D01*
X0557731Y0210504D01*
X0557872Y0210367D01*
X0558009Y0210226D01*
X0558143Y0210082D01*
X0558273Y0209935D01*
X0558399Y0209785D01*
X0558522Y0209632D01*
X0558641Y0209476D01*
X0558756Y0209316D01*
X0558867Y0209155D01*
X0558974Y0208990D01*
X0559077Y0208823D01*
X0559176Y0208653D01*
X0559270Y0208481D01*
X0559361Y0208307D01*
X0559447Y0208130D01*
X0559529Y0207952D01*
X0559606Y0207771D01*
X0559679Y0207589D01*
X0559747Y0207405D01*
X0559811Y0207219D01*
X0559871Y0207032D01*
X0559925Y0206844D01*
X0559975Y0206654D01*
X0560021Y0206463D01*
X0560061Y0206271D01*
X0560097Y0206078D01*
X0560128Y0205884D01*
X0560155Y0205689D01*
X0560176Y0205494D01*
X0560193Y0205299D01*
X0560205Y0205103D01*
X0560213Y0204906D01*
X0560215Y0204710D01*
X0560213Y0204514D01*
X0560205Y0204317D01*
X0560193Y0204121D01*
X0560176Y0203926D01*
X0560155Y0203731D01*
X0560128Y0203536D01*
X0560097Y0203342D01*
X0560061Y0203149D01*
X0560021Y0202957D01*
X0559975Y0202766D01*
X0559925Y0202576D01*
X0559871Y0202388D01*
X0559811Y0202201D01*
X0559747Y0202015D01*
X0559679Y0201831D01*
X0559606Y0201649D01*
X0559529Y0201468D01*
X0559447Y0201290D01*
X0559361Y0201113D01*
X0559270Y0200939D01*
X0559176Y0200767D01*
X0559077Y0200597D01*
X0558974Y0200430D01*
X0558867Y0200265D01*
X0558756Y0200104D01*
X0558641Y0199944D01*
X0558522Y0199788D01*
X0558399Y0199635D01*
X0558273Y0199485D01*
X0558143Y0199338D01*
X0558009Y0199194D01*
X0557872Y0199053D01*
X0557731Y0198916D01*
X0557587Y0198782D01*
X0557440Y0198652D01*
X0557290Y0198526D01*
X0557137Y0198403D01*
X0556981Y0198284D01*
X0556821Y0198169D01*
X0556660Y0198058D01*
X0556495Y0197951D01*
X0556328Y0197848D01*
X0556158Y0197749D01*
X0555986Y0197655D01*
X0555812Y0197564D01*
X0555635Y0197478D01*
X0555457Y0197396D01*
X0555276Y0197319D01*
X0555094Y0197246D01*
X0554910Y0197178D01*
X0554724Y0197114D01*
X0554537Y0197054D01*
X0554349Y0197000D01*
X0554159Y0196950D01*
X0553968Y0196904D01*
X0553776Y0196864D01*
X0553583Y0196828D01*
X0553389Y0196797D01*
X0553194Y0196770D01*
X0552999Y0196749D01*
X0552804Y0196732D01*
X0552608Y0196720D01*
X0552411Y0196712D01*
X0552215Y0196710D01*
X0552019Y0196712D01*
X0551822Y0196720D01*
X0551626Y0196732D01*
X0551431Y0196749D01*
X0551236Y0196770D01*
X0551041Y0196797D01*
X0550847Y0196828D01*
X0550654Y0196864D01*
X0550462Y0196904D01*
X0550271Y0196950D01*
X0550081Y0197000D01*
X0549893Y0197054D01*
X0549706Y0197114D01*
X0549520Y0197178D01*
X0549336Y0197246D01*
X0549154Y0197319D01*
X0548973Y0197396D01*
X0548795Y0197478D01*
X0548618Y0197564D01*
X0548444Y0197655D01*
X0548272Y0197749D01*
X0548102Y0197848D01*
X0547935Y0197951D01*
X0547770Y0198058D01*
X0547609Y0198169D01*
X0547449Y0198284D01*
X0547293Y0198403D01*
X0547140Y0198526D01*
X0546990Y0198652D01*
X0546843Y0198782D01*
X0546699Y0198916D01*
X0546558Y0199053D01*
X0546421Y0199194D01*
X0546287Y0199338D01*
X0546157Y0199485D01*
X0546031Y0199635D01*
X0545908Y0199788D01*
X0545789Y0199944D01*
X0545674Y0200104D01*
X0545563Y0200265D01*
X0545456Y0200430D01*
X0545353Y0200597D01*
X0545254Y0200767D01*
X0545160Y0200939D01*
X0545069Y0201113D01*
X0544983Y0201290D01*
X0544901Y0201468D01*
X0544824Y0201649D01*
X0544751Y0201831D01*
X0544683Y0202015D01*
X0544619Y0202201D01*
X0544559Y0202388D01*
X0544505Y0202576D01*
X0544455Y0202766D01*
X0544409Y0202957D01*
X0544369Y0203149D01*
X0544333Y0203342D01*
X0544302Y0203536D01*
X0544275Y0203731D01*
X0544254Y0203926D01*
X0544237Y0204121D01*
X0544225Y0204317D01*
X0544217Y0204514D01*
X0544215Y0204710D01*
X0571615Y0169088D02*
X0571617Y0169246D01*
X0571623Y0169403D01*
X0571633Y0169561D01*
X0571647Y0169718D01*
X0571665Y0169874D01*
X0571686Y0170031D01*
X0571712Y0170186D01*
X0571742Y0170341D01*
X0571775Y0170495D01*
X0571813Y0170648D01*
X0571854Y0170801D01*
X0571899Y0170952D01*
X0571948Y0171102D01*
X0572001Y0171250D01*
X0572057Y0171398D01*
X0572118Y0171543D01*
X0572181Y0171688D01*
X0572249Y0171830D01*
X0572320Y0171971D01*
X0572394Y0172110D01*
X0572472Y0172247D01*
X0572554Y0172382D01*
X0572638Y0172515D01*
X0572727Y0172646D01*
X0572818Y0172774D01*
X0572913Y0172901D01*
X0573010Y0173024D01*
X0573111Y0173146D01*
X0573215Y0173264D01*
X0573322Y0173380D01*
X0573432Y0173493D01*
X0573544Y0173604D01*
X0573660Y0173711D01*
X0573778Y0173816D01*
X0573898Y0173918D01*
X0574021Y0174016D01*
X0574147Y0174112D01*
X0574275Y0174204D01*
X0574405Y0174293D01*
X0574537Y0174379D01*
X0574672Y0174461D01*
X0574809Y0174540D01*
X0574947Y0174615D01*
X0575087Y0174687D01*
X0575230Y0174755D01*
X0575373Y0174820D01*
X0575519Y0174881D01*
X0575666Y0174938D01*
X0575814Y0174992D01*
X0575964Y0175042D01*
X0576114Y0175088D01*
X0576266Y0175130D01*
X0576419Y0175169D01*
X0576573Y0175203D01*
X0576728Y0175234D01*
X0576883Y0175260D01*
X0577039Y0175283D01*
X0577196Y0175302D01*
X0577353Y0175317D01*
X0577510Y0175328D01*
X0577668Y0175335D01*
X0577826Y0175338D01*
X0577983Y0175337D01*
X0578141Y0175332D01*
X0578298Y0175323D01*
X0578456Y0175310D01*
X0578612Y0175293D01*
X0578769Y0175272D01*
X0578924Y0175248D01*
X0579079Y0175219D01*
X0579234Y0175186D01*
X0579387Y0175150D01*
X0579540Y0175109D01*
X0579691Y0175065D01*
X0579841Y0175017D01*
X0579990Y0174966D01*
X0580138Y0174910D01*
X0580284Y0174851D01*
X0580429Y0174788D01*
X0580572Y0174721D01*
X0580713Y0174651D01*
X0580852Y0174578D01*
X0580990Y0174501D01*
X0581126Y0174420D01*
X0581259Y0174336D01*
X0581390Y0174249D01*
X0581519Y0174158D01*
X0581646Y0174064D01*
X0581771Y0173967D01*
X0581892Y0173867D01*
X0582012Y0173764D01*
X0582128Y0173658D01*
X0582242Y0173549D01*
X0582354Y0173437D01*
X0582462Y0173323D01*
X0582567Y0173205D01*
X0582670Y0173085D01*
X0582769Y0172963D01*
X0582865Y0172838D01*
X0582958Y0172710D01*
X0583048Y0172581D01*
X0583134Y0172449D01*
X0583218Y0172315D01*
X0583297Y0172179D01*
X0583374Y0172041D01*
X0583446Y0171901D01*
X0583515Y0171759D01*
X0583581Y0171616D01*
X0583643Y0171471D01*
X0583701Y0171324D01*
X0583756Y0171176D01*
X0583807Y0171027D01*
X0583854Y0170876D01*
X0583897Y0170725D01*
X0583936Y0170572D01*
X0583972Y0170418D01*
X0584003Y0170264D01*
X0584031Y0170109D01*
X0584055Y0169953D01*
X0584075Y0169796D01*
X0584091Y0169639D01*
X0584103Y0169482D01*
X0584111Y0169325D01*
X0584115Y0169167D01*
X0584115Y0169009D01*
X0584111Y0168851D01*
X0584103Y0168694D01*
X0584091Y0168537D01*
X0584075Y0168380D01*
X0584055Y0168223D01*
X0584031Y0168067D01*
X0584003Y0167912D01*
X0583972Y0167758D01*
X0583936Y0167604D01*
X0583897Y0167451D01*
X0583854Y0167300D01*
X0583807Y0167149D01*
X0583756Y0167000D01*
X0583701Y0166852D01*
X0583643Y0166705D01*
X0583581Y0166560D01*
X0583515Y0166417D01*
X0583446Y0166275D01*
X0583374Y0166135D01*
X0583297Y0165997D01*
X0583218Y0165861D01*
X0583134Y0165727D01*
X0583048Y0165595D01*
X0582958Y0165466D01*
X0582865Y0165338D01*
X0582769Y0165213D01*
X0582670Y0165091D01*
X0582567Y0164971D01*
X0582462Y0164853D01*
X0582354Y0164739D01*
X0582242Y0164627D01*
X0582128Y0164518D01*
X0582012Y0164412D01*
X0581892Y0164309D01*
X0581771Y0164209D01*
X0581646Y0164112D01*
X0581519Y0164018D01*
X0581390Y0163927D01*
X0581259Y0163840D01*
X0581126Y0163756D01*
X0580990Y0163675D01*
X0580852Y0163598D01*
X0580713Y0163525D01*
X0580572Y0163455D01*
X0580429Y0163388D01*
X0580284Y0163325D01*
X0580138Y0163266D01*
X0579990Y0163210D01*
X0579841Y0163159D01*
X0579691Y0163111D01*
X0579540Y0163067D01*
X0579387Y0163026D01*
X0579234Y0162990D01*
X0579079Y0162957D01*
X0578924Y0162928D01*
X0578769Y0162904D01*
X0578612Y0162883D01*
X0578456Y0162866D01*
X0578298Y0162853D01*
X0578141Y0162844D01*
X0577983Y0162839D01*
X0577826Y0162838D01*
X0577668Y0162841D01*
X0577510Y0162848D01*
X0577353Y0162859D01*
X0577196Y0162874D01*
X0577039Y0162893D01*
X0576883Y0162916D01*
X0576728Y0162942D01*
X0576573Y0162973D01*
X0576419Y0163007D01*
X0576266Y0163046D01*
X0576114Y0163088D01*
X0575964Y0163134D01*
X0575814Y0163184D01*
X0575666Y0163238D01*
X0575519Y0163295D01*
X0575373Y0163356D01*
X0575230Y0163421D01*
X0575087Y0163489D01*
X0574947Y0163561D01*
X0574809Y0163636D01*
X0574672Y0163715D01*
X0574537Y0163797D01*
X0574405Y0163883D01*
X0574275Y0163972D01*
X0574147Y0164064D01*
X0574021Y0164160D01*
X0573898Y0164258D01*
X0573778Y0164360D01*
X0573660Y0164465D01*
X0573544Y0164572D01*
X0573432Y0164683D01*
X0573322Y0164796D01*
X0573215Y0164912D01*
X0573111Y0165030D01*
X0573010Y0165152D01*
X0572913Y0165275D01*
X0572818Y0165402D01*
X0572727Y0165530D01*
X0572638Y0165661D01*
X0572554Y0165794D01*
X0572472Y0165929D01*
X0572394Y0166066D01*
X0572320Y0166205D01*
X0572249Y0166346D01*
X0572181Y0166488D01*
X0572118Y0166633D01*
X0572057Y0166778D01*
X0572001Y0166926D01*
X0571948Y0167074D01*
X0571899Y0167224D01*
X0571854Y0167375D01*
X0571813Y0167528D01*
X0571775Y0167681D01*
X0571742Y0167835D01*
X0571712Y0167990D01*
X0571686Y0168145D01*
X0571665Y0168302D01*
X0571647Y0168458D01*
X0571633Y0168615D01*
X0571623Y0168773D01*
X0571617Y0168930D01*
X0571615Y0169088D01*
X0464215Y0204710D02*
X0464217Y0204906D01*
X0464225Y0205103D01*
X0464237Y0205299D01*
X0464254Y0205494D01*
X0464275Y0205689D01*
X0464302Y0205884D01*
X0464333Y0206078D01*
X0464369Y0206271D01*
X0464409Y0206463D01*
X0464455Y0206654D01*
X0464505Y0206844D01*
X0464559Y0207032D01*
X0464619Y0207219D01*
X0464683Y0207405D01*
X0464751Y0207589D01*
X0464824Y0207771D01*
X0464901Y0207952D01*
X0464983Y0208130D01*
X0465069Y0208307D01*
X0465160Y0208481D01*
X0465254Y0208653D01*
X0465353Y0208823D01*
X0465456Y0208990D01*
X0465563Y0209155D01*
X0465674Y0209316D01*
X0465789Y0209476D01*
X0465908Y0209632D01*
X0466031Y0209785D01*
X0466157Y0209935D01*
X0466287Y0210082D01*
X0466421Y0210226D01*
X0466558Y0210367D01*
X0466699Y0210504D01*
X0466843Y0210638D01*
X0466990Y0210768D01*
X0467140Y0210894D01*
X0467293Y0211017D01*
X0467449Y0211136D01*
X0467609Y0211251D01*
X0467770Y0211362D01*
X0467935Y0211469D01*
X0468102Y0211572D01*
X0468272Y0211671D01*
X0468444Y0211765D01*
X0468618Y0211856D01*
X0468795Y0211942D01*
X0468973Y0212024D01*
X0469154Y0212101D01*
X0469336Y0212174D01*
X0469520Y0212242D01*
X0469706Y0212306D01*
X0469893Y0212366D01*
X0470081Y0212420D01*
X0470271Y0212470D01*
X0470462Y0212516D01*
X0470654Y0212556D01*
X0470847Y0212592D01*
X0471041Y0212623D01*
X0471236Y0212650D01*
X0471431Y0212671D01*
X0471626Y0212688D01*
X0471822Y0212700D01*
X0472019Y0212708D01*
X0472215Y0212710D01*
X0472411Y0212708D01*
X0472608Y0212700D01*
X0472804Y0212688D01*
X0472999Y0212671D01*
X0473194Y0212650D01*
X0473389Y0212623D01*
X0473583Y0212592D01*
X0473776Y0212556D01*
X0473968Y0212516D01*
X0474159Y0212470D01*
X0474349Y0212420D01*
X0474537Y0212366D01*
X0474724Y0212306D01*
X0474910Y0212242D01*
X0475094Y0212174D01*
X0475276Y0212101D01*
X0475457Y0212024D01*
X0475635Y0211942D01*
X0475812Y0211856D01*
X0475986Y0211765D01*
X0476158Y0211671D01*
X0476328Y0211572D01*
X0476495Y0211469D01*
X0476660Y0211362D01*
X0476821Y0211251D01*
X0476981Y0211136D01*
X0477137Y0211017D01*
X0477290Y0210894D01*
X0477440Y0210768D01*
X0477587Y0210638D01*
X0477731Y0210504D01*
X0477872Y0210367D01*
X0478009Y0210226D01*
X0478143Y0210082D01*
X0478273Y0209935D01*
X0478399Y0209785D01*
X0478522Y0209632D01*
X0478641Y0209476D01*
X0478756Y0209316D01*
X0478867Y0209155D01*
X0478974Y0208990D01*
X0479077Y0208823D01*
X0479176Y0208653D01*
X0479270Y0208481D01*
X0479361Y0208307D01*
X0479447Y0208130D01*
X0479529Y0207952D01*
X0479606Y0207771D01*
X0479679Y0207589D01*
X0479747Y0207405D01*
X0479811Y0207219D01*
X0479871Y0207032D01*
X0479925Y0206844D01*
X0479975Y0206654D01*
X0480021Y0206463D01*
X0480061Y0206271D01*
X0480097Y0206078D01*
X0480128Y0205884D01*
X0480155Y0205689D01*
X0480176Y0205494D01*
X0480193Y0205299D01*
X0480205Y0205103D01*
X0480213Y0204906D01*
X0480215Y0204710D01*
X0480213Y0204514D01*
X0480205Y0204317D01*
X0480193Y0204121D01*
X0480176Y0203926D01*
X0480155Y0203731D01*
X0480128Y0203536D01*
X0480097Y0203342D01*
X0480061Y0203149D01*
X0480021Y0202957D01*
X0479975Y0202766D01*
X0479925Y0202576D01*
X0479871Y0202388D01*
X0479811Y0202201D01*
X0479747Y0202015D01*
X0479679Y0201831D01*
X0479606Y0201649D01*
X0479529Y0201468D01*
X0479447Y0201290D01*
X0479361Y0201113D01*
X0479270Y0200939D01*
X0479176Y0200767D01*
X0479077Y0200597D01*
X0478974Y0200430D01*
X0478867Y0200265D01*
X0478756Y0200104D01*
X0478641Y0199944D01*
X0478522Y0199788D01*
X0478399Y0199635D01*
X0478273Y0199485D01*
X0478143Y0199338D01*
X0478009Y0199194D01*
X0477872Y0199053D01*
X0477731Y0198916D01*
X0477587Y0198782D01*
X0477440Y0198652D01*
X0477290Y0198526D01*
X0477137Y0198403D01*
X0476981Y0198284D01*
X0476821Y0198169D01*
X0476660Y0198058D01*
X0476495Y0197951D01*
X0476328Y0197848D01*
X0476158Y0197749D01*
X0475986Y0197655D01*
X0475812Y0197564D01*
X0475635Y0197478D01*
X0475457Y0197396D01*
X0475276Y0197319D01*
X0475094Y0197246D01*
X0474910Y0197178D01*
X0474724Y0197114D01*
X0474537Y0197054D01*
X0474349Y0197000D01*
X0474159Y0196950D01*
X0473968Y0196904D01*
X0473776Y0196864D01*
X0473583Y0196828D01*
X0473389Y0196797D01*
X0473194Y0196770D01*
X0472999Y0196749D01*
X0472804Y0196732D01*
X0472608Y0196720D01*
X0472411Y0196712D01*
X0472215Y0196710D01*
X0472019Y0196712D01*
X0471822Y0196720D01*
X0471626Y0196732D01*
X0471431Y0196749D01*
X0471236Y0196770D01*
X0471041Y0196797D01*
X0470847Y0196828D01*
X0470654Y0196864D01*
X0470462Y0196904D01*
X0470271Y0196950D01*
X0470081Y0197000D01*
X0469893Y0197054D01*
X0469706Y0197114D01*
X0469520Y0197178D01*
X0469336Y0197246D01*
X0469154Y0197319D01*
X0468973Y0197396D01*
X0468795Y0197478D01*
X0468618Y0197564D01*
X0468444Y0197655D01*
X0468272Y0197749D01*
X0468102Y0197848D01*
X0467935Y0197951D01*
X0467770Y0198058D01*
X0467609Y0198169D01*
X0467449Y0198284D01*
X0467293Y0198403D01*
X0467140Y0198526D01*
X0466990Y0198652D01*
X0466843Y0198782D01*
X0466699Y0198916D01*
X0466558Y0199053D01*
X0466421Y0199194D01*
X0466287Y0199338D01*
X0466157Y0199485D01*
X0466031Y0199635D01*
X0465908Y0199788D01*
X0465789Y0199944D01*
X0465674Y0200104D01*
X0465563Y0200265D01*
X0465456Y0200430D01*
X0465353Y0200597D01*
X0465254Y0200767D01*
X0465160Y0200939D01*
X0465069Y0201113D01*
X0464983Y0201290D01*
X0464901Y0201468D01*
X0464824Y0201649D01*
X0464751Y0201831D01*
X0464683Y0202015D01*
X0464619Y0202201D01*
X0464559Y0202388D01*
X0464505Y0202576D01*
X0464455Y0202766D01*
X0464409Y0202957D01*
X0464369Y0203149D01*
X0464333Y0203342D01*
X0464302Y0203536D01*
X0464275Y0203731D01*
X0464254Y0203926D01*
X0464237Y0204121D01*
X0464225Y0204317D01*
X0464217Y0204514D01*
X0464215Y0204710D01*
X0431364Y0099307D02*
X0431366Y0099395D01*
X0431372Y0099483D01*
X0431382Y0099571D01*
X0431396Y0099659D01*
X0431413Y0099745D01*
X0431435Y0099831D01*
X0431460Y0099915D01*
X0431490Y0099999D01*
X0431522Y0100081D01*
X0431559Y0100161D01*
X0431599Y0100240D01*
X0431643Y0100317D01*
X0431690Y0100392D01*
X0431740Y0100464D01*
X0431794Y0100535D01*
X0431850Y0100602D01*
X0431910Y0100668D01*
X0431972Y0100730D01*
X0432038Y0100790D01*
X0432105Y0100846D01*
X0432176Y0100900D01*
X0432248Y0100950D01*
X0432323Y0100997D01*
X0432400Y0101041D01*
X0432479Y0101081D01*
X0432559Y0101118D01*
X0432641Y0101150D01*
X0432725Y0101180D01*
X0432809Y0101205D01*
X0432895Y0101227D01*
X0432981Y0101244D01*
X0433069Y0101258D01*
X0433157Y0101268D01*
X0433245Y0101274D01*
X0433333Y0101276D01*
X0433421Y0101274D01*
X0433509Y0101268D01*
X0433597Y0101258D01*
X0433685Y0101244D01*
X0433771Y0101227D01*
X0433857Y0101205D01*
X0433941Y0101180D01*
X0434025Y0101150D01*
X0434107Y0101118D01*
X0434187Y0101081D01*
X0434266Y0101041D01*
X0434343Y0100997D01*
X0434418Y0100950D01*
X0434490Y0100900D01*
X0434561Y0100846D01*
X0434628Y0100790D01*
X0434694Y0100730D01*
X0434756Y0100668D01*
X0434816Y0100602D01*
X0434872Y0100535D01*
X0434926Y0100464D01*
X0434976Y0100392D01*
X0435023Y0100317D01*
X0435067Y0100240D01*
X0435107Y0100161D01*
X0435144Y0100081D01*
X0435176Y0099999D01*
X0435206Y0099915D01*
X0435231Y0099831D01*
X0435253Y0099745D01*
X0435270Y0099659D01*
X0435284Y0099571D01*
X0435294Y0099483D01*
X0435300Y0099395D01*
X0435302Y0099307D01*
X0435300Y0099219D01*
X0435294Y0099131D01*
X0435284Y0099043D01*
X0435270Y0098955D01*
X0435253Y0098869D01*
X0435231Y0098783D01*
X0435206Y0098699D01*
X0435176Y0098615D01*
X0435144Y0098533D01*
X0435107Y0098453D01*
X0435067Y0098374D01*
X0435023Y0098297D01*
X0434976Y0098222D01*
X0434926Y0098150D01*
X0434872Y0098079D01*
X0434816Y0098012D01*
X0434756Y0097946D01*
X0434694Y0097884D01*
X0434628Y0097824D01*
X0434561Y0097768D01*
X0434490Y0097714D01*
X0434418Y0097664D01*
X0434343Y0097617D01*
X0434266Y0097573D01*
X0434187Y0097533D01*
X0434107Y0097496D01*
X0434025Y0097464D01*
X0433941Y0097434D01*
X0433857Y0097409D01*
X0433771Y0097387D01*
X0433685Y0097370D01*
X0433597Y0097356D01*
X0433509Y0097346D01*
X0433421Y0097340D01*
X0433333Y0097338D01*
X0433245Y0097340D01*
X0433157Y0097346D01*
X0433069Y0097356D01*
X0432981Y0097370D01*
X0432895Y0097387D01*
X0432809Y0097409D01*
X0432725Y0097434D01*
X0432641Y0097464D01*
X0432559Y0097496D01*
X0432479Y0097533D01*
X0432400Y0097573D01*
X0432323Y0097617D01*
X0432248Y0097664D01*
X0432176Y0097714D01*
X0432105Y0097768D01*
X0432038Y0097824D01*
X0431972Y0097884D01*
X0431910Y0097946D01*
X0431850Y0098012D01*
X0431794Y0098079D01*
X0431740Y0098150D01*
X0431690Y0098222D01*
X0431643Y0098297D01*
X0431599Y0098374D01*
X0431559Y0098453D01*
X0431522Y0098533D01*
X0431490Y0098615D01*
X0431460Y0098699D01*
X0431435Y0098783D01*
X0431413Y0098869D01*
X0431396Y0098955D01*
X0431382Y0099043D01*
X0431372Y0099131D01*
X0431366Y0099219D01*
X0431364Y0099307D01*
X0663647Y0099307D02*
X0663649Y0099460D01*
X0663655Y0099614D01*
X0663665Y0099767D01*
X0663679Y0099919D01*
X0663697Y0100072D01*
X0663719Y0100223D01*
X0663744Y0100374D01*
X0663774Y0100525D01*
X0663808Y0100675D01*
X0663845Y0100823D01*
X0663886Y0100971D01*
X0663931Y0101117D01*
X0663980Y0101263D01*
X0664033Y0101407D01*
X0664089Y0101549D01*
X0664149Y0101690D01*
X0664213Y0101830D01*
X0664280Y0101968D01*
X0664351Y0102104D01*
X0664426Y0102238D01*
X0664503Y0102370D01*
X0664585Y0102500D01*
X0664669Y0102628D01*
X0664757Y0102754D01*
X0664848Y0102877D01*
X0664942Y0102998D01*
X0665040Y0103116D01*
X0665140Y0103232D01*
X0665244Y0103345D01*
X0665350Y0103456D01*
X0665459Y0103564D01*
X0665571Y0103669D01*
X0665685Y0103770D01*
X0665803Y0103869D01*
X0665922Y0103965D01*
X0666044Y0104058D01*
X0666169Y0104147D01*
X0666296Y0104234D01*
X0666425Y0104316D01*
X0666556Y0104396D01*
X0666689Y0104472D01*
X0666824Y0104545D01*
X0666961Y0104614D01*
X0667100Y0104679D01*
X0667240Y0104741D01*
X0667382Y0104799D01*
X0667525Y0104854D01*
X0667670Y0104905D01*
X0667816Y0104952D01*
X0667963Y0104995D01*
X0668111Y0105034D01*
X0668260Y0105070D01*
X0668410Y0105101D01*
X0668561Y0105129D01*
X0668712Y0105153D01*
X0668865Y0105173D01*
X0669017Y0105189D01*
X0669170Y0105201D01*
X0669323Y0105209D01*
X0669476Y0105213D01*
X0669630Y0105213D01*
X0669783Y0105209D01*
X0669936Y0105201D01*
X0670089Y0105189D01*
X0670241Y0105173D01*
X0670394Y0105153D01*
X0670545Y0105129D01*
X0670696Y0105101D01*
X0670846Y0105070D01*
X0670995Y0105034D01*
X0671143Y0104995D01*
X0671290Y0104952D01*
X0671436Y0104905D01*
X0671581Y0104854D01*
X0671724Y0104799D01*
X0671866Y0104741D01*
X0672006Y0104679D01*
X0672145Y0104614D01*
X0672282Y0104545D01*
X0672417Y0104472D01*
X0672550Y0104396D01*
X0672681Y0104316D01*
X0672810Y0104234D01*
X0672937Y0104147D01*
X0673062Y0104058D01*
X0673184Y0103965D01*
X0673303Y0103869D01*
X0673421Y0103770D01*
X0673535Y0103669D01*
X0673647Y0103564D01*
X0673756Y0103456D01*
X0673862Y0103345D01*
X0673966Y0103232D01*
X0674066Y0103116D01*
X0674164Y0102998D01*
X0674258Y0102877D01*
X0674349Y0102754D01*
X0674437Y0102628D01*
X0674521Y0102500D01*
X0674603Y0102370D01*
X0674680Y0102238D01*
X0674755Y0102104D01*
X0674826Y0101968D01*
X0674893Y0101830D01*
X0674957Y0101690D01*
X0675017Y0101549D01*
X0675073Y0101407D01*
X0675126Y0101263D01*
X0675175Y0101117D01*
X0675220Y0100971D01*
X0675261Y0100823D01*
X0675298Y0100675D01*
X0675332Y0100525D01*
X0675362Y0100374D01*
X0675387Y0100223D01*
X0675409Y0100072D01*
X0675427Y0099919D01*
X0675441Y0099767D01*
X0675451Y0099614D01*
X0675457Y0099460D01*
X0675459Y0099307D01*
X0675457Y0099154D01*
X0675451Y0099000D01*
X0675441Y0098847D01*
X0675427Y0098695D01*
X0675409Y0098542D01*
X0675387Y0098391D01*
X0675362Y0098240D01*
X0675332Y0098089D01*
X0675298Y0097939D01*
X0675261Y0097791D01*
X0675220Y0097643D01*
X0675175Y0097497D01*
X0675126Y0097351D01*
X0675073Y0097207D01*
X0675017Y0097065D01*
X0674957Y0096924D01*
X0674893Y0096784D01*
X0674826Y0096646D01*
X0674755Y0096510D01*
X0674680Y0096376D01*
X0674603Y0096244D01*
X0674521Y0096114D01*
X0674437Y0095986D01*
X0674349Y0095860D01*
X0674258Y0095737D01*
X0674164Y0095616D01*
X0674066Y0095498D01*
X0673966Y0095382D01*
X0673862Y0095269D01*
X0673756Y0095158D01*
X0673647Y0095050D01*
X0673535Y0094945D01*
X0673421Y0094844D01*
X0673303Y0094745D01*
X0673184Y0094649D01*
X0673062Y0094556D01*
X0672937Y0094467D01*
X0672810Y0094380D01*
X0672681Y0094298D01*
X0672550Y0094218D01*
X0672417Y0094142D01*
X0672282Y0094069D01*
X0672145Y0094000D01*
X0672006Y0093935D01*
X0671866Y0093873D01*
X0671724Y0093815D01*
X0671581Y0093760D01*
X0671436Y0093709D01*
X0671290Y0093662D01*
X0671143Y0093619D01*
X0670995Y0093580D01*
X0670846Y0093544D01*
X0670696Y0093513D01*
X0670545Y0093485D01*
X0670394Y0093461D01*
X0670241Y0093441D01*
X0670089Y0093425D01*
X0669936Y0093413D01*
X0669783Y0093405D01*
X0669630Y0093401D01*
X0669476Y0093401D01*
X0669323Y0093405D01*
X0669170Y0093413D01*
X0669017Y0093425D01*
X0668865Y0093441D01*
X0668712Y0093461D01*
X0668561Y0093485D01*
X0668410Y0093513D01*
X0668260Y0093544D01*
X0668111Y0093580D01*
X0667963Y0093619D01*
X0667816Y0093662D01*
X0667670Y0093709D01*
X0667525Y0093760D01*
X0667382Y0093815D01*
X0667240Y0093873D01*
X0667100Y0093935D01*
X0666961Y0094000D01*
X0666824Y0094069D01*
X0666689Y0094142D01*
X0666556Y0094218D01*
X0666425Y0094298D01*
X0666296Y0094380D01*
X0666169Y0094467D01*
X0666044Y0094556D01*
X0665922Y0094649D01*
X0665803Y0094745D01*
X0665685Y0094844D01*
X0665571Y0094945D01*
X0665459Y0095050D01*
X0665350Y0095158D01*
X0665244Y0095269D01*
X0665140Y0095382D01*
X0665040Y0095498D01*
X0664942Y0095616D01*
X0664848Y0095737D01*
X0664757Y0095860D01*
X0664669Y0095986D01*
X0664585Y0096114D01*
X0664503Y0096244D01*
X0664426Y0096376D01*
X0664351Y0096510D01*
X0664280Y0096646D01*
X0664213Y0096784D01*
X0664149Y0096924D01*
X0664089Y0097065D01*
X0664033Y0097207D01*
X0663980Y0097351D01*
X0663931Y0097497D01*
X0663886Y0097643D01*
X0663845Y0097791D01*
X0663808Y0097939D01*
X0663774Y0098089D01*
X0663744Y0098240D01*
X0663719Y0098391D01*
X0663697Y0098542D01*
X0663679Y0098695D01*
X0663665Y0098847D01*
X0663655Y0099000D01*
X0663649Y0099154D01*
X0663647Y0099307D01*
D11*
X0170538Y0112842D02*
X0170532Y0113324D01*
X0170515Y0113805D01*
X0170486Y0114286D01*
X0170445Y0114766D01*
X0170393Y0115244D01*
X0170329Y0115722D01*
X0170254Y0116197D01*
X0170167Y0116671D01*
X0170068Y0117143D01*
X0169959Y0117612D01*
X0169838Y0118078D01*
X0169706Y0118541D01*
X0169563Y0119001D01*
X0169408Y0119457D01*
X0169243Y0119909D01*
X0169067Y0120358D01*
X0168880Y0120801D01*
X0168682Y0121241D01*
X0168474Y0121675D01*
X0168255Y0122104D01*
X0168026Y0122528D01*
X0167787Y0122946D01*
X0167538Y0123358D01*
X0167279Y0123764D01*
X0167010Y0124164D01*
X0166732Y0124557D01*
X0166444Y0124943D01*
X0166147Y0125322D01*
X0165841Y0125694D01*
X0165526Y0126058D01*
X0165202Y0126415D01*
X0164870Y0126763D01*
X0164529Y0127104D01*
X0164181Y0127436D01*
X0163824Y0127760D01*
X0163460Y0128075D01*
X0163088Y0128381D01*
X0162709Y0128678D01*
X0162323Y0128966D01*
X0161930Y0129244D01*
X0161530Y0129513D01*
X0161124Y0129772D01*
X0160712Y0130021D01*
X0160294Y0130260D01*
X0159870Y0130489D01*
X0159441Y0130708D01*
X0159007Y0130916D01*
X0158567Y0131114D01*
X0158124Y0131301D01*
X0157675Y0131477D01*
X0157223Y0131642D01*
X0156767Y0131797D01*
X0156307Y0131940D01*
X0155844Y0132072D01*
X0155378Y0132193D01*
X0154909Y0132302D01*
X0154437Y0132401D01*
X0153963Y0132488D01*
X0153488Y0132563D01*
X0153010Y0132627D01*
X0152532Y0132679D01*
X0152052Y0132720D01*
X0151571Y0132749D01*
X0151090Y0132766D01*
X0150608Y0132772D01*
X0136089Y0132772D01*
X0136089Y0422142D01*
X0150608Y0422142D01*
X0150608Y0422141D02*
X0151090Y0422147D01*
X0151571Y0422164D01*
X0152052Y0422193D01*
X0152532Y0422234D01*
X0153010Y0422286D01*
X0153488Y0422350D01*
X0153963Y0422425D01*
X0154437Y0422512D01*
X0154909Y0422611D01*
X0155378Y0422720D01*
X0155844Y0422841D01*
X0156307Y0422973D01*
X0156767Y0423116D01*
X0157223Y0423271D01*
X0157675Y0423436D01*
X0158124Y0423612D01*
X0158567Y0423799D01*
X0159007Y0423997D01*
X0159441Y0424205D01*
X0159870Y0424424D01*
X0160294Y0424653D01*
X0160712Y0424892D01*
X0161124Y0425141D01*
X0161530Y0425400D01*
X0161930Y0425669D01*
X0162323Y0425947D01*
X0162709Y0426235D01*
X0163088Y0426532D01*
X0163460Y0426838D01*
X0163824Y0427153D01*
X0164181Y0427477D01*
X0164529Y0427809D01*
X0164870Y0428150D01*
X0165202Y0428498D01*
X0165526Y0428855D01*
X0165841Y0429219D01*
X0166147Y0429591D01*
X0166444Y0429970D01*
X0166732Y0430356D01*
X0167010Y0430749D01*
X0167279Y0431149D01*
X0167538Y0431555D01*
X0167787Y0431967D01*
X0168026Y0432385D01*
X0168255Y0432809D01*
X0168474Y0433238D01*
X0168682Y0433672D01*
X0168880Y0434112D01*
X0169067Y0434555D01*
X0169243Y0435004D01*
X0169408Y0435456D01*
X0169563Y0435912D01*
X0169706Y0436372D01*
X0169838Y0436835D01*
X0169959Y0437301D01*
X0170068Y0437770D01*
X0170167Y0438242D01*
X0170254Y0438716D01*
X0170329Y0439191D01*
X0170393Y0439669D01*
X0170445Y0440147D01*
X0170486Y0440627D01*
X0170515Y0441108D01*
X0170532Y0441589D01*
X0170538Y0442071D01*
X0170537Y0442071D02*
X0170537Y0495961D01*
X0696128Y0495961D01*
X0696128Y0442071D01*
X0696134Y0441589D01*
X0696151Y0441108D01*
X0696180Y0440627D01*
X0696221Y0440147D01*
X0696273Y0439669D01*
X0696337Y0439191D01*
X0696412Y0438716D01*
X0696499Y0438242D01*
X0696598Y0437770D01*
X0696707Y0437301D01*
X0696828Y0436835D01*
X0696960Y0436372D01*
X0697103Y0435912D01*
X0697258Y0435456D01*
X0697423Y0435004D01*
X0697599Y0434555D01*
X0697786Y0434112D01*
X0697984Y0433672D01*
X0698192Y0433238D01*
X0698411Y0432809D01*
X0698640Y0432385D01*
X0698879Y0431967D01*
X0699128Y0431555D01*
X0699387Y0431149D01*
X0699656Y0430749D01*
X0699934Y0430356D01*
X0700222Y0429970D01*
X0700519Y0429591D01*
X0700825Y0429219D01*
X0701140Y0428855D01*
X0701464Y0428498D01*
X0701796Y0428150D01*
X0702137Y0427809D01*
X0702485Y0427477D01*
X0702842Y0427153D01*
X0703206Y0426838D01*
X0703578Y0426532D01*
X0703957Y0426235D01*
X0704343Y0425947D01*
X0704736Y0425669D01*
X0705136Y0425400D01*
X0705542Y0425141D01*
X0705954Y0424892D01*
X0706372Y0424653D01*
X0706796Y0424424D01*
X0707225Y0424205D01*
X0707659Y0423997D01*
X0708099Y0423799D01*
X0708542Y0423612D01*
X0708991Y0423436D01*
X0709443Y0423271D01*
X0709899Y0423116D01*
X0710359Y0422973D01*
X0710822Y0422841D01*
X0711288Y0422720D01*
X0711757Y0422611D01*
X0712229Y0422512D01*
X0712703Y0422425D01*
X0713178Y0422350D01*
X0713656Y0422286D01*
X0714134Y0422234D01*
X0714614Y0422193D01*
X0715095Y0422164D01*
X0715576Y0422147D01*
X0716058Y0422141D01*
X0716058Y0422142D02*
X0730577Y0422142D01*
X0730577Y0132772D01*
X0716058Y0132772D01*
X0715576Y0132766D01*
X0715095Y0132749D01*
X0714614Y0132720D01*
X0714134Y0132679D01*
X0713656Y0132627D01*
X0713178Y0132563D01*
X0712703Y0132488D01*
X0712229Y0132401D01*
X0711757Y0132302D01*
X0711288Y0132193D01*
X0710822Y0132072D01*
X0710359Y0131940D01*
X0709899Y0131797D01*
X0709443Y0131642D01*
X0708991Y0131477D01*
X0708542Y0131301D01*
X0708099Y0131114D01*
X0707659Y0130916D01*
X0707225Y0130708D01*
X0706796Y0130489D01*
X0706372Y0130260D01*
X0705954Y0130021D01*
X0705542Y0129772D01*
X0705136Y0129513D01*
X0704736Y0129244D01*
X0704343Y0128966D01*
X0703957Y0128678D01*
X0703578Y0128381D01*
X0703206Y0128075D01*
X0702842Y0127760D01*
X0702485Y0127436D01*
X0702137Y0127104D01*
X0701796Y0126763D01*
X0701464Y0126415D01*
X0701140Y0126058D01*
X0700825Y0125694D01*
X0700519Y0125322D01*
X0700222Y0124943D01*
X0699934Y0124557D01*
X0699656Y0124164D01*
X0699387Y0123764D01*
X0699128Y0123358D01*
X0698879Y0122946D01*
X0698640Y0122528D01*
X0698411Y0122104D01*
X0698192Y0121675D01*
X0697984Y0121241D01*
X0697786Y0120801D01*
X0697599Y0120358D01*
X0697423Y0119909D01*
X0697258Y0119457D01*
X0697103Y0119001D01*
X0696960Y0118541D01*
X0696828Y0118078D01*
X0696707Y0117612D01*
X0696598Y0117143D01*
X0696499Y0116671D01*
X0696412Y0116197D01*
X0696337Y0115722D01*
X0696273Y0115244D01*
X0696221Y0114766D01*
X0696180Y0114286D01*
X0696151Y0113805D01*
X0696134Y0113324D01*
X0696128Y0112842D01*
X0696128Y0058953D01*
X0170537Y0058953D01*
X0170537Y0112842D01*
M02*
